<svg width="441" height="441" viewBox="0 0 441 441" fill="none" xmlns="http://www.w3.org/2000/svg">
<path d="M342.547 257.392C336.071 278.816 324.07 298.157 307.749 313.472" stroke="#D10006" stroke-width="20"/>
<path d="M307.971 313.264C291.688 328.618 271.65 339.416 249.871 344.571" stroke="#9E0466" stroke-width="20"/>
<path d="M250.507 344.42C228.754 349.686 205.999 349.135 184.527 342.82" stroke="#5F0564" stroke-width="20"/>
<path d="M185.388 343.07C163.872 336.906 144.358 325.188 128.807 309.092" stroke="#040263" stroke-width="20"/>
<path d="M129.09 309.383C113.488 293.336 102.385 273.466 96.8958 251.769" stroke="#08329D" stroke-width="20"/>
<path d="M96.9864 252.126C91.435 230.444 91.6886 207.683 97.7218 186.131" stroke="#006A64" stroke-width="20"/>
<path d="M97.2724 187.773C103.017 166.142 114.355 146.404 130.145 130.544" stroke="#399806" stroke-width="20"/>
<path d="M129.959 130.731C145.717 114.838 165.381 103.372 186.974 97.487" stroke="#65CC09" stroke-width="20"/>
<path d="M187.038 97.4697C208.635 91.5958 231.397 91.5101 253.037 97.2213" stroke="#F7FF08" stroke-width="20"/>
<path d="M252.838 97.1691C274.487 102.846 294.26 114.121 310.17 129.862" stroke="#FD9B05" stroke-width="20"/>
<path d="M310.168 129.858C326.079 145.598 337.567 165.249 343.476 186.836" stroke="#FE6606" stroke-width="20"/>
<path d="M343.412 186.612C349.361 208.188 349.525 230.949 343.889 252.609" stroke="#FB3505" stroke-width="20"/>
<path d="M345.398 194.209C350.088 216.093 348.935 238.826 342.055 260.123" stroke="#FE3406" stroke-width="20"/>
<ellipse cx="220.5" cy="221" rx="7.5" ry="8" fill="#2C2C2C"/>
<line x1="220.5" y1="221.005" x2="219.5" y2="126.005" stroke="#2C2C2C"/>
<line x1="220.563" y1="219.756" x2="268.563" y2="133.756" stroke="#2C2C2C"/>
<ellipse cx="219.5" cy="123" rx="7.5" ry="8" fill="#F7FF08"/>
<ellipse cx="268.5" cy="134" rx="7.5" ry="8" fill="#FD9B05"/>
<line x1="219.751" y1="219.566" x2="306.751" y2="169.566" stroke="#2C2C2C"/>
<ellipse cx="306.5" cy="169" rx="7.5" ry="8" fill="#FE6606"/>
<path d="M170.645 398L169.402 393.922H163.156L161.914 398H158L164.047 380.797H168.488L174.559 398H170.645ZM168.535 390.875L167.293 386.891C167.215 386.625 167.109 386.285 166.977 385.871C166.852 385.449 166.723 385.023 166.59 384.594C166.465 384.156 166.363 383.777 166.285 383.457C166.207 383.777 166.098 384.176 165.957 384.652C165.824 385.121 165.695 385.566 165.57 385.988C165.445 386.41 165.355 386.711 165.301 386.891L164.07 390.875H168.535ZM183.887 384.652C185.285 384.652 186.41 385.035 187.262 385.801C188.113 386.559 188.539 387.777 188.539 389.457V398H184.965V390.348C184.965 389.41 184.793 388.703 184.449 388.227C184.113 387.75 183.582 387.512 182.855 387.512C181.762 387.512 181.016 387.883 180.617 388.625C180.219 389.367 180.02 390.438 180.02 391.836V398H176.445V384.898H179.176L179.656 386.574H179.855C180.137 386.121 180.484 385.754 180.898 385.473C181.32 385.191 181.785 384.984 182.293 384.852C182.809 384.719 183.34 384.652 183.887 384.652ZM197.586 384.629C199.344 384.629 200.691 385.012 201.629 385.777C202.566 386.543 203.035 387.707 203.035 389.27V398H200.539L199.848 396.219H199.754C199.379 396.688 198.996 397.07 198.605 397.367C198.215 397.664 197.766 397.883 197.258 398.023C196.75 398.164 196.133 398.234 195.406 398.234C194.633 398.234 193.938 398.086 193.32 397.789C192.711 397.492 192.23 397.039 191.879 396.43C191.527 395.812 191.352 395.031 191.352 394.086C191.352 392.695 191.84 391.672 192.816 391.016C193.793 390.352 195.258 389.984 197.211 389.914L199.484 389.844V389.27C199.484 388.582 199.305 388.078 198.945 387.758C198.586 387.438 198.086 387.277 197.445 387.277C196.812 387.277 196.191 387.367 195.582 387.547C194.973 387.727 194.363 387.953 193.754 388.227L192.57 385.812C193.266 385.445 194.043 385.156 194.902 384.945C195.77 384.734 196.664 384.629 197.586 384.629ZM199.484 391.93L198.102 391.977C196.945 392.008 196.141 392.215 195.688 392.598C195.242 392.98 195.02 393.484 195.02 394.109C195.02 394.656 195.18 395.047 195.5 395.281C195.82 395.508 196.238 395.621 196.754 395.621C197.52 395.621 198.164 395.395 198.688 394.941C199.219 394.488 199.484 393.844 199.484 393.008V391.93ZM210.301 398H206.727V379.766H210.301V398ZM225.969 391.426C225.969 392.52 225.82 393.488 225.523 394.332C225.234 395.176 224.809 395.891 224.246 396.477C223.691 397.055 223.02 397.492 222.23 397.789C221.449 398.086 220.566 398.234 219.582 398.234C218.66 398.234 217.812 398.086 217.039 397.789C216.273 397.492 215.605 397.055 215.035 396.477C214.473 395.891 214.035 395.176 213.723 394.332C213.418 393.488 213.266 392.52 213.266 391.426C213.266 389.973 213.523 388.742 214.039 387.734C214.555 386.727 215.289 385.961 216.242 385.438C217.195 384.914 218.332 384.652 219.652 384.652C220.879 384.652 221.965 384.914 222.91 385.438C223.863 385.961 224.609 386.727 225.148 387.734C225.695 388.742 225.969 389.973 225.969 391.426ZM216.91 391.426C216.91 392.285 217.004 393.008 217.191 393.594C217.379 394.18 217.672 394.621 218.07 394.918C218.469 395.215 218.988 395.363 219.629 395.363C220.262 395.363 220.773 395.215 221.164 394.918C221.562 394.621 221.852 394.18 222.031 393.594C222.219 393.008 222.312 392.285 222.312 391.426C222.312 390.559 222.219 389.84 222.031 389.27C221.852 388.691 221.562 388.258 221.164 387.969C220.766 387.68 220.246 387.535 219.605 387.535C218.66 387.535 217.973 387.859 217.543 388.508C217.121 389.156 216.91 390.129 216.91 391.426ZM232.754 403.766C230.926 403.766 229.527 403.445 228.559 402.805C227.598 402.172 227.117 401.281 227.117 400.133C227.117 399.344 227.363 398.684 227.855 398.152C228.348 397.621 229.07 397.242 230.023 397.016C229.656 396.859 229.336 396.605 229.062 396.254C228.789 395.895 228.652 395.516 228.652 395.117C228.652 394.617 228.797 394.203 229.086 393.875C229.375 393.539 229.793 393.211 230.34 392.891C229.652 392.594 229.105 392.117 228.699 391.461C228.301 390.805 228.102 390.031 228.102 389.141C228.102 388.188 228.309 387.379 228.723 386.715C229.145 386.043 229.754 385.531 230.551 385.18C231.355 384.828 232.332 384.652 233.48 384.652C233.723 384.652 234.004 384.668 234.324 384.699C234.645 384.73 234.938 384.766 235.203 384.805C235.477 384.844 235.66 384.875 235.754 384.898H240.324V386.715L238.273 387.242C238.461 387.531 238.602 387.84 238.695 388.168C238.789 388.496 238.836 388.844 238.836 389.211C238.836 390.617 238.344 391.715 237.359 392.504C236.383 393.285 235.023 393.676 233.281 393.676C232.867 393.652 232.477 393.621 232.109 393.582C231.93 393.723 231.793 393.871 231.699 394.027C231.605 394.184 231.559 394.348 231.559 394.52C231.559 394.691 231.629 394.836 231.77 394.953C231.918 395.062 232.137 395.148 232.426 395.211C232.723 395.266 233.09 395.293 233.527 395.293H235.754C237.191 395.293 238.285 395.602 239.035 396.219C239.793 396.836 240.172 397.742 240.172 398.938C240.172 400.469 239.531 401.656 238.25 402.5C236.977 403.344 235.145 403.766 232.754 403.766ZM232.906 401.434C233.758 401.434 234.488 401.352 235.098 401.188C235.715 401.031 236.188 400.805 236.516 400.508C236.844 400.219 237.008 399.871 237.008 399.465C237.008 399.137 236.91 398.875 236.715 398.68C236.527 398.492 236.238 398.359 235.848 398.281C235.465 398.203 234.973 398.164 234.371 398.164H232.52C232.082 398.164 231.688 398.234 231.336 398.375C230.992 398.516 230.719 398.711 230.516 398.961C230.312 399.219 230.211 399.516 230.211 399.852C230.211 400.344 230.445 400.73 230.914 401.012C231.391 401.293 232.055 401.434 232.906 401.434ZM233.48 391.496C234.152 391.496 234.645 391.289 234.957 390.875C235.27 390.461 235.426 389.898 235.426 389.188C235.426 388.398 235.262 387.809 234.934 387.418C234.613 387.02 234.129 386.82 233.48 386.82C232.824 386.82 232.332 387.02 232.004 387.418C231.676 387.809 231.512 388.398 231.512 389.188C231.512 389.898 231.672 390.461 231.992 390.875C232.32 391.289 232.816 391.496 233.48 391.496ZM254.398 391.426C254.398 392.52 254.25 393.488 253.953 394.332C253.664 395.176 253.238 395.891 252.676 396.477C252.121 397.055 251.449 397.492 250.66 397.789C249.879 398.086 248.996 398.234 248.012 398.234C247.09 398.234 246.242 398.086 245.469 397.789C244.703 397.492 244.035 397.055 243.465 396.477C242.902 395.891 242.465 395.176 242.152 394.332C241.848 393.488 241.695 392.52 241.695 391.426C241.695 389.973 241.953 388.742 242.469 387.734C242.984 386.727 243.719 385.961 244.672 385.438C245.625 384.914 246.762 384.652 248.082 384.652C249.309 384.652 250.395 384.914 251.34 385.438C252.293 385.961 253.039 386.727 253.578 387.734C254.125 388.742 254.398 389.973 254.398 391.426ZM245.34 391.426C245.34 392.285 245.434 393.008 245.621 393.594C245.809 394.18 246.102 394.621 246.5 394.918C246.898 395.215 247.418 395.363 248.059 395.363C248.691 395.363 249.203 395.215 249.594 394.918C249.992 394.621 250.281 394.18 250.461 393.594C250.648 393.008 250.742 392.285 250.742 391.426C250.742 390.559 250.648 389.84 250.461 389.27C250.281 388.691 249.992 388.258 249.594 387.969C249.195 387.68 248.676 387.535 248.035 387.535C247.09 387.535 246.402 387.859 245.973 388.508C245.551 389.156 245.34 390.129 245.34 391.426ZM269.375 384.898V398H266.633L266.152 396.324H265.965C265.684 396.77 265.332 397.133 264.91 397.414C264.488 397.695 264.023 397.902 263.516 398.035C263.008 398.168 262.48 398.234 261.934 398.234C260.996 398.234 260.18 398.07 259.484 397.742C258.789 397.406 258.246 396.887 257.855 396.184C257.473 395.48 257.281 394.566 257.281 393.441V384.898H260.855V392.551C260.855 393.488 261.023 394.195 261.359 394.672C261.695 395.148 262.23 395.387 262.965 395.387C263.691 395.387 264.262 395.223 264.676 394.895C265.09 394.559 265.379 394.07 265.543 393.43C265.715 392.781 265.801 391.992 265.801 391.062V384.898H269.375ZM282.266 394.109C282.266 395 282.055 395.754 281.633 396.371C281.219 396.98 280.598 397.445 279.77 397.766C278.941 398.078 277.91 398.234 276.676 398.234C275.762 398.234 274.977 398.176 274.32 398.059C273.672 397.941 273.016 397.746 272.352 397.473V394.52C273.062 394.84 273.824 395.105 274.637 395.316C275.457 395.52 276.176 395.621 276.793 395.621C277.488 395.621 277.984 395.52 278.281 395.316C278.586 395.105 278.738 394.832 278.738 394.496C278.738 394.277 278.676 394.082 278.551 393.91C278.434 393.73 278.176 393.531 277.777 393.312C277.379 393.086 276.754 392.793 275.902 392.434C275.082 392.09 274.406 391.742 273.875 391.391C273.352 391.039 272.961 390.625 272.703 390.148C272.453 389.664 272.328 389.051 272.328 388.309C272.328 387.098 272.797 386.188 273.734 385.578C274.68 384.961 275.941 384.652 277.52 384.652C278.332 384.652 279.105 384.734 279.84 384.898C280.582 385.062 281.344 385.324 282.125 385.684L281.047 388.262C280.398 387.98 279.785 387.75 279.207 387.57C278.637 387.391 278.055 387.301 277.461 387.301C276.938 387.301 276.543 387.371 276.277 387.512C276.012 387.652 275.879 387.867 275.879 388.156C275.879 388.367 275.945 388.555 276.078 388.719C276.219 388.883 276.484 389.066 276.875 389.27C277.273 389.465 277.855 389.719 278.621 390.031C279.363 390.336 280.008 390.656 280.555 390.992C281.102 391.32 281.523 391.73 281.82 392.223C282.117 392.707 282.266 393.336 282.266 394.109Z" fill="black"/>
</svg>
