<svg width="440" height="440" viewBox="0 0 440 440" fill="none" xmlns="http://www.w3.org/2000/svg">
<path d="M341.658 256.505C335.182 277.928 323.181 297.27 306.861 312.585" stroke="#D10006" stroke-opacity="0.3" stroke-width="20"/>
<path d="M306.85 312.596C290.528 327.909 270.463 338.656 248.671 343.757" stroke="#9E0466" stroke-opacity="0.3" stroke-width="20"/>
<path d="M248.723 343.746C226.933 348.855 204.182 348.139 182.756 341.67" stroke="#5F0564" stroke-opacity="0.3" stroke-width="20"/>
<path d="M182.807 341.685C161.379 335.225 142.029 323.238 126.702 306.928" stroke="#040263" stroke-opacity="0.3" stroke-width="20"/>
<path d="M128.201 308.495C112.599 292.449 101.496 272.579 96.0072 250.881" stroke="#08329D" stroke-width="20"/>
<path d="M96.0977 251.238C90.5463 229.557 90.8 206.796 96.8331 185.244" stroke="#006A64" stroke-opacity="0.3" stroke-width="20"/>
<path d="M96.8079 185.329C102.676 164.31 113.841 145.149 129.233 129.68" stroke="#399806" stroke-opacity="0.3" stroke-width="20"/>
<path d="M129.071 129.844C144.828 113.95 164.492 102.485 186.085 96.5998" stroke="#65CC09" stroke-opacity="0.3" stroke-width="20"/>
<path d="M186.15 96.5825C207.746 90.7086 230.508 90.6229 252.148 96.3341" stroke="#F7FF08" stroke-opacity="0.3" stroke-width="20"/>
<path d="M251.949 96.2819C273.598 101.959 293.372 113.234 309.282 128.975" stroke="#FD9B05" stroke-opacity="0.3" stroke-width="20"/>
<path d="M309.28 128.971C325.191 144.711 336.678 164.362 342.587 185.948" stroke="#FE6606" stroke-width="20"/>
<path d="M342.524 185.724C348.926 208.947 348.619 233.508 341.638 256.563" stroke="#FB3505" stroke-opacity="0.3" stroke-width="20"/>
<ellipse cx="219.611" cy="220.113" rx="7.5" ry="8" fill="#2C2C2C"/>
<line x1="131.749" y1="269.567" x2="305.861" y2="168.68" stroke="#2C2C2C"/>
<ellipse cx="305.611" cy="168.113" rx="7.5" ry="8" fill="#FE6606"/>
<path d="M131.434 383.645C130.738 383.645 130.121 383.781 129.582 384.055C129.051 384.32 128.602 384.707 128.234 385.215C127.875 385.723 127.602 386.336 127.414 387.055C127.227 387.773 127.133 388.582 127.133 389.48C127.133 390.691 127.281 391.727 127.578 392.586C127.883 393.438 128.352 394.09 128.984 394.543C129.617 394.988 130.434 395.211 131.434 395.211C132.129 395.211 132.824 395.133 133.52 394.977C134.223 394.82 134.984 394.598 135.805 394.309V397.355C135.047 397.668 134.301 397.891 133.566 398.023C132.832 398.164 132.008 398.234 131.094 398.234C129.328 398.234 127.875 397.871 126.734 397.145C125.602 396.41 124.762 395.387 124.215 394.074C123.668 392.754 123.395 391.215 123.395 389.457C123.395 388.16 123.57 386.973 123.922 385.895C124.273 384.816 124.789 383.883 125.469 383.094C126.148 382.305 126.988 381.695 127.988 381.266C128.988 380.836 130.137 380.621 131.434 380.621C132.285 380.621 133.137 380.73 133.988 380.949C134.848 381.16 135.668 381.453 136.449 381.828L135.277 384.781C134.637 384.477 133.992 384.211 133.344 383.984C132.695 383.758 132.059 383.645 131.434 383.645ZM151.086 391.426C151.086 392.52 150.938 393.488 150.641 394.332C150.352 395.176 149.926 395.891 149.363 396.477C148.809 397.055 148.137 397.492 147.348 397.789C146.566 398.086 145.684 398.234 144.699 398.234C143.777 398.234 142.93 398.086 142.156 397.789C141.391 397.492 140.723 397.055 140.152 396.477C139.59 395.891 139.152 395.176 138.84 394.332C138.535 393.488 138.383 392.52 138.383 391.426C138.383 389.973 138.641 388.742 139.156 387.734C139.672 386.727 140.406 385.961 141.359 385.438C142.312 384.914 143.449 384.652 144.77 384.652C145.996 384.652 147.082 384.914 148.027 385.438C148.98 385.961 149.727 386.727 150.266 387.734C150.812 388.742 151.086 389.973 151.086 391.426ZM142.027 391.426C142.027 392.285 142.121 393.008 142.309 393.594C142.496 394.18 142.789 394.621 143.188 394.918C143.586 395.215 144.105 395.363 144.746 395.363C145.379 395.363 145.891 395.215 146.281 394.918C146.68 394.621 146.969 394.18 147.148 393.594C147.336 393.008 147.43 392.285 147.43 391.426C147.43 390.559 147.336 389.84 147.148 389.27C146.969 388.691 146.68 388.258 146.281 387.969C145.883 387.68 145.363 387.535 144.723 387.535C143.777 387.535 143.09 387.859 142.66 388.508C142.238 389.156 142.027 390.129 142.027 391.426ZM169.426 384.652C170.91 384.652 172.031 385.035 172.789 385.801C173.555 386.559 173.938 387.777 173.938 389.457V398H170.352V390.348C170.352 389.41 170.191 388.703 169.871 388.227C169.551 387.75 169.055 387.512 168.383 387.512C167.438 387.512 166.766 387.852 166.367 388.531C165.969 389.203 165.77 390.168 165.77 391.426V398H162.195V390.348C162.195 389.723 162.125 389.199 161.984 388.777C161.844 388.355 161.629 388.039 161.34 387.828C161.051 387.617 160.68 387.512 160.227 387.512C159.562 387.512 159.039 387.68 158.656 388.016C158.281 388.344 158.012 388.832 157.848 389.48C157.691 390.121 157.613 390.906 157.613 391.836V398H154.039V384.898H156.77L157.25 386.574H157.449C157.715 386.121 158.047 385.754 158.445 385.473C158.852 385.191 159.297 384.984 159.781 384.852C160.266 384.719 160.758 384.652 161.258 384.652C162.219 384.652 163.031 384.809 163.695 385.121C164.367 385.434 164.883 385.918 165.242 386.574H165.559C165.949 385.902 166.5 385.414 167.211 385.109C167.93 384.805 168.668 384.652 169.426 384.652ZM184.906 384.652C186.383 384.652 187.574 385.227 188.48 386.375C189.395 387.523 189.852 389.207 189.852 391.426C189.852 392.91 189.637 394.16 189.207 395.176C188.777 396.184 188.184 396.945 187.426 397.461C186.668 397.977 185.797 398.234 184.812 398.234C184.18 398.234 183.637 398.156 183.184 398C182.73 397.836 182.344 397.629 182.023 397.379C181.703 397.121 181.426 396.848 181.191 396.559H181.004C181.066 396.871 181.113 397.191 181.145 397.52C181.176 397.848 181.191 398.168 181.191 398.48V403.766H177.617V384.898H180.523L181.027 386.598H181.191C181.426 386.246 181.711 385.922 182.047 385.625C182.383 385.328 182.785 385.094 183.254 384.922C183.73 384.742 184.281 384.652 184.906 384.652ZM183.758 387.512C183.133 387.512 182.637 387.641 182.27 387.898C181.902 388.156 181.633 388.543 181.461 389.059C181.297 389.574 181.207 390.227 181.191 391.016V391.402C181.191 392.246 181.27 392.961 181.426 393.547C181.59 394.133 181.859 394.578 182.234 394.883C182.617 395.188 183.141 395.34 183.805 395.34C184.352 395.34 184.801 395.188 185.152 394.883C185.504 394.578 185.766 394.133 185.938 393.547C186.117 392.953 186.207 392.23 186.207 391.379C186.207 390.098 186.008 389.133 185.609 388.484C185.211 387.836 184.594 387.512 183.758 387.512ZM196.379 398H192.805V379.766H196.379V398ZM205.543 384.652C206.754 384.652 207.797 384.887 208.672 385.355C209.547 385.816 210.223 386.488 210.699 387.371C211.176 388.254 211.414 389.332 211.414 390.605V392.34H202.965C203.004 393.348 203.305 394.141 203.867 394.719C204.438 395.289 205.227 395.574 206.234 395.574C207.07 395.574 207.836 395.488 208.531 395.316C209.227 395.145 209.941 394.887 210.676 394.543V397.309C210.027 397.629 209.348 397.863 208.637 398.012C207.934 398.16 207.078 398.234 206.07 398.234C204.758 398.234 203.594 397.992 202.578 397.508C201.57 397.023 200.777 396.285 200.199 395.293C199.629 394.301 199.344 393.051 199.344 391.543C199.344 390.012 199.602 388.738 200.117 387.723C200.641 386.699 201.367 385.934 202.297 385.426C203.227 384.91 204.309 384.652 205.543 384.652ZM205.566 387.195C204.871 387.195 204.293 387.418 203.832 387.863C203.379 388.309 203.117 389.008 203.047 389.961H208.062C208.055 389.43 207.957 388.957 207.77 388.543C207.59 388.129 207.316 387.801 206.949 387.559C206.59 387.316 206.129 387.195 205.566 387.195ZM229.707 384.652C231.191 384.652 232.312 385.035 233.07 385.801C233.836 386.559 234.219 387.777 234.219 389.457V398H230.633V390.348C230.633 389.41 230.473 388.703 230.152 388.227C229.832 387.75 229.336 387.512 228.664 387.512C227.719 387.512 227.047 387.852 226.648 388.531C226.25 389.203 226.051 390.168 226.051 391.426V398H222.477V390.348C222.477 389.723 222.406 389.199 222.266 388.777C222.125 388.355 221.91 388.039 221.621 387.828C221.332 387.617 220.961 387.512 220.508 387.512C219.844 387.512 219.32 387.68 218.938 388.016C218.562 388.344 218.293 388.832 218.129 389.48C217.973 390.121 217.895 390.906 217.895 391.836V398H214.32V384.898H217.051L217.531 386.574H217.73C217.996 386.121 218.328 385.754 218.727 385.473C219.133 385.191 219.578 384.984 220.062 384.852C220.547 384.719 221.039 384.652 221.539 384.652C222.5 384.652 223.312 384.809 223.977 385.121C224.648 385.434 225.164 385.918 225.523 386.574H225.84C226.23 385.902 226.781 385.414 227.492 385.109C228.211 384.805 228.949 384.652 229.707 384.652ZM243.301 384.652C244.512 384.652 245.555 384.887 246.43 385.355C247.305 385.816 247.98 386.488 248.457 387.371C248.934 388.254 249.172 389.332 249.172 390.605V392.34H240.723C240.762 393.348 241.062 394.141 241.625 394.719C242.195 395.289 242.984 395.574 243.992 395.574C244.828 395.574 245.594 395.488 246.289 395.316C246.984 395.145 247.699 394.887 248.434 394.543V397.309C247.785 397.629 247.105 397.863 246.395 398.012C245.691 398.16 244.836 398.234 243.828 398.234C242.516 398.234 241.352 397.992 240.336 397.508C239.328 397.023 238.535 396.285 237.957 395.293C237.387 394.301 237.102 393.051 237.102 391.543C237.102 390.012 237.359 388.738 237.875 387.723C238.398 386.699 239.125 385.934 240.055 385.426C240.984 384.91 242.066 384.652 243.301 384.652ZM243.324 387.195C242.629 387.195 242.051 387.418 241.59 387.863C241.137 388.309 240.875 389.008 240.805 389.961H245.82C245.812 389.43 245.715 388.957 245.527 388.543C245.348 388.129 245.074 387.801 244.707 387.559C244.348 387.316 243.887 387.195 243.324 387.195ZM259.52 384.652C260.918 384.652 262.043 385.035 262.895 385.801C263.746 386.559 264.172 387.777 264.172 389.457V398H260.598V390.348C260.598 389.41 260.426 388.703 260.082 388.227C259.746 387.75 259.215 387.512 258.488 387.512C257.395 387.512 256.648 387.883 256.25 388.625C255.852 389.367 255.652 390.438 255.652 391.836V398H252.078V384.898H254.809L255.289 386.574H255.488C255.77 386.121 256.117 385.754 256.531 385.473C256.953 385.191 257.418 384.984 257.926 384.852C258.441 384.719 258.973 384.652 259.52 384.652ZM273.371 395.387C273.762 395.387 274.141 395.348 274.508 395.27C274.883 395.191 275.254 395.094 275.621 394.977V397.637C275.238 397.809 274.762 397.949 274.191 398.059C273.629 398.176 273.012 398.234 272.34 398.234C271.559 398.234 270.855 398.109 270.23 397.859C269.613 397.602 269.125 397.16 268.766 396.535C268.414 395.902 268.238 395.023 268.238 393.898V387.582H266.527V386.07L268.496 384.875L269.527 382.109H271.812V384.898H275.48V387.582H271.812V393.898C271.812 394.398 271.953 394.773 272.234 395.023C272.523 395.266 272.902 395.387 273.371 395.387ZM283.648 384.629C285.406 384.629 286.754 385.012 287.691 385.777C288.629 386.543 289.098 387.707 289.098 389.27V398H286.602L285.91 396.219H285.816C285.441 396.688 285.059 397.07 284.668 397.367C284.277 397.664 283.828 397.883 283.32 398.023C282.812 398.164 282.195 398.234 281.469 398.234C280.695 398.234 280 398.086 279.383 397.789C278.773 397.492 278.293 397.039 277.941 396.43C277.59 395.812 277.414 395.031 277.414 394.086C277.414 392.695 277.902 391.672 278.879 391.016C279.855 390.352 281.32 389.984 283.273 389.914L285.547 389.844V389.27C285.547 388.582 285.367 388.078 285.008 387.758C284.648 387.438 284.148 387.277 283.508 387.277C282.875 387.277 282.254 387.367 281.645 387.547C281.035 387.727 280.426 387.953 279.816 388.227L278.633 385.812C279.328 385.445 280.105 385.156 280.965 384.945C281.832 384.734 282.727 384.629 283.648 384.629ZM285.547 391.93L284.164 391.977C283.008 392.008 282.203 392.215 281.75 392.598C281.305 392.98 281.082 393.484 281.082 394.109C281.082 394.656 281.242 395.047 281.562 395.281C281.883 395.508 282.301 395.621 282.816 395.621C283.582 395.621 284.227 395.395 284.75 394.941C285.281 394.488 285.547 393.844 285.547 393.008V391.93ZM300.102 384.652C300.281 384.652 300.488 384.664 300.723 384.688C300.965 384.703 301.16 384.727 301.309 384.758L301.039 388.109C300.922 388.07 300.754 388.043 300.535 388.027C300.324 388.004 300.141 387.992 299.984 387.992C299.523 387.992 299.074 388.051 298.637 388.168C298.207 388.285 297.82 388.477 297.477 388.742C297.133 389 296.859 389.344 296.656 389.773C296.461 390.195 296.363 390.715 296.363 391.332V398H292.789V384.898H295.496L296.023 387.102H296.199C296.457 386.656 296.777 386.25 297.16 385.883C297.551 385.508 297.992 385.211 298.484 384.992C298.984 384.766 299.523 384.652 300.102 384.652ZM301.812 384.898H305.727L308.199 392.27C308.277 392.504 308.344 392.742 308.398 392.984C308.453 393.227 308.5 393.477 308.539 393.734C308.578 393.992 308.609 394.262 308.633 394.543H308.703C308.75 394.121 308.812 393.727 308.891 393.359C308.977 392.992 309.082 392.629 309.207 392.27L311.633 384.898H315.465L309.922 399.676C309.586 400.582 309.148 401.336 308.609 401.938C308.07 402.547 307.449 403.004 306.746 403.309C306.051 403.613 305.285 403.766 304.449 403.766C304.043 403.766 303.691 403.742 303.395 403.695C303.098 403.656 302.844 403.613 302.633 403.566V400.73C302.797 400.77 303.004 400.805 303.254 400.836C303.504 400.867 303.766 400.883 304.039 400.883C304.539 400.883 304.969 400.777 305.328 400.566C305.688 400.355 305.988 400.07 306.23 399.711C306.473 399.359 306.664 398.973 306.805 398.551L307.016 397.906L301.812 384.898Z" fill="black"/>
<ellipse cx="132.5" cy="270" rx="7.5" ry="8" fill="#08329D"/>
</svg>
