<svg width="440" height="440" viewBox="0 0 440 440" fill="none" xmlns="http://www.w3.org/2000/svg">
<path d="M341.658 256.505C335.182 277.928 323.181 297.27 306.861 312.585" stroke="#D10006" stroke-opacity="0.3" stroke-width="20"/>
<path d="M306.884 312.564C290.568 327.883 270.507 338.638 248.717 343.747" stroke="#9E0466" stroke-opacity="0.3" stroke-width="20"/>
<path d="M248.715 343.748C226.924 348.856 204.174 348.138 182.749 341.667" stroke="#5F0564" stroke-opacity="0.3" stroke-width="20"/>
<path d="M182.768 341.673C161.342 335.206 141.995 323.212 126.674 306.898" stroke="#040263" stroke-opacity="0.3" stroke-width="20"/>
<path d="M126.724 306.951C111.393 290.645 100.625 270.591 95.5004 248.805" stroke="#08329D" stroke-opacity="0.3" stroke-width="20"/>
<path d="M95.5222 248.899C90.6921 228.433 90.9991 207.09 96.4158 186.771" stroke="#006A64" stroke-opacity="0.3" stroke-width="20"/>
<path d="M96.3837 186.886C102.129 165.255 113.466 145.517 129.257 129.656" stroke="#399806" stroke-opacity="0.3" stroke-width="20"/>
<path d="M129.071 129.844C144.828 113.95 164.492 102.485 186.085 96.5998" stroke="#65CC09" stroke-opacity="0.3" stroke-width="20"/>
<path d="M186.15 96.5825C207.746 90.7086 230.508 90.6229 252.148 96.3341" stroke="#F7FF08" stroke-opacity="0.3" stroke-width="20"/>
<path d="M251.949 96.282C273.598 101.959 293.372 113.234 309.282 128.975" stroke="#FD9B05" stroke-opacity="0.3" stroke-width="20"/>
<path d="M309.28 128.971C325.191 144.711 336.678 164.362 342.587 185.948" stroke="#FE6606" stroke-width="20"/>
<path d="M342.524 185.724C348.91 208.89 348.621 233.388 341.688 256.396" stroke="#FB3505" stroke-opacity="0.3" stroke-width="20"/>
<ellipse cx="219.611" cy="220.113" rx="7.5" ry="8" fill="#2C2C2C"/>
<line x1="219.939" y1="219.643" x2="312.828" y2="185.531" stroke="#2C2C2C"/>
<line x1="220.662" y1="219.632" x2="294.662" y2="151.632" stroke="#2C2C2C"/>
<ellipse cx="313.5" cy="186" rx="7.5" ry="8" fill="#FF542B"/>
<ellipse cx="295.5" cy="152" rx="7.5" ry="8" fill="#FB8F4A"/>
<line x1="220.743" y1="219.571" x2="305.855" y2="168.684" stroke="#2C2C2C"/>
<ellipse cx="305.611" cy="168.113" rx="7.5" ry="8" fill="#FE6606"/>
<path d="M134.41 395L130.285 381.559H130.18C130.195 381.879 130.219 382.363 130.25 383.012C130.289 383.652 130.324 384.336 130.355 385.062C130.387 385.789 130.402 386.445 130.402 387.031V395H127.156V377.867H132.102L136.156 390.969H136.227L140.527 377.867H145.473V395H142.086V386.891C142.086 386.352 142.094 385.73 142.109 385.027C142.133 384.324 142.16 383.656 142.191 383.023C142.223 382.383 142.246 381.902 142.262 381.582H142.156L137.738 395H134.41ZM161.422 388.426C161.422 389.52 161.273 390.488 160.977 391.332C160.688 392.176 160.262 392.891 159.699 393.477C159.145 394.055 158.473 394.492 157.684 394.789C156.902 395.086 156.02 395.234 155.035 395.234C154.113 395.234 153.266 395.086 152.492 394.789C151.727 394.492 151.059 394.055 150.488 393.477C149.926 392.891 149.488 392.176 149.176 391.332C148.871 390.488 148.719 389.52 148.719 388.426C148.719 386.973 148.977 385.742 149.492 384.734C150.008 383.727 150.742 382.961 151.695 382.438C152.648 381.914 153.785 381.652 155.105 381.652C156.332 381.652 157.418 381.914 158.363 382.438C159.316 382.961 160.062 383.727 160.602 384.734C161.148 385.742 161.422 386.973 161.422 388.426ZM152.363 388.426C152.363 389.285 152.457 390.008 152.645 390.594C152.832 391.18 153.125 391.621 153.523 391.918C153.922 392.215 154.441 392.363 155.082 392.363C155.715 392.363 156.227 392.215 156.617 391.918C157.016 391.621 157.305 391.18 157.484 390.594C157.672 390.008 157.766 389.285 157.766 388.426C157.766 387.559 157.672 386.84 157.484 386.27C157.305 385.691 157.016 385.258 156.617 384.969C156.219 384.68 155.699 384.535 155.059 384.535C154.113 384.535 153.426 384.859 152.996 385.508C152.574 386.156 152.363 387.129 152.363 388.426ZM171.816 381.652C173.215 381.652 174.34 382.035 175.191 382.801C176.043 383.559 176.469 384.777 176.469 386.457V395H172.895V387.348C172.895 386.41 172.723 385.703 172.379 385.227C172.043 384.75 171.512 384.512 170.785 384.512C169.691 384.512 168.945 384.883 168.547 385.625C168.148 386.367 167.949 387.438 167.949 388.836V395H164.375V381.898H167.105L167.586 383.574H167.785C168.066 383.121 168.414 382.754 168.828 382.473C169.25 382.191 169.715 381.984 170.223 381.852C170.738 381.719 171.27 381.652 171.816 381.652ZM192.055 388.426C192.055 389.52 191.906 390.488 191.609 391.332C191.32 392.176 190.895 392.891 190.332 393.477C189.777 394.055 189.105 394.492 188.316 394.789C187.535 395.086 186.652 395.234 185.668 395.234C184.746 395.234 183.898 395.086 183.125 394.789C182.359 394.492 181.691 394.055 181.121 393.477C180.559 392.891 180.121 392.176 179.809 391.332C179.504 390.488 179.352 389.52 179.352 388.426C179.352 386.973 179.609 385.742 180.125 384.734C180.641 383.727 181.375 382.961 182.328 382.438C183.281 381.914 184.418 381.652 185.738 381.652C186.965 381.652 188.051 381.914 188.996 382.438C189.949 382.961 190.695 383.727 191.234 384.734C191.781 385.742 192.055 386.973 192.055 388.426ZM182.996 388.426C182.996 389.285 183.09 390.008 183.277 390.594C183.465 391.18 183.758 391.621 184.156 391.918C184.555 392.215 185.074 392.363 185.715 392.363C186.348 392.363 186.859 392.215 187.25 391.918C187.648 391.621 187.938 391.18 188.117 390.594C188.305 390.008 188.398 389.285 188.398 388.426C188.398 387.559 188.305 386.84 188.117 386.27C187.938 385.691 187.648 385.258 187.25 384.969C186.852 384.68 186.332 384.535 185.691 384.535C184.746 384.535 184.059 384.859 183.629 385.508C183.207 386.156 182.996 387.129 182.996 388.426ZM200.328 395.234C199.031 395.234 197.926 395 197.012 394.531C196.098 394.055 195.402 393.32 194.926 392.328C194.449 391.336 194.211 390.066 194.211 388.52C194.211 386.918 194.48 385.613 195.02 384.605C195.566 383.59 196.32 382.844 197.281 382.367C198.25 381.891 199.371 381.652 200.645 381.652C201.551 381.652 202.332 381.742 202.988 381.922C203.652 382.094 204.23 382.301 204.723 382.543L203.668 385.309C203.105 385.082 202.582 384.898 202.098 384.758C201.613 384.609 201.129 384.535 200.645 384.535C200.02 384.535 199.5 384.684 199.086 384.98C198.672 385.27 198.363 385.707 198.16 386.293C197.957 386.879 197.855 387.613 197.855 388.496C197.855 389.363 197.965 390.082 198.184 390.652C198.402 391.223 198.719 391.648 199.133 391.93C199.547 392.203 200.051 392.34 200.645 392.34C201.387 392.34 202.047 392.242 202.625 392.047C203.203 391.844 203.766 391.562 204.312 391.203V394.262C203.766 394.605 203.191 394.852 202.59 395C201.996 395.156 201.242 395.234 200.328 395.234ZM210.934 376.766V380.48C210.934 381.129 210.91 381.746 210.863 382.332C210.824 382.918 210.793 383.332 210.77 383.574H210.957C211.238 383.121 211.57 382.754 211.953 382.473C212.344 382.191 212.773 381.984 213.242 381.852C213.711 381.719 214.215 381.652 214.754 381.652C215.699 381.652 216.523 381.82 217.227 382.156C217.93 382.484 218.477 383.004 218.867 383.715C219.258 384.418 219.453 385.332 219.453 386.457V395H215.879V387.348C215.879 386.41 215.707 385.703 215.363 385.227C215.02 384.75 214.488 384.512 213.77 384.512C213.051 384.512 212.484 384.68 212.07 385.016C211.656 385.344 211.363 385.832 211.191 386.48C211.02 387.121 210.934 387.906 210.934 388.836V395H207.359V376.766H210.934ZM230.445 381.652C230.625 381.652 230.832 381.664 231.066 381.688C231.309 381.703 231.504 381.727 231.652 381.758L231.383 385.109C231.266 385.07 231.098 385.043 230.879 385.027C230.668 385.004 230.484 384.992 230.328 384.992C229.867 384.992 229.418 385.051 228.98 385.168C228.551 385.285 228.164 385.477 227.82 385.742C227.477 386 227.203 386.344 227 386.773C226.805 387.195 226.707 387.715 226.707 388.332V395H223.133V381.898H225.84L226.367 384.102H226.543C226.801 383.656 227.121 383.25 227.504 382.883C227.895 382.508 228.336 382.211 228.828 381.992C229.328 381.766 229.867 381.652 230.445 381.652ZM245.938 388.426C245.938 389.52 245.789 390.488 245.492 391.332C245.203 392.176 244.777 392.891 244.215 393.477C243.66 394.055 242.988 394.492 242.199 394.789C241.418 395.086 240.535 395.234 239.551 395.234C238.629 395.234 237.781 395.086 237.008 394.789C236.242 394.492 235.574 394.055 235.004 393.477C234.441 392.891 234.004 392.176 233.691 391.332C233.387 390.488 233.234 389.52 233.234 388.426C233.234 386.973 233.492 385.742 234.008 384.734C234.523 383.727 235.258 382.961 236.211 382.438C237.164 381.914 238.301 381.652 239.621 381.652C240.848 381.652 241.934 381.914 242.879 382.438C243.832 382.961 244.578 383.727 245.117 384.734C245.664 385.742 245.938 386.973 245.938 388.426ZM236.879 388.426C236.879 389.285 236.973 390.008 237.16 390.594C237.348 391.18 237.641 391.621 238.039 391.918C238.438 392.215 238.957 392.363 239.598 392.363C240.23 392.363 240.742 392.215 241.133 391.918C241.531 391.621 241.82 391.18 242 390.594C242.188 390.008 242.281 389.285 242.281 388.426C242.281 387.559 242.188 386.84 242 386.27C241.82 385.691 241.531 385.258 241.133 384.969C240.734 384.68 240.215 384.535 239.574 384.535C238.629 384.535 237.941 384.859 237.512 385.508C237.09 386.156 236.879 387.129 236.879 388.426ZM264.277 381.652C265.762 381.652 266.883 382.035 267.641 382.801C268.406 383.559 268.789 384.777 268.789 386.457V395H265.203V387.348C265.203 386.41 265.043 385.703 264.723 385.227C264.402 384.75 263.906 384.512 263.234 384.512C262.289 384.512 261.617 384.852 261.219 385.531C260.82 386.203 260.621 387.168 260.621 388.426V395H257.047V387.348C257.047 386.723 256.977 386.199 256.836 385.777C256.695 385.355 256.48 385.039 256.191 384.828C255.902 384.617 255.531 384.512 255.078 384.512C254.414 384.512 253.891 384.68 253.508 385.016C253.133 385.344 252.863 385.832 252.699 386.48C252.543 387.121 252.465 387.906 252.465 388.836V395H248.891V381.898H251.621L252.102 383.574H252.301C252.566 383.121 252.898 382.754 253.297 382.473C253.703 382.191 254.148 381.984 254.633 381.852C255.117 381.719 255.609 381.652 256.109 381.652C257.07 381.652 257.883 381.809 258.547 382.121C259.219 382.434 259.734 382.918 260.094 383.574H260.41C260.801 382.902 261.352 382.414 262.062 382.109C262.781 381.805 263.52 381.652 264.277 381.652ZM277.836 381.629C279.594 381.629 280.941 382.012 281.879 382.777C282.816 383.543 283.285 384.707 283.285 386.27V395H280.789L280.098 393.219H280.004C279.629 393.688 279.246 394.07 278.855 394.367C278.465 394.664 278.016 394.883 277.508 395.023C277 395.164 276.383 395.234 275.656 395.234C274.883 395.234 274.188 395.086 273.57 394.789C272.961 394.492 272.48 394.039 272.129 393.43C271.777 392.812 271.602 392.031 271.602 391.086C271.602 389.695 272.09 388.672 273.066 388.016C274.043 387.352 275.508 386.984 277.461 386.914L279.734 386.844V386.27C279.734 385.582 279.555 385.078 279.195 384.758C278.836 384.438 278.336 384.277 277.695 384.277C277.062 384.277 276.441 384.367 275.832 384.547C275.223 384.727 274.613 384.953 274.004 385.227L272.82 382.812C273.516 382.445 274.293 382.156 275.152 381.945C276.02 381.734 276.914 381.629 277.836 381.629ZM279.734 388.93L278.352 388.977C277.195 389.008 276.391 389.215 275.938 389.598C275.492 389.98 275.27 390.484 275.27 391.109C275.27 391.656 275.43 392.047 275.75 392.281C276.07 392.508 276.488 392.621 277.004 392.621C277.77 392.621 278.414 392.395 278.938 391.941C279.469 391.488 279.734 390.844 279.734 390.008V388.93ZM292.496 392.387C292.887 392.387 293.266 392.348 293.633 392.27C294.008 392.191 294.379 392.094 294.746 391.977V394.637C294.363 394.809 293.887 394.949 293.316 395.059C292.754 395.176 292.137 395.234 291.465 395.234C290.684 395.234 289.98 395.109 289.355 394.859C288.738 394.602 288.25 394.16 287.891 393.535C287.539 392.902 287.363 392.023 287.363 390.898V384.582H285.652V383.07L287.621 381.875L288.652 379.109H290.938V381.898H294.605V384.582H290.938V390.898C290.938 391.398 291.078 391.773 291.359 392.023C291.648 392.266 292.027 392.387 292.496 392.387ZM300.98 381.898V395H297.406V381.898H300.98ZM299.199 376.766C299.73 376.766 300.188 376.891 300.57 377.141C300.953 377.383 301.145 377.84 301.145 378.512C301.145 379.176 300.953 379.637 300.57 379.895C300.188 380.145 299.73 380.27 299.199 380.27C298.66 380.27 298.199 380.145 297.816 379.895C297.441 379.637 297.254 379.176 297.254 378.512C297.254 377.84 297.441 377.383 297.816 377.141C298.199 376.891 298.66 376.766 299.199 376.766ZM310.062 395.234C308.766 395.234 307.66 395 306.746 394.531C305.832 394.055 305.137 393.32 304.66 392.328C304.184 391.336 303.945 390.066 303.945 388.52C303.945 386.918 304.215 385.613 304.754 384.605C305.301 383.59 306.055 382.844 307.016 382.367C307.984 381.891 309.105 381.652 310.379 381.652C311.285 381.652 312.066 381.742 312.723 381.922C313.387 382.094 313.965 382.301 314.457 382.543L313.402 385.309C312.84 385.082 312.316 384.898 311.832 384.758C311.348 384.609 310.863 384.535 310.379 384.535C309.754 384.535 309.234 384.684 308.82 384.98C308.406 385.27 308.098 385.707 307.895 386.293C307.691 386.879 307.59 387.613 307.59 388.496C307.59 389.363 307.699 390.082 307.918 390.652C308.137 391.223 308.453 391.648 308.867 391.93C309.281 392.203 309.785 392.34 310.379 392.34C311.121 392.34 311.781 392.242 312.359 392.047C312.938 391.844 313.5 391.562 314.047 391.203V394.262C313.5 394.605 312.926 394.852 312.324 395C311.73 395.156 310.977 395.234 310.062 395.234Z" fill="black"/>
</svg>
