<svg width="557" height="453" viewBox="0 0 557 453" fill="none" xmlns="http://www.w3.org/2000/svg">
<path fill-rule="evenodd" clip-rule="evenodd" d="M67.8816 452H32.6808L36.2008 299.714H1L6.89515 177.886L40.9084 178.107L41.1833 171.005L7.23525 170.857L12.7336 57.2286H45.5877L51.4545 1H81.9619H86.6554L90.1755 57.2286H483.611L485.598 1H526.666V57.2286H536.053L545.593 173.2L526.666 173.118V181.272L546.267 181.4L556 299.714H526.666L532.533 449.657H493.812V430.914H465.651L467.998 396.943H93.6956V427.4H67.8816V452ZM74.34 178.325L74.5831 171.15L479.521 172.912L479.236 180.963L74.34 178.325ZM93.6956 368.829V299.714H475.038L471.518 368.829H93.6956Z" fill="#DED7FB"/>
<path d="M81.9619 1H51.4545L45.5877 57.2286H12.7336L7.23525 170.857L41.1833 171.005M81.9619 1L78.4419 57.2286H90.1755M81.9619 1H86.6554L90.1755 57.2286M93.6956 299.714H70.2283L67.8816 384.057H493.812L491.465 299.714H475.038M93.6956 299.714V368.829H471.518L475.038 299.714M93.6956 299.714H475.038M93.6956 396.943H67.8816V427.4M93.6956 396.943V427.4H67.8816M93.6956 396.943H467.998M67.8816 427.4V452H32.6808L36.2008 299.714H1L6.89515 177.886L40.9084 178.107M467.998 396.943H493.812V430.914M467.998 396.943L465.651 430.914H493.812M493.812 430.914V449.657H532.533L526.666 299.714H556L546.267 181.4M90.1755 57.2286H483.611M546.267 181.4H526.666V181.272M546.267 181.4L526.666 181.272M40.8943 178.471L40.9084 178.107M41.1833 171.005L74.5831 171.15M41.1833 171.005L40.9084 178.107M74.3351 178.471L74.34 178.325M74.5831 171.15L479.521 172.912M74.5831 171.15L74.34 178.325M485.598 1H526.666V57.2286M485.598 1L483.611 57.2286M485.598 1L486.804 57.2286M489.459 181.03L489.285 172.955M489.459 181.03L479.236 180.963M489.459 181.03L526.666 181.272M489.285 172.955L479.521 172.912M489.285 172.955L526.666 173.118M479.236 180.963L479.521 172.912M479.236 180.963L74.34 178.325M479.521 172.912L526.666 173.118M526.666 173.118L545.593 173.2L536.053 57.2286H526.666M526.666 173.118V181.272M483.611 57.2286H486.804M486.804 57.2286H526.666M40.9084 178.107L74.34 178.325" stroke="#5D60EF"/>
<path d="M129.875 282.719L120 83.9844L421.188 63L436 262.969L129.875 282.719Z" fill="#5D60EF" stroke="#5D60EF"/>
<path d="M141.37 265.437L132.344 95.7317L407.648 77.8125L421.188 248.572L141.37 265.437Z" fill="#5D60EF" stroke="#DED7FB" stroke-width="5"/>
<path d="M168.098 171.843C169.936 171.727 171.301 172.002 172.191 172.67C173.088 173.33 173.579 174.33 173.663 175.668C173.702 176.273 173.638 176.854 173.471 177.413C173.31 177.964 173.022 178.462 172.606 178.906C172.191 179.343 171.63 179.705 170.924 179.991C170.224 180.27 169.354 180.443 168.315 180.509L166.58 180.619L166.935 186.223L165.278 186.328L164.375 172.079L168.098 171.843ZM168.031 173.266L166.121 173.387L166.49 179.196L168.039 179.098C168.949 179.04 169.7 178.895 170.291 178.661C170.89 178.428 171.328 178.083 171.606 177.629C171.883 177.168 171.999 176.573 171.952 175.845C171.892 174.897 171.545 174.211 170.912 173.788C170.278 173.359 169.318 173.185 168.031 173.266ZM180.349 174.471C181.623 174.391 182.586 174.617 183.24 175.149C183.893 175.682 184.26 176.575 184.339 177.829L184.8 185.09L183.62 185.165L183.208 183.606L183.13 183.611C182.856 184.019 182.565 184.367 182.257 184.654C181.949 184.935 181.585 185.157 181.164 185.32C180.75 185.477 180.235 185.575 179.617 185.614C178.968 185.655 178.382 185.578 177.861 185.383C177.346 185.188 176.928 184.868 176.606 184.426C176.291 183.982 176.111 183.407 176.066 182.698C175.999 181.633 176.369 180.787 177.178 180.162C177.986 179.537 179.253 179.143 180.978 178.982L182.815 178.787L182.773 178.134C182.715 177.211 182.476 176.577 182.056 176.232C181.636 175.887 181.065 175.737 180.344 175.783C179.785 175.818 179.258 175.933 178.761 176.128C178.265 176.323 177.796 176.545 177.355 176.794L176.78 175.598C177.246 175.321 177.785 175.074 178.397 174.859C179.01 174.644 179.66 174.515 180.349 174.471ZM182.868 179.928L181.244 180.1C179.916 180.236 178.991 180.514 178.469 180.931C177.948 181.349 177.709 181.909 177.754 182.611C177.792 183.222 178.006 183.662 178.395 183.93C178.784 184.199 179.284 184.314 179.895 184.276C180.843 184.216 181.603 183.903 182.174 183.339C182.745 182.774 182.997 181.965 182.93 180.913L182.868 179.928ZM191.419 189.484C190.016 189.573 188.917 189.379 188.124 188.901C187.331 188.429 186.904 187.722 186.844 186.78C186.802 186.111 186.977 185.526 187.369 185.025C187.768 184.523 188.339 184.171 189.083 183.967C188.795 183.855 188.542 183.675 188.325 183.428C188.113 183.18 187.997 182.888 187.975 182.55C187.951 182.16 188.036 181.812 188.232 181.506C188.434 181.193 188.75 180.886 189.182 180.585C188.608 180.393 188.129 180.038 187.744 179.521C187.365 178.997 187.153 178.375 187.107 177.654C187.058 176.887 187.176 176.224 187.46 175.664C187.744 175.098 188.179 174.653 188.765 174.329C189.351 174.005 190.073 173.816 190.931 173.761C191.119 173.749 191.308 173.747 191.498 173.755C191.694 173.755 191.88 173.766 192.058 173.788C192.235 173.802 192.39 173.825 192.522 173.856L196.187 173.624L196.253 174.666L194.299 175.035C194.51 175.276 194.692 175.571 194.845 175.92C194.998 176.269 195.088 176.661 195.115 177.097C195.183 178.162 194.876 179.033 194.195 179.709C193.513 180.379 192.542 180.753 191.282 180.833C190.983 180.852 190.676 180.846 190.36 180.813C190.053 181.009 189.822 181.219 189.667 181.445C189.518 181.669 189.452 181.921 189.47 182.201C189.483 182.409 189.555 182.57 189.687 182.686C189.824 182.801 190.015 182.88 190.259 182.924C190.503 182.96 190.794 182.968 191.132 182.947L193.013 182.827C194.176 182.754 195.081 182.941 195.73 183.389C196.384 183.837 196.741 184.528 196.801 185.464C196.875 186.646 196.452 187.583 195.531 188.275C194.609 188.966 193.238 189.369 191.419 189.484ZM191.388 188.214C192.271 188.158 192.996 188.021 193.563 187.802C194.137 187.59 194.556 187.306 194.82 186.95C195.092 186.6 195.213 186.194 195.183 185.733C195.156 185.304 195.038 184.985 194.829 184.777C194.621 184.575 194.326 184.45 193.944 184.402C193.563 184.348 193.099 184.339 192.553 184.373L190.701 184.491C190.22 184.521 189.806 184.622 189.458 184.794C189.11 184.967 188.848 185.205 188.672 185.51C188.502 185.814 188.431 186.184 188.458 186.619C188.495 187.198 188.767 187.621 189.273 187.889C189.78 188.163 190.484 188.272 191.388 188.214ZM191.265 179.65C192.038 179.601 192.608 179.369 192.973 178.955C193.338 178.54 193.497 177.959 193.449 177.212C193.399 176.413 193.163 175.828 192.741 175.457C192.319 175.079 191.722 174.915 190.948 174.964C190.208 175.011 189.649 175.255 189.273 175.696C188.902 176.131 188.742 176.744 188.793 177.537C188.839 178.265 189.076 178.811 189.503 179.175C189.931 179.539 190.518 179.698 191.265 179.65ZM202.393 173.054C203.303 172.996 204.096 173.148 204.771 173.51C205.446 173.871 205.979 174.405 206.37 175.111C206.76 175.81 206.985 176.644 207.047 177.612L207.11 178.616L199.733 179.084C199.832 180.337 200.204 181.272 200.85 181.89C201.496 182.508 202.368 182.782 203.466 182.712C204.142 182.67 204.735 182.57 205.247 182.413C205.759 182.257 206.287 182.041 206.831 181.765L206.921 183.188C206.397 183.463 205.872 183.672 205.346 183.816C204.827 183.96 204.207 184.055 203.485 184.101C202.459 184.166 201.549 184.015 200.756 183.647C199.969 183.273 199.339 182.694 198.865 181.908C198.391 181.123 198.117 180.142 198.042 178.966C197.969 177.816 198.098 176.81 198.428 175.947C198.764 175.078 199.269 174.394 199.942 173.894C200.621 173.395 201.438 173.114 202.393 173.054ZM202.458 174.381C201.594 174.435 200.923 174.762 200.446 175.359C199.968 175.957 199.713 176.766 199.68 177.786L205.332 177.427C205.286 176.791 205.149 176.239 204.924 175.77C204.705 175.295 204.392 174.936 203.985 174.695C203.578 174.447 203.069 174.342 202.458 174.381ZM223.506 171.911L224.183 182.592L222.858 182.676L222.529 181.19L222.441 181.196C222.244 181.58 221.978 181.91 221.643 182.186C221.308 182.462 220.924 182.675 220.49 182.827C220.063 182.984 219.602 183.079 219.108 183.11C218.264 183.163 217.547 183.072 216.958 182.835C216.369 182.599 215.91 182.204 215.581 181.65C215.259 181.097 215.07 180.372 215.013 179.475L214.569 172.477L216.206 172.374L216.643 179.254C216.699 180.144 216.943 180.798 217.374 181.214C217.804 181.624 218.432 181.802 219.257 181.75C220.05 181.7 220.67 181.51 221.119 181.182C221.575 180.853 221.888 180.393 222.059 179.801C222.23 179.203 222.289 178.482 222.235 177.637L221.878 172.014L223.506 171.911ZM231.973 171.178C233.24 171.098 234.218 171.349 234.907 171.931C235.596 172.507 235.984 173.481 236.071 174.852L236.512 181.81L234.914 181.912L234.479 175.06C234.423 174.17 234.176 173.517 233.739 173.101C233.308 172.685 232.673 172.503 231.835 172.557C230.653 172.632 229.842 173.019 229.404 173.719C228.965 174.418 228.787 175.405 228.867 176.679L229.222 182.273L227.604 182.375L226.927 171.694L228.233 171.611L228.574 173.135L228.662 173.13C228.865 172.738 229.135 172.405 229.469 172.129C229.804 171.847 230.184 171.627 230.611 171.47C231.038 171.306 231.492 171.208 231.973 171.178ZM243.659 181.553C242.307 181.639 241.206 181.245 240.355 180.373C239.51 179.5 239.03 178.154 238.915 176.335C238.798 174.496 239.113 173.083 239.859 172.097C240.605 171.103 241.647 170.564 242.986 170.48C243.551 170.444 244.05 170.487 244.481 170.61C244.913 170.732 245.29 170.911 245.611 171.145C245.932 171.372 246.207 171.639 246.435 171.944L246.552 171.936C246.513 171.737 246.47 171.462 246.421 171.113C246.373 170.764 246.342 170.479 246.328 170.258L246.057 165.979L247.675 165.877L248.636 181.042L247.33 181.124L246.99 179.619L246.922 179.624C246.741 179.955 246.502 180.26 246.207 180.54C245.918 180.819 245.564 181.05 245.145 181.234C244.732 181.41 244.237 181.516 243.659 181.553ZM243.827 180.192C244.97 180.119 245.759 179.743 246.192 179.063C246.625 178.384 246.801 177.404 246.72 176.124L246.701 175.831C246.615 174.473 246.321 173.445 245.82 172.746C245.326 172.047 244.484 171.735 243.295 171.81C242.301 171.873 241.581 172.304 241.136 173.102C240.691 173.893 240.51 174.949 240.593 176.268C240.677 177.58 240.985 178.578 241.517 179.262C242.056 179.945 242.826 180.255 243.827 180.192ZM255.49 169.687C256.4 169.629 257.192 169.781 257.867 170.142C258.543 170.504 259.075 171.038 259.466 171.744C259.856 172.443 260.082 173.277 260.143 174.245L260.207 175.249L252.829 175.717C252.928 176.969 253.301 177.905 253.946 178.523C254.592 179.141 255.464 179.415 256.562 179.345C257.238 179.302 257.832 179.203 258.344 179.046C258.856 178.89 259.384 178.674 259.927 178.398L260.017 179.821C259.493 180.095 258.968 180.305 258.443 180.449C257.923 180.593 257.303 180.688 256.582 180.733C255.555 180.798 254.645 180.647 253.852 180.28C253.065 179.906 252.435 179.326 251.961 178.541C251.487 177.756 251.213 176.775 251.139 175.599C251.066 174.449 251.194 173.443 251.524 172.58C251.861 171.711 252.365 171.026 253.038 170.527C253.718 170.027 254.535 169.747 255.49 169.687ZM255.554 171.013C254.69 171.068 254.02 171.394 253.542 171.992C253.065 172.59 252.809 173.399 252.776 174.419L258.429 174.06C258.382 173.424 258.246 172.871 258.02 172.403C257.801 171.928 257.488 171.569 257.081 171.327C256.674 171.079 256.165 170.975 255.554 171.013ZM267.439 168.929C267.653 168.915 267.878 168.914 268.114 168.925C268.349 168.93 268.558 168.946 268.743 168.973L268.633 170.487C268.455 170.453 268.258 170.429 268.042 170.417C267.826 170.405 267.623 170.404 267.435 170.416C267.006 170.444 266.606 170.557 266.233 170.757C265.867 170.95 265.552 171.218 265.286 171.561C265.021 171.897 264.821 172.298 264.687 172.763C264.553 173.222 264.504 173.727 264.539 174.279L264.902 180.01L263.275 180.113L262.597 169.432L263.942 169.346L264.243 171.304L264.311 171.299C264.507 170.889 264.75 170.512 265.041 170.167C265.332 169.816 265.676 169.53 266.073 169.309C266.477 169.088 266.932 168.961 267.439 168.929ZM280.918 179.19C279.956 179.251 279.096 179.107 278.336 178.757C277.577 178.407 276.967 177.839 276.506 177.053C276.045 176.267 275.776 175.256 275.697 174.022C275.615 172.729 275.763 171.659 276.14 170.814C276.523 169.961 277.082 169.312 277.817 168.868C278.552 168.423 279.403 168.17 280.372 168.109C280.904 168.075 281.421 168.098 281.922 168.177C282.429 168.249 282.847 168.356 283.175 168.498L282.774 169.884C282.441 169.775 282.057 169.682 281.621 169.605C281.192 169.528 280.793 169.501 280.422 169.524C279.682 169.571 279.074 169.77 278.601 170.119C278.134 170.469 277.796 170.96 277.588 171.593C277.387 172.225 277.315 172.993 277.372 173.896C277.427 174.76 277.591 175.49 277.864 176.086C278.143 176.682 278.527 177.127 279.015 177.422C279.509 177.71 280.111 177.832 280.819 177.787C281.384 177.751 281.891 177.661 282.338 177.515C282.785 177.362 283.189 177.193 283.549 177.007L283.64 178.45C283.294 178.654 282.904 178.819 282.468 178.945C282.039 179.07 281.522 179.152 280.918 179.19ZM295.068 172.715C295.123 173.592 295.059 174.382 294.875 175.086C294.692 175.789 294.4 176.391 294.002 176.892C293.603 177.394 293.106 177.791 292.512 178.083C291.923 178.368 291.245 178.535 290.479 178.584C289.764 178.629 289.1 178.547 288.486 178.338C287.879 178.122 287.343 177.791 286.877 177.344C286.418 176.897 286.047 176.337 285.763 175.663C285.485 174.99 285.319 174.214 285.263 173.337C285.189 172.167 285.324 171.161 285.668 170.317C286.012 169.467 286.538 168.804 287.245 168.328C287.958 167.846 288.825 167.573 289.845 167.508C290.819 167.446 291.684 167.61 292.44 167.999C293.201 168.388 293.81 168.982 294.265 169.781C294.726 170.574 294.994 171.552 295.068 172.715ZM286.939 173.231C286.994 174.088 287.155 174.825 287.422 175.441C287.689 176.057 288.071 176.522 288.567 176.836C289.063 177.15 289.685 177.284 290.432 177.236C291.173 177.189 291.77 176.979 292.222 176.604C292.681 176.229 293.004 175.72 293.192 175.075C293.379 174.43 293.446 173.679 293.391 172.821C293.337 171.97 293.177 171.243 292.91 170.64C292.644 170.031 292.262 169.573 291.766 169.265C291.271 168.957 290.646 168.827 289.892 168.875C288.781 168.945 287.989 169.364 287.516 170.131C287.049 170.898 286.857 171.931 286.939 173.231ZM302.573 166.701C303.84 166.62 304.818 166.871 305.507 167.454C306.196 168.03 306.584 169.003 306.671 170.374L307.113 177.333L305.514 177.434L305.08 170.583C305.023 169.693 304.776 169.04 304.339 168.624C303.908 168.208 303.274 168.026 302.435 168.079C301.253 168.154 300.442 168.542 300.004 169.241C299.566 169.941 299.387 170.928 299.468 172.201L299.822 177.795L298.205 177.898L297.527 167.216L298.833 167.134L299.175 168.658L299.262 168.652C299.466 168.261 299.735 167.928 300.07 167.652C300.404 167.37 300.785 167.15 301.212 166.992C301.639 166.828 302.092 166.731 302.573 166.701ZM317.17 173.76C317.213 174.442 317.078 175.028 316.763 175.518C316.454 176 315.989 176.379 315.367 176.653C314.752 176.927 314.006 177.092 313.128 177.147C312.381 177.195 311.731 177.177 311.178 177.095C310.625 177.013 310.137 176.877 309.714 176.689L309.619 175.198C310.068 175.384 310.6 175.546 311.216 175.683C311.831 175.821 312.454 175.869 313.084 175.829C314.007 175.771 314.666 175.579 315.063 175.253C315.46 174.928 315.642 174.509 315.61 173.996C315.591 173.703 315.49 173.452 315.308 173.242C315.131 173.025 314.841 172.825 314.438 172.641C314.034 172.452 313.48 172.252 312.775 172.042C312.077 171.826 311.469 171.606 310.953 171.385C310.442 171.156 310.039 170.865 309.743 170.512C309.453 170.159 309.289 169.687 309.252 169.095C309.194 168.192 309.514 167.477 310.212 166.95C310.915 166.416 311.861 166.112 313.05 166.036C313.693 165.995 314.298 166.022 314.865 166.117C315.439 166.204 315.976 166.34 316.476 166.523L316.013 167.854C315.559 167.694 315.078 167.565 314.569 167.466C314.061 167.368 313.547 167.336 313.027 167.368C312.28 167.416 311.713 167.576 311.325 167.848C310.945 168.12 310.768 168.471 310.795 168.9C310.816 169.231 310.924 169.498 311.12 169.701C311.322 169.903 311.634 170.086 312.055 170.248C312.476 170.411 313.029 170.597 313.715 170.808C314.4 171.013 314.994 171.233 315.498 171.468C316.002 171.697 316.396 171.992 316.68 172.352C316.97 172.706 317.133 173.175 317.17 173.76ZM323.336 175.169C323.603 175.152 323.874 175.112 324.151 175.049C324.427 174.986 324.651 174.916 324.822 174.84L324.902 176.097C324.719 176.194 324.46 176.282 324.126 176.362C323.799 176.441 323.476 176.491 323.157 176.511C322.592 176.547 322.072 176.482 321.599 176.317C321.125 176.144 320.733 175.83 320.423 175.373C320.12 174.916 319.942 174.269 319.889 173.431L319.487 167.096L317.967 167.192L317.917 166.403L319.407 165.672L319.903 163.312L320.878 163.25L321.035 165.726L324.163 165.527L324.244 166.794L321.115 166.993L321.514 173.279C321.556 173.948 321.741 174.439 322.067 174.751C322.4 175.062 322.823 175.202 323.336 175.169ZM331.236 164.883C331.451 164.869 331.676 164.868 331.911 164.879C332.146 164.884 332.356 164.9 332.54 164.927L332.431 166.441C332.253 166.407 332.055 166.384 331.839 166.371C331.623 166.359 331.421 166.359 331.233 166.37C330.804 166.398 330.403 166.511 330.031 166.711C329.665 166.904 329.349 167.172 329.084 167.515C328.818 167.851 328.619 168.252 328.485 168.717C328.351 169.176 328.302 169.681 328.337 170.233L328.7 175.964L327.072 176.067L326.395 165.386L327.74 165.3L328.04 167.258L328.108 167.254C328.304 166.843 328.548 166.466 328.839 166.121C329.13 165.77 329.474 165.484 329.871 165.263C330.274 165.042 330.729 164.915 331.236 164.883ZM343.382 164.308L344.06 174.99L342.734 175.074L342.405 173.588L342.318 173.594C342.12 173.978 341.854 174.308 341.519 174.584C341.184 174.859 340.8 175.073 340.366 175.224C339.939 175.382 339.479 175.476 338.985 175.508C338.14 175.561 337.423 175.47 336.834 175.233C336.245 174.996 335.786 174.601 335.458 174.048C335.135 173.495 334.946 172.769 334.889 171.873L334.445 164.875L336.083 164.771L336.519 171.652C336.575 172.542 336.819 173.195 337.25 173.612C337.68 174.021 338.308 174.2 339.133 174.148C339.926 174.097 340.547 173.908 340.996 173.58C341.451 173.251 341.764 172.79 341.936 172.199C342.106 171.601 342.165 170.88 342.111 170.035L341.755 164.412L343.382 164.308ZM351.772 174.697C350.81 174.758 349.949 174.613 349.19 174.263C348.431 173.914 347.821 173.346 347.36 172.559C346.899 171.773 346.629 170.763 346.551 169.528C346.469 168.235 346.617 167.166 346.994 166.32C347.377 165.467 347.936 164.819 348.671 164.374C349.406 163.93 350.257 163.677 351.225 163.615C351.758 163.581 352.275 163.604 352.776 163.683C353.283 163.755 353.7 163.863 354.029 164.005L353.628 165.391C353.295 165.281 352.91 165.188 352.475 165.111C352.046 165.034 351.646 165.007 351.276 165.031C350.535 165.078 349.928 165.276 349.455 165.626C348.987 165.975 348.65 166.466 348.442 167.099C348.241 167.732 348.169 168.499 348.226 169.403C348.281 170.267 348.445 170.997 348.717 171.593C348.997 172.188 349.38 172.634 349.869 172.929C350.363 173.217 350.965 173.339 351.673 173.294C352.238 173.258 352.744 173.167 353.192 173.021C353.639 172.869 354.042 172.7 354.402 172.514L354.494 173.956C354.148 174.161 353.757 174.326 353.322 174.452C352.892 174.577 352.376 174.658 351.772 174.697ZM360.43 172.817C360.696 172.8 360.968 172.76 361.244 172.697C361.521 172.633 361.744 172.564 361.916 172.488L361.995 173.745C361.812 173.841 361.554 173.929 361.22 174.009C360.892 174.089 360.569 174.139 360.251 174.159C359.685 174.195 359.166 174.13 358.692 173.964C358.218 173.792 357.826 173.478 357.517 173.021C357.214 172.564 357.036 171.916 356.983 171.078L356.581 164.743L355.061 164.84L355.01 164.05L356.5 163.32L356.997 160.959L357.971 160.898L358.128 163.373L361.257 163.175L361.337 164.442L358.208 164.64L358.607 170.926C358.65 171.596 358.834 172.086 359.16 172.398C359.493 172.71 359.916 172.849 360.43 172.817ZM365.106 162.931L365.784 173.612L364.166 173.715L363.488 163.033L365.106 162.931ZM364.063 158.985C364.33 158.968 364.563 159.041 364.762 159.205C364.968 159.361 365.082 159.621 365.105 159.985C365.128 160.343 365.048 160.615 364.864 160.803C364.686 160.99 364.465 161.093 364.198 161.109C363.919 161.127 363.679 161.054 363.48 160.891C363.287 160.727 363.179 160.466 363.156 160.109C363.133 159.745 363.207 159.473 363.378 159.292C363.556 159.105 363.784 159.003 364.063 158.985ZM378.084 167.45C378.14 168.327 378.076 169.118 377.892 169.821C377.709 170.524 377.417 171.126 377.019 171.628C376.62 172.129 376.123 172.526 375.528 172.818C374.94 173.103 374.262 173.27 373.495 173.319C372.781 173.364 372.117 173.282 371.503 173.073C370.896 172.858 370.36 172.526 369.894 172.08C369.435 171.632 369.064 171.072 368.78 170.399C368.502 169.725 368.336 168.949 368.28 168.072C368.206 166.903 368.341 165.896 368.685 165.052C369.029 164.202 369.555 163.539 370.262 163.064C370.975 162.581 371.841 162.308 372.862 162.243C373.836 162.181 374.701 162.345 375.456 162.734C376.218 163.123 376.827 163.717 377.282 164.517C377.743 165.309 378.011 166.287 378.084 167.45ZM369.956 167.966C370.011 168.823 370.171 169.56 370.439 170.176C370.706 170.792 371.088 171.257 371.584 171.571C372.08 171.885 372.702 172.019 373.449 171.972C374.19 171.925 374.786 171.714 375.239 171.339C375.698 170.965 376.021 170.455 376.209 169.81C376.396 169.165 376.462 168.414 376.408 167.557C376.354 166.705 376.194 165.979 375.927 165.376C375.66 164.766 375.279 164.308 374.783 164C374.288 163.692 373.663 163.562 372.909 163.61C371.798 163.68 371.006 164.099 370.533 164.866C370.066 165.633 369.874 166.666 369.956 167.966ZM385.59 161.436C386.857 161.356 387.835 161.607 388.524 162.189C389.213 162.765 389.601 163.739 389.688 165.11L390.129 172.068L388.531 172.17L388.096 165.318C388.04 164.428 387.793 163.775 387.356 163.359C386.925 162.943 386.29 162.761 385.452 162.815C384.27 162.89 383.459 163.277 383.021 163.977C382.583 164.676 382.404 165.663 382.485 166.936L382.839 172.531L381.221 172.633L380.544 161.952L381.85 161.869L382.191 163.393L382.279 163.388C382.483 162.996 382.752 162.663 383.086 162.387C383.421 162.105 383.802 161.885 384.229 161.728C384.655 161.564 385.109 161.466 385.59 161.436Z" fill="#DED7FB"/>
</svg>
