<svg width="180" height="191" viewBox="0 0 180 191" fill="none" xmlns="http://www.w3.org/2000/svg">
<path d="M0 41C0 38.2386 2.23858 36 5 36H35V191H5C2.23858 191 0 188.761 0 186V41Z" fill="#5D60EF"/>
<path d="M5 191C2.23858 191 0 188.761 0 186L0 156H155V186C155 188.761 152.761 191 150 191H5Z" fill="#5D60EF"/>
<path d="M124 121C124 118.239 126.239 116 129 116H155V147H124V121Z" fill="#5D60EF"/>
<path d="M35 36H66V67H35V36Z" fill="#5D60EF"/>
<path d="M157.92 58L179.84 79.9203L157.92 101.841L139.535 83.4558C137.583 81.5032 137.583 78.3374 139.535 76.3848L157.92 58Z" fill="#5D60EF"/>
<path d="M40 116H112C114.761 116 117 118.239 117 121V149H40V116Z" fill="#5D60EF"/>
<path d="M40 75H117V103C117 105.761 114.761 108 112 108H40V75Z" fill="#5D60EF"/>
<path d="M86.5527 0L156.093 18.6587C158.76 19.3743 160.342 22.1165 159.626 24.7836L152.37 51.8271L78.0008 31.8726L86.5527 0Z" fill="#5D60EF"/>
</svg>
