<svg width="1076" height="944" viewBox="0 0 1076 944" fill="none" xmlns="http://www.w3.org/2000/svg">
<path d="M347.504 47H344.516V21.3008H358.824V23.9375H347.504V33.3594H358.139V35.9785H347.504V47ZM369.881 27.418C372.178 27.418 373.883 27.9336 374.996 28.9648C376.109 29.9961 376.666 31.6426 376.666 33.9043V47H374.539L373.977 44.1523H373.836C373.297 44.8555 372.734 45.4473 372.148 45.9277C371.562 46.3965 370.883 46.7539 370.109 47C369.348 47.2344 368.41 47.3516 367.297 47.3516C366.125 47.3516 365.082 47.1465 364.168 46.7363C363.266 46.3262 362.551 45.7051 362.023 44.873C361.508 44.041 361.25 42.9863 361.25 41.709C361.25 39.7871 362.012 38.3105 363.535 37.2793C365.059 36.248 367.379 35.6855 370.496 35.5918L373.818 35.4512V34.2734C373.818 32.6094 373.461 31.4434 372.746 30.7754C372.031 30.1074 371.023 29.7734 369.723 29.7734C368.715 29.7734 367.754 29.9199 366.84 30.2129C365.926 30.5059 365.059 30.8516 364.238 31.25L363.342 29.0352C364.209 28.5898 365.205 28.209 366.33 27.8926C367.455 27.5762 368.639 27.418 369.881 27.418ZM373.783 37.5078L370.848 37.6309C368.445 37.7246 366.752 38.1172 365.768 38.8086C364.783 39.5 364.291 40.4785 364.291 41.7441C364.291 42.8457 364.625 43.6602 365.293 44.1875C365.961 44.7148 366.846 44.9785 367.947 44.9785C369.658 44.9785 371.059 44.5039 372.148 43.5547C373.238 42.6055 373.783 41.1816 373.783 39.2832V37.5078ZM390.395 47.3516C388.66 47.3516 387.131 46.9941 385.807 46.2793C384.482 45.5645 383.451 44.4746 382.713 43.0098C381.975 41.5449 381.605 39.6992 381.605 37.4727C381.605 35.1406 381.992 33.2363 382.766 31.7598C383.551 30.2715 384.629 29.1699 386 28.4551C387.371 27.7402 388.93 27.3828 390.676 27.3828C391.637 27.3828 392.562 27.4824 393.453 27.6816C394.355 27.8691 395.094 28.1094 395.668 28.4023L394.789 30.8457C394.203 30.6113 393.523 30.4004 392.75 30.2129C391.988 30.0254 391.273 29.9316 390.605 29.9316C389.27 29.9316 388.156 30.2188 387.266 30.793C386.387 31.3672 385.725 32.2109 385.279 33.3242C384.846 34.4375 384.629 35.8086 384.629 37.4375C384.629 38.9961 384.84 40.3262 385.262 41.4277C385.695 42.5293 386.334 43.373 387.178 43.959C388.033 44.5332 389.1 44.8203 390.377 44.8203C391.396 44.8203 392.316 44.7148 393.137 44.5039C393.957 44.2812 394.701 44.0234 395.369 43.7305V46.332C394.725 46.6602 394.004 46.9121 393.207 47.0879C392.422 47.2637 391.484 47.3516 390.395 47.3516ZM407.357 27.3828C408.998 27.3828 410.404 27.7461 411.576 28.4727C412.748 29.1992 413.645 30.2188 414.266 31.5312C414.887 32.832 415.197 34.3555 415.197 36.1016V37.9121H401.891C401.926 40.1738 402.488 41.8965 403.578 43.0801C404.668 44.2637 406.203 44.8555 408.184 44.8555C409.402 44.8555 410.48 44.7441 411.418 44.5215C412.355 44.2988 413.328 43.9707 414.336 43.5371V46.1035C413.363 46.5371 412.396 46.8535 411.436 47.0527C410.486 47.252 409.361 47.3516 408.061 47.3516C406.209 47.3516 404.592 46.9766 403.209 46.2266C401.838 45.4648 400.771 44.3516 400.01 42.8867C399.248 41.4219 398.867 39.6289 398.867 37.5078C398.867 35.4336 399.213 33.6406 399.904 32.1289C400.607 30.6055 401.592 29.4336 402.857 28.6133C404.135 27.793 405.635 27.3828 407.357 27.3828ZM407.322 29.7734C405.764 29.7734 404.521 30.2832 403.596 31.3027C402.67 32.3223 402.119 33.7461 401.943 35.5742H412.139C412.127 34.4258 411.945 33.418 411.594 32.5508C411.254 31.6719 410.732 30.9922 410.029 30.5117C409.326 30.0195 408.424 29.7734 407.322 29.7734ZM423.072 19.6484V26.4863C423.072 27.2715 423.049 28.0332 423.002 28.7715C422.967 29.5098 422.938 30.084 422.914 30.4941H423.072C423.6 29.627 424.361 28.8945 425.357 28.2969C426.354 27.6992 427.625 27.4004 429.172 27.4004C431.586 27.4004 433.508 28.2383 434.938 29.9141C436.379 31.5781 437.1 34.0566 437.1 37.3496C437.1 39.5176 436.771 41.3457 436.115 42.834C435.459 44.3223 434.533 45.4473 433.338 46.209C432.143 46.9707 430.73 47.3516 429.102 47.3516C427.578 47.3516 426.324 47.0703 425.34 46.5078C424.367 45.9336 423.617 45.2363 423.09 44.416H422.861L422.264 47H420.154V19.6484H423.072ZM428.697 29.8438C427.303 29.8438 426.195 30.1191 425.375 30.6699C424.555 31.209 423.963 32.0293 423.6 33.1309C423.248 34.2207 423.072 35.6035 423.072 37.2793V37.4375C423.072 39.8633 423.477 41.7207 424.285 43.0098C425.094 44.2871 426.564 44.9258 428.697 44.9258C430.49 44.9258 431.832 44.2695 432.723 42.957C433.625 41.6445 434.076 39.7695 434.076 37.332C434.076 34.8477 433.631 32.9785 432.74 31.7246C431.861 30.4707 430.514 29.8438 428.697 29.8438ZM458.809 37.332C458.809 38.9141 458.604 40.3262 458.193 41.5684C457.783 42.8105 457.191 43.8594 456.418 44.7148C455.645 45.5703 454.707 46.2266 453.605 46.6836C452.516 47.1289 451.279 47.3516 449.896 47.3516C448.607 47.3516 447.424 47.1289 446.346 46.6836C445.279 46.2266 444.354 45.5703 443.568 44.7148C442.795 43.8594 442.191 42.8105 441.758 41.5684C441.336 40.3262 441.125 38.9141 441.125 37.332C441.125 35.2227 441.482 33.4297 442.197 31.9531C442.912 30.4648 443.932 29.334 445.256 28.5605C446.592 27.7754 448.18 27.3828 450.02 27.3828C451.777 27.3828 453.312 27.7754 454.625 28.5605C455.949 29.3457 456.975 30.4824 457.701 31.9707C458.439 33.4473 458.809 35.2344 458.809 37.332ZM444.148 37.332C444.148 38.8789 444.354 40.2207 444.764 41.3574C445.174 42.4941 445.807 43.373 446.662 43.9941C447.518 44.6152 448.619 44.9258 449.967 44.9258C451.303 44.9258 452.398 44.6152 453.254 43.9941C454.121 43.373 454.76 42.4941 455.17 41.3574C455.58 40.2207 455.785 38.8789 455.785 37.332C455.785 35.7969 455.58 34.4727 455.17 33.3594C454.76 32.2344 454.127 31.3672 453.271 30.7578C452.416 30.1484 451.309 29.8438 449.949 29.8438C447.945 29.8438 446.475 30.5059 445.537 31.8301C444.611 33.1543 444.148 34.9883 444.148 37.332ZM480.465 37.332C480.465 38.9141 480.26 40.3262 479.85 41.5684C479.439 42.8105 478.848 43.8594 478.074 44.7148C477.301 45.5703 476.363 46.2266 475.262 46.6836C474.172 47.1289 472.936 47.3516 471.553 47.3516C470.264 47.3516 469.08 47.1289 468.002 46.6836C466.936 46.2266 466.01 45.5703 465.225 44.7148C464.451 43.8594 463.848 42.8105 463.414 41.5684C462.992 40.3262 462.781 38.9141 462.781 37.332C462.781 35.2227 463.139 33.4297 463.854 31.9531C464.568 30.4648 465.588 29.334 466.912 28.5605C468.248 27.7754 469.836 27.3828 471.676 27.3828C473.434 27.3828 474.969 27.7754 476.281 28.5605C477.605 29.3457 478.631 30.4824 479.357 31.9707C480.096 33.4473 480.465 35.2344 480.465 37.332ZM465.805 37.332C465.805 38.8789 466.01 40.2207 466.42 41.3574C466.83 42.4941 467.463 43.373 468.318 43.9941C469.174 44.6152 470.275 44.9258 471.623 44.9258C472.959 44.9258 474.055 44.6152 474.91 43.9941C475.777 43.373 476.416 42.4941 476.826 41.3574C477.236 40.2207 477.441 38.8789 477.441 37.332C477.441 35.7969 477.236 34.4727 476.826 33.3594C476.416 32.2344 475.783 31.3672 474.928 30.7578C474.072 30.1484 472.965 29.8438 471.605 29.8438C469.602 29.8438 468.131 30.5059 467.193 31.8301C466.268 33.1543 465.805 34.9883 465.805 37.332ZM488.41 19.6484V33.8516C488.41 34.3203 488.393 34.8945 488.357 35.5742C488.322 36.2422 488.293 36.834 488.27 37.3496H488.393C488.639 37.0449 488.996 36.5938 489.465 35.9961C489.945 35.3984 490.35 34.918 490.678 34.5547L497.076 27.7344H500.504L492.752 35.9609L501.066 47H497.551L490.748 37.877L488.41 40.0215V47H485.51V19.6484H488.41Z" fill="black"/>
<path d="M62.2305 204.301C65.5469 204.301 67.9668 204.951 69.4902 206.252C71.0254 207.541 71.793 209.393 71.793 211.807C71.793 212.896 71.6113 213.934 71.248 214.918C70.8965 215.891 70.3223 216.752 69.5254 217.502C68.7285 218.24 67.6797 218.826 66.3789 219.26C65.0898 219.682 63.5078 219.893 61.6328 219.893H58.5039V230H55.5156V204.301H62.2305ZM61.9492 206.85H58.5039V217.326H61.2988C62.9395 217.326 64.3047 217.15 65.3945 216.799C66.4961 216.447 67.3223 215.879 67.873 215.094C68.4238 214.297 68.6992 213.242 68.6992 211.93C68.6992 210.219 68.1543 208.947 67.0645 208.115C65.9746 207.271 64.2695 206.85 61.9492 206.85ZM85.4863 210.383C85.873 210.383 86.2773 210.406 86.6992 210.453C87.1211 210.488 87.4961 210.541 87.8242 210.611L87.4551 213.318C87.1387 213.236 86.7871 213.172 86.4004 213.125C86.0137 213.078 85.6504 213.055 85.3105 213.055C84.5371 213.055 83.8047 213.213 83.1133 213.529C82.4336 213.834 81.8359 214.279 81.3203 214.865C80.8047 215.439 80.4004 216.137 80.1074 216.957C79.8145 217.766 79.668 218.668 79.668 219.664V230H76.7324V210.734H79.1582L79.4746 214.285H79.5977C79.9961 213.57 80.4766 212.92 81.0391 212.334C81.6016 211.736 82.252 211.262 82.9902 210.91C83.7402 210.559 84.5723 210.383 85.4863 210.383ZM94.3809 210.734V230H91.4629V210.734H94.3809ZM92.957 203.527C93.4375 203.527 93.8477 203.686 94.1875 204.002C94.5391 204.307 94.7148 204.787 94.7148 205.443C94.7148 206.088 94.5391 206.568 94.1875 206.885C93.8477 207.201 93.4375 207.359 92.957 207.359C92.4531 207.359 92.0312 207.201 91.6914 206.885C91.3633 206.568 91.1992 206.088 91.1992 205.443C91.1992 204.787 91.3633 204.307 91.6914 204.002C92.0312 203.686 92.4531 203.527 92.957 203.527ZM121.486 210.383C123.607 210.383 125.207 210.939 126.285 212.053C127.363 213.154 127.902 214.93 127.902 217.379V230H125.02V217.52C125.02 215.961 124.68 214.795 124 214.021C123.332 213.236 122.336 212.844 121.012 212.844C119.148 212.844 117.795 213.383 116.951 214.461C116.107 215.539 115.686 217.127 115.686 219.225V230H112.785V217.52C112.785 216.477 112.633 215.609 112.328 214.918C112.035 214.227 111.59 213.711 110.992 213.371C110.406 213.02 109.662 212.844 108.76 212.844C107.482 212.844 106.457 213.107 105.684 213.635C104.91 214.162 104.348 214.947 103.996 215.99C103.656 217.021 103.486 218.293 103.486 219.805V230H100.568V210.734H102.924L103.363 213.459H103.521C103.908 212.791 104.395 212.229 104.98 211.771C105.566 211.314 106.223 210.969 106.949 210.734C107.676 210.5 108.449 210.383 109.27 210.383C110.734 210.383 111.959 210.658 112.943 211.209C113.939 211.748 114.66 212.574 115.105 213.688H115.264C115.896 212.574 116.764 211.748 117.865 211.209C118.967 210.658 120.174 210.383 121.486 210.383ZM141.104 210.418C143.4 210.418 145.105 210.934 146.219 211.965C147.332 212.996 147.889 214.643 147.889 216.904V230H145.762L145.199 227.152H145.059C144.52 227.855 143.957 228.447 143.371 228.928C142.785 229.396 142.105 229.754 141.332 230C140.57 230.234 139.633 230.352 138.52 230.352C137.348 230.352 136.305 230.146 135.391 229.736C134.488 229.326 133.773 228.705 133.246 227.873C132.73 227.041 132.473 225.986 132.473 224.709C132.473 222.787 133.234 221.311 134.758 220.279C136.281 219.248 138.602 218.686 141.719 218.592L145.041 218.451V217.273C145.041 215.609 144.684 214.443 143.969 213.775C143.254 213.107 142.246 212.773 140.945 212.773C139.938 212.773 138.977 212.92 138.062 213.213C137.148 213.506 136.281 213.852 135.461 214.25L134.564 212.035C135.432 211.59 136.428 211.209 137.553 210.893C138.678 210.576 139.861 210.418 141.104 210.418ZM145.006 220.508L142.07 220.631C139.668 220.725 137.975 221.117 136.99 221.809C136.006 222.5 135.514 223.479 135.514 224.744C135.514 225.846 135.848 226.66 136.516 227.188C137.184 227.715 138.068 227.979 139.17 227.979C140.881 227.979 142.281 227.504 143.371 226.555C144.461 225.605 145.006 224.182 145.006 222.283V220.508ZM162.654 210.383C163.041 210.383 163.445 210.406 163.867 210.453C164.289 210.488 164.664 210.541 164.992 210.611L164.623 213.318C164.307 213.236 163.955 213.172 163.568 213.125C163.182 213.078 162.818 213.055 162.479 213.055C161.705 213.055 160.973 213.213 160.281 213.529C159.602 213.834 159.004 214.279 158.488 214.865C157.973 215.439 157.568 216.137 157.275 216.957C156.982 217.766 156.836 218.668 156.836 219.664V230H153.9V210.734H156.326L156.643 214.285H156.766C157.164 213.57 157.645 212.92 158.207 212.334C158.77 211.736 159.42 211.262 160.158 210.91C160.908 210.559 161.74 210.383 162.654 210.383ZM165.59 210.734H168.719L172.973 221.914C173.219 222.57 173.447 223.203 173.658 223.812C173.869 224.41 174.057 224.984 174.221 225.535C174.385 226.086 174.514 226.619 174.607 227.135H174.73C174.895 226.549 175.129 225.781 175.434 224.832C175.738 223.871 176.066 222.893 176.418 221.896L180.443 210.734H183.59L175.205 232.83C174.76 234.014 174.238 235.045 173.641 235.924C173.055 236.803 172.34 237.477 171.496 237.945C170.652 238.426 169.633 238.666 168.438 238.666C167.887 238.666 167.4 238.631 166.979 238.561C166.557 238.502 166.193 238.432 165.889 238.35V236.012C166.146 236.07 166.457 236.123 166.82 236.17C167.195 236.217 167.582 236.24 167.98 236.24C168.707 236.24 169.334 236.1 169.861 235.818C170.4 235.549 170.863 235.15 171.25 234.623C171.637 234.096 171.971 233.469 172.252 232.742L173.307 230.035L165.59 210.734ZM207.443 206.568C206.025 206.568 204.748 206.814 203.611 207.307C202.486 207.787 201.525 208.49 200.729 209.416C199.943 210.33 199.34 211.438 198.918 212.738C198.496 214.039 198.285 215.504 198.285 217.133C198.285 219.289 198.619 221.164 199.287 222.758C199.967 224.34 200.975 225.564 202.311 226.432C203.658 227.299 205.34 227.732 207.355 227.732C208.504 227.732 209.582 227.639 210.59 227.451C211.609 227.252 212.6 227.006 213.561 226.713V229.314C212.623 229.666 211.639 229.924 210.607 230.088C209.576 230.264 208.352 230.352 206.934 230.352C204.32 230.352 202.135 229.812 200.377 228.734C198.631 227.645 197.318 226.109 196.439 224.129C195.572 222.148 195.139 219.811 195.139 217.115C195.139 215.17 195.408 213.395 195.947 211.789C196.498 210.172 197.295 208.777 198.338 207.605C199.393 206.434 200.682 205.531 202.205 204.898C203.74 204.254 205.498 203.932 207.479 203.932C208.779 203.932 210.033 204.061 211.24 204.318C212.447 204.576 213.537 204.945 214.51 205.426L213.314 207.957C212.494 207.582 211.592 207.26 210.607 206.99C209.635 206.709 208.58 206.568 207.443 206.568ZM235.305 220.332C235.305 221.914 235.1 223.326 234.689 224.568C234.279 225.811 233.688 226.859 232.914 227.715C232.141 228.57 231.203 229.227 230.102 229.684C229.012 230.129 227.775 230.352 226.393 230.352C225.104 230.352 223.92 230.129 222.842 229.684C221.775 229.227 220.85 228.57 220.064 227.715C219.291 226.859 218.688 225.811 218.254 224.568C217.832 223.326 217.621 221.914 217.621 220.332C217.621 218.223 217.979 216.43 218.693 214.953C219.408 213.465 220.428 212.334 221.752 211.561C223.088 210.775 224.676 210.383 226.516 210.383C228.273 210.383 229.809 210.775 231.121 211.561C232.445 212.346 233.471 213.482 234.197 214.971C234.936 216.447 235.305 218.234 235.305 220.332ZM220.645 220.332C220.645 221.879 220.85 223.221 221.26 224.357C221.67 225.494 222.303 226.373 223.158 226.994C224.014 227.615 225.115 227.926 226.463 227.926C227.799 227.926 228.895 227.615 229.75 226.994C230.617 226.373 231.256 225.494 231.666 224.357C232.076 223.221 232.281 221.879 232.281 220.332C232.281 218.797 232.076 217.473 231.666 216.359C231.256 215.234 230.623 214.367 229.768 213.758C228.912 213.148 227.805 212.844 226.445 212.844C224.441 212.844 222.971 213.506 222.033 214.83C221.107 216.154 220.645 217.988 220.645 220.332ZM243.285 230H240.35V202.648H243.285V230ZM266.066 220.332C266.066 221.914 265.861 223.326 265.451 224.568C265.041 225.811 264.449 226.859 263.676 227.715C262.902 228.57 261.965 229.227 260.863 229.684C259.773 230.129 258.537 230.352 257.154 230.352C255.865 230.352 254.682 230.129 253.604 229.684C252.537 229.227 251.611 228.57 250.826 227.715C250.053 226.859 249.449 225.811 249.016 224.568C248.594 223.326 248.383 221.914 248.383 220.332C248.383 218.223 248.74 216.43 249.455 214.953C250.17 213.465 251.189 212.334 252.514 211.561C253.85 210.775 255.438 210.383 257.277 210.383C259.035 210.383 260.57 210.775 261.883 211.561C263.207 212.346 264.232 213.482 264.959 214.971C265.697 216.447 266.066 218.234 266.066 220.332ZM251.406 220.332C251.406 221.879 251.611 223.221 252.021 224.357C252.432 225.494 253.064 226.373 253.92 226.994C254.775 227.615 255.877 227.926 257.225 227.926C258.561 227.926 259.656 227.615 260.512 226.994C261.379 226.373 262.018 225.494 262.428 224.357C262.838 223.221 263.043 221.879 263.043 220.332C263.043 218.797 262.838 217.473 262.428 216.359C262.018 215.234 261.385 214.367 260.529 213.758C259.674 213.148 258.566 212.844 257.207 212.844C255.203 212.844 253.732 213.506 252.795 214.83C251.869 216.154 251.406 217.988 251.406 220.332ZM279.865 210.383C280.252 210.383 280.656 210.406 281.078 210.453C281.5 210.488 281.875 210.541 282.203 210.611L281.834 213.318C281.518 213.236 281.166 213.172 280.779 213.125C280.393 213.078 280.029 213.055 279.689 213.055C278.916 213.055 278.184 213.213 277.492 213.529C276.812 213.834 276.215 214.279 275.699 214.865C275.184 215.439 274.779 216.137 274.486 216.957C274.193 217.766 274.047 218.668 274.047 219.664V230H271.111V210.734H273.537L273.854 214.285H273.977C274.375 213.57 274.855 212.92 275.418 212.334C275.98 211.736 276.631 211.262 277.369 210.91C278.119 210.559 278.951 210.383 279.865 210.383ZM298.305 224.727C298.305 225.957 297.994 226.994 297.373 227.838C296.764 228.67 295.885 229.297 294.736 229.719C293.6 230.141 292.24 230.352 290.658 230.352C289.311 230.352 288.145 230.246 287.16 230.035C286.176 229.824 285.314 229.525 284.576 229.139V226.449C285.361 226.836 286.299 227.188 287.389 227.504C288.479 227.82 289.592 227.979 290.729 227.979C292.393 227.979 293.6 227.709 294.35 227.17C295.1 226.631 295.475 225.898 295.475 224.973C295.475 224.445 295.322 223.982 295.018 223.584C294.725 223.174 294.227 222.781 293.523 222.406C292.82 222.02 291.848 221.598 290.605 221.141C289.375 220.672 288.309 220.209 287.406 219.752C286.516 219.283 285.824 218.715 285.332 218.047C284.852 217.379 284.611 216.512 284.611 215.445C284.611 213.816 285.268 212.568 286.58 211.701C287.904 210.822 289.639 210.383 291.783 210.383C292.943 210.383 294.027 210.5 295.035 210.734C296.055 210.957 297.004 211.262 297.883 211.648L296.898 213.986C296.102 213.646 295.252 213.359 294.35 213.125C293.447 212.891 292.527 212.773 291.59 212.773C290.242 212.773 289.205 212.996 288.479 213.441C287.764 213.887 287.406 214.496 287.406 215.27C287.406 215.867 287.57 216.359 287.898 216.746C288.238 217.133 288.777 217.496 289.516 217.836C290.254 218.176 291.227 218.574 292.434 219.031C293.641 219.477 294.684 219.939 295.562 220.42C296.441 220.889 297.115 221.463 297.584 222.143C298.064 222.811 298.305 223.672 298.305 224.727ZM302.559 228.172C302.559 227.352 302.758 226.771 303.156 226.432C303.555 226.08 304.041 225.904 304.615 225.904C305.213 225.904 305.717 226.08 306.127 226.432C306.537 226.771 306.742 227.352 306.742 228.172C306.742 228.98 306.537 229.572 306.127 229.947C305.717 230.311 305.213 230.492 304.615 230.492C304.041 230.492 303.555 230.311 303.156 229.947C302.758 229.572 302.559 228.98 302.559 228.172ZM302.559 212.58C302.559 211.736 302.758 211.145 303.156 210.805C303.555 210.453 304.041 210.277 304.615 210.277C305.213 210.277 305.717 210.453 306.127 210.805C306.537 211.145 306.742 211.736 306.742 212.58C306.742 213.377 306.537 213.957 306.127 214.32C305.717 214.684 305.213 214.865 304.615 214.865C304.041 214.865 303.555 214.684 303.156 214.32C302.758 213.957 302.559 213.377 302.559 212.58Z" fill="black"/>
<path d="M18.0176 652.162C18.0176 653.686 17.6367 654.986 16.875 656.064C16.125 657.131 15.0703 657.945 13.7109 658.508C12.3516 659.07 10.752 659.352 8.91211 659.352C7.93945 659.352 7.01953 659.305 6.15234 659.211C5.28516 659.117 4.48828 658.982 3.76172 658.807C3.03516 658.631 2.39648 658.414 1.8457 658.156V655.291C2.72461 655.654 3.79688 655.994 5.0625 656.311C6.32812 656.615 7.65234 656.768 9.03516 656.768C10.3242 656.768 11.4141 656.598 12.3047 656.258C13.1953 655.906 13.8691 655.408 14.3262 654.764C14.7949 654.107 15.0293 653.322 15.0293 652.408C15.0293 651.529 14.8359 650.797 14.4492 650.211C14.0625 649.613 13.418 649.074 12.5156 648.594C11.625 648.102 10.4062 647.58 8.85938 647.029C7.76953 646.643 6.80859 646.221 5.97656 645.764C5.14453 645.295 4.44727 644.768 3.88477 644.182C3.32227 643.596 2.89453 642.916 2.60156 642.143C2.32031 641.369 2.17969 640.484 2.17969 639.488C2.17969 638.117 2.52539 636.945 3.2168 635.973C3.91992 634.988 4.88672 634.238 6.11719 633.723C7.35938 633.195 8.7832 632.932 10.3887 632.932C11.7598 632.932 13.0254 633.061 14.1855 633.318C15.3574 633.576 16.4297 633.922 17.4023 634.355L16.4707 636.922C15.5449 636.535 14.5605 636.213 13.5176 635.955C12.4863 635.697 11.4199 635.568 10.3184 635.568C9.2168 635.568 8.28516 635.732 7.52344 636.061C6.77344 636.377 6.19922 636.828 5.80078 637.414C5.40234 638 5.20312 638.697 5.20312 639.506C5.20312 640.408 5.39062 641.158 5.76562 641.756C6.15234 642.354 6.76172 642.887 7.59375 643.355C8.4375 643.812 9.55078 644.293 10.9336 644.797C12.4453 645.348 13.7285 645.934 14.7832 646.555C15.8379 647.164 16.6406 647.914 17.1914 648.805C17.7422 649.684 18.0176 650.803 18.0176 652.162ZM30.252 639.383C31.8926 639.383 33.2988 639.746 34.4707 640.473C35.6426 641.199 36.5391 642.219 37.1602 643.531C37.7812 644.832 38.0918 646.355 38.0918 648.102V649.912H24.7852C24.8203 652.174 25.3828 653.896 26.4727 655.08C27.5625 656.264 29.0977 656.855 31.0781 656.855C32.2969 656.855 33.375 656.744 34.3125 656.521C35.25 656.299 36.2227 655.971 37.2305 655.537V658.104C36.2578 658.537 35.291 658.854 34.3301 659.053C33.3809 659.252 32.2559 659.352 30.9551 659.352C29.1035 659.352 27.4863 658.977 26.1035 658.227C24.7324 657.465 23.666 656.352 22.9043 654.887C22.1426 653.422 21.7617 651.629 21.7617 649.508C21.7617 647.434 22.1074 645.641 22.7988 644.129C23.502 642.605 24.4863 641.434 25.752 640.613C27.0293 639.793 28.5293 639.383 30.252 639.383ZM30.2168 641.773C28.6582 641.773 27.416 642.283 26.4902 643.303C25.5645 644.322 25.0137 645.746 24.8379 647.574H35.0332C35.0215 646.426 34.8398 645.418 34.4883 644.551C34.1484 643.672 33.627 642.992 32.9238 642.512C32.2207 642.02 31.3184 641.773 30.2168 641.773ZM50.7656 659.352C49.0312 659.352 47.502 658.994 46.1777 658.279C44.8535 657.564 43.8223 656.475 43.084 655.01C42.3457 653.545 41.9766 651.699 41.9766 649.473C41.9766 647.141 42.3633 645.236 43.1367 643.76C43.9219 642.271 45 641.17 46.3711 640.455C47.7422 639.74 49.3008 639.383 51.0469 639.383C52.0078 639.383 52.9336 639.482 53.8242 639.682C54.7266 639.869 55.4648 640.109 56.0391 640.402L55.1602 642.846C54.5742 642.611 53.8945 642.4 53.1211 642.213C52.3594 642.025 51.6445 641.932 50.9766 641.932C49.6406 641.932 48.5273 642.219 47.6367 642.793C46.7578 643.367 46.0957 644.211 45.6504 645.324C45.2168 646.438 45 647.809 45 649.438C45 650.996 45.2109 652.326 45.6328 653.428C46.0664 654.529 46.7051 655.373 47.5488 655.959C48.4043 656.533 49.4707 656.82 50.748 656.82C51.7676 656.82 52.6875 656.715 53.5078 656.504C54.3281 656.281 55.0723 656.023 55.7402 655.73V658.332C55.0957 658.66 54.375 658.912 53.5781 659.088C52.793 659.264 51.8555 659.352 50.7656 659.352ZM76.9219 649.332C76.9219 650.914 76.7168 652.326 76.3066 653.568C75.8965 654.811 75.3047 655.859 74.5312 656.715C73.7578 657.57 72.8203 658.227 71.7188 658.684C70.6289 659.129 69.3926 659.352 68.0098 659.352C66.7207 659.352 65.5371 659.129 64.459 658.684C63.3926 658.227 62.4668 657.57 61.6816 656.715C60.9082 655.859 60.3047 654.811 59.8711 653.568C59.4492 652.326 59.2383 650.914 59.2383 649.332C59.2383 647.223 59.5957 645.43 60.3105 643.953C61.0254 642.465 62.0449 641.334 63.3691 640.561C64.7051 639.775 66.293 639.383 68.1328 639.383C69.8906 639.383 71.4258 639.775 72.7383 640.561C74.0625 641.346 75.0879 642.482 75.8145 643.971C76.5527 645.447 76.9219 647.234 76.9219 649.332ZM62.2617 649.332C62.2617 650.879 62.4668 652.221 62.877 653.357C63.2871 654.494 63.9199 655.373 64.7754 655.994C65.6309 656.615 66.7324 656.926 68.0801 656.926C69.416 656.926 70.5117 656.615 71.3672 655.994C72.2344 655.373 72.873 654.494 73.2832 653.357C73.6934 652.221 73.8984 650.879 73.8984 649.332C73.8984 647.797 73.6934 646.473 73.2832 645.359C72.873 644.234 72.2402 643.367 71.3848 642.758C70.5293 642.148 69.4219 641.844 68.0625 641.844C66.0586 641.844 64.5879 642.506 63.6504 643.83C62.7246 645.154 62.2617 646.988 62.2617 649.332ZM91.0898 639.383C93.375 639.383 95.1035 639.945 96.2754 641.07C97.4473 642.184 98.0332 643.977 98.0332 646.449V659H95.1504V646.643C95.1504 645.037 94.7812 643.836 94.043 643.039C93.3164 642.242 92.1973 641.844 90.6855 641.844C88.5527 641.844 87.0527 642.447 86.1855 643.654C85.3184 644.861 84.8848 646.613 84.8848 648.91V659H81.9668V639.734H84.3223L84.7617 642.512H84.9199C85.3301 641.832 85.8516 641.264 86.4844 640.807C87.1172 640.338 87.8262 639.986 88.6113 639.752C89.3965 639.506 90.2227 639.383 91.0898 639.383ZM110.9 659.352C108.463 659.352 106.529 658.52 105.1 656.855C103.682 655.191 102.973 652.719 102.973 649.438C102.973 646.121 103.699 643.619 105.152 641.932C106.605 640.232 108.539 639.383 110.953 639.383C111.973 639.383 112.863 639.518 113.625 639.787C114.387 640.057 115.043 640.42 115.594 640.877C116.145 641.322 116.607 641.832 116.982 642.406H117.193C117.146 642.043 117.1 641.545 117.053 640.912C117.006 640.279 116.982 639.764 116.982 639.365V631.648H119.9V659H117.545L117.105 656.258H116.982C116.619 656.832 116.156 657.354 115.594 657.822C115.043 658.291 114.381 658.666 113.607 658.947C112.846 659.217 111.943 659.352 110.9 659.352ZM111.357 656.926C113.42 656.926 114.879 656.34 115.734 655.168C116.59 653.996 117.018 652.256 117.018 649.947V649.42C117.018 646.971 116.607 645.09 115.787 643.777C114.979 642.465 113.502 641.809 111.357 641.809C109.564 641.809 108.223 642.5 107.332 643.883C106.441 645.254 105.996 647.129 105.996 649.508C105.996 651.875 106.436 653.703 107.314 654.992C108.205 656.281 109.553 656.926 111.357 656.926ZM133.295 639.418C135.592 639.418 137.297 639.934 138.41 640.965C139.523 641.996 140.08 643.643 140.08 645.904V659H137.953L137.391 656.152H137.25C136.711 656.855 136.148 657.447 135.562 657.928C134.977 658.396 134.297 658.754 133.523 659C132.762 659.234 131.824 659.352 130.711 659.352C129.539 659.352 128.496 659.146 127.582 658.736C126.68 658.326 125.965 657.705 125.438 656.873C124.922 656.041 124.664 654.986 124.664 653.709C124.664 651.787 125.426 650.311 126.949 649.279C128.473 648.248 130.793 647.686 133.91 647.592L137.232 647.451V646.273C137.232 644.609 136.875 643.443 136.16 642.775C135.445 642.107 134.438 641.773 133.137 641.773C132.129 641.773 131.168 641.92 130.254 642.213C129.34 642.506 128.473 642.852 127.652 643.25L126.756 641.035C127.623 640.59 128.619 640.209 129.744 639.893C130.869 639.576 132.053 639.418 133.295 639.418ZM137.197 649.508L134.262 649.631C131.859 649.725 130.166 650.117 129.182 650.809C128.197 651.5 127.705 652.479 127.705 653.744C127.705 654.846 128.039 655.66 128.707 656.188C129.375 656.715 130.26 656.979 131.361 656.979C133.072 656.979 134.473 656.504 135.562 655.555C136.652 654.605 137.197 653.182 137.197 651.283V649.508ZM154.846 639.383C155.232 639.383 155.637 639.406 156.059 639.453C156.48 639.488 156.855 639.541 157.184 639.611L156.814 642.318C156.498 642.236 156.146 642.172 155.76 642.125C155.373 642.078 155.01 642.055 154.67 642.055C153.896 642.055 153.164 642.213 152.473 642.529C151.793 642.834 151.195 643.279 150.68 643.865C150.164 644.439 149.76 645.137 149.467 645.957C149.174 646.766 149.027 647.668 149.027 648.664V659H146.092V639.734H148.518L148.834 643.285H148.957C149.355 642.57 149.836 641.92 150.398 641.334C150.961 640.736 151.611 640.262 152.35 639.91C153.1 639.559 153.932 639.383 154.846 639.383ZM157.781 639.734H160.91L165.164 650.914C165.41 651.57 165.639 652.203 165.85 652.812C166.061 653.41 166.248 653.984 166.412 654.535C166.576 655.086 166.705 655.619 166.799 656.135H166.922C167.086 655.549 167.32 654.781 167.625 653.832C167.93 652.871 168.258 651.893 168.609 650.896L172.635 639.734H175.781L167.396 661.83C166.951 663.014 166.43 664.045 165.832 664.924C165.246 665.803 164.531 666.477 163.688 666.945C162.844 667.426 161.824 667.666 160.629 667.666C160.078 667.666 159.592 667.631 159.17 667.561C158.748 667.502 158.385 667.432 158.08 667.35V665.012C158.338 665.07 158.648 665.123 159.012 665.17C159.387 665.217 159.773 665.24 160.172 665.24C160.898 665.24 161.525 665.1 162.053 664.818C162.592 664.549 163.055 664.15 163.441 663.623C163.828 663.096 164.162 662.469 164.443 661.742L165.498 659.035L157.781 639.734ZM199.635 635.568C198.217 635.568 196.939 635.814 195.803 636.307C194.678 636.787 193.717 637.49 192.92 638.416C192.135 639.33 191.531 640.438 191.109 641.738C190.688 643.039 190.477 644.504 190.477 646.133C190.477 648.289 190.811 650.164 191.479 651.758C192.158 653.34 193.166 654.564 194.502 655.432C195.85 656.299 197.531 656.732 199.547 656.732C200.695 656.732 201.773 656.639 202.781 656.451C203.801 656.252 204.791 656.006 205.752 655.713V658.314C204.814 658.666 203.83 658.924 202.799 659.088C201.768 659.264 200.543 659.352 199.125 659.352C196.512 659.352 194.326 658.812 192.568 657.734C190.822 656.645 189.51 655.109 188.631 653.129C187.764 651.148 187.33 648.811 187.33 646.115C187.33 644.17 187.6 642.395 188.139 640.789C188.689 639.172 189.486 637.777 190.529 636.605C191.584 635.434 192.873 634.531 194.396 633.898C195.932 633.254 197.689 632.932 199.67 632.932C200.971 632.932 202.225 633.061 203.432 633.318C204.639 633.576 205.729 633.945 206.701 634.426L205.506 636.957C204.686 636.582 203.783 636.26 202.799 635.99C201.826 635.709 200.771 635.568 199.635 635.568ZM227.496 649.332C227.496 650.914 227.291 652.326 226.881 653.568C226.471 654.811 225.879 655.859 225.105 656.715C224.332 657.57 223.395 658.227 222.293 658.684C221.203 659.129 219.967 659.352 218.584 659.352C217.295 659.352 216.111 659.129 215.033 658.684C213.967 658.227 213.041 657.57 212.256 656.715C211.482 655.859 210.879 654.811 210.445 653.568C210.023 652.326 209.812 650.914 209.812 649.332C209.812 647.223 210.17 645.43 210.885 643.953C211.6 642.465 212.619 641.334 213.943 640.561C215.279 639.775 216.867 639.383 218.707 639.383C220.465 639.383 222 639.775 223.312 640.561C224.637 641.346 225.662 642.482 226.389 643.971C227.127 645.447 227.496 647.234 227.496 649.332ZM212.836 649.332C212.836 650.879 213.041 652.221 213.451 653.357C213.861 654.494 214.494 655.373 215.35 655.994C216.205 656.615 217.307 656.926 218.654 656.926C219.99 656.926 221.086 656.615 221.941 655.994C222.809 655.373 223.447 654.494 223.857 653.357C224.268 652.221 224.473 650.879 224.473 649.332C224.473 647.797 224.268 646.473 223.857 645.359C223.447 644.234 222.814 643.367 221.959 642.758C221.104 642.148 219.996 641.844 218.637 641.844C216.633 641.844 215.162 642.506 214.225 643.83C213.299 645.154 212.836 646.988 212.836 649.332ZM235.477 659H232.541V631.648H235.477V659ZM258.258 649.332C258.258 650.914 258.053 652.326 257.643 653.568C257.232 654.811 256.641 655.859 255.867 656.715C255.094 657.57 254.156 658.227 253.055 658.684C251.965 659.129 250.729 659.352 249.346 659.352C248.057 659.352 246.873 659.129 245.795 658.684C244.729 658.227 243.803 657.57 243.018 656.715C242.244 655.859 241.641 654.811 241.207 653.568C240.785 652.326 240.574 650.914 240.574 649.332C240.574 647.223 240.932 645.43 241.646 643.953C242.361 642.465 243.381 641.334 244.705 640.561C246.041 639.775 247.629 639.383 249.469 639.383C251.227 639.383 252.762 639.775 254.074 640.561C255.398 641.346 256.424 642.482 257.15 643.971C257.889 645.447 258.258 647.234 258.258 649.332ZM243.598 649.332C243.598 650.879 243.803 652.221 244.213 653.357C244.623 654.494 245.256 655.373 246.111 655.994C246.967 656.615 248.068 656.926 249.416 656.926C250.752 656.926 251.848 656.615 252.703 655.994C253.57 655.373 254.209 654.494 254.619 653.357C255.029 652.221 255.234 650.879 255.234 649.332C255.234 647.797 255.029 646.473 254.619 645.359C254.209 644.234 253.576 643.367 252.721 642.758C251.865 642.148 250.758 641.844 249.398 641.844C247.395 641.844 245.924 642.506 244.986 643.83C244.061 645.154 243.598 646.988 243.598 649.332ZM272.057 639.383C272.443 639.383 272.848 639.406 273.27 639.453C273.691 639.488 274.066 639.541 274.395 639.611L274.025 642.318C273.709 642.236 273.357 642.172 272.971 642.125C272.584 642.078 272.221 642.055 271.881 642.055C271.107 642.055 270.375 642.213 269.684 642.529C269.004 642.834 268.406 643.279 267.891 643.865C267.375 644.439 266.971 645.137 266.678 645.957C266.385 646.766 266.238 647.668 266.238 648.664V659H263.303V639.734H265.729L266.045 643.285H266.168C266.566 642.57 267.047 641.92 267.609 641.334C268.172 640.736 268.822 640.262 269.561 639.91C270.311 639.559 271.143 639.383 272.057 639.383ZM290.496 653.727C290.496 654.957 290.186 655.994 289.564 656.838C288.955 657.67 288.076 658.297 286.928 658.719C285.791 659.141 284.432 659.352 282.85 659.352C281.502 659.352 280.336 659.246 279.352 659.035C278.367 658.824 277.506 658.525 276.768 658.139V655.449C277.553 655.836 278.49 656.188 279.58 656.504C280.67 656.82 281.783 656.979 282.92 656.979C284.584 656.979 285.791 656.709 286.541 656.17C287.291 655.631 287.666 654.898 287.666 653.973C287.666 653.445 287.514 652.982 287.209 652.584C286.916 652.174 286.418 651.781 285.715 651.406C285.012 651.02 284.039 650.598 282.797 650.141C281.566 649.672 280.5 649.209 279.598 648.752C278.707 648.283 278.016 647.715 277.523 647.047C277.043 646.379 276.803 645.512 276.803 644.445C276.803 642.816 277.459 641.568 278.771 640.701C280.096 639.822 281.83 639.383 283.975 639.383C285.135 639.383 286.219 639.5 287.227 639.734C288.246 639.957 289.195 640.262 290.074 640.648L289.09 642.986C288.293 642.646 287.443 642.359 286.541 642.125C285.639 641.891 284.719 641.773 283.781 641.773C282.434 641.773 281.396 641.996 280.67 642.441C279.955 642.887 279.598 643.496 279.598 644.27C279.598 644.867 279.762 645.359 280.09 645.746C280.43 646.133 280.969 646.496 281.707 646.836C282.445 647.176 283.418 647.574 284.625 648.031C285.832 648.477 286.875 648.939 287.754 649.42C288.633 649.889 289.307 650.463 289.775 651.143C290.256 651.811 290.496 652.672 290.496 653.727ZM294.75 657.172C294.75 656.352 294.949 655.771 295.348 655.432C295.746 655.08 296.232 654.904 296.807 654.904C297.404 654.904 297.908 655.08 298.318 655.432C298.729 655.771 298.934 656.352 298.934 657.172C298.934 657.98 298.729 658.572 298.318 658.947C297.908 659.311 297.404 659.492 296.807 659.492C296.232 659.492 295.746 659.311 295.348 658.947C294.949 658.572 294.75 657.98 294.75 657.172ZM294.75 641.58C294.75 640.736 294.949 640.145 295.348 639.805C295.746 639.453 296.232 639.277 296.807 639.277C297.404 639.277 297.908 639.453 298.318 639.805C298.729 640.145 298.934 640.736 298.934 641.58C298.934 642.377 298.729 642.957 298.318 643.32C297.908 643.684 297.404 643.865 296.807 643.865C296.232 643.865 295.746 643.684 295.348 643.32C294.949 642.957 294.75 642.377 294.75 641.58Z" fill="black"/>
<path d="M875.516 38V12.3008H878.504V35.3281H889.912V38H875.516ZM896.803 18.7344V38H893.885V18.7344H896.803ZM895.379 11.5273C895.859 11.5273 896.27 11.6855 896.609 12.002C896.961 12.3066 897.137 12.7871 897.137 13.4434C897.137 14.0879 896.961 14.5684 896.609 14.8848C896.27 15.2012 895.859 15.3594 895.379 15.3594C894.875 15.3594 894.453 15.2012 894.113 14.8848C893.785 14.5684 893.621 14.0879 893.621 13.4434C893.621 12.7871 893.785 12.3066 894.113 12.002C894.453 11.6855 894.875 11.5273 895.379 11.5273ZM912.113 18.3828C914.398 18.3828 916.127 18.9453 917.299 20.0703C918.471 21.1836 919.057 22.9766 919.057 25.4492V38H916.174V25.6426C916.174 24.0371 915.805 22.8359 915.066 22.0391C914.34 21.2422 913.221 20.8438 911.709 20.8438C909.576 20.8438 908.076 21.4473 907.209 22.6543C906.342 23.8613 905.908 25.6133 905.908 27.9102V38H902.99V18.7344H905.346L905.785 21.5117H905.943C906.354 20.832 906.875 20.2637 907.508 19.8066C908.141 19.3379 908.85 18.9863 909.635 18.752C910.42 18.5059 911.246 18.3828 912.113 18.3828ZM927.969 10.6484V24.8516C927.969 25.3203 927.951 25.8945 927.916 26.5742C927.881 27.2422 927.852 27.834 927.828 28.3496H927.951C928.197 28.0449 928.555 27.5938 929.023 26.9961C929.504 26.3984 929.908 25.918 930.236 25.5547L936.635 18.7344H940.062L932.311 26.9609L940.625 38H937.109L930.307 28.877L927.969 31.0215V38H925.068V10.6484H927.969ZM951.4 18.3828C953.041 18.3828 954.447 18.7461 955.619 19.4727C956.791 20.1992 957.688 21.2188 958.309 22.5312C958.93 23.832 959.24 25.3555 959.24 27.1016V28.9121H945.934C945.969 31.1738 946.531 32.8965 947.621 34.0801C948.711 35.2637 950.246 35.8555 952.227 35.8555C953.445 35.8555 954.523 35.7441 955.461 35.5215C956.398 35.2988 957.371 34.9707 958.379 34.5371V37.1035C957.406 37.5371 956.439 37.8535 955.479 38.0527C954.529 38.252 953.404 38.3516 952.104 38.3516C950.252 38.3516 948.635 37.9766 947.252 37.2266C945.881 36.4648 944.814 35.3516 944.053 33.8867C943.291 32.4219 942.91 30.6289 942.91 28.5078C942.91 26.4336 943.256 24.6406 943.947 23.1289C944.65 21.6055 945.635 20.4336 946.9 19.6133C948.178 18.793 949.678 18.3828 951.4 18.3828ZM951.365 20.7734C949.807 20.7734 948.564 21.2832 947.639 22.3027C946.713 23.3223 946.162 24.7461 945.986 26.5742H956.182C956.17 25.4258 955.988 24.418 955.637 23.5508C955.297 22.6719 954.775 21.9922 954.072 21.5117C953.369 21.0195 952.467 20.7734 951.365 20.7734ZM971.053 38.3516C968.615 38.3516 966.682 37.5195 965.252 35.8555C963.834 34.1914 963.125 31.7188 963.125 28.4375C963.125 25.1211 963.852 22.6191 965.305 20.9316C966.758 19.2324 968.691 18.3828 971.105 18.3828C972.125 18.3828 973.016 18.5176 973.777 18.7871C974.539 19.0566 975.195 19.4199 975.746 19.877C976.297 20.3223 976.76 20.832 977.135 21.4062H977.346C977.299 21.043 977.252 20.5449 977.205 19.9121C977.158 19.2793 977.135 18.7637 977.135 18.3652V10.6484H980.053V38H977.697L977.258 35.2578H977.135C976.771 35.832 976.309 36.3535 975.746 36.8223C975.195 37.291 974.533 37.666 973.76 37.9473C972.998 38.2168 972.096 38.3516 971.053 38.3516ZM971.51 35.9258C973.572 35.9258 975.031 35.3398 975.887 34.168C976.742 32.9961 977.17 31.2559 977.17 28.9473V28.4199C977.17 25.9707 976.76 24.0898 975.939 22.7773C975.131 21.4648 973.654 20.8086 971.51 20.8086C969.717 20.8086 968.375 21.5 967.484 22.8828C966.594 24.2539 966.148 26.1289 966.148 28.5078C966.148 30.875 966.588 32.7031 967.467 33.9922C968.357 35.2812 969.705 35.9258 971.51 35.9258ZM989.158 18.7344V38H986.24V18.7344H989.158ZM987.734 11.5273C988.215 11.5273 988.625 11.6855 988.965 12.002C989.316 12.3066 989.492 12.7871 989.492 13.4434C989.492 14.0879 989.316 14.5684 988.965 14.8848C988.625 15.2012 988.215 15.3594 987.734 15.3594C987.23 15.3594 986.809 15.2012 986.469 14.8848C986.141 14.5684 985.977 14.0879 985.977 13.4434C985.977 12.7871 986.141 12.3066 986.469 12.002C986.809 11.6855 987.23 11.5273 987.734 11.5273ZM1004.47 18.3828C1006.75 18.3828 1008.48 18.9453 1009.65 20.0703C1010.83 21.1836 1011.41 22.9766 1011.41 25.4492V38H1008.53V25.6426C1008.53 24.0371 1008.16 22.8359 1007.42 22.0391C1006.7 21.2422 1005.58 20.8438 1004.06 20.8438C1001.93 20.8438 1000.43 21.4473 999.564 22.6543C998.697 23.8613 998.264 25.6133 998.264 27.9102V38H995.346V18.7344H997.701L998.141 21.5117H998.299C998.709 20.832 999.23 20.2637 999.863 19.8066C1000.5 19.3379 1001.21 18.9863 1001.99 18.752C1002.78 18.5059 1003.6 18.3828 1004.47 18.3828Z" fill="black"/>
<circle cx="418.5" cy="395.5" r="139.5" fill="#E9EBEE"/>
<path d="M353.528 409L357.824 382.818H360.381L356.085 409H353.528ZM341.614 401.739L342.023 399.182H361.557L361.148 401.739H341.614ZM344.324 409L348.619 382.818H351.176L346.881 409H344.324ZM343.148 392.636L343.557 390.08H363.091L362.682 392.636H343.148ZM366.881 409V382.818H382.683V385.631H370.052V394.477H381.864V397.29H370.052V406.188H382.887V409H366.881ZM396.272 382.46C397.346 382.469 398.42 382.673 399.494 383.074C400.567 383.474 401.548 384.139 402.434 385.068C403.32 385.989 404.032 387.246 404.569 388.839C405.106 390.433 405.374 392.432 405.374 394.835C405.374 397.162 405.153 399.229 404.71 401.036C404.275 402.834 403.644 404.351 402.817 405.587C401.999 406.822 401.002 407.76 399.826 408.399C398.658 409.038 397.337 409.358 395.863 409.358C394.397 409.358 393.089 409.068 391.938 408.489C390.796 407.901 389.859 407.087 389.126 406.047C388.401 404.999 387.937 403.784 387.732 402.403H390.852C391.133 403.605 391.691 404.598 392.526 405.382C393.37 406.158 394.482 406.545 395.863 406.545C397.883 406.545 399.477 405.663 400.644 403.899C401.82 402.135 402.408 399.642 402.408 396.42H402.204C401.727 397.136 401.16 397.754 400.504 398.274C399.847 398.794 399.119 399.195 398.317 399.476C397.516 399.757 396.664 399.898 395.761 399.898C394.261 399.898 392.884 399.527 391.631 398.786C390.387 398.036 389.39 397.009 388.64 395.705C387.898 394.392 387.528 392.892 387.528 391.205C387.528 389.602 387.886 388.136 388.602 386.807C389.326 385.469 390.34 384.403 391.644 383.611C392.957 382.818 394.499 382.435 396.272 382.46ZM396.272 385.273C395.198 385.273 394.231 385.541 393.37 386.078C392.518 386.607 391.84 387.322 391.337 388.226C390.843 389.121 390.596 390.114 390.596 391.205C390.596 392.295 390.835 393.288 391.312 394.183C391.798 395.07 392.458 395.777 393.293 396.305C394.137 396.825 395.096 397.085 396.17 397.085C396.979 397.085 397.734 396.928 398.433 396.612C399.131 396.288 399.741 395.849 400.261 395.295C400.789 394.733 401.202 394.098 401.501 393.391C401.799 392.675 401.948 391.929 401.948 391.153C401.948 390.131 401.701 389.172 401.207 388.277C400.721 387.382 400.048 386.658 399.187 386.104C398.335 385.55 397.363 385.273 396.272 385.273ZM410.862 409V382.818H426.663V385.631H414.032V394.477H425.845V397.29H414.032V406.188H426.868V409H410.862ZM432.377 409V382.818H441.531C443.355 382.818 444.859 383.134 446.044 383.764C447.228 384.386 448.11 385.226 448.69 386.283C449.27 387.331 449.559 388.494 449.559 389.773C449.559 390.898 449.359 391.827 448.958 392.56C448.566 393.293 448.047 393.872 447.399 394.298C446.76 394.724 446.065 395.04 445.315 395.244V395.5C446.116 395.551 446.922 395.832 447.731 396.344C448.541 396.855 449.218 397.588 449.764 398.543C450.309 399.497 450.582 400.665 450.582 402.045C450.582 403.358 450.284 404.538 449.687 405.587C449.091 406.635 448.149 407.466 446.862 408.08C445.575 408.693 443.9 409 441.838 409H432.377ZM435.548 406.188H441.838C443.909 406.188 445.379 405.787 446.248 404.986C447.126 404.176 447.565 403.196 447.565 402.045C447.565 401.159 447.339 400.341 446.887 399.591C446.436 398.832 445.792 398.227 444.957 397.776C444.122 397.315 443.133 397.085 441.991 397.085H435.548V406.188ZM435.548 394.324H441.429C442.383 394.324 443.244 394.136 444.011 393.761C444.787 393.386 445.4 392.858 445.852 392.176C446.312 391.494 446.542 390.693 446.542 389.773C446.542 388.622 446.142 387.646 445.341 386.845C444.539 386.036 443.27 385.631 441.531 385.631H435.548V394.324ZM455.792 409V382.818H471.593V385.631H458.962V394.477H470.775V397.29H458.962V406.188H471.797V409H455.792ZM477.307 409V382.818H493.108V385.631H480.478V394.477H492.29V397.29H480.478V406.188H493.313V409H477.307Z" fill="black"/>
<circle cx="418.5" cy="395.5" r="139.5" fill="#E9EBEE"/>
<path d="M358.227 396.197L357.084 402.174H362.059V404.406H356.645L355.15 412H352.777L354.271 404.406H348.91L347.469 412H345.131L346.52 404.406H341.914V402.174H346.959L348.137 396.197H343.25V394H348.541L350 386.301H352.408L350.949 394H356.346L357.805 386.301H360.125L358.666 394H363.324V396.197H358.227ZM349.332 402.174H354.693L355.854 396.197H350.492L349.332 402.174ZM382.098 412H367.789V386.301H382.098V388.938H370.777V397.252H381.447V399.854H370.777V409.363H382.098V412ZM402.928 397.252C402.928 398.811 402.816 400.328 402.594 401.805C402.383 403.281 402.014 404.658 401.486 405.936C400.971 407.213 400.268 408.332 399.377 409.293C398.486 410.254 397.367 411.01 396.02 411.561C394.684 412.1 393.084 412.369 391.221 412.369C390.717 412.369 390.143 412.334 389.498 412.264C388.854 412.205 388.326 412.117 387.916 412V409.469C388.35 409.621 388.859 409.744 389.445 409.838C390.031 409.92 390.605 409.961 391.168 409.961C393.359 409.961 395.082 409.492 396.336 408.555C397.59 407.605 398.492 406.322 399.043 404.705C399.594 403.076 399.904 401.248 399.975 399.221H399.764C399.412 399.783 398.949 400.305 398.375 400.785C397.812 401.254 397.127 401.635 396.318 401.928C395.51 402.209 394.566 402.35 393.488 402.35C392 402.35 390.699 402.045 389.586 401.436C388.484 400.826 387.623 399.941 387.002 398.781C386.393 397.621 386.088 396.221 386.088 394.58C386.088 392.811 386.422 391.281 387.09 389.992C387.77 388.691 388.719 387.689 389.938 386.986C391.156 386.283 392.592 385.932 394.244 385.932C395.51 385.932 396.67 386.172 397.725 386.652C398.779 387.133 399.693 387.854 400.467 388.814C401.252 389.764 401.855 390.941 402.277 392.348C402.711 393.754 402.928 395.389 402.928 397.252ZM394.244 388.41C392.686 388.41 391.42 388.92 390.447 389.939C389.486 390.959 389.006 392.494 389.006 394.545C389.006 396.244 389.422 397.586 390.254 398.57C391.086 399.555 392.369 400.047 394.104 400.047C395.299 400.047 396.33 399.807 397.197 399.326C398.076 398.846 398.75 398.236 399.219 397.498C399.699 396.76 399.939 396.004 399.939 395.23C399.939 394.457 399.822 393.672 399.588 392.875C399.365 392.078 399.02 391.346 398.551 390.678C398.082 389.998 397.49 389.453 396.775 389.043C396.061 388.621 395.217 388.41 394.244 388.41ZM422.703 412H408.395V386.301H422.703V388.938H411.383V397.252H422.053V399.854H411.383V409.363H422.703V412ZM428.398 386.301H435.676C438.887 386.301 441.301 386.781 442.918 387.742C444.535 388.703 445.344 390.338 445.344 392.646C445.344 393.643 445.15 394.539 444.764 395.336C444.389 396.121 443.838 396.771 443.111 397.287C442.385 397.803 441.488 398.16 440.422 398.359V398.535C441.547 398.711 442.543 399.033 443.41 399.502C444.277 399.971 444.957 400.627 445.449 401.471C445.941 402.314 446.188 403.387 446.188 404.688C446.188 406.27 445.818 407.605 445.08 408.695C444.354 409.785 443.322 410.611 441.986 411.174C440.65 411.725 439.068 412 437.24 412H428.398V386.301ZM431.387 397.322H436.309C438.547 397.322 440.094 396.953 440.949 396.215C441.816 395.477 442.25 394.398 442.25 392.98C442.25 391.516 441.734 390.461 440.703 389.816C439.684 389.172 438.055 388.85 435.816 388.85H431.387V397.322ZM431.387 399.836V409.451H436.73C439.016 409.451 440.633 409.006 441.582 408.115C442.531 407.213 443.006 406 443.006 404.477C443.006 403.504 442.789 402.672 442.355 401.98C441.934 401.289 441.242 400.762 440.281 400.398C439.332 400.023 438.061 399.836 436.467 399.836H431.387ZM465.98 412H451.672V386.301H465.98V388.938H454.66V397.252H465.33V399.854H454.66V409.363H465.98V412ZM485.984 412H471.676V386.301H485.984V388.938H474.664V397.252H485.334V399.854H474.664V409.363H485.984V412Z" fill="black"/>
<circle cx="936.5" cy="395.5" r="139.5" fill="#CACCCE"/>
<path d="M876.227 396.197L875.084 402.174H880.059V404.406H874.645L873.15 412H870.777L872.271 404.406H866.91L865.469 412H863.131L864.52 404.406H859.914V402.174H864.959L866.137 396.197H861.25V394H866.541L868 386.301H870.408L868.949 394H874.346L875.805 386.301H878.125L876.666 394H881.324V396.197H876.227ZM867.332 402.174H872.693L873.854 396.197H868.492L867.332 402.174ZM896.775 388.568C895.357 388.568 894.08 388.814 892.943 389.307C891.818 389.787 890.857 390.49 890.061 391.416C889.275 392.33 888.672 393.438 888.25 394.738C887.828 396.039 887.617 397.504 887.617 399.133C887.617 401.289 887.951 403.164 888.619 404.758C889.299 406.34 890.307 407.564 891.643 408.432C892.99 409.299 894.672 409.732 896.688 409.732C897.836 409.732 898.914 409.639 899.922 409.451C900.941 409.252 901.932 409.006 902.893 408.713V411.314C901.955 411.666 900.971 411.924 899.939 412.088C898.908 412.264 897.684 412.352 896.266 412.352C893.652 412.352 891.467 411.812 889.709 410.734C887.963 409.645 886.65 408.109 885.771 406.129C884.904 404.148 884.471 401.811 884.471 399.115C884.471 397.17 884.74 395.395 885.279 393.789C885.83 392.172 886.627 390.777 887.67 389.605C888.725 388.434 890.014 387.531 891.537 386.898C893.072 386.254 894.83 385.932 896.811 385.932C898.111 385.932 899.365 386.061 900.572 386.318C901.779 386.576 902.869 386.945 903.842 387.426L902.646 389.957C901.826 389.582 900.924 389.26 899.939 388.99C898.967 388.709 897.912 388.568 896.775 388.568ZM924.584 412L921.42 403.844H911.119L907.973 412H904.949L915.004 386.195H917.693L927.678 412H924.584ZM920.523 401.189L917.518 393.086C917.447 392.875 917.33 392.529 917.166 392.049C917.014 391.568 916.855 391.07 916.691 390.555C916.527 390.039 916.393 389.623 916.287 389.307C916.17 389.787 916.041 390.268 915.9 390.748C915.771 391.217 915.643 391.656 915.514 392.066C915.385 392.465 915.273 392.805 915.18 393.086L912.121 401.189H920.523ZM942.232 388.568C940.814 388.568 939.537 388.814 938.4 389.307C937.275 389.787 936.314 390.49 935.518 391.416C934.732 392.33 934.129 393.438 933.707 394.738C933.285 396.039 933.074 397.504 933.074 399.133C933.074 401.289 933.408 403.164 934.076 404.758C934.756 406.34 935.764 407.564 937.1 408.432C938.447 409.299 940.129 409.732 942.145 409.732C943.293 409.732 944.371 409.639 945.379 409.451C946.398 409.252 947.389 409.006 948.35 408.713V411.314C947.412 411.666 946.428 411.924 945.396 412.088C944.365 412.264 943.141 412.352 941.723 412.352C939.109 412.352 936.924 411.812 935.166 410.734C933.42 409.645 932.107 408.109 931.229 406.129C930.361 404.148 929.928 401.811 929.928 399.115C929.928 397.17 930.197 395.395 930.736 393.789C931.287 392.172 932.084 390.777 933.127 389.605C934.182 388.434 935.471 387.531 936.994 386.898C938.529 386.254 940.287 385.932 942.268 385.932C943.568 385.932 944.822 386.061 946.029 386.318C947.236 386.576 948.326 386.945 949.299 387.426L948.104 389.957C947.283 389.582 946.381 389.26 945.396 388.99C944.424 388.709 943.369 388.568 942.232 388.568ZM964.908 388.568C963.49 388.568 962.213 388.814 961.076 389.307C959.951 389.787 958.99 390.49 958.193 391.416C957.408 392.33 956.805 393.438 956.383 394.738C955.961 396.039 955.75 397.504 955.75 399.133C955.75 401.289 956.084 403.164 956.752 404.758C957.432 406.34 958.439 407.564 959.775 408.432C961.123 409.299 962.805 409.732 964.82 409.732C965.969 409.732 967.047 409.639 968.055 409.451C969.074 409.252 970.064 409.006 971.025 408.713V411.314C970.088 411.666 969.104 411.924 968.072 412.088C967.041 412.264 965.816 412.352 964.398 412.352C961.785 412.352 959.6 411.812 957.842 410.734C956.096 409.645 954.783 408.109 953.904 406.129C953.037 404.148 952.604 401.811 952.604 399.115C952.604 397.17 952.873 395.395 953.412 393.789C953.963 392.172 954.76 390.777 955.803 389.605C956.857 388.434 958.146 387.531 959.67 386.898C961.205 386.254 962.963 385.932 964.943 385.932C966.244 385.932 967.498 386.061 968.705 386.318C969.912 386.576 971.002 386.945 971.975 387.426L970.779 389.957C969.959 389.582 969.057 389.26 968.072 388.99C967.1 388.709 966.045 388.568 964.908 388.568ZM987.584 388.568C986.166 388.568 984.889 388.814 983.752 389.307C982.627 389.787 981.666 390.49 980.869 391.416C980.084 392.33 979.48 393.438 979.059 394.738C978.637 396.039 978.426 397.504 978.426 399.133C978.426 401.289 978.76 403.164 979.428 404.758C980.107 406.34 981.115 407.564 982.451 408.432C983.799 409.299 985.48 409.732 987.496 409.732C988.645 409.732 989.723 409.639 990.73 409.451C991.75 409.252 992.74 409.006 993.701 408.713V411.314C992.764 411.666 991.779 411.924 990.748 412.088C989.717 412.264 988.492 412.352 987.074 412.352C984.461 412.352 982.275 411.812 980.518 410.734C978.771 409.645 977.459 408.109 976.58 406.129C975.713 404.148 975.279 401.811 975.279 399.115C975.279 397.17 975.549 395.395 976.088 393.789C976.639 392.172 977.436 390.777 978.479 389.605C979.533 388.434 980.822 387.531 982.346 386.898C983.881 386.254 985.639 385.932 987.619 385.932C988.92 385.932 990.174 386.061 991.381 386.318C992.588 386.576 993.678 386.945 994.65 387.426L993.455 389.957C992.635 389.582 991.732 389.26 990.748 388.99C989.775 388.709 988.721 388.568 987.584 388.568ZM1013.58 412H999.273V386.301H1013.58V388.938H1002.26V397.252H1012.93V399.854H1002.26V409.363H1013.58V412Z" fill="black"/>
<circle cx="418.5" cy="804.5" r="139.5" fill="#E9EBEE"/>
<path d="M353.528 818L357.824 791.818H360.381L356.085 818H353.528ZM341.614 810.739L342.023 808.182H361.557L361.148 810.739H341.614ZM344.324 818L348.619 791.818H351.176L346.881 818H344.324ZM343.148 801.636L343.557 799.08H363.091L362.682 801.636H343.148ZM366.881 818V791.818H382.683V794.631H370.052V803.477H381.864V806.29H370.052V815.188H382.887V818H366.881ZM396.272 791.46C397.346 791.469 398.42 791.673 399.494 792.074C400.567 792.474 401.548 793.139 402.434 794.068C403.32 794.989 404.032 796.246 404.569 797.839C405.106 799.433 405.374 801.432 405.374 803.835C405.374 806.162 405.153 808.229 404.71 810.036C404.275 811.834 403.644 813.351 402.817 814.587C401.999 815.822 401.002 816.76 399.826 817.399C398.658 818.038 397.337 818.358 395.863 818.358C394.397 818.358 393.089 818.068 391.938 817.489C390.796 816.901 389.859 816.087 389.126 815.047C388.401 813.999 387.937 812.784 387.732 811.403H390.852C391.133 812.605 391.691 813.598 392.526 814.382C393.37 815.158 394.482 815.545 395.863 815.545C397.883 815.545 399.477 814.663 400.644 812.899C401.82 811.135 402.408 808.642 402.408 805.42H402.204C401.727 806.136 401.16 806.754 400.504 807.274C399.847 807.794 399.119 808.195 398.317 808.476C397.516 808.757 396.664 808.898 395.761 808.898C394.261 808.898 392.884 808.527 391.631 807.786C390.387 807.036 389.39 806.009 388.64 804.705C387.898 803.392 387.528 801.892 387.528 800.205C387.528 798.602 387.886 797.136 388.602 795.807C389.326 794.469 390.34 793.403 391.644 792.611C392.957 791.818 394.499 791.435 396.272 791.46ZM396.272 794.273C395.198 794.273 394.231 794.541 393.37 795.078C392.518 795.607 391.84 796.322 391.337 797.226C390.843 798.121 390.596 799.114 390.596 800.205C390.596 801.295 390.835 802.288 391.312 803.183C391.798 804.07 392.458 804.777 393.293 805.305C394.137 805.825 395.096 806.085 396.17 806.085C396.979 806.085 397.734 805.928 398.433 805.612C399.131 805.288 399.741 804.849 400.261 804.295C400.789 803.733 401.202 803.098 401.501 802.391C401.799 801.675 401.948 800.929 401.948 800.153C401.948 799.131 401.701 798.172 401.207 797.277C400.721 796.382 400.048 795.658 399.187 795.104C398.335 794.55 397.363 794.273 396.272 794.273ZM410.862 818V791.818H426.663V794.631H414.032V803.477H425.845V806.29H414.032V815.188H426.868V818H410.862ZM432.377 818V791.818H441.531C443.355 791.818 444.859 792.134 446.044 792.764C447.228 793.386 448.11 794.226 448.69 795.283C449.27 796.331 449.559 797.494 449.559 798.773C449.559 799.898 449.359 800.827 448.958 801.56C448.566 802.293 448.047 802.872 447.399 803.298C446.76 803.724 446.065 804.04 445.315 804.244V804.5C446.116 804.551 446.922 804.832 447.731 805.344C448.541 805.855 449.218 806.588 449.764 807.543C450.309 808.497 450.582 809.665 450.582 811.045C450.582 812.358 450.284 813.538 449.687 814.587C449.091 815.635 448.149 816.466 446.862 817.08C445.575 817.693 443.9 818 441.838 818H432.377ZM435.548 815.188H441.838C443.909 815.188 445.379 814.787 446.248 813.986C447.126 813.176 447.565 812.196 447.565 811.045C447.565 810.159 447.339 809.341 446.887 808.591C446.436 807.832 445.792 807.227 444.957 806.776C444.122 806.315 443.133 806.085 441.991 806.085H435.548V815.188ZM435.548 803.324H441.429C442.383 803.324 443.244 803.136 444.011 802.761C444.787 802.386 445.4 801.858 445.852 801.176C446.312 800.494 446.542 799.693 446.542 798.773C446.542 797.622 446.142 796.646 445.341 795.845C444.539 795.036 443.27 794.631 441.531 794.631H435.548V803.324ZM455.792 818V791.818H471.593V794.631H458.962V803.477H470.775V806.29H458.962V815.188H471.797V818H455.792ZM477.307 818V791.818H493.108V794.631H480.478V803.477H492.29V806.29H480.478V815.188H493.313V818H477.307Z" fill="black"/>
<circle cx="418.5" cy="804.5" r="139.5" fill="#4267B2"/>
<path d="M358.227 805.197L357.084 811.174H362.059V813.406H356.645L355.15 821H352.777L354.271 813.406H348.91L347.469 821H345.131L346.52 813.406H341.914V811.174H346.959L348.137 805.197H343.25V803H348.541L350 795.301H352.408L350.949 803H356.346L357.805 795.301H360.125L358.666 803H363.324V805.197H358.227ZM349.332 811.174H354.693L355.854 805.197H350.492L349.332 811.174ZM384.172 815.041H380.322V821H377.475V815.041H365.047V812.58L377.281 795.16H380.322V812.404H384.172V815.041ZM377.475 812.404V804.002C377.475 803.357 377.48 802.777 377.492 802.262C377.504 801.734 377.521 801.248 377.545 800.803C377.568 800.346 377.586 799.912 377.598 799.502C377.621 799.092 377.639 798.688 377.65 798.289H377.51C377.287 798.758 377.029 799.256 376.736 799.783C376.455 800.299 376.168 800.762 375.875 801.172L367.947 812.404H377.475ZM403.49 821H386.65V818.557L393.523 811.578C394.801 810.289 395.873 809.141 396.74 808.133C397.619 807.125 398.287 806.135 398.744 805.162C399.201 804.178 399.43 803.1 399.43 801.928C399.43 800.475 398.996 799.367 398.129 798.605C397.273 797.832 396.143 797.445 394.736 797.445C393.506 797.445 392.416 797.656 391.467 798.078C390.518 798.5 389.545 799.098 388.549 799.871L386.984 797.902C387.664 797.328 388.402 796.818 389.199 796.373C390.008 795.928 390.869 795.576 391.783 795.318C392.709 795.061 393.693 794.932 394.736 794.932C396.318 794.932 397.684 795.207 398.832 795.758C399.98 796.309 400.865 797.094 401.486 798.113C402.119 799.133 402.436 800.346 402.436 801.752C402.436 803.111 402.166 804.377 401.627 805.549C401.088 806.709 400.332 807.863 399.359 809.012C398.387 810.148 397.25 811.355 395.949 812.633L390.359 818.205V818.328H403.49V821ZM407.516 810.014C407.516 808.467 407.621 806.955 407.832 805.479C408.055 804.002 408.424 802.631 408.939 801.365C409.455 800.088 410.158 798.969 411.049 798.008C411.939 797.047 413.047 796.297 414.371 795.758C415.707 795.207 417.307 794.932 419.17 794.932C419.697 794.932 420.266 794.961 420.875 795.02C421.484 795.066 421.988 795.148 422.387 795.266V797.779C421.953 797.627 421.455 797.516 420.893 797.445C420.342 797.375 419.785 797.34 419.223 797.34C417.043 797.34 415.326 797.814 414.072 798.764C412.83 799.713 411.934 801.002 411.383 802.631C410.832 804.248 410.516 806.07 410.434 808.098H410.627C410.99 807.512 411.453 806.984 412.016 806.516C412.578 806.035 413.258 805.654 414.055 805.373C414.863 805.092 415.801 804.951 416.867 804.951C418.367 804.951 419.674 805.256 420.787 805.865C421.912 806.475 422.779 807.359 423.389 808.52C424.01 809.68 424.32 811.086 424.32 812.738C424.32 814.508 423.992 816.037 423.336 817.326C422.68 818.615 421.742 819.611 420.523 820.314C419.316 821.006 417.875 821.352 416.199 821.352C414.945 821.352 413.791 821.111 412.736 820.631C411.682 820.15 410.762 819.436 409.977 818.486C409.203 817.537 408.6 816.359 408.166 814.953C407.732 813.535 407.516 811.889 407.516 810.014ZM416.164 818.891C417.758 818.891 419.035 818.381 419.996 817.361C420.957 816.342 421.438 814.801 421.438 812.738C421.438 811.051 421.01 809.715 420.154 808.73C419.299 807.746 418.01 807.254 416.287 807.254C415.115 807.254 414.096 807.5 413.229 807.992C412.361 808.473 411.688 809.082 411.207 809.82C410.727 810.559 410.486 811.309 410.486 812.07C410.486 812.844 410.598 813.629 410.82 814.426C411.055 815.223 411.406 815.961 411.875 816.641C412.344 817.32 412.936 817.865 413.65 818.275C414.365 818.686 415.203 818.891 416.164 818.891ZM431.176 821L441.723 797.973H427.713V795.301H444.852V797.551L434.375 821H431.176ZM450.195 795.301H457.473C460.684 795.301 463.098 795.781 464.715 796.742C466.332 797.703 467.141 799.338 467.141 801.646C467.141 802.643 466.947 803.539 466.561 804.336C466.186 805.121 465.635 805.771 464.908 806.287C464.182 806.803 463.285 807.16 462.219 807.359V807.535C463.344 807.711 464.34 808.033 465.207 808.502C466.074 808.971 466.754 809.627 467.246 810.471C467.738 811.314 467.984 812.387 467.984 813.688C467.984 815.27 467.615 816.605 466.877 817.695C466.15 818.785 465.119 819.611 463.783 820.174C462.447 820.725 460.865 821 459.037 821H450.195V795.301ZM453.184 806.322H458.105C460.344 806.322 461.891 805.953 462.746 805.215C463.613 804.477 464.047 803.398 464.047 801.98C464.047 800.516 463.531 799.461 462.5 798.816C461.48 798.172 459.852 797.85 457.613 797.85H453.184V806.322ZM453.184 808.836V818.451H458.527C460.812 818.451 462.43 818.006 463.379 817.115C464.328 816.213 464.803 815 464.803 813.477C464.803 812.504 464.586 811.672 464.152 810.98C463.73 810.289 463.039 809.762 462.078 809.398C461.129 809.023 459.857 808.836 458.264 808.836H453.184ZM488.568 821H471.729V818.557L478.602 811.578C479.879 810.289 480.951 809.141 481.818 808.133C482.697 807.125 483.365 806.135 483.822 805.162C484.279 804.178 484.508 803.1 484.508 801.928C484.508 800.475 484.074 799.367 483.207 798.605C482.352 797.832 481.221 797.445 479.814 797.445C478.584 797.445 477.494 797.656 476.545 798.078C475.596 798.5 474.623 799.098 473.627 799.871L472.062 797.902C472.742 797.328 473.48 796.818 474.277 796.373C475.086 795.928 475.947 795.576 476.861 795.318C477.787 795.061 478.771 794.932 479.814 794.932C481.396 794.932 482.762 795.207 483.91 795.758C485.059 796.309 485.943 797.094 486.564 798.113C487.197 799.133 487.514 800.346 487.514 801.752C487.514 803.111 487.244 804.377 486.705 805.549C486.166 806.709 485.41 807.863 484.438 809.012C483.465 810.148 482.328 811.355 481.027 812.633L475.438 818.205V818.328H488.568V821Z" fill="white"/>
<circle cx="936.5" cy="804.5" r="139.5" fill="#007BB5"/>
<path d="M876.227 805.197L875.084 811.174H880.059V813.406H874.645L873.15 821H870.777L872.271 813.406H866.91L865.469 821H863.131L864.52 813.406H859.914V811.174H864.959L866.137 805.197H861.25V803H866.541L868 795.301H870.408L868.949 803H874.346L875.805 795.301H878.125L876.666 803H881.324V805.197H876.227ZM867.332 811.174H872.693L873.854 805.197H868.492L867.332 811.174ZM901.029 808.115C901.029 810.201 900.871 812.064 900.555 813.705C900.238 815.346 899.74 816.734 899.061 817.871C898.381 819.008 897.502 819.875 896.424 820.473C895.346 821.059 894.051 821.352 892.539 821.352C890.629 821.352 889.047 820.83 887.793 819.787C886.551 818.744 885.619 817.238 884.998 815.27C884.389 813.289 884.084 810.904 884.084 808.115C884.084 805.373 884.359 803.018 884.91 801.049C885.473 799.068 886.375 797.551 887.617 796.496C888.859 795.43 890.5 794.896 892.539 794.896C894.473 794.896 896.066 795.424 897.32 796.479C898.574 797.521 899.506 799.033 900.115 801.014C900.725 802.982 901.029 805.35 901.029 808.115ZM887.02 808.115C887.02 810.506 887.201 812.498 887.564 814.092C887.928 815.686 888.514 816.881 889.322 817.678C890.143 818.463 891.215 818.855 892.539 818.855C893.863 818.855 894.93 818.463 895.738 817.678C896.559 816.893 897.15 815.703 897.514 814.109C897.889 812.516 898.076 810.518 898.076 808.115C898.076 805.76 897.895 803.791 897.531 802.209C897.168 800.615 896.582 799.42 895.773 798.623C894.965 797.814 893.887 797.41 892.539 797.41C891.191 797.41 890.113 797.814 889.305 798.623C888.496 799.42 887.91 800.615 887.547 802.209C887.195 803.791 887.02 805.76 887.02 808.115ZM921.631 808.115C921.631 810.201 921.473 812.064 921.156 813.705C920.84 815.346 920.342 816.734 919.662 817.871C918.982 819.008 918.104 819.875 917.025 820.473C915.947 821.059 914.652 821.352 913.141 821.352C911.23 821.352 909.648 820.83 908.395 819.787C907.152 818.744 906.221 817.238 905.6 815.27C904.99 813.289 904.686 810.904 904.686 808.115C904.686 805.373 904.961 803.018 905.512 801.049C906.074 799.068 906.977 797.551 908.219 796.496C909.461 795.43 911.102 794.896 913.141 794.896C915.074 794.896 916.668 795.424 917.922 796.479C919.176 797.521 920.107 799.033 920.717 801.014C921.326 802.982 921.631 805.35 921.631 808.115ZM907.621 808.115C907.621 810.506 907.803 812.498 908.166 814.092C908.529 815.686 909.115 816.881 909.924 817.678C910.744 818.463 911.816 818.855 913.141 818.855C914.465 818.855 915.531 818.463 916.34 817.678C917.16 816.893 917.752 815.703 918.115 814.109C918.49 812.516 918.678 810.518 918.678 808.115C918.678 805.76 918.496 803.791 918.133 802.209C917.77 800.615 917.184 799.42 916.375 798.623C915.566 797.814 914.488 797.41 913.141 797.41C911.793 797.41 910.715 797.814 909.906 798.623C909.098 799.42 908.512 800.615 908.148 802.209C907.797 803.791 907.621 805.76 907.621 808.115ZM928.574 821L939.121 797.973H925.111V795.301H942.25V797.551L931.773 821H928.574ZM947.594 795.301H954.871C958.082 795.301 960.496 795.781 962.113 796.742C963.73 797.703 964.539 799.338 964.539 801.646C964.539 802.643 964.346 803.539 963.959 804.336C963.584 805.121 963.033 805.771 962.307 806.287C961.58 806.803 960.684 807.16 959.617 807.359V807.535C960.742 807.711 961.738 808.033 962.605 808.502C963.473 808.971 964.152 809.627 964.645 810.471C965.137 811.314 965.383 812.387 965.383 813.688C965.383 815.27 965.014 816.605 964.275 817.695C963.549 818.785 962.518 819.611 961.182 820.174C959.846 820.725 958.264 821 956.436 821H947.594V795.301ZM950.582 806.322H955.504C957.742 806.322 959.289 805.953 960.145 805.215C961.012 804.477 961.445 803.398 961.445 801.98C961.445 800.516 960.93 799.461 959.898 798.816C958.879 798.172 957.25 797.85 955.012 797.85H950.582V806.322ZM950.582 808.836V818.451H955.926C958.211 818.451 959.828 818.006 960.777 817.115C961.727 816.213 962.201 815 962.201 813.477C962.201 812.504 961.984 811.672 961.551 810.98C961.129 810.289 960.438 809.762 959.477 809.398C958.527 809.023 957.256 808.836 955.662 808.836H950.582ZM970.867 795.301H978.145C981.355 795.301 983.77 795.781 985.387 796.742C987.004 797.703 987.812 799.338 987.812 801.646C987.812 802.643 987.619 803.539 987.232 804.336C986.857 805.121 986.307 805.771 985.58 806.287C984.854 806.803 983.957 807.16 982.891 807.359V807.535C984.016 807.711 985.012 808.033 985.879 808.502C986.746 808.971 987.426 809.627 987.918 810.471C988.41 811.314 988.656 812.387 988.656 813.688C988.656 815.27 988.287 816.605 987.549 817.695C986.822 818.785 985.791 819.611 984.455 820.174C983.119 820.725 981.537 821 979.709 821H970.867V795.301ZM973.855 806.322H978.777C981.016 806.322 982.562 805.953 983.418 805.215C984.285 804.477 984.719 803.398 984.719 801.98C984.719 800.516 984.203 799.461 983.172 798.816C982.152 798.172 980.523 797.85 978.285 797.85H973.855V806.322ZM973.855 808.836V818.451H979.199C981.484 818.451 983.102 818.006 984.051 817.115C985 816.213 985.475 815 985.475 813.477C985.475 812.504 985.258 811.672 984.824 810.98C984.402 810.289 983.711 809.762 982.75 809.398C981.801 809.023 980.529 808.836 978.936 808.836H973.855ZM1000.52 805.285C1002.27 805.285 1003.79 805.584 1005.07 806.182C1006.36 806.768 1007.36 807.623 1008.06 808.748C1008.78 809.873 1009.13 811.238 1009.13 812.844C1009.13 814.602 1008.75 816.119 1007.99 817.396C1007.23 818.662 1006.13 819.641 1004.71 820.332C1003.28 821.012 1001.56 821.352 999.572 821.352C998.236 821.352 996.994 821.234 995.846 821C994.697 820.766 993.73 820.414 992.945 819.945V817.168C993.801 817.684 994.838 818.094 996.057 818.398C997.275 818.703 998.459 818.855 999.607 818.855C1000.91 818.855 1002.04 818.65 1003.02 818.24C1004 817.818 1004.76 817.186 1005.3 816.342C1005.85 815.486 1006.13 814.414 1006.13 813.125C1006.13 811.414 1005.6 810.096 1004.55 809.17C1003.5 808.232 1001.85 807.764 999.59 807.764C998.863 807.764 998.066 807.822 997.199 807.939C996.332 808.057 995.617 808.186 995.055 808.326L993.578 807.359L994.562 795.301H1007.34V797.973H997.059L996.408 805.725C996.854 805.631 997.428 805.537 998.131 805.443C998.834 805.338 999.631 805.285 1000.52 805.285Z" fill="white"/>
</svg>
