<svg width="440" height="440" viewBox="0 0 440 440" fill="none" xmlns="http://www.w3.org/2000/svg">
<path d="M341.658 256.505C335.182 277.928 323.181 297.27 306.861 312.585" stroke="#D10006" stroke-opacity="0.3" stroke-width="20"/>
<path d="M307.083 312.377C290.799 327.731 270.761 338.529 248.982 343.684" stroke="#9E0466" stroke-width="20"/>
<path d="M249.618 343.532C227.865 348.799 205.11 348.247 183.638 341.932" stroke="#5F0564" stroke-opacity="0.3" stroke-width="20"/>
<path d="M184.499 342.183C162.984 336.019 143.47 324.301 127.919 308.205" stroke="#040263" stroke-width="20"/>
<path d="M128.201 308.495C112.685 292.538 101.617 272.796 96.097 251.234" stroke="#08329D" stroke-opacity="0.3" stroke-width="20"/>
<path d="M96.0977 251.238C90.6848 230.098 90.7887 207.922 96.3994 186.832" stroke="#006A64" stroke-opacity="0.3" stroke-width="20"/>
<path d="M96.3837 186.886C102.129 165.255 113.466 145.517 129.257 129.656" stroke="#399806" stroke-opacity="0.3" stroke-width="20"/>
<path d="M129.071 129.844C144.828 113.95 164.492 102.485 186.085 96.5998" stroke="#65CC09" stroke-opacity="0.3" stroke-width="20"/>
<path d="M186.15 96.5825C207.746 90.7086 230.508 90.6229 252.148 96.3341" stroke="#F7FF08" stroke-width="20"/>
<path d="M251.949 96.282C273.598 101.959 293.372 113.234 309.282 128.975" stroke="#FD9B05" stroke-opacity="0.3" stroke-width="20"/>
<path d="M309.28 128.971C325.191 144.711 336.678 164.362 342.587 185.948" stroke="#FE6606" stroke-opacity="0.3" stroke-width="20"/>
<path d="M342.524 185.724C348.931 208.964 348.618 233.545 341.622 256.614" stroke="#FB3505" stroke-opacity="0.3" stroke-width="20"/>
<ellipse cx="219.611" cy="220.113" rx="7.5" ry="8" fill="#2C2C2C"/>
<line x1="219.611" y1="220.118" x2="218.611" y2="125.118" stroke="#2C2C2C"/>
<line x1="167.565" y1="313.754" x2="219.565" y2="221.754" stroke="#2C2C2C"/>
<line x1="269.562" y1="313.241" x2="219.562" y2="222.241" stroke="#2C2C2C"/>
<ellipse cx="218.611" cy="122.113" rx="7.5" ry="8" fill="#F7FF08"/>
<ellipse cx="266.5" cy="308" rx="7.5" ry="8" fill="#9E0466"/>
<ellipse cx="170.5" cy="308" rx="7.5" ry="8" fill="#040263"/>
<path d="M106.27 393.242C106.27 394.258 106.023 395.141 105.531 395.891C105.039 396.641 104.32 397.219 103.375 397.625C102.438 398.031 101.297 398.234 99.9531 398.234C99.3594 398.234 98.7773 398.195 98.207 398.117C97.6445 398.039 97.1016 397.926 96.5781 397.777C96.0625 397.621 95.5703 397.43 95.1016 397.203V393.828C95.9141 394.188 96.7578 394.512 97.6328 394.801C98.5078 395.09 99.375 395.234 100.234 395.234C100.828 395.234 101.305 395.156 101.664 395C102.031 394.844 102.297 394.629 102.461 394.355C102.625 394.082 102.707 393.77 102.707 393.418C102.707 392.988 102.562 392.621 102.273 392.316C101.984 392.012 101.586 391.727 101.078 391.461C100.578 391.195 100.012 390.91 99.3789 390.605C98.9805 390.418 98.5469 390.191 98.0781 389.926C97.6094 389.652 97.1641 389.32 96.7422 388.93C96.3203 388.539 95.9727 388.066 95.6992 387.512C95.4336 386.949 95.3008 386.277 95.3008 385.496C95.3008 384.473 95.5352 383.598 96.0039 382.871C96.4727 382.145 97.1406 381.59 98.0078 381.207C98.8828 380.816 99.9141 380.621 101.102 380.621C101.992 380.621 102.84 380.727 103.645 380.938C104.457 381.141 105.305 381.438 106.188 381.828L105.016 384.652C104.227 384.332 103.52 384.086 102.895 383.914C102.27 383.734 101.633 383.645 100.984 383.645C100.531 383.645 100.145 383.719 99.8242 383.867C99.5039 384.008 99.2617 384.211 99.0977 384.477C98.9336 384.734 98.8516 385.035 98.8516 385.379C98.8516 385.785 98.9688 386.129 99.2031 386.41C99.4453 386.684 99.8047 386.949 100.281 387.207C100.766 387.465 101.367 387.766 102.086 388.109C102.961 388.523 103.707 388.957 104.324 389.41C104.949 389.855 105.43 390.383 105.766 390.992C106.102 391.594 106.27 392.344 106.27 393.242ZM116.383 384.652C117.859 384.652 119.051 385.227 119.957 386.375C120.871 387.523 121.328 389.207 121.328 391.426C121.328 392.91 121.113 394.16 120.684 395.176C120.254 396.184 119.66 396.945 118.902 397.461C118.145 397.977 117.273 398.234 116.289 398.234C115.656 398.234 115.113 398.156 114.66 398C114.207 397.836 113.82 397.629 113.5 397.379C113.18 397.121 112.902 396.848 112.668 396.559H112.48C112.543 396.871 112.59 397.191 112.621 397.52C112.652 397.848 112.668 398.168 112.668 398.48V403.766H109.094V384.898H112L112.504 386.598H112.668C112.902 386.246 113.188 385.922 113.523 385.625C113.859 385.328 114.262 385.094 114.73 384.922C115.207 384.742 115.758 384.652 116.383 384.652ZM115.234 387.512C114.609 387.512 114.113 387.641 113.746 387.898C113.379 388.156 113.109 388.543 112.938 389.059C112.773 389.574 112.684 390.227 112.668 391.016V391.402C112.668 392.246 112.746 392.961 112.902 393.547C113.066 394.133 113.336 394.578 113.711 394.883C114.094 395.188 114.617 395.34 115.281 395.34C115.828 395.34 116.277 395.188 116.629 394.883C116.98 394.578 117.242 394.133 117.414 393.547C117.594 392.953 117.684 392.23 117.684 391.379C117.684 390.098 117.484 389.133 117.086 388.484C116.688 387.836 116.07 387.512 115.234 387.512ZM127.855 398H124.281V379.766H127.855V398ZM135.191 384.898V398H131.617V384.898H135.191ZM133.41 379.766C133.941 379.766 134.398 379.891 134.781 380.141C135.164 380.383 135.355 380.84 135.355 381.512C135.355 382.176 135.164 382.637 134.781 382.895C134.398 383.145 133.941 383.27 133.41 383.27C132.871 383.27 132.41 383.145 132.027 382.895C131.652 382.637 131.465 382.176 131.465 381.512C131.465 380.84 131.652 380.383 132.027 380.141C132.41 379.891 132.871 379.766 133.41 379.766ZM144.473 395.387C144.863 395.387 145.242 395.348 145.609 395.27C145.984 395.191 146.355 395.094 146.723 394.977V397.637C146.34 397.809 145.863 397.949 145.293 398.059C144.73 398.176 144.113 398.234 143.441 398.234C142.66 398.234 141.957 398.109 141.332 397.859C140.715 397.602 140.227 397.16 139.867 396.535C139.516 395.902 139.34 395.023 139.34 393.898V387.582H137.629V386.07L139.598 384.875L140.629 382.109H142.914V384.898H146.582V387.582H142.914V393.898C142.914 394.398 143.055 394.773 143.336 395.023C143.625 395.266 144.004 395.387 144.473 395.387ZM148.223 393.031V390.102H154.516V393.031H148.223ZM162.438 398.234C161.141 398.234 160.035 398 159.121 397.531C158.207 397.055 157.512 396.32 157.035 395.328C156.559 394.336 156.32 393.066 156.32 391.52C156.32 389.918 156.59 388.613 157.129 387.605C157.676 386.59 158.43 385.844 159.391 385.367C160.359 384.891 161.48 384.652 162.754 384.652C163.66 384.652 164.441 384.742 165.098 384.922C165.762 385.094 166.34 385.301 166.832 385.543L165.777 388.309C165.215 388.082 164.691 387.898 164.207 387.758C163.723 387.609 163.238 387.535 162.754 387.535C162.129 387.535 161.609 387.684 161.195 387.98C160.781 388.27 160.473 388.707 160.27 389.293C160.066 389.879 159.965 390.613 159.965 391.496C159.965 392.363 160.074 393.082 160.293 393.652C160.512 394.223 160.828 394.648 161.242 394.93C161.656 395.203 162.16 395.34 162.754 395.34C163.496 395.34 164.156 395.242 164.734 395.047C165.312 394.844 165.875 394.562 166.422 394.203V397.262C165.875 397.605 165.301 397.852 164.699 398C164.105 398.156 163.352 398.234 162.438 398.234ZM181.375 391.426C181.375 392.52 181.227 393.488 180.93 394.332C180.641 395.176 180.215 395.891 179.652 396.477C179.098 397.055 178.426 397.492 177.637 397.789C176.855 398.086 175.973 398.234 174.988 398.234C174.066 398.234 173.219 398.086 172.445 397.789C171.68 397.492 171.012 397.055 170.441 396.477C169.879 395.891 169.441 395.176 169.129 394.332C168.824 393.488 168.672 392.52 168.672 391.426C168.672 389.973 168.93 388.742 169.445 387.734C169.961 386.727 170.695 385.961 171.648 385.438C172.602 384.914 173.738 384.652 175.059 384.652C176.285 384.652 177.371 384.914 178.316 385.438C179.27 385.961 180.016 386.727 180.555 387.734C181.102 388.742 181.375 389.973 181.375 391.426ZM172.316 391.426C172.316 392.285 172.41 393.008 172.598 393.594C172.785 394.18 173.078 394.621 173.477 394.918C173.875 395.215 174.395 395.363 175.035 395.363C175.668 395.363 176.18 395.215 176.57 394.918C176.969 394.621 177.258 394.18 177.438 393.594C177.625 393.008 177.719 392.285 177.719 391.426C177.719 390.559 177.625 389.84 177.438 389.27C177.258 388.691 176.969 388.258 176.57 387.969C176.172 387.68 175.652 387.535 175.012 387.535C174.066 387.535 173.379 387.859 172.949 388.508C172.527 389.156 172.316 390.129 172.316 391.426ZM199.715 384.652C201.199 384.652 202.32 385.035 203.078 385.801C203.844 386.559 204.227 387.777 204.227 389.457V398H200.641V390.348C200.641 389.41 200.48 388.703 200.16 388.227C199.84 387.75 199.344 387.512 198.672 387.512C197.727 387.512 197.055 387.852 196.656 388.531C196.258 389.203 196.059 390.168 196.059 391.426V398H192.484V390.348C192.484 389.723 192.414 389.199 192.273 388.777C192.133 388.355 191.918 388.039 191.629 387.828C191.34 387.617 190.969 387.512 190.516 387.512C189.852 387.512 189.328 387.68 188.945 388.016C188.57 388.344 188.301 388.832 188.137 389.48C187.98 390.121 187.902 390.906 187.902 391.836V398H184.328V384.898H187.059L187.539 386.574H187.738C188.004 386.121 188.336 385.754 188.734 385.473C189.141 385.191 189.586 384.984 190.07 384.852C190.555 384.719 191.047 384.652 191.547 384.652C192.508 384.652 193.32 384.809 193.984 385.121C194.656 385.434 195.172 385.918 195.531 386.574H195.848C196.238 385.902 196.789 385.414 197.5 385.109C198.219 384.805 198.957 384.652 199.715 384.652ZM215.195 384.652C216.672 384.652 217.863 385.227 218.77 386.375C219.684 387.523 220.141 389.207 220.141 391.426C220.141 392.91 219.926 394.16 219.496 395.176C219.066 396.184 218.473 396.945 217.715 397.461C216.957 397.977 216.086 398.234 215.102 398.234C214.469 398.234 213.926 398.156 213.473 398C213.02 397.836 212.633 397.629 212.312 397.379C211.992 397.121 211.715 396.848 211.48 396.559H211.293C211.355 396.871 211.402 397.191 211.434 397.52C211.465 397.848 211.48 398.168 211.48 398.48V403.766H207.906V384.898H210.812L211.316 386.598H211.48C211.715 386.246 212 385.922 212.336 385.625C212.672 385.328 213.074 385.094 213.543 384.922C214.02 384.742 214.57 384.652 215.195 384.652ZM214.047 387.512C213.422 387.512 212.926 387.641 212.559 387.898C212.191 388.156 211.922 388.543 211.75 389.059C211.586 389.574 211.496 390.227 211.48 391.016V391.402C211.48 392.246 211.559 392.961 211.715 393.547C211.879 394.133 212.148 394.578 212.523 394.883C212.906 395.188 213.43 395.34 214.094 395.34C214.641 395.34 215.09 395.188 215.441 394.883C215.793 394.578 216.055 394.133 216.227 393.547C216.406 392.953 216.496 392.23 216.496 391.379C216.496 390.098 216.297 389.133 215.898 388.484C215.5 387.836 214.883 387.512 214.047 387.512ZM226.668 398H223.094V379.766H226.668V398ZM235.832 384.652C237.043 384.652 238.086 384.887 238.961 385.355C239.836 385.816 240.512 386.488 240.988 387.371C241.465 388.254 241.703 389.332 241.703 390.605V392.34H233.254C233.293 393.348 233.594 394.141 234.156 394.719C234.727 395.289 235.516 395.574 236.523 395.574C237.359 395.574 238.125 395.488 238.82 395.316C239.516 395.145 240.23 394.887 240.965 394.543V397.309C240.316 397.629 239.637 397.863 238.926 398.012C238.223 398.16 237.367 398.234 236.359 398.234C235.047 398.234 233.883 397.992 232.867 397.508C231.859 397.023 231.066 396.285 230.488 395.293C229.918 394.301 229.633 393.051 229.633 391.543C229.633 390.012 229.891 388.738 230.406 387.723C230.93 386.699 231.656 385.934 232.586 385.426C233.516 384.91 234.598 384.652 235.832 384.652ZM235.855 387.195C235.16 387.195 234.582 387.418 234.121 387.863C233.668 388.309 233.406 389.008 233.336 389.961H238.352C238.344 389.43 238.246 388.957 238.059 388.543C237.879 388.129 237.605 387.801 237.238 387.559C236.879 387.316 236.418 387.195 235.855 387.195ZM259.996 384.652C261.48 384.652 262.602 385.035 263.359 385.801C264.125 386.559 264.508 387.777 264.508 389.457V398H260.922V390.348C260.922 389.41 260.762 388.703 260.441 388.227C260.121 387.75 259.625 387.512 258.953 387.512C258.008 387.512 257.336 387.852 256.938 388.531C256.539 389.203 256.34 390.168 256.34 391.426V398H252.766V390.348C252.766 389.723 252.695 389.199 252.555 388.777C252.414 388.355 252.199 388.039 251.91 387.828C251.621 387.617 251.25 387.512 250.797 387.512C250.133 387.512 249.609 387.68 249.227 388.016C248.852 388.344 248.582 388.832 248.418 389.48C248.262 390.121 248.184 390.906 248.184 391.836V398H244.609V384.898H247.34L247.82 386.574H248.02C248.285 386.121 248.617 385.754 249.016 385.473C249.422 385.191 249.867 384.984 250.352 384.852C250.836 384.719 251.328 384.652 251.828 384.652C252.789 384.652 253.602 384.809 254.266 385.121C254.938 385.434 255.453 385.918 255.812 386.574H256.129C256.52 385.902 257.07 385.414 257.781 385.109C258.5 384.805 259.238 384.652 259.996 384.652ZM273.59 384.652C274.801 384.652 275.844 384.887 276.719 385.355C277.594 385.816 278.27 386.488 278.746 387.371C279.223 388.254 279.461 389.332 279.461 390.605V392.34H271.012C271.051 393.348 271.352 394.141 271.914 394.719C272.484 395.289 273.273 395.574 274.281 395.574C275.117 395.574 275.883 395.488 276.578 395.316C277.273 395.145 277.988 394.887 278.723 394.543V397.309C278.074 397.629 277.395 397.863 276.684 398.012C275.98 398.16 275.125 398.234 274.117 398.234C272.805 398.234 271.641 397.992 270.625 397.508C269.617 397.023 268.824 396.285 268.246 395.293C267.676 394.301 267.391 393.051 267.391 391.543C267.391 390.012 267.648 388.738 268.164 387.723C268.688 386.699 269.414 385.934 270.344 385.426C271.273 384.91 272.355 384.652 273.59 384.652ZM273.613 387.195C272.918 387.195 272.34 387.418 271.879 387.863C271.426 388.309 271.164 389.008 271.094 389.961H276.109C276.102 389.43 276.004 388.957 275.816 388.543C275.637 388.129 275.363 387.801 274.996 387.559C274.637 387.316 274.176 387.195 273.613 387.195ZM289.809 384.652C291.207 384.652 292.332 385.035 293.184 385.801C294.035 386.559 294.461 387.777 294.461 389.457V398H290.887V390.348C290.887 389.41 290.715 388.703 290.371 388.227C290.035 387.75 289.504 387.512 288.777 387.512C287.684 387.512 286.938 387.883 286.539 388.625C286.141 389.367 285.941 390.438 285.941 391.836V398H282.367V384.898H285.098L285.578 386.574H285.777C286.059 386.121 286.406 385.754 286.82 385.473C287.242 385.191 287.707 384.984 288.215 384.852C288.73 384.719 289.262 384.652 289.809 384.652ZM303.66 395.387C304.051 395.387 304.43 395.348 304.797 395.27C305.172 395.191 305.543 395.094 305.91 394.977V397.637C305.527 397.809 305.051 397.949 304.48 398.059C303.918 398.176 303.301 398.234 302.629 398.234C301.848 398.234 301.145 398.109 300.52 397.859C299.902 397.602 299.414 397.16 299.055 396.535C298.703 395.902 298.527 395.023 298.527 393.898V387.582H296.816V386.07L298.785 384.875L299.816 382.109H302.102V384.898H305.77V387.582H302.102V393.898C302.102 394.398 302.242 394.773 302.523 395.023C302.812 395.266 303.191 395.387 303.66 395.387ZM313.938 384.629C315.695 384.629 317.043 385.012 317.98 385.777C318.918 386.543 319.387 387.707 319.387 389.27V398H316.891L316.199 396.219H316.105C315.73 396.688 315.348 397.07 314.957 397.367C314.566 397.664 314.117 397.883 313.609 398.023C313.102 398.164 312.484 398.234 311.758 398.234C310.984 398.234 310.289 398.086 309.672 397.789C309.062 397.492 308.582 397.039 308.23 396.43C307.879 395.812 307.703 395.031 307.703 394.086C307.703 392.695 308.191 391.672 309.168 391.016C310.145 390.352 311.609 389.984 313.562 389.914L315.836 389.844V389.27C315.836 388.582 315.656 388.078 315.297 387.758C314.938 387.438 314.438 387.277 313.797 387.277C313.164 387.277 312.543 387.367 311.934 387.547C311.324 387.727 310.715 387.953 310.105 388.227L308.922 385.812C309.617 385.445 310.395 385.156 311.254 384.945C312.121 384.734 313.016 384.629 313.938 384.629ZM315.836 391.93L314.453 391.977C313.297 392.008 312.492 392.215 312.039 392.598C311.594 392.98 311.371 393.484 311.371 394.109C311.371 394.656 311.531 395.047 311.852 395.281C312.172 395.508 312.59 395.621 313.105 395.621C313.871 395.621 314.516 395.395 315.039 394.941C315.57 394.488 315.836 393.844 315.836 393.008V391.93ZM330.391 384.652C330.57 384.652 330.777 384.664 331.012 384.688C331.254 384.703 331.449 384.727 331.598 384.758L331.328 388.109C331.211 388.07 331.043 388.043 330.824 388.027C330.613 388.004 330.43 387.992 330.273 387.992C329.812 387.992 329.363 388.051 328.926 388.168C328.496 388.285 328.109 388.477 327.766 388.742C327.422 389 327.148 389.344 326.945 389.773C326.75 390.195 326.652 390.715 326.652 391.332V398H323.078V384.898H325.785L326.312 387.102H326.488C326.746 386.656 327.066 386.25 327.449 385.883C327.84 385.508 328.281 385.211 328.773 384.992C329.273 384.766 329.812 384.652 330.391 384.652ZM332.102 384.898H336.016L338.488 392.27C338.566 392.504 338.633 392.742 338.688 392.984C338.742 393.227 338.789 393.477 338.828 393.734C338.867 393.992 338.898 394.262 338.922 394.543H338.992C339.039 394.121 339.102 393.727 339.18 393.359C339.266 392.992 339.371 392.629 339.496 392.27L341.922 384.898H345.754L340.211 399.676C339.875 400.582 339.438 401.336 338.898 401.938C338.359 402.547 337.738 403.004 337.035 403.309C336.34 403.613 335.574 403.766 334.738 403.766C334.332 403.766 333.98 403.742 333.684 403.695C333.387 403.656 333.133 403.613 332.922 403.566V400.73C333.086 400.77 333.293 400.805 333.543 400.836C333.793 400.867 334.055 400.883 334.328 400.883C334.828 400.883 335.258 400.777 335.617 400.566C335.977 400.355 336.277 400.07 336.52 399.711C336.762 399.359 336.953 398.973 337.094 398.551L337.305 397.906L332.102 384.898Z" fill="black"/>
</svg>
