<svg width="546" height="402" viewBox="0 0 546 402" fill="none" xmlns="http://www.w3.org/2000/svg">
<rect x="161.465" y="255.376" width="351.28" height="158.779" transform="rotate(-28.8702 161.465 255.376)" fill="#777777"/>
<rect x="209.678" y="234.993" width="97.7323" height="147.922" transform="rotate(-28.8702 209.678 234.993)" fill="#1B1FFF"/>
<rect x="295.264" y="187.806" width="98.189" height="147.922" transform="rotate(-28.8702 295.264 187.806)" fill="#3337FB"/>
<rect x="381.25" y="140.398" width="97.7323" height="147.922" transform="rotate(-28.8702 381.25 140.398)" fill="#5D60EF"/>
<rect x="381.25" y="140.398" width="97.7323" height="147.922" transform="rotate(-28.8702 381.25 140.398)" fill="#5D60EF"/>
<rect x="154.465" y="308.132" width="351.081" height="158.779" transform="rotate(-61.1015 154.465 308.132)" fill="#777777"/>
<rect x="184.376" y="265.176" width="97.7323" height="147.922" transform="rotate(-61.1015 184.376 265.176)" fill="#3337FB"/>
<rect x="231.608" y="179.614" width="98.189" height="147.922" transform="rotate(-61.1015 231.608 179.614)" fill="#5D60EF"/>
<rect x="279.06" y="93.6519" width="97.7323" height="147.922" transform="rotate(-61.1015 279.06 93.6519)" fill="#DED7FB"/>
<rect x="187.132" y="371.185" width="350.54" height="158.779" transform="rotate(-98.7526 187.132 371.185)" fill="#777777"/>
<rect x="184.574" y="318.903" width="97.7323" height="147.922" transform="rotate(-98.7526 184.574 318.903)" fill="#FCFBFC"/>
<rect x="169.704" y="222.308" width="98.189" height="147.922" transform="rotate(-98.7526 169.704 222.308)" fill="#5D60EF"/>
<rect x="169.704" y="222.308" width="98.189" height="147.922" transform="rotate(-98.7526 169.704 222.308)" fill="#DED7FB"/>
<rect x="154.763" y="125.262" width="97.7323" height="147.922" transform="rotate(-98.7526 154.763 125.262)" fill="#5D60EF"/>
<rect x="154.763" y="125.262" width="97.7323" height="147.922" transform="rotate(-98.7526 154.763 125.262)" fill="#5D60EF"/>
<rect x="233.298" y="401.006" width="355.595" height="162.493" transform="rotate(-130.908 233.298 401.006)" fill="#777777"/>
<rect x="5.17773" y="131.987" width="155" height="346.772" transform="rotate(-40.6199 5.17773 131.987)" fill="#5D60EF"/>
<ellipse cx="263.785" cy="319.069" rx="20.1696" ry="19.9836" transform="rotate(-40.6199 263.785 319.069)" fill="#3337FB"/>
<path d="M102.701 118.013C102.092 117.314 101.414 116.813 100.667 116.511C99.9345 116.209 99.1523 116.096 98.3202 116.172C97.4949 116.255 96.6388 116.517 95.7519 116.958C94.8651 117.399 93.9699 118.012 93.0666 118.799C91.849 119.86 90.9382 120.915 90.334 121.966C89.7446 123.018 89.4991 124.061 89.5977 125.094C89.704 126.12 90.1951 127.136 91.0707 128.141C91.6796 128.841 92.367 129.471 93.133 130.034C93.9058 130.604 94.7967 131.175 95.8056 131.746L92.742 134.414C91.7642 133.926 90.887 133.371 90.1104 132.749C89.326 132.134 88.5335 131.366 87.7331 130.447C86.187 128.672 85.2799 126.893 85.0116 125.11C84.758 123.328 85.0517 121.587 85.8925 119.888C86.7412 118.182 88.0492 116.559 89.8167 115.02C91.1207 113.884 92.4686 113.021 93.8605 112.431C95.2524 111.84 96.6426 111.541 98.0311 111.533C99.4197 111.526 100.768 111.837 102.076 112.466C103.383 113.095 104.605 114.062 105.741 115.366C106.486 116.222 107.122 117.174 107.648 118.222C108.188 119.27 108.612 120.352 108.919 121.466L104.923 122.873C104.669 121.962 104.371 121.082 104.031 120.231C103.691 119.381 103.248 118.642 102.701 118.013ZM112.085 144.587C110.986 145.545 109.882 146.244 108.773 146.684C107.672 147.132 106.58 147.33 105.499 147.278C104.432 147.226 103.403 146.934 102.414 146.4C101.431 145.875 100.509 145.117 99.6469 144.127C98.8397 143.2 98.2467 142.218 97.8679 141.18C97.496 140.151 97.351 139.096 97.4329 138.016C97.5294 136.938 97.8651 135.872 98.4398 134.819C99.0214 133.773 99.8621 132.772 100.962 131.814C102.423 130.542 103.886 129.724 105.351 129.36C106.816 128.995 108.228 129.063 109.589 129.563C110.95 130.063 112.209 130.977 113.365 132.305C114.439 133.538 115.127 134.859 115.428 136.268C115.737 137.685 115.62 139.105 115.079 140.53C114.544 141.962 113.547 143.315 112.085 144.587ZM104.153 135.479C103.289 136.231 102.645 136.958 102.22 137.66C101.795 138.362 101.607 139.043 101.658 139.703C101.708 140.364 102.014 141.016 102.575 141.66C103.129 142.297 103.726 142.681 104.367 142.814C105.014 142.955 105.711 142.859 106.458 142.526C107.211 142.202 108.02 141.663 108.884 140.911C109.756 140.151 110.396 139.428 110.806 138.74C111.23 138.053 111.412 137.383 111.354 136.729C111.296 136.075 110.986 135.426 110.425 134.782C109.598 133.831 108.67 133.424 107.641 133.56C106.62 133.704 105.457 134.343 104.153 135.479ZM111.191 156.907L108.061 153.313L126.395 137.346L129.525 140.94L111.191 156.907ZM131.521 166.904C130.421 167.862 129.317 168.561 128.209 169.001C127.107 169.449 126.016 169.647 124.934 169.595C123.867 169.543 122.839 169.251 121.849 168.717C120.867 168.192 119.945 167.434 119.083 166.444C118.275 165.517 117.682 164.535 117.304 163.497C116.932 162.468 116.787 161.413 116.868 160.333C116.965 159.255 117.301 158.189 117.875 157.136C118.457 156.09 119.298 155.089 120.397 154.131C121.859 152.859 123.321 152.041 124.786 151.676C126.251 151.312 127.664 151.38 129.025 151.88C130.386 152.38 131.644 153.294 132.801 154.622C133.875 155.855 134.562 157.176 134.864 158.585C135.172 160.002 135.056 161.422 134.514 162.847C133.98 164.279 132.982 165.632 131.521 166.904ZM123.589 157.796C122.725 158.548 122.08 159.275 121.655 159.977C121.23 160.679 121.043 161.36 121.093 162.02C121.144 162.681 121.449 163.333 122.01 163.977C122.565 164.614 123.162 164.998 123.802 165.131C124.45 165.272 125.147 165.176 125.893 164.843C126.647 164.519 127.455 163.98 128.319 163.228C129.191 162.468 129.832 161.745 130.241 161.057C130.665 160.37 130.848 159.7 130.79 159.046C130.732 158.392 130.422 157.743 129.861 157.099C129.033 156.148 128.105 155.741 127.077 155.877C126.055 156.02 124.893 156.66 123.589 157.796ZM147.321 171.295C147.478 171.475 147.648 171.694 147.829 171.95C148.026 172.207 148.173 172.424 148.272 172.601L144.666 175.264C144.602 175.112 144.483 174.92 144.307 174.686C144.146 174.453 143.997 174.258 143.86 174.101C143.456 173.638 143.004 173.238 142.503 172.9C142.009 172.571 141.478 172.35 140.91 172.237C140.35 172.117 139.765 172.143 139.155 172.315C138.56 172.488 137.952 172.845 137.331 173.385L130.627 179.224L127.497 175.63L140.67 164.158L143.041 166.879L141.287 169.339L141.441 169.516C142.115 169.385 142.804 169.351 143.508 169.415C144.227 169.479 144.912 169.663 145.563 169.966C146.229 170.271 146.815 170.713 147.321 171.295ZM164.765 183.64C166.701 185.863 167.634 187.902 167.565 189.758C167.504 191.607 166.637 193.26 164.964 194.717C164.209 195.374 163.388 195.889 162.498 196.264C161.616 196.631 160.682 196.788 159.697 196.735C158.718 196.689 157.698 196.375 156.639 195.793C155.587 195.203 154.513 194.28 153.419 193.023L152.054 191.456L145.927 196.792L142.746 193.14L159.972 178.137L164.765 183.64ZM161.607 186.058L160.161 184.396L155.047 188.85L156.093 190.052C156.689 190.735 157.295 191.249 157.914 191.595C158.532 191.94 159.154 192.083 159.778 192.023C160.403 191.962 161.017 191.669 161.622 191.142C162.47 190.403 162.894 189.62 162.892 188.793C162.897 187.959 162.469 187.047 161.607 186.058ZM173.84 201.698C175.379 203.465 176.174 205.155 176.226 206.769C176.277 208.382 175.517 209.872 173.946 211.24L165.167 218.885L162.982 216.376L164.167 214.121L164.085 214.026C163.285 214.06 162.565 214.01 161.925 213.877C161.284 213.745 160.671 213.484 160.085 213.097C159.499 212.709 158.888 212.15 158.251 211.42C157.574 210.642 157.114 209.813 156.873 208.933C156.637 208.06 156.672 207.18 156.977 206.293C157.29 205.399 157.921 204.538 158.872 203.71C160.27 202.493 161.727 202.087 163.242 202.495C164.765 202.895 166.417 204.046 168.198 205.949L170.259 208.173L170.836 207.67C171.528 207.068 171.877 206.446 171.884 205.804C171.892 205.163 171.615 204.52 171.054 203.876C170.5 203.239 169.866 202.693 169.151 202.238C168.437 201.783 167.676 201.368 166.867 200.995L168.258 197.691C169.236 198.069 170.207 198.597 171.172 199.277C172.143 199.964 173.033 200.771 173.84 201.698ZM168.162 210L166.904 208.65C165.86 207.515 164.947 206.887 164.165 206.767C163.39 206.654 162.689 206.872 162.06 207.419C161.51 207.898 161.258 208.401 161.303 208.928C161.355 209.449 161.608 209.968 162.059 210.487C162.729 211.256 163.522 211.706 164.436 211.836C165.356 211.973 166.237 211.676 167.078 210.944L168.162 210ZM171.53 226.191L168.4 222.597L186.734 206.63L189.864 210.224L171.53 226.191ZM192.975 223.717C194.035 224.935 194.713 226.189 195.008 227.479C195.311 228.762 195.227 230.03 194.757 231.282C194.286 232.535 193.411 233.718 192.13 234.833L190.386 236.352L182.988 227.857C182.009 228.778 181.475 229.775 181.386 230.847C181.312 231.92 181.716 232.963 182.599 233.976C183.331 234.817 184.088 235.511 184.869 236.06C185.651 236.609 186.536 237.102 187.525 237.539L184.744 239.961C183.854 239.589 183.023 239.111 182.252 238.526C181.487 237.949 180.663 237.154 179.78 236.141C178.631 234.821 177.855 233.438 177.453 231.993C177.057 230.556 177.105 229.112 177.597 227.662C178.095 226.219 179.102 224.838 180.618 223.518C182.158 222.177 183.664 221.321 185.137 220.95C186.624 220.58 188.03 220.64 189.355 221.131C190.687 221.614 191.894 222.476 192.975 223.717ZM190.439 225.967C189.83 225.268 189.1 224.882 188.248 224.809C187.404 224.743 186.472 225.092 185.452 225.856L189.844 230.899C190.371 230.426 190.761 229.914 191.013 229.363C191.272 228.82 191.362 228.257 191.284 227.676C191.213 227.103 190.931 226.533 190.439 225.967ZM194.701 247.492C195.043 247.885 195.414 248.232 195.814 248.532C196.221 248.841 196.644 249.129 197.084 249.395L194.409 251.725C193.901 251.49 193.342 251.134 192.733 250.657C192.122 250.194 191.523 249.624 190.935 248.949C190.251 248.163 189.761 247.347 189.465 246.499C189.184 245.653 189.2 244.776 189.513 243.867C189.842 242.959 190.572 242.013 191.703 241.028L198.054 235.497L196.556 233.777L198.076 232.453L201.002 233.386L204.685 232.001L206.686 234.298L203.882 236.741L207.094 240.429L204.396 242.779L201.184 239.091L194.833 244.622C194.33 245.06 194.076 245.529 194.071 246.031C194.081 246.534 194.291 247.021 194.701 247.492ZM203.834 257.979C204.176 258.372 204.547 258.718 204.947 259.019C205.354 259.328 205.777 259.616 206.217 259.882L203.542 262.211C203.034 261.977 202.475 261.621 201.866 261.143C201.255 260.68 200.656 260.111 200.068 259.436C199.384 258.65 198.894 257.834 198.598 256.986C198.316 256.14 198.333 255.262 198.646 254.354C198.975 253.446 199.705 252.5 200.836 251.515L207.187 245.984L205.689 244.263L207.209 242.94L210.134 243.872L213.818 242.488L215.819 244.785L213.015 247.228L216.227 250.916L213.529 253.266L210.317 249.578L203.966 255.109C203.463 255.546 203.209 256.016 203.204 256.518C203.213 257.021 203.423 257.508 203.834 257.979ZM223.657 258.948C224.718 260.166 225.395 261.42 225.69 262.71C225.993 263.993 225.909 265.261 225.439 266.513C224.969 267.766 224.093 268.949 222.813 270.064L221.069 271.583L213.67 263.088C212.691 264.009 212.157 265.006 212.068 266.078C211.994 267.151 212.399 268.194 213.281 269.207C214.013 270.048 214.77 270.742 215.552 271.291C216.333 271.84 217.219 272.333 218.207 272.77L215.426 275.192C214.537 274.82 213.706 274.342 212.934 273.757C212.169 273.18 211.345 272.385 210.463 271.372C209.313 270.052 208.538 268.67 208.135 267.224C207.74 265.787 207.788 264.343 208.279 262.893C208.777 261.451 209.785 260.069 211.301 258.749C212.84 257.408 214.346 256.552 215.819 256.181C217.307 255.811 218.713 255.872 220.037 256.362C221.37 256.845 222.577 257.707 223.657 258.948ZM221.121 261.199C220.512 260.499 219.782 260.113 218.931 260.04C218.086 259.974 217.154 260.323 216.134 261.087L220.526 266.13C221.053 265.657 221.443 265.145 221.695 264.594C221.954 264.051 222.045 263.488 221.967 262.907C221.895 262.334 221.614 261.764 221.121 261.199ZM229.839 285.246C228.943 286.025 228 286.474 227.01 286.59C226.035 286.707 225.024 286.49 223.977 285.937C222.937 285.378 221.877 284.478 220.796 283.237C219.996 282.318 219.367 281.477 218.91 280.715C218.46 279.96 218.082 279.129 217.776 278.222L220.745 275.636C221.045 276.632 221.445 277.63 221.945 278.632C222.459 279.635 222.986 280.446 223.526 281.067C224.135 281.766 224.672 282.176 225.136 282.296C225.615 282.418 226.023 282.332 226.361 282.038C226.581 281.846 226.723 281.612 226.786 281.336C226.864 281.061 226.839 280.627 226.71 280.035C226.589 279.436 226.336 278.551 225.952 277.38C225.579 276.254 225.337 275.27 225.225 274.428C225.12 273.594 225.194 272.839 225.448 272.162C225.716 271.487 226.223 270.824 226.969 270.174C228.187 269.114 229.513 268.788 230.946 269.197C232.395 269.607 233.81 270.606 235.192 272.192C235.903 273.009 236.498 273.859 236.976 274.741C237.461 275.631 237.865 276.626 238.187 277.726L234.651 278.9C234.366 278.001 234.061 277.183 233.735 276.444C233.417 275.713 232.997 275.05 232.477 274.453C232.019 273.926 231.603 273.591 231.229 273.447C230.855 273.303 230.522 273.358 230.232 273.611C230.02 273.796 229.889 274.027 229.841 274.304C229.799 274.589 229.847 275.017 229.985 275.587C230.137 276.159 230.392 276.967 230.748 278.01C231.091 279.023 231.334 279.952 231.475 280.796C231.624 281.633 231.581 282.416 231.346 283.146C231.119 283.868 230.616 284.568 229.839 285.246Z" fill="#FCFBFC"/>
</svg>
