<svg width="817" height="462" viewBox="0 0 817 462" fill="none" xmlns="http://www.w3.org/2000/svg">
<path d="M41.9813 342.44L753.687 6.52904C757.433 4.76106 761.903 6.36447 763.671 10.1103L804.008 95.5743L78.7372 437.887L38.4 352.424C36.632 348.678 38.2354 344.208 41.9813 342.44Z" fill="#DED7FB" stroke="#5D60EF" stroke-width="5"/>
<path d="M95.0349 454.846L806.741 118.936C810.487 117.168 812.09 112.698 810.322 108.952L804.24 96.064L78.9684 438.377L85.0512 451.265C86.8191 455.011 91.289 456.614 95.0349 454.846Z" fill="#DED7FB" stroke="#5D60EF" stroke-width="5"/>
<line x1="59.3906" y1="334.223" x2="68.6747" y2="353.893" stroke="#5D60EF" stroke-width="5" stroke-linecap="round"/>
<line x1="83.5828" y1="322.805" x2="92.8668" y2="342.475" stroke="#5D60EF" stroke-width="5" stroke-linecap="round"/>
<line x1="107.775" y1="311.387" x2="117.059" y2="331.057" stroke="#5D60EF" stroke-width="5" stroke-linecap="round"/>
<line x1="107.775" y1="311.387" x2="117.059" y2="331.057" stroke="#5D60EF" stroke-width="5" stroke-linecap="round"/>
<line x1="131.967" y1="299.969" x2="141.251" y2="319.639" stroke="#5D60EF" stroke-width="5" stroke-linecap="round"/>
<line x1="156.159" y1="288.551" x2="173.055" y2="324.349" stroke="#5D60EF" stroke-width="5" stroke-linecap="round"/>
<line x1="185.683" y1="288.725" x2="189.522" y2="296.857" stroke="#5D60EF" stroke-width="5" stroke-linecap="round"/>
<line x1="422.271" y1="162.951" x2="431.555" y2="182.621" stroke="#5D60EF" stroke-width="5" stroke-linecap="round"/>
<line x1="446.463" y1="151.533" x2="455.747" y2="171.203" stroke="#5D60EF" stroke-width="5" stroke-linecap="round"/>
<line x1="470.655" y1="140.115" x2="479.939" y2="159.785" stroke="#5D60EF" stroke-width="5" stroke-linecap="round"/>
<line x1="470.655" y1="140.114" x2="479.939" y2="159.785" stroke="#5D60EF" stroke-width="5" stroke-linecap="round"/>
<line x1="494.847" y1="128.696" x2="504.131" y2="148.367" stroke="#5D60EF" stroke-width="5" stroke-linecap="round"/>
<line x1="519.04" y1="117.278" x2="535.936" y2="153.076" stroke="#5D60EF" stroke-width="5" stroke-linecap="round"/>
<line x1="374.328" y1="186.612" x2="383.612" y2="206.282" stroke="#5D60EF" stroke-width="5" stroke-linecap="round"/>
<line x1="398.52" y1="175.194" x2="415.416" y2="210.992" stroke="#5D60EF" stroke-width="5" stroke-linecap="round"/>
<line x1="543.231" y1="105.86" x2="552.516" y2="125.53" stroke="#5D60EF" stroke-width="5" stroke-linecap="round"/>
<line x1="543.231" y1="105.86" x2="552.515" y2="125.53" stroke="#5D60EF" stroke-width="5" stroke-linecap="round"/>
<line x1="567.423" y1="94.4421" x2="576.707" y2="114.112" stroke="#5D60EF" stroke-width="5" stroke-linecap="round"/>
<line x1="591.615" y1="83.0238" x2="600.899" y2="102.694" stroke="#5D60EF" stroke-width="5" stroke-linecap="round"/>
<line x1="615.807" y1="71.6056" x2="625.091" y2="91.276" stroke="#5D60EF" stroke-width="5" stroke-linecap="round"/>
<line x1="398.328" y1="174.612" x2="415.224" y2="210.41" stroke="#5D60EF" stroke-width="5" stroke-linecap="round"/>
<line x1="422.52" y1="163.194" x2="431.804" y2="182.864" stroke="#5D60EF" stroke-width="5" stroke-linecap="round"/>
<line x1="615.807" y1="71.6056" x2="625.091" y2="91.276" stroke="#5D60EF" stroke-width="5" stroke-linecap="round"/>
<line x1="640" y1="60.1877" x2="656.896" y2="95.986" stroke="#5D60EF" stroke-width="5" stroke-linecap="round"/>
<line x1="664.191" y1="48.7694" x2="673.475" y2="68.4398" stroke="#5D60EF" stroke-width="5" stroke-linecap="round"/>
<line x1="688.383" y1="37.3515" x2="697.667" y2="57.0218" stroke="#5D60EF" stroke-width="5" stroke-linecap="round"/>
<line x1="688.384" y1="37.3512" x2="697.668" y2="57.0216" stroke="#5D60EF" stroke-width="5" stroke-linecap="round"/>
<line x1="712.576" y1="25.9333" x2="721.86" y2="45.6036" stroke="#5D60EF" stroke-width="5" stroke-linecap="round"/>
<line x1="736.768" y1="14.5151" x2="746.052" y2="34.1854" stroke="#5D60EF" stroke-width="5" stroke-linecap="round"/>
<path fill-rule="evenodd" clip-rule="evenodd" d="M15 290V189H358V208L363.5 214.5H443.5L451 210.5L453 189H791V290H15ZM42.5 235L43 244L54.5 244.5L55.5 235.5L42.5 235ZM136.5 210.5L95 251C91.5 244.5 89 223 103.5 212.5C115.1 204.1 130.333 207.667 136.5 210.5ZM108.5 265L150 224C153.167 227.333 158.778 239.943 146.5 258C138 270.5 116.833 270.667 108.5 265ZM679.5 266.5V209C672.5 210.5 658.2 217.8 657 235C655.8 252.2 671.5 263.167 679.5 266.5ZM697.5 209L698.5 266.5C705 265.5 718.6 257.8 721 235C719.5 222 702 207 697.5 209ZM752 244.5V234.5H764.5L764 244L752 244.5Z" fill="#DED7FB"/>
<rect x="2.5" y="188.5" width="801.995" height="102.005" rx="7.5" stroke="#5D60EF" stroke-width="5"/>
<line x1="15.6575" y1="187.624" x2="15.6575" y2="290.378" stroke="#5D60EF" stroke-width="5"/>
<line x1="791.952" y1="187.624" x2="791.952" y2="291.631" stroke="#5D60EF" stroke-width="5"/>
<circle cx="757.951" cy="239.503" r="6.41708" stroke="#5D60EF" stroke-width="5"/>
<circle cx="688.844" cy="237.273" r="30.939" stroke="#5D60EF" stroke-width="5"/>
<circle cx="757.951" cy="239.503" r="6.41708" stroke="#5D60EF" stroke-width="5"/>
<circle cx="49.0438" cy="239.503" r="6.41708" stroke="#5D60EF" stroke-width="5"/>
<circle cx="688.844" cy="237.273" r="30.939" stroke="#5D60EF" stroke-width="5"/>
<circle cx="122.61" cy="237.273" r="30.939" stroke="#5D60EF" stroke-width="5"/>
<path d="M359.183 188.5H452.271V207.21C452.271 211.352 448.913 214.71 444.771 214.71H366.683C362.541 214.71 359.183 211.352 359.183 207.21V188.5Z" stroke="#5D60EF" stroke-width="5"/>
<line x1="94.4681" y1="252.962" x2="137.7" y2="209.73" stroke="#5D60EF" stroke-width="5"/>
<line x1="108.47" y1="265.711" x2="151.076" y2="223.106" stroke="#5D60EF" stroke-width="5"/>
<line x1="679.812" y1="269.075" x2="679.812" y2="207.047" stroke="#5D60EF" stroke-width="5"/>
<line x1="697.355" y1="267.822" x2="697.355" y2="207.047" stroke="#5D60EF" stroke-width="5"/>
<line x1="106.24" y1="242.663" x2="118.771" y2="255.194" stroke="#5D60EF"/>
<line x1="128.169" y1="221.986" x2="140.074" y2="233.891" stroke="#5D60EF"/>
<line x1="682.312" y1="221.213" x2="697.349" y2="221.213" stroke="#5D60EF"/>
<line x1="682.312" y1="253.794" x2="697.349" y2="253.794" stroke="#5D60EF"/>
<line x1="377.056" y1="187.88" x2="377.056" y2="214.822" stroke="#5D60EF"/>
<line x1="435.325" y1="187.88" x2="435.325" y2="214.822" stroke="#5D60EF"/>
</svg>
