<svg width="440" height="440" viewBox="0 0 440 440" fill="none" xmlns="http://www.w3.org/2000/svg">
<path d="M341.343 257.53C334.688 278.898 322.524 298.138 306.076 313.315" stroke="#D10006" stroke-opacity="0.3" stroke-width="20"/>
<path d="M306.072 313.319C289.623 328.496 269.469 339.076 247.636 343.995" stroke="#9E0466" stroke-opacity="0.3" stroke-width="20"/>
<path d="M247.666 343.989C225.834 348.913 203.09 348.004 181.72 341.352" stroke="#5F0564" stroke-opacity="0.3" stroke-width="20"/>
<path d="M181.729 341.355C160.358 334.705 141.115 322.547 125.933 306.103" stroke="#040263" stroke-opacity="0.3" stroke-width="20"/>
<path d="M125.967 306.138C110.779 289.7 100.185 269.553 95.2508 247.723" stroke="#08329D" stroke-opacity="0.3" stroke-width="20"/>
<path d="M95.259 247.76C90.3182 225.932 91.2103 203.187 97.8458 181.812" stroke="#006A64" stroke-opacity="0.3" stroke-width="20"/>
<path d="M97.8437 181.814C104.479 160.439 116.623 141.188 133.057 125.994" stroke="#399806" stroke-opacity="0.3" stroke-width="20"/>
<path d="M133.045 126.005C149.477 110.809 169.619 100.207 191.447 95.2627" stroke="#65CC09" stroke-opacity="0.3" stroke-width="20"/>
<path d="M186.15 96.5825C207.746 90.7086 230.508 90.6229 252.148 96.3341" stroke="#F7FF08" stroke-width="20"/>
<path d="M251.949 96.2819C273.598 101.959 293.372 113.234 309.282 128.975" stroke="#FD9B05" stroke-width="20"/>
<path d="M309.28 128.971C325.191 144.711 336.678 164.362 342.587 185.948" stroke="#FE6606" stroke-width="20"/>
<path d="M342.524 185.724C349.03 209.322 348.605 234.293 341.301 257.656" stroke="#FB3505" stroke-opacity="0.3" stroke-width="20"/>
<ellipse cx="219.611" cy="220.113" rx="7.5" ry="8" fill="#2C2C2C"/>
<line x1="219.611" y1="220.118" x2="218.611" y2="125.118" stroke="#2C2C2C"/>
<line x1="219.675" y1="218.869" x2="267.675" y2="132.869" stroke="#2C2C2C"/>
<ellipse cx="218.611" cy="122.113" rx="7.5" ry="8" fill="#F7FF08"/>
<ellipse cx="267.611" cy="133.113" rx="7.5" ry="8" fill="#FD9B05"/>
<line x1="218.862" y1="218.679" x2="305.862" y2="168.679" stroke="#2C2C2C"/>
<ellipse cx="305.611" cy="168.113" rx="7.5" ry="8" fill="#FE6606"/>
<path d="M169.756 397.113L168.514 393.035H162.268L161.025 397.113H157.111L163.158 379.91H167.6L173.67 397.113H169.756ZM167.646 389.988L166.404 386.003C166.326 385.738 166.221 385.398 166.088 384.984C165.963 384.562 165.834 384.136 165.701 383.707C165.576 383.269 165.475 382.89 165.396 382.57C165.318 382.89 165.209 383.289 165.068 383.765C164.936 384.234 164.807 384.679 164.682 385.101C164.557 385.523 164.467 385.824 164.412 386.003L163.182 389.988H167.646ZM182.998 383.765C184.396 383.765 185.521 384.148 186.373 384.914C187.225 385.671 187.65 386.89 187.65 388.57V397.113H184.076V389.46C184.076 388.523 183.904 387.816 183.561 387.339C183.225 386.863 182.693 386.625 181.967 386.625C180.873 386.625 180.127 386.996 179.729 387.738C179.33 388.48 179.131 389.55 179.131 390.949V397.113H175.557V384.011H178.287L178.768 385.687H178.967C179.248 385.234 179.596 384.867 180.01 384.585C180.432 384.304 180.896 384.097 181.404 383.964C181.92 383.832 182.451 383.765 182.998 383.765ZM196.697 383.742C198.455 383.742 199.803 384.125 200.74 384.89C201.678 385.656 202.146 386.82 202.146 388.382V397.113H199.65L198.959 395.332H198.865C198.49 395.8 198.107 396.183 197.717 396.48C197.326 396.777 196.877 396.996 196.369 397.136C195.861 397.277 195.244 397.347 194.518 397.347C193.744 397.347 193.049 397.199 192.432 396.902C191.822 396.605 191.342 396.152 190.99 395.542C190.639 394.925 190.463 394.144 190.463 393.199C190.463 391.808 190.951 390.785 191.928 390.128C192.904 389.464 194.369 389.097 196.322 389.027L198.596 388.957V388.382C198.596 387.695 198.416 387.191 198.057 386.871C197.697 386.55 197.197 386.39 196.557 386.39C195.924 386.39 195.303 386.48 194.693 386.66C194.084 386.839 193.475 387.066 192.865 387.339L191.682 384.925C192.377 384.558 193.154 384.269 194.014 384.058C194.881 383.847 195.775 383.742 196.697 383.742ZM198.596 391.042L197.213 391.089C196.057 391.121 195.252 391.328 194.799 391.71C194.354 392.093 194.131 392.597 194.131 393.222C194.131 393.769 194.291 394.16 194.611 394.394C194.932 394.621 195.35 394.734 195.865 394.734C196.631 394.734 197.275 394.507 197.799 394.054C198.33 393.601 198.596 392.957 198.596 392.121V391.042ZM209.412 397.113H205.838V378.878H209.412V397.113ZM225.08 390.539C225.08 391.632 224.932 392.601 224.635 393.445C224.346 394.289 223.92 395.003 223.357 395.589C222.803 396.167 222.131 396.605 221.342 396.902C220.561 397.199 219.678 397.347 218.693 397.347C217.771 397.347 216.924 397.199 216.15 396.902C215.385 396.605 214.717 396.167 214.146 395.589C213.584 395.003 213.146 394.289 212.834 393.445C212.529 392.601 212.377 391.632 212.377 390.539C212.377 389.085 212.635 387.855 213.15 386.847C213.666 385.839 214.4 385.074 215.354 384.55C216.307 384.027 217.443 383.765 218.764 383.765C219.99 383.765 221.076 384.027 222.021 384.55C222.975 385.074 223.721 385.839 224.26 386.847C224.807 387.855 225.08 389.085 225.08 390.539ZM216.021 390.539C216.021 391.398 216.115 392.121 216.303 392.707C216.49 393.292 216.783 393.734 217.182 394.031C217.58 394.328 218.1 394.476 218.74 394.476C219.373 394.476 219.885 394.328 220.275 394.031C220.674 393.734 220.963 393.292 221.143 392.707C221.33 392.121 221.424 391.398 221.424 390.539C221.424 389.671 221.33 388.953 221.143 388.382C220.963 387.804 220.674 387.371 220.275 387.082C219.877 386.792 219.357 386.648 218.717 386.648C217.771 386.648 217.084 386.972 216.654 387.621C216.232 388.269 216.021 389.242 216.021 390.539ZM231.865 402.878C230.037 402.878 228.639 402.558 227.67 401.917C226.709 401.285 226.229 400.394 226.229 399.246C226.229 398.457 226.475 397.796 226.967 397.265C227.459 396.734 228.182 396.355 229.135 396.128C228.768 395.972 228.447 395.718 228.174 395.367C227.9 395.007 227.764 394.628 227.764 394.23C227.764 393.73 227.908 393.316 228.197 392.988C228.486 392.652 228.904 392.324 229.451 392.003C228.764 391.707 228.217 391.23 227.811 390.574C227.412 389.917 227.213 389.144 227.213 388.253C227.213 387.3 227.42 386.492 227.834 385.828C228.256 385.156 228.865 384.644 229.662 384.292C230.467 383.941 231.443 383.765 232.592 383.765C232.834 383.765 233.115 383.781 233.436 383.812C233.756 383.843 234.049 383.878 234.314 383.917C234.588 383.957 234.771 383.988 234.865 384.011H239.436V385.828L237.385 386.355C237.572 386.644 237.713 386.953 237.807 387.281C237.9 387.609 237.947 387.957 237.947 388.324C237.947 389.73 237.455 390.828 236.471 391.617C235.494 392.398 234.135 392.789 232.393 392.789C231.979 392.765 231.588 392.734 231.221 392.695C231.041 392.835 230.904 392.984 230.811 393.14C230.717 393.296 230.67 393.46 230.67 393.632C230.67 393.804 230.74 393.949 230.881 394.066C231.029 394.175 231.248 394.261 231.537 394.324C231.834 394.378 232.201 394.406 232.639 394.406H234.865C236.303 394.406 237.396 394.714 238.146 395.332C238.904 395.949 239.283 396.855 239.283 398.05C239.283 399.582 238.643 400.769 237.361 401.613C236.088 402.457 234.256 402.878 231.865 402.878ZM232.018 400.546C232.869 400.546 233.6 400.464 234.209 400.3C234.826 400.144 235.299 399.917 235.627 399.621C235.955 399.332 236.119 398.984 236.119 398.578C236.119 398.25 236.021 397.988 235.826 397.792C235.639 397.605 235.35 397.472 234.959 397.394C234.576 397.316 234.084 397.277 233.482 397.277H231.631C231.193 397.277 230.799 397.347 230.447 397.488C230.104 397.628 229.83 397.824 229.627 398.074C229.424 398.332 229.322 398.628 229.322 398.964C229.322 399.457 229.557 399.843 230.025 400.125C230.502 400.406 231.166 400.546 232.018 400.546ZM232.592 390.609C233.264 390.609 233.756 390.402 234.068 389.988C234.381 389.574 234.537 389.011 234.537 388.3C234.537 387.511 234.373 386.921 234.045 386.531C233.725 386.132 233.24 385.933 232.592 385.933C231.936 385.933 231.443 386.132 231.115 386.531C230.787 386.921 230.623 387.511 230.623 388.3C230.623 389.011 230.783 389.574 231.104 389.988C231.432 390.402 231.928 390.609 232.592 390.609ZM253.51 390.539C253.51 391.632 253.361 392.601 253.064 393.445C252.775 394.289 252.35 395.003 251.787 395.589C251.232 396.167 250.561 396.605 249.771 396.902C248.99 397.199 248.107 397.347 247.123 397.347C246.201 397.347 245.354 397.199 244.58 396.902C243.814 396.605 243.146 396.167 242.576 395.589C242.014 395.003 241.576 394.289 241.264 393.445C240.959 392.601 240.807 391.632 240.807 390.539C240.807 389.085 241.064 387.855 241.58 386.847C242.096 385.839 242.83 385.074 243.783 384.55C244.736 384.027 245.873 383.765 247.193 383.765C248.42 383.765 249.506 384.027 250.451 384.55C251.404 385.074 252.15 385.839 252.689 386.847C253.236 387.855 253.51 389.085 253.51 390.539ZM244.451 390.539C244.451 391.398 244.545 392.121 244.732 392.707C244.92 393.292 245.213 393.734 245.611 394.031C246.01 394.328 246.529 394.476 247.17 394.476C247.803 394.476 248.314 394.328 248.705 394.031C249.104 393.734 249.393 393.292 249.572 392.707C249.76 392.121 249.854 391.398 249.854 390.539C249.854 389.671 249.76 388.953 249.572 388.382C249.393 387.804 249.104 387.371 248.705 387.082C248.307 386.792 247.787 386.648 247.146 386.648C246.201 386.648 245.514 386.972 245.084 387.621C244.662 388.269 244.451 389.242 244.451 390.539ZM268.486 384.011V397.113H265.744L265.264 395.437H265.076C264.795 395.882 264.443 396.246 264.021 396.527C263.6 396.808 263.135 397.015 262.627 397.148C262.119 397.281 261.592 397.347 261.045 397.347C260.107 397.347 259.291 397.183 258.596 396.855C257.9 396.519 257.357 396 256.967 395.296C256.584 394.593 256.393 393.679 256.393 392.554V384.011H259.967V391.664C259.967 392.601 260.135 393.308 260.471 393.785C260.807 394.261 261.342 394.5 262.076 394.5C262.803 394.5 263.373 394.335 263.787 394.007C264.201 393.671 264.49 393.183 264.654 392.542C264.826 391.894 264.912 391.105 264.912 390.175V384.011H268.486ZM281.377 393.222C281.377 394.113 281.166 394.867 280.744 395.484C280.33 396.093 279.709 396.558 278.881 396.878C278.053 397.191 277.021 397.347 275.787 397.347C274.873 397.347 274.088 397.289 273.432 397.171C272.783 397.054 272.127 396.859 271.463 396.585V393.632C272.174 393.953 272.936 394.218 273.748 394.429C274.568 394.632 275.287 394.734 275.904 394.734C276.6 394.734 277.096 394.632 277.393 394.429C277.697 394.218 277.85 393.945 277.85 393.609C277.85 393.39 277.787 393.195 277.662 393.023C277.545 392.843 277.287 392.644 276.889 392.425C276.49 392.199 275.865 391.906 275.014 391.546C274.193 391.203 273.518 390.855 272.986 390.503C272.463 390.152 272.072 389.738 271.814 389.261C271.564 388.777 271.439 388.164 271.439 387.421C271.439 386.21 271.908 385.3 272.846 384.691C273.791 384.074 275.053 383.765 276.631 383.765C277.443 383.765 278.217 383.847 278.951 384.011C279.693 384.175 280.455 384.437 281.236 384.796L280.158 387.375C279.51 387.093 278.896 386.863 278.318 386.683C277.748 386.503 277.166 386.414 276.572 386.414C276.049 386.414 275.654 386.484 275.389 386.625C275.123 386.765 274.99 386.98 274.99 387.269C274.99 387.48 275.057 387.667 275.189 387.832C275.33 387.996 275.596 388.179 275.986 388.382C276.385 388.578 276.967 388.832 277.732 389.144C278.475 389.449 279.119 389.769 279.666 390.105C280.213 390.433 280.635 390.843 280.932 391.335C281.229 391.82 281.377 392.449 281.377 393.222Z" fill="black"/>
</svg>
