<svg width="771" height="771" viewBox="0 0 771 771" fill="none" xmlns="http://www.w3.org/2000/svg">
<circle cx="293.306" cy="500.251" r="32" transform="rotate(-7.1336 293.306 500.251)" fill="black"/>
<circle cx="292.609" cy="499.336" r="32" transform="rotate(28.5638 292.609 499.336)" fill="black"/>
<rect x="513.168" y="285.73" width="155" height="350" transform="rotate(60.1505 513.168 285.73)" fill="#DED7FB"/>
<circle cx="293.025" cy="500.838" r="32" transform="rotate(60.1505 293.025 500.838)" fill="black"/>
<rect x="367.467" y="200.79" width="155" height="350" transform="rotate(28.5638 367.467 200.79)" fill="#9A9BE2"/>
<rect x="179.896" y="214.12" width="155" height="350" transform="rotate(-7.1336 179.896 214.12)" fill="#7C7EE9"/>
<rect x="41.8955" y="325.794" width="155" height="350" transform="rotate(-40.6199 41.8955 325.794)" fill="#5D60EF"/>
<circle cx="294.351" cy="501.86" r="32" transform="rotate(-40.6199 294.351 501.86)" fill="#3337FB"/>
<circle cx="295.745" cy="500.745" r="22.5129" transform="rotate(-40.6199 295.745 500.745)" fill="#3337FB"/>
</svg>
