<svg width="158" height="159" viewBox="0 0 158 159" fill="none" xmlns="http://www.w3.org/2000/svg">
<path fill-rule="evenodd" clip-rule="evenodd" d="M68 37.6372V44.9655C68 49.2958 71.5392 52.8766 75.9111 52.8766C83.4476 52.8766 86.5287 58.2062 82.7397 64.7433C80.5746 68.4907 81.8653 73.3623 85.6544 75.5275L92.8577 79.6496C96.147 81.6066 100.394 80.4407 102.351 77.1513L102.809 76.3602C106.598 69.8231 112.76 69.8231 116.508 76.3602L116.966 77.1513C118.923 80.4407 123.17 81.6066 126.459 79.6496L133.663 75.5275C137.452 73.3623 138.742 68.5323 136.577 64.7433C132.788 58.2062 135.869 52.8766 143.406 52.8766C147.778 52.8766 151.317 49.2958 151.317 44.9655V37.6372C151.317 33.2653 147.736 29.7261 143.406 29.7261C135.869 29.7261 132.788 24.3965 136.577 17.8594C138.742 14.112 137.452 9.24037 133.663 7.07522L126.459 2.95309C123.17 0.996122 118.923 2.16198 116.966 5.45135L116.508 6.24246C112.719 12.7796 106.556 12.7796 102.809 6.24246L102.351 5.45135C100.394 2.16198 96.147 0.996122 92.8577 2.95309L85.6544 7.07522C81.8653 9.24037 80.5746 14.112 82.7397 17.8594C86.5287 24.3965 83.4476 29.7261 75.9111 29.7261C71.5392 29.7261 68 33.3069 68 37.6372ZM122.129 41.3018C122.129 48.2005 116.537 53.7931 109.638 53.7931C102.739 53.7931 97.1466 48.2005 97.1466 41.3018C97.1466 34.403 102.739 28.8105 109.638 28.8105C116.537 28.8105 122.129 34.403 122.129 41.3018Z" fill="#DED7FB"/>
<path d="M82.7397 64.7433L81.442 63.9911L81.4409 63.9929L82.7397 64.7433ZM85.6544 75.5275L86.3994 74.2256L86.3986 74.2251L85.6544 75.5275ZM92.8577 79.6496L93.6246 78.3605C93.6173 78.3562 93.61 78.3519 93.6027 78.3477L92.8577 79.6496ZM102.351 77.1513L103.64 77.9183C103.643 77.9132 103.646 77.908 103.649 77.9029L102.351 77.1513ZM102.809 76.3602L101.511 75.608L101.511 75.6087L102.809 76.3602ZM116.508 76.3602L115.206 77.1062L115.21 77.1118L116.508 76.3602ZM116.966 77.1513L115.668 77.9029C115.671 77.908 115.674 77.9132 115.677 77.9183L116.966 77.1513ZM126.459 79.6496L125.714 78.3477C125.707 78.3519 125.7 78.3562 125.692 78.3605L126.459 79.6496ZM133.663 75.5275L132.918 74.2251L132.918 74.2256L133.663 75.5275ZM136.577 64.7433L137.88 63.9991L137.875 63.9911L136.577 64.7433ZM136.577 17.8594L137.875 18.6116L137.876 18.6098L136.577 17.8594ZM133.663 7.07522L132.918 8.37712L132.918 8.37758L133.663 7.07522ZM126.459 2.95309L125.692 4.2422C125.7 4.24653 125.707 4.25079 125.714 4.25499L126.459 2.95309ZM116.966 5.45135L115.677 4.68441C115.674 4.68952 115.671 4.69465 115.668 4.69979L116.966 5.45135ZM116.508 6.24246L117.806 6.99467L117.806 6.99402L116.508 6.24246ZM102.809 6.24246L104.11 5.49646L104.107 5.49091L102.809 6.24246ZM102.351 5.45135L103.649 4.69979C103.646 4.69465 103.643 4.68952 103.64 4.68441L102.351 5.45135ZM92.8577 2.95309L93.6027 4.25499C93.61 4.25079 93.6173 4.24653 93.6246 4.2422L92.8577 2.95309ZM85.6544 7.07522L86.3986 8.37758L86.3994 8.37712L85.6544 7.07522ZM82.7397 17.8594L81.4409 18.6098L81.442 18.6116L82.7397 17.8594ZM69.5 44.9655V37.6372H66.5V44.9655H69.5ZM75.9111 51.3766C72.3728 51.3766 69.5 48.4725 69.5 44.9655H66.5C66.5 50.1191 70.7056 54.3766 75.9111 54.3766V51.3766ZM84.0375 65.4955C86.0921 61.9507 86.4718 58.3855 84.8721 55.6096C83.2726 52.834 79.9989 51.3766 75.9111 51.3766V54.3766C79.3598 54.3766 81.3949 55.584 82.2728 57.1075C83.1506 58.6307 83.1763 60.9988 81.442 63.9911L84.0375 65.4955ZM86.3986 74.2251C83.3348 72.4744 82.2872 68.5249 84.0385 65.4937L81.4409 63.9929C78.862 68.4565 80.3959 74.2502 84.9101 76.8298L86.3986 74.2251ZM93.6027 78.3477L86.3994 74.2256L84.9093 76.8294L92.1126 80.9515L93.6027 78.3477ZM101.062 76.3844C99.5112 78.9909 96.1733 79.8768 93.6246 78.3605L92.0907 80.9387C96.1208 83.3363 101.277 81.8905 103.64 77.9183L101.062 76.3844ZM101.511 75.6087L101.053 76.3998L103.649 77.9029L104.107 77.1118L101.511 75.6087ZM117.809 75.6142C115.775 72.0666 112.88 69.9574 109.674 69.9574C106.47 69.9574 103.566 72.0639 101.511 75.608L104.107 77.1124C105.842 74.1195 107.912 72.9574 109.674 72.9574C111.433 72.9574 113.493 74.1168 115.206 77.1062L117.809 75.6142ZM118.264 76.3998L117.806 75.6087L115.21 77.1118L115.668 77.9029L118.264 76.3998ZM125.692 78.3605C123.144 79.8768 119.806 78.9909 118.255 76.3844L115.677 77.9183C118.04 81.8905 123.196 83.3363 127.226 80.9387L125.692 78.3605ZM132.918 74.2256L125.714 78.3477L127.204 80.9515L134.408 76.8294L132.918 74.2256ZM135.275 65.4875C137.033 68.5651 135.98 72.4754 132.918 74.2251L134.407 76.8298C138.923 74.2492 140.451 68.4996 137.88 63.9991L135.275 65.4875ZM143.406 51.3766C139.318 51.3766 136.044 52.834 134.445 55.6096C132.845 58.3855 133.225 61.9507 135.279 65.4955L137.875 63.9911C136.141 60.9988 136.166 58.6307 137.044 57.1075C137.922 55.584 139.957 54.3766 143.406 54.3766V51.3766ZM149.817 44.9655C149.817 48.4725 146.944 51.3766 143.406 51.3766V54.3766C148.611 54.3766 152.817 50.1191 152.817 44.9655H149.817ZM149.817 37.6372V44.9655H152.817V37.6372H149.817ZM143.406 31.2261C146.913 31.2261 149.817 34.0988 149.817 37.6372H152.817C152.817 32.4317 148.559 28.2261 143.406 28.2261V31.2261ZM135.279 17.1072C133.225 20.652 132.845 24.2172 134.445 26.9931C136.044 29.7687 139.318 31.2261 143.406 31.2261V28.2261C139.957 28.2261 137.922 27.0186 137.044 25.4952C136.166 23.972 136.141 21.6039 137.875 18.6116L135.279 17.1072ZM132.918 8.37758C135.982 10.1283 137.03 14.0777 135.278 17.1089L137.876 18.6098C140.455 14.1462 138.921 8.35244 134.407 5.77285L132.918 8.37758ZM125.714 4.25499L132.918 8.37712L134.408 5.77331L127.204 1.65119L125.714 4.25499ZM118.255 6.21829C119.806 3.61179 123.144 2.7259 125.692 4.2422L127.226 1.66398C123.196 -0.733652 118.04 0.712161 115.677 4.68441L118.255 6.21829ZM117.806 6.99402L118.264 6.20291L115.668 4.69979L115.21 5.49091L117.806 6.99402ZM101.508 6.98846C103.541 10.5361 106.437 12.6453 109.643 12.6453C112.846 12.6453 115.751 10.5388 117.806 6.99467L115.21 5.49026C113.475 8.4832 111.405 9.64529 109.643 9.64529C107.883 9.64529 105.824 8.48594 104.11 5.49647L101.508 6.98846ZM101.053 6.20291L101.511 6.99402L104.107 5.49091L103.649 4.69979L101.053 6.20291ZM93.6246 4.2422C96.1733 2.7259 99.5112 3.61179 101.062 6.21829L103.64 4.68441C101.277 0.71216 96.1208 -0.733652 92.0907 1.66398L93.6246 4.2422ZM86.3994 8.37712L93.6027 4.25499L92.1126 1.65119L84.9093 5.77331L86.3994 8.37712ZM84.0385 17.1089C82.2872 14.0777 83.3348 10.1283 86.3986 8.37758L84.9101 5.77285C80.3959 8.35244 78.862 14.1462 81.4409 18.6098L84.0385 17.1089ZM75.9111 31.2261C79.9989 31.2261 83.2726 29.7687 84.8721 26.9931C86.4718 24.2172 86.0921 20.652 84.0375 17.1072L81.442 18.6116C83.1763 21.6039 83.1506 23.972 82.2728 25.4952C81.3949 27.0186 79.3598 28.2261 75.9111 28.2261V31.2261ZM69.5 37.6372C69.5 34.1302 72.3728 31.2261 75.9111 31.2261V28.2261C70.7056 28.2261 66.5 32.4836 66.5 37.6372H69.5ZM109.638 55.2931C117.365 55.2931 123.629 49.029 123.629 41.3018H120.629C120.629 47.3721 115.708 52.2931 109.638 52.2931V55.2931ZM95.6466 41.3018C95.6466 49.029 101.911 55.2931 109.638 55.2931V52.2931C103.568 52.2931 98.6466 47.3721 98.6466 41.3018H95.6466ZM109.638 27.3105C101.911 27.3105 95.6466 33.5746 95.6466 41.3018H98.6466C98.6466 35.2315 103.568 30.3105 109.638 30.3105V27.3105ZM123.629 41.3018C123.629 33.5746 117.365 27.3105 109.638 27.3105V30.3105C115.708 30.3105 120.629 35.2315 120.629 41.3018H123.629Z" fill="#5D60EF"/>
<path d="M127.18 150.828C127.18 151.505 127.016 152.094 126.688 152.594C126.359 153.094 125.88 153.479 125.25 153.75C124.625 154.021 123.865 154.156 122.969 154.156C122.573 154.156 122.185 154.13 121.805 154.078C121.43 154.026 121.068 153.951 120.719 153.852C120.375 153.747 120.047 153.62 119.734 153.469V151.219C120.276 151.458 120.839 151.674 121.422 151.867C122.005 152.06 122.583 152.156 123.156 152.156C123.552 152.156 123.87 152.104 124.109 152C124.354 151.896 124.531 151.753 124.641 151.57C124.75 151.388 124.805 151.18 124.805 150.945C124.805 150.659 124.708 150.414 124.516 150.211C124.323 150.008 124.057 149.818 123.719 149.641C123.385 149.464 123.008 149.273 122.586 149.07C122.32 148.945 122.031 148.794 121.719 148.617C121.406 148.435 121.109 148.214 120.828 147.953C120.547 147.693 120.315 147.378 120.133 147.008C119.956 146.633 119.867 146.185 119.867 145.664C119.867 144.982 120.023 144.398 120.336 143.914C120.648 143.43 121.094 143.06 121.672 142.805C122.255 142.544 122.943 142.414 123.734 142.414C124.328 142.414 124.893 142.484 125.43 142.625C125.971 142.76 126.536 142.958 127.125 143.219L126.344 145.102C125.818 144.888 125.346 144.724 124.93 144.609C124.513 144.49 124.089 144.43 123.656 144.43C123.354 144.43 123.096 144.479 122.883 144.578C122.669 144.672 122.508 144.807 122.398 144.984C122.289 145.156 122.234 145.357 122.234 145.586C122.234 145.857 122.312 146.086 122.469 146.273C122.63 146.456 122.87 146.633 123.188 146.805C123.51 146.977 123.911 147.177 124.391 147.406C124.974 147.682 125.471 147.971 125.883 148.273C126.299 148.57 126.62 148.922 126.844 149.328C127.068 149.729 127.18 150.229 127.18 150.828Z" fill="#5D60EF"/>
<path d="M148.18 150.828C148.18 151.505 148.016 152.094 147.688 152.594C147.359 153.094 146.88 153.479 146.25 153.75C145.625 154.021 144.865 154.156 143.969 154.156C143.573 154.156 143.185 154.13 142.805 154.078C142.43 154.026 142.068 153.951 141.719 153.852C141.375 153.747 141.047 153.62 140.734 153.469V151.219C141.276 151.458 141.839 151.674 142.422 151.867C143.005 152.06 143.583 152.156 144.156 152.156C144.552 152.156 144.87 152.104 145.109 152C145.354 151.896 145.531 151.753 145.641 151.57C145.75 151.388 145.805 151.18 145.805 150.945C145.805 150.659 145.708 150.414 145.516 150.211C145.323 150.008 145.057 149.818 144.719 149.641C144.385 149.464 144.008 149.273 143.586 149.07C143.32 148.945 143.031 148.794 142.719 148.617C142.406 148.435 142.109 148.214 141.828 147.953C141.547 147.693 141.315 147.378 141.133 147.008C140.956 146.633 140.867 146.185 140.867 145.664C140.867 144.982 141.023 144.398 141.336 143.914C141.648 143.43 142.094 143.06 142.672 142.805C143.255 142.544 143.943 142.414 144.734 142.414C145.328 142.414 145.893 142.484 146.43 142.625C146.971 142.76 147.536 142.958 148.125 143.219L147.344 145.102C146.818 144.888 146.346 144.724 145.93 144.609C145.513 144.49 145.089 144.43 144.656 144.43C144.354 144.43 144.096 144.479 143.883 144.578C143.669 144.672 143.508 144.807 143.398 144.984C143.289 145.156 143.234 145.357 143.234 145.586C143.234 145.857 143.312 146.086 143.469 146.273C143.63 146.456 143.87 146.633 144.188 146.805C144.51 146.977 144.911 147.177 145.391 147.406C145.974 147.682 146.471 147.971 146.883 148.273C147.299 148.57 147.62 148.922 147.844 149.328C148.068 149.729 148.18 150.229 148.18 150.828Z" fill="#5D60EF"/>
<path d="M157.18 150.828C157.18 151.505 157.016 152.094 156.688 152.594C156.359 153.094 155.88 153.479 155.25 153.75C154.625 154.021 153.865 154.156 152.969 154.156C152.573 154.156 152.185 154.13 151.805 154.078C151.43 154.026 151.068 153.951 150.719 153.852C150.375 153.747 150.047 153.62 149.734 153.469V151.219C150.276 151.458 150.839 151.674 151.422 151.867C152.005 152.06 152.583 152.156 153.156 152.156C153.552 152.156 153.87 152.104 154.109 152C154.354 151.896 154.531 151.753 154.641 151.57C154.75 151.388 154.805 151.18 154.805 150.945C154.805 150.659 154.708 150.414 154.516 150.211C154.323 150.008 154.057 149.818 153.719 149.641C153.385 149.464 153.008 149.273 152.586 149.07C152.32 148.945 152.031 148.794 151.719 148.617C151.406 148.435 151.109 148.214 150.828 147.953C150.547 147.693 150.315 147.378 150.133 147.008C149.956 146.633 149.867 146.185 149.867 145.664C149.867 144.982 150.023 144.398 150.336 143.914C150.648 143.43 151.094 143.06 151.672 142.805C152.255 142.544 152.943 142.414 153.734 142.414C154.328 142.414 154.893 142.484 155.43 142.625C155.971 142.76 156.536 142.958 157.125 143.219L156.344 145.102C155.818 144.888 155.346 144.724 154.93 144.609C154.513 144.49 154.089 144.43 153.656 144.43C153.354 144.43 153.096 144.479 152.883 144.578C152.669 144.672 152.508 144.807 152.398 144.984C152.289 145.156 152.234 145.357 152.234 145.586C152.234 145.857 152.312 146.086 152.469 146.273C152.63 146.456 152.87 146.633 153.188 146.805C153.51 146.977 153.911 147.177 154.391 147.406C154.974 147.682 155.471 147.971 155.883 148.273C156.299 148.57 156.62 148.922 156.844 149.328C157.068 149.729 157.18 150.229 157.18 150.828Z" fill="#5D60EF"/>
<path d="M136.43 154L135.602 151.281H131.438L130.609 154H128L132.031 142.531H134.992L139.039 154H136.43ZM135.023 149.25L134.195 146.594C134.143 146.417 134.073 146.19 133.984 145.914C133.901 145.633 133.815 145.349 133.727 145.062C133.643 144.771 133.576 144.518 133.523 144.305C133.471 144.518 133.398 144.784 133.305 145.102C133.216 145.414 133.13 145.711 133.047 145.992C132.964 146.273 132.904 146.474 132.867 146.594L132.047 149.25H135.023Z" fill="#5D60EF"/>
<path fill-rule="evenodd" clip-rule="evenodd" d="M2 87.0395V98.5632C2 105.373 7.56539 111.003 14.4403 111.003C26.2913 111.003 31.1364 119.384 25.1782 129.664C21.7735 135.557 23.8032 143.217 29.7615 146.622L41.0887 153.104C46.2612 156.181 52.9397 154.348 56.017 149.175L56.7372 147.931C62.6955 137.652 72.3858 137.652 78.2785 147.931L78.9988 149.175C82.0761 154.348 88.7546 156.181 93.9271 153.104L105.254 146.622C111.213 143.217 113.242 135.622 109.838 129.664C103.879 119.384 108.724 111.003 120.576 111.003C127.45 111.003 133.016 105.373 133.016 98.5632V87.0395C133.016 80.1646 127.385 74.5993 120.576 74.5993C108.724 74.5993 103.879 66.2184 109.838 55.9388C113.242 50.0461 111.213 42.3855 105.254 38.9808L93.9271 32.4987C88.7546 29.4214 82.0761 31.2547 78.9988 36.4272L78.2785 37.6713C72.3203 47.9509 62.63 47.9509 56.7372 37.6713L56.017 36.4272C52.9397 31.2547 46.2612 29.4214 41.0887 32.4987L29.7615 38.9808C23.8032 42.3855 21.7735 50.0461 25.1782 55.9388C31.1364 66.2184 26.2913 74.5993 14.4403 74.5993C7.56539 74.5993 2 80.2301 2 87.0395ZM87.1181 92.8021C87.1181 103.65 78.3238 112.445 67.4756 112.445C56.6273 112.445 47.833 103.65 47.833 92.8021C47.833 81.9538 56.6273 73.1595 67.4756 73.1595C78.3238 73.1595 87.1181 81.9538 87.1181 92.8021Z" fill="#DED7FB"/>
<path d="M25.1782 129.664L23.8804 128.912L23.8794 128.913L25.1782 129.664ZM29.7615 146.622L30.5065 145.32L30.5057 145.32L29.7615 146.622ZM41.0887 153.104L41.8556 151.815C41.8483 151.811 41.841 151.806 41.8337 151.802L41.0887 153.104ZM56.017 149.175L57.3061 149.942C57.3092 149.937 57.3122 149.932 57.3151 149.927L56.017 149.175ZM56.7372 147.931L55.4395 147.179L55.4391 147.18L56.7372 147.931ZM78.2785 147.931L76.9772 148.677L76.9804 148.683L78.2785 147.931ZM78.9988 149.175L77.7006 149.927C77.7036 149.932 77.7066 149.937 77.7097 149.942L78.9988 149.175ZM93.9271 153.104L93.1821 151.802C93.1748 151.806 93.1674 151.811 93.1602 151.815L93.9271 153.104ZM105.254 146.622L104.51 145.32L104.509 145.32L105.254 146.622ZM109.838 129.664L111.14 128.92L111.135 128.912L109.838 129.664ZM109.838 55.9388L111.135 56.691L111.136 56.6893L109.838 55.9388ZM105.254 38.9808L104.509 40.2827L104.51 40.2831L105.254 38.9808ZM93.9271 32.4987L93.1602 33.7878C93.1674 33.7922 93.1748 33.7964 93.1821 33.8006L93.9271 32.4987ZM78.9988 36.4272L77.7097 35.6603C77.7066 35.6654 77.7036 35.6705 77.7006 35.6757L78.9988 36.4272ZM78.2785 37.6713L79.5763 38.4235L79.5767 38.4228L78.2785 37.6713ZM56.7372 37.6713L58.0386 36.9253L58.0354 36.9197L56.7372 37.6713ZM56.017 36.4272L57.3151 35.6757C57.3122 35.6705 57.3092 35.6654 57.3061 35.6603L56.017 36.4272ZM41.0887 32.4987L41.8337 33.8006C41.841 33.7964 41.8483 33.7922 41.8556 33.7878L41.0887 32.4987ZM29.7615 38.9808L30.5057 40.2831L30.5065 40.2827L29.7615 38.9808ZM25.1782 55.9388L23.8794 56.6893L23.8804 56.691L25.1782 55.9388ZM3.5 98.5632V87.0395H0.5V98.5632H3.5ZM14.4403 109.503C8.39894 109.503 3.5 104.549 3.5 98.5632H0.5C0.5 106.196 6.73183 112.503 14.4403 112.503V109.503ZM26.476 130.416C29.6152 125 30.0962 119.736 27.7874 115.73C25.4787 111.724 20.6854 109.503 14.4403 109.503V112.503C20.0462 112.503 23.601 114.474 25.1881 117.228C26.775 119.982 26.6994 124.048 23.8804 128.912L26.476 130.416ZM30.5057 145.32C25.2727 142.329 23.4861 135.591 26.477 130.414L23.8794 128.913C20.0609 135.522 22.3338 144.105 29.0173 147.924L30.5057 145.32ZM41.8337 151.802L30.5065 145.32L29.0164 147.924L40.3436 154.406L41.8337 151.802ZM54.7279 148.409C52.0568 152.898 46.2874 154.452 41.8556 151.815L40.3217 154.393C46.235 157.911 53.8225 155.798 57.3061 149.942L54.7279 148.409ZM55.4391 147.18L54.7189 148.424L57.3151 149.927L58.0354 148.683L55.4391 147.18ZM79.5799 147.185C76.4735 141.767 72.1596 138.722 67.5324 138.722C62.9076 138.722 58.5783 141.764 55.4395 147.179L58.035 148.684C60.8544 143.819 64.3494 141.722 67.5324 141.722C70.7131 141.722 74.1908 143.817 76.9772 148.677L79.5799 147.185ZM80.2969 148.424L79.5767 147.18L76.9804 148.683L77.7006 149.927L80.2969 148.424ZM93.1602 151.815C88.7283 154.452 82.959 152.898 80.2879 148.409L77.7097 149.942C81.1933 155.798 88.7808 157.911 94.6941 154.393L93.1602 151.815ZM104.509 145.32L93.1821 151.802L94.6721 154.406L105.999 147.924L104.509 145.32ZM108.535 130.408C111.533 135.655 109.741 142.33 104.51 145.32L105.999 147.924C112.684 144.104 114.951 135.589 111.14 128.92L108.535 130.408ZM120.576 109.503C114.33 109.503 109.537 111.724 107.228 115.73C104.92 119.736 105.401 125 108.54 130.416L111.135 128.912C108.316 124.048 108.241 119.982 109.828 117.228C111.415 114.474 114.97 112.503 120.576 112.503V109.503ZM131.516 98.5632C131.516 104.549 126.617 109.503 120.576 109.503V112.503C128.284 112.503 134.516 106.196 134.516 98.5632H131.516ZM131.516 87.0395V98.5632H134.516V87.0395H131.516ZM120.576 76.0993C126.562 76.0993 131.516 80.9982 131.516 87.0395H134.516C134.516 79.3311 128.208 73.0993 120.576 73.0993V76.0993ZM108.54 55.1866C105.401 60.6027 104.92 65.8664 107.228 69.8728C109.537 73.8791 114.33 76.0993 120.576 76.0993V73.0993C114.97 73.0993 111.415 71.129 109.828 68.3749C108.241 65.6211 108.316 61.5546 111.135 56.691L108.54 55.1866ZM104.51 40.2831C109.743 43.2734 111.53 50.0118 108.539 55.1884L111.136 56.6893C114.955 50.0803 112.682 41.4975 105.999 37.6784L104.51 40.2831ZM93.1821 33.8006L104.509 40.2827L105.999 37.6789L94.6721 31.1968L93.1821 33.8006ZM80.2879 37.1942C82.959 32.7045 88.7283 31.1512 93.1602 33.7878L94.6941 31.2096C88.7808 27.6916 81.1933 29.8049 77.7097 35.6603L80.2879 37.1942ZM79.5767 38.4228L80.2969 37.1788L77.7006 35.6757L76.9804 36.9197L79.5767 38.4228ZM55.4359 38.4173C58.5422 43.8361 62.8561 46.881 67.4833 46.881C72.1082 46.881 76.4374 43.8389 79.5763 38.4235L76.9808 36.9191C74.1614 41.7832 70.6664 43.881 67.4833 43.881C64.3026 43.881 60.825 41.786 58.0386 36.9253L55.4359 38.4173ZM54.7189 37.1788L55.4391 38.4228L58.0354 36.9197L57.3151 35.6757L54.7189 37.1788ZM41.8556 33.7878C46.2874 31.1512 52.0568 32.7045 54.7279 37.1942L57.3061 35.6603C53.8225 29.8049 46.235 27.6916 40.3217 31.2096L41.8556 33.7878ZM30.5065 40.2827L41.8337 33.8006L40.3436 31.1968L29.0164 37.6789L30.5065 40.2827ZM26.477 55.1884C23.4861 50.0118 25.2727 43.2734 30.5057 40.2831L29.0173 37.6784C22.3338 41.4975 20.0609 50.0803 23.8794 56.6893L26.477 55.1884ZM14.4403 76.0993C20.6854 76.0993 25.4787 73.8791 27.7874 69.8728C30.0962 65.8664 29.6152 60.6027 26.476 55.1866L23.8804 56.691C26.6994 61.5546 26.775 65.6211 25.1881 68.3749C23.601 71.129 20.0462 73.0993 14.4403 73.0993V76.0993ZM3.5 87.0395C3.5 81.0534 8.39894 76.0993 14.4403 76.0993V73.0993C6.73183 73.0993 0.5 79.4068 0.5 87.0395H3.5ZM67.4756 113.945C79.1523 113.945 88.6181 104.479 88.6181 92.8021H85.6181C85.6181 102.822 77.4954 110.945 67.4756 110.945V113.945ZM46.333 92.8021C46.333 104.479 55.7988 113.945 67.4756 113.945V110.945C57.4557 110.945 49.333 102.822 49.333 92.8021H46.333ZM67.4756 71.6595C55.7988 71.6595 46.333 81.1254 46.333 92.8021H49.333C49.333 82.7822 57.4557 74.6595 67.4756 74.6595V71.6595ZM88.6181 92.8021C88.6181 81.1254 79.1523 71.6595 67.4756 71.6595V74.6595C77.4954 74.6595 85.6181 82.7822 85.6181 92.8021H88.6181Z" fill="#5D60EF"/>
</svg>
