<svg width="85" height="84" viewBox="0 0 85 84" fill="none" xmlns="http://www.w3.org/2000/svg">
<path d="M9.13601 37.4297L2.50077 39.558L2 44.6909L9.13601 47.5703L11.2643 55.3323L6.38176 60.0896L8.63524 64.5966L15.6461 63.5951L21.4049 69.2287L19.7774 75.4884L24.5348 78.2427L30.4189 73.9861L37.5549 75.864L40.1839 82.374H45.5672L47.6955 75.864L55.8331 73.9861L61.0912 78.2427L65.0974 75.864L63.5951 68.728L69.8547 62.9691L76.49 64.5966L79.119 60.0896L74.7372 54.4559L76.49 46.9444L83 44.6909V39.558L76.49 37.4297L74.7372 28.9165L79.119 23.7836L76.49 19.6522L68.8532 21.0294L63.5951 14.6445L65.0974 8.25966L60.0896 6.00618L54.4559 10.2628L47.6955 8.25966L45.5672 2H40.1839L38.0556 8.25966L29.9181 10.2628L24.5348 6.00618L20.153 9.01082L21.4049 15.6461L15.6461 21.0294L9.63679 19.6522L6.38176 24.5348L11.2643 29.5425L9.13601 37.4297Z" stroke="#5D60EF" stroke-width="3"/>
<circle cx="42.5626" cy="42.0616" r="25.7921" stroke="#5D60EF" stroke-width="3"/>
<path d="M21.2793 58.211V45.1909H29.0413M60.2144 61.7164V45.1909H46.8187" stroke="#5D60EF" stroke-width="3"/>
<path d="M29.1668 45.1917L26.7881 55.3324L38.0555 53.8301M29.1668 45.1917L38.0555 53.8301M29.1668 45.1917L45.969 28.2906M38.0555 53.8301L54.9566 37.3198M54.9566 37.3198L59.7139 32.6724L50.4496 23.7837L45.969 28.2906M54.9566 37.3198L50.4628 32.8052M45.969 28.2906L50.4628 32.8052M50.4628 32.8052L38.0555 45.1917" stroke="#5D60EF" stroke-width="3"/>
</svg>
