<svg width="1440" height="477" viewBox="0 0 1440 477" fill="none" xmlns="http://www.w3.org/2000/svg">
<path fill-rule="evenodd" clip-rule="evenodd" d="M372.782 144.369H380.846V141.996H376.103V139.147H343.846V136.299H341V133.451H360.923V94.0484H358.551V91.2001H373.256L543.077 3.63651C545.438 1.13584 550.018 -1.48359 552.564 1.00232C555.414 3.78473 552.891 7.60473 549.244 10.363L550.667 98.7956V109.714H552.09V116.835L559.68 126.33H563V134.4H536.91V126.33H539.282L547.346 116.835V109.714H549.244L547.826 11.3471C547.511 11.5476 547.192 11.7393 546.872 11.921L415.949 109.714L389.385 123.007V125.855H392.705V133.451H401.718V136.299H399.821V139.147H397.449V141.521H395.551V144.369H399.821V154.139H407.116L408.222 182.92H444.73V191.776H459.112V182.92H470.175V191.776H483.45V182.92H500.045V238.269H533.234V206.167H546.509V238.269H574.166V208.381H583.017V238.269H597.399V337.896H670.414V316.863H681.477V337.896H724.622V296.938H747.855V337.896H791V362.249H747.855V403.206H754.492V477H0V455.234H16.5944V355.607H25.4448V455.234H37.614V345.644H28.7636L25.4448 308.007L37.614 281.44H49.7832V233.841H44.2517V218.343H50.8895V207.274L142.712 140.856L143.818 215.022H160.413V132H169.263V215.022H216.834V222.771H226.79V218.343H235.641V222.771H298.699V138.642H308.656V222.771H317.506L318.613 132H327.463L328.569 222.771H372.782V144.369ZM1440 477V297H1432V314.455H1413.82V304.273H1408V314.455H1403.64V225H1413.82V219.182H1403.64V216.273H1413.82V209H1403.64V190.818H1382.55V181.364H1372.36V190.818H1340.36V182.818H1345.45V174.818H1341.09V158.091H1333.09V150.818H1337.45V145H1321.45V150.818H1327.27V158.091H1296V167.545H1275.64V171.909H1278.55V174.818H1269.82V182.091H1279.27V191.545H1267.64V180.636H1264.73V163.909H1258.18V191.545H1240V185H1223.27V190.818H1204.36V207.545H1157.09V216.273H1193.45V225H1203.64V246.818H1159.27V239.545H1149.09V246.818H1133.09V251.909H1144.73V259.909H1149.09V307.182H1135.27V291.909H1125.09V307.182H1109.09V297.727H1094.55V307.182H1088.73V292.636H1090.91V287.545H1088V260.636H1082.91V287.545H1078.55V281.727H1069.09V287.545H1064V292.636H1069.82V297.727H1045.09V327.545H1038.55V317.673H1032.73V326.818H1026.18V344.273H1033.45V379.909H1038.55V344.273H1045.09V395.182H1035.64V387.909L1029.09 380.636H1005.82V395.182H970.909V352.273H970.656V272.964H963.718V270.86H967.799V268.335H995.551V265.81H998V263.286H980.859V228.361H982.9V225.836H970.248L824.141 148.223C822.109 146.007 818.169 143.685 815.979 145.888C813.527 148.355 815.698 151.741 818.835 154.185L817.611 232.569V242.247H816.387V248.558L809.857 256.974H807V264.127H829.447V256.974H827.406L820.468 248.558V242.247H818.835L820.055 155.058C820.326 155.235 820.6 155.405 820.876 155.566L933.517 242.247L956.372 254.029V256.553H953.515V263.286H945.761V265.81H947.393V268.335H949.434V270.439H951.066V272.964H947.393V371.909H937.455V420.636H918.545V406.091H909.818V420.636H892.364V446.091H888V456.273H890.182H910.545V477H918.545V456.273H937.455V477H1440ZM372.782 258.811L345.164 273.692H373.927V264H372.782V258.811ZM367.564 133.451V125.855H370.885V112.521L365.192 102.119H364.244V133.451H367.564ZM368.038 102.119H370.885V107.815L368.038 102.119ZM376.103 102.119H373.256V112.563L378 122.057H378.474L384.12 116.407L376.103 100.695V102.119ZM379.897 123.956V122.057L384.661 117.467L387.487 123.007L383.692 125.38L383.218 125.855H378.949V123.956H379.897ZM385.809 116.361L388.956 122.21L391.86 120.633L402.192 115.025L395.884 106.651L387.962 114.286L391.86 120.633L390.808 121.108L386.794 115.411L385.809 116.361ZM376.577 91.2001V94.0484H374.679V95.9473H376.103V98.3209L385.234 115.292L405.038 95.4726L541.654 5.74957L376.577 91.2001ZM397.139 105.442L405.513 97.3715L405.987 97.0589L414.251 108.48L403.554 114.286L397.139 105.442ZM407.235 96.2364L415.474 107.815L423.809 101.644L416.128 90.3759L407.235 96.2364ZM425.091 100.695L417.372 89.5559L425.682 84.0792L433.171 94.7113L425.091 100.695ZM426.703 83.4059L434.313 93.8653L441.28 88.7067L433.787 78.7373L426.703 83.4059ZM442.4 87.877L435.203 77.8042L443.123 72.5848L449.741 82.4414L442.4 87.877ZM444.194 71.879L451.051 81.4708L459.115 75.4994C456.902 72.5044 452.446 66.5143 452.334 66.5143L444.194 71.879ZM460.4 74.5482L453.423 65.7965L460.865 60.8918L467.298 69.4405L460.4 74.5482ZM462.112 60.0703L468.685 68.4132L475.244 63.5565L469.272 55.3513L462.112 60.0703ZM476.533 62.6015L470.5 54.542L477.615 49.8527L483.308 57.585L476.533 62.6015ZM478.847 49.0407L484.433 56.7517L492.321 50.911L486.462 44.0221L478.847 49.0407ZM493.837 49.7879L487.953 43.0396L495.288 38.2055L500.859 44.5883L493.837 49.7879ZM496.59 37.3477L502.16 43.6249L509.249 38.3758L504.578 32.0833L496.59 37.3477ZM510.654 37.3352L505.77 31.2977L512.523 26.8468L516.7 32.858L510.654 37.3352ZM513.83 25.9854L518.179 31.7627L524.696 26.9373L520.433 21.6341L513.83 25.9854ZM525.742 26.1627L521.485 20.9407L528.456 16.3463L532.217 21.3679L525.742 26.1627ZM529.795 15.4641L533.647 20.309L539.311 16.115L535.368 11.791L529.795 15.4641ZM541.654 7.64847L544.974 11.921L540.588 15.1694L536.565 11.0026L541.654 7.64847ZM548.295 116.835L541.18 126.33H557.782L551.141 116.835H548.295ZM144.924 275.905V232.734H159.306V263.729L144.924 275.905ZM170.369 231.627V254.873L198.027 231.627H170.369ZM216.834 272.585V252.659H226.79V272.585H216.834ZM236.747 272.585H298.699V253.766L236.747 253.267V272.585ZM318.613 272.585H307.55V254.873H318.613V272.585ZM327.463 253.766V268.157L354.014 253.766H327.463ZM345.164 304.141H373.927V320.184L345.164 304.687V304.141ZM327.463 323.505V308.007L357.333 323.505H327.463ZM307.55 305.794V322.398H318.613V305.794H307.55ZM236.747 321.291V305.794H297.593V321.291H236.747ZM216.834 305.794H226.79V321.291H216.834V305.794ZM226.79 354.5H216.834V369.997H226.79V354.5ZM236.747 354.5V369.997H297.593V353.393H236.747V354.5ZM459.112 212.808H444.73V290.296H459.112V212.808ZM444.73 303.58H458.006V336.789H444.73V303.58ZM471.281 336.789V304.687H484.557V336.789H471.281ZM471.281 213.915V289.189H484.557V213.915H471.281ZM500.045 298.045V278.119H533.234V298.045H500.045ZM500.045 267.05H533.234V249.338H500.045V267.05ZM574.166 267.05H546.509V249.338H574.166V267.05ZM546.509 278.119V298.045H575.273V278.119H546.509ZM698.071 403.206V361.142H725.729V403.206H698.071ZM1078.55 307.909V293.364H1084.36V307.909H1078.55ZM1158.55 259.909V307.182H1164.36V268.636H1170.18V294.091H1173.09V274.455H1178.91V280.273H1180.36V282.455H1183.27V294.091H1186.91V307.182H1190.55V265.727H1196.36L1197.09 307.182H1204.36V258.455H1196.36V251.909H1161.45V258.455H1158.55V259.909ZM1210.91 207.545V198.818H1224V207.545H1210.91ZM1301.09 162.455V167.545H1327.27V162.455H1301.09ZM1333.09 167.545V162.455H1337.45V167.545H1333.09ZM1346.18 201.727V209H1373.82V201.727H1346.18ZM1346.18 220.636V214.818H1373.09V220.636H1346.18ZM1346.18 224.273V227.909H1373.09V224.273H1346.18ZM1382.55 227.909V224.273H1397.09V227.909H1382.55ZM1381.82 216.273V220.636H1397.09V215.545H1381.82V216.273ZM1381.82 209V201.727H1397.09V209H1381.82ZM975.145 256.553V263.286H978.002V235.514H977.186L972.288 244.735V256.553H975.145ZM972.288 235.514H974.737L972.288 240.564V235.514ZM967.799 235.514V234.252L960.901 248.179L965.759 253.187H966.167L970.248 244.771V235.514H967.799ZM964.534 254.87H965.35V256.553H961.677L961.269 256.133L958.004 254.029L960.436 249.118L964.534 253.187V254.87ZM956.741 253.322L959.448 248.138L958.601 247.296L955.147 252.345L954.242 251.925L957.596 246.299L950.78 239.531L945.353 246.954L954.242 251.925L956.741 253.322ZM967.391 228.361V225.836L825.365 150.096L942.904 229.623L959.943 247.191L967.799 232.148V230.044H969.023V228.361H967.391ZM942.496 231.307L949.701 238.46L944.181 246.299L934.978 241.152L942.088 231.029L942.496 231.307ZM933.925 240.564L941.014 230.3L933.363 225.106L926.755 235.094L933.925 240.564ZM932.293 224.379L925.652 234.252L918.7 228.949L925.143 219.525L932.293 224.379ZM917.717 228.199L924.264 218.928L918.169 214.79L911.723 223.626L917.717 228.199ZM916.951 213.963L910.759 222.891L904.444 218.073L910.138 209.336L916.951 213.963ZM903.316 217.213L909.216 208.711L902.213 203.956C902.116 203.956 898.283 209.265 896.378 211.92L903.316 217.213ZM901.276 203.32L895.273 211.077L889.339 206.55L894.873 198.972L901.276 203.32ZM888.145 205.639L893.8 198.244L887.64 194.061L882.502 201.334L888.145 205.639ZM886.583 193.344L881.393 200.488L875.564 196.041L880.462 189.188L886.583 193.344ZM874.596 195.303L879.402 188.468L872.85 184.02L867.81 190.126L874.596 195.303ZM871.567 183.149L866.505 189.13L860.464 184.521L865.257 178.864L871.567 183.149ZM859.344 183.667L864.137 178.104L857.264 173.437L853.246 179.015L859.344 183.667ZM856.239 172.741L852.036 178.093L846.835 174.124L850.428 168.796L856.239 172.741ZM845.562 173.153L849.304 168.033L843.623 164.176L839.956 168.876L845.562 173.153ZM842.718 163.561L839.056 168.19L833.485 163.94L836.72 159.489L842.718 163.561ZM832.254 163.001L835.568 158.707L830.773 155.451L827.381 159.284L832.254 163.001ZM822.509 155.566L825.365 151.779L829.744 154.752L826.283 158.446L822.509 155.566ZM825.773 256.974L819.652 248.558H817.203L811.489 256.974H825.773Z" fill="#DED7FB"/>
</svg>
