<svg width="1429" height="864" viewBox="0 0 1429 864" fill="none" xmlns="http://www.w3.org/2000/svg">
<rect x="1081.89" y="606.683" width="31.8488" height="140.625" transform="rotate(-27.2587 1081.89 606.683)" fill="#DED7FB"/>
<path fill-rule="evenodd" clip-rule="evenodd" d="M1061.89 578.554C1056.02 589.082 1055.36 602.258 1061.3 613.776C1061.84 614.834 1062.43 615.855 1063.06 616.838C1075.91 616.379 1088.51 622.624 1095.75 633.943C1101.06 633.753 1106.42 632.419 1111.45 629.824C1116.67 627.136 1120.98 623.386 1124.27 618.975C1119.45 606.748 1121.56 593.198 1129.06 583.109C1128.61 581.947 1128.09 580.798 1127.5 579.665C1119.84 564.794 1103.55 557.266 1087.9 560.043L1101.08 576.034C1106.68 582.821 1105.71 592.857 1098.92 598.451C1092.13 604.044 1082.1 603.077 1076.51 596.29L1061.89 578.554Z" fill="#DED7FB"/>
<rect x="1197.52" y="762.446" width="31.8488" height="140.625" transform="rotate(152.741 1197.52 762.446)" fill="#DED7FB"/>
<path fill-rule="evenodd" clip-rule="evenodd" d="M1217.52 790.574C1223.39 780.046 1224.05 766.871 1218.11 755.353C1217.57 754.295 1216.98 753.274 1216.35 752.291C1203.5 752.75 1190.9 746.505 1183.65 735.186C1178.34 735.376 1172.99 736.711 1167.95 739.306C1162.74 741.994 1158.42 745.744 1155.14 750.155C1159.96 762.382 1157.85 775.932 1150.34 786.021C1150.8 787.182 1151.32 788.331 1151.9 789.465C1159.57 804.336 1175.85 811.864 1191.51 809.086L1178.33 793.095C1172.73 786.308 1173.7 776.272 1180.49 770.678C1187.27 765.085 1197.31 766.052 1202.9 772.839L1217.52 790.574Z" fill="#DED7FB"/>
<ellipse cx="297.745" cy="649.653" rx="20.8247" ry="69.5396" transform="rotate(23.0326 297.745 649.653)" fill="#DED7FB"/>
<ellipse cx="272.189" cy="710.714" rx="11.528" ry="23.4278" transform="rotate(23.0326 272.189 710.714)" fill="#DED7FB"/>
<path d="M242.899 730.184L254.193 734.985L322.576 574.14L335.58 579.669L267.197 740.514L279.86 745.898L286.309 763.994L261.574 822.173L234.729 859.654L252.334 818.244L272.003 764.378L269.044 754.23L261.172 750.883L236.934 811.697L211.8 849.905L223.93 806.168L249.537 745.937L241.666 742.59L230.251 746.627L190.24 840.739L198.605 795.402L223.339 737.223L242.899 730.184Z" fill="#DED7FB"/>
<path fill-rule="evenodd" clip-rule="evenodd" d="M335.189 562.531C331.598 561.004 327.449 562.678 325.922 566.269L320.102 579.958C318.576 583.549 320.249 587.698 323.84 589.225C327.431 590.751 331.58 589.078 333.107 585.487L338.927 571.798C340.453 568.207 338.78 564.058 335.189 562.531ZM330.533 573.482C332.612 574.366 335.014 573.397 335.898 571.318C336.781 569.239 335.813 566.837 333.734 565.953C331.654 565.07 329.253 566.038 328.369 568.118C327.485 570.197 328.454 572.599 330.533 573.482Z" fill="#DED7FB"/>
<path d="M1122.66 136.109L1123.74 138.18L1130.79 138.462L1133.38 137.117L1135.4 141L1138.25 139.521L1140.26 143.404L1142.59 142.193L1143.27 143.488L1148.44 140.798L1149.12 142.092L1150.93 141.15L1151.6 142.445L1156 140.158L1156.81 141.711L1187.36 125.838L1182.65 116.776L1184.98 115.565L1190.77 126.698L1192.35 127.848L1214.1 116.548L1215.18 118.619L1230.71 110.548L1231.52 112.102L1240.58 107.393L1241.52 109.206L1232.98 113.645L1234.05 115.716L1236.56 117.374L1242.61 129.025L1241.59 130.215L1242.8 132.545L1250.71 129.421L1254.61 128.707L1262.23 131.982C1263.4 134.008 1265.75 138.113 1265.86 138.32C1265.96 138.527 1266.68 138.22 1267.03 138.041L1269.05 142.577L1288.78 160.932L1296.59 175.949L1296.95 182.337L1291.35 191.82L1276.34 200.275L1272.83 209.334L1275.52 214.512L1271.2 238.461L1275.9 247.523L1278.01 248.404L1282.58 257.206L1284.68 258.087L1286.16 260.935L1290.76 262.821L1291.96 264.499L1303.89 267.837L1334.18 252.098L1334.02 250.534L1348 243.27L1347.85 241.707L1359.5 235.653L1358.83 234.358L1367.63 229.785L1366.96 228.49L1373.43 225.127L1372.76 223.832L1376.9 221.68L1378.77 215.779L1379.07 210.032L1364.41 181.811L1354.31 178.836L1352.43 175.211L1352.94 166.068L1338.27 162.512L1337.46 160.958L1331.76 163.918L1325.17 151.231L1326.47 150.559L1323.51 144.863L1324.8 144.19L1315.8 127.496L1314.76 128.034L1312.75 124.15L1311.45 124.823L1310.11 122.234L1306.65 118.111L1303.21 115.294L1300.43 112.466L1297.53 110.684L1296.18 108.095L1293.4 105.267L1288.29 95.4288L1292.67 83.6157L1298.5 80.9151L1297.83 79.6205L1303.01 76.9301L1302.07 75.1177L1311.13 70.4094L1311.49 68.5768L1324.18 61.9851L1325.58 59.6144L1330.75 56.9239L1332 52.9896L1329.44 48.0703L1330.59 46.4865L1329.52 44.4152L1329.88 42.5826L1326.65 36.3688L1327.14 34.1427L1325.52 31.0358L1323.29 29.8961L1320.46 24.459L1319.17 25.1316L1317.82 22.5425L1315.85 21.9206L1315.05 20.3671C1315.05 20.3671 1312.39 20.3942 1311.51 19.2477C1311.23 18.8874 1311.22 18.5928 1310.97 18.212C1309.55 16.054 1307.36 15.486 1304.8 15.8285C1302.99 16.0702 1300.66 17.9808 1300.66 17.9808C1300.66 17.9808 1299.32 17.5333 1298.43 17.4934C1295.81 17.376 1295.07 20.2553 1292.47 20.5875C1291.31 20.7362 1290.64 20.3702 1289.47 20.5036C1286.53 20.8406 1282.74 24.0012 1282.74 24.0012L1282.07 22.7067L1275.08 26.3388L1262.05 27.8463L1255.3 38.2607L1248.82 41.6238L1248.29 40.5882L1243.37 43.1441L1242.56 41.5907L1237.12 44.4157L1237.93 45.9691L1231.71 49.1977L1232.52 50.7511L1221.91 56.2666L1213.3 56.7918L1205.34 64.8761L1205.87 65.9117L1190.08 74.1176L1191.02 75.93L1170.05 86.8264L1177.45 101.066L1175.12 102.277L1169.6 91.6618L1139.05 107.536L1139.86 109.089L1135.46 111.376L1136.13 112.67L1134.32 113.612L1134.99 114.907L1129.81 117.597L1130.49 118.892L1128.16 120.102L1130.31 124.245L1127.46 125.725L1129.48 129.608L1126.63 131.088L1122.66 136.109Z" fill="#DED7FB"/>
<rect x="1248.16" y="40.9814" width="78.7781" height="58.9377" rx="28" transform="rotate(-27.4554 1248.16 40.9814)" fill="#DED7FB"/>
<rect x="1265.49" y="236.409" width="113.509" height="58.9377" rx="28" transform="rotate(-40.1883 1265.49 236.409)" fill="#DED7FB"/>
<ellipse cx="1313.24" cy="141.382" rx="12.5461" ry="43.1688" transform="rotate(-34.6861 1313.24 141.382)" fill="#DED7FB"/>
<rect x="90.3955" y="102.529" width="19.3263" height="186.105" transform="rotate(21.3411 90.3955 102.529)" fill="#DED7FB"/>
<rect x="129.041" y="15.4199" width="10.0211" height="95.2" transform="rotate(21.3411 129.041 15.4199)" fill="#DED7FB"/>
<path d="M101.554 81.6159C106.479 79.6133 112.109 81.8131 114.371 86.6236L116.929 92.0635C120.776 100.242 112.659 108.923 104.241 105.633L96.1141 102.458C87.6957 99.169 87.6137 87.2857 95.9859 83.8807L101.554 81.6159Z" fill="#DED7FB"/>
<ellipse cx="119.772" cy="52.9125" rx="15.7474" ry="40.4421" transform="rotate(21.3411 119.772 52.9125)" fill="#DED7FB"/>
<path fill-rule="evenodd" clip-rule="evenodd" d="M32.4864 351.842L39.5198 356L46.6818 353.288L48.402 345.816L61.0907 326.461L68.9408 320.76L73.6936 311.685L77.5109 306.147L106.98 352.741L121.379 355.929L238.259 641.813L215.181 650.55L32.4864 351.842ZM65.9658 391.006L55.7594 374.862L83.8252 336.042L95.3221 350.788L65.9658 391.006Z" fill="#DED7FB"/>
<path d="M1210.44 654.666L1182.12 615.532C1205.84 586.224 1254.07 519.308 1257.24 486.103C1260.41 452.899 1286.48 405.191 1299.12 385.488C1279.9 388.175 1247.48 364.374 1247.48 364.374C1247.48 364.374 1267.46 317.375 1274.43 308.465L1299.25 328.448L1364.29 368.76L1343.98 410.883L1334.79 406.454L1322.24 432.494C1310.43 430.891 1285.59 487.973 1282.89 498.469C1268.77 553.397 1233.29 626.196 1210.44 654.666Z" fill="#DED7FB"/>
</svg>
