<svg width="516" height="256" viewBox="0 0 516 256" fill="none" xmlns="http://www.w3.org/2000/svg">
<rect width="220" height="115" fill="black"/>
<path d="M54.2852 55.1973L53.1426 61.1738H58.1172V63.4062H52.7031L51.209 71H48.8359L50.3301 63.4062H44.9688L43.5273 71H41.1895L42.5781 63.4062H37.9727V61.1738H43.0176L44.1953 55.1973H39.3086V53H44.5996L46.0586 45.3008H48.4668L47.0078 53H52.4043L53.8633 45.3008H56.1836L54.7246 53H59.3828V55.1973H54.2852ZM45.3906 61.1738H50.752L51.9121 55.1973H46.5508L45.3906 61.1738ZM79.0879 58.1152C79.0879 60.2012 78.9297 62.0645 78.6133 63.7051C78.2969 65.3457 77.7988 66.7344 77.1191 67.8711C76.4395 69.0078 75.5605 69.875 74.4824 70.4727C73.4043 71.0586 72.1094 71.3516 70.5977 71.3516C68.6875 71.3516 67.1055 70.8301 65.8516 69.7871C64.6094 68.7441 63.6777 67.2383 63.0566 65.2695C62.4473 63.2891 62.1426 60.9043 62.1426 58.1152C62.1426 55.373 62.418 53.0176 62.9688 51.0488C63.5312 49.0684 64.4336 47.5508 65.6758 46.4961C66.918 45.4297 68.5586 44.8965 70.5977 44.8965C72.5312 44.8965 74.125 45.4238 75.3789 46.4785C76.6328 47.5215 77.5645 49.0332 78.1738 51.0137C78.7832 52.9824 79.0879 55.3496 79.0879 58.1152ZM65.0781 58.1152C65.0781 60.5059 65.2598 62.498 65.623 64.0918C65.9863 65.6855 66.5723 66.8809 67.3809 67.6777C68.2012 68.4629 69.2734 68.8555 70.5977 68.8555C71.9219 68.8555 72.9883 68.4629 73.7969 67.6777C74.6172 66.8926 75.209 65.7031 75.5723 64.1094C75.9473 62.5156 76.1348 60.5176 76.1348 58.1152C76.1348 55.7598 75.9531 53.791 75.5898 52.209C75.2266 50.6152 74.6406 49.4199 73.832 48.623C73.0234 47.8145 71.9453 47.4102 70.5977 47.4102C69.25 47.4102 68.1719 47.8145 67.3633 48.623C66.5547 49.4199 65.9688 50.6152 65.6055 52.209C65.2539 53.791 65.0781 55.7598 65.0781 58.1152ZM99.6895 58.1152C99.6895 60.2012 99.5312 62.0645 99.2148 63.7051C98.8984 65.3457 98.4004 66.7344 97.7207 67.8711C97.041 69.0078 96.1621 69.875 95.084 70.4727C94.0059 71.0586 92.7109 71.3516 91.1992 71.3516C89.2891 71.3516 87.707 70.8301 86.4531 69.7871C85.2109 68.7441 84.2793 67.2383 83.6582 65.2695C83.0488 63.2891 82.7441 60.9043 82.7441 58.1152C82.7441 55.373 83.0195 53.0176 83.5703 51.0488C84.1328 49.0684 85.0352 47.5508 86.2773 46.4961C87.5195 45.4297 89.1602 44.8965 91.1992 44.8965C93.1328 44.8965 94.7266 45.4238 95.9805 46.4785C97.2344 47.5215 98.166 49.0332 98.7754 51.0137C99.3848 52.9824 99.6895 55.3496 99.6895 58.1152ZM85.6797 58.1152C85.6797 60.5059 85.8613 62.498 86.2246 64.0918C86.5879 65.6855 87.1738 66.8809 87.9824 67.6777C88.8027 68.4629 89.875 68.8555 91.1992 68.8555C92.5234 68.8555 93.5898 68.4629 94.3984 67.6777C95.2188 66.8926 95.8105 65.7031 96.1738 64.1094C96.5488 62.5156 96.7363 60.5176 96.7363 58.1152C96.7363 55.7598 96.5547 53.791 96.1914 52.209C95.8281 50.6152 95.2422 49.4199 94.4336 48.623C93.625 47.8145 92.5469 47.4102 91.1992 47.4102C89.8516 47.4102 88.7734 47.8145 87.9648 48.623C87.1562 49.4199 86.5703 50.6152 86.207 52.209C85.8555 53.791 85.6797 55.7598 85.6797 58.1152ZM120.291 58.1152C120.291 60.2012 120.133 62.0645 119.816 63.7051C119.5 65.3457 119.002 66.7344 118.322 67.8711C117.643 69.0078 116.764 69.875 115.686 70.4727C114.607 71.0586 113.312 71.3516 111.801 71.3516C109.891 71.3516 108.309 70.8301 107.055 69.7871C105.812 68.7441 104.881 67.2383 104.26 65.2695C103.65 63.2891 103.346 60.9043 103.346 58.1152C103.346 55.373 103.621 53.0176 104.172 51.0488C104.734 49.0684 105.637 47.5508 106.879 46.4961C108.121 45.4297 109.762 44.8965 111.801 44.8965C113.734 44.8965 115.328 45.4238 116.582 46.4785C117.836 47.5215 118.768 49.0332 119.377 51.0137C119.986 52.9824 120.291 55.3496 120.291 58.1152ZM106.281 58.1152C106.281 60.5059 106.463 62.498 106.826 64.0918C107.189 65.6855 107.775 66.8809 108.584 67.6777C109.404 68.4629 110.477 68.8555 111.801 68.8555C113.125 68.8555 114.191 68.4629 115 67.6777C115.82 66.8926 116.412 65.7031 116.775 64.1094C117.15 62.5156 117.338 60.5176 117.338 58.1152C117.338 55.7598 117.156 53.791 116.793 52.209C116.43 50.6152 115.844 49.4199 115.035 48.623C114.227 47.8145 113.148 47.4102 111.801 47.4102C110.453 47.4102 109.375 47.8145 108.566 48.623C107.758 49.4199 107.172 50.6152 106.809 52.209C106.457 53.791 106.281 55.7598 106.281 58.1152ZM140.893 58.1152C140.893 60.2012 140.734 62.0645 140.418 63.7051C140.102 65.3457 139.604 66.7344 138.924 67.8711C138.244 69.0078 137.365 69.875 136.287 70.4727C135.209 71.0586 133.914 71.3516 132.402 71.3516C130.492 71.3516 128.91 70.8301 127.656 69.7871C126.414 68.7441 125.482 67.2383 124.861 65.2695C124.252 63.2891 123.947 60.9043 123.947 58.1152C123.947 55.373 124.223 53.0176 124.773 51.0488C125.336 49.0684 126.238 47.5508 127.48 46.4961C128.723 45.4297 130.363 44.8965 132.402 44.8965C134.336 44.8965 135.93 45.4238 137.184 46.4785C138.438 47.5215 139.369 49.0332 139.979 51.0137C140.588 52.9824 140.893 55.3496 140.893 58.1152ZM126.883 58.1152C126.883 60.5059 127.064 62.498 127.428 64.0918C127.791 65.6855 128.377 66.8809 129.186 67.6777C130.006 68.4629 131.078 68.8555 132.402 68.8555C133.727 68.8555 134.793 68.4629 135.602 67.6777C136.422 66.8926 137.014 65.7031 137.377 64.1094C137.752 62.5156 137.939 60.5176 137.939 58.1152C137.939 55.7598 137.758 53.791 137.395 52.209C137.031 50.6152 136.445 49.4199 135.637 48.623C134.828 47.8145 133.75 47.4102 132.402 47.4102C131.055 47.4102 129.977 47.8145 129.168 48.623C128.359 49.4199 127.773 50.6152 127.41 52.209C127.059 53.791 126.883 55.7598 126.883 58.1152ZM161.494 58.1152C161.494 60.2012 161.336 62.0645 161.02 63.7051C160.703 65.3457 160.205 66.7344 159.525 67.8711C158.846 69.0078 157.967 69.875 156.889 70.4727C155.811 71.0586 154.516 71.3516 153.004 71.3516C151.094 71.3516 149.512 70.8301 148.258 69.7871C147.016 68.7441 146.084 67.2383 145.463 65.2695C144.854 63.2891 144.549 60.9043 144.549 58.1152C144.549 55.373 144.824 53.0176 145.375 51.0488C145.938 49.0684 146.84 47.5508 148.082 46.4961C149.324 45.4297 150.965 44.8965 153.004 44.8965C154.938 44.8965 156.531 45.4238 157.785 46.4785C159.039 47.5215 159.971 49.0332 160.58 51.0137C161.189 52.9824 161.494 55.3496 161.494 58.1152ZM147.484 58.1152C147.484 60.5059 147.666 62.498 148.029 64.0918C148.393 65.6855 148.979 66.8809 149.787 67.6777C150.607 68.4629 151.68 68.8555 153.004 68.8555C154.328 68.8555 155.395 68.4629 156.203 67.6777C157.023 66.8926 157.615 65.7031 157.979 64.1094C158.354 62.5156 158.541 60.5176 158.541 58.1152C158.541 55.7598 158.359 53.791 157.996 52.209C157.633 50.6152 157.047 49.4199 156.238 48.623C155.43 47.8145 154.352 47.4102 153.004 47.4102C151.656 47.4102 150.578 47.8145 149.77 48.623C148.961 49.4199 148.375 50.6152 148.012 52.209C147.66 53.791 147.484 55.7598 147.484 58.1152ZM182.096 58.1152C182.096 60.2012 181.938 62.0645 181.621 63.7051C181.305 65.3457 180.807 66.7344 180.127 67.8711C179.447 69.0078 178.568 69.875 177.49 70.4727C176.412 71.0586 175.117 71.3516 173.605 71.3516C171.695 71.3516 170.113 70.8301 168.859 69.7871C167.617 68.7441 166.686 67.2383 166.064 65.2695C165.455 63.2891 165.15 60.9043 165.15 58.1152C165.15 55.373 165.426 53.0176 165.977 51.0488C166.539 49.0684 167.441 47.5508 168.684 46.4961C169.926 45.4297 171.566 44.8965 173.605 44.8965C175.539 44.8965 177.133 45.4238 178.387 46.4785C179.641 47.5215 180.572 49.0332 181.182 51.0137C181.791 52.9824 182.096 55.3496 182.096 58.1152ZM168.086 58.1152C168.086 60.5059 168.268 62.498 168.631 64.0918C168.994 65.6855 169.58 66.8809 170.389 67.6777C171.209 68.4629 172.281 68.8555 173.605 68.8555C174.93 68.8555 175.996 68.4629 176.805 67.6777C177.625 66.8926 178.217 65.7031 178.58 64.1094C178.955 62.5156 179.143 60.5176 179.143 58.1152C179.143 55.7598 178.961 53.791 178.598 52.209C178.234 50.6152 177.648 49.4199 176.84 48.623C176.031 47.8145 174.953 47.4102 173.605 47.4102C172.258 47.4102 171.18 47.8145 170.371 48.623C169.562 49.4199 168.977 50.6152 168.613 52.209C168.262 53.791 168.086 55.7598 168.086 58.1152Z" fill="white"/>
<rect y="141" width="220" height="115" fill="white"/>
<path d="M60.2969 196.197L59.1543 202.174H64.1289V204.406H58.7148L57.2207 212H54.8477L56.3418 204.406H50.9805L49.5391 212H47.2012L48.5898 204.406H43.9844V202.174H49.0293L50.207 196.197H45.3203V194H50.6113L52.0703 186.301H54.4785L53.0195 194H58.416L59.875 186.301H62.1953L60.7363 194H65.3945V196.197H60.2969ZM51.4023 202.174H56.7637L57.9238 196.197H52.5625L51.4023 202.174ZM72.8477 212H69.8594V186.301H84.168V188.938H72.8477V198.359H83.4824V200.979H72.8477V212ZM91.4453 212H88.457V186.301H102.766V188.938H91.4453V198.359H102.08V200.979H91.4453V212ZM110.043 212H107.055V186.301H121.363V188.938H110.043V198.359H120.678V200.979H110.043V212ZM128.641 212H125.652V186.301H139.961V188.938H128.641V198.359H139.275V200.979H128.641V212ZM147.238 212H144.25V186.301H158.559V188.938H147.238V198.359H157.873V200.979H147.238V212ZM165.836 212H162.848V186.301H177.156V188.938H165.836V198.359H176.471V200.979H165.836V212Z" fill="black"/>
<path d="M296 0H516V115H296V0Z" fill="#232228"/>
<path d="M350.285 55.1973L349.143 61.1738H354.117V63.4062H348.703L347.209 71H344.836L346.33 63.4062H340.969L339.527 71H337.189L338.578 63.4062H333.973V61.1738H339.018L340.195 55.1973H335.309V53H340.6L342.059 45.3008H344.467L343.008 53H348.404L349.863 45.3008H352.184L350.725 53H355.383V55.1973H350.285ZM341.391 61.1738H346.752L347.912 55.1973H342.551L341.391 61.1738ZM374.947 71H358.107V68.5566L364.98 61.5781C366.258 60.2891 367.33 59.1406 368.197 58.1328C369.076 57.125 369.744 56.1348 370.201 55.1621C370.658 54.1777 370.887 53.0996 370.887 51.9277C370.887 50.4746 370.453 49.3672 369.586 48.6055C368.73 47.832 367.6 47.4453 366.193 47.4453C364.963 47.4453 363.873 47.6562 362.924 48.0781C361.975 48.5 361.002 49.0977 360.006 49.8711L358.441 47.9023C359.121 47.3281 359.859 46.8184 360.656 46.373C361.465 45.9277 362.326 45.5762 363.24 45.3184C364.166 45.0605 365.15 44.9316 366.193 44.9316C367.775 44.9316 369.141 45.207 370.289 45.7578C371.438 46.3086 372.322 47.0938 372.943 48.1133C373.576 49.1328 373.893 50.3457 373.893 51.752C373.893 53.1113 373.623 54.377 373.084 55.5488C372.545 56.709 371.789 57.8633 370.816 59.0117C369.844 60.1484 368.707 61.3555 367.406 62.6328L361.816 68.2051V68.3281H374.947V71ZM394.6 51.2949C394.6 52.4434 394.377 53.4395 393.932 54.2832C393.486 55.127 392.865 55.8184 392.068 56.3574C391.271 56.8848 390.334 57.2539 389.256 57.4648V57.6055C391.295 57.8633 392.824 58.5195 393.844 59.5742C394.875 60.6289 395.391 62.0117 395.391 63.7227C395.391 65.2109 395.039 66.5293 394.336 67.6777C393.645 68.8262 392.578 69.7285 391.137 70.3848C389.707 71.0293 387.873 71.3516 385.635 71.3516C384.275 71.3516 383.016 71.2402 381.855 71.0176C380.707 70.8066 379.605 70.4492 378.551 69.9453V67.2031C379.617 67.7305 380.777 68.1465 382.031 68.4512C383.285 68.7441 384.498 68.8906 385.67 68.8906C388.014 68.8906 389.707 68.4277 390.75 67.502C391.793 66.5645 392.314 65.2871 392.314 63.6699C392.314 62.5566 392.021 61.6602 391.436 60.9805C390.861 60.2891 390.029 59.7852 388.939 59.4688C387.861 59.1406 386.561 58.9766 385.037 58.9766H382.471V56.4805H385.055C386.449 56.4805 387.633 56.2754 388.605 55.8652C389.578 55.4551 390.316 54.8809 390.82 54.1426C391.336 53.3926 391.594 52.5078 391.594 51.4883C391.594 50.1875 391.16 49.1855 390.293 48.4824C389.426 47.7676 388.248 47.4102 386.76 47.4102C385.846 47.4102 385.014 47.5039 384.264 47.6914C383.514 47.8789 382.811 48.1367 382.154 48.4648C381.498 48.793 380.842 49.1738 380.186 49.6074L378.709 47.6035C379.646 46.877 380.789 46.25 382.137 45.7227C383.484 45.1953 385.014 44.9316 386.725 44.9316C389.35 44.9316 391.318 45.5293 392.631 46.7246C393.943 47.9199 394.6 49.4434 394.6 51.2949ZM416.15 71H399.311V68.5566L406.184 61.5781C407.461 60.2891 408.533 59.1406 409.4 58.1328C410.279 57.125 410.947 56.1348 411.404 55.1621C411.861 54.1777 412.09 53.0996 412.09 51.9277C412.09 50.4746 411.656 49.3672 410.789 48.6055C409.934 47.832 408.803 47.4453 407.396 47.4453C406.166 47.4453 405.076 47.6562 404.127 48.0781C403.178 48.5 402.205 49.0977 401.209 49.8711L399.645 47.9023C400.324 47.3281 401.062 46.8184 401.859 46.373C402.668 45.9277 403.529 45.5762 404.443 45.3184C405.369 45.0605 406.354 44.9316 407.396 44.9316C408.979 44.9316 410.344 45.207 411.492 45.7578C412.641 46.3086 413.525 47.0938 414.146 48.1133C414.779 49.1328 415.096 50.3457 415.096 51.752C415.096 53.1113 414.826 54.377 414.287 55.5488C413.748 56.709 412.992 57.8633 412.02 59.0117C411.047 60.1484 409.91 61.3555 408.609 62.6328L403.02 68.2051V68.3281H416.15V71ZM436.752 71H419.912V68.5566L426.785 61.5781C428.062 60.2891 429.135 59.1406 430.002 58.1328C430.881 57.125 431.549 56.1348 432.006 55.1621C432.463 54.1777 432.691 53.0996 432.691 51.9277C432.691 50.4746 432.258 49.3672 431.391 48.6055C430.535 47.832 429.404 47.4453 427.998 47.4453C426.768 47.4453 425.678 47.6562 424.729 48.0781C423.779 48.5 422.807 49.0977 421.811 49.8711L420.246 47.9023C420.926 47.3281 421.664 46.8184 422.461 46.373C423.27 45.9277 424.131 45.5762 425.045 45.3184C425.971 45.0605 426.955 44.9316 427.998 44.9316C429.58 44.9316 430.945 45.207 432.094 45.7578C433.242 46.3086 434.127 47.0938 434.748 48.1133C435.381 49.1328 435.697 50.3457 435.697 51.752C435.697 53.1113 435.428 54.377 434.889 55.5488C434.35 56.709 433.594 57.8633 432.621 59.0117C431.648 60.1484 430.512 61.3555 429.211 62.6328L423.621 68.2051V68.3281H436.752V71ZM457.354 71H440.514V68.5566L447.387 61.5781C448.664 60.2891 449.736 59.1406 450.604 58.1328C451.482 57.125 452.15 56.1348 452.607 55.1621C453.064 54.1777 453.293 53.0996 453.293 51.9277C453.293 50.4746 452.859 49.3672 451.992 48.6055C451.137 47.832 450.006 47.4453 448.6 47.4453C447.369 47.4453 446.279 47.6562 445.33 48.0781C444.381 48.5 443.408 49.0977 442.412 49.8711L440.848 47.9023C441.527 47.3281 442.266 46.8184 443.062 46.373C443.871 45.9277 444.732 45.5762 445.646 45.3184C446.572 45.0605 447.557 44.9316 448.6 44.9316C450.182 44.9316 451.547 45.207 452.695 45.7578C453.844 46.3086 454.729 47.0938 455.35 48.1133C455.982 49.1328 456.299 50.3457 456.299 51.752C456.299 53.1113 456.029 54.377 455.49 55.5488C454.951 56.709 454.195 57.8633 453.223 59.0117C452.25 60.1484 451.113 61.3555 449.812 62.6328L444.223 68.2051V68.3281H457.354V71ZM469.605 44.9316C471.094 44.9316 472.412 45.166 473.561 45.6348C474.709 46.1035 475.605 46.7949 476.25 47.709C476.906 48.6113 477.234 49.7246 477.234 51.0488C477.234 52.0918 477.006 53.0059 476.549 53.791C476.104 54.5645 475.5 55.2441 474.738 55.8301C473.977 56.4043 473.133 56.9199 472.207 57.377C473.309 57.8809 474.299 58.4492 475.178 59.082C476.068 59.7148 476.771 60.459 477.287 61.3145C477.803 62.1699 478.061 63.1836 478.061 64.3555C478.061 65.7969 477.709 67.0449 477.006 68.0996C476.314 69.1426 475.342 69.9453 474.088 70.5078C472.834 71.0703 471.363 71.3516 469.676 71.3516C467.859 71.3516 466.312 71.082 465.035 70.543C463.77 69.9922 462.803 69.207 462.135 68.1875C461.479 67.1562 461.15 65.9199 461.15 64.4785C461.15 63.2949 461.402 62.2695 461.906 61.4023C462.41 60.5234 463.078 59.7676 463.91 59.1348C464.742 58.502 465.65 57.9688 466.635 57.5352C465.779 57.0664 464.994 56.5332 464.279 55.9355C463.576 55.3379 463.014 54.6406 462.592 53.8438C462.182 53.0352 461.977 52.0977 461.977 51.0312C461.977 49.7305 462.305 48.6289 462.961 47.7266C463.629 46.8125 464.537 46.1211 465.686 45.6523C466.846 45.1719 468.152 44.9316 469.605 44.9316ZM464.016 64.4961C464.016 65.8086 464.479 66.8926 465.404 67.748C466.33 68.5918 467.73 69.0137 469.605 69.0137C471.387 69.0137 472.764 68.5918 473.736 67.748C474.709 66.8926 475.195 65.7734 475.195 64.3906C475.195 63.5352 474.973 62.7852 474.527 62.1406C474.082 61.4844 473.449 60.8984 472.629 60.3828C471.809 59.8672 470.842 59.3984 469.729 58.9766L469.096 58.748C468.018 59.1934 467.098 59.6914 466.336 60.2422C465.586 60.7812 465.012 61.3965 464.613 62.0879C464.215 62.7793 464.016 63.582 464.016 64.4961ZM469.57 47.3223C468.188 47.3223 467.057 47.6562 466.178 48.3242C465.299 48.9805 464.859 49.9297 464.859 51.1719C464.859 52.0625 465.07 52.8184 465.492 53.4395C465.926 54.0488 466.512 54.5762 467.25 55.0215C467.988 55.4551 468.814 55.8594 469.729 56.2344C470.619 55.8594 471.41 55.4492 472.102 55.0039C472.793 54.5469 473.338 54.0078 473.736 53.3867C474.135 52.7656 474.334 52.0215 474.334 51.1543C474.334 49.9121 473.895 48.9629 473.016 48.3066C472.148 47.6504 471 47.3223 469.57 47.3223Z" fill="white"/>
<rect x="296" y="141" width="220" height="115" fill="#FCFBFC"/>
<path d="M349.381 196.197L348.238 202.174H353.213V204.406H347.799L346.305 212H343.932L345.426 204.406H340.064L338.623 212H336.285L337.674 204.406H333.068V202.174H338.113L339.291 196.197H334.404V194H339.695L341.154 186.301H343.562L342.104 194H347.5L348.959 186.301H351.279L349.82 194H354.479V196.197H349.381ZM340.486 202.174H345.848L347.008 196.197H341.646L340.486 202.174ZM361.932 212H358.943V186.301H373.252V188.938H361.932V198.359H372.566V200.979H361.932V212ZM388.527 188.568C387.109 188.568 385.832 188.814 384.695 189.307C383.57 189.787 382.609 190.49 381.812 191.416C381.027 192.33 380.424 193.438 380.002 194.738C379.58 196.039 379.369 197.504 379.369 199.133C379.369 201.289 379.703 203.164 380.371 204.758C381.051 206.34 382.059 207.564 383.395 208.432C384.742 209.299 386.424 209.732 388.439 209.732C389.588 209.732 390.666 209.639 391.674 209.451C392.693 209.252 393.684 209.006 394.645 208.713V211.314C393.707 211.666 392.723 211.924 391.691 212.088C390.66 212.264 389.436 212.352 388.018 212.352C385.404 212.352 383.219 211.812 381.461 210.734C379.715 209.645 378.402 208.109 377.523 206.129C376.656 204.148 376.223 201.811 376.223 199.115C376.223 197.17 376.492 195.395 377.031 193.789C377.582 192.172 378.379 190.777 379.422 189.605C380.477 188.434 381.766 187.531 383.289 186.898C384.824 186.254 386.582 185.932 388.562 185.932C389.863 185.932 391.117 186.061 392.324 186.318C393.531 186.576 394.621 186.945 395.594 187.426L394.398 189.957C393.578 189.582 392.676 189.26 391.691 188.99C390.719 188.709 389.664 188.568 388.527 188.568ZM403.205 212H400.217V186.301H414.525V188.938H403.205V198.359H413.84V200.979H403.205V212ZM418.814 186.301H426.092C429.303 186.301 431.717 186.781 433.334 187.742C434.951 188.703 435.76 190.338 435.76 192.646C435.76 193.643 435.566 194.539 435.18 195.336C434.805 196.121 434.254 196.771 433.527 197.287C432.801 197.803 431.904 198.16 430.838 198.359V198.535C431.963 198.711 432.959 199.033 433.826 199.502C434.693 199.971 435.373 200.627 435.865 201.471C436.357 202.314 436.604 203.387 436.604 204.688C436.604 206.27 436.234 207.605 435.496 208.695C434.77 209.785 433.738 210.611 432.402 211.174C431.066 211.725 429.484 212 427.656 212H418.814V186.301ZM421.803 197.322H426.725C428.963 197.322 430.51 196.953 431.365 196.215C432.232 195.477 432.666 194.398 432.666 192.98C432.666 191.516 432.15 190.461 431.119 189.816C430.1 189.172 428.471 188.85 426.232 188.85H421.803V197.322ZM421.803 199.836V209.451H427.146C429.432 209.451 431.049 209.006 431.998 208.115C432.947 207.213 433.422 206 433.422 204.477C433.422 203.504 433.205 202.672 432.771 201.98C432.35 201.289 431.658 200.762 430.697 200.398C429.748 200.023 428.477 199.836 426.883 199.836H421.803ZM445.076 212H442.088V186.301H456.396V188.938H445.076V198.359H455.711V200.979H445.076V212ZM471.672 188.568C470.254 188.568 468.977 188.814 467.84 189.307C466.715 189.787 465.754 190.49 464.957 191.416C464.172 192.33 463.568 193.438 463.146 194.738C462.725 196.039 462.514 197.504 462.514 199.133C462.514 201.289 462.848 203.164 463.516 204.758C464.195 206.34 465.203 207.564 466.539 208.432C467.887 209.299 469.568 209.732 471.584 209.732C472.732 209.732 473.811 209.639 474.818 209.451C475.838 209.252 476.828 209.006 477.789 208.713V211.314C476.852 211.666 475.867 211.924 474.836 212.088C473.805 212.264 472.58 212.352 471.162 212.352C468.549 212.352 466.363 211.812 464.605 210.734C462.859 209.645 461.547 208.109 460.668 206.129C459.801 204.148 459.367 201.811 459.367 199.115C459.367 197.17 459.637 195.395 460.176 193.789C460.727 192.172 461.523 190.777 462.566 189.605C463.621 188.434 464.91 187.531 466.434 186.898C467.969 186.254 469.727 185.932 471.707 185.932C473.008 185.932 474.262 186.061 475.469 186.318C476.676 186.576 477.766 186.945 478.738 187.426L477.543 189.957C476.723 189.582 475.82 189.26 474.836 188.99C473.863 188.709 472.809 188.568 471.672 188.568Z" fill="black"/>
<path d="M261.78 70.6575C261.78 70.23 261.937 69.8025 262.275 69.465L274.74 57L262.275 44.535C261.622 43.8825 261.622 42.8025 262.275 42.15C262.927 41.4975 264.007 41.4975 264.66 42.15L278.317 55.8075C278.97 56.46 278.97 57.54 278.317 58.1925L264.66 71.85C264.007 72.5025 262.927 72.5025 262.275 71.85C261.937 71.535 261.78 71.085 261.78 70.6575Z" fill="#292D32"/>
<path d="M237.187 57C237.187 56.0775 237.952 55.3125 238.875 55.3125L276.742 55.3125C277.665 55.3125 278.43 56.0775 278.43 57C278.43 57.9225 277.665 58.6875 276.742 58.6875L238.875 58.6875C237.952 58.6875 237.187 57.9225 237.187 57Z" fill="#292D32"/>
<path d="M261.78 211.658C261.78 211.23 261.937 210.803 262.275 210.465L274.74 198L262.275 185.535C261.622 184.883 261.622 183.803 262.275 183.15C262.927 182.498 264.007 182.498 264.66 183.15L278.317 196.808C278.97 197.46 278.97 198.54 278.317 199.193L264.66 212.85C264.007 213.503 262.927 213.503 262.275 212.85C261.937 212.535 261.78 212.085 261.78 211.658Z" fill="#292D32"/>
<path d="M237.187 198C237.187 197.078 237.952 196.312 238.875 196.312H276.742C277.665 196.312 278.43 197.078 278.43 198C278.43 198.922 277.665 199.688 276.742 199.688H238.875C237.952 199.688 237.187 198.922 237.187 198Z" fill="#292D32"/>
</svg>
