<svg width="786" height="600" viewBox="0 0 786 600" fill="none" xmlns="http://www.w3.org/2000/svg">
<rect width="342" height="287" fill="#FCFBFC"/>
<rect x="444" width="342" height="287" fill="#232228"/>
<circle cx="171" cy="143" r="102" fill="#00F0FF"/>
<circle cx="615" cy="143" r="102" fill="#00F0FF"/>
<path d="M403.243 167.955C402.713 167.955 402.182 167.76 401.763 167.341C400.954 166.531 400.954 165.191 401.763 164.382L415.75 150.396C416.559 149.586 417.899 149.586 418.709 150.396C419.518 151.205 419.518 152.545 418.709 153.355L404.723 167.341C404.304 167.732 403.773 167.955 403.243 167.955Z" fill="#292D32"/>
<path d="M417.229 153.941H369.771C368.626 153.941 367.677 152.992 367.677 151.847C367.677 150.703 368.626 149.753 369.771 149.753H417.229C418.373 149.753 419.323 150.703 419.323 151.847C419.323 152.992 418.373 153.941 417.229 153.941Z" fill="#292D32"/>
<path d="M369.77 137.247C369.24 137.247 368.71 137.051 368.291 136.632C367.481 135.823 367.481 134.483 368.291 133.673L382.277 119.687C383.087 118.877 384.427 118.877 385.236 119.687C386.046 120.497 386.046 121.837 385.236 122.646L371.25 136.632C370.859 137.023 370.301 137.247 369.77 137.247Z" fill="#292D32"/>
<path d="M417.229 137.247H369.771C368.626 137.247 367.677 136.297 367.677 135.153C367.677 134.008 368.626 133.059 369.771 133.059H417.229C418.373 133.059 419.323 134.008 419.323 135.153C419.323 136.297 418.373 137.247 417.229 137.247Z" fill="#292D32"/>
<rect y="313" width="342" height="287" fill="#FCFBFC"/>
<rect x="444" y="313" width="342" height="287" fill="#232228"/>
<circle cx="171" cy="456" r="102" fill="#F000FF"/>
<circle cx="615" cy="456" r="102" fill="#F000FF"/>
<path d="M403.243 480.955C402.713 480.955 402.182 480.76 401.763 480.341C400.954 479.531 400.954 478.191 401.763 477.382L415.75 463.395C416.559 462.586 417.899 462.586 418.709 463.395C419.518 464.205 419.518 465.545 418.709 466.355L404.723 480.341C404.304 480.732 403.773 480.955 403.243 480.955Z" fill="#292D32"/>
<path d="M417.229 466.941H369.771C368.626 466.941 367.677 465.992 367.677 464.847C367.677 463.702 368.626 462.753 369.771 462.753H417.229C418.373 462.753 419.323 463.702 419.323 464.847C419.323 465.992 418.373 466.941 417.229 466.941Z" fill="#292D32"/>
<path d="M369.77 450.247C369.24 450.247 368.71 450.051 368.291 449.633C367.481 448.823 367.481 447.483 368.291 446.673L382.277 432.687C383.087 431.878 384.427 431.878 385.236 432.687C386.046 433.497 386.046 434.837 385.236 435.646L371.25 449.633C370.859 450.023 370.301 450.247 369.77 450.247Z" fill="#292D32"/>
<path d="M417.229 450.247H369.771C368.626 450.247 367.677 449.298 367.677 448.153C367.677 447.008 368.626 446.059 369.771 446.059H417.229C418.373 446.059 419.323 447.008 419.323 448.153C419.323 449.298 418.373 450.247 417.229 450.247Z" fill="#292D32"/>
</svg>
