<svg width="786" height="600" viewBox="0 0 786 600" fill="none" xmlns="http://www.w3.org/2000/svg">
<rect width="342" height="287" fill="#FCFBFC"/>
<rect x="444" width="342" height="287" fill="#232228"/>
<circle cx="171" cy="143" r="102" fill="#00F0FF"/>
<circle cx="615" cy="143" r="102" fill="#03DBEA"/>
<path d="M403.243 167.955C402.713 167.955 402.182 167.76 401.763 167.341C400.954 166.531 400.954 165.191 401.763 164.382L415.75 150.395C416.559 149.586 417.899 149.586 418.709 150.395C419.518 151.205 419.518 152.545 418.709 153.355L404.723 167.341C404.304 167.732 403.773 167.955 403.243 167.955Z" fill="#292D32"/>
<path d="M417.229 153.941H369.771C368.626 153.941 367.677 152.992 367.677 151.847C367.677 150.702 368.626 149.753 369.771 149.753H417.229C418.373 149.753 419.323 150.702 419.323 151.847C419.323 152.992 418.373 153.941 417.229 153.941Z" fill="#292D32"/>
<path d="M369.77 137.247C369.24 137.247 368.71 137.051 368.291 136.633C367.481 135.823 367.481 134.483 368.291 133.673L382.277 119.687C383.087 118.878 384.427 118.878 385.236 119.687C386.046 120.497 386.046 121.837 385.236 122.646L371.25 136.633C370.859 137.023 370.301 137.247 369.77 137.247Z" fill="#292D32"/>
<path d="M417.229 137.247H369.771C368.626 137.247 367.677 136.298 367.677 135.153C367.677 134.008 368.626 133.059 369.771 133.059H417.229C418.373 133.059 419.323 134.008 419.323 135.153C419.323 136.298 418.373 137.247 417.229 137.247Z" fill="#292D32"/>
<rect y="313" width="342" height="287" fill="#FCFBFC"/>
<rect x="444" y="313" width="342" height="287" fill="#232228"/>
<circle cx="171" cy="456" r="102" fill="#F000FF"/>
<circle cx="615" cy="456" r="102" fill="#DC03EA"/>
<path d="M403.243 480.955C402.713 480.955 402.182 480.76 401.763 480.341C400.954 479.531 400.954 478.191 401.763 477.382L415.75 463.395C416.559 462.586 417.899 462.586 418.709 463.395C419.518 464.205 419.518 465.545 418.709 466.355L404.723 480.341C404.304 480.732 403.773 480.955 403.243 480.955Z" fill="#292D32"/>
<path d="M417.229 466.941H369.771C368.626 466.941 367.677 465.992 367.677 464.847C367.677 463.702 368.626 462.753 369.771 462.753H417.229C418.373 462.753 419.323 463.702 419.323 464.847C419.323 465.992 418.373 466.941 417.229 466.941Z" fill="#292D32"/>
<path d="M369.77 450.247C369.24 450.247 368.71 450.051 368.291 449.633C367.481 448.823 367.481 447.483 368.291 446.673L382.277 432.687C383.087 431.878 384.427 431.878 385.236 432.687C386.046 433.497 386.046 434.837 385.236 435.646L371.25 449.633C370.859 450.023 370.301 450.247 369.77 450.247Z" fill="#292D32"/>
<path d="M417.229 450.247H369.771C368.626 450.247 367.677 449.298 367.677 448.153C367.677 447.008 368.626 446.059 369.771 446.059H417.229C418.373 446.059 419.323 447.008 419.323 448.153C419.323 449.298 418.373 450.247 417.229 450.247Z" fill="#292D32"/>
<path d="M130.957 144.115C130.957 146.201 130.799 148.064 130.482 149.705C130.166 151.346 129.668 152.734 128.988 153.871C128.309 155.008 127.43 155.875 126.352 156.473C125.273 157.059 123.979 157.352 122.467 157.352C120.557 157.352 118.975 156.83 117.721 155.787C116.479 154.744 115.547 153.238 114.926 151.27C114.316 149.289 114.012 146.904 114.012 144.115C114.012 141.373 114.287 139.018 114.838 137.049C115.4 135.068 116.303 133.551 117.545 132.496C118.787 131.43 120.428 130.896 122.467 130.896C124.4 130.896 125.994 131.424 127.248 132.479C128.502 133.521 129.434 135.033 130.043 137.014C130.652 138.982 130.957 141.35 130.957 144.115ZM116.947 144.115C116.947 146.506 117.129 148.498 117.492 150.092C117.855 151.686 118.441 152.881 119.25 153.678C120.07 154.463 121.143 154.855 122.467 154.855C123.791 154.855 124.857 154.463 125.666 153.678C126.486 152.893 127.078 151.703 127.441 150.109C127.816 148.516 128.004 146.518 128.004 144.115C128.004 141.76 127.822 139.791 127.459 138.209C127.096 136.615 126.51 135.42 125.701 134.623C124.893 133.814 123.814 133.41 122.467 133.41C121.119 133.41 120.041 133.814 119.232 134.623C118.424 135.42 117.838 136.615 117.475 138.209C117.123 139.791 116.947 141.76 116.947 144.115ZM151.559 144.115C151.559 146.201 151.4 148.064 151.084 149.705C150.768 151.346 150.27 152.734 149.59 153.871C148.91 155.008 148.031 155.875 146.953 156.473C145.875 157.059 144.58 157.352 143.068 157.352C141.158 157.352 139.576 156.83 138.322 155.787C137.08 154.744 136.148 153.238 135.527 151.27C134.918 149.289 134.613 146.904 134.613 144.115C134.613 141.373 134.889 139.018 135.439 137.049C136.002 135.068 136.904 133.551 138.146 132.496C139.389 131.43 141.029 130.896 143.068 130.896C145.002 130.896 146.596 131.424 147.85 132.479C149.104 133.521 150.035 135.033 150.645 137.014C151.254 138.982 151.559 141.35 151.559 144.115ZM137.549 144.115C137.549 146.506 137.73 148.498 138.094 150.092C138.457 151.686 139.043 152.881 139.852 153.678C140.672 154.463 141.744 154.855 143.068 154.855C144.393 154.855 145.459 154.463 146.268 153.678C147.088 152.893 147.68 151.703 148.043 150.109C148.418 148.516 148.605 146.518 148.605 144.115C148.605 141.76 148.424 139.791 148.061 138.209C147.697 136.615 147.111 135.42 146.303 134.623C145.494 133.814 144.416 133.41 143.068 133.41C141.721 133.41 140.643 133.814 139.834 134.623C139.025 135.42 138.439 136.615 138.076 138.209C137.725 139.791 137.549 141.76 137.549 144.115ZM159.908 157H156.92V131.301H171.229V133.938H159.908V143.359H170.543V145.979H159.908V157ZM190.758 144.115C190.758 146.201 190.6 148.064 190.283 149.705C189.967 151.346 189.469 152.734 188.789 153.871C188.109 155.008 187.23 155.875 186.152 156.473C185.074 157.059 183.779 157.352 182.268 157.352C180.357 157.352 178.775 156.83 177.521 155.787C176.279 154.744 175.348 153.238 174.727 151.27C174.117 149.289 173.812 146.904 173.812 144.115C173.812 141.373 174.088 139.018 174.639 137.049C175.201 135.068 176.104 133.551 177.346 132.496C178.588 131.43 180.229 130.896 182.268 130.896C184.201 130.896 185.795 131.424 187.049 132.479C188.303 133.521 189.234 135.033 189.844 137.014C190.453 138.982 190.758 141.35 190.758 144.115ZM176.748 144.115C176.748 146.506 176.93 148.498 177.293 150.092C177.656 151.686 178.242 152.881 179.051 153.678C179.871 154.463 180.943 154.855 182.268 154.855C183.592 154.855 184.658 154.463 185.467 153.678C186.287 152.893 186.879 151.703 187.242 150.109C187.617 148.516 187.805 146.518 187.805 144.115C187.805 141.76 187.623 139.791 187.26 138.209C186.896 136.615 186.311 135.42 185.502 134.623C184.693 133.814 183.615 133.41 182.268 133.41C180.92 133.41 179.842 133.814 179.033 134.623C178.225 135.42 177.639 136.615 177.275 138.209C176.924 139.791 176.748 141.76 176.748 144.115ZM199.107 157H196.119V131.301H210.428V133.938H199.107V143.359H209.742V145.979H199.107V157ZM217.705 157H214.717V131.301H229.025V133.938H217.705V143.359H228.34V145.979H217.705V157Z" fill="black"/>
<path d="M567.064 144.115C567.064 146.201 566.906 148.064 566.59 149.705C566.273 151.346 565.775 152.734 565.096 153.871C564.416 155.008 563.537 155.875 562.459 156.473C561.381 157.059 560.086 157.352 558.574 157.352C556.664 157.352 555.082 156.83 553.828 155.787C552.586 154.744 551.654 153.238 551.033 151.27C550.424 149.289 550.119 146.904 550.119 144.115C550.119 141.373 550.395 139.018 550.945 137.049C551.508 135.068 552.41 133.551 553.652 132.496C554.895 131.43 556.535 130.896 558.574 130.896C560.508 130.896 562.102 131.424 563.355 132.479C564.609 133.521 565.541 135.033 566.15 137.014C566.76 138.982 567.064 141.35 567.064 144.115ZM553.055 144.115C553.055 146.506 553.236 148.498 553.6 150.092C553.963 151.686 554.549 152.881 555.357 153.678C556.178 154.463 557.25 154.855 558.574 154.855C559.898 154.855 560.965 154.463 561.773 153.678C562.594 152.893 563.186 151.703 563.549 150.109C563.924 148.516 564.111 146.518 564.111 144.115C564.111 141.76 563.93 139.791 563.566 138.209C563.203 136.615 562.617 135.42 561.809 134.623C561 133.814 559.922 133.41 558.574 133.41C557.227 133.41 556.148 133.814 555.34 134.623C554.531 135.42 553.945 136.615 553.582 138.209C553.23 139.791 553.055 141.76 553.055 144.115ZM586.576 137.295C586.576 138.443 586.354 139.439 585.908 140.283C585.463 141.127 584.842 141.818 584.045 142.357C583.248 142.885 582.311 143.254 581.232 143.465V143.605C583.271 143.863 584.801 144.52 585.82 145.574C586.852 146.629 587.367 148.012 587.367 149.723C587.367 151.211 587.016 152.529 586.312 153.678C585.621 154.826 584.555 155.729 583.113 156.385C581.684 157.029 579.85 157.352 577.611 157.352C576.252 157.352 574.992 157.24 573.832 157.018C572.684 156.807 571.582 156.449 570.527 155.945V153.203C571.594 153.73 572.754 154.146 574.008 154.451C575.262 154.744 576.475 154.891 577.646 154.891C579.99 154.891 581.684 154.428 582.727 153.502C583.77 152.564 584.291 151.287 584.291 149.67C584.291 148.557 583.998 147.66 583.412 146.98C582.838 146.289 582.006 145.785 580.916 145.469C579.838 145.141 578.537 144.977 577.014 144.977H574.447V142.48H577.031C578.426 142.48 579.609 142.275 580.582 141.865C581.555 141.455 582.293 140.881 582.797 140.143C583.312 139.393 583.57 138.508 583.57 137.488C583.57 136.188 583.137 135.186 582.27 134.482C581.402 133.768 580.225 133.41 578.736 133.41C577.822 133.41 576.99 133.504 576.24 133.691C575.49 133.879 574.787 134.137 574.131 134.465C573.475 134.793 572.818 135.174 572.162 135.607L570.686 133.604C571.623 132.877 572.766 132.25 574.113 131.723C575.461 131.195 576.99 130.932 578.701 130.932C581.326 130.932 583.295 131.529 584.607 132.725C585.92 133.92 586.576 135.443 586.576 137.295ZM613.436 143.904C613.436 146.799 612.908 149.219 611.854 151.164C610.799 153.098 609.27 154.557 607.266 155.541C605.273 156.514 602.854 157 600.006 157H593.027V131.301H600.779C603.393 131.301 605.643 131.781 607.529 132.742C609.416 133.691 610.869 135.104 611.889 136.979C612.92 138.842 613.436 141.15 613.436 143.904ZM610.289 144.01C610.289 141.701 609.902 139.797 609.129 138.297C608.367 136.797 607.242 135.684 605.754 134.957C604.277 134.219 602.467 133.85 600.322 133.85H596.016V154.434H599.654C603.193 154.434 605.848 153.561 607.617 151.814C609.398 150.068 610.289 147.467 610.289 144.01ZM619.148 131.301H626.426C629.637 131.301 632.051 131.781 633.668 132.742C635.285 133.703 636.094 135.338 636.094 137.646C636.094 138.643 635.9 139.539 635.514 140.336C635.139 141.121 634.588 141.771 633.861 142.287C633.135 142.803 632.238 143.16 631.172 143.359V143.535C632.297 143.711 633.293 144.033 634.16 144.502C635.027 144.971 635.707 145.627 636.199 146.471C636.691 147.314 636.938 148.387 636.938 149.688C636.938 151.27 636.568 152.605 635.83 153.695C635.104 154.785 634.072 155.611 632.736 156.174C631.4 156.725 629.818 157 627.99 157H619.148V131.301ZM622.137 142.322H627.059C629.297 142.322 630.844 141.953 631.699 141.215C632.566 140.477 633 139.398 633 137.98C633 136.516 632.484 135.461 631.453 134.816C630.434 134.172 628.805 133.85 626.566 133.85H622.137V142.322ZM622.137 144.836V154.451H627.48C629.766 154.451 631.383 154.006 632.332 153.115C633.281 152.213 633.756 151 633.756 149.477C633.756 148.504 633.539 147.672 633.105 146.98C632.684 146.289 631.992 145.762 631.031 145.398C630.082 145.023 628.811 144.836 627.217 144.836H622.137ZM656.73 157H642.422V131.301H656.73V133.938H645.41V142.252H656.08V144.854H645.41V154.363H656.73V157ZM678.545 157L675.381 148.844H665.08L661.934 157H658.91L668.965 131.195H671.654L681.639 157H678.545ZM674.484 146.189L671.479 138.086C671.408 137.875 671.291 137.529 671.127 137.049C670.975 136.568 670.816 136.07 670.652 135.555C670.488 135.039 670.354 134.623 670.248 134.307C670.131 134.787 670.002 135.268 669.861 135.748C669.732 136.217 669.604 136.656 669.475 137.066C669.346 137.465 669.234 137.805 669.141 138.086L666.082 146.189H674.484Z" fill="black"/>
<path d="M573.031 456.904C573.031 459.799 572.504 462.219 571.449 464.164C570.395 466.098 568.865 467.557 566.861 468.541C564.869 469.514 562.449 470 559.602 470H552.623V444.301H560.375C562.988 444.301 565.238 444.781 567.125 445.742C569.012 446.691 570.465 448.104 571.484 449.979C572.516 451.842 573.031 454.15 573.031 456.904ZM569.885 457.01C569.885 454.701 569.498 452.797 568.725 451.297C567.963 449.797 566.838 448.684 565.35 447.957C563.873 447.219 562.062 446.85 559.918 446.85H555.611V467.434H559.25C562.789 467.434 565.443 466.561 567.213 464.814C568.994 463.068 569.885 460.467 569.885 457.01ZM589.73 446.568C588.312 446.568 587.035 446.814 585.898 447.307C584.773 447.787 583.812 448.49 583.016 449.416C582.23 450.33 581.627 451.438 581.205 452.738C580.783 454.039 580.572 455.504 580.572 457.133C580.572 459.289 580.906 461.164 581.574 462.758C582.254 464.34 583.262 465.564 584.598 466.432C585.945 467.299 587.627 467.732 589.643 467.732C590.791 467.732 591.869 467.639 592.877 467.451C593.896 467.252 594.887 467.006 595.848 466.713V469.314C594.91 469.666 593.926 469.924 592.895 470.088C591.863 470.264 590.639 470.352 589.221 470.352C586.607 470.352 584.422 469.812 582.664 468.734C580.918 467.645 579.605 466.109 578.727 464.129C577.859 462.148 577.426 459.811 577.426 457.115C577.426 455.17 577.695 453.395 578.234 451.789C578.785 450.172 579.582 448.777 580.625 447.605C581.68 446.434 582.969 445.531 584.492 444.898C586.027 444.254 587.785 443.932 589.766 443.932C591.066 443.932 592.32 444.061 593.527 444.318C594.734 444.576 595.824 444.945 596.797 445.426L595.602 447.957C594.781 447.582 593.879 447.26 592.895 446.99C591.922 446.709 590.867 446.568 589.73 446.568ZM616.66 457.115C616.66 459.201 616.502 461.064 616.186 462.705C615.869 464.346 615.371 465.734 614.691 466.871C614.012 468.008 613.133 468.875 612.055 469.473C610.977 470.059 609.682 470.352 608.17 470.352C606.26 470.352 604.678 469.83 603.424 468.787C602.182 467.744 601.25 466.238 600.629 464.27C600.02 462.289 599.715 459.904 599.715 457.115C599.715 454.373 599.99 452.018 600.541 450.049C601.104 448.068 602.006 446.551 603.248 445.496C604.49 444.43 606.131 443.896 608.17 443.896C610.104 443.896 611.697 444.424 612.951 445.479C614.205 446.521 615.137 448.033 615.746 450.014C616.355 451.982 616.66 454.35 616.66 457.115ZM602.65 457.115C602.65 459.506 602.832 461.498 603.195 463.092C603.559 464.686 604.145 465.881 604.953 466.678C605.773 467.463 606.846 467.855 608.17 467.855C609.494 467.855 610.561 467.463 611.369 466.678C612.189 465.893 612.781 464.703 613.145 463.109C613.52 461.516 613.707 459.518 613.707 457.115C613.707 454.76 613.525 452.791 613.162 451.209C612.799 449.615 612.213 448.42 611.404 447.623C610.596 446.814 609.518 446.41 608.17 446.41C606.822 446.41 605.744 446.814 604.936 447.623C604.127 448.42 603.541 449.615 603.178 451.209C602.826 452.791 602.65 454.76 602.65 457.115ZM636.172 450.295C636.172 451.443 635.949 452.439 635.504 453.283C635.059 454.127 634.438 454.818 633.641 455.357C632.844 455.885 631.906 456.254 630.828 456.465V456.605C632.867 456.863 634.396 457.52 635.416 458.574C636.447 459.629 636.963 461.012 636.963 462.723C636.963 464.211 636.611 465.529 635.908 466.678C635.217 467.826 634.15 468.729 632.709 469.385C631.279 470.029 629.445 470.352 627.207 470.352C625.848 470.352 624.588 470.24 623.428 470.018C622.279 469.807 621.178 469.449 620.123 468.945V466.203C621.189 466.73 622.35 467.146 623.604 467.451C624.857 467.744 626.07 467.891 627.242 467.891C629.586 467.891 631.279 467.428 632.322 466.502C633.365 465.564 633.887 464.287 633.887 462.67C633.887 461.557 633.594 460.66 633.008 459.98C632.434 459.289 631.602 458.785 630.512 458.469C629.434 458.141 628.133 457.977 626.609 457.977H624.043V455.48H626.627C628.021 455.48 629.205 455.275 630.178 454.865C631.15 454.455 631.889 453.881 632.393 453.143C632.908 452.393 633.166 451.508 633.166 450.488C633.166 449.188 632.732 448.186 631.865 447.482C630.998 446.768 629.82 446.41 628.332 446.41C627.418 446.41 626.586 446.504 625.836 446.691C625.086 446.879 624.383 447.137 623.727 447.465C623.07 447.793 622.414 448.174 621.758 448.607L620.281 446.604C621.219 445.877 622.361 445.25 623.709 444.723C625.057 444.195 626.586 443.932 628.297 443.932C630.922 443.932 632.891 444.529 634.203 445.725C635.516 446.92 636.172 448.443 636.172 450.295ZM656.932 470H642.623V444.301H656.932V446.938H645.611V455.252H656.281V457.854H645.611V467.363H656.932V470ZM678.746 470L675.582 461.844H665.281L662.135 470H659.111L669.166 444.195H671.855L681.84 470H678.746ZM674.686 459.189L671.68 451.086C671.609 450.875 671.492 450.529 671.328 450.049C671.176 449.568 671.018 449.07 670.854 448.555C670.689 448.039 670.555 447.623 670.449 447.307C670.332 447.787 670.203 448.268 670.062 448.748C669.934 449.217 669.805 449.656 669.676 450.066C669.547 450.465 669.436 450.805 669.342 451.086L666.283 459.189H674.686Z" fill="black"/>
<path d="M118.705 470H115.717V444.301H130.025V446.938H118.705V456.359H129.34V458.979H118.705V470ZM149.555 457.115C149.555 459.201 149.396 461.064 149.08 462.705C148.764 464.346 148.266 465.734 147.586 466.871C146.906 468.008 146.027 468.875 144.949 469.473C143.871 470.059 142.576 470.352 141.064 470.352C139.154 470.352 137.572 469.83 136.318 468.787C135.076 467.744 134.145 466.238 133.523 464.27C132.914 462.289 132.609 459.904 132.609 457.115C132.609 454.373 132.885 452.018 133.436 450.049C133.998 448.068 134.9 446.551 136.143 445.496C137.385 444.43 139.025 443.896 141.064 443.896C142.998 443.896 144.592 444.424 145.846 445.479C147.1 446.521 148.031 448.033 148.641 450.014C149.25 451.982 149.555 454.35 149.555 457.115ZM135.545 457.115C135.545 459.506 135.727 461.498 136.09 463.092C136.453 464.686 137.039 465.881 137.848 466.678C138.668 467.463 139.74 467.855 141.064 467.855C142.389 467.855 143.455 467.463 144.264 466.678C145.084 465.893 145.676 464.703 146.039 463.109C146.414 461.516 146.602 459.518 146.602 457.115C146.602 454.76 146.42 452.791 146.057 451.209C145.693 449.615 145.107 448.42 144.299 447.623C143.49 446.814 142.412 446.41 141.064 446.41C139.717 446.41 138.639 446.814 137.83 447.623C137.021 448.42 136.436 449.615 136.072 451.209C135.721 452.791 135.545 454.76 135.545 457.115ZM170.156 457.115C170.156 459.201 169.998 461.064 169.682 462.705C169.365 464.346 168.867 465.734 168.188 466.871C167.508 468.008 166.629 468.875 165.551 469.473C164.473 470.059 163.178 470.352 161.666 470.352C159.756 470.352 158.174 469.83 156.92 468.787C155.678 467.744 154.746 466.238 154.125 464.27C153.516 462.289 153.211 459.904 153.211 457.115C153.211 454.373 153.486 452.018 154.037 450.049C154.6 448.068 155.502 446.551 156.744 445.496C157.986 444.43 159.627 443.896 161.666 443.896C163.6 443.896 165.193 444.424 166.447 445.479C167.701 446.521 168.633 448.033 169.242 450.014C169.852 451.982 170.156 454.35 170.156 457.115ZM156.146 457.115C156.146 459.506 156.328 461.498 156.691 463.092C157.055 464.686 157.641 465.881 158.449 466.678C159.27 467.463 160.342 467.855 161.666 467.855C162.99 467.855 164.057 467.463 164.865 466.678C165.686 465.893 166.277 464.703 166.641 463.109C167.016 461.516 167.203 459.518 167.203 457.115C167.203 454.76 167.021 452.791 166.658 451.209C166.295 449.615 165.709 448.42 164.9 447.623C164.092 446.814 163.014 446.41 161.666 446.41C160.318 446.41 159.24 446.814 158.432 447.623C157.623 448.42 157.037 449.615 156.674 451.209C156.322 452.791 156.146 454.76 156.146 457.115ZM190.758 457.115C190.758 459.201 190.6 461.064 190.283 462.705C189.967 464.346 189.469 465.734 188.789 466.871C188.109 468.008 187.23 468.875 186.152 469.473C185.074 470.059 183.779 470.352 182.268 470.352C180.357 470.352 178.775 469.83 177.521 468.787C176.279 467.744 175.348 466.238 174.727 464.27C174.117 462.289 173.812 459.904 173.812 457.115C173.812 454.373 174.088 452.018 174.639 450.049C175.201 448.068 176.104 446.551 177.346 445.496C178.588 444.43 180.229 443.896 182.268 443.896C184.201 443.896 185.795 444.424 187.049 445.479C188.303 446.521 189.234 448.033 189.844 450.014C190.453 451.982 190.758 454.35 190.758 457.115ZM176.748 457.115C176.748 459.506 176.93 461.498 177.293 463.092C177.656 464.686 178.242 465.881 179.051 466.678C179.871 467.463 180.943 467.855 182.268 467.855C183.592 467.855 184.658 467.463 185.467 466.678C186.287 465.893 186.879 464.703 187.242 463.109C187.617 461.516 187.805 459.518 187.805 457.115C187.805 454.76 187.623 452.791 187.26 451.209C186.896 449.615 186.311 448.42 185.502 447.623C184.693 446.814 183.615 446.41 182.268 446.41C180.92 446.41 179.842 446.814 179.033 447.623C178.225 448.42 177.639 449.615 177.275 451.209C176.924 452.791 176.748 454.76 176.748 457.115ZM199.107 470H196.119V444.301H210.428V446.938H199.107V456.359H209.742V458.979H199.107V470ZM217.705 470H214.717V444.301H229.025V446.938H217.705V456.359H228.34V458.979H217.705V470Z" fill="black"/>
</svg>
