<svg width="565" height="437" viewBox="0 0 565 437" fill="none" xmlns="http://www.w3.org/2000/svg">
<ellipse rx="31.9104" ry="31.795" transform="matrix(0.991722 -0.128405 0.119944 0.992781 251.934 332.963)" fill="black"/>
<ellipse rx="31.8712" ry="31.8344" transform="matrix(0.8762 0.473499 -0.48277 0.880355 251.243 332.056)" fill="black"/>
<rect width="154.091" height="348.833" transform="matrix(0.494727 0.865537 -0.869113 0.500702 471.913 118.579)" fill="#DED7FB"/>
<ellipse rx="31.8122" ry="31.8933" transform="matrix(0.494727 0.865537 -0.869113 0.500702 251.65 333.549)" fill="black"/>
<rect width="154.376" height="348.188" transform="matrix(0.8762 0.473499 -0.48277 0.880355 327.169 34.7549)" fill="#9A9BE2"/>
<rect width="154.566" height="347.758" transform="matrix(0.991722 -0.128405 0.119944 0.992781 140.27 48.8691)" fill="#7C7EE9"/>
<rect y="159.911" width="155" height="346.772" transform="rotate(-40.6199 0 159.911)" fill="#5D60EF"/>
<ellipse cx="250.667" cy="333.891" rx="32" ry="31.7049" transform="rotate(-40.6199 250.667 333.891)" fill="#3337FB"/>
<ellipse cx="252.061" cy="332.776" rx="22.5129" ry="22.3053" transform="rotate(-40.6199 252.061 332.776)" fill="#3337FB"/>
</svg>
