<svg width="563" height="468" viewBox="0 0 563 468" fill="none" xmlns="http://www.w3.org/2000/svg">
<rect x="468.85" y="51.9248" width="261.743" height="440.601" transform="rotate(69.1113 468.85 51.9248)" fill="#5D60EF"/>
<path d="M372.019 112.226L446.739 83.71L524.251 286.814L484.853 301.85L372.019 112.226Z" fill="#E7E1FF"/>
<path d="M247.106 392.583L172.386 421.099L94.8738 217.995L134.272 202.959L247.106 392.583Z" fill="#5297FF"/>
<path d="M314.28 134.261L363.867 115.337L418.599 205.733L368.333 224.917L314.28 134.261Z" fill="#DED7FB"/>
<path d="M373.741 232.97L423.328 214.046L478.06 304.442L427.794 323.626L373.741 232.97Z" fill="#C7B9FF"/>
<path d="M257.221 156.038L306.809 137.113L361.541 227.51L311.274 246.693L257.221 156.038Z" fill="#B7A6FF"/>
<path d="M316.681 254.746L366.268 235.821L421.001 326.218L370.734 345.401L316.681 254.746Z" fill="#9C85FF"/>
<path d="M197.444 178.85L247.031 159.926L301.763 250.322L251.497 269.506L197.444 178.85Z" fill="#8C71FF"/>
<path d="M256.905 277.559L306.492 258.635L361.224 349.031L310.958 368.215L256.905 277.559Z" fill="#7371FF"/>
<path d="M139.027 201.145L188.614 182.221L243.346 272.617L193.08 291.801L139.027 201.145Z" fill="#7190FF"/>
<path d="M198.487 299.853L248.074 280.929L302.806 371.325L252.54 390.509L198.487 299.853Z" fill="#71AAFF"/>
<path fill-rule="evenodd" clip-rule="evenodd" d="M324.696 333.908L338.289 306.712C347.892 306.104 368.352 306.243 373.371 311.664C378.391 317.084 399.893 342.503 410.017 354.534L345.127 353.621C340.353 352.387 329.584 346.715 324.696 333.908Z" fill="#FCFBFC"/>
<path d="M252.863 309.969L324.696 333.908L338.289 306.712L273.059 271.082L252.863 309.969Z" fill="#DED7FB"/>
<path d="M16.9199 165.254L6.93358 187.405L252.863 309.969L273.059 271.082L16.9199 165.254Z" fill="#5D60EF"/>
</svg>
