<svg width="918" height="800" viewBox="0 0 918 800" fill="none" xmlns="http://www.w3.org/2000/svg">
<rect x="696.345" y="0.279297" width="390" height="844" rx="60" transform="rotate(55.5018 696.345 0.279297)" fill="#5D60EF"/>
<path d="M641.124 57.6432C668.433 38.875 705.787 45.7993 724.555 73.109L859.92 270.079C878.688 297.389 871.764 334.743 844.454 353.511L560.949 548.346L357.618 252.478L641.124 57.6432Z" fill="#FCFBFC"/>
<path d="M357.618 252.478L560.949 548.346L276.619 743.747C249.309 762.515 211.956 755.591 193.188 728.281L57.8227 531.311C39.0545 504.001 45.9788 466.648 73.2885 447.88L357.618 252.478Z" fill="#232228"/>
<path d="M755.658 95.4153L850.244 233.047L834.585 243.809C825.482 250.065 813.031 247.757 806.775 238.653L734.844 133.987C728.588 124.884 730.896 112.433 739.999 106.177L755.658 95.4153Z" fill="#5D60EF"/>
<path d="M596.349 307.429C607.571 323.758 629.905 327.898 646.234 316.677C662.563 305.455 666.703 283.12 655.481 266.792C644.259 250.463 621.925 246.322 605.596 257.544C589.267 268.766 585.127 291.1 596.349 307.429Z" fill="#5D60EF"/>
<path d="M579.623 318.924C578.026 316.601 578.452 313.51 580.775 311.914L581.113 311.682C583.436 310.085 586.643 310.68 588.239 313.003C589.836 315.326 589.241 318.533 586.918 320.129C584.595 321.726 581.219 321.247 579.623 318.924ZM612.259 340.896C611.504 339.798 611.201 338.452 611.423 337.055L611.595 336.129C612.11 333.35 614.771 331.521 617.55 332.036C620.329 332.551 622.158 335.212 621.643 337.992L621.471 338.918C620.956 341.697 618.295 343.526 615.516 343.011C614.162 342.76 613.014 341.994 612.259 340.896ZM570.808 280.581C570.054 279.483 569.75 278.137 569.972 276.74C570.488 273.961 573.149 272.132 575.928 272.648L576.854 272.819C579.634 273.335 581.462 275.995 580.947 278.775C580.432 281.554 577.771 283.383 574.992 282.868L574.065 282.696C572.711 282.445 571.534 281.637 570.808 280.581ZM650.718 332.251L650.486 331.913C648.889 329.59 649.484 326.383 651.807 324.786C654.13 323.19 657.337 323.784 658.933 326.107C660.53 328.43 660.052 331.806 657.728 333.403C655.405 334.999 652.315 334.574 650.718 332.251ZM592.896 248.114L592.664 247.776C591.068 245.453 591.662 242.246 593.985 240.649C596.308 239.053 599.515 239.647 601.112 241.97C602.708 244.294 602.23 247.669 599.907 249.266C597.584 250.862 594.493 250.437 592.896 248.114ZM671.647 299.274C670.893 298.176 670.589 296.829 670.811 295.433C671.327 292.654 673.988 290.825 676.767 291.34L677.693 291.512C680.473 292.027 682.301 294.688 681.786 297.467C681.271 300.247 678.61 302.075 675.831 301.56L674.904 301.389C673.55 301.138 672.402 300.372 671.647 299.274ZM630.952 240.057C630.197 238.959 629.894 237.613 630.116 236.216L630.33 235.261C630.845 232.482 633.506 230.653 636.285 231.168C639.064 231.683 640.893 234.344 640.378 237.123L640.206 238.05C639.691 240.829 637.03 242.658 634.251 242.143C632.854 241.921 631.677 241.113 630.952 240.057ZM663.76 261.102C662.163 258.779 662.589 255.689 664.912 254.092L665.25 253.86C667.573 252.263 670.78 252.858 672.376 255.181C673.972 257.504 673.378 260.711 671.055 262.307C668.732 263.904 665.356 263.425 663.76 261.102Z" fill="#5D60EF"/>
<path d="M304.024 567.588C304.7 566.129 305.168 563.009 301.072 558.859C298.808 556.559 296.768 554.043 295.066 551.295C288.725 541.164 287.12 529.146 289.822 518.147C292.173 508.448 297.834 499.583 306.421 493.619C311.236 490.31 316.521 488.046 322.22 486.928C327.763 485.855 329.102 483.007 329.392 481.439C329.696 479.8 329.48 476.59 324.545 473.39C305.408 461.108 280.747 462.323 263.075 476.333C246.502 489.588 240.01 512.083 245.539 532.163C246.858 536.978 248.871 541.626 251.605 545.966C252.027 546.671 252.449 547.376 252.914 548.052C262.638 562.201 278.426 570.878 295.535 571.432C301.408 571.563 303.377 569.09 304.024 567.588Z" fill="#575ADB"/>
<path d="M427.467 316.845C426.915 316.042 426.66 315.036 426.858 313.967L434.176 274.487L394.696 267.168C392.629 266.785 391.236 264.758 391.619 262.691C392.002 260.625 394.029 259.231 396.096 259.614L439.354 267.633C441.42 268.016 442.814 270.044 442.43 272.11L434.412 315.368C434.029 317.434 432.001 318.828 429.935 318.445C428.895 318.289 428.018 317.647 427.467 316.845Z" fill="#232228"/>
<path d="M363.683 322.933C362.493 321.201 362.942 318.778 364.673 317.588L435.759 268.736C437.491 267.546 439.914 267.995 441.104 269.727C442.294 271.458 441.845 273.881 440.113 275.071L369.028 323.924C367.296 325.114 364.873 324.665 363.683 322.933Z" fill="#232228"/>
<path d="M482.858 489.643C483.41 490.446 483.666 491.451 483.468 492.52L476.149 532.001L515.629 539.319C517.696 539.702 519.089 541.73 518.706 543.796C518.323 545.863 516.296 547.256 514.229 546.873L470.972 538.855C468.905 538.471 467.512 536.444 467.895 534.377L475.913 491.12C476.297 489.053 478.324 487.66 480.391 488.043C481.431 488.199 482.307 488.84 482.858 489.643Z" fill="#FCFBFC"/>
<path d="M546.643 483.555C547.833 485.286 547.383 487.709 545.652 488.899L474.566 537.752C472.835 538.942 470.412 538.493 469.221 536.761C468.031 535.029 468.48 532.606 470.212 531.416L541.298 482.564C543.029 481.374 545.452 481.823 546.643 483.555Z" fill="#FCFBFC"/>
<path d="M552.365 451.107L547.057 458.024L551.995 465.209L543.777 462.299L538.469 469.215L538.698 460.5L530.479 457.589L538.839 455.113L539.067 446.398L544.005 453.583L552.365 451.107Z" fill="#232228"/>
<path d="M558.769 492.207L555.01 497.107L558.507 502.196L552.686 500.135L548.926 505.034L549.088 498.861L543.267 496.799L549.188 495.045L549.35 488.872L552.848 493.961L558.769 492.207Z" fill="#232228"/>
<path d="M590.033 486.496L586.273 491.396L589.771 496.485L583.95 494.424L580.19 499.323L580.352 493.15L574.531 491.088L580.452 489.334L580.614 483.161L584.112 488.25L590.033 486.496Z" fill="#232228"/>
<path d="M584.811 450.65L579.946 456.99L584.472 463.576L576.939 460.908L572.073 467.249L572.283 459.259L564.749 456.591L572.412 454.322L572.622 446.333L577.148 452.919L584.811 450.65Z" fill="#232228"/>
<path d="M358.784 354.814L364.092 347.897L359.154 340.712L367.373 343.623L372.68 336.706L372.452 345.422L380.67 348.332L372.311 350.808L372.082 359.524L367.144 352.338L358.784 354.814Z" fill="#FCFBFC"/>
<path d="M352.38 313.714L356.14 308.814L352.642 303.725L358.463 305.786L362.223 300.887L362.061 307.061L367.882 309.122L361.961 310.876L361.799 317.05L358.301 311.96L352.38 313.714Z" fill="#FCFBFC"/>
<path d="M321.116 319.425L324.876 314.526L321.378 309.436L327.2 311.498L330.959 306.598L330.797 312.772L336.619 314.833L330.697 316.587L330.536 322.761L327.038 317.671L321.116 319.425Z" fill="#FCFBFC"/>
<path d="M326.338 355.272L331.204 348.932L326.677 342.345L334.211 345.013L339.076 338.673L338.867 346.662L346.4 349.33L338.737 351.6L338.528 359.589L334.001 353.002L326.338 355.272Z" fill="#FCFBFC"/>
</svg>
