<svg width="345" height="445" viewBox="0 0 345 445" fill="none" xmlns="http://www.w3.org/2000/svg">
<rect x="32" y="5" width="308" height="406" rx="45" stroke="#5D60EF" stroke-width="10"/>
<rect x="32" y="5" width="308" height="406" rx="45" fill="#5D60EF" stroke="#5D60EF" stroke-width="10"/>
<rect x="5" y="34" width="308" height="406" rx="45" fill="#DED7FB" stroke="#5D60EF" stroke-width="10"/>
<path d="M231.562 207.375C239.729 207.375 245.792 209.208 249.75 212.875C253.708 216.542 255.688 222.396 255.688 230.438V277H248.125L246.125 266.875H245.625C243.708 269.375 241.708 271.479 239.625 273.188C237.542 274.854 235.125 276.125 232.375 277C229.667 277.833 226.333 278.25 222.375 278.25C218.208 278.25 214.5 277.521 211.25 276.062C208.042 274.604 205.5 272.396 203.625 269.438C201.792 266.479 200.875 262.729 200.875 258.188C200.875 251.354 203.583 246.104 209 242.438C214.417 238.771 222.667 236.771 233.75 236.438L245.562 235.938V231.75C245.562 225.833 244.292 221.688 241.75 219.312C239.208 216.938 235.625 215.75 231 215.75C227.417 215.75 224 216.271 220.75 217.312C217.5 218.354 214.417 219.583 211.5 221L208.312 213.125C211.396 211.542 214.938 210.188 218.938 209.062C222.938 207.938 227.146 207.375 231.562 207.375ZM245.438 243.25L235 243.688C226.458 244.021 220.438 245.417 216.938 247.875C213.438 250.333 211.688 253.812 211.688 258.312C211.688 262.229 212.875 265.125 215.25 267C217.625 268.875 220.771 269.812 224.688 269.812C230.771 269.812 235.75 268.125 239.625 264.75C243.5 261.375 245.438 256.312 245.438 249.562V243.25Z" fill="#5D60EF"/>
<path d="M103.562 374H98.25V328.312H123.688V333H103.562V349.75H122.469V354.406H103.562V374ZM160.062 356.812C160.062 359.625 159.698 362.135 158.969 364.344C158.24 366.552 157.188 368.417 155.812 369.938C154.438 371.458 152.771 372.625 150.812 373.438C148.875 374.229 146.677 374.625 144.219 374.625C141.927 374.625 139.823 374.229 137.906 373.438C136.01 372.625 134.365 371.458 132.969 369.938C131.594 368.417 130.521 366.552 129.75 364.344C129 362.135 128.625 359.625 128.625 356.812C128.625 353.062 129.26 349.875 130.531 347.25C131.802 344.604 133.615 342.594 135.969 341.219C138.344 339.823 141.167 339.125 144.438 339.125C147.562 339.125 150.292 339.823 152.625 341.219C154.979 342.615 156.802 344.635 158.094 347.281C159.406 349.906 160.062 353.083 160.062 356.812ZM134 356.812C134 359.562 134.365 361.948 135.094 363.969C135.823 365.99 136.948 367.552 138.469 368.656C139.99 369.76 141.948 370.312 144.344 370.312C146.719 370.312 148.667 369.76 150.188 368.656C151.729 367.552 152.865 365.99 153.594 363.969C154.323 361.948 154.688 359.562 154.688 356.812C154.688 354.083 154.323 351.729 153.594 349.75C152.865 347.75 151.74 346.208 150.219 345.125C148.698 344.042 146.729 343.5 144.312 343.5C140.75 343.5 138.135 344.677 136.469 347.031C134.823 349.385 134 352.646 134 356.812ZM185.25 339.125C189.312 339.125 192.385 340.125 194.469 342.125C196.552 344.104 197.594 347.292 197.594 351.688V374H192.469V352.031C192.469 349.177 191.812 347.042 190.5 345.625C189.208 344.208 187.219 343.5 184.531 343.5C180.74 343.5 178.073 344.573 176.531 346.719C174.99 348.865 174.219 351.979 174.219 356.062V374H169.031V339.75H173.219L174 344.688H174.281C175.01 343.479 175.938 342.469 177.062 341.656C178.188 340.823 179.448 340.198 180.844 339.781C182.24 339.344 183.708 339.125 185.25 339.125ZM219.344 370.375C220.198 370.375 221.073 370.302 221.969 370.156C222.865 370.01 223.594 369.833 224.156 369.625V373.656C223.552 373.927 222.708 374.156 221.625 374.344C220.562 374.531 219.521 374.625 218.5 374.625C216.688 374.625 215.042 374.312 213.562 373.688C212.083 373.042 210.896 371.958 210 370.438C209.125 368.917 208.688 366.812 208.688 364.125V343.812H203.812V341.281L208.719 339.25L210.781 331.812H213.906V339.75H223.938V343.812H213.906V363.969C213.906 366.115 214.396 367.719 215.375 368.781C216.375 369.844 217.698 370.375 219.344 370.375Z" fill="#5D60EF"/>
<path d="M161.371 277L151.02 243.016H98.9688L88.6172 277H56L106.391 133.641H143.402L193.988 277H161.371ZM143.793 217.625L133.441 184.422C132.79 182.208 131.911 179.376 130.805 175.926C129.763 172.41 128.689 168.862 127.582 165.281C126.54 161.635 125.694 158.478 125.043 155.809C124.392 158.478 123.48 161.798 122.309 165.77C121.202 169.676 120.128 173.387 119.086 176.902C118.044 180.418 117.296 182.924 116.84 184.422L106.586 217.625H143.793Z" fill="#5D60EF"/>
</svg>
