<svg width="440" height="440" viewBox="0 0 440 440" fill="none" xmlns="http://www.w3.org/2000/svg">
<path d="M341.658 256.505C335.182 277.928 323.181 297.27 306.861 312.585" stroke="#D10006" stroke-opacity="0.3" stroke-width="20"/>
<path d="M307.083 312.377C290.799 327.731 270.761 338.529 248.982 343.684" stroke="#9E0466" stroke-opacity="0.3" stroke-width="20"/>
<path d="M249.618 343.532C227.865 348.799 205.11 348.247 183.638 341.932" stroke="#5F0564" stroke-width="20"/>
<path d="M183.775 341.973C162.297 335.682 142.852 323.849 127.397 307.662" stroke="#040263" stroke-opacity="0.3" stroke-width="20"/>
<path d="M127.412 307.677C111.954 291.492 101.028 271.523 95.7333 249.778" stroke="#08329D" stroke-opacity="0.3" stroke-width="20"/>
<path d="M95.7427 249.818C90.4407 228.074 90.9556 205.318 97.2358 183.836" stroke="#006A64" stroke-opacity="0.3" stroke-width="20"/>
<path d="M96.3837 186.886C102.129 165.255 113.466 145.517 129.257 129.656" stroke="#399806" stroke-width="20"/>
<path d="M129.071 129.844C144.828 113.95 164.492 102.485 186.085 96.5998" stroke="#65CC09" stroke-opacity="0.3" stroke-width="20"/>
<path d="M186.15 96.5825C207.746 90.7086 230.508 90.6229 252.148 96.3341" stroke="#F7FF08" stroke-opacity="0.3" stroke-width="20"/>
<path d="M251.949 96.282C273.598 101.959 293.372 113.234 309.282 128.975" stroke="#FD9B05" stroke-opacity="0.3" stroke-width="20"/>
<path d="M309.28 128.971C325.191 144.711 336.678 164.362 342.587 185.948" stroke="#FE6606" stroke-width="20"/>
<path d="M342.524 185.724C348.926 208.946 348.619 233.505 341.639 256.559" stroke="#FB3505" stroke-opacity="0.3" stroke-width="20"/>
<ellipse cx="219.611" cy="220.113" rx="7.5" ry="8" fill="#2C2C2C"/>
<line x1="218.862" y1="218.679" x2="305.862" y2="168.679" stroke="#2C2C2C"/>
<line x1="219.5" y1="219.998" x2="219.946" y2="320.341" stroke="#2C2C2C"/>
<line x1="218.439" y1="220.249" x2="131.747" y2="169.431" stroke="#2C2C2C"/>
<ellipse cx="219.5" cy="318" rx="7.5" ry="8" fill="#5F0564"/>
<path d="M193.766 397H190.133V382.891H185.48V379.867H198.418V382.891H193.766V397ZM208.086 383.652C208.266 383.652 208.473 383.664 208.707 383.688C208.949 383.703 209.145 383.727 209.293 383.758L209.023 387.109C208.906 387.07 208.738 387.043 208.52 387.027C208.309 387.004 208.125 386.992 207.969 386.992C207.508 386.992 207.059 387.051 206.621 387.168C206.191 387.285 205.805 387.477 205.461 387.742C205.117 388 204.844 388.344 204.641 388.773C204.445 389.195 204.348 389.715 204.348 390.332V397H200.773V383.898H203.48L204.008 386.102H204.184C204.441 385.656 204.762 385.25 205.145 384.883C205.535 384.508 205.977 384.211 206.469 383.992C206.969 383.766 207.508 383.652 208.086 383.652ZM215.246 383.898V397H211.672V383.898H215.246ZM213.465 378.766C213.996 378.766 214.453 378.891 214.836 379.141C215.219 379.383 215.41 379.84 215.41 380.512C215.41 381.176 215.219 381.637 214.836 381.895C214.453 382.145 213.996 382.27 213.465 382.27C212.926 382.27 212.465 382.145 212.082 381.895C211.707 381.637 211.52 381.176 211.52 380.512C211.52 379.84 211.707 379.383 212.082 379.141C212.465 378.891 212.926 378.766 213.465 378.766ZM223.156 397.234C221.695 397.234 220.504 396.664 219.582 395.523C218.668 394.375 218.211 392.691 218.211 390.473C218.211 388.23 218.676 386.535 219.605 385.387C220.535 384.23 221.75 383.652 223.25 383.652C223.875 383.652 224.426 383.738 224.902 383.91C225.379 384.082 225.789 384.312 226.133 384.602C226.484 384.891 226.781 385.215 227.023 385.574H227.141C227.094 385.324 227.035 384.957 226.965 384.473C226.902 383.98 226.871 383.477 226.871 382.961V378.766H230.457V397H227.715L227.023 395.301H226.871C226.645 395.66 226.359 395.988 226.016 396.285C225.68 396.574 225.277 396.805 224.809 396.977C224.34 397.148 223.789 397.234 223.156 397.234ZM224.41 394.387C225.387 394.387 226.074 394.098 226.473 393.52C226.879 392.934 227.094 392.055 227.117 390.883V390.496C227.117 389.223 226.922 388.25 226.531 387.578C226.141 386.898 225.414 386.559 224.352 386.559C223.562 386.559 222.945 386.898 222.5 387.578C222.055 388.258 221.832 389.238 221.832 390.52C221.832 391.801 222.055 392.766 222.5 393.414C222.953 394.062 223.59 394.387 224.41 394.387ZM237.77 383.898V397H234.195V383.898H237.77ZM235.988 378.766C236.52 378.766 236.977 378.891 237.359 379.141C237.742 379.383 237.934 379.84 237.934 380.512C237.934 381.176 237.742 381.637 237.359 381.895C236.977 382.145 236.52 382.27 235.988 382.27C235.449 382.27 234.988 382.145 234.605 381.895C234.23 381.637 234.043 381.176 234.043 380.512C234.043 379.84 234.23 379.383 234.605 379.141C234.988 378.891 235.449 378.766 235.988 378.766ZM246.852 397.234C245.555 397.234 244.449 397 243.535 396.531C242.621 396.055 241.926 395.32 241.449 394.328C240.973 393.336 240.734 392.066 240.734 390.52C240.734 388.918 241.004 387.613 241.543 386.605C242.09 385.59 242.844 384.844 243.805 384.367C244.773 383.891 245.895 383.652 247.168 383.652C248.074 383.652 248.855 383.742 249.512 383.922C250.176 384.094 250.754 384.301 251.246 384.543L250.191 387.309C249.629 387.082 249.105 386.898 248.621 386.758C248.137 386.609 247.652 386.535 247.168 386.535C246.543 386.535 246.023 386.684 245.609 386.98C245.195 387.27 244.887 387.707 244.684 388.293C244.48 388.879 244.379 389.613 244.379 390.496C244.379 391.363 244.488 392.082 244.707 392.652C244.926 393.223 245.242 393.648 245.656 393.93C246.07 394.203 246.574 394.34 247.168 394.34C247.91 394.34 248.57 394.242 249.148 394.047C249.727 393.844 250.289 393.562 250.836 393.203V396.262C250.289 396.605 249.715 396.852 249.113 397C248.52 397.156 247.766 397.234 246.852 397.234Z" fill="black"/>
<ellipse cx="132.5" cy="169" rx="7.5" ry="8" fill="#399806"/>
<ellipse cx="303.5" cy="169" rx="7.5" ry="8" fill="#FE6606"/>
</svg>
