<svg width="1076" height="944" viewBox="0 0 1076 944" fill="none" xmlns="http://www.w3.org/2000/svg">
<path d="M351.072 34.1855L357.91 21.3008H361.127L352.566 37.0332V47H349.578V37.1738L341 21.3008H344.27L351.072 34.1855ZM380.832 37.332C380.832 38.9141 380.627 40.3262 380.217 41.5684C379.807 42.8105 379.215 43.8594 378.441 44.7148C377.668 45.5703 376.73 46.2266 375.629 46.6836C374.539 47.1289 373.303 47.3516 371.92 47.3516C370.631 47.3516 369.447 47.1289 368.369 46.6836C367.303 46.2266 366.377 45.5703 365.592 44.7148C364.818 43.8594 364.215 42.8105 363.781 41.5684C363.359 40.3262 363.148 38.9141 363.148 37.332C363.148 35.2227 363.506 33.4297 364.221 31.9531C364.936 30.4648 365.955 29.334 367.279 28.5605C368.615 27.7754 370.203 27.3828 372.043 27.3828C373.801 27.3828 375.336 27.7754 376.648 28.5605C377.973 29.3457 378.998 30.4824 379.725 31.9707C380.463 33.4473 380.832 35.2344 380.832 37.332ZM366.172 37.332C366.172 38.8789 366.377 40.2207 366.787 41.3574C367.197 42.4941 367.83 43.373 368.686 43.9941C369.541 44.6152 370.643 44.9258 371.99 44.9258C373.326 44.9258 374.422 44.6152 375.277 43.9941C376.145 43.373 376.783 42.4941 377.193 41.3574C377.604 40.2207 377.809 38.8789 377.809 37.332C377.809 35.7969 377.604 34.4727 377.193 33.3594C376.783 32.2344 376.15 31.3672 375.295 30.7578C374.439 30.1484 373.332 29.8438 371.973 29.8438C369.969 29.8438 368.498 30.5059 367.561 31.8301C366.635 33.1543 366.172 34.9883 366.172 37.332ZM401.785 27.7344V47H399.395L398.973 44.293H398.814C398.416 44.9609 397.9 45.5234 397.268 45.9805C396.635 46.4375 395.92 46.7773 395.123 47C394.338 47.2344 393.5 47.3516 392.609 47.3516C391.086 47.3516 389.809 47.1055 388.777 46.6133C387.746 46.1211 386.967 45.3594 386.439 44.3281C385.924 43.2969 385.666 41.9727 385.666 40.3555V27.7344H388.619V40.1445C388.619 41.75 388.982 42.9512 389.709 43.748C390.436 44.5332 391.543 44.9258 393.031 44.9258C394.461 44.9258 395.598 44.6562 396.441 44.1172C397.297 43.5781 397.912 42.7871 398.287 41.7441C398.662 40.6895 398.85 39.4004 398.85 37.877V27.7344H401.785ZM414.178 44.9609C414.658 44.9609 415.15 44.9199 415.654 44.8379C416.158 44.7559 416.568 44.6562 416.885 44.5391V46.8066C416.545 46.959 416.07 47.0879 415.461 47.1934C414.863 47.2988 414.277 47.3516 413.703 47.3516C412.684 47.3516 411.758 47.1758 410.926 46.8242C410.094 46.4609 409.426 45.8516 408.922 44.9961C408.43 44.1406 408.184 42.957 408.184 41.4453V30.0195H405.441V28.5957L408.201 27.4531L409.361 23.2695H411.119V27.7344H416.762V30.0195H411.119V41.3574C411.119 42.5645 411.395 43.4668 411.945 44.0645C412.508 44.6621 413.252 44.9609 414.178 44.9609ZM436.695 27.7344V47H434.305L433.883 44.293H433.725C433.326 44.9609 432.811 45.5234 432.178 45.9805C431.545 46.4375 430.83 46.7773 430.033 47C429.248 47.2344 428.41 47.3516 427.52 47.3516C425.996 47.3516 424.719 47.1055 423.688 46.6133C422.656 46.1211 421.877 45.3594 421.35 44.3281C420.834 43.2969 420.576 41.9727 420.576 40.3555V27.7344H423.529V40.1445C423.529 41.75 423.893 42.9512 424.619 43.748C425.346 44.5332 426.453 44.9258 427.941 44.9258C429.371 44.9258 430.508 44.6562 431.352 44.1172C432.207 43.5781 432.822 42.7871 433.197 41.7441C433.572 40.6895 433.76 39.4004 433.76 37.877V27.7344H436.695ZM445.783 19.6484V26.4863C445.783 27.2715 445.76 28.0332 445.713 28.7715C445.678 29.5098 445.648 30.084 445.625 30.4941H445.783C446.311 29.627 447.072 28.8945 448.068 28.2969C449.064 27.6992 450.336 27.4004 451.883 27.4004C454.297 27.4004 456.219 28.2383 457.648 29.9141C459.09 31.5781 459.811 34.0566 459.811 37.3496C459.811 39.5176 459.482 41.3457 458.826 42.834C458.17 44.3223 457.244 45.4473 456.049 46.209C454.854 46.9707 453.441 47.3516 451.812 47.3516C450.289 47.3516 449.035 47.0703 448.051 46.5078C447.078 45.9336 446.328 45.2363 445.801 44.416H445.572L444.975 47H442.865V19.6484H445.783ZM451.408 29.8438C450.014 29.8438 448.906 30.1191 448.086 30.6699C447.266 31.209 446.674 32.0293 446.311 33.1309C445.959 34.2207 445.783 35.6035 445.783 37.2793V37.4375C445.783 39.8633 446.188 41.7207 446.996 43.0098C447.805 44.2871 449.275 44.9258 451.408 44.9258C453.201 44.9258 454.543 44.2695 455.434 42.957C456.336 41.6445 456.787 39.7695 456.787 37.332C456.787 34.8477 456.342 32.9785 455.451 31.7246C454.572 30.4707 453.225 29.8438 451.408 29.8438ZM472.326 27.3828C473.967 27.3828 475.373 27.7461 476.545 28.4727C477.717 29.1992 478.613 30.2188 479.234 31.5312C479.855 32.832 480.166 34.3555 480.166 36.1016V37.9121H466.859C466.895 40.1738 467.457 41.8965 468.547 43.0801C469.637 44.2637 471.172 44.8555 473.152 44.8555C474.371 44.8555 475.449 44.7441 476.387 44.5215C477.324 44.2988 478.297 43.9707 479.305 43.5371V46.1035C478.332 46.5371 477.365 46.8535 476.404 47.0527C475.455 47.252 474.33 47.3516 473.029 47.3516C471.178 47.3516 469.561 46.9766 468.178 46.2266C466.807 45.4648 465.74 44.3516 464.979 42.8867C464.217 41.4219 463.836 39.6289 463.836 37.5078C463.836 35.4336 464.182 33.6406 464.873 32.1289C465.576 30.6055 466.561 29.4336 467.826 28.6133C469.104 27.793 470.604 27.3828 472.326 27.3828ZM472.291 29.7734C470.732 29.7734 469.49 30.2832 468.564 31.3027C467.639 32.3223 467.088 33.7461 466.912 35.5742H477.107C477.096 34.4258 476.914 33.418 476.562 32.5508C476.223 31.6719 475.701 30.9922 474.998 30.5117C474.295 30.0195 473.393 29.7734 472.291 29.7734Z" fill="black"/>
<path d="M62.2305 204.301C65.5469 204.301 67.9668 204.951 69.4902 206.252C71.0254 207.541 71.793 209.393 71.793 211.807C71.793 212.896 71.6113 213.934 71.248 214.918C70.8965 215.891 70.3223 216.752 69.5254 217.502C68.7285 218.24 67.6797 218.826 66.3789 219.26C65.0898 219.682 63.5078 219.893 61.6328 219.893H58.5039V230H55.5156V204.301H62.2305ZM61.9492 206.85H58.5039V217.326H61.2988C62.9395 217.326 64.3047 217.15 65.3945 216.799C66.4961 216.447 67.3223 215.879 67.873 215.094C68.4238 214.297 68.6992 213.242 68.6992 211.93C68.6992 210.219 68.1543 208.947 67.0645 208.115C65.9746 207.271 64.2695 206.85 61.9492 206.85ZM85.4863 210.383C85.873 210.383 86.2773 210.406 86.6992 210.453C87.1211 210.488 87.4961 210.541 87.8242 210.611L87.4551 213.318C87.1387 213.236 86.7871 213.172 86.4004 213.125C86.0137 213.078 85.6504 213.055 85.3105 213.055C84.5371 213.055 83.8047 213.213 83.1133 213.529C82.4336 213.834 81.8359 214.279 81.3203 214.865C80.8047 215.439 80.4004 216.137 80.1074 216.957C79.8145 217.766 79.668 218.668 79.668 219.664V230H76.7324V210.734H79.1582L79.4746 214.285H79.5977C79.9961 213.57 80.4766 212.92 81.0391 212.334C81.6016 211.736 82.252 211.262 82.9902 210.91C83.7402 210.559 84.5723 210.383 85.4863 210.383ZM94.3809 210.734V230H91.4629V210.734H94.3809ZM92.957 203.527C93.4375 203.527 93.8477 203.686 94.1875 204.002C94.5391 204.307 94.7148 204.787 94.7148 205.443C94.7148 206.088 94.5391 206.568 94.1875 206.885C93.8477 207.201 93.4375 207.359 92.957 207.359C92.4531 207.359 92.0312 207.201 91.6914 206.885C91.3633 206.568 91.1992 206.088 91.1992 205.443C91.1992 204.787 91.3633 204.307 91.6914 204.002C92.0312 203.686 92.4531 203.527 92.957 203.527ZM121.486 210.383C123.607 210.383 125.207 210.939 126.285 212.053C127.363 213.154 127.902 214.93 127.902 217.379V230H125.02V217.52C125.02 215.961 124.68 214.795 124 214.021C123.332 213.236 122.336 212.844 121.012 212.844C119.148 212.844 117.795 213.383 116.951 214.461C116.107 215.539 115.686 217.127 115.686 219.225V230H112.785V217.52C112.785 216.477 112.633 215.609 112.328 214.918C112.035 214.227 111.59 213.711 110.992 213.371C110.406 213.02 109.662 212.844 108.76 212.844C107.482 212.844 106.457 213.107 105.684 213.635C104.91 214.162 104.348 214.947 103.996 215.99C103.656 217.021 103.486 218.293 103.486 219.805V230H100.568V210.734H102.924L103.363 213.459H103.521C103.908 212.791 104.395 212.229 104.98 211.771C105.566 211.314 106.223 210.969 106.949 210.734C107.676 210.5 108.449 210.383 109.27 210.383C110.734 210.383 111.959 210.658 112.943 211.209C113.939 211.748 114.66 212.574 115.105 213.688H115.264C115.896 212.574 116.764 211.748 117.865 211.209C118.967 210.658 120.174 210.383 121.486 210.383ZM141.104 210.418C143.4 210.418 145.105 210.934 146.219 211.965C147.332 212.996 147.889 214.643 147.889 216.904V230H145.762L145.199 227.152H145.059C144.52 227.855 143.957 228.447 143.371 228.928C142.785 229.396 142.105 229.754 141.332 230C140.57 230.234 139.633 230.352 138.52 230.352C137.348 230.352 136.305 230.146 135.391 229.736C134.488 229.326 133.773 228.705 133.246 227.873C132.73 227.041 132.473 225.986 132.473 224.709C132.473 222.787 133.234 221.311 134.758 220.279C136.281 219.248 138.602 218.686 141.719 218.592L145.041 218.451V217.273C145.041 215.609 144.684 214.443 143.969 213.775C143.254 213.107 142.246 212.773 140.945 212.773C139.938 212.773 138.977 212.92 138.062 213.213C137.148 213.506 136.281 213.852 135.461 214.25L134.564 212.035C135.432 211.59 136.428 211.209 137.553 210.893C138.678 210.576 139.861 210.418 141.104 210.418ZM145.006 220.508L142.07 220.631C139.668 220.725 137.975 221.117 136.99 221.809C136.006 222.5 135.514 223.479 135.514 224.744C135.514 225.846 135.848 226.66 136.516 227.188C137.184 227.715 138.068 227.979 139.17 227.979C140.881 227.979 142.281 227.504 143.371 226.555C144.461 225.605 145.006 224.182 145.006 222.283V220.508ZM162.654 210.383C163.041 210.383 163.445 210.406 163.867 210.453C164.289 210.488 164.664 210.541 164.992 210.611L164.623 213.318C164.307 213.236 163.955 213.172 163.568 213.125C163.182 213.078 162.818 213.055 162.479 213.055C161.705 213.055 160.973 213.213 160.281 213.529C159.602 213.834 159.004 214.279 158.488 214.865C157.973 215.439 157.568 216.137 157.275 216.957C156.982 217.766 156.836 218.668 156.836 219.664V230H153.9V210.734H156.326L156.643 214.285H156.766C157.164 213.57 157.645 212.92 158.207 212.334C158.77 211.736 159.42 211.262 160.158 210.91C160.908 210.559 161.74 210.383 162.654 210.383ZM165.59 210.734H168.719L172.973 221.914C173.219 222.57 173.447 223.203 173.658 223.812C173.869 224.41 174.057 224.984 174.221 225.535C174.385 226.086 174.514 226.619 174.607 227.135H174.73C174.895 226.549 175.129 225.781 175.434 224.832C175.738 223.871 176.066 222.893 176.418 221.896L180.443 210.734H183.59L175.205 232.83C174.76 234.014 174.238 235.045 173.641 235.924C173.055 236.803 172.34 237.477 171.496 237.945C170.652 238.426 169.633 238.666 168.438 238.666C167.887 238.666 167.4 238.631 166.979 238.561C166.557 238.502 166.193 238.432 165.889 238.35V236.012C166.146 236.07 166.457 236.123 166.82 236.17C167.195 236.217 167.582 236.24 167.98 236.24C168.707 236.24 169.334 236.1 169.861 235.818C170.4 235.549 170.863 235.15 171.25 234.623C171.637 234.096 171.971 233.469 172.252 232.742L173.307 230.035L165.59 210.734ZM207.443 206.568C206.025 206.568 204.748 206.814 203.611 207.307C202.486 207.787 201.525 208.49 200.729 209.416C199.943 210.33 199.34 211.438 198.918 212.738C198.496 214.039 198.285 215.504 198.285 217.133C198.285 219.289 198.619 221.164 199.287 222.758C199.967 224.34 200.975 225.564 202.311 226.432C203.658 227.299 205.34 227.732 207.355 227.732C208.504 227.732 209.582 227.639 210.59 227.451C211.609 227.252 212.6 227.006 213.561 226.713V229.314C212.623 229.666 211.639 229.924 210.607 230.088C209.576 230.264 208.352 230.352 206.934 230.352C204.32 230.352 202.135 229.812 200.377 228.734C198.631 227.645 197.318 226.109 196.439 224.129C195.572 222.148 195.139 219.811 195.139 217.115C195.139 215.17 195.408 213.395 195.947 211.789C196.498 210.172 197.295 208.777 198.338 207.605C199.393 206.434 200.682 205.531 202.205 204.898C203.74 204.254 205.498 203.932 207.479 203.932C208.779 203.932 210.033 204.061 211.24 204.318C212.447 204.576 213.537 204.945 214.51 205.426L213.314 207.957C212.494 207.582 211.592 207.26 210.607 206.99C209.635 206.709 208.58 206.568 207.443 206.568ZM235.305 220.332C235.305 221.914 235.1 223.326 234.689 224.568C234.279 225.811 233.688 226.859 232.914 227.715C232.141 228.57 231.203 229.227 230.102 229.684C229.012 230.129 227.775 230.352 226.393 230.352C225.104 230.352 223.92 230.129 222.842 229.684C221.775 229.227 220.85 228.57 220.064 227.715C219.291 226.859 218.688 225.811 218.254 224.568C217.832 223.326 217.621 221.914 217.621 220.332C217.621 218.223 217.979 216.43 218.693 214.953C219.408 213.465 220.428 212.334 221.752 211.561C223.088 210.775 224.676 210.383 226.516 210.383C228.273 210.383 229.809 210.775 231.121 211.561C232.445 212.346 233.471 213.482 234.197 214.971C234.936 216.447 235.305 218.234 235.305 220.332ZM220.645 220.332C220.645 221.879 220.85 223.221 221.26 224.357C221.67 225.494 222.303 226.373 223.158 226.994C224.014 227.615 225.115 227.926 226.463 227.926C227.799 227.926 228.895 227.615 229.75 226.994C230.617 226.373 231.256 225.494 231.666 224.357C232.076 223.221 232.281 221.879 232.281 220.332C232.281 218.797 232.076 217.473 231.666 216.359C231.256 215.234 230.623 214.367 229.768 213.758C228.912 213.148 227.805 212.844 226.445 212.844C224.441 212.844 222.971 213.506 222.033 214.83C221.107 216.154 220.645 217.988 220.645 220.332ZM243.285 230H240.35V202.648H243.285V230ZM266.066 220.332C266.066 221.914 265.861 223.326 265.451 224.568C265.041 225.811 264.449 226.859 263.676 227.715C262.902 228.57 261.965 229.227 260.863 229.684C259.773 230.129 258.537 230.352 257.154 230.352C255.865 230.352 254.682 230.129 253.604 229.684C252.537 229.227 251.611 228.57 250.826 227.715C250.053 226.859 249.449 225.811 249.016 224.568C248.594 223.326 248.383 221.914 248.383 220.332C248.383 218.223 248.74 216.43 249.455 214.953C250.17 213.465 251.189 212.334 252.514 211.561C253.85 210.775 255.438 210.383 257.277 210.383C259.035 210.383 260.57 210.775 261.883 211.561C263.207 212.346 264.232 213.482 264.959 214.971C265.697 216.447 266.066 218.234 266.066 220.332ZM251.406 220.332C251.406 221.879 251.611 223.221 252.021 224.357C252.432 225.494 253.064 226.373 253.92 226.994C254.775 227.615 255.877 227.926 257.225 227.926C258.561 227.926 259.656 227.615 260.512 226.994C261.379 226.373 262.018 225.494 262.428 224.357C262.838 223.221 263.043 221.879 263.043 220.332C263.043 218.797 262.838 217.473 262.428 216.359C262.018 215.234 261.385 214.367 260.529 213.758C259.674 213.148 258.566 212.844 257.207 212.844C255.203 212.844 253.732 213.506 252.795 214.83C251.869 216.154 251.406 217.988 251.406 220.332ZM279.865 210.383C280.252 210.383 280.656 210.406 281.078 210.453C281.5 210.488 281.875 210.541 282.203 210.611L281.834 213.318C281.518 213.236 281.166 213.172 280.779 213.125C280.393 213.078 280.029 213.055 279.689 213.055C278.916 213.055 278.184 213.213 277.492 213.529C276.812 213.834 276.215 214.279 275.699 214.865C275.184 215.439 274.779 216.137 274.486 216.957C274.193 217.766 274.047 218.668 274.047 219.664V230H271.111V210.734H273.537L273.854 214.285H273.977C274.375 213.57 274.855 212.92 275.418 212.334C275.98 211.736 276.631 211.262 277.369 210.91C278.119 210.559 278.951 210.383 279.865 210.383ZM298.305 224.727C298.305 225.957 297.994 226.994 297.373 227.838C296.764 228.67 295.885 229.297 294.736 229.719C293.6 230.141 292.24 230.352 290.658 230.352C289.311 230.352 288.145 230.246 287.16 230.035C286.176 229.824 285.314 229.525 284.576 229.139V226.449C285.361 226.836 286.299 227.188 287.389 227.504C288.479 227.82 289.592 227.979 290.729 227.979C292.393 227.979 293.6 227.709 294.35 227.17C295.1 226.631 295.475 225.898 295.475 224.973C295.475 224.445 295.322 223.982 295.018 223.584C294.725 223.174 294.227 222.781 293.523 222.406C292.82 222.02 291.848 221.598 290.605 221.141C289.375 220.672 288.309 220.209 287.406 219.752C286.516 219.283 285.824 218.715 285.332 218.047C284.852 217.379 284.611 216.512 284.611 215.445C284.611 213.816 285.268 212.568 286.58 211.701C287.904 210.822 289.639 210.383 291.783 210.383C292.943 210.383 294.027 210.5 295.035 210.734C296.055 210.957 297.004 211.262 297.883 211.648L296.898 213.986C296.102 213.646 295.252 213.359 294.35 213.125C293.447 212.891 292.527 212.773 291.59 212.773C290.242 212.773 289.205 212.996 288.479 213.441C287.764 213.887 287.406 214.496 287.406 215.27C287.406 215.867 287.57 216.359 287.898 216.746C288.238 217.133 288.777 217.496 289.516 217.836C290.254 218.176 291.227 218.574 292.434 219.031C293.641 219.477 294.684 219.939 295.562 220.42C296.441 220.889 297.115 221.463 297.584 222.143C298.064 222.811 298.305 223.672 298.305 224.727ZM302.559 228.172C302.559 227.352 302.758 226.771 303.156 226.432C303.555 226.08 304.041 225.904 304.615 225.904C305.213 225.904 305.717 226.08 306.127 226.432C306.537 226.771 306.742 227.352 306.742 228.172C306.742 228.98 306.537 229.572 306.127 229.947C305.717 230.311 305.213 230.492 304.615 230.492C304.041 230.492 303.555 230.311 303.156 229.947C302.758 229.572 302.559 228.98 302.559 228.172ZM302.559 212.58C302.559 211.736 302.758 211.145 303.156 210.805C303.555 210.453 304.041 210.277 304.615 210.277C305.213 210.277 305.717 210.453 306.127 210.805C306.537 211.145 306.742 211.736 306.742 212.58C306.742 213.377 306.537 213.957 306.127 214.32C305.717 214.684 305.213 214.865 304.615 214.865C304.041 214.865 303.555 214.684 303.156 214.32C302.758 213.957 302.559 213.377 302.559 212.58Z" fill="black"/>
<path d="M18.0176 652.162C18.0176 653.686 17.6367 654.986 16.875 656.064C16.125 657.131 15.0703 657.945 13.7109 658.508C12.3516 659.07 10.752 659.352 8.91211 659.352C7.93945 659.352 7.01953 659.305 6.15234 659.211C5.28516 659.117 4.48828 658.982 3.76172 658.807C3.03516 658.631 2.39648 658.414 1.8457 658.156V655.291C2.72461 655.654 3.79688 655.994 5.0625 656.311C6.32812 656.615 7.65234 656.768 9.03516 656.768C10.3242 656.768 11.4141 656.598 12.3047 656.258C13.1953 655.906 13.8691 655.408 14.3262 654.764C14.7949 654.107 15.0293 653.322 15.0293 652.408C15.0293 651.529 14.8359 650.797 14.4492 650.211C14.0625 649.613 13.418 649.074 12.5156 648.594C11.625 648.102 10.4062 647.58 8.85938 647.029C7.76953 646.643 6.80859 646.221 5.97656 645.764C5.14453 645.295 4.44727 644.768 3.88477 644.182C3.32227 643.596 2.89453 642.916 2.60156 642.143C2.32031 641.369 2.17969 640.484 2.17969 639.488C2.17969 638.117 2.52539 636.945 3.2168 635.973C3.91992 634.988 4.88672 634.238 6.11719 633.723C7.35938 633.195 8.7832 632.932 10.3887 632.932C11.7598 632.932 13.0254 633.061 14.1855 633.318C15.3574 633.576 16.4297 633.922 17.4023 634.355L16.4707 636.922C15.5449 636.535 14.5605 636.213 13.5176 635.955C12.4863 635.697 11.4199 635.568 10.3184 635.568C9.2168 635.568 8.28516 635.732 7.52344 636.061C6.77344 636.377 6.19922 636.828 5.80078 637.414C5.40234 638 5.20312 638.697 5.20312 639.506C5.20312 640.408 5.39062 641.158 5.76562 641.756C6.15234 642.354 6.76172 642.887 7.59375 643.355C8.4375 643.812 9.55078 644.293 10.9336 644.797C12.4453 645.348 13.7285 645.934 14.7832 646.555C15.8379 647.164 16.6406 647.914 17.1914 648.805C17.7422 649.684 18.0176 650.803 18.0176 652.162ZM30.252 639.383C31.8926 639.383 33.2988 639.746 34.4707 640.473C35.6426 641.199 36.5391 642.219 37.1602 643.531C37.7812 644.832 38.0918 646.355 38.0918 648.102V649.912H24.7852C24.8203 652.174 25.3828 653.896 26.4727 655.08C27.5625 656.264 29.0977 656.855 31.0781 656.855C32.2969 656.855 33.375 656.744 34.3125 656.521C35.25 656.299 36.2227 655.971 37.2305 655.537V658.104C36.2578 658.537 35.291 658.854 34.3301 659.053C33.3809 659.252 32.2559 659.352 30.9551 659.352C29.1035 659.352 27.4863 658.977 26.1035 658.227C24.7324 657.465 23.666 656.352 22.9043 654.887C22.1426 653.422 21.7617 651.629 21.7617 649.508C21.7617 647.434 22.1074 645.641 22.7988 644.129C23.502 642.605 24.4863 641.434 25.752 640.613C27.0293 639.793 28.5293 639.383 30.252 639.383ZM30.2168 641.773C28.6582 641.773 27.416 642.283 26.4902 643.303C25.5645 644.322 25.0137 645.746 24.8379 647.574H35.0332C35.0215 646.426 34.8398 645.418 34.4883 644.551C34.1484 643.672 33.627 642.992 32.9238 642.512C32.2207 642.02 31.3184 641.773 30.2168 641.773ZM50.7656 659.352C49.0312 659.352 47.502 658.994 46.1777 658.279C44.8535 657.564 43.8223 656.475 43.084 655.01C42.3457 653.545 41.9766 651.699 41.9766 649.473C41.9766 647.141 42.3633 645.236 43.1367 643.76C43.9219 642.271 45 641.17 46.3711 640.455C47.7422 639.74 49.3008 639.383 51.0469 639.383C52.0078 639.383 52.9336 639.482 53.8242 639.682C54.7266 639.869 55.4648 640.109 56.0391 640.402L55.1602 642.846C54.5742 642.611 53.8945 642.4 53.1211 642.213C52.3594 642.025 51.6445 641.932 50.9766 641.932C49.6406 641.932 48.5273 642.219 47.6367 642.793C46.7578 643.367 46.0957 644.211 45.6504 645.324C45.2168 646.438 45 647.809 45 649.438C45 650.996 45.2109 652.326 45.6328 653.428C46.0664 654.529 46.7051 655.373 47.5488 655.959C48.4043 656.533 49.4707 656.82 50.748 656.82C51.7676 656.82 52.6875 656.715 53.5078 656.504C54.3281 656.281 55.0723 656.023 55.7402 655.73V658.332C55.0957 658.66 54.375 658.912 53.5781 659.088C52.793 659.264 51.8555 659.352 50.7656 659.352ZM76.9219 649.332C76.9219 650.914 76.7168 652.326 76.3066 653.568C75.8965 654.811 75.3047 655.859 74.5312 656.715C73.7578 657.57 72.8203 658.227 71.7188 658.684C70.6289 659.129 69.3926 659.352 68.0098 659.352C66.7207 659.352 65.5371 659.129 64.459 658.684C63.3926 658.227 62.4668 657.57 61.6816 656.715C60.9082 655.859 60.3047 654.811 59.8711 653.568C59.4492 652.326 59.2383 650.914 59.2383 649.332C59.2383 647.223 59.5957 645.43 60.3105 643.953C61.0254 642.465 62.0449 641.334 63.3691 640.561C64.7051 639.775 66.293 639.383 68.1328 639.383C69.8906 639.383 71.4258 639.775 72.7383 640.561C74.0625 641.346 75.0879 642.482 75.8145 643.971C76.5527 645.447 76.9219 647.234 76.9219 649.332ZM62.2617 649.332C62.2617 650.879 62.4668 652.221 62.877 653.357C63.2871 654.494 63.9199 655.373 64.7754 655.994C65.6309 656.615 66.7324 656.926 68.0801 656.926C69.416 656.926 70.5117 656.615 71.3672 655.994C72.2344 655.373 72.873 654.494 73.2832 653.357C73.6934 652.221 73.8984 650.879 73.8984 649.332C73.8984 647.797 73.6934 646.473 73.2832 645.359C72.873 644.234 72.2402 643.367 71.3848 642.758C70.5293 642.148 69.4219 641.844 68.0625 641.844C66.0586 641.844 64.5879 642.506 63.6504 643.83C62.7246 645.154 62.2617 646.988 62.2617 649.332ZM91.0898 639.383C93.375 639.383 95.1035 639.945 96.2754 641.07C97.4473 642.184 98.0332 643.977 98.0332 646.449V659H95.1504V646.643C95.1504 645.037 94.7812 643.836 94.043 643.039C93.3164 642.242 92.1973 641.844 90.6855 641.844C88.5527 641.844 87.0527 642.447 86.1855 643.654C85.3184 644.861 84.8848 646.613 84.8848 648.91V659H81.9668V639.734H84.3223L84.7617 642.512H84.9199C85.3301 641.832 85.8516 641.264 86.4844 640.807C87.1172 640.338 87.8262 639.986 88.6113 639.752C89.3965 639.506 90.2227 639.383 91.0898 639.383ZM110.9 659.352C108.463 659.352 106.529 658.52 105.1 656.855C103.682 655.191 102.973 652.719 102.973 649.438C102.973 646.121 103.699 643.619 105.152 641.932C106.605 640.232 108.539 639.383 110.953 639.383C111.973 639.383 112.863 639.518 113.625 639.787C114.387 640.057 115.043 640.42 115.594 640.877C116.145 641.322 116.607 641.832 116.982 642.406H117.193C117.146 642.043 117.1 641.545 117.053 640.912C117.006 640.279 116.982 639.764 116.982 639.365V631.648H119.9V659H117.545L117.105 656.258H116.982C116.619 656.832 116.156 657.354 115.594 657.822C115.043 658.291 114.381 658.666 113.607 658.947C112.846 659.217 111.943 659.352 110.9 659.352ZM111.357 656.926C113.42 656.926 114.879 656.34 115.734 655.168C116.59 653.996 117.018 652.256 117.018 649.947V649.42C117.018 646.971 116.607 645.09 115.787 643.777C114.979 642.465 113.502 641.809 111.357 641.809C109.564 641.809 108.223 642.5 107.332 643.883C106.441 645.254 105.996 647.129 105.996 649.508C105.996 651.875 106.436 653.703 107.314 654.992C108.205 656.281 109.553 656.926 111.357 656.926ZM133.295 639.418C135.592 639.418 137.297 639.934 138.41 640.965C139.523 641.996 140.08 643.643 140.08 645.904V659H137.953L137.391 656.152H137.25C136.711 656.855 136.148 657.447 135.562 657.928C134.977 658.396 134.297 658.754 133.523 659C132.762 659.234 131.824 659.352 130.711 659.352C129.539 659.352 128.496 659.146 127.582 658.736C126.68 658.326 125.965 657.705 125.438 656.873C124.922 656.041 124.664 654.986 124.664 653.709C124.664 651.787 125.426 650.311 126.949 649.279C128.473 648.248 130.793 647.686 133.91 647.592L137.232 647.451V646.273C137.232 644.609 136.875 643.443 136.16 642.775C135.445 642.107 134.438 641.773 133.137 641.773C132.129 641.773 131.168 641.92 130.254 642.213C129.34 642.506 128.473 642.852 127.652 643.25L126.756 641.035C127.623 640.59 128.619 640.209 129.744 639.893C130.869 639.576 132.053 639.418 133.295 639.418ZM137.197 649.508L134.262 649.631C131.859 649.725 130.166 650.117 129.182 650.809C128.197 651.5 127.705 652.479 127.705 653.744C127.705 654.846 128.039 655.66 128.707 656.188C129.375 656.715 130.26 656.979 131.361 656.979C133.072 656.979 134.473 656.504 135.562 655.555C136.652 654.605 137.197 653.182 137.197 651.283V649.508ZM154.846 639.383C155.232 639.383 155.637 639.406 156.059 639.453C156.48 639.488 156.855 639.541 157.184 639.611L156.814 642.318C156.498 642.236 156.146 642.172 155.76 642.125C155.373 642.078 155.01 642.055 154.67 642.055C153.896 642.055 153.164 642.213 152.473 642.529C151.793 642.834 151.195 643.279 150.68 643.865C150.164 644.439 149.76 645.137 149.467 645.957C149.174 646.766 149.027 647.668 149.027 648.664V659H146.092V639.734H148.518L148.834 643.285H148.957C149.355 642.57 149.836 641.92 150.398 641.334C150.961 640.736 151.611 640.262 152.35 639.91C153.1 639.559 153.932 639.383 154.846 639.383ZM157.781 639.734H160.91L165.164 650.914C165.41 651.57 165.639 652.203 165.85 652.812C166.061 653.41 166.248 653.984 166.412 654.535C166.576 655.086 166.705 655.619 166.799 656.135H166.922C167.086 655.549 167.32 654.781 167.625 653.832C167.93 652.871 168.258 651.893 168.609 650.896L172.635 639.734H175.781L167.396 661.83C166.951 663.014 166.43 664.045 165.832 664.924C165.246 665.803 164.531 666.477 163.688 666.945C162.844 667.426 161.824 667.666 160.629 667.666C160.078 667.666 159.592 667.631 159.17 667.561C158.748 667.502 158.385 667.432 158.08 667.35V665.012C158.338 665.07 158.648 665.123 159.012 665.17C159.387 665.217 159.773 665.24 160.172 665.24C160.898 665.24 161.525 665.1 162.053 664.818C162.592 664.549 163.055 664.15 163.441 663.623C163.828 663.096 164.162 662.469 164.443 661.742L165.498 659.035L157.781 639.734ZM199.635 635.568C198.217 635.568 196.939 635.814 195.803 636.307C194.678 636.787 193.717 637.49 192.92 638.416C192.135 639.33 191.531 640.438 191.109 641.738C190.688 643.039 190.477 644.504 190.477 646.133C190.477 648.289 190.811 650.164 191.479 651.758C192.158 653.34 193.166 654.564 194.502 655.432C195.85 656.299 197.531 656.732 199.547 656.732C200.695 656.732 201.773 656.639 202.781 656.451C203.801 656.252 204.791 656.006 205.752 655.713V658.314C204.814 658.666 203.83 658.924 202.799 659.088C201.768 659.264 200.543 659.352 199.125 659.352C196.512 659.352 194.326 658.812 192.568 657.734C190.822 656.645 189.51 655.109 188.631 653.129C187.764 651.148 187.33 648.811 187.33 646.115C187.33 644.17 187.6 642.395 188.139 640.789C188.689 639.172 189.486 637.777 190.529 636.605C191.584 635.434 192.873 634.531 194.396 633.898C195.932 633.254 197.689 632.932 199.67 632.932C200.971 632.932 202.225 633.061 203.432 633.318C204.639 633.576 205.729 633.945 206.701 634.426L205.506 636.957C204.686 636.582 203.783 636.26 202.799 635.99C201.826 635.709 200.771 635.568 199.635 635.568ZM227.496 649.332C227.496 650.914 227.291 652.326 226.881 653.568C226.471 654.811 225.879 655.859 225.105 656.715C224.332 657.57 223.395 658.227 222.293 658.684C221.203 659.129 219.967 659.352 218.584 659.352C217.295 659.352 216.111 659.129 215.033 658.684C213.967 658.227 213.041 657.57 212.256 656.715C211.482 655.859 210.879 654.811 210.445 653.568C210.023 652.326 209.812 650.914 209.812 649.332C209.812 647.223 210.17 645.43 210.885 643.953C211.6 642.465 212.619 641.334 213.943 640.561C215.279 639.775 216.867 639.383 218.707 639.383C220.465 639.383 222 639.775 223.312 640.561C224.637 641.346 225.662 642.482 226.389 643.971C227.127 645.447 227.496 647.234 227.496 649.332ZM212.836 649.332C212.836 650.879 213.041 652.221 213.451 653.357C213.861 654.494 214.494 655.373 215.35 655.994C216.205 656.615 217.307 656.926 218.654 656.926C219.99 656.926 221.086 656.615 221.941 655.994C222.809 655.373 223.447 654.494 223.857 653.357C224.268 652.221 224.473 650.879 224.473 649.332C224.473 647.797 224.268 646.473 223.857 645.359C223.447 644.234 222.814 643.367 221.959 642.758C221.104 642.148 219.996 641.844 218.637 641.844C216.633 641.844 215.162 642.506 214.225 643.83C213.299 645.154 212.836 646.988 212.836 649.332ZM235.477 659H232.541V631.648H235.477V659ZM258.258 649.332C258.258 650.914 258.053 652.326 257.643 653.568C257.232 654.811 256.641 655.859 255.867 656.715C255.094 657.57 254.156 658.227 253.055 658.684C251.965 659.129 250.729 659.352 249.346 659.352C248.057 659.352 246.873 659.129 245.795 658.684C244.729 658.227 243.803 657.57 243.018 656.715C242.244 655.859 241.641 654.811 241.207 653.568C240.785 652.326 240.574 650.914 240.574 649.332C240.574 647.223 240.932 645.43 241.646 643.953C242.361 642.465 243.381 641.334 244.705 640.561C246.041 639.775 247.629 639.383 249.469 639.383C251.227 639.383 252.762 639.775 254.074 640.561C255.398 641.346 256.424 642.482 257.15 643.971C257.889 645.447 258.258 647.234 258.258 649.332ZM243.598 649.332C243.598 650.879 243.803 652.221 244.213 653.357C244.623 654.494 245.256 655.373 246.111 655.994C246.967 656.615 248.068 656.926 249.416 656.926C250.752 656.926 251.848 656.615 252.703 655.994C253.57 655.373 254.209 654.494 254.619 653.357C255.029 652.221 255.234 650.879 255.234 649.332C255.234 647.797 255.029 646.473 254.619 645.359C254.209 644.234 253.576 643.367 252.721 642.758C251.865 642.148 250.758 641.844 249.398 641.844C247.395 641.844 245.924 642.506 244.986 643.83C244.061 645.154 243.598 646.988 243.598 649.332ZM272.057 639.383C272.443 639.383 272.848 639.406 273.27 639.453C273.691 639.488 274.066 639.541 274.395 639.611L274.025 642.318C273.709 642.236 273.357 642.172 272.971 642.125C272.584 642.078 272.221 642.055 271.881 642.055C271.107 642.055 270.375 642.213 269.684 642.529C269.004 642.834 268.406 643.279 267.891 643.865C267.375 644.439 266.971 645.137 266.678 645.957C266.385 646.766 266.238 647.668 266.238 648.664V659H263.303V639.734H265.729L266.045 643.285H266.168C266.566 642.57 267.047 641.92 267.609 641.334C268.172 640.736 268.822 640.262 269.561 639.91C270.311 639.559 271.143 639.383 272.057 639.383ZM290.496 653.727C290.496 654.957 290.186 655.994 289.564 656.838C288.955 657.67 288.076 658.297 286.928 658.719C285.791 659.141 284.432 659.352 282.85 659.352C281.502 659.352 280.336 659.246 279.352 659.035C278.367 658.824 277.506 658.525 276.768 658.139V655.449C277.553 655.836 278.49 656.188 279.58 656.504C280.67 656.82 281.783 656.979 282.92 656.979C284.584 656.979 285.791 656.709 286.541 656.17C287.291 655.631 287.666 654.898 287.666 653.973C287.666 653.445 287.514 652.982 287.209 652.584C286.916 652.174 286.418 651.781 285.715 651.406C285.012 651.02 284.039 650.598 282.797 650.141C281.566 649.672 280.5 649.209 279.598 648.752C278.707 648.283 278.016 647.715 277.523 647.047C277.043 646.379 276.803 645.512 276.803 644.445C276.803 642.816 277.459 641.568 278.771 640.701C280.096 639.822 281.83 639.383 283.975 639.383C285.135 639.383 286.219 639.5 287.227 639.734C288.246 639.957 289.195 640.262 290.074 640.648L289.09 642.986C288.293 642.646 287.443 642.359 286.541 642.125C285.639 641.891 284.719 641.773 283.781 641.773C282.434 641.773 281.396 641.996 280.67 642.441C279.955 642.887 279.598 643.496 279.598 644.27C279.598 644.867 279.762 645.359 280.09 645.746C280.43 646.133 280.969 646.496 281.707 646.836C282.445 647.176 283.418 647.574 284.625 648.031C285.832 648.477 286.875 648.939 287.754 649.42C288.633 649.889 289.307 650.463 289.775 651.143C290.256 651.811 290.496 652.672 290.496 653.727ZM294.75 657.172C294.75 656.352 294.949 655.771 295.348 655.432C295.746 655.08 296.232 654.904 296.807 654.904C297.404 654.904 297.908 655.08 298.318 655.432C298.729 655.771 298.934 656.352 298.934 657.172C298.934 657.98 298.729 658.572 298.318 658.947C297.908 659.311 297.404 659.492 296.807 659.492C296.232 659.492 295.746 659.311 295.348 658.947C294.949 658.572 294.75 657.98 294.75 657.172ZM294.75 641.58C294.75 640.736 294.949 640.145 295.348 639.805C295.746 639.453 296.232 639.277 296.807 639.277C297.404 639.277 297.908 639.453 298.318 639.805C298.729 640.145 298.934 640.736 298.934 641.58C298.934 642.377 298.729 642.957 298.318 643.32C297.908 643.684 297.404 643.865 296.807 643.865C296.232 643.865 295.746 643.684 295.348 643.32C294.949 642.957 294.75 642.377 294.75 641.58Z" fill="black"/>
<path d="M882.23 12.3008C885.547 12.3008 887.967 12.9512 889.49 14.252C891.025 15.541 891.793 17.3926 891.793 19.8066C891.793 20.8965 891.611 21.9336 891.248 22.918C890.896 23.8906 890.322 24.752 889.525 25.502C888.729 26.2402 887.68 26.8262 886.379 27.2598C885.09 27.6816 883.508 27.8926 881.633 27.8926H878.504V38H875.516V12.3008H882.23ZM881.949 14.8496H878.504V25.3262H881.299C882.939 25.3262 884.305 25.1504 885.395 24.7988C886.496 24.4473 887.322 23.8789 887.873 23.0938C888.424 22.2969 888.699 21.2422 888.699 19.9297C888.699 18.2188 888.154 16.9473 887.064 16.1152C885.975 15.2715 884.27 14.8496 881.949 14.8496ZM899.65 18.7344V38H896.732V18.7344H899.65ZM898.227 11.5273C898.707 11.5273 899.117 11.6855 899.457 12.002C899.809 12.3066 899.984 12.7871 899.984 13.4434C899.984 14.0879 899.809 14.5684 899.457 14.8848C899.117 15.2012 898.707 15.3594 898.227 15.3594C897.723 15.3594 897.301 15.2012 896.961 14.8848C896.633 14.5684 896.469 14.0879 896.469 13.4434C896.469 12.7871 896.633 12.3066 896.961 12.002C897.301 11.6855 897.723 11.5273 898.227 11.5273ZM914.961 18.3828C917.246 18.3828 918.975 18.9453 920.146 20.0703C921.318 21.1836 921.904 22.9766 921.904 25.4492V38H919.021V25.6426C919.021 24.0371 918.652 22.8359 917.914 22.0391C917.188 21.2422 916.068 20.8438 914.557 20.8438C912.424 20.8438 910.924 21.4473 910.057 22.6543C909.189 23.8613 908.756 25.6133 908.756 27.9102V38H905.838V18.7344H908.193L908.633 21.5117H908.791C909.201 20.832 909.723 20.2637 910.355 19.8066C910.988 19.3379 911.697 18.9863 912.482 18.752C913.268 18.5059 914.094 18.3828 914.961 18.3828ZM934.139 35.9609C934.619 35.9609 935.111 35.9199 935.615 35.8379C936.119 35.7559 936.529 35.6562 936.846 35.5391V37.8066C936.506 37.959 936.031 38.0879 935.422 38.1934C934.824 38.2988 934.238 38.3516 933.664 38.3516C932.645 38.3516 931.719 38.1758 930.887 37.8242C930.055 37.4609 929.387 36.8516 928.883 35.9961C928.391 35.1406 928.145 33.957 928.145 32.4453V21.0195H925.402V19.5957L928.162 18.4531L929.322 14.2695H931.08V18.7344H936.723V21.0195H931.08V32.3574C931.08 33.5645 931.355 34.4668 931.906 35.0645C932.469 35.6621 933.213 35.9609 934.139 35.9609ZM948.166 18.3828C949.807 18.3828 951.213 18.7461 952.385 19.4727C953.557 20.1992 954.453 21.2188 955.074 22.5312C955.695 23.832 956.006 25.3555 956.006 27.1016V28.9121H942.699C942.734 31.1738 943.297 32.8965 944.387 34.0801C945.477 35.2637 947.012 35.8555 948.992 35.8555C950.211 35.8555 951.289 35.7441 952.227 35.5215C953.164 35.2988 954.137 34.9707 955.145 34.5371V37.1035C954.172 37.5371 953.205 37.8535 952.244 38.0527C951.295 38.252 950.17 38.3516 948.869 38.3516C947.018 38.3516 945.4 37.9766 944.018 37.2266C942.646 36.4648 941.58 35.3516 940.818 33.8867C940.057 32.4219 939.676 30.6289 939.676 28.5078C939.676 26.4336 940.021 24.6406 940.713 23.1289C941.416 21.6055 942.4 20.4336 943.666 19.6133C944.943 18.793 946.443 18.3828 948.166 18.3828ZM948.131 20.7734C946.572 20.7734 945.33 21.2832 944.404 22.3027C943.479 23.3223 942.928 24.7461 942.752 26.5742H952.947C952.936 25.4258 952.754 24.418 952.402 23.5508C952.062 22.6719 951.541 21.9922 950.838 21.5117C950.135 21.0195 949.232 20.7734 948.131 20.7734ZM969.717 18.3828C970.104 18.3828 970.508 18.4062 970.93 18.4531C971.352 18.4883 971.727 18.541 972.055 18.6113L971.686 21.3184C971.369 21.2363 971.018 21.1719 970.631 21.125C970.244 21.0781 969.881 21.0547 969.541 21.0547C968.768 21.0547 968.035 21.2129 967.344 21.5293C966.664 21.834 966.066 22.2793 965.551 22.8652C965.035 23.4395 964.631 24.1367 964.338 24.957C964.045 25.7656 963.898 26.668 963.898 27.6641V38H960.963V18.7344H963.389L963.705 22.2852H963.828C964.227 21.5703 964.707 20.9199 965.27 20.334C965.832 19.7363 966.482 19.2617 967.221 18.9102C967.971 18.5586 968.803 18.3828 969.717 18.3828ZM983.111 18.3828C984.752 18.3828 986.158 18.7461 987.33 19.4727C988.502 20.1992 989.398 21.2188 990.02 22.5312C990.641 23.832 990.951 25.3555 990.951 27.1016V28.9121H977.645C977.68 31.1738 978.242 32.8965 979.332 34.0801C980.422 35.2637 981.957 35.8555 983.938 35.8555C985.156 35.8555 986.234 35.7441 987.172 35.5215C988.109 35.2988 989.082 34.9707 990.09 34.5371V37.1035C989.117 37.5371 988.15 37.8535 987.189 38.0527C986.24 38.252 985.115 38.3516 983.814 38.3516C981.963 38.3516 980.346 37.9766 978.963 37.2266C977.592 36.4648 976.525 35.3516 975.764 33.8867C975.002 32.4219 974.621 30.6289 974.621 28.5078C974.621 26.4336 974.967 24.6406 975.658 23.1289C976.361 21.6055 977.346 20.4336 978.611 19.6133C979.889 18.793 981.389 18.3828 983.111 18.3828ZM983.076 20.7734C981.518 20.7734 980.275 21.2832 979.35 22.3027C978.424 23.3223 977.873 24.7461 977.697 26.5742H987.893C987.881 25.4258 987.699 24.418 987.348 23.5508C987.008 22.6719 986.486 21.9922 985.783 21.5117C985.08 21.0195 984.178 20.7734 983.076 20.7734ZM1008.37 32.7266C1008.37 33.957 1008.06 34.9941 1007.44 35.8379C1006.83 36.6699 1005.95 37.2969 1004.8 37.7188C1003.67 38.1406 1002.31 38.3516 1000.72 38.3516C999.377 38.3516 998.211 38.2461 997.227 38.0352C996.242 37.8242 995.381 37.5254 994.643 37.1387V34.4492C995.428 34.8359 996.365 35.1875 997.455 35.5039C998.545 35.8203 999.658 35.9785 1000.79 35.9785C1002.46 35.9785 1003.67 35.709 1004.42 35.1699C1005.17 34.6309 1005.54 33.8984 1005.54 32.9727C1005.54 32.4453 1005.39 31.9824 1005.08 31.584C1004.79 31.1738 1004.29 30.7812 1003.59 30.4062C1002.89 30.0195 1001.91 29.5977 1000.67 29.1406C999.441 28.6719 998.375 28.209 997.473 27.752C996.582 27.2832 995.891 26.7148 995.398 26.0469C994.918 25.3789 994.678 24.5117 994.678 23.4453C994.678 21.8164 995.334 20.5684 996.646 19.7012C997.971 18.8223 999.705 18.3828 1001.85 18.3828C1003.01 18.3828 1004.09 18.5 1005.1 18.7344C1006.12 18.957 1007.07 19.2617 1007.95 19.6484L1006.96 21.9863C1006.17 21.6465 1005.32 21.3594 1004.42 21.125C1003.51 20.8906 1002.59 20.7734 1001.66 20.7734C1000.31 20.7734 999.271 20.9961 998.545 21.4414C997.83 21.8867 997.473 22.4961 997.473 23.2695C997.473 23.8672 997.637 24.3594 997.965 24.7461C998.305 25.1328 998.844 25.4961 999.582 25.8359C1000.32 26.1758 1001.29 26.5742 1002.5 27.0312C1003.71 27.4766 1004.75 27.9395 1005.63 28.4199C1006.51 28.8887 1007.18 29.4629 1007.65 30.1426C1008.13 30.8105 1008.37 31.6719 1008.37 32.7266ZM1019.29 35.9609C1019.77 35.9609 1020.26 35.9199 1020.76 35.8379C1021.27 35.7559 1021.68 35.6562 1021.99 35.5391V37.8066C1021.65 37.959 1021.18 38.0879 1020.57 38.1934C1019.97 38.2988 1019.39 38.3516 1018.81 38.3516C1017.79 38.3516 1016.87 38.1758 1016.04 37.8242C1015.2 37.4609 1014.54 36.8516 1014.03 35.9961C1013.54 35.1406 1013.29 33.957 1013.29 32.4453V21.0195H1010.55V19.5957L1013.31 18.4531L1014.47 14.2695H1016.23V18.7344H1021.87V21.0195H1016.23V32.3574C1016.23 33.5645 1016.5 34.4668 1017.05 35.0645C1017.62 35.6621 1018.36 35.9609 1019.29 35.9609Z" fill="black"/>
<circle cx="418.5" cy="395.5" r="139.5" fill="#E9EBEE"/>
<path d="M353.528 409L357.824 382.818H360.381L356.085 409H353.528ZM341.614 401.739L342.023 399.182H361.557L361.148 401.739H341.614ZM344.324 409L348.619 382.818H351.176L346.881 409H344.324ZM343.148 392.636L343.557 390.08H363.091L362.682 392.636H343.148ZM366.881 409V382.818H382.683V385.631H370.052V394.477H381.864V397.29H370.052V406.188H382.887V409H366.881ZM396.272 382.46C397.346 382.469 398.42 382.673 399.494 383.074C400.567 383.474 401.548 384.139 402.434 385.068C403.32 385.989 404.032 387.246 404.569 388.839C405.106 390.433 405.374 392.432 405.374 394.835C405.374 397.162 405.153 399.229 404.71 401.036C404.275 402.834 403.644 404.351 402.817 405.587C401.999 406.822 401.002 407.76 399.826 408.399C398.658 409.038 397.337 409.358 395.863 409.358C394.397 409.358 393.089 409.068 391.938 408.489C390.796 407.901 389.859 407.087 389.126 406.047C388.401 404.999 387.937 403.784 387.732 402.403H390.852C391.133 403.605 391.691 404.598 392.526 405.382C393.37 406.158 394.482 406.545 395.863 406.545C397.883 406.545 399.477 405.663 400.644 403.899C401.82 402.135 402.408 399.642 402.408 396.42H402.204C401.727 397.136 401.16 397.754 400.504 398.274C399.847 398.794 399.119 399.195 398.317 399.476C397.516 399.757 396.664 399.898 395.761 399.898C394.261 399.898 392.884 399.527 391.631 398.786C390.387 398.036 389.39 397.009 388.64 395.705C387.898 394.392 387.528 392.892 387.528 391.205C387.528 389.602 387.886 388.136 388.602 386.807C389.326 385.469 390.34 384.403 391.644 383.611C392.957 382.818 394.499 382.435 396.272 382.46ZM396.272 385.273C395.198 385.273 394.231 385.541 393.37 386.078C392.518 386.607 391.84 387.322 391.337 388.226C390.843 389.121 390.596 390.114 390.596 391.205C390.596 392.295 390.835 393.288 391.312 394.183C391.798 395.07 392.458 395.777 393.293 396.305C394.137 396.825 395.096 397.085 396.17 397.085C396.979 397.085 397.734 396.928 398.433 396.612C399.131 396.288 399.741 395.849 400.261 395.295C400.789 394.733 401.202 394.098 401.501 393.391C401.799 392.675 401.948 391.929 401.948 391.153C401.948 390.131 401.701 389.172 401.207 388.277C400.721 387.382 400.048 386.658 399.187 386.104C398.335 385.55 397.363 385.273 396.272 385.273ZM410.862 409V382.818H426.663V385.631H414.032V394.477H425.845V397.29H414.032V406.188H426.868V409H410.862ZM432.377 409V382.818H441.531C443.355 382.818 444.859 383.134 446.044 383.764C447.228 384.386 448.11 385.226 448.69 386.283C449.27 387.331 449.559 388.494 449.559 389.773C449.559 390.898 449.359 391.827 448.958 392.56C448.566 393.293 448.047 393.872 447.399 394.298C446.76 394.724 446.065 395.04 445.315 395.244V395.5C446.116 395.551 446.922 395.832 447.731 396.344C448.541 396.855 449.218 397.588 449.764 398.543C450.309 399.497 450.582 400.665 450.582 402.045C450.582 403.358 450.284 404.538 449.687 405.587C449.091 406.635 448.149 407.466 446.862 408.08C445.575 408.693 443.9 409 441.838 409H432.377ZM435.548 406.188H441.838C443.909 406.188 445.379 405.787 446.248 404.986C447.126 404.176 447.565 403.196 447.565 402.045C447.565 401.159 447.339 400.341 446.887 399.591C446.436 398.832 445.792 398.227 444.957 397.776C444.122 397.315 443.133 397.085 441.991 397.085H435.548V406.188ZM435.548 394.324H441.429C442.383 394.324 443.244 394.136 444.011 393.761C444.787 393.386 445.4 392.858 445.852 392.176C446.312 391.494 446.542 390.693 446.542 389.773C446.542 388.622 446.142 387.646 445.341 386.845C444.539 386.036 443.27 385.631 441.531 385.631H435.548V394.324ZM455.792 409V382.818H471.593V385.631H458.962V394.477H470.775V397.29H458.962V406.188H471.797V409H455.792ZM477.307 409V382.818H493.108V385.631H480.478V394.477H492.29V397.29H480.478V406.188H493.313V409H477.307Z" fill="black"/>
<circle cx="418.5" cy="395.5" r="139" fill="#EEEEEE" stroke="#C9CAEF"/>
<path d="M358.227 396.197L357.084 402.174H362.059V404.406H356.645L355.15 412H352.777L354.271 404.406H348.91L347.469 412H345.131L346.52 404.406H341.914V402.174H346.959L348.137 396.197H343.25V394H348.541L350 386.301H352.408L350.949 394H356.346L357.805 386.301H360.125L358.666 394H363.324V396.197H358.227ZM349.332 402.174H354.693L355.854 396.197H350.492L349.332 402.174ZM382.098 412H367.789V386.301H382.098V388.938H370.777V397.252H381.447V399.854H370.777V409.363H382.098V412ZM402.102 412H387.793V386.301H402.102V388.938H390.781V397.252H401.451V399.854H390.781V409.363H402.102V412ZM422.105 412H407.797V386.301H422.105V388.938H410.785V397.252H421.455V399.854H410.785V409.363H422.105V412ZM442.109 412H427.801V386.301H442.109V388.938H430.789V397.252H441.459V399.854H430.789V409.363H442.109V412ZM462.113 412H447.805V386.301H462.113V388.938H450.793V397.252H461.463V399.854H450.793V409.363H462.113V412ZM482.117 412H467.809V386.301H482.117V388.938H470.797V397.252H481.467V399.854H470.797V409.363H482.117V412Z" fill="black"/>
<circle cx="936.5" cy="395.5" r="139" fill="white" stroke="#C9CAEF"/>
<path d="M889.227 385.197L888.084 391.174H893.059V393.406H887.645L886.15 401H883.777L885.271 393.406H879.91L878.469 401H876.131L877.52 393.406H872.914V391.174H877.959L879.137 385.197H874.25V383H879.541L881 375.301H883.408L881.949 383H887.346L888.805 375.301H891.125L889.666 383H894.324V385.197H889.227ZM880.332 391.174H885.693L886.854 385.197H881.492L880.332 391.174ZM901.777 401H898.789V375.301H913.098V377.938H901.777V387.359H912.412V389.979H901.777V401ZM920.375 401H917.387V375.301H931.695V377.938H920.375V387.359H931.01V389.979H920.375V401ZM938.973 401H935.984V375.301H950.293V377.938H938.973V387.359H949.607V389.979H938.973V401ZM957.57 401H954.582V375.301H968.891V377.938H957.57V387.359H968.205V389.979H957.57V401ZM976.168 401H973.18V375.301H987.488V377.938H976.168V387.359H986.803V389.979H976.168V401ZM994.766 401H991.777V375.301H1006.09V377.938H994.766V387.359H1005.4V389.979H994.766V401Z" fill="black"/>
<circle cx="418.5" cy="804.5" r="139.5" fill="#E9EBEE"/>
<path d="M353.528 818L357.824 791.818H360.381L356.085 818H353.528ZM341.614 810.739L342.023 808.182H361.557L361.148 810.739H341.614ZM344.324 818L348.619 791.818H351.176L346.881 818H344.324ZM343.148 801.636L343.557 799.08H363.091L362.682 801.636H343.148ZM366.881 818V791.818H382.683V794.631H370.052V803.477H381.864V806.29H370.052V815.188H382.887V818H366.881ZM396.272 791.46C397.346 791.469 398.42 791.673 399.494 792.074C400.567 792.474 401.548 793.139 402.434 794.068C403.32 794.989 404.032 796.246 404.569 797.839C405.106 799.433 405.374 801.432 405.374 803.835C405.374 806.162 405.153 808.229 404.71 810.036C404.275 811.834 403.644 813.351 402.817 814.587C401.999 815.822 401.002 816.76 399.826 817.399C398.658 818.038 397.337 818.358 395.863 818.358C394.397 818.358 393.089 818.068 391.938 817.489C390.796 816.901 389.859 816.087 389.126 815.047C388.401 813.999 387.937 812.784 387.732 811.403H390.852C391.133 812.605 391.691 813.598 392.526 814.382C393.37 815.158 394.482 815.545 395.863 815.545C397.883 815.545 399.477 814.663 400.644 812.899C401.82 811.135 402.408 808.642 402.408 805.42H402.204C401.727 806.136 401.16 806.754 400.504 807.274C399.847 807.794 399.119 808.195 398.317 808.476C397.516 808.757 396.664 808.898 395.761 808.898C394.261 808.898 392.884 808.527 391.631 807.786C390.387 807.036 389.39 806.009 388.64 804.705C387.898 803.392 387.528 801.892 387.528 800.205C387.528 798.602 387.886 797.136 388.602 795.807C389.326 794.469 390.34 793.403 391.644 792.611C392.957 791.818 394.499 791.435 396.272 791.46ZM396.272 794.273C395.198 794.273 394.231 794.541 393.37 795.078C392.518 795.607 391.84 796.322 391.337 797.226C390.843 798.121 390.596 799.114 390.596 800.205C390.596 801.295 390.835 802.288 391.312 803.183C391.798 804.07 392.458 804.777 393.293 805.305C394.137 805.825 395.096 806.085 396.17 806.085C396.979 806.085 397.734 805.928 398.433 805.612C399.131 805.288 399.741 804.849 400.261 804.295C400.789 803.733 401.202 803.098 401.501 802.391C401.799 801.675 401.948 800.929 401.948 800.153C401.948 799.131 401.701 798.172 401.207 797.277C400.721 796.382 400.048 795.658 399.187 795.104C398.335 794.55 397.363 794.273 396.272 794.273ZM410.862 818V791.818H426.663V794.631H414.032V803.477H425.845V806.29H414.032V815.188H426.868V818H410.862ZM432.377 818V791.818H441.531C443.355 791.818 444.859 792.134 446.044 792.764C447.228 793.386 448.11 794.226 448.69 795.283C449.27 796.331 449.559 797.494 449.559 798.773C449.559 799.898 449.359 800.827 448.958 801.56C448.566 802.293 448.047 802.872 447.399 803.298C446.76 803.724 446.065 804.04 445.315 804.244V804.5C446.116 804.551 446.922 804.832 447.731 805.344C448.541 805.855 449.218 806.588 449.764 807.543C450.309 808.497 450.582 809.665 450.582 811.045C450.582 812.358 450.284 813.538 449.687 814.587C449.091 815.635 448.149 816.466 446.862 817.08C445.575 817.693 443.9 818 441.838 818H432.377ZM435.548 815.188H441.838C443.909 815.188 445.379 814.787 446.248 813.986C447.126 813.176 447.565 812.196 447.565 811.045C447.565 810.159 447.339 809.341 446.887 808.591C446.436 807.832 445.792 807.227 444.957 806.776C444.122 806.315 443.133 806.085 441.991 806.085H435.548V815.188ZM435.548 803.324H441.429C442.383 803.324 443.244 803.136 444.011 802.761C444.787 802.386 445.4 801.858 445.852 801.176C446.312 800.494 446.542 799.693 446.542 798.773C446.542 797.622 446.142 796.646 445.341 795.845C444.539 795.036 443.27 794.631 441.531 794.631H435.548V803.324ZM455.792 818V791.818H471.593V794.631H458.962V803.477H470.775V806.29H458.962V815.188H471.797V818H455.792ZM477.307 818V791.818H493.108V794.631H480.478V803.477H492.29V806.29H480.478V815.188H493.313V818H477.307Z" fill="black"/>
<circle cx="418.5" cy="804.5" r="139.5" fill="#E31010"/>
<path d="M367.227 802.197L366.084 808.174H371.059V810.406H365.645L364.15 818H361.777L363.271 810.406H357.91L356.469 818H354.131L355.52 810.406H350.914V808.174H355.959L357.137 802.197H352.25V800H357.541L359 792.301H361.408L359.949 800H365.346L366.805 792.301H369.125L367.666 800H372.324V802.197H367.227ZM358.332 808.174H363.693L364.854 802.197H359.492L358.332 808.174ZM391.098 818H376.789V792.301H391.098V794.938H379.777V803.252H390.447V805.854H379.777V815.363H391.098V818ZM410.943 798.295C410.943 799.443 410.721 800.439 410.275 801.283C409.83 802.127 409.209 802.818 408.412 803.357C407.615 803.885 406.678 804.254 405.6 804.465V804.605C407.639 804.863 409.168 805.52 410.188 806.574C411.219 807.629 411.734 809.012 411.734 810.723C411.734 812.211 411.383 813.529 410.68 814.678C409.988 815.826 408.922 816.729 407.48 817.385C406.051 818.029 404.217 818.352 401.979 818.352C400.619 818.352 399.359 818.24 398.199 818.018C397.051 817.807 395.949 817.449 394.895 816.945V814.203C395.961 814.73 397.121 815.146 398.375 815.451C399.629 815.744 400.842 815.891 402.014 815.891C404.357 815.891 406.051 815.428 407.094 814.502C408.137 813.564 408.658 812.287 408.658 810.67C408.658 809.557 408.365 808.66 407.779 807.98C407.205 807.289 406.373 806.785 405.283 806.469C404.205 806.141 402.904 805.977 401.381 805.977H398.814V803.48H401.398C402.793 803.48 403.977 803.275 404.949 802.865C405.922 802.455 406.66 801.881 407.164 801.143C407.68 800.393 407.938 799.508 407.938 798.488C407.938 797.188 407.504 796.186 406.637 795.482C405.77 794.768 404.592 794.41 403.104 794.41C402.189 794.41 401.357 794.504 400.607 794.691C399.857 794.879 399.154 795.137 398.498 795.465C397.842 795.793 397.186 796.174 396.529 796.607L395.053 794.604C395.99 793.877 397.133 793.25 398.48 792.723C399.828 792.195 401.357 791.932 403.068 791.932C405.693 791.932 407.662 792.529 408.975 793.725C410.287 794.92 410.943 796.443 410.943 798.295ZM426.518 818H423.67V799.789C423.67 799.098 423.67 798.506 423.67 798.014C423.682 797.51 423.693 797.053 423.705 796.643C423.729 796.221 423.758 795.793 423.793 795.359C423.43 795.734 423.09 796.057 422.773 796.326C422.457 796.584 422.064 796.906 421.596 797.293L418.66 799.648L417.131 797.662L424.092 792.301H426.518V818ZM453.236 805.115C453.236 807.201 453.078 809.064 452.762 810.705C452.445 812.346 451.947 813.734 451.268 814.871C450.588 816.008 449.709 816.875 448.631 817.473C447.553 818.059 446.258 818.352 444.746 818.352C442.836 818.352 441.254 817.83 440 816.787C438.758 815.744 437.826 814.238 437.205 812.27C436.596 810.289 436.291 807.904 436.291 805.115C436.291 802.373 436.566 800.018 437.117 798.049C437.68 796.068 438.582 794.551 439.824 793.496C441.066 792.43 442.707 791.896 444.746 791.896C446.68 791.896 448.273 792.424 449.527 793.479C450.781 794.521 451.713 796.033 452.322 798.014C452.932 799.982 453.236 802.35 453.236 805.115ZM439.227 805.115C439.227 807.506 439.408 809.498 439.771 811.092C440.135 812.686 440.721 813.881 441.529 814.678C442.35 815.463 443.422 815.855 444.746 815.855C446.07 815.855 447.137 815.463 447.945 814.678C448.766 813.893 449.357 812.703 449.721 811.109C450.096 809.516 450.283 807.518 450.283 805.115C450.283 802.76 450.102 800.791 449.738 799.209C449.375 797.615 448.789 796.42 447.98 795.623C447.172 794.814 446.094 794.41 444.746 794.41C443.398 794.41 442.32 794.814 441.512 795.623C440.703 796.42 440.117 797.615 439.754 799.209C439.402 800.791 439.227 802.76 439.227 805.115ZM467.721 818H464.873V799.789C464.873 799.098 464.873 798.506 464.873 798.014C464.885 797.51 464.896 797.053 464.908 796.643C464.932 796.221 464.961 795.793 464.996 795.359C464.633 795.734 464.293 796.057 463.977 796.326C463.66 796.584 463.268 796.906 462.799 797.293L459.863 799.648L458.334 797.662L465.295 792.301H467.721V818ZM494.439 805.115C494.439 807.201 494.281 809.064 493.965 810.705C493.648 812.346 493.15 813.734 492.471 814.871C491.791 816.008 490.912 816.875 489.834 817.473C488.756 818.059 487.461 818.352 485.949 818.352C484.039 818.352 482.457 817.83 481.203 816.787C479.961 815.744 479.029 814.238 478.408 812.27C477.799 810.289 477.494 807.904 477.494 805.115C477.494 802.373 477.77 800.018 478.32 798.049C478.883 796.068 479.785 794.551 481.027 793.496C482.27 792.43 483.91 791.896 485.949 791.896C487.883 791.896 489.477 792.424 490.73 793.479C491.984 794.521 492.916 796.033 493.525 798.014C494.135 799.982 494.439 802.35 494.439 805.115ZM480.43 805.115C480.43 807.506 480.611 809.498 480.975 811.092C481.338 812.686 481.924 813.881 482.732 814.678C483.553 815.463 484.625 815.855 485.949 815.855C487.273 815.855 488.34 815.463 489.148 814.678C489.969 813.893 490.561 812.703 490.924 811.109C491.299 809.516 491.486 807.518 491.486 805.115C491.486 802.76 491.305 800.791 490.941 799.209C490.578 797.615 489.992 796.42 489.184 795.623C488.375 794.814 487.297 794.41 485.949 794.41C484.602 794.41 483.523 794.814 482.715 795.623C481.906 796.42 481.32 797.615 480.957 799.209C480.605 800.791 480.43 802.76 480.43 805.115Z" fill="white"/>
<circle cx="936.5" cy="804.5" r="139.5" fill="#E60023"/>
<path d="M876.227 805.197L875.084 811.174H880.059V813.406H874.645L873.15 821H870.777L872.271 813.406H866.91L865.469 821H863.131L864.52 813.406H859.914V811.174H864.959L866.137 805.197H861.25V803H866.541L868 795.301H870.408L868.949 803H874.346L875.805 795.301H878.125L876.666 803H881.324V805.197H876.227ZM867.332 811.174H872.693L873.854 805.197H868.492L867.332 811.174ZM900.098 821H885.789V795.301H900.098V797.938H888.777V806.252H899.447V808.854H888.777V818.363H900.098V821ZM904.316 810.014C904.316 808.467 904.422 806.955 904.633 805.479C904.855 804.002 905.225 802.631 905.74 801.365C906.256 800.088 906.959 798.969 907.85 798.008C908.74 797.047 909.848 796.297 911.172 795.758C912.508 795.207 914.107 794.932 915.971 794.932C916.498 794.932 917.066 794.961 917.676 795.02C918.285 795.066 918.789 795.148 919.188 795.266V797.779C918.754 797.627 918.256 797.516 917.693 797.445C917.143 797.375 916.586 797.34 916.023 797.34C913.844 797.34 912.127 797.814 910.873 798.764C909.631 799.713 908.734 801.002 908.184 802.631C907.633 804.248 907.316 806.07 907.234 808.098H907.428C907.791 807.512 908.254 806.984 908.816 806.516C909.379 806.035 910.059 805.654 910.855 805.373C911.664 805.092 912.602 804.951 913.668 804.951C915.168 804.951 916.475 805.256 917.588 805.865C918.713 806.475 919.58 807.359 920.189 808.52C920.811 809.68 921.121 811.086 921.121 812.738C921.121 814.508 920.793 816.037 920.137 817.326C919.48 818.615 918.543 819.611 917.324 820.314C916.117 821.006 914.676 821.352 913 821.352C911.746 821.352 910.592 821.111 909.537 820.631C908.482 820.15 907.562 819.436 906.777 818.486C906.004 817.537 905.4 816.359 904.967 814.953C904.533 813.535 904.316 811.889 904.316 810.014ZM912.965 818.891C914.559 818.891 915.836 818.381 916.797 817.361C917.758 816.342 918.238 814.801 918.238 812.738C918.238 811.051 917.811 809.715 916.955 808.73C916.1 807.746 914.811 807.254 913.088 807.254C911.916 807.254 910.896 807.5 910.029 807.992C909.162 808.473 908.488 809.082 908.008 809.82C907.527 810.559 907.287 811.309 907.287 812.07C907.287 812.844 907.398 813.629 907.621 814.426C907.855 815.223 908.207 815.961 908.676 816.641C909.145 817.32 909.736 817.865 910.451 818.275C911.166 818.686 912.004 818.891 912.965 818.891ZM941.635 808.115C941.635 810.201 941.477 812.064 941.16 813.705C940.844 815.346 940.346 816.734 939.666 817.871C938.986 819.008 938.107 819.875 937.029 820.473C935.951 821.059 934.656 821.352 933.145 821.352C931.234 821.352 929.652 820.83 928.398 819.787C927.156 818.744 926.225 817.238 925.604 815.27C924.994 813.289 924.689 810.904 924.689 808.115C924.689 805.373 924.965 803.018 925.516 801.049C926.078 799.068 926.98 797.551 928.223 796.496C929.465 795.43 931.105 794.896 933.145 794.896C935.078 794.896 936.672 795.424 937.926 796.479C939.18 797.521 940.111 799.033 940.721 801.014C941.33 802.982 941.635 805.35 941.635 808.115ZM927.625 808.115C927.625 810.506 927.807 812.498 928.17 814.092C928.533 815.686 929.119 816.881 929.928 817.678C930.748 818.463 931.82 818.855 933.145 818.855C934.469 818.855 935.535 818.463 936.344 817.678C937.164 816.893 937.756 815.703 938.119 814.109C938.494 812.516 938.682 810.518 938.682 808.115C938.682 805.76 938.5 803.791 938.137 802.209C937.773 800.615 937.188 799.42 936.379 798.623C935.57 797.814 934.492 797.41 933.145 797.41C931.797 797.41 930.719 797.814 929.91 798.623C929.102 799.42 928.516 800.615 928.152 802.209C927.801 803.791 927.625 805.76 927.625 808.115ZM962.236 808.115C962.236 810.201 962.078 812.064 961.762 813.705C961.445 815.346 960.947 816.734 960.268 817.871C959.588 819.008 958.709 819.875 957.631 820.473C956.553 821.059 955.258 821.352 953.746 821.352C951.836 821.352 950.254 820.83 949 819.787C947.758 818.744 946.826 817.238 946.205 815.27C945.596 813.289 945.291 810.904 945.291 808.115C945.291 805.373 945.566 803.018 946.117 801.049C946.68 799.068 947.582 797.551 948.824 796.496C950.066 795.43 951.707 794.896 953.746 794.896C955.68 794.896 957.273 795.424 958.527 796.479C959.781 797.521 960.713 799.033 961.322 801.014C961.932 802.982 962.236 805.35 962.236 808.115ZM948.227 808.115C948.227 810.506 948.408 812.498 948.771 814.092C949.135 815.686 949.721 816.881 950.529 817.678C951.35 818.463 952.422 818.855 953.746 818.855C955.07 818.855 956.137 818.463 956.945 817.678C957.766 816.893 958.357 815.703 958.721 814.109C959.096 812.516 959.283 810.518 959.283 808.115C959.283 805.76 959.102 803.791 958.738 802.209C958.375 800.615 957.789 799.42 956.98 798.623C956.172 797.814 955.094 797.41 953.746 797.41C952.398 797.41 951.32 797.814 950.512 798.623C949.703 799.42 949.117 800.615 948.754 802.209C948.402 803.791 948.227 805.76 948.227 808.115ZM982.697 821H965.857V818.557L972.73 811.578C974.008 810.289 975.08 809.141 975.947 808.133C976.826 807.125 977.494 806.135 977.951 805.162C978.408 804.178 978.637 803.1 978.637 801.928C978.637 800.475 978.203 799.367 977.336 798.605C976.48 797.832 975.35 797.445 973.943 797.445C972.713 797.445 971.623 797.656 970.674 798.078C969.725 798.5 968.752 799.098 967.756 799.871L966.191 797.902C966.871 797.328 967.609 796.818 968.406 796.373C969.215 795.928 970.076 795.576 970.99 795.318C971.916 795.061 972.9 794.932 973.943 794.932C975.525 794.932 976.891 795.207 978.039 795.758C979.188 796.309 980.072 797.094 980.693 798.113C981.326 799.133 981.643 800.346 981.643 801.752C981.643 803.111 981.373 804.377 980.834 805.549C980.295 806.709 979.539 807.863 978.566 809.012C977.594 810.148 976.457 811.355 975.156 812.633L969.566 818.205V818.328H982.697V821ZM1002.35 801.295C1002.35 802.443 1002.13 803.439 1001.68 804.283C1001.24 805.127 1000.62 805.818 999.818 806.357C999.021 806.885 998.084 807.254 997.006 807.465V807.605C999.045 807.863 1000.57 808.52 1001.59 809.574C1002.62 810.629 1003.14 812.012 1003.14 813.723C1003.14 815.211 1002.79 816.529 1002.09 817.678C1001.39 818.826 1000.33 819.729 998.887 820.385C997.457 821.029 995.623 821.352 993.385 821.352C992.025 821.352 990.766 821.24 989.605 821.018C988.457 820.807 987.355 820.449 986.301 819.945V817.203C987.367 817.73 988.527 818.146 989.781 818.451C991.035 818.744 992.248 818.891 993.42 818.891C995.764 818.891 997.457 818.428 998.5 817.502C999.543 816.564 1000.06 815.287 1000.06 813.67C1000.06 812.557 999.771 811.66 999.186 810.98C998.611 810.289 997.779 809.785 996.689 809.469C995.611 809.141 994.311 808.977 992.787 808.977H990.221V806.48H992.805C994.199 806.48 995.383 806.275 996.355 805.865C997.328 805.455 998.066 804.881 998.57 804.143C999.086 803.393 999.344 802.508 999.344 801.488C999.344 800.188 998.91 799.186 998.043 798.482C997.176 797.768 995.998 797.41 994.51 797.41C993.596 797.41 992.764 797.504 992.014 797.691C991.264 797.879 990.561 798.137 989.904 798.465C989.248 798.793 988.592 799.174 987.936 799.607L986.459 797.604C987.396 796.877 988.539 796.25 989.887 795.723C991.234 795.195 992.764 794.932 994.475 794.932C997.1 794.932 999.068 795.529 1000.38 796.725C1001.69 797.92 1002.35 799.443 1002.35 801.295Z" fill="white"/>
</svg>
