<svg width="794" height="130" viewBox="0 0 794 130" fill="none" xmlns="http://www.w3.org/2000/svg">
<path d="M541.328 111.992C541.328 113.112 541.113 114.16 540.684 115.137C540.267 116.1 539.694 116.947 538.965 117.676C538.249 118.392 537.402 118.958 536.426 119.375C535.449 119.792 534.414 120 533.32 120H514.355V115.996H533.32C533.867 115.996 534.382 115.892 534.863 115.684C535.358 115.475 535.788 115.189 536.152 114.824C536.517 114.46 536.803 114.036 537.012 113.555C537.22 113.06 537.324 112.539 537.324 111.992C537.324 111.445 537.22 110.931 537.012 110.449C536.803 109.967 536.517 109.544 536.152 109.18C535.788 108.815 535.358 108.529 534.863 108.32C534.382 108.112 533.867 108.008 533.32 108.008H514.355V104.004H529.316C529.863 104.004 530.378 103.9 530.859 103.691C531.354 103.483 531.784 103.197 532.148 102.832C532.513 102.467 532.799 102.044 533.008 101.562C533.216 101.068 533.32 100.547 533.32 100C533.32 99.4531 533.216 98.9388 533.008 98.457C532.799 97.9622 532.513 97.5326 532.148 97.168C531.784 96.8034 531.354 96.5169 530.859 96.3086C530.378 96.1003 529.863 95.9961 529.316 95.9961H512.363V120H508.359V91.9922H529.316C530.41 91.9922 531.445 92.207 532.422 92.6367C533.398 93.0534 534.245 93.6263 534.961 94.3555C535.69 95.0716 536.263 95.918 536.68 96.8945C537.109 97.8711 537.324 98.9062 537.324 100C537.324 100.846 537.201 101.647 536.953 102.402C536.706 103.145 536.374 103.835 535.957 104.473C536.738 104.746 537.454 105.13 538.105 105.625C538.77 106.12 539.336 106.693 539.805 107.344C540.286 107.995 540.658 108.717 540.918 109.512C541.191 110.293 541.328 111.12 541.328 111.992ZM567.383 101.992H552.383C551.966 101.992 551.576 102.077 551.211 102.246C550.846 102.402 550.527 102.617 550.254 102.891C549.98 103.164 549.766 103.483 549.609 103.848C549.453 104.212 549.375 104.596 549.375 105V120H545.371V105C545.371 104.023 545.553 103.112 545.918 102.266C546.283 101.419 546.784 100.684 547.422 100.059C548.06 99.4206 548.802 98.9193 549.648 98.5547C550.495 98.1901 551.406 98.0078 552.383 98.0078H567.383V101.992ZM596.172 120H581.172C579.661 120 578.242 119.714 576.914 119.141C575.586 118.555 574.427 117.767 573.438 116.777C572.461 115.775 571.686 114.609 571.113 113.281C570.54 111.94 570.254 110.514 570.254 109.004V98.0078H574.258V109.004C574.258 109.967 574.434 110.872 574.785 111.719C575.15 112.552 575.645 113.288 576.27 113.926C576.895 114.551 577.624 115.052 578.457 115.43C579.303 115.794 580.208 115.983 581.172 115.996H592.168V98.0078H596.172V120ZM605.938 120H601.934V98.0078H616.934C618.444 98.0078 619.863 98.3008 621.191 98.8867C622.52 99.4596 623.678 100.247 624.668 101.25C625.658 102.24 626.439 103.405 627.012 104.746C627.585 106.074 627.871 107.493 627.871 109.004V120H623.867V109.004C623.867 108.04 623.685 107.135 623.32 106.289C622.956 105.443 622.461 104.707 621.836 104.082C621.211 103.444 620.475 102.943 619.629 102.578C618.796 102.201 617.897 102.005 616.934 101.992H605.938V120ZM659.863 109.004C659.863 110.514 659.577 111.934 659.004 113.262C658.431 114.59 657.65 115.755 656.66 116.758C655.684 117.747 654.531 118.535 653.203 119.121C651.875 119.694 650.456 119.987 648.945 120H642.793C641.283 119.987 639.863 119.694 638.535 119.121C637.207 118.535 636.048 117.747 635.059 116.758C634.082 115.755 633.307 114.59 632.734 113.262C632.161 111.934 631.875 110.514 631.875 109.004C631.875 107.493 632.161 106.074 632.734 104.746C633.307 103.405 634.082 102.24 635.059 101.25C636.048 100.247 637.207 99.4596 638.535 98.8867C639.863 98.3008 641.283 98.0078 642.793 98.0078H648.945C649.948 98.0078 650.918 98.138 651.855 98.3984C652.793 98.6589 653.665 99.0299 654.473 99.5117C655.28 99.9935 656.016 100.573 656.68 101.25C657.344 101.914 657.91 102.656 658.379 103.477C658.848 104.284 659.212 105.156 659.473 106.094C659.733 107.031 659.863 108.001 659.863 109.004ZM655.879 109.004C655.879 108.04 655.697 107.135 655.332 106.289C654.967 105.443 654.473 104.707 653.848 104.082C653.223 103.444 652.487 102.943 651.641 102.578C650.807 102.201 649.909 102.005 648.945 101.992H642.793C641.829 102.005 640.924 102.201 640.078 102.578C639.245 102.943 638.516 103.444 637.891 104.082C637.266 104.707 636.771 105.443 636.406 106.289C636.055 107.135 635.879 108.04 635.879 109.004C635.879 109.967 636.055 110.872 636.406 111.719C636.771 112.565 637.266 113.307 637.891 113.945C638.516 114.57 639.245 115.072 640.078 115.449C640.924 115.814 641.829 115.996 642.793 115.996H648.945C649.909 115.996 650.807 115.814 651.641 115.449C652.487 115.072 653.223 114.57 653.848 113.945C654.473 113.307 654.967 112.565 655.332 111.719C655.697 110.872 655.879 109.967 655.879 109.004ZM711.562 120H707.559V111.992H685.215V108.008H707.559V95.9961H693.203C691.836 95.9961 690.547 96.263 689.336 96.7969C688.125 97.3177 687.07 98.0339 686.172 98.9453C685.273 99.8438 684.557 100.898 684.023 102.109C683.503 103.32 683.242 104.616 683.242 105.996V120H679.238V105.996C679.238 104.707 679.401 103.47 679.727 102.285C680.065 101.087 680.534 99.974 681.133 98.9453C681.745 97.9036 682.474 96.9596 683.32 96.1133C684.18 95.2539 685.124 94.5182 686.152 93.9062C687.194 93.2943 688.307 92.8255 689.492 92.5C690.677 92.1615 691.914 91.9922 693.203 91.9922H711.562V120ZM740.293 120H727.207C725.697 119.987 724.277 119.694 722.949 119.121C721.621 118.535 720.462 117.747 719.473 116.758C718.496 115.755 717.721 114.59 717.148 113.262C716.576 111.934 716.289 110.514 716.289 109.004C716.289 107.493 716.576 106.074 717.148 104.746C717.721 103.405 718.496 102.24 719.473 101.25C720.462 100.247 721.621 99.4596 722.949 98.8867C724.277 98.3008 725.697 98.0078 727.207 98.0078H740.293V101.992H727.207C726.243 102.005 725.339 102.201 724.492 102.578C723.659 102.943 722.93 103.444 722.305 104.082C721.68 104.707 721.185 105.443 720.82 106.289C720.469 107.135 720.293 108.04 720.293 109.004C720.293 109.967 720.469 110.872 720.82 111.719C721.185 112.565 721.68 113.307 722.305 113.945C722.93 114.57 723.659 115.072 724.492 115.449C725.339 115.814 726.243 115.996 727.207 115.996H740.293V120ZM770.039 105C770.039 105.977 769.857 106.888 769.492 107.734C769.128 108.581 768.626 109.323 767.988 109.961C767.363 110.586 766.621 111.081 765.762 111.445C764.915 111.81 764.01 111.992 763.047 111.992H747.715C748.001 112.578 748.359 113.118 748.789 113.613C749.219 114.108 749.701 114.531 750.234 114.883C750.768 115.234 751.348 115.508 751.973 115.703C752.611 115.898 753.275 115.996 753.965 115.996H767.051V120H753.965C752.454 119.987 751.035 119.694 749.707 119.121C748.379 118.535 747.22 117.747 746.23 116.758C745.254 115.755 744.479 114.59 743.906 113.262C743.333 111.934 743.047 110.514 743.047 109.004C743.047 107.493 743.333 106.074 743.906 104.746C744.479 103.418 745.254 102.259 746.23 101.27C747.22 100.267 748.379 99.4792 749.707 98.9062C751.035 98.3203 752.454 98.0208 753.965 98.0078H763.047C764.01 98.0078 764.915 98.1901 765.762 98.5547C766.621 98.9193 767.363 99.4206 767.988 100.059C768.626 100.684 769.128 101.419 769.492 102.266C769.857 103.112 770.039 104.023 770.039 105ZM763.047 108.008C763.451 108.008 763.835 107.93 764.199 107.773C764.564 107.617 764.883 107.402 765.156 107.129C765.43 106.855 765.645 106.536 765.801 106.172C765.957 105.807 766.035 105.417 766.035 105C766.035 104.596 765.957 104.212 765.801 103.848C765.645 103.483 765.43 103.164 765.156 102.891C764.883 102.617 764.564 102.402 764.199 102.246C763.835 102.077 763.451 101.992 763.047 101.992H753.965C753.079 101.992 752.246 102.148 751.465 102.461C750.697 102.773 750.007 103.203 749.395 103.75C748.796 104.284 748.294 104.922 747.891 105.664C747.5 106.393 747.246 107.174 747.129 108.008H763.047Z" fill="black"/>
<path d="M532.188 41H527.344L519.883 19.4375L512.344 41H507.461L517.539 12.25H522.188L532.188 41ZM522.461 31.8594L523.594 35.0234H516.133L517.227 31.8594H522.461ZM542.695 34.2812C542.695 35.1667 542.812 35.8698 543.047 36.3906C543.281 36.8854 543.607 37.263 544.023 37.5234C544.44 37.7578 544.909 37.9141 545.43 37.9922C545.977 38.0703 546.562 38.1094 547.188 38.1094V41C546.849 41.0521 546.497 41.0911 546.133 41.1172C545.846 41.1432 545.508 41.1562 545.117 41.1562C544.727 41.1823 544.336 41.1953 543.945 41.1953C543.555 41.1953 543.164 41.1823 542.773 41.1562C542.383 41.1302 542.031 41.0911 541.719 41.0391C540.833 40.8568 540.143 40.4661 539.648 39.8672C539.154 39.2682 538.776 38.6042 538.516 37.875C538.255 37.1198 538.086 36.3906 538.008 35.6875C537.956 34.9844 537.93 34.4375 537.93 34.0469V33.5781V10.6484H542.695V34.2812ZM556.875 34.2812C556.875 35.1667 556.992 35.8698 557.227 36.3906C557.461 36.8854 557.786 37.263 558.203 37.5234C558.62 37.7578 559.089 37.9141 559.609 37.9922C560.156 38.0703 560.742 38.1094 561.367 38.1094V41C561.029 41.0521 560.677 41.0911 560.312 41.1172C560.026 41.1432 559.688 41.1562 559.297 41.1562C558.906 41.1823 558.516 41.1953 558.125 41.1953C557.734 41.1953 557.344 41.1823 556.953 41.1562C556.562 41.1302 556.211 41.0911 555.898 41.0391C555.013 40.8568 554.323 40.4661 553.828 39.8672C553.333 39.2682 552.956 38.6042 552.695 37.875C552.435 37.1198 552.266 36.3906 552.188 35.6875C552.135 34.9844 552.109 34.4375 552.109 34.0469V33.5781V10.6484H556.875V34.2812ZM576.602 18.7734C578.008 18.9036 579.271 19.2812 580.391 19.9062C581.536 20.5312 582.513 21.3385 583.32 22.3281C584.128 23.3177 584.74 24.4505 585.156 25.7266C585.599 27.0026 585.82 28.3307 585.82 29.7109C585.82 30.3359 585.781 30.9609 585.703 31.5859H572.305V28.1484H581.328C581.328 27.4714 581.211 26.8203 580.977 26.1953C580.768 25.5703 580.443 24.9974 580 24.4766C579.583 23.9297 579.089 23.474 578.516 23.1094C577.943 22.7448 577.305 22.5234 576.602 22.4453V18.7734ZM576.445 37.3281C576.732 37.3281 577.083 37.3021 577.5 37.25C577.943 37.1719 578.398 37.0547 578.867 36.8984C579.362 36.7161 579.844 36.4948 580.312 36.2344C580.807 35.974 581.237 35.6615 581.602 35.2969L583.32 37.9141C582.461 38.9818 581.458 39.7891 580.312 40.3359C579.167 40.8828 577.708 41.1562 575.938 41.1562C574.505 41.1562 573.164 40.8698 571.914 40.2969C570.664 39.6979 569.596 38.8906 568.711 37.875C567.826 36.8594 567.122 35.6745 566.602 34.3203C566.081 32.9661 565.82 31.5078 565.82 29.9453C565.82 28.4609 566.055 27.0547 566.523 25.7266C567.018 24.3984 567.682 23.2396 568.516 22.25C569.349 21.2344 570.312 20.4141 571.406 19.7891C572.526 19.1641 573.724 18.8125 575 18.7344V22.4844C574.036 22.6667 573.242 23.0573 572.617 23.6562C571.992 24.2552 571.497 24.9453 571.133 25.7266C570.794 26.4818 570.547 27.263 570.391 28.0703C570.26 28.8776 570.195 29.5677 570.195 30.1406C570.195 31.1562 570.312 32.1068 570.547 32.9922C570.807 33.8516 571.198 34.6068 571.719 35.2578C572.24 35.8828 572.878 36.3906 573.633 36.7812C574.414 37.1458 575.352 37.3281 576.445 37.3281ZM596.523 18.9688L597.031 21.2344V33.1875V33.2656V41H592.305V18.9688H596.523ZM598.633 19.9453C599.284 19.5807 600.065 19.3073 600.977 19.125C601.888 18.9167 603.125 18.8125 604.688 18.8125V23.7344C603.958 23.526 603.073 23.4089 602.031 23.3828C601.458 23.3828 600.872 23.4349 600.273 23.5391C599.701 23.6172 599.154 23.7474 598.633 23.9297V19.9453ZM616.016 34.3203C616.016 35.2057 616.133 35.8958 616.367 36.3906C616.602 36.8854 616.927 37.263 617.344 37.5234C617.786 37.7839 618.268 37.9531 618.789 38.0312C619.336 38.0833 619.909 38.1094 620.508 38.1094V41C620.169 41.0521 619.831 41.0911 619.492 41.1172C619.206 41.1432 618.854 41.1562 618.438 41.1562C618.047 41.1823 617.656 41.1953 617.266 41.1953C616.875 41.1953 616.471 41.1823 616.055 41.1562C615.664 41.1302 615.326 41.0911 615.039 41.0391C614.154 40.8828 613.464 40.5052 612.969 39.9062C612.474 39.2812 612.096 38.6042 611.836 37.875C611.602 37.1198 611.445 36.3906 611.367 35.6875C611.315 34.9844 611.289 34.4375 611.289 34.0469V22.1719H608.398V18.9688H611.289V12.7188H616.016V18.9688H619.531V22.1719H616.016V34.3203ZM629.883 34.3594C629.883 35.5312 630.117 36.4036 630.586 36.9766C631.081 37.5495 631.784 37.888 632.695 37.9922V41.1562C632.591 41.1823 632.422 41.1953 632.188 41.1953C631.302 41.1953 630.443 41.0781 629.609 40.8438C628.802 40.6094 628.086 40.2318 627.461 39.7109C626.836 39.1901 626.341 38.5 625.977 37.6406C625.638 36.7812 625.469 35.7266 625.469 34.4766C625.469 33.2786 625.716 32.25 626.211 31.3906C626.732 30.5052 627.383 29.7891 628.164 29.2422C628.971 28.6693 629.883 28.2526 630.898 27.9922C631.914 27.7057 632.943 27.5625 633.984 27.5625H635.703V30.3359H634.844C634.323 30.3359 633.776 30.388 633.203 30.4922C632.63 30.5964 632.096 30.7917 631.602 31.0781C631.107 31.3646 630.69 31.7812 630.352 32.3281C630.039 32.849 629.883 33.526 629.883 34.3594ZM642.031 34.4766C642.031 34.6849 642.044 34.9974 642.07 35.4141C642.096 35.8047 642.148 36.2083 642.227 36.625C642.305 37.0417 642.422 37.4193 642.578 37.7578C642.76 38.0964 642.995 38.3177 643.281 38.4219L642.031 41.0391C641.693 41.0391 641.328 40.9609 640.938 40.8047C640.573 40.6484 640.208 40.4271 639.844 40.1406C639.505 39.8542 639.206 39.5417 638.945 39.2031C638.711 38.8385 638.529 38.4479 638.398 38.0312C638.138 38.6823 637.617 39.2682 636.836 39.7891C636.081 40.2839 635.234 40.6484 634.297 40.8828V37.9141C634.922 37.7839 635.482 37.5365 635.977 37.1719C636.497 36.7812 636.94 36.3255 637.305 35.8047V27.5625C637.305 26.2865 637.24 25.2708 637.109 24.5156C636.979 23.7604 636.758 23.2135 636.445 22.875C636.133 22.5104 635.742 22.2891 635.273 22.2109C634.831 22.1068 634.297 22.0547 633.672 22.0547C633.099 22.0547 632.552 22.1328 632.031 22.2891C631.536 22.4193 631.068 22.5885 630.625 22.7969C630.208 22.9792 629.831 23.1875 629.492 23.4219C629.18 23.6562 628.945 23.8385 628.789 23.9688L627.031 21.2734C627.292 20.987 627.682 20.7005 628.203 20.4141C628.724 20.1016 629.323 19.8281 630 19.5938C630.677 19.3594 631.406 19.1771 632.188 19.0469C632.995 18.8906 633.828 18.8125 634.688 18.8125C635.469 18.8125 636.224 18.8906 636.953 19.0469C637.708 19.2031 638.385 19.4635 638.984 19.8281C639.609 20.1927 640.143 20.6875 640.586 21.3125C641.055 21.9115 641.38 22.6667 641.562 23.5781C641.745 24.4896 641.862 25.4141 641.914 26.3516C641.992 27.263 642.031 28.1745 642.031 29.0859V34.1641V34.4766ZM673.672 16.6641C673.542 16.612 673.385 16.5208 673.203 16.3906C673.021 16.2604 672.76 16.1432 672.422 16.0391C672.083 15.9089 671.654 15.8047 671.133 15.7266C670.612 15.6484 669.948 15.6354 669.141 15.6875V11.7422C670.286 11.7682 671.445 11.8984 672.617 12.1328C673.815 12.3411 674.779 12.6797 675.508 13.1484C675.352 13.487 675.169 13.8646 674.961 14.2812C674.753 14.6719 674.557 15.0495 674.375 15.4141C674.193 15.7526 674.036 16.0391 673.906 16.2734C673.776 16.5078 673.698 16.638 673.672 16.6641ZM660.195 19.7891C660.195 18.6432 660.391 17.6146 660.781 16.7031C661.172 15.7917 661.693 14.9974 662.344 14.3203C663.021 13.6172 663.802 13.0703 664.688 12.6797C665.599 12.263 666.549 11.9896 667.539 11.8594V15.9609C666.706 16.2474 666.016 16.7552 665.469 17.4844C664.922 18.1875 664.648 18.9036 664.648 19.6328C664.648 20.6484 664.922 21.4688 665.469 22.0938C666.016 22.7188 666.706 23.2656 667.539 23.7344V28.1875C666.68 27.7708 665.82 27.3281 664.961 26.8594C664.102 26.3646 663.32 25.7917 662.617 25.1406C661.914 24.4896 661.328 23.7344 660.859 22.875C660.417 22.0156 660.195 20.987 660.195 19.7891ZM660.82 35.7266C661.185 35.9349 661.641 36.1432 662.188 36.3516C662.76 36.5339 663.346 36.7161 663.945 36.8984C664.544 37.0547 665.143 37.1849 665.742 37.2891C666.341 37.3932 666.901 37.4453 667.422 37.4453H667.539V41.1562H667.461C666.836 41.1562 666.185 41.1172 665.508 41.0391C664.857 40.987 664.193 40.8828 663.516 40.7266C662.839 40.5703 662.188 40.362 661.562 40.1016C660.964 39.8151 660.443 39.4766 660 39.0859L660.82 35.7266ZM669.141 24.5156C670 24.9062 670.872 25.3229 671.758 25.7656C672.669 26.2083 673.49 26.7552 674.219 27.4062C674.948 28.0312 675.547 28.7995 676.016 29.7109C676.484 30.6224 676.719 31.7552 676.719 33.1094C676.719 34.0469 676.536 34.9583 676.172 35.8438C675.833 36.7292 675.339 37.5365 674.688 38.2656C674.062 38.9688 673.281 39.5677 672.344 40.0625C671.406 40.5573 670.339 40.8828 669.141 41.0391V37.2891C671.276 36.7682 672.344 35.349 672.344 33.0312C672.344 32.1198 672.044 31.3646 671.445 30.7656C670.846 30.1667 670.078 29.6068 669.141 29.0859V24.5156ZM687.656 34.3203C687.656 35.2057 687.773 35.8958 688.008 36.3906C688.242 36.8854 688.568 37.263 688.984 37.5234C689.427 37.7839 689.909 37.9531 690.43 38.0312C690.977 38.0833 691.549 38.1094 692.148 38.1094V41C691.81 41.0521 691.471 41.0911 691.133 41.1172C690.846 41.1432 690.495 41.1562 690.078 41.1562C689.688 41.1823 689.297 41.1953 688.906 41.1953C688.516 41.1953 688.112 41.1823 687.695 41.1562C687.305 41.1302 686.966 41.0911 686.68 41.0391C685.794 40.8828 685.104 40.5052 684.609 39.9062C684.115 39.2812 683.737 38.6042 683.477 37.875C683.242 37.1198 683.086 36.3906 683.008 35.6875C682.956 34.9844 682.93 34.4375 682.93 34.0469V22.1719H680.039V18.9688H682.93V12.7188H687.656V18.9688H691.172V22.1719H687.656V34.3203ZM707.93 18.7734C709.336 18.9036 710.599 19.2812 711.719 19.9062C712.865 20.5312 713.841 21.3385 714.648 22.3281C715.456 23.3177 716.068 24.4505 716.484 25.7266C716.927 27.0026 717.148 28.3307 717.148 29.7109C717.148 30.3359 717.109 30.9609 717.031 31.5859H703.633V28.1484H712.656C712.656 27.4714 712.539 26.8203 712.305 26.1953C712.096 25.5703 711.771 24.9974 711.328 24.4766C710.911 23.9297 710.417 23.474 709.844 23.1094C709.271 22.7448 708.633 22.5234 707.93 22.4453V18.7734ZM707.773 37.3281C708.06 37.3281 708.411 37.3021 708.828 37.25C709.271 37.1719 709.727 37.0547 710.195 36.8984C710.69 36.7161 711.172 36.4948 711.641 36.2344C712.135 35.974 712.565 35.6615 712.93 35.2969L714.648 37.9141C713.789 38.9818 712.786 39.7891 711.641 40.3359C710.495 40.8828 709.036 41.1562 707.266 41.1562C705.833 41.1562 704.492 40.8698 703.242 40.2969C701.992 39.6979 700.924 38.8906 700.039 37.875C699.154 36.8594 698.451 35.6745 697.93 34.3203C697.409 32.9661 697.148 31.5078 697.148 29.9453C697.148 28.4609 697.383 27.0547 697.852 25.7266C698.346 24.3984 699.01 23.2396 699.844 22.25C700.677 21.2344 701.641 20.4141 702.734 19.7891C703.854 19.1641 705.052 18.8125 706.328 18.7344V22.4844C705.365 22.6667 704.57 23.0573 703.945 23.6562C703.32 24.2552 702.826 24.9453 702.461 25.7266C702.122 26.4818 701.875 27.263 701.719 28.0703C701.589 28.8776 701.523 29.5677 701.523 30.1406C701.523 31.1562 701.641 32.1068 701.875 32.9922C702.135 33.8516 702.526 34.6068 703.047 35.2578C703.568 35.8828 704.206 36.3906 704.961 36.7812C705.742 37.1458 706.68 37.3281 707.773 37.3281ZM727.852 18.9688L728.359 21.1953V41H723.633V18.9688H727.852ZM740.039 21.3906C740.482 21.8333 740.82 22.3542 741.055 22.9531C741.315 23.526 741.497 24.138 741.602 24.7891C741.732 25.4141 741.81 26.0521 741.836 26.7031C741.862 27.3542 741.875 27.9922 741.875 28.6172V40.2188V41H737.109V29.0078C737.109 28.1224 737.07 27.276 736.992 26.4688C736.914 25.6615 736.732 24.9453 736.445 24.3203C736.159 23.6953 735.768 23.2135 735.273 22.875C734.779 22.5104 734.089 22.3281 733.203 22.3281C732.839 22.3281 732.344 22.3932 731.719 22.5234C731.12 22.6276 730.534 22.8099 729.961 23.0703V20.0625C730.664 19.6979 731.419 19.3854 732.227 19.125C733.06 18.8646 733.867 18.7344 734.648 18.7344C735.82 18.7344 736.81 18.9818 737.617 19.4766C738.424 19.9453 739.232 20.5833 740.039 21.3906ZM763.047 24.6719C762.656 24.2031 762.109 23.7734 761.406 23.3828C760.729 22.9661 759.818 22.7188 758.672 22.6406V18.8906C760.104 18.9688 761.328 19.2812 762.344 19.8281C763.385 20.349 764.323 21.1172 765.156 22.1328L763.047 24.6719ZM758.672 37.2891C759.609 37.1849 760.404 36.9635 761.055 36.625C761.732 36.2604 762.37 35.8438 762.969 35.375L764.727 37.9141C763.919 38.9297 763.047 39.7109 762.109 40.2578C761.172 40.7786 760.026 41.0781 758.672 41.1562V37.2891ZM747.773 29.9844C747.773 28.5 747.982 27.1068 748.398 25.8047C748.841 24.5026 749.479 23.3568 750.312 22.3672C751.146 21.3776 752.122 20.5833 753.242 19.9844C754.388 19.3594 755.664 18.9948 757.07 18.8906V22.6797C755.768 22.9661 754.727 23.7734 753.945 25.1016C753.164 26.4036 752.773 27.9922 752.773 29.8672C752.773 30.8307 752.865 31.7422 753.047 32.6016C753.255 33.4349 753.542 34.1771 753.906 34.8281C754.271 35.4792 754.714 36.026 755.234 36.4688C755.781 36.9115 756.393 37.1849 757.07 37.2891V41.1562C755.638 41.0781 754.349 40.7396 753.203 40.1406C752.057 39.5156 751.081 38.7083 750.273 37.7188C749.466 36.7031 748.841 35.5312 748.398 34.2031C747.982 32.875 747.773 31.4688 747.773 29.9844ZM775.977 41H771.211V18.9688H775.977V41ZM776.406 11.9375C776.406 12.7188 776.133 13.3828 775.586 13.9297C775.039 14.4505 774.375 14.7109 773.594 14.7109C772.812 14.7109 772.148 14.4375 771.602 13.8906C771.081 13.3438 770.82 12.6927 770.82 11.9375C770.82 11.1562 771.094 10.4922 771.641 9.94531C772.188 9.39844 772.839 9.125 773.594 9.125C774.375 9.125 775.039 9.39844 775.586 9.94531C776.133 10.4922 776.406 11.1562 776.406 11.9375ZM787.305 34.2812C787.305 35.1667 787.422 35.8698 787.656 36.3906C787.891 36.8854 788.216 37.263 788.633 37.5234C789.049 37.7578 789.518 37.9141 790.039 37.9922C790.586 38.0703 791.172 38.1094 791.797 38.1094V41C791.458 41.0521 791.107 41.0911 790.742 41.1172C790.456 41.1432 790.117 41.1562 789.727 41.1562C789.336 41.1823 788.945 41.1953 788.555 41.1953C788.164 41.1953 787.773 41.1823 787.383 41.1562C786.992 41.1302 786.641 41.0911 786.328 41.0391C785.443 40.8568 784.753 40.4661 784.258 39.8672C783.763 39.2682 783.385 38.6042 783.125 37.875C782.865 37.1198 782.695 36.3906 782.617 35.6875C782.565 34.9844 782.539 34.4375 782.539 34.0469V33.5781V10.6484H787.305V34.2812Z" fill="black"/>
<path d="M121.711 26.9766C121.034 27.9141 119.634 30.1797 117.512 33.7734L115.754 36.7422L119.719 36.6641L120.617 37.3672C121.372 35.7266 121.75 32.7122 121.75 28.3242C121.75 27.6602 121.737 27.2109 121.711 26.9766ZM119.699 41.0586L113.762 41.3516C112.551 43.2917 111.438 45.8177 110.422 48.9297L103.02 50.7461C103.228 49.9388 104.191 47.8034 105.91 44.3398L107.688 40.7266C109.367 37.3151 112.004 33.1159 115.598 28.1289C117.564 25.3685 119.51 22.9271 121.438 20.8047C122.57 20.7656 124.25 20.6875 126.477 20.5703L126.652 23.0703C126.77 24.9583 126.828 26.7747 126.828 28.5195C126.828 31.944 126.574 35.1341 126.066 38.0898C125.897 38.5977 125.507 40.7201 124.895 44.457C124.647 46.0065 124.4 47.2695 124.152 48.2461L116.75 50.043C117.271 48.3633 118.254 45.3685 119.699 41.0586ZM136.496 30.3945L133.43 38.7344C136.034 38.1224 138.43 36.6966 140.617 34.457C142.375 32.6211 143.254 30.7201 143.254 28.7539C143.254 26.7617 142.87 25.6354 142.102 25.375C141.255 25.0625 140.559 24.9062 140.012 24.9062H139.953C138.521 24.9714 137.388 25.1276 136.555 25.375L138.293 26.2539C138.137 26.5273 137.746 27.3477 137.121 28.7148C137.004 29.0404 136.796 29.6003 136.496 30.3945ZM133.215 43.5L132.043 43.8711C130.194 44.1185 128.443 44.2812 126.789 44.3594C127.049 43.6302 127.74 41.6185 128.859 38.3242C129.406 36.6836 130.253 34.2422 131.398 31C131.893 29.6849 132.694 27.9792 133.801 25.8828C133.449 26.1042 132.98 26.3646 132.395 26.6641L131.242 21.3125C133.924 20.9089 136.242 20.707 138.195 20.707C138.638 20.707 139.139 20.7331 139.699 20.7852C141.249 20.9023 142.134 20.9805 142.355 21.0195C143.176 21.1497 144.081 21.4297 145.07 21.8594C147.258 22.7708 148.352 24.3333 148.352 26.5469C148.352 26.9635 148.306 27.3607 148.215 27.7383C147.329 35.3424 142.329 40.5964 133.215 43.5ZM156.223 43.3438L150.305 44.7891C150.461 44.4245 150.617 41.7422 150.773 36.7422C150.878 32.3672 150.93 28.2917 150.93 24.5156C150.93 23.1875 150.91 22.3802 150.871 22.0938L156.594 20.8047C156.659 21.013 156.691 21.4818 156.691 22.2109C156.691 24.6068 156.346 29.1706 155.656 35.9023C156.945 33.5456 158.391 31.1042 159.992 28.5781C162.076 25.3099 163.697 23.0833 164.855 21.8984L165.5 21.8398C166.672 21.6966 168.026 21.5794 169.562 21.4883C168.573 22.6732 167.492 24.3203 166.32 26.4297C165.695 27.5885 164.758 29.3203 163.508 31.625L160.07 37.6797C158.534 40.2969 157.251 42.1849 156.223 43.3438ZM184.953 20.707L183.508 25.2578H181.711C178.339 25.2578 175.702 25.3359 173.801 25.4922L174.777 26.0586C174.621 26.3971 174.237 27.2956 173.625 28.7539C173.456 29.1315 173.267 29.5742 173.059 30.082L179.797 29.8281L178.371 33.9102L171.73 34.1445C171.249 35.5638 170.721 37.3672 170.148 39.5547C171.958 39.4505 174.667 39.3138 178.273 39.1445L176.789 43.6562H173.43C171.138 43.6562 167.766 44.0208 163.312 44.75V44.6914C163.312 44.5482 163.586 43.5 164.133 41.5469C164.784 39.2812 165.363 37.4323 165.871 36C166.73 33.6042 167.707 31.1888 168.801 28.7539C169.217 27.8424 169.686 26.8919 170.207 25.9023C169.1 26.0195 168.065 26.1367 167.102 26.2539L168.488 21.5664C170.65 21.3971 173.234 21.2279 176.242 21.0586C178.039 20.9544 180.943 20.8372 184.953 20.707ZM184.035 21.2344L189.777 19.9453C190.91 24.4635 191.724 28.6953 192.219 32.6406C192.284 32.6406 192.518 32.1589 192.922 31.1953L193.547 29.6719C194.224 28.0833 195.715 25.2057 198.02 21.0391L198.664 20.9805C199.836 20.8372 201.19 20.7201 202.727 20.6289C201.333 23.168 199.862 26.1823 198.312 29.6719C197.766 30.9349 196.952 33.3503 195.871 36.918C195.572 37.8685 195.005 39.7826 194.172 42.6602L188.234 44.1055C188.286 43.8841 188.312 43.5456 188.312 43.0898C188.312 40.8503 188.033 37.8815 187.473 34.1836C187.264 32.7253 187.082 31.9961 186.926 31.9961L184.875 36.918C183.938 39.1445 183.371 41.2409 183.176 43.207L177.258 44.6719C177.948 42.1198 178.723 39.5352 179.582 36.918C180.246 34.9258 181.229 32.5104 182.531 29.6719C183.104 28.4219 183.898 26.8594 184.914 24.9844C184.979 24.7891 185.012 24.6328 185.012 24.5156C185.012 24.1771 184.875 23.6367 184.602 22.8945C184.263 21.944 184.074 21.3906 184.035 21.2344ZM217.551 20.707L216.105 25.2578H214.23C212.395 25.2578 210.806 25.2773 209.465 25.3164L210.832 26.0586C209.829 27.9727 208.605 31.2865 207.16 36C206.639 37.7839 205.988 40.2122 205.207 43.2852L205.051 43.3438C203.645 43.6042 201.724 44.0729 199.289 44.75C200.057 41.8333 200.936 38.9167 201.926 36C202.525 34.1771 203.514 31.7617 204.895 28.7539C205.207 28.0117 205.728 26.9245 206.457 25.4922C204.478 25.6745 202.225 25.9284 199.699 26.2539L201.086 21.5664C203.352 21.3971 205.936 21.2279 208.84 21.0586C210.624 20.9544 213.527 20.8372 217.551 20.707ZM236.887 20.707C236.47 21.6836 235.767 23.7604 234.777 26.9375C233.801 30.1146 233.046 32.4583 232.512 33.9688C231.04 38.1354 229.354 41.026 227.453 42.6406C225.852 43.9818 223.768 44.6523 221.203 44.6523C219.914 44.6523 218.632 44.1966 217.355 43.2852C215.533 41.957 214.621 40.0039 214.621 37.4258C214.621 36.3581 214.777 35.2057 215.09 33.9688C216.079 30.0885 217.642 25.8698 219.777 21.3125L224.895 20.707C223.762 23.4414 223.026 25.2253 222.688 26.0586C221.424 29.2747 220.539 31.9115 220.031 33.9688C219.862 34.737 219.777 35.4922 219.777 36.2344C219.777 38.526 220.598 39.6719 222.238 39.6719C224.113 39.6719 225.76 37.7708 227.18 33.9688L232.102 20.707H236.887ZM252.863 27.7383C252.212 31.2148 249.986 33.3958 246.184 34.2812C248.618 36.9375 250.643 39.6068 252.258 42.2891L246.867 44.2422C245.318 41.0911 243.247 38.0052 240.656 34.9844L239.855 34.3203L239.328 35.9414C238.964 37.1133 238.312 39.5547 237.375 43.2656L237.199 43.2852C235.533 43.6107 233.612 44.0664 231.438 44.6523C232.167 41.8398 233.039 38.9362 234.055 35.9414C234.68 34.0534 235.663 31.6445 237.004 28.7148C237.277 28.1289 237.668 27.3346 238.176 26.332C237.746 26.4753 237.368 26.5859 237.043 26.6641L235.891 21.3125C238.573 20.9089 240.891 20.707 242.844 20.707C243.286 20.707 243.788 20.7331 244.348 20.7852C245.897 20.9023 246.783 20.9805 247.004 21.0195C247.824 21.1497 248.729 21.4297 249.719 21.8594C251.906 22.7708 253 24.3333 253 26.5469C253 26.8594 252.954 27.2565 252.863 27.7383ZM248.098 27.2305C248.098 26.3971 247.544 25.7786 246.438 25.375C246.112 25.2448 245.585 25.1797 244.855 25.1797H244.445C243.794 25.2057 242.922 25.375 241.828 25.6875L242.941 26.2539C242.564 26.918 242.173 27.7383 241.77 28.7148C241.743 28.7799 241.535 29.3398 241.145 30.3945L242.492 30.3555C243.885 30.3164 245.064 30.1146 246.027 29.75C247.408 29.2031 248.098 28.3633 248.098 27.2305ZM271.945 20.707L270.5 25.2578H268.703C265.331 25.2578 262.694 25.3359 260.793 25.4922L261.77 26.0586C261.613 26.3971 261.229 27.2956 260.617 28.7539C260.448 29.1315 260.259 29.5742 260.051 30.082L266.789 29.8281L265.363 33.9102L258.723 34.1445C258.241 35.5638 257.714 37.3672 257.141 39.5547C258.951 39.4505 261.659 39.3138 265.266 39.1445L263.781 43.6562H260.422C258.13 43.6562 254.758 44.0208 250.305 44.75V44.6914C250.305 44.5482 250.578 43.5 251.125 41.5469C251.776 39.2812 252.355 37.4323 252.863 36C253.723 33.6042 254.699 31.1888 255.793 28.7539C256.21 27.8424 256.678 26.8919 257.199 25.9023C256.092 26.0195 255.057 26.1367 254.094 26.2539L255.48 21.5664C257.642 21.3971 260.227 21.2279 263.234 21.0586C265.031 20.9544 267.935 20.8372 271.945 20.707Z" fill="black"/>
<path d="M3.64 124.76C3 124.76 2.53333 124.613 2.24 124.32C1.94667 124.027 1.8 123.56 1.8 122.92V97C1.8 96.6533 1.84 96.36 1.92 96.12C2.02667 95.88 2.17333 95.68 2.36 95.52L7.52 91.16C7.65333 91.0533 7.82667 90.9733 8.04 90.92C8.28 90.84 8.53333 90.8 8.8 90.8H21.56C24.3333 90.8 26.3733 91.3467 27.68 92.44C28.9867 93.5067 29.64 95.1333 29.64 97.32V99.24C29.64 100.173 29.5067 100.973 29.24 101.64C29 102.307 28.6267 102.84 28.12 103.24L28 103.32C29.44 103.64 30.52 104.333 31.24 105.4C31.96 106.44 32.32 107.893 32.32 109.76V113.44C32.32 114.64 32.1467 115.68 31.8 116.56C31.4533 117.413 30.9333 118.133 30.24 118.72L25.08 123.08C24.4133 123.64 23.5733 124.053 22.56 124.32C21.5467 124.613 20.36 124.76 19 124.76H3.64ZM24.16 120C26.8 120 28.7467 119.467 30 118.4C31.28 117.333 31.92 115.68 31.92 113.44V109.76C31.92 107.813 31.5067 106.333 30.68 105.32C29.8533 104.307 28.5867 103.72 26.88 103.56C27.68 103.213 28.2667 102.693 28.64 102C29.04 101.28 29.24 100.36 29.24 99.24V97.32C29.24 95.24 28.6133 93.7067 27.36 92.72C26.1067 91.7067 24.1733 91.2 21.56 91.2H8.8C8.29333 91.2 7.92 91.32 7.68 91.56C7.46667 91.7733 7.36 92.1333 7.36 92.64V118.56C7.36 119.067 7.46667 119.44 7.68 119.68C7.92 119.893 8.29333 120 8.8 120H24.16ZM22.56 116.4H11.8V94.8H19.92C21.0133 94.8 21.9067 94.92 22.6 95.16C23.2933 95.3733 23.8267 95.68 24.2 96.08C24.5733 96.4533 24.8267 96.8933 24.96 97.4C25.0933 97.9067 25.16 98.4533 25.16 99.04V101.6C25.16 102.4 25.0133 103.133 24.72 103.8C24.4533 104.467 23.7467 104.947 22.6 105.24C23.6933 105.24 24.5867 105.36 25.28 105.6C25.9733 105.813 26.5067 106.133 26.88 106.56C27.2533 106.96 27.4933 107.44 27.6 108C27.7333 108.56 27.8 109.173 27.8 109.84V112.4C27.8 112.987 27.7333 113.533 27.6 114.04C27.4667 114.52 27.2133 114.933 26.84 115.28C26.4933 115.627 25.9733 115.907 25.28 116.12C24.5867 116.307 23.68 116.4 22.56 116.4ZM19.92 95.2H12.2V105.24H19.92C21.0133 105.24 21.88 105.147 22.52 104.96C23.16 104.747 23.64 104.48 23.96 104.16C24.3067 103.813 24.52 103.427 24.6 103C24.7067 102.547 24.76 102.08 24.76 101.6V99.04C24.76 97.9733 24.4533 97.0667 23.84 96.32C23.2267 95.5733 21.92 95.2 19.92 95.2ZM16.36 98H19.76C20.2667 98 20.64 98.1333 20.88 98.4C21.1467 98.6667 21.28 99.0667 21.28 99.6V100.72C21.28 101.253 21.1467 101.653 20.88 101.92C20.64 102.187 20.2667 102.32 19.76 102.32H16.36V98ZM22.6 105.64H12.2V116H22.56C24.56 116 25.8667 115.68 26.48 115.04C27.0933 114.373 27.4 113.493 27.4 112.4V109.84C27.4 108.64 27.0933 107.64 26.48 106.84C25.8933 106.04 24.6 105.64 22.6 105.64ZM16.36 108.48H21.56C22.0667 108.48 22.44 108.613 22.68 108.88C22.9467 109.12 23.08 109.507 23.08 110.04V111.6C23.08 112.133 22.9467 112.533 22.68 112.8C22.44 113.067 22.0667 113.2 21.56 113.2H16.36V108.48ZM47.3678 125.36C44.7811 125.36 42.6478 125.08 40.9678 124.52C39.3145 123.987 38.0211 123.267 37.0878 122.36C36.1545 121.453 35.5011 120.413 35.1278 119.24C34.7811 118.067 34.6078 116.853 34.6078 115.6V97C34.6078 96.6533 34.6478 96.36 34.7278 96.12C34.8345 95.88 34.9811 95.68 35.1678 95.52L40.3278 91.16C40.4611 91.0533 40.6345 90.9733 40.8478 90.92C41.0878 90.84 41.3411 90.8 41.6078 90.8H47.8878C48.5278 90.8 48.9945 90.9467 49.2878 91.24C49.5811 91.5333 49.7278 92 49.7278 92.64V110.88C49.7278 111.12 49.7678 111.347 49.8478 111.56C49.9278 111.747 50.1011 111.893 50.3678 112V97C50.3678 96.6533 50.4078 96.36 50.4878 96.12C50.5678 95.88 50.6878 95.6933 50.8478 95.56L50.8878 95.52L56.0878 91.16C56.2211 91.0533 56.3945 90.9733 56.6078 90.92C56.8211 90.84 57.0745 90.8 57.3678 90.8H63.4478C64.0878 90.8 64.5545 90.9467 64.8478 91.24C65.1411 91.5333 65.2878 92 65.2878 92.64V112.44C65.2878 113.667 65.1145 114.8 64.7678 115.84C64.4211 116.88 63.7945 117.773 62.8878 118.52L57.6878 122.84C56.7545 123.64 55.4611 124.253 53.8078 124.68C52.1545 125.133 50.0078 125.36 47.3678 125.36ZM64.8878 112.44V92.64C64.8878 92.1333 64.7678 91.7733 64.5278 91.56C64.3145 91.32 63.9545 91.2 63.4478 91.2H57.3678C56.8611 91.2 56.4878 91.32 56.2478 91.56C56.0345 91.7733 55.9278 92.1333 55.9278 92.64V110.88C55.9278 111.413 55.7278 111.867 55.3278 112.24C54.9278 112.587 54.0211 112.76 52.6078 112.76C51.2211 112.76 50.3278 112.587 49.9278 112.24C49.5278 111.867 49.3278 111.413 49.3278 110.88V92.64C49.3278 92.1333 49.2078 91.7733 48.9678 91.56C48.7545 91.32 48.3945 91.2 47.8878 91.2H41.6078C41.1011 91.2 40.7278 91.32 40.4878 91.56C40.2745 91.7733 40.1678 92.1333 40.1678 92.64V112.44C40.1678 113.667 40.3411 114.787 40.6878 115.8C41.0611 116.787 41.7011 117.64 42.6078 118.36C43.5411 119.053 44.8078 119.6 46.4078 120C48.0078 120.4 50.0478 120.6 52.5278 120.6C55.0078 120.6 57.0478 120.4 58.6478 120C60.2478 119.6 61.5011 119.053 62.4078 118.36C63.3411 117.64 63.9811 116.787 64.3278 115.8C64.7011 114.787 64.8878 113.667 64.8878 112.44ZM44.5678 94.8H44.9678V111.48C44.9678 112.973 45.4878 114.187 46.5278 115.12C47.5945 116.027 49.6078 116.48 52.5678 116.48C55.5278 116.48 57.5411 116.027 58.6078 115.12C59.6745 114.187 60.2078 112.973 60.2078 111.48V94.8H60.6078V111.48C60.6078 113.08 60.0478 114.387 58.9278 115.4C57.8078 116.387 55.6878 116.88 52.5678 116.88C49.4478 116.88 47.3278 116.387 46.2078 115.4C45.1145 114.387 44.5678 113.08 44.5678 111.48V94.8ZM79.4759 95.12L94.1959 111.68V94.8H94.5959V116.4H94.1959V112.28L79.0759 95.32C79.0493 95.2933 79.0093 95.2667 78.9559 95.24C78.9293 95.2133 78.9026 95.2 78.8759 95.2C78.8493 95.2 78.8226 95.2133 78.7959 95.24C78.7959 95.2667 78.7959 95.2933 78.7959 95.32V116.4H78.3959V95.24C78.3959 95.08 78.4493 94.96 78.5559 94.88C78.6626 94.8 78.7693 94.76 78.8759 94.76C78.9826 94.76 79.0759 94.7867 79.1559 94.84C79.2359 94.8933 79.3426 94.9867 79.4759 95.12ZM81.6359 120C82.1426 120 82.5026 119.893 82.7159 119.68C82.9559 119.44 83.0759 119.067 83.0759 118.56V105.36L89.9159 113.64V118.56C89.9159 119.067 90.0226 119.44 90.2359 119.68C90.4759 119.893 90.8493 120 91.3559 120H97.3559C97.8626 120 98.2226 119.893 98.4359 119.68C98.6759 119.44 98.7959 119.067 98.7959 118.56V92.64C98.7959 92.1333 98.6759 91.7733 98.4359 91.56C98.2226 91.32 97.8626 91.2 97.3559 91.2H91.3559C90.8493 91.2 90.4759 91.32 90.2359 91.56C90.0226 91.7733 89.9159 92.1333 89.9159 92.64V101.16L82.1559 92.28C81.8093 91.88 81.4493 91.6 81.0759 91.44C80.7293 91.28 80.3026 91.2 79.7959 91.2H75.6359C75.1293 91.2 74.7559 91.32 74.5159 91.56C74.3026 91.7733 74.1959 92.1333 74.1959 92.64V118.56C74.1959 119.067 74.3026 119.44 74.5159 119.68C74.7559 119.893 75.1293 120 75.6359 120H81.6359ZM82.9159 120.04L77.7159 124.36C77.6093 124.467 77.4359 124.56 77.1959 124.64C76.9826 124.72 76.7426 124.76 76.4759 124.76H70.4759C69.8359 124.76 69.3693 124.613 69.0759 124.32C68.7826 124.027 68.6359 123.56 68.6359 122.92V97C68.6359 96.6533 68.6759 96.36 68.7559 96.12C68.8626 95.88 69.0093 95.68 69.1959 95.52L74.3559 91.16C74.4893 91.0533 74.6626 90.9733 74.8759 90.92C75.1159 90.84 75.3693 90.8 75.6359 90.8H79.7959C80.3826 90.8 80.8759 90.8933 81.2759 91.08C81.6759 91.2667 82.0759 91.5733 82.4759 92L85.2359 95.2L90.0759 91.16C90.2093 91.0533 90.3826 90.9733 90.5959 90.92C90.8359 90.84 91.0893 90.8 91.3559 90.8H97.3559C97.9959 90.8 98.4626 90.9467 98.7559 91.24C99.0493 91.5333 99.1959 92 99.1959 92.64V118.56C99.1959 118.907 99.1426 119.2 99.0359 119.44C98.9559 119.68 98.8226 119.88 98.6359 120.04L93.4359 124.36C93.3293 124.467 93.1559 124.56 92.9159 124.64C92.7026 124.72 92.4626 124.76 92.1959 124.76H86.1959C85.5559 124.76 85.0893 124.613 84.7959 124.32C84.5026 124.027 84.3559 123.56 84.3559 122.92V118.16L83.4759 117.08V118.56C83.4759 118.907 83.4226 119.2 83.3159 119.44C83.2359 119.68 83.1026 119.88 82.9159 120.04ZM125.138 124.76H112.538C109.044 124.76 106.458 123.853 104.778 122.04C103.124 120.227 102.298 117.88 102.298 115V103.72C102.298 102.253 102.511 100.987 102.938 99.92C103.364 98.8533 103.991 97.96 104.818 97.24L109.978 92.88C110.804 92.1867 111.858 91.6667 113.138 91.32C114.444 90.9733 115.964 90.8 117.698 90.8H127.698C128.338 90.8 128.804 90.9467 129.098 91.24C129.391 91.5333 129.538 92 129.538 92.64V97.48C129.538 97.8267 129.484 98.12 129.378 98.36C129.298 98.6 129.164 98.8 128.978 98.96L123.778 103.28C123.671 103.387 123.498 103.48 123.258 103.56C123.044 103.64 122.804 103.68 122.538 103.68H117.338V109.44C117.364 109.387 117.404 109.333 117.458 109.28C117.538 109.2 117.604 109.133 117.658 109.08L122.818 104.72C122.951 104.613 123.124 104.533 123.338 104.48C123.578 104.4 123.831 104.36 124.098 104.36H130.298C130.938 104.36 131.404 104.507 131.698 104.8C131.991 105.093 132.138 105.56 132.138 106.2V118.56C132.138 118.907 132.084 119.2 131.978 119.44C131.898 119.68 131.764 119.88 131.578 120.04L126.378 124.36C126.271 124.467 126.098 124.56 125.858 124.64C125.644 124.72 125.404 124.76 125.138 124.76ZM130.298 120C130.804 120 131.164 119.893 131.378 119.68C131.618 119.44 131.738 119.067 131.738 118.56V106.2C131.738 105.693 131.618 105.333 131.378 105.12C131.164 104.88 130.804 104.76 130.298 104.76H124.098C123.591 104.76 123.218 104.88 122.977 105.12C122.764 105.333 122.658 105.693 122.658 106.2V112.44H118.778C118.164 112.44 117.698 112.28 117.378 111.96C117.084 111.64 116.938 111.147 116.938 110.48V100.92C116.938 100.253 117.138 99.76 117.538 99.44C117.938 99.0933 118.551 98.92 119.378 98.92H127.698C128.204 98.92 128.564 98.8133 128.778 98.6C129.018 98.36 129.138 97.9867 129.138 97.48V92.64C129.138 92.1333 129.018 91.7733 128.778 91.56C128.564 91.32 128.204 91.2 127.698 91.2H117.698C114.364 91.2 111.884 91.8667 110.258 93.2C108.658 94.5333 107.858 96.5867 107.858 99.36V111.84C107.858 114.613 108.658 116.667 110.258 118C111.884 119.333 114.364 120 117.698 120H130.298ZM119.418 116.4C117.951 116.4 116.751 116.307 115.818 116.12C114.884 115.933 114.151 115.64 113.618 115.24C113.084 114.813 112.711 114.28 112.498 113.64C112.311 112.973 112.218 112.173 112.218 111.24V100.04C112.218 98.1467 112.644 96.8 113.498 96C114.351 95.2 116.058 94.8 118.618 94.8H125.538V95.2H118.618C116.271 95.2 114.684 95.5733 113.858 96.32C113.031 97.04 112.618 98.28 112.618 100.04V111.24C112.618 112.973 113.071 114.2 113.978 114.92C114.911 115.64 116.724 116 119.418 116H126.978V108.36H127.378V116.4H119.418ZM155.442 124.76H136.882C136.242 124.76 135.776 124.613 135.482 124.32C135.189 124.027 135.042 123.56 135.042 122.92V97C135.042 96.6533 135.082 96.36 135.162 96.12C135.269 95.88 135.416 95.68 135.602 95.52L140.762 91.16C140.896 91.0533 141.069 90.9733 141.282 90.92C141.522 90.84 141.776 90.8 142.042 90.8H160.602C161.242 90.8 161.709 90.9467 162.002 91.24C162.296 91.5333 162.442 92 162.442 92.64V97.32C162.442 97.6667 162.389 97.96 162.282 98.2C162.202 98.44 162.069 98.64 161.882 98.8L158.442 101.64C158.709 101.773 158.896 101.973 159.002 102.24C159.136 102.507 159.202 102.853 159.202 103.28V107.56C159.202 107.907 159.149 108.2 159.042 108.44C158.962 108.68 158.829 108.88 158.642 109.04L155.082 112.04H160.602C161.242 112.04 161.709 112.187 162.002 112.48C162.296 112.773 162.442 113.24 162.442 113.88V118.56C162.442 118.907 162.389 119.2 162.282 119.44C162.202 119.68 162.069 119.88 161.882 120.04L156.682 124.36C156.576 124.467 156.402 124.56 156.162 124.64C155.949 124.72 155.709 124.76 155.442 124.76ZM160.602 120C161.109 120 161.469 119.893 161.682 119.68C161.922 119.44 162.042 119.067 162.042 118.56V113.88C162.042 113.373 161.922 113.013 161.682 112.8C161.469 112.56 161.109 112.44 160.602 112.44H149.562V109H157.362C157.869 109 158.229 108.893 158.442 108.68C158.682 108.44 158.802 108.067 158.802 107.56V103.28C158.802 102.773 158.682 102.413 158.442 102.2C158.229 101.96 157.869 101.84 157.362 101.84H149.562V98.76H160.602C161.109 98.76 161.469 98.6533 161.682 98.44C161.922 98.2 162.042 97.8267 162.042 97.32V92.64C162.042 92.1333 161.922 91.7733 161.682 91.56C161.469 91.32 161.109 91.2 160.602 91.2H142.042C141.536 91.2 141.162 91.32 140.922 91.56C140.709 91.7733 140.602 92.1333 140.602 92.64V118.56C140.602 119.067 140.709 119.44 140.922 119.68C141.162 119.893 141.536 120 142.042 120H160.602ZM158.442 116V116.4H144.962V94.8H158.442V95.2H145.362V105.24H155.202V105.64H145.362V116H158.442ZM185.598 124.76H167.038C166.398 124.76 165.932 124.613 165.638 124.32C165.345 124.027 165.198 123.56 165.198 122.92V97C165.198 96.6533 165.238 96.36 165.318 96.12C165.425 95.88 165.572 95.68 165.758 95.52L170.918 91.16C171.052 91.0533 171.225 90.9733 171.438 90.92C171.678 90.84 171.932 90.8 172.198 90.8H190.758C191.398 90.8 191.865 90.9467 192.158 91.24C192.452 91.5333 192.598 92 192.598 92.64V97.32C192.598 97.6667 192.545 97.96 192.438 98.2C192.358 98.44 192.225 98.64 192.038 98.8L188.598 101.64C188.865 101.773 189.052 101.973 189.158 102.24C189.292 102.507 189.358 102.853 189.358 103.28V107.56C189.358 107.907 189.305 108.2 189.198 108.44C189.118 108.68 188.985 108.88 188.798 109.04L185.238 112.04H190.758C191.398 112.04 191.865 112.187 192.158 112.48C192.452 112.773 192.598 113.24 192.598 113.88V118.56C192.598 118.907 192.545 119.2 192.438 119.44C192.358 119.68 192.225 119.88 192.038 120.04L186.838 124.36C186.732 124.467 186.558 124.56 186.318 124.64C186.105 124.72 185.865 124.76 185.598 124.76ZM190.758 120C191.265 120 191.625 119.893 191.838 119.68C192.078 119.44 192.198 119.067 192.198 118.56V113.88C192.198 113.373 192.078 113.013 191.838 112.8C191.625 112.56 191.265 112.44 190.758 112.44H179.718V109H187.518C188.025 109 188.385 108.893 188.598 108.68C188.838 108.44 188.958 108.067 188.958 107.56V103.28C188.958 102.773 188.838 102.413 188.598 102.2C188.385 101.96 188.025 101.84 187.518 101.84H179.718V98.76H190.758C191.265 98.76 191.625 98.6533 191.838 98.44C192.078 98.2 192.198 97.8267 192.198 97.32V92.64C192.198 92.1333 192.078 91.7733 191.838 91.56C191.625 91.32 191.265 91.2 190.758 91.2H172.198C171.692 91.2 171.318 91.32 171.078 91.56C170.865 91.7733 170.758 92.1333 170.758 92.64V118.56C170.758 119.067 170.865 119.44 171.078 119.68C171.318 119.893 171.692 120 172.198 120H190.758ZM188.598 116V116.4H175.118V94.8H188.598V95.2H175.518V105.24H185.358V105.64H175.518V116H188.598ZM209.483 124.76C208.843 124.76 208.376 124.613 208.083 124.32C207.789 124.027 207.643 123.56 207.643 122.92V118.24C207.643 117.893 207.683 117.6 207.763 117.36C207.869 117.12 208.016 116.92 208.203 116.76L212.203 113.4C210.789 112.973 209.669 112.253 208.843 111.24C208.043 110.2 207.643 108.72 207.643 106.8V102.6C207.643 101.4 207.843 100.333 208.243 99.4C208.643 98.4667 209.216 97.68 209.963 97.04L215.163 92.68C215.883 92.0933 216.776 91.64 217.843 91.32C218.909 90.9733 220.123 90.8 221.483 90.8H232.683C233.323 90.8 233.789 90.9467 234.083 91.24C234.376 91.5333 234.523 92 234.523 92.64V97.4C234.523 97.7467 234.469 98.04 234.363 98.28C234.283 98.52 234.149 98.72 233.963 98.88L230.363 101.88C232.043 102.253 233.389 102.96 234.403 104C235.443 105.013 235.963 106.6 235.963 108.76V112.96C235.963 114.16 235.763 115.227 235.363 116.16C234.963 117.093 234.376 117.88 233.603 118.52L228.443 122.84C227.696 123.453 226.789 123.92 225.723 124.24C224.656 124.587 223.456 124.76 222.123 124.76H209.483ZM227.283 120C229.843 120 231.856 119.4 233.323 118.2C234.816 116.973 235.563 115.227 235.563 112.96V108.76C235.563 106.52 234.989 104.92 233.843 103.96C232.696 103 231.189 102.387 229.323 102.12L223.363 101.32C223.016 101.293 222.749 101.16 222.563 100.92C222.376 100.68 222.283 100.387 222.283 100.04C222.283 99.6933 222.376 99.4133 222.563 99.2C222.749 98.96 223.016 98.84 223.363 98.84H232.683C233.189 98.84 233.549 98.7333 233.763 98.52C234.003 98.28 234.123 97.9067 234.123 97.4V92.64C234.123 92.1333 234.003 91.7733 233.763 91.56C233.549 91.32 233.189 91.2 232.683 91.2H221.483C218.896 91.2 216.869 91.8133 215.403 93.04C213.936 94.24 213.203 95.9733 213.203 98.24V102.44C213.203 104.68 213.763 106.28 214.883 107.24C216.029 108.2 217.536 108.813 219.403 109.08L225.403 109.92C225.749 109.947 226.003 110.067 226.163 110.28C226.349 110.493 226.443 110.827 226.443 111.28C226.443 111.6 226.349 111.88 226.163 112.12C226.003 112.333 225.749 112.44 225.403 112.44H214.643C214.136 112.44 213.763 112.56 213.523 112.8C213.309 113.013 213.203 113.373 213.203 113.88V118.56C213.203 119.067 213.309 119.44 213.523 119.68C213.763 119.893 214.136 120 214.643 120H227.283ZM230.523 94.8V95.2H221.643C220.523 95.2 219.629 95.5067 218.963 96.12C218.296 96.7333 217.963 97.5067 217.963 98.44V101.72C217.963 102.653 218.149 103.307 218.523 103.68C218.896 104.053 219.389 104.293 220.003 104.4L228.443 106.12C229.243 106.28 229.896 106.627 230.403 107.16C230.936 107.693 231.203 108.653 231.203 110.04V112.36C231.203 113.533 230.803 114.507 230.003 115.28C229.203 116.027 228.123 116.4 226.762 116.4H216.803V116H226.762C227.989 116 228.963 115.667 229.683 115C230.429 114.307 230.803 113.427 230.803 112.36V110.04C230.803 108.787 230.576 107.933 230.123 107.48C229.696 107 229.109 106.68 228.363 106.52L219.923 104.8C219.229 104.667 218.656 104.4 218.203 104C217.776 103.573 217.563 102.813 217.563 101.72V98.44C217.563 97.3733 217.936 96.5067 218.683 95.84C219.429 95.1467 220.416 94.8 221.643 94.8H230.523ZM248.243 116.4V94.8H248.643V105.4H264.003V94.8H264.403V116.4H264.003V105.8H248.643V116.4H248.243ZM251.563 120C252.069 120 252.429 119.893 252.643 119.68C252.883 119.44 253.003 119.067 253.003 118.56V109.68H259.683V118.56C259.683 119.067 259.789 119.44 260.003 119.68C260.243 119.893 260.616 120 261.123 120H267.323C267.829 120 268.189 119.893 268.403 119.68C268.643 119.44 268.763 119.067 268.763 118.56V92.64C268.763 92.1333 268.643 91.7733 268.403 91.56C268.189 91.32 267.829 91.2 267.323 91.2H261.123C260.616 91.2 260.243 91.32 260.003 91.56C259.789 91.7733 259.683 92.1333 259.683 92.64V101.32H253.003V92.64C253.003 92.1333 252.883 91.7733 252.643 91.56C252.429 91.32 252.069 91.2 251.563 91.2H245.363C244.856 91.2 244.483 91.32 244.243 91.56C244.029 91.7733 243.923 92.1333 243.923 92.64V118.56C243.923 119.067 244.029 119.44 244.243 119.68C244.483 119.893 244.856 120 245.363 120H251.563ZM252.843 120.04L247.643 124.36C247.536 124.467 247.363 124.56 247.122 124.64C246.909 124.72 246.669 124.76 246.403 124.76H240.203C239.563 124.76 239.096 124.613 238.803 124.32C238.509 124.027 238.363 123.56 238.363 122.92V97C238.363 96.6533 238.403 96.36 238.483 96.12C238.589 95.88 238.736 95.68 238.923 95.52L244.083 91.16C244.216 91.0533 244.389 90.9733 244.603 90.92C244.843 90.84 245.096 90.8 245.363 90.8H251.563C252.203 90.8 252.669 90.9467 252.963 91.24C253.256 91.5333 253.403 92 253.403 92.64V100.92H254.123V97C254.123 96.6533 254.163 96.36 254.243 96.12C254.349 95.88 254.496 95.68 254.683 95.52L259.843 91.16C259.976 91.0533 260.149 90.9733 260.363 90.92C260.603 90.84 260.856 90.8 261.123 90.8H267.323C267.963 90.8 268.429 90.9467 268.723 91.24C269.016 91.5333 269.163 92 269.163 92.64V118.56C269.163 118.907 269.109 119.2 269.003 119.44C268.923 119.68 268.789 119.88 268.603 120.04L263.403 124.36C263.296 124.467 263.123 124.56 262.883 124.64C262.669 124.72 262.429 124.76 262.163 124.76H255.963C255.323 124.76 254.856 124.613 254.563 124.32C254.269 124.027 254.123 123.56 254.123 122.92V114.44H253.403V118.56C253.403 118.907 253.349 119.2 253.243 119.44C253.163 119.68 253.029 119.88 252.843 120.04ZM282.338 107.88V109.12H297.938V107.88C297.938 107.16 297.871 106.493 297.738 105.88C297.631 105.267 297.484 104.693 297.298 104.16L294.538 97.64C294.244 96.9467 293.938 96.3733 293.618 95.92C293.298 95.44 292.764 95.2 292.018 95.2H288.098C287.298 95.2 286.738 95.44 286.418 95.92C286.098 96.3733 285.804 96.9333 285.538 97.6L282.978 104.16C282.791 104.693 282.631 105.267 282.498 105.88C282.391 106.493 282.338 107.16 282.338 107.88ZM288.738 99.6C288.844 99.36 288.951 99.1867 289.058 99.08C289.191 98.9733 289.338 98.92 289.498 98.92H290.498C290.658 98.92 290.791 98.9733 290.898 99.08C291.031 99.1867 291.151 99.36 291.258 99.6L293.138 105.68H286.858L288.738 99.6ZM297.938 116.4V109.52H282.338V116.4H281.938V107.88C281.938 107.133 281.991 106.453 282.098 105.84C282.231 105.2 282.404 104.587 282.618 104L285.178 97.44C285.471 96.6933 285.804 96.0667 286.178 95.56C286.551 95.0533 287.191 94.8 288.098 94.8H292.018C292.898 94.8 293.511 95.0533 293.858 95.56C294.231 96.0667 294.578 96.7067 294.898 97.48L297.658 104C297.871 104.587 298.031 105.2 298.138 105.84C298.271 106.453 298.338 107.133 298.338 107.88V116.4H297.938ZM286.458 118.56V112.96H293.537V118.56C293.537 119.067 293.657 119.44 293.898 119.68C294.164 119.893 294.564 120 295.098 120H301.138C301.644 120 302.004 119.893 302.218 119.68C302.458 119.44 302.578 119.067 302.578 118.56V108C302.578 107.2 302.444 106.28 302.178 105.24C301.938 104.2 301.551 102.987 301.018 101.6L297.538 92.52C297.378 92.0667 297.124 91.7333 296.778 91.52C296.458 91.3067 296.044 91.2 295.538 91.2H284.778C284.244 91.2 283.804 91.3067 283.458 91.52C283.138 91.7333 282.898 92.0667 282.738 92.52L279.258 101.6C278.724 102.987 278.324 104.2 278.058 105.24C277.818 106.28 277.698 107.2 277.698 108V118.56C277.698 119.067 277.804 119.44 278.018 119.68C278.258 119.893 278.631 120 279.138 120H285.018C285.524 120 285.884 119.893 286.098 119.68C286.338 119.44 286.458 119.067 286.458 118.56ZM281.098 124.36C280.991 124.467 280.818 124.56 280.578 124.64C280.364 124.72 280.124 124.76 279.858 124.76H273.978C273.338 124.76 272.871 124.613 272.578 124.32C272.284 124.027 272.138 123.56 272.138 122.92V112.36C272.138 111.533 272.258 110.6 272.498 109.56C272.764 108.493 273.178 107.24 273.738 105.8L277.178 96.76C277.258 96.52 277.351 96.32 277.458 96.16C277.591 95.9733 277.724 95.8133 277.858 95.68L277.898 95.64L283.018 91.36C283.231 91.1733 283.484 91.04 283.778 90.96C284.071 90.8533 284.404 90.8 284.778 90.8H295.538C296.151 90.8 296.644 90.9333 297.018 91.2C297.418 91.44 297.711 91.8267 297.898 92.36L301.378 101.44C301.938 102.88 302.338 104.133 302.578 105.2C302.844 106.24 302.978 107.173 302.978 108V118.56C302.978 118.907 302.924 119.2 302.818 119.44C302.738 119.68 302.604 119.88 302.418 120.04L297.218 124.36C297.111 124.467 296.938 124.56 296.698 124.64C296.484 124.72 296.244 124.76 295.978 124.76H289.938C289.271 124.76 288.778 124.6 288.458 124.28C288.138 123.987 287.978 123.533 287.978 122.92V117.72H286.858V118.56C286.858 118.907 286.804 119.2 286.698 119.44C286.618 119.68 286.484 119.88 286.298 120.04L281.098 124.36ZM328.941 122.64C328.114 123.333 327.061 123.853 325.781 124.2C324.501 124.573 322.994 124.76 321.261 124.76H307.781C307.141 124.76 306.674 124.613 306.381 124.32C306.087 124.027 305.941 123.56 305.941 122.92V97C305.941 96.6533 305.981 96.36 306.061 96.12C306.167 95.88 306.314 95.68 306.501 95.52L311.661 91.16C311.794 91.0533 311.967 90.9733 312.181 90.92C312.421 90.84 312.674 90.8 312.941 90.8H326.421C329.914 90.8 332.487 91.5067 334.141 92.92C335.821 94.3333 336.661 96.48 336.661 99.36V111.84C336.661 113.28 336.447 114.547 336.021 115.64C335.594 116.707 334.967 117.6 334.141 118.32L328.941 122.64ZM326.421 120C329.754 120 332.221 119.333 333.821 118C335.447 116.667 336.261 114.613 336.261 111.84V99.36C336.261 96.5867 335.447 94.5333 333.821 93.2C332.221 91.8667 329.754 91.2 326.421 91.2H312.941C312.434 91.2 312.061 91.32 311.821 91.56C311.607 91.7733 311.501 92.1333 311.501 92.64V118.56C311.501 119.067 311.607 119.44 311.821 119.68C312.061 119.893 312.434 120 312.941 120H326.421ZM315.861 116.4V94.8H325.541C326.901 94.8 327.994 94.9467 328.821 95.24C329.674 95.5333 330.327 95.9333 330.781 96.44C331.234 96.92 331.541 97.5067 331.701 98.2C331.861 98.8667 331.941 99.5867 331.941 100.36V110.96C331.941 111.733 331.861 112.453 331.701 113.12C331.567 113.787 331.274 114.36 330.821 114.84C330.367 115.32 329.714 115.707 328.861 116C328.007 116.267 326.901 116.4 325.541 116.4H315.861ZM325.541 95.2H316.261V116H325.541C326.821 116 327.847 115.88 328.621 115.64C329.421 115.373 330.034 115.027 330.461 114.6C330.887 114.147 331.167 113.613 331.301 113C331.461 112.36 331.541 111.68 331.541 110.96V100.36C331.541 99.64 331.461 98.96 331.301 98.32C331.141 97.68 330.847 97.1333 330.421 96.68C329.994 96.2267 329.381 95.8667 328.581 95.6C327.807 95.3333 326.794 95.2 325.541 95.2ZM320.581 98.84H325.341C325.981 98.84 326.447 99 326.741 99.32C327.061 99.6133 327.221 100.093 327.221 100.76V110.48C327.221 111.147 327.061 111.64 326.741 111.96C326.447 112.28 325.981 112.44 325.341 112.44H320.581V98.84ZM321.661 105.12C321.661 104.773 321.607 104.48 321.501 104.24C321.394 104 321.221 103.827 320.981 103.72V112.04H321.661V105.12ZM360.169 124.76H341.609C340.969 124.76 340.502 124.613 340.209 124.32C339.915 124.027 339.769 123.56 339.769 122.92V97C339.769 96.6533 339.809 96.36 339.889 96.12C339.995 95.88 340.142 95.68 340.329 95.52L345.489 91.16C345.622 91.0533 345.795 90.9733 346.009 90.92C346.249 90.84 346.502 90.8 346.769 90.8H365.329C365.969 90.8 366.435 90.9467 366.729 91.24C367.022 91.5333 367.169 92 367.169 92.64V97.32C367.169 97.6667 367.115 97.96 367.009 98.2C366.929 98.44 366.795 98.64 366.609 98.8L363.169 101.64C363.435 101.773 363.622 101.973 363.729 102.24C363.862 102.507 363.929 102.853 363.929 103.28V107.56C363.929 107.907 363.875 108.2 363.769 108.44C363.689 108.68 363.555 108.88 363.369 109.04L359.809 112.04H365.329C365.969 112.04 366.435 112.187 366.729 112.48C367.022 112.773 367.169 113.24 367.169 113.88V118.56C367.169 118.907 367.115 119.2 367.009 119.44C366.929 119.68 366.795 119.88 366.609 120.04L361.409 124.36C361.302 124.467 361.129 124.56 360.889 124.64C360.675 124.72 360.435 124.76 360.169 124.76ZM365.329 120C365.835 120 366.195 119.893 366.409 119.68C366.649 119.44 366.769 119.067 366.769 118.56V113.88C366.769 113.373 366.649 113.013 366.409 112.8C366.195 112.56 365.835 112.44 365.329 112.44H354.289V109H362.089C362.595 109 362.955 108.893 363.169 108.68C363.409 108.44 363.529 108.067 363.529 107.56V103.28C363.529 102.773 363.409 102.413 363.169 102.2C362.955 101.96 362.595 101.84 362.089 101.84H354.289V98.76H365.329C365.835 98.76 366.195 98.6533 366.409 98.44C366.649 98.2 366.769 97.8267 366.769 97.32V92.64C366.769 92.1333 366.649 91.7733 366.409 91.56C366.195 91.32 365.835 91.2 365.329 91.2H346.769C346.262 91.2 345.889 91.32 345.649 91.56C345.435 91.7733 345.329 92.1333 345.329 92.64V118.56C345.329 119.067 345.435 119.44 345.649 119.68C345.889 119.893 346.262 120 346.769 120H365.329ZM363.169 116V116.4H349.689V94.8H363.169V95.2H350.089V105.24H359.929V105.64H350.089V116H363.169Z" fill="black"/>
</svg>
