<svg width="282" height="238" viewBox="0 0 282 238" fill="none" xmlns="http://www.w3.org/2000/svg">
<path d="M4.96591 6.01705V4.45455H15.875V6.01705H11.3011V19H9.53977V6.01705H4.96591ZM20.0423 12.4375V19H18.3661V4.45455H20.0423V9.79545H20.1843C20.44 9.23201 20.8235 8.78456 21.3349 8.45312C21.851 8.11695 22.5375 7.94886 23.3945 7.94886C24.1379 7.94886 24.7889 8.09801 25.3477 8.39631C25.9064 8.68987 26.3396 9.14205 26.6474 9.75284C26.9599 10.3589 27.1161 11.1307 27.1161 12.0682V19H25.44V12.1818C25.44 11.3153 25.2151 10.6454 24.7653 10.1719C24.3202 9.69366 23.7023 9.45455 22.9116 9.45455C22.3623 9.45455 21.8699 9.57055 21.4343 9.80256C21.0034 10.0346 20.6625 10.3731 20.4116 10.8182C20.1654 11.2633 20.0423 11.803 20.0423 12.4375ZM30.1825 19V8.09091H31.8587V19H30.1825ZM31.0348 6.27273C30.7081 6.27273 30.4264 6.16146 30.1896 5.93892C29.9576 5.71638 29.8416 5.44886 29.8416 5.13636C29.8416 4.82386 29.9576 4.55634 30.1896 4.33381C30.4264 4.11127 30.7081 4 31.0348 4C31.3615 4 31.6409 4.11127 31.8729 4.33381C32.1096 4.55634 32.228 4.82386 32.228 5.13636C32.228 5.44886 32.1096 5.71638 31.8729 5.93892C31.6409 6.16146 31.3615 6.27273 31.0348 6.27273ZM42.6559 10.5341L41.1502 10.9602C41.0555 10.7093 40.9158 10.4654 40.7312 10.2287C40.5513 9.98722 40.305 9.78835 39.9925 9.6321C39.68 9.47585 39.2799 9.39773 38.7923 9.39773C38.1246 9.39773 37.5683 9.55161 37.1232 9.85938C36.6829 10.1624 36.4627 10.5483 36.4627 11.017C36.4627 11.4337 36.6142 11.7628 36.9173 12.0043C37.2203 12.2457 37.6938 12.447 38.3377 12.608L39.957 13.0057C40.9324 13.2424 41.6592 13.6046 42.1374 14.0923C42.6156 14.5753 42.8548 15.1979 42.8548 15.9602C42.8548 16.5852 42.6748 17.1439 42.315 17.6364C41.9599 18.1288 41.4627 18.517 40.8235 18.8011C40.1843 19.0852 39.4409 19.2273 38.5934 19.2273C37.4807 19.2273 36.5598 18.9858 35.8306 18.5028C35.1014 18.0199 34.6398 17.3144 34.4457 16.3864L36.0366 15.9886C36.1881 16.5758 36.4746 17.0161 36.896 17.3097C37.3221 17.6032 37.8784 17.75 38.565 17.75C39.3462 17.75 39.9665 17.5843 40.4258 17.2528C40.8898 16.9167 41.1218 16.5142 41.1218 16.0455C41.1218 15.6667 40.9892 15.3494 40.7241 15.0938C40.4589 14.8333 40.0517 14.6392 39.5025 14.5114L37.6843 14.0852C36.6853 13.8485 35.9513 13.4815 35.4826 12.9844C35.0186 12.4825 34.7866 11.8551 34.7866 11.1023C34.7866 10.4867 34.9594 9.94223 35.305 9.46875C35.6554 8.99527 36.1313 8.62358 36.7326 8.35369C37.3387 8.08381 38.0252 7.94886 38.7923 7.94886C39.8718 7.94886 40.7193 8.18561 41.3349 8.65909C41.9551 9.13258 42.3955 9.75758 42.6559 10.5341ZM52.679 4.45455V19H51.0028V4.45455H52.679ZM60.3228 19.2273C59.2717 19.2273 58.3649 18.9953 57.6026 18.5312C56.8451 18.0625 56.2603 17.4091 55.8484 16.571C55.4412 15.7282 55.2376 14.7481 55.2376 13.6307C55.2376 12.5133 55.4412 11.5284 55.8484 10.6761C56.2603 9.81913 56.8332 9.15152 57.5671 8.6733C58.3058 8.19034 59.1675 7.94886 60.1523 7.94886C60.7205 7.94886 61.2816 8.04356 61.8356 8.23295C62.3896 8.42235 62.8938 8.73011 63.3484 9.15625C63.8029 9.57765 64.1651 10.1364 64.435 10.8324C64.7049 11.5284 64.8398 12.3854 64.8398 13.4034V14.1136H56.4308V12.6648H63.1353C63.1353 12.0492 63.0122 11.5 62.766 11.017C62.5245 10.5341 62.1789 10.1529 61.729 9.87358C61.284 9.59422 60.7584 9.45455 60.1523 9.45455C59.4847 9.45455 58.9071 9.62026 58.4194 9.9517C57.9364 10.2784 57.5647 10.7045 57.3043 11.2301C57.0439 11.7557 56.9137 12.3191 56.9137 12.9205V13.8864C56.9137 14.7102 57.0558 15.4086 57.3398 15.9815C57.6287 16.5497 58.0288 16.983 58.5401 17.2812C59.0515 17.5748 59.6457 17.7216 60.3228 17.7216C60.7631 17.7216 61.1609 17.66 61.516 17.5369C61.8758 17.4091 62.186 17.2197 62.4464 16.9688C62.7068 16.7131 62.908 16.3958 63.0501 16.017L64.6694 16.4716C64.4989 17.0208 64.2125 17.5038 63.81 17.9205C63.4076 18.3324 62.9104 18.6544 62.3185 18.8864C61.7267 19.1136 61.0614 19.2273 60.3228 19.2273ZM72.2475 8.09091V9.51136H66.3668V8.09091H72.2475ZM68.1282 19V6.58523C68.1282 5.96023 68.275 5.43939 68.5685 5.02273C68.8621 4.60606 69.2433 4.29356 69.712 4.08523C70.1808 3.87689 70.6755 3.77273 71.1964 3.77273C71.6083 3.77273 71.9445 3.80587 72.2049 3.87216C72.4653 3.93845 72.6594 4 72.7873 4.05682L72.3043 5.50568C72.2191 5.47727 72.1007 5.44176 71.9492 5.39915C71.8024 5.35653 71.6083 5.33523 71.3668 5.33523C70.8129 5.33523 70.4128 5.4749 70.1665 5.75426C69.9251 6.03362 69.8043 6.44318 69.8043 6.98295V19H68.1282ZM79.3409 8.09091V9.51136H73.6875V8.09091H79.3409ZM75.3352 5.47727H77.0114V15.875C77.0114 16.3485 77.08 16.7036 77.2173 16.9403C77.3594 17.1723 77.5393 17.3286 77.7571 17.4091C77.9796 17.4848 78.214 17.5227 78.4602 17.5227C78.6449 17.5227 78.7964 17.5133 78.9148 17.4943C79.0331 17.4706 79.1278 17.4517 79.1989 17.4375L79.5398 18.9432C79.4261 18.9858 79.2675 19.0284 79.0639 19.071C78.8603 19.1184 78.6023 19.142 78.2898 19.142C77.8163 19.142 77.3523 19.0402 76.8977 18.8366C76.4479 18.633 76.0739 18.3229 75.7756 17.9062C75.482 17.4896 75.3352 16.964 75.3352 16.3295V5.47727ZM92.0611 19.2273C91.0099 19.2273 90.1032 18.9953 89.3409 18.5312C88.5833 18.0625 87.9986 17.4091 87.5866 16.571C87.1795 15.7282 86.9759 14.7481 86.9759 13.6307C86.9759 12.5133 87.1795 11.5284 87.5866 10.6761C87.9986 9.81913 88.5715 9.15152 89.3054 8.6733C90.044 8.19034 90.9058 7.94886 91.8906 7.94886C92.4588 7.94886 93.0199 8.04356 93.5739 8.23295C94.1278 8.42235 94.6321 8.73011 95.0866 9.15625C95.5412 9.57765 95.9034 10.1364 96.1733 10.8324C96.4432 11.5284 96.5781 12.3854 96.5781 13.4034V14.1136H88.169V12.6648H94.8736C94.8736 12.0492 94.7505 11.5 94.5043 11.017C94.2628 10.5341 93.9171 10.1529 93.4673 9.87358C93.0223 9.59422 92.4967 9.45455 91.8906 9.45455C91.223 9.45455 90.6454 9.62026 90.1577 9.9517C89.6747 10.2784 89.303 10.7045 89.0426 11.2301C88.7822 11.7557 88.652 12.3191 88.652 12.9205V13.8864C88.652 14.7102 88.794 15.4086 89.0781 15.9815C89.367 16.5497 89.767 16.983 90.2784 17.2812C90.7898 17.5748 91.384 17.7216 92.0611 17.7216C92.5014 17.7216 92.8991 17.66 93.2543 17.5369C93.6141 17.4091 93.9242 17.2197 94.1847 16.9688C94.4451 16.7131 94.6463 16.3958 94.7884 16.017L96.4077 16.4716C96.2372 17.0208 95.9508 17.5038 95.5483 17.9205C95.1458 18.3324 94.6487 18.6544 94.0568 18.8864C93.465 19.1136 92.7997 19.2273 92.0611 19.2273ZM103.247 19.2273C102.338 19.2273 101.536 18.9976 100.839 18.5384C100.143 18.0743 99.599 17.4209 99.206 16.5781C98.813 15.7306 98.6165 14.7292 98.6165 13.5739C98.6165 12.428 98.813 11.4337 99.206 10.5909C99.599 9.74811 100.146 9.09706 100.847 8.63778C101.547 8.1785 102.357 7.94886 103.276 7.94886C103.986 7.94886 104.547 8.06723 104.959 8.30398C105.375 8.53598 105.693 8.80114 105.911 9.09943C106.133 9.39299 106.306 9.63447 106.429 9.82386H106.571V4.45455H108.247V19H106.628V17.3239H106.429C106.306 17.5227 106.131 17.7737 105.903 18.0767C105.676 18.375 105.352 18.6425 104.93 18.8793C104.509 19.1113 103.948 19.2273 103.247 19.2273ZM103.474 17.7216C104.147 17.7216 104.715 17.5464 105.179 17.196C105.643 16.8409 105.996 16.3509 106.237 15.7259C106.479 15.0961 106.599 14.3693 106.599 13.5455C106.599 12.7311 106.481 12.0185 106.244 11.4077C106.008 10.7921 105.657 10.3139 105.193 9.97301C104.729 9.62737 104.156 9.45455 103.474 9.45455C102.764 9.45455 102.172 9.63684 101.699 10.0014C101.23 10.3613 100.877 10.8513 100.641 11.4716C100.409 12.0871 100.293 12.7784 100.293 13.5455C100.293 14.322 100.411 15.0275 100.648 15.6619C100.889 16.2917 101.244 16.7936 101.713 17.1676C102.187 17.5369 102.774 17.7216 103.474 17.7216ZM115.953 23.3182C115.143 23.3182 114.447 23.214 113.865 23.0057C113.283 22.8021 112.797 22.5322 112.409 22.196C112.026 21.8646 111.72 21.5095 111.493 21.1307L112.828 20.1932C112.98 20.392 113.171 20.6193 113.403 20.875C113.635 21.1354 113.953 21.3603 114.355 21.5497C114.762 21.7438 115.295 21.8409 115.953 21.8409C116.834 21.8409 117.561 21.6278 118.134 21.2017C118.706 20.7756 118.993 20.108 118.993 19.1989V16.983H118.851C118.728 17.1818 118.553 17.428 118.325 17.7216C118.103 18.0104 117.781 18.2685 117.359 18.4957C116.943 18.7183 116.379 18.8295 115.669 18.8295C114.788 18.8295 113.998 18.6212 113.297 18.2045C112.601 17.7879 112.049 17.1818 111.642 16.3864C111.24 15.5909 111.038 14.625 111.038 13.4886C111.038 12.3712 111.235 11.3982 111.628 10.5696C112.021 9.73627 112.568 9.09233 113.268 8.63778C113.969 8.1785 114.779 7.94886 115.697 7.94886C116.408 7.94886 116.971 8.06723 117.388 8.30398C117.809 8.53598 118.131 8.80114 118.354 9.09943C118.581 9.39299 118.756 9.63447 118.879 9.82386H119.05V8.09091H120.669V19.3125C120.669 20.25 120.456 21.0123 120.03 21.5994C119.608 22.1913 119.04 22.6245 118.325 22.8991C117.615 23.1785 116.824 23.3182 115.953 23.3182ZM115.896 17.3239C116.569 17.3239 117.137 17.17 117.601 16.8622C118.065 16.5545 118.418 16.1117 118.659 15.5341C118.901 14.9564 119.021 14.2652 119.021 13.4602C119.021 12.6742 118.903 11.9806 118.666 11.3793C118.429 10.7779 118.079 10.3068 117.615 9.96591C117.151 9.625 116.578 9.45455 115.896 9.45455C115.186 9.45455 114.594 9.63447 114.121 9.99432C113.652 10.3542 113.299 10.8371 113.062 11.4432C112.83 12.0492 112.714 12.7216 112.714 13.4602C112.714 14.2178 112.833 14.8878 113.07 15.4702C113.311 16.0478 113.666 16.5024 114.135 16.8338C114.608 17.1605 115.196 17.3239 115.896 17.3239ZM128.311 19.2273C127.26 19.2273 126.353 18.9953 125.591 18.5312C124.833 18.0625 124.249 17.4091 123.837 16.571C123.429 15.7282 123.226 14.7481 123.226 13.6307C123.226 12.5133 123.429 11.5284 123.837 10.6761C124.249 9.81913 124.821 9.15152 125.555 8.6733C126.294 8.19034 127.156 7.94886 128.141 7.94886C128.709 7.94886 129.27 8.04356 129.824 8.23295C130.378 8.42235 130.882 8.73011 131.337 9.15625C131.791 9.57765 132.153 10.1364 132.423 10.8324C132.693 11.5284 132.828 12.3854 132.828 13.4034V14.1136H124.419V12.6648H131.124C131.124 12.0492 131 11.5 130.754 11.017C130.513 10.5341 130.167 10.1529 129.717 9.87358C129.272 9.59422 128.747 9.45455 128.141 9.45455C127.473 9.45455 126.895 9.62026 126.408 9.9517C125.925 10.2784 125.553 10.7045 125.293 11.2301C125.032 11.7557 124.902 12.3191 124.902 12.9205V13.8864C124.902 14.7102 125.044 15.4086 125.328 15.9815C125.617 16.5497 126.017 16.983 126.528 17.2812C127.04 17.5748 127.634 17.7216 128.311 17.7216C128.751 17.7216 129.149 17.66 129.504 17.5369C129.864 17.4091 130.174 17.2197 130.435 16.9688C130.695 16.7131 130.896 16.3958 131.038 16.017L132.658 16.4716C132.487 17.0208 132.201 17.5038 131.798 17.9205C131.396 18.3324 130.899 18.6544 130.307 18.8864C129.715 19.1136 129.05 19.2273 128.311 19.2273ZM144.213 19.2557C143.522 19.2557 142.894 19.1255 142.331 18.8651C141.768 18.5999 141.32 18.2188 140.989 17.7216C140.657 17.2197 140.491 16.6136 140.491 15.9034C140.491 15.2784 140.615 14.7718 140.861 14.3835C141.107 13.9905 141.436 13.6828 141.848 13.4602C142.26 13.2377 142.714 13.072 143.212 12.9631C143.714 12.8494 144.218 12.7595 144.724 12.6932C145.387 12.608 145.925 12.544 146.337 12.5014C146.753 12.4541 147.056 12.3759 147.246 12.267C147.44 12.1581 147.537 11.9687 147.537 11.6989V11.642C147.537 10.9413 147.345 10.3968 146.962 10.0085C146.583 9.62027 146.008 9.42614 145.236 9.42614C144.436 9.42614 143.808 9.60133 143.354 9.9517C142.899 10.3021 142.58 10.6761 142.395 11.0739L140.804 10.5057C141.088 9.8428 141.467 9.3267 141.94 8.95739C142.419 8.58333 142.939 8.32292 143.503 8.17614C144.071 8.02462 144.63 7.94886 145.179 7.94886C145.529 7.94886 145.932 7.99148 146.386 8.0767C146.846 8.1572 147.288 8.32528 147.714 8.58097C148.145 8.83665 148.503 9.22254 148.787 9.73864C149.071 10.2547 149.213 10.946 149.213 11.8125V19H147.537V17.5227H147.452C147.338 17.7595 147.149 18.0128 146.884 18.2827C146.618 18.5526 146.266 18.7822 145.825 18.9716C145.385 19.161 144.848 19.2557 144.213 19.2557ZM144.469 17.75C145.132 17.75 145.69 17.6198 146.145 17.3594C146.604 17.099 146.95 16.7628 147.182 16.3509C147.419 15.9389 147.537 15.5057 147.537 15.0511V13.517C147.466 13.6023 147.31 13.6804 147.068 13.7514C146.831 13.8177 146.557 13.8769 146.244 13.929C145.937 13.9763 145.636 14.0189 145.342 14.0568C145.054 14.09 144.819 14.1184 144.639 14.142C144.204 14.1989 143.796 14.2912 143.418 14.419C143.044 14.5421 142.741 14.7292 142.509 14.9801C142.281 15.2263 142.168 15.5625 142.168 15.9886C142.168 16.571 142.383 17.0114 142.814 17.3097C143.25 17.6032 143.801 17.75 144.469 17.75ZM153.949 4.45455V19H152.272V4.45455H153.949ZM164.746 10.5341L163.24 10.9602C163.145 10.7093 163.006 10.4654 162.821 10.2287C162.641 9.98722 162.395 9.78835 162.082 9.6321C161.77 9.47585 161.37 9.39773 160.882 9.39773C160.214 9.39773 159.658 9.55161 159.213 9.85938C158.773 10.1624 158.553 10.5483 158.553 11.017C158.553 11.4337 158.704 11.7628 159.007 12.0043C159.31 12.2457 159.784 12.447 160.428 12.608L162.047 13.0057C163.022 13.2424 163.749 13.6046 164.227 14.0923C164.705 14.5753 164.945 15.1979 164.945 15.9602C164.945 16.5852 164.765 17.1439 164.405 17.6364C164.05 18.1288 163.553 18.517 162.913 18.8011C162.274 19.0852 161.531 19.2273 160.683 19.2273C159.571 19.2273 158.65 18.9858 157.92 18.5028C157.191 18.0199 156.73 17.3144 156.536 16.3864L158.126 15.9886C158.278 16.5758 158.564 17.0161 158.986 17.3097C159.412 17.6032 159.968 17.75 160.655 17.75C161.436 17.75 162.056 17.5843 162.516 17.2528C162.98 16.9167 163.212 16.5142 163.212 16.0455C163.212 15.6667 163.079 15.3494 162.814 15.0938C162.549 14.8333 162.142 14.6392 161.592 14.5114L159.774 14.0852C158.775 13.8485 158.041 13.4815 157.572 12.9844C157.108 12.4825 156.876 11.8551 156.876 11.1023C156.876 10.4867 157.049 9.94223 157.395 9.46875C157.745 8.99527 158.221 8.62358 158.822 8.35369C159.429 8.08381 160.115 7.94886 160.882 7.94886C161.962 7.94886 162.809 8.18561 163.425 8.65909C164.045 9.13258 164.485 9.75758 164.746 10.5341ZM171.9 19.2273C170.915 19.2273 170.051 18.9929 169.307 18.5241C168.569 18.0554 167.991 17.3996 167.574 16.5568C167.162 15.714 166.956 14.7292 166.956 13.6023C166.956 12.4659 167.162 11.474 167.574 10.6264C167.991 9.77888 168.569 9.12074 169.307 8.65199C170.051 8.18324 170.915 7.94886 171.9 7.94886C172.884 7.94886 173.746 8.18324 174.485 8.65199C175.228 9.12074 175.806 9.77888 176.218 10.6264C176.634 11.474 176.843 12.4659 176.843 13.6023C176.843 14.7292 176.634 15.714 176.218 16.5568C175.806 17.3996 175.228 18.0554 174.485 18.5241C173.746 18.9929 172.884 19.2273 171.9 19.2273ZM171.9 17.7216C172.648 17.7216 173.263 17.5298 173.746 17.1463C174.229 16.7628 174.587 16.2585 174.819 15.6335C175.051 15.0085 175.167 14.3314 175.167 13.6023C175.167 12.8731 175.051 12.1937 174.819 11.5639C174.587 10.9342 174.229 10.4252 173.746 10.0369C173.263 9.64867 172.648 9.45455 171.9 9.45455C171.151 9.45455 170.536 9.64867 170.053 10.0369C169.57 10.4252 169.212 10.9342 168.98 11.5639C168.748 12.1937 168.632 12.8731 168.632 13.6023C168.632 14.3314 168.748 15.0085 168.98 15.6335C169.212 16.2585 169.57 16.7628 170.053 17.1463C170.536 17.5298 171.151 17.7216 171.9 17.7216ZM189.884 8.09091V9.51136H184.004V8.09091H189.884ZM185.765 19V6.58523C185.765 5.96023 185.912 5.43939 186.205 5.02273C186.499 4.60606 186.88 4.29356 187.349 4.08523C187.817 3.87689 188.312 3.77273 188.833 3.77273C189.245 3.77273 189.581 3.80587 189.842 3.87216C190.102 3.93845 190.296 4 190.424 4.05682L189.941 5.50568C189.856 5.47727 189.737 5.44176 189.586 5.39915C189.439 5.35653 189.245 5.33523 189.004 5.33523C188.45 5.33523 188.049 5.4749 187.803 5.75426C187.562 6.03362 187.441 6.44318 187.441 6.98295V19H185.765ZM196.216 19.2273C195.231 19.2273 194.367 18.9929 193.624 18.5241C192.885 18.0554 192.307 17.3996 191.891 16.5568C191.479 15.714 191.273 14.7292 191.273 13.6023C191.273 12.4659 191.479 11.474 191.891 10.6264C192.307 9.77888 192.885 9.12074 193.624 8.65199C194.367 8.18324 195.231 7.94886 196.216 7.94886C197.201 7.94886 198.063 8.18324 198.801 8.65199C199.545 9.12074 200.122 9.77888 200.534 10.6264C200.951 11.474 201.159 12.4659 201.159 13.6023C201.159 14.7292 200.951 15.714 200.534 16.5568C200.122 17.3996 199.545 18.0554 198.801 18.5241C198.063 18.9929 197.201 19.2273 196.216 19.2273ZM196.216 17.7216C196.964 17.7216 197.58 17.5298 198.062 17.1463C198.545 16.7628 198.903 16.2585 199.135 15.6335C199.367 15.0085 199.483 14.3314 199.483 13.6023C199.483 12.8731 199.367 12.1937 199.135 11.5639C198.903 10.9342 198.545 10.4252 198.062 10.0369C197.58 9.64867 196.964 9.45455 196.216 9.45455C195.468 9.45455 194.852 9.64867 194.369 10.0369C193.886 10.4252 193.529 10.9342 193.297 11.5639C193.065 12.1937 192.949 12.8731 192.949 13.6023C192.949 14.3314 193.065 15.0085 193.297 15.6335C193.529 16.2585 193.886 16.7628 194.369 17.1463C194.852 17.5298 195.468 17.7216 196.216 17.7216ZM203.718 19V8.09091H205.337V9.73864H205.451C205.65 9.19886 206.009 8.76089 206.53 8.42472C207.051 8.08854 207.638 7.92045 208.292 7.92045C208.415 7.92045 208.569 7.92282 208.753 7.92756C208.938 7.93229 209.078 7.93939 209.172 7.94886V9.65341C209.115 9.6392 208.985 9.6179 208.782 9.58949C208.583 9.55634 208.372 9.53977 208.15 9.53977C207.619 9.53977 207.146 9.65104 206.729 9.87358C206.317 10.0914 205.99 10.3944 205.749 10.7827C205.512 11.1662 205.394 11.6042 205.394 12.0966V19H203.718ZM211.159 19V8.09091H212.778V9.79545H212.92C213.148 9.21307 213.515 8.76089 214.021 8.43892C214.528 8.11222 215.136 7.94886 215.847 7.94886C216.566 7.94886 217.165 8.11222 217.643 8.43892C218.126 8.76089 218.503 9.21307 218.773 9.79545H218.886C219.166 9.23201 219.585 8.78456 220.143 8.45312C220.702 8.11695 221.372 7.94886 222.153 7.94886C223.129 7.94886 223.927 8.25426 224.547 8.86506C225.167 9.47112 225.477 10.4157 225.477 11.6989V19H223.801V11.6989C223.801 10.8939 223.581 10.3187 223.141 9.97301C222.7 9.62737 222.182 9.45455 221.585 9.45455C220.818 9.45455 220.224 9.68655 219.803 10.1506C219.381 10.6098 219.17 11.1922 219.17 11.8977V19H217.466V11.5284C217.466 10.9081 217.265 10.4086 216.862 10.0298C216.46 9.64631 215.941 9.45455 215.307 9.45455C214.871 9.45455 214.464 9.57055 214.085 9.80256C213.711 10.0346 213.408 10.3565 213.176 10.7685C212.949 11.1757 212.835 11.6468 212.835 12.1818V19H211.159ZM236.269 10.5341L234.763 10.9602C234.669 10.7093 234.529 10.4654 234.344 10.2287C234.165 9.98722 233.918 9.78835 233.606 9.6321C233.293 9.47585 232.893 9.39773 232.406 9.39773C231.738 9.39773 231.182 9.55161 230.737 9.85938C230.296 10.1624 230.076 10.5483 230.076 11.017C230.076 11.4337 230.228 11.7628 230.531 12.0043C230.834 12.2457 231.307 12.447 231.951 12.608L233.57 13.0057C234.546 13.2424 235.272 13.6046 235.751 14.0923C236.229 14.5753 236.468 15.1979 236.468 15.9602C236.468 16.5852 236.288 17.1439 235.928 17.6364C235.573 18.1288 235.076 18.517 234.437 18.8011C233.798 19.0852 233.054 19.2273 232.207 19.2273C231.094 19.2273 230.173 18.9858 229.444 18.5028C228.715 18.0199 228.253 17.3144 228.059 16.3864L229.65 15.9886C229.801 16.5758 230.088 17.0161 230.509 17.3097C230.935 17.6032 231.492 17.75 232.178 17.75C232.96 17.75 233.58 17.5843 234.039 17.2528C234.503 16.9167 234.735 16.5142 234.735 16.0455C234.735 15.6667 234.603 15.3494 234.337 15.0938C234.072 14.8333 233.665 14.6392 233.116 14.5114L231.298 14.0852C230.299 13.8485 229.565 13.4815 229.096 12.9844C228.632 12.4825 228.4 11.8551 228.4 11.1023C228.4 10.4867 228.573 9.94223 228.918 9.46875C229.269 8.99527 229.745 8.62358 230.346 8.35369C230.952 8.08381 231.638 7.94886 232.406 7.94886C233.485 7.94886 234.333 8.18561 234.948 8.65909C235.568 9.13258 236.009 9.75758 236.269 10.5341ZM247.826 19.2557C247.135 19.2557 246.508 19.1255 245.944 18.8651C245.381 18.5999 244.933 18.2188 244.602 17.7216C244.27 17.2197 244.105 16.6136 244.105 15.9034C244.105 15.2784 244.228 14.7718 244.474 14.3835C244.72 13.9905 245.049 13.6828 245.461 13.4602C245.873 13.2377 246.328 13.072 246.825 12.9631C247.327 12.8494 247.831 12.7595 248.338 12.6932C249.001 12.608 249.538 12.544 249.95 12.5014C250.367 12.4541 250.67 12.3759 250.859 12.267C251.053 12.1581 251.15 11.9687 251.15 11.6989V11.642C251.15 10.9413 250.958 10.3968 250.575 10.0085C250.196 9.62027 249.621 9.42614 248.849 9.42614C248.049 9.42614 247.422 9.60133 246.967 9.9517C246.512 10.3021 246.193 10.6761 246.008 11.0739L244.417 10.5057C244.701 9.8428 245.08 9.3267 245.554 8.95739C246.032 8.58333 246.553 8.32292 247.116 8.17614C247.684 8.02462 248.243 7.94886 248.792 7.94886C249.143 7.94886 249.545 7.99148 250 8.0767C250.459 8.1572 250.902 8.32528 251.328 8.58097C251.759 8.83665 252.116 9.22254 252.4 9.73864C252.684 10.2547 252.826 10.946 252.826 11.8125V19H251.15V17.5227H251.065C250.951 17.7595 250.762 18.0128 250.497 18.2827C250.232 18.5526 249.879 18.7822 249.439 18.9716C248.998 19.161 248.461 19.2557 247.826 19.2557ZM248.082 17.75C248.745 17.75 249.304 17.6198 249.758 17.3594C250.217 17.099 250.563 16.7628 250.795 16.3509C251.032 15.9389 251.15 15.5057 251.15 15.0511V13.517C251.079 13.6023 250.923 13.6804 250.681 13.7514C250.445 13.8177 250.17 13.8769 249.858 13.929C249.55 13.9763 249.249 14.0189 248.956 14.0568C248.667 14.09 248.432 14.1184 248.252 14.142C247.817 14.1989 247.41 14.2912 247.031 14.419C246.657 14.5421 246.354 14.7292 246.122 14.9801C245.895 15.2263 245.781 15.5625 245.781 15.9886C245.781 16.571 245.996 17.0114 246.427 17.3097C246.863 17.6032 247.414 17.75 248.082 17.75ZM7.21023 28.4545V43H5.53409V28.4545H7.21023ZM10.2802 43V32.0909H11.9563V43H10.2802ZM11.1325 30.2727C10.8058 30.2727 10.524 30.1615 10.2873 29.9389C10.0553 29.7164 9.93928 29.4489 9.93928 29.1364C9.93928 28.8239 10.0553 28.5563 10.2873 28.3338C10.524 28.1113 10.8058 28 11.1325 28C11.4592 28 11.7385 28.1113 11.9705 28.3338C12.2073 28.5563 12.3256 28.8239 12.3256 29.1364C12.3256 29.4489 12.2073 29.7164 11.9705 29.9389C11.7385 30.1615 11.4592 30.2727 11.1325 30.2727ZM16.7024 36.4375V43H15.0263V32.0909H16.6456V33.7955H16.7876C17.0433 33.2415 17.4316 32.7964 17.9524 32.4602C18.4732 32.1193 19.1456 31.9489 19.9695 31.9489C20.7081 31.9489 21.3544 32.1004 21.9084 32.4034C22.4624 32.7017 22.8932 33.1562 23.201 33.767C23.5088 34.3731 23.6626 35.1402 23.6626 36.0682V43H21.9865V36.1818C21.9865 35.3248 21.764 34.6572 21.3189 34.179C20.8738 33.696 20.263 33.4545 19.4865 33.4545C18.9515 33.4545 18.4732 33.5705 18.0518 33.8026C17.6352 34.0346 17.3061 34.3731 17.0646 34.8182C16.8232 35.2633 16.7024 35.803 16.7024 36.4375ZM31.2994 43.2273C30.2482 43.2273 29.3415 42.9953 28.5792 42.5312C27.8216 42.0625 27.2369 41.4091 26.8249 40.571C26.4177 39.7282 26.2141 38.7481 26.2141 37.6307C26.2141 36.5133 26.4177 35.5284 26.8249 34.6761C27.2369 33.8191 27.8098 33.1515 28.5437 32.6733C29.2823 32.1903 30.1441 31.9489 31.1289 31.9489C31.6971 31.9489 32.2582 32.0436 32.8121 32.233C33.3661 32.4223 33.8704 32.7301 34.3249 33.1562C34.7795 33.5777 35.1417 34.1364 35.4116 34.8324C35.6815 35.5284 35.8164 36.3854 35.8164 37.4034V38.1136H27.4073V36.6648H34.1119C34.1119 36.0492 33.9888 35.5 33.7425 35.017C33.5011 34.5341 33.1554 34.1529 32.7056 33.8736C32.2605 33.5942 31.735 33.4545 31.1289 33.4545C30.4613 33.4545 29.8836 33.6203 29.396 33.9517C28.913 34.2784 28.5413 34.7045 28.2809 35.2301C28.0205 35.7557 27.8903 36.3191 27.8903 36.9205V37.8864C27.8903 38.7102 28.0323 39.4086 28.3164 39.9815C28.6052 40.5497 29.0053 40.983 29.5167 41.2812C30.0281 41.5748 30.6223 41.7216 31.2994 41.7216C31.7397 41.7216 32.1374 41.66 32.4925 41.5369C32.8524 41.4091 33.1625 41.2197 33.4229 40.9688C33.6834 40.7131 33.8846 40.3958 34.0266 40.017L35.646 40.4716C35.4755 41.0208 35.189 41.5038 34.7866 41.9205C34.3841 42.3324 33.887 42.6544 33.2951 42.8864C32.7032 43.1136 32.038 43.2273 31.2994 43.2273ZM48.4229 43.2273C47.4381 43.2273 46.574 42.9929 45.8306 42.5241C45.092 42.0554 44.5143 41.3996 44.0977 40.5568C43.6857 39.714 43.4798 38.7292 43.4798 37.6023C43.4798 36.4659 43.6857 35.474 44.0977 34.6264C44.5143 33.7789 45.092 33.1207 45.8306 32.652C46.574 32.1832 47.4381 31.9489 48.4229 31.9489C49.4078 31.9489 50.2695 32.1832 51.0082 32.652C51.7515 33.1207 52.3292 33.7789 52.7411 34.6264C53.1578 35.474 53.3661 36.4659 53.3661 37.6023C53.3661 38.7292 53.1578 39.714 52.7411 40.5568C52.3292 41.3996 51.7515 42.0554 51.0082 42.5241C50.2695 42.9929 49.4078 43.2273 48.4229 43.2273ZM48.4229 41.7216C49.171 41.7216 49.7866 41.5298 50.2695 41.1463C50.7525 40.7628 51.11 40.2585 51.342 39.6335C51.574 39.0085 51.69 38.3314 51.69 37.6023C51.69 36.8731 51.574 36.1937 51.342 35.5639C51.11 34.9342 50.7525 34.4252 50.2695 34.0369C49.7866 33.6487 49.171 33.4545 48.4229 33.4545C47.6748 33.4545 47.0593 33.6487 46.5763 34.0369C46.0934 34.4252 45.7359 34.9342 45.5039 35.5639C45.2719 36.1937 45.1559 36.8731 45.1559 37.6023C45.1559 38.3314 45.2719 39.0085 45.5039 39.6335C45.7359 40.2585 46.0934 40.7628 46.5763 41.1463C47.0593 41.5298 47.6748 41.7216 48.4229 41.7216ZM62.7997 38.5398V32.0909H64.4759V43H62.7997V41.1534H62.6861C62.4304 41.7074 62.0327 42.1785 61.4929 42.5668C60.9531 42.9503 60.2713 43.142 59.4474 43.142C58.7656 43.142 58.1596 42.9929 57.6293 42.6946C57.099 42.3916 56.6823 41.937 56.3793 41.331C56.0762 40.7202 55.9247 39.9508 55.9247 39.0227V32.0909H57.6009V38.9091C57.6009 39.7045 57.8234 40.339 58.2685 40.8125C58.7183 41.286 59.2912 41.5227 59.9872 41.5227C60.4039 41.5227 60.8277 41.4162 61.2585 41.2031C61.6941 40.9901 62.0587 40.6634 62.3523 40.223C62.6506 39.7827 62.7997 39.2216 62.7997 38.5398ZM72.2901 32.0909V33.5114H66.6367V32.0909H72.2901ZM68.2844 29.4773H69.9606V39.875C69.9606 40.3485 70.0292 40.7036 70.1665 40.9403C70.3086 41.1723 70.4885 41.3286 70.7063 41.4091C70.9289 41.4848 71.1632 41.5227 71.4094 41.5227C71.5941 41.5227 71.7456 41.5133 71.864 41.4943C71.9824 41.4706 72.0771 41.4517 72.1481 41.4375L72.489 42.9432C72.3754 42.9858 72.2167 43.0284 72.0131 43.071C71.8095 43.1184 71.5515 43.142 71.239 43.142C70.7655 43.142 70.3015 43.0402 69.8469 42.8366C69.3971 42.633 69.0231 42.3229 68.7248 41.9062C68.4312 41.4896 68.2844 40.964 68.2844 40.3295V29.4773ZM85.0103 43.2273C83.9592 43.2273 83.0524 42.9953 82.2901 42.5312C81.5326 42.0625 80.9478 41.4091 80.5359 40.571C80.1287 39.7282 79.9251 38.7481 79.9251 37.6307C79.9251 36.5133 80.1287 35.5284 80.5359 34.6761C80.9478 33.8191 81.5207 33.1515 82.2546 32.6733C82.9933 32.1903 83.855 31.9489 84.8398 31.9489C85.408 31.9489 85.9691 32.0436 86.5231 32.233C87.0771 32.4223 87.5813 32.7301 88.0359 33.1562C88.4904 33.5777 88.8526 34.1364 89.1225 34.8324C89.3924 35.5284 89.5273 36.3854 89.5273 37.4034V38.1136H81.1183V36.6648H87.8228C87.8228 36.0492 87.6997 35.5 87.4535 35.017C87.212 34.5341 86.8664 34.1529 86.4165 33.8736C85.9715 33.5942 85.4459 33.4545 84.8398 33.4545C84.1722 33.4545 83.5946 33.6203 83.1069 33.9517C82.6239 34.2784 82.2522 34.7045 81.9918 35.2301C81.7314 35.7557 81.6012 36.3191 81.6012 36.9205V37.8864C81.6012 38.7102 81.7433 39.4086 82.0273 39.9815C82.3162 40.5497 82.7163 40.983 83.2276 41.2812C83.739 41.5748 84.3332 41.7216 85.0103 41.7216C85.4506 41.7216 85.8484 41.66 86.2035 41.5369C86.5633 41.4091 86.8735 41.2197 87.1339 40.9688C87.3943 40.7131 87.5955 40.3958 87.7376 40.017L89.3569 40.4716C89.1864 41.0208 88.9 41.5038 88.4975 41.9205C88.0951 42.3324 87.5979 42.6544 87.006 42.8864C86.4142 43.1136 85.7489 43.2273 85.0103 43.2273ZM92.8246 47.0909C92.5405 47.0909 92.2872 47.0672 92.0646 47.0199C91.8421 46.9773 91.6882 46.9347 91.603 46.892L92.0291 45.4148C92.4363 45.5189 92.7962 45.5568 93.1087 45.5284C93.4212 45.5 93.6982 45.3603 93.9396 45.1094C94.1858 44.8632 94.4107 44.4631 94.6143 43.9091L94.9268 43.0568L90.8928 32.0909H92.7109L95.7223 40.7841H95.8359L98.8473 32.0909H100.665L96.0348 44.5909C95.8265 45.1544 95.5684 45.6207 95.2607 45.9901C94.9529 46.3641 94.5954 46.6411 94.1882 46.821C93.7857 47.0009 93.3312 47.0909 92.8246 47.0909ZM107.061 43.2273C106.01 43.2273 105.103 42.9953 104.341 42.5312C103.583 42.0625 102.999 41.4091 102.587 40.571C102.179 39.7282 101.976 38.7481 101.976 37.6307C101.976 36.5133 102.179 35.5284 102.587 34.6761C102.999 33.8191 103.571 33.1515 104.305 32.6733C105.044 32.1903 105.906 31.9489 106.891 31.9489C107.459 31.9489 108.02 32.0436 108.574 32.233C109.128 32.4223 109.632 32.7301 110.087 33.1562C110.541 33.5777 110.903 34.1364 111.173 34.8324C111.443 35.5284 111.578 36.3854 111.578 37.4034V38.1136H103.169V36.6648H109.874C109.874 36.0492 109.75 35.5 109.504 35.017C109.263 34.5341 108.917 34.1529 108.467 33.8736C108.022 33.5942 107.497 33.4545 106.891 33.4545C106.223 33.4545 105.645 33.6203 105.158 33.9517C104.675 34.2784 104.303 34.7045 104.043 35.2301C103.782 35.7557 103.652 36.3191 103.652 36.9205V37.8864C103.652 38.7102 103.794 39.4086 104.078 39.9815C104.367 40.5497 104.767 40.983 105.278 41.2812C105.79 41.5748 106.384 41.7216 107.061 41.7216C107.501 41.7216 107.899 41.66 108.254 41.5369C108.614 41.4091 108.924 41.2197 109.185 40.9688C109.445 40.7131 109.646 40.3958 109.788 40.017L111.408 40.4716C111.237 41.0208 110.951 41.5038 110.548 41.9205C110.146 42.3324 109.649 42.6544 109.057 42.8864C108.465 43.1136 107.8 43.2273 107.061 43.2273ZM121.855 34.5341L120.349 34.9602C120.255 34.7093 120.115 34.4654 119.93 34.2287C119.75 33.9872 119.504 33.7884 119.192 33.6321C118.879 33.4759 118.479 33.3977 117.991 33.3977C117.324 33.3977 116.768 33.5516 116.322 33.8594C115.882 34.1624 115.662 34.5483 115.662 35.017C115.662 35.4337 115.813 35.7628 116.116 36.0043C116.42 36.2457 116.893 36.447 117.537 36.608L119.156 37.0057C120.132 37.2424 120.858 37.6046 121.337 38.0923C121.815 38.5753 122.054 39.1979 122.054 39.9602C122.054 40.5852 121.874 41.1439 121.514 41.6364C121.159 42.1288 120.662 42.517 120.023 42.8011C119.384 43.0852 118.64 43.2273 117.793 43.2273C116.68 43.2273 115.759 42.9858 115.03 42.5028C114.301 42.0199 113.839 41.3144 113.645 40.3864L115.236 39.9886C115.387 40.5758 115.674 41.0161 116.095 41.3097C116.521 41.6032 117.078 41.75 117.764 41.75C118.545 41.75 119.166 41.5843 119.625 41.2528C120.089 40.9167 120.321 40.5142 120.321 40.0455C120.321 39.6667 120.188 39.3494 119.923 39.0938C119.658 38.8333 119.251 38.6392 118.702 38.5114L116.884 38.0852C115.884 37.8485 115.151 37.4815 114.682 36.9844C114.218 36.4825 113.986 35.8551 113.986 35.1023C113.986 34.4867 114.159 33.9422 114.504 33.4688C114.855 32.9953 115.33 32.6236 115.932 32.3537C116.538 32.0838 117.224 31.9489 117.991 31.9489C119.071 31.9489 119.919 32.1856 120.534 32.6591C121.154 33.1326 121.595 33.7576 121.855 34.5341ZM134.634 43.2273C133.611 43.2273 132.73 42.9858 131.992 42.5028C131.253 42.0199 130.685 41.3546 130.287 40.5071C129.89 39.6596 129.691 38.6913 129.691 37.6023C129.691 36.4943 129.894 35.5166 130.301 34.669C130.713 33.8168 131.286 33.1515 132.02 32.6733C132.759 32.1903 133.621 31.9489 134.605 31.9489C135.373 31.9489 136.064 32.0909 136.679 32.375C137.295 32.6591 137.799 33.0568 138.192 33.5682C138.585 34.0795 138.829 34.6761 138.924 35.358H137.248C137.12 34.8608 136.836 34.4205 136.395 34.0369C135.96 33.6487 135.373 33.4545 134.634 33.4545C133.98 33.4545 133.408 33.625 132.915 33.9659C132.427 34.3021 132.046 34.7779 131.772 35.3935C131.502 36.0043 131.367 36.7216 131.367 37.5455C131.367 38.3883 131.499 39.1222 131.765 39.7472C132.034 40.3722 132.413 40.8575 132.901 41.2031C133.393 41.5488 133.971 41.7216 134.634 41.7216C135.069 41.7216 135.465 41.6458 135.82 41.4943C136.175 41.3428 136.476 41.125 136.722 40.8409C136.968 40.5568 137.143 40.2159 137.248 39.8182H138.924C138.829 40.4621 138.595 41.0421 138.221 41.5582C137.851 42.0696 137.361 42.4768 136.75 42.7798C136.144 43.0781 135.439 43.2273 134.634 43.2273ZM144.584 43.2557C143.893 43.2557 143.266 43.1255 142.702 42.8651C142.139 42.5999 141.691 42.2188 141.36 41.7216C141.028 41.2197 140.863 40.6136 140.863 39.9034C140.863 39.2784 140.986 38.7718 141.232 38.3835C141.478 37.9905 141.807 37.6828 142.219 37.4602C142.631 37.2377 143.086 37.072 143.583 36.9631C144.085 36.8494 144.589 36.7595 145.096 36.6932C145.758 36.608 146.296 36.544 146.708 36.5014C147.124 36.4541 147.427 36.3759 147.617 36.267C147.811 36.1581 147.908 35.9687 147.908 35.6989V35.642C147.908 34.9413 147.716 34.3968 147.333 34.0085C146.954 33.6203 146.379 33.4261 145.607 33.4261C144.807 33.4261 144.179 33.6013 143.725 33.9517C143.27 34.3021 142.951 34.6761 142.766 35.0739L141.175 34.5057C141.459 33.8428 141.838 33.3267 142.311 32.9574C142.79 32.5833 143.31 32.3229 143.874 32.1761C144.442 32.0246 145.001 31.9489 145.55 31.9489C145.9 31.9489 146.303 31.9915 146.757 32.0767C147.217 32.1572 147.659 32.3253 148.086 32.581C148.516 32.8366 148.874 33.2225 149.158 33.7386C149.442 34.2547 149.584 34.946 149.584 35.8125V43H147.908V41.5227H147.823C147.709 41.7595 147.52 42.0128 147.255 42.2827C146.989 42.5526 146.637 42.7822 146.196 42.9716C145.756 43.161 145.219 43.2557 144.584 43.2557ZM144.84 41.75C145.503 41.75 146.061 41.6198 146.516 41.3594C146.975 41.099 147.321 40.7628 147.553 40.3509C147.79 39.9389 147.908 39.5057 147.908 39.0511V37.517C147.837 37.6023 147.681 37.6804 147.439 37.7514C147.203 37.8177 146.928 37.8769 146.615 37.929C146.308 37.9763 146.007 38.0189 145.713 38.0568C145.425 38.09 145.19 38.1184 145.01 38.142C144.575 38.1989 144.167 38.2912 143.789 38.419C143.415 38.5421 143.112 38.7292 142.88 38.9801C142.652 39.2263 142.539 39.5625 142.539 39.9886C142.539 40.571 142.754 41.0114 143.185 41.3097C143.621 41.6032 144.172 41.75 144.84 41.75ZM154.32 36.4375V43H152.643V32.0909H154.263V33.7955H154.405C154.661 33.2415 155.049 32.7964 155.57 32.4602C156.09 32.1193 156.763 31.9489 157.587 31.9489C158.325 31.9489 158.972 32.1004 159.526 32.4034C160.08 32.7017 160.51 33.1562 160.818 33.767C161.126 34.3731 161.28 35.1402 161.28 36.0682V43H159.604V36.1818C159.604 35.3248 159.381 34.6572 158.936 34.179C158.491 33.696 157.88 33.4545 157.104 33.4545C156.569 33.4545 156.09 33.5705 155.669 33.8026C155.252 34.0346 154.923 34.3731 154.682 34.8182C154.44 35.2633 154.32 35.803 154.32 36.4375ZM174.542 43.2273C173.49 43.2273 172.584 42.9953 171.821 42.5312C171.064 42.0625 170.479 41.4091 170.067 40.571C169.66 39.7282 169.456 38.7481 169.456 37.6307C169.456 36.5133 169.66 35.5284 170.067 34.6761C170.479 33.8191 171.052 33.1515 171.786 32.6733C172.525 32.1903 173.386 31.9489 174.371 31.9489C174.939 31.9489 175.5 32.0436 176.054 32.233C176.608 32.4223 177.113 32.7301 177.567 33.1562C178.022 33.5777 178.384 34.1364 178.654 34.8324C178.924 35.5284 179.059 36.3854 179.059 37.4034V38.1136H170.65V36.6648H177.354C177.354 36.0492 177.231 35.5 176.985 35.017C176.743 34.5341 176.398 34.1529 175.948 33.8736C175.503 33.5942 174.977 33.4545 174.371 33.4545C173.703 33.4545 173.126 33.6203 172.638 33.9517C172.155 34.2784 171.783 34.7045 171.523 35.2301C171.263 35.7557 171.132 36.3191 171.132 36.9205V37.8864C171.132 38.7102 171.275 39.4086 171.559 39.9815C171.847 40.5497 172.248 40.983 172.759 41.2812C173.27 41.5748 173.864 41.7216 174.542 41.7216C174.982 41.7216 175.38 41.66 175.735 41.5369C176.095 41.4091 176.405 41.2197 176.665 40.9688C176.926 40.7131 177.127 40.3958 177.269 40.017L178.888 40.4716C178.718 41.0208 178.431 41.5038 178.029 41.9205C177.626 42.3324 177.129 42.6544 176.537 42.8864C175.945 43.1136 175.28 43.2273 174.542 43.2273ZM182.565 32.0909L185.179 36.5511L187.793 32.0909H189.724L186.202 37.5455L189.724 43H187.793L185.179 38.767L182.565 43H180.634L184.099 37.5455L180.634 32.0909H182.565ZM196.86 32.0909V33.5114H191.207V32.0909H196.86ZM192.855 29.4773H194.531V39.875C194.531 40.3485 194.6 40.7036 194.737 40.9403C194.879 41.1723 195.059 41.3286 195.277 41.4091C195.499 41.4848 195.734 41.5227 195.98 41.5227C196.164 41.5227 196.316 41.5133 196.434 41.4943C196.553 41.4706 196.647 41.4517 196.718 41.4375L197.059 42.9432C196.946 42.9858 196.787 43.0284 196.583 43.071C196.38 43.1184 196.122 43.142 195.809 43.142C195.336 43.142 194.872 43.0402 194.417 42.8366C193.967 42.633 193.593 42.3229 193.295 41.9062C193.002 41.4896 192.855 40.964 192.855 40.3295V29.4773ZM203.838 43.2273C202.787 43.2273 201.881 42.9953 201.118 42.5312C200.361 42.0625 199.776 41.4091 199.364 40.571C198.957 39.7282 198.753 38.7481 198.753 37.6307C198.753 36.5133 198.957 35.5284 199.364 34.6761C199.776 33.8191 200.349 33.1515 201.083 32.6733C201.821 32.1903 202.683 31.9489 203.668 31.9489C204.236 31.9489 204.797 32.0436 205.351 32.233C205.905 32.4223 206.409 32.7301 206.864 33.1562C207.319 33.5777 207.681 34.1364 207.951 34.8324C208.221 35.5284 208.355 36.3854 208.355 37.4034V38.1136H199.946V36.6648H206.651C206.651 36.0492 206.528 35.5 206.282 35.017C206.04 34.5341 205.694 34.1529 205.245 33.8736C204.8 33.5942 204.274 33.4545 203.668 33.4545C203 33.4545 202.423 33.6203 201.935 33.9517C201.452 34.2784 201.08 34.7045 200.82 35.2301C200.56 35.7557 200.429 36.3191 200.429 36.9205V37.8864C200.429 38.7102 200.571 39.4086 200.855 39.9815C201.144 40.5497 201.544 40.983 202.056 41.2812C202.567 41.5748 203.161 41.7216 203.838 41.7216C204.279 41.7216 204.676 41.66 205.032 41.5369C205.391 41.4091 205.702 41.2197 205.962 40.9688C206.222 40.7131 206.424 40.3958 206.566 40.017L208.185 40.4716C208.015 41.0208 207.728 41.5038 207.326 41.9205C206.923 42.3324 206.426 42.6544 205.834 42.8864C205.242 43.1136 204.577 43.2273 203.838 43.2273ZM212.581 36.4375V43H210.905V32.0909H212.525V33.7955H212.667C212.922 33.2415 213.31 32.7964 213.831 32.4602C214.352 32.1193 215.025 31.9489 215.848 31.9489C216.587 31.9489 217.233 32.1004 217.787 32.4034C218.341 32.7017 218.772 33.1562 219.08 33.767C219.388 34.3731 219.542 35.1402 219.542 36.0682V43H217.865V36.1818C217.865 35.3248 217.643 34.6572 217.198 34.179C216.753 33.696 216.142 33.4545 215.365 33.4545C214.83 33.4545 214.352 33.5705 213.931 33.8026C213.514 34.0346 213.185 34.3731 212.944 34.8182C212.702 35.2633 212.581 35.803 212.581 36.4375ZM226.724 43.2273C225.815 43.2273 225.012 42.9976 224.316 42.5384C223.62 42.0743 223.076 41.4209 222.683 40.5781C222.29 39.7306 222.093 38.7292 222.093 37.5739C222.093 36.428 222.29 35.4337 222.683 34.5909C223.076 33.7481 223.622 33.0971 224.323 32.6378C225.024 32.1785 225.834 31.9489 226.752 31.9489C227.462 31.9489 228.023 32.0672 228.435 32.304C228.852 32.536 229.169 32.8011 229.387 33.0994C229.61 33.393 229.782 33.6345 229.906 33.8239H230.048V28.4545H231.724V43H230.104V41.3239H229.906C229.782 41.5227 229.607 41.7737 229.38 42.0767C229.153 42.375 228.828 42.6425 228.407 42.8793C227.986 43.1113 227.424 43.2273 226.724 43.2273ZM226.951 41.7216C227.623 41.7216 228.192 41.5464 228.656 41.196C229.12 40.8409 229.472 40.3509 229.714 39.7259C229.955 39.0961 230.076 38.3693 230.076 37.5455C230.076 36.7311 229.958 36.0185 229.721 35.4077C229.484 34.7921 229.134 34.3139 228.67 33.973C228.206 33.6274 227.633 33.4545 226.951 33.4545C226.241 33.4545 225.649 33.6368 225.175 34.0014C224.707 34.3613 224.354 34.8513 224.117 35.4716C223.885 36.0871 223.769 36.7784 223.769 37.5455C223.769 38.322 223.888 39.0275 224.124 39.6619C224.366 40.2917 224.721 40.7936 225.19 41.1676C225.663 41.5369 226.25 41.7216 226.951 41.7216ZM243.862 43.2557C243.17 43.2557 242.543 43.1255 241.979 42.8651C241.416 42.5999 240.969 42.2188 240.637 41.7216C240.306 41.2197 240.14 40.6136 240.14 39.9034C240.14 39.2784 240.263 38.7718 240.509 38.3835C240.755 37.9905 241.085 37.6828 241.496 37.4602C241.908 37.2377 242.363 37.072 242.86 36.9631C243.362 36.8494 243.866 36.7595 244.373 36.6932C245.036 36.608 245.573 36.544 245.985 36.5014C246.402 36.4541 246.705 36.3759 246.894 36.267C247.088 36.1581 247.185 35.9687 247.185 35.6989V35.642C247.185 34.9413 246.994 34.3968 246.61 34.0085C246.231 33.6203 245.656 33.4261 244.884 33.4261C244.084 33.4261 243.457 33.6013 243.002 33.9517C242.548 34.3021 242.228 34.6761 242.043 35.0739L240.452 34.5057C240.737 33.8428 241.115 33.3267 241.589 32.9574C242.067 32.5833 242.588 32.3229 243.151 32.1761C243.719 32.0246 244.278 31.9489 244.827 31.9489C245.178 31.9489 245.58 31.9915 246.035 32.0767C246.494 32.1572 246.937 32.3253 247.363 32.581C247.794 32.8366 248.151 33.2225 248.435 33.7386C248.719 34.2547 248.862 34.946 248.862 35.8125V43H247.185V41.5227H247.1C246.987 41.7595 246.797 42.0128 246.532 42.2827C246.267 42.5526 245.914 42.7822 245.474 42.9716C245.033 43.161 244.496 43.2557 243.862 43.2557ZM244.117 41.75C244.78 41.75 245.339 41.6198 245.793 41.3594C246.253 41.099 246.598 40.7628 246.83 40.3509C247.067 39.9389 247.185 39.5057 247.185 39.0511V37.517C247.114 37.6023 246.958 37.6804 246.717 37.7514C246.48 37.8177 246.205 37.8769 245.893 37.929C245.585 37.9763 245.284 38.0189 244.991 38.0568C244.702 38.09 244.468 38.1184 244.288 38.142C243.852 38.1989 243.445 38.2912 243.066 38.419C242.692 38.5421 242.389 38.7292 242.157 38.9801C241.93 39.2263 241.816 39.5625 241.816 39.9886C241.816 40.571 242.031 41.0114 242.462 41.3097C242.898 41.6032 243.45 41.75 244.117 41.75ZM253.597 36.4375V43H251.921V32.0909H253.54V33.7955H253.682C253.938 33.2415 254.326 32.7964 254.847 32.4602C255.368 32.1193 256.04 31.9489 256.864 31.9489C257.603 31.9489 258.249 32.1004 258.803 32.4034C259.357 32.7017 259.788 33.1562 260.096 33.767C260.403 34.3731 260.557 35.1402 260.557 36.0682V43H258.881V36.1818C258.881 35.3248 258.658 34.6572 258.213 34.179C257.768 33.696 257.158 33.4545 256.381 33.4545C255.846 33.4545 255.368 33.5705 254.946 33.8026C254.53 34.0346 254.201 34.3731 253.959 34.8182C253.718 35.2633 253.597 35.803 253.597 36.4375ZM267.739 43.2273C266.83 43.2273 266.028 42.9976 265.332 42.5384C264.636 42.0743 264.091 41.4209 263.698 40.5781C263.305 39.7306 263.109 38.7292 263.109 37.5739C263.109 36.428 263.305 35.4337 263.698 34.5909C264.091 33.7481 264.638 33.0971 265.339 32.6378C266.04 32.1785 266.849 31.9489 267.768 31.9489C268.478 31.9489 269.039 32.0672 269.451 32.304C269.868 32.536 270.185 32.8011 270.403 33.0994C270.625 33.393 270.798 33.6345 270.921 33.8239H271.063V28.4545H272.739V43H271.12V41.3239H270.921C270.798 41.5227 270.623 41.7737 270.396 42.0767C270.168 42.375 269.844 42.6425 269.423 42.8793C269.001 43.1113 268.44 43.2273 267.739 43.2273ZM267.967 41.7216C268.639 41.7216 269.207 41.5464 269.671 41.196C270.135 40.8409 270.488 40.3509 270.729 39.7259C270.971 39.0961 271.092 38.3693 271.092 37.5455C271.092 36.7311 270.973 36.0185 270.737 35.4077C270.5 34.7921 270.149 34.3139 269.685 33.973C269.221 33.6274 268.648 33.4545 267.967 33.4545C267.256 33.4545 266.665 33.6368 266.191 34.0014C265.722 34.3613 265.37 34.8513 265.133 35.4716C264.901 36.0871 264.785 36.7784 264.785 37.5455C264.785 38.322 264.903 39.0275 265.14 39.6619C265.381 40.2917 265.737 40.7936 266.205 41.1676C266.679 41.5369 267.266 41.7216 267.967 41.7216ZM10.392 56.0909V57.5114H4.51136V56.0909H10.392ZM6.27273 67V54.5852C6.27273 53.9602 6.41951 53.4394 6.71307 53.0227C7.00663 52.6061 7.38778 52.2936 7.85653 52.0852C8.32528 51.8769 8.82008 51.7727 9.34091 51.7727C9.75284 51.7727 10.089 51.8059 10.3494 51.8722C10.6098 51.9384 10.804 52 10.9318 52.0568L10.4489 53.5057C10.3636 53.4773 10.2453 53.4418 10.0938 53.3991C9.94697 53.3565 9.75284 53.3352 9.51136 53.3352C8.95739 53.3352 8.55729 53.4749 8.31108 53.7543C8.0696 54.0336 7.94886 54.4432 7.94886 54.983V67H6.27273ZM12.7411 67V56.0909H14.4173V67H12.7411ZM13.5934 54.2727C13.2667 54.2727 12.985 54.1615 12.7482 53.9389C12.5162 53.7164 12.4002 53.4489 12.4002 53.1364C12.4002 52.8239 12.5162 52.5563 12.7482 52.3338C12.985 52.1113 13.2667 52 13.5934 52C13.9201 52 14.1995 52.1113 14.4315 52.3338C14.6682 52.5563 14.7866 52.8239 14.7866 53.1364C14.7866 53.4489 14.6682 53.7164 14.4315 53.9389C14.1995 54.1615 13.9201 54.2727 13.5934 54.2727ZM19.1634 60.4375V67H17.4872V56.0909H19.1065V57.7955H19.2486C19.5043 57.2415 19.8925 56.7964 20.4134 56.4602C20.9342 56.1193 21.6065 55.9489 22.4304 55.9489C23.169 55.9489 23.8153 56.1004 24.3693 56.4034C24.9233 56.7017 25.3542 57.1562 25.6619 57.767C25.9697 58.3731 26.1236 59.1402 26.1236 60.0682V67H24.4474V60.1818C24.4474 59.3248 24.2249 58.6572 23.7798 58.179C23.3348 57.696 22.724 57.4545 21.9474 57.4545C21.4124 57.4545 20.9342 57.5705 20.5128 57.8026C20.0961 58.0346 19.767 58.3731 19.5256 58.8182C19.2841 59.2633 19.1634 59.803 19.1634 60.4375ZM33.3058 67.2273C32.3967 67.2273 31.5941 66.9976 30.8981 66.5384C30.2021 66.0743 29.6576 65.4209 29.2646 64.5781C28.8716 63.7306 28.6751 62.7292 28.6751 61.5739C28.6751 60.428 28.8716 59.4337 29.2646 58.5909C29.6576 57.7481 30.2044 57.0971 30.9052 56.6378C31.6059 56.1785 32.4156 55.9489 33.3342 55.9489C34.0444 55.9489 34.6055 56.0672 35.0174 56.304C35.4341 56.536 35.7513 56.8011 35.9691 57.0994C36.1916 57.393 36.3645 57.6345 36.4876 57.8239H36.6296V52.4545H38.3058V67H36.6864V65.3239H36.4876C36.3645 65.5227 36.1893 65.7737 35.962 66.0767C35.7347 66.375 35.4104 66.6425 34.989 66.8793C34.5676 67.1113 34.0065 67.2273 33.3058 67.2273ZM33.533 65.7216C34.2054 65.7216 34.7736 65.5464 35.2376 65.196C35.7016 64.8409 36.0543 64.3509 36.2958 63.7259C36.5373 63.0961 36.658 62.3693 36.658 61.5455C36.658 60.7311 36.5397 60.0185 36.3029 59.4077C36.0662 58.7921 35.7158 58.3139 35.2518 57.973C34.7878 57.6274 34.2148 57.4545 33.533 57.4545C32.8228 57.4545 32.2309 57.6368 31.7575 58.0014C31.2887 58.3613 30.936 58.8513 30.6992 59.4716C30.4672 60.0871 30.3512 60.7784 30.3512 61.5455C30.3512 62.322 30.4696 63.0275 30.7063 63.6619C30.9478 64.2917 31.3029 64.7936 31.7717 65.1676C32.2451 65.5369 32.8323 65.7216 33.533 65.7216ZM50.4435 67.2557C49.7522 67.2557 49.1249 67.1255 48.5614 66.8651C47.998 66.5999 47.5505 66.2188 47.2191 65.7216C46.8877 65.2197 46.7219 64.6136 46.7219 63.9034C46.7219 63.2784 46.8451 62.7718 47.0913 62.3835C47.3375 61.9905 47.6665 61.6828 48.0785 61.4602C48.4904 61.2377 48.945 61.072 49.4421 60.9631C49.944 60.8494 50.4483 60.7595 50.9549 60.6932C51.6178 60.608 52.1552 60.544 52.5671 60.5014C52.9838 60.4541 53.2868 60.3759 53.4762 60.267C53.6703 60.1581 53.7674 59.9687 53.7674 59.6989V59.642C53.7674 58.9413 53.5756 58.3968 53.1921 58.0085C52.8133 57.6203 52.238 57.4261 51.4663 57.4261C50.6661 57.4261 50.0387 57.6013 49.5842 57.9517C49.1296 58.3021 48.81 58.6761 48.6254 59.0739L47.0344 58.5057C47.3185 57.8428 47.6973 57.3267 48.1708 56.9574C48.649 56.5833 49.1699 56.3229 49.7333 56.1761C50.3015 56.0246 50.8602 55.9489 51.4094 55.9489C51.7598 55.9489 52.1623 55.9915 52.6168 56.0767C53.0761 56.1572 53.5188 56.3253 53.945 56.581C54.3758 56.8366 54.7333 57.2225 55.0174 57.7386C55.3015 58.2547 55.4435 58.946 55.4435 59.8125V67H53.7674V65.5227H53.6822C53.5685 65.7595 53.3791 66.0128 53.114 66.2827C52.8488 66.5526 52.4961 66.7822 52.0558 66.9716C51.6154 67.161 51.078 67.2557 50.4435 67.2557ZM50.6992 65.75C51.3621 65.75 51.9208 65.6198 52.3754 65.3594C52.8346 65.099 53.1803 64.7628 53.4123 64.3509C53.649 63.9389 53.7674 63.5057 53.7674 63.0511V61.517C53.6964 61.6023 53.5401 61.6804 53.2987 61.7514C53.0619 61.8177 52.7873 61.8769 52.4748 61.929C52.167 61.9763 51.8664 62.0189 51.5728 62.0568C51.284 62.09 51.0496 62.1184 50.8697 62.142C50.4341 62.1989 50.0269 62.2912 49.6481 62.419C49.274 62.5421 48.971 62.7292 48.739 62.9801C48.5117 63.2263 48.3981 63.5625 48.3981 63.9886C48.3981 64.571 48.6135 65.0114 49.0444 65.3097C49.48 65.6032 50.0316 65.75 50.6992 65.75ZM60.179 52.4545V67H58.5028V52.4545H60.179ZM63.2489 67V56.0909H64.9251V67H63.2489ZM64.1012 54.2727C63.7745 54.2727 63.4928 54.1615 63.256 53.9389C63.024 53.7164 62.908 53.4489 62.908 53.1364C62.908 52.8239 63.024 52.5563 63.256 52.3338C63.4928 52.1113 63.7745 52 64.1012 52C64.4279 52 64.7073 52.1113 64.9393 52.3338C65.176 52.5563 65.2944 52.8239 65.2944 53.1364C65.2944 53.4489 65.176 53.7164 64.9393 53.9389C64.7073 54.1615 64.4279 54.2727 64.1012 54.2727ZM72.3984 71.3182C71.5888 71.3182 70.8928 71.214 70.3104 71.0057C69.728 70.8021 69.2427 70.5322 68.8544 70.196C68.4709 69.8646 68.1655 69.5095 67.9382 69.1307L69.2734 68.1932C69.425 68.392 69.6167 68.6193 69.8487 68.875C70.0807 69.1354 70.398 69.3603 70.8004 69.5497C71.2076 69.7438 71.7403 69.8409 72.3984 69.8409C73.2791 69.8409 74.0059 69.6278 74.5788 69.2017C75.1518 68.7756 75.4382 68.108 75.4382 67.1989V64.983H75.2962C75.1731 65.1818 74.9979 65.428 74.7706 65.7216C74.5481 66.0104 74.2261 66.2685 73.8047 66.4957C73.388 66.7183 72.8246 66.8295 72.1143 66.8295C71.2337 66.8295 70.4429 66.6212 69.7422 66.2045C69.0462 65.7879 68.4946 65.1818 68.0874 64.3864C67.6849 63.5909 67.4837 62.625 67.4837 61.4886C67.4837 60.3712 67.6802 59.3982 68.0732 58.5696C68.4661 57.7363 69.013 57.0923 69.7138 56.6378C70.4145 56.1785 71.2242 55.9489 72.1428 55.9489C72.853 55.9489 73.4164 56.0672 73.8331 56.304C74.2545 56.536 74.5765 56.8011 74.799 57.0994C75.0263 57.393 75.2015 57.6345 75.3246 57.8239H75.495V56.0909H77.1143V67.3125C77.1143 68.25 76.9013 69.0123 76.4751 69.5994C76.0537 70.1913 75.4856 70.6245 74.7706 70.8991C74.0604 71.1785 73.2696 71.3182 72.3984 71.3182ZM72.3416 65.3239C73.014 65.3239 73.5821 65.17 74.0462 64.8622C74.5102 64.5545 74.8629 64.1117 75.1044 63.5341C75.3459 62.9564 75.4666 62.2652 75.4666 61.4602C75.4666 60.6742 75.3482 59.9806 75.1115 59.3793C74.8748 58.7779 74.5244 58.3068 74.0604 57.9659C73.5964 57.625 73.0234 57.4545 72.3416 57.4545C71.6314 57.4545 71.0395 57.6345 70.5661 57.9943C70.0973 58.3542 69.7446 58.8371 69.5078 59.4432C69.2758 60.0492 69.1598 60.7216 69.1598 61.4602C69.1598 62.2178 69.2782 62.8878 69.5149 63.4702C69.7564 64.0478 70.1115 64.5024 70.5803 64.8338C71.0537 65.1605 71.6409 65.3239 72.3416 65.3239ZM81.8587 60.4375V67H80.1825V56.0909H81.8018V57.7955H81.9439C82.1996 57.2415 82.5878 56.7964 83.1087 56.4602C83.6295 56.1193 84.3018 55.9489 85.1257 55.9489C85.8643 55.9489 86.5107 56.1004 87.0646 56.4034C87.6186 56.7017 88.0495 57.1562 88.3572 57.767C88.665 58.3731 88.8189 59.1402 88.8189 60.0682V67H87.1428V60.1818C87.1428 59.3248 86.9202 58.6572 86.4751 58.179C86.0301 57.696 85.4193 57.4545 84.6428 57.4545C84.1077 57.4545 83.6295 57.5705 83.2081 57.8026C82.7914 58.0346 82.4624 58.3731 82.2209 58.8182C81.9794 59.2633 81.8587 59.803 81.8587 60.4375ZM91.8817 67V56.0909H93.5011V57.7955H93.6431C93.8704 57.2131 94.2373 56.7609 94.744 56.4389C95.2506 56.1122 95.859 55.9489 96.5692 55.9489C97.2889 55.9489 97.8879 56.1122 98.3661 56.4389C98.8491 56.7609 99.2255 57.2131 99.4954 57.7955H99.609C99.8884 57.232 100.307 56.7846 100.866 56.4531C101.425 56.117 102.095 55.9489 102.876 55.9489C103.851 55.9489 104.649 56.2543 105.27 56.8651C105.89 57.4711 106.2 58.4157 106.2 59.6989V67H104.524V59.6989C104.524 58.8939 104.304 58.3187 103.863 57.973C103.423 57.6274 102.904 57.4545 102.308 57.4545C101.541 57.4545 100.947 57.6866 100.525 58.1506C100.104 58.6098 99.8931 59.1922 99.8931 59.8977V67H98.1886V59.5284C98.1886 58.9081 97.9873 58.4086 97.5849 58.0298C97.1824 57.6463 96.6639 57.4545 96.0295 57.4545C95.5939 57.4545 95.1867 57.5705 94.8079 57.8026C94.4338 58.0346 94.1308 58.3565 93.8988 58.7685C93.6715 59.1757 93.5579 59.6468 93.5579 60.1818V67H91.8817ZM113.838 67.2273C112.787 67.2273 111.881 66.9953 111.118 66.5312C110.361 66.0625 109.776 65.4091 109.364 64.571C108.957 63.7282 108.753 62.7481 108.753 61.6307C108.753 60.5133 108.957 59.5284 109.364 58.6761C109.776 57.8191 110.349 57.1515 111.083 56.6733C111.821 56.1903 112.683 55.9489 113.668 55.9489C114.236 55.9489 114.797 56.0436 115.351 56.233C115.905 56.4223 116.409 56.7301 116.864 57.1562C117.319 57.5777 117.681 58.1364 117.951 58.8324C118.221 59.5284 118.355 60.3854 118.355 61.4034V62.1136H109.946V60.6648H116.651C116.651 60.0492 116.528 59.5 116.282 59.017C116.04 58.5341 115.694 58.1529 115.245 57.8736C114.8 57.5942 114.274 57.4545 113.668 57.4545C113 57.4545 112.423 57.6203 111.935 57.9517C111.452 58.2784 111.08 58.7045 110.82 59.2301C110.56 59.7557 110.429 60.3191 110.429 60.9205V61.8864C110.429 62.7102 110.571 63.4086 110.855 63.9815C111.144 64.5497 111.544 64.983 112.056 65.2812C112.567 65.5748 113.161 65.7216 113.838 65.7216C114.279 65.7216 114.676 65.66 115.032 65.5369C115.391 65.4091 115.702 65.2197 115.962 64.9688C116.222 64.7131 116.424 64.3958 116.566 64.017L118.185 64.4716C118.015 65.0208 117.728 65.5038 117.326 65.9205C116.923 66.3324 116.426 66.6544 115.834 66.8864C115.242 67.1136 114.577 67.2273 113.838 67.2273ZM122.581 60.4375V67H120.905V56.0909H122.525V57.7955H122.667C122.922 57.2415 123.31 56.7964 123.831 56.4602C124.352 56.1193 125.025 55.9489 125.848 55.9489C126.587 55.9489 127.233 56.1004 127.787 56.4034C128.341 56.7017 128.772 57.1562 129.08 57.767C129.388 58.3731 129.542 59.1402 129.542 60.0682V67H127.865V60.1818C127.865 59.3248 127.643 58.6572 127.198 58.179C126.753 57.696 126.142 57.4545 125.365 57.4545C124.83 57.4545 124.352 57.5705 123.931 57.8026C123.514 58.0346 123.185 58.3731 122.944 58.8182C122.702 59.2633 122.581 59.803 122.581 60.4375ZM137.349 56.0909V57.5114H131.695V56.0909H137.349ZM133.343 53.4773H135.019V63.875C135.019 64.3485 135.088 64.7036 135.225 64.9403C135.367 65.1723 135.547 65.3286 135.765 65.4091C135.987 65.4848 136.222 65.5227 136.468 65.5227C136.653 65.5227 136.804 65.5133 136.923 65.4943C137.041 65.4706 137.136 65.4517 137.207 65.4375L137.548 66.9432C137.434 66.9858 137.275 67.0284 137.072 67.071C136.868 67.1184 136.61 67.142 136.298 67.142C135.824 67.142 135.36 67.0402 134.906 66.8366C134.456 66.633 134.082 66.3229 133.783 65.9062C133.49 65.4896 133.343 64.964 133.343 64.3295V53.4773ZM147.967 67L144.643 56.0909H146.404L148.762 64.4432H148.876L151.205 56.0909H152.995L155.296 64.4148H155.41L157.768 56.0909H159.529L156.205 67H154.558L152.171 58.6193H152.001L149.614 67H147.967ZM161.745 67V56.0909H163.421V67H161.745ZM162.597 54.2727C162.271 54.2727 161.989 54.1615 161.752 53.9389C161.52 53.7164 161.404 53.4489 161.404 53.1364C161.404 52.8239 161.52 52.5563 161.752 52.3338C161.989 52.1113 162.271 52 162.597 52C162.924 52 163.203 52.1113 163.435 52.3338C163.672 52.5563 163.79 52.8239 163.79 53.1364C163.79 53.4489 163.672 53.7164 163.435 53.9389C163.203 54.1615 162.924 54.2727 162.597 54.2727ZM171.235 56.0909V57.5114H165.582V56.0909H171.235ZM167.23 53.4773H168.906V63.875C168.906 64.3485 168.975 64.7036 169.112 64.9403C169.254 65.1723 169.434 65.3286 169.652 65.4091C169.874 65.4848 170.109 65.5227 170.355 65.5227C170.539 65.5227 170.691 65.5133 170.809 65.4943C170.928 65.4706 171.022 65.4517 171.093 65.4375L171.434 66.9432C171.321 66.9858 171.162 67.0284 170.958 67.071C170.755 67.1184 170.497 67.142 170.184 67.142C169.711 67.142 169.247 67.0402 168.792 66.8366C168.342 66.633 167.968 66.3229 167.67 65.9062C167.377 65.4896 167.23 64.964 167.23 64.3295V53.4773ZM175.667 60.4375V67H173.991V52.4545H175.667V57.7955H175.809C176.065 57.232 176.449 56.7846 176.96 56.4531C177.476 56.117 178.163 55.9489 179.02 55.9489C179.763 55.9489 180.414 56.098 180.973 56.3963C181.531 56.6899 181.965 57.142 182.272 57.7528C182.585 58.3589 182.741 59.1307 182.741 60.0682V67H181.065V60.1818C181.065 59.3153 180.84 58.6454 180.39 58.1719C179.945 57.6937 179.327 57.4545 178.537 57.4545C177.987 57.4545 177.495 57.5705 177.059 57.8026C176.628 58.0346 176.288 58.3731 176.037 58.8182C175.79 59.2633 175.667 59.803 175.667 60.4375ZM195.864 67.2273C194.879 67.2273 194.015 66.9929 193.272 66.5241C192.533 66.0554 191.956 65.3996 191.539 64.5568C191.127 63.714 190.921 62.7292 190.921 61.6023C190.921 60.4659 191.127 59.474 191.539 58.6264C191.956 57.7789 192.533 57.1207 193.272 56.652C194.015 56.1832 194.879 55.9489 195.864 55.9489C196.849 55.9489 197.711 56.1832 198.45 56.652C199.193 57.1207 199.771 57.7789 200.183 58.6264C200.599 59.474 200.808 60.4659 200.808 61.6023C200.808 62.7292 200.599 63.714 200.183 64.5568C199.771 65.3996 199.193 66.0554 198.45 66.5241C197.711 66.9929 196.849 67.2273 195.864 67.2273ZM195.864 65.7216C196.612 65.7216 197.228 65.5298 197.711 65.1463C198.194 64.7628 198.551 64.2585 198.783 63.6335C199.015 63.0085 199.131 62.3314 199.131 61.6023C199.131 60.8731 199.015 60.1937 198.783 59.5639C198.551 58.9342 198.194 58.4252 197.711 58.0369C197.228 57.6487 196.612 57.4545 195.864 57.4545C195.116 57.4545 194.501 57.6487 194.018 58.0369C193.535 58.4252 193.177 58.9342 192.945 59.5639C192.713 60.1937 192.597 60.8731 192.597 61.6023C192.597 62.3314 192.713 63.0085 192.945 63.6335C193.177 64.2585 193.535 64.7628 194.018 65.1463C194.501 65.5298 195.116 65.7216 195.864 65.7216ZM208.11 56.0909V57.5114H202.457V56.0909H208.11ZM204.105 53.4773H205.781V63.875C205.781 64.3485 205.85 64.7036 205.987 64.9403C206.129 65.1723 206.309 65.3286 206.527 65.4091C206.749 65.4848 206.984 65.5227 207.23 65.5227C207.414 65.5227 207.566 65.5133 207.684 65.4943C207.803 65.4706 207.897 65.4517 207.968 65.4375L208.309 66.9432C208.196 66.9858 208.037 67.0284 207.833 67.071C207.63 67.1184 207.372 67.142 207.059 67.142C206.586 67.142 206.122 67.0402 205.667 66.8366C205.217 66.633 204.843 66.3229 204.545 65.9062C204.252 65.4896 204.105 64.964 204.105 64.3295V53.4773ZM212.542 60.4375V67H210.866V52.4545H212.542V57.7955H212.684C212.94 57.232 213.324 56.7846 213.835 56.4531C214.351 56.117 215.038 55.9489 215.895 55.9489C216.638 55.9489 217.289 56.098 217.848 56.3963C218.406 56.6899 218.84 57.142 219.147 57.7528C219.46 58.3589 219.616 59.1307 219.616 60.0682V67H217.94V60.1818C217.94 59.3153 217.715 58.6454 217.265 58.1719C216.82 57.6937 216.202 57.4545 215.412 57.4545C214.862 57.4545 214.37 57.5705 213.934 57.8026C213.503 58.0346 213.163 58.3731 212.912 58.8182C212.665 59.2633 212.542 59.803 212.542 60.4375ZM227.256 67.2273C226.205 67.2273 225.299 66.9953 224.536 66.5312C223.779 66.0625 223.194 65.4091 222.782 64.571C222.375 63.7282 222.171 62.7481 222.171 61.6307C222.171 60.5133 222.375 59.5284 222.782 58.6761C223.194 57.8191 223.767 57.1515 224.501 56.6733C225.239 56.1903 226.101 55.9489 227.086 55.9489C227.654 55.9489 228.215 56.0436 228.769 56.233C229.323 56.4223 229.827 56.7301 230.282 57.1562C230.737 57.5777 231.099 58.1364 231.369 58.8324C231.638 59.5284 231.773 60.3854 231.773 61.4034V62.1136H223.364V60.6648H230.069C230.069 60.0492 229.946 59.5 229.7 59.017C229.458 58.5341 229.112 58.1529 228.663 57.8736C228.218 57.5942 227.692 57.4545 227.086 57.4545C226.418 57.4545 225.841 57.6203 225.353 57.9517C224.87 58.2784 224.498 58.7045 224.238 59.2301C223.978 59.7557 223.847 60.3191 223.847 60.9205V61.8864C223.847 62.7102 223.989 63.4086 224.273 63.9815C224.562 64.5497 224.962 64.983 225.474 65.2812C225.985 65.5748 226.579 65.7216 227.256 65.7216C227.697 65.7216 228.094 65.66 228.45 65.5369C228.809 65.4091 229.12 65.2197 229.38 64.9688C229.64 64.7131 229.842 64.3958 229.984 64.017L231.603 64.4716C231.433 65.0208 231.146 65.5038 230.744 65.9205C230.341 66.3324 229.844 66.6544 229.252 66.8864C228.66 67.1136 227.995 67.2273 227.256 67.2273ZM234.323 67V56.0909H235.942V57.7386H236.056C236.255 57.1989 236.615 56.7609 237.136 56.4247C237.656 56.0885 238.244 55.9205 238.897 55.9205C239.02 55.9205 239.174 55.9228 239.359 55.9276C239.543 55.9323 239.683 55.9394 239.778 55.9489V57.6534C239.721 57.6392 239.591 57.6179 239.387 57.5895C239.188 57.5563 238.978 57.5398 238.755 57.5398C238.225 57.5398 237.751 57.651 237.335 57.8736C236.923 58.0914 236.596 58.3944 236.354 58.7827C236.118 59.1662 235.999 59.6042 235.999 60.0966V67H234.323ZM9.96591 91.2273C8.98106 91.2273 8.11695 90.9929 7.37358 90.5241C6.63494 90.0554 6.05729 89.3996 5.64062 88.5568C5.22869 87.714 5.02273 86.7292 5.02273 85.6023C5.02273 84.4659 5.22869 83.474 5.64062 82.6264C6.05729 81.7789 6.63494 81.1207 7.37358 80.652C8.11695 80.1832 8.98106 79.9489 9.96591 79.9489C10.9508 79.9489 11.8125 80.1832 12.5511 80.652C13.2945 81.1207 13.8722 81.7789 14.2841 82.6264C14.7008 83.474 14.9091 84.4659 14.9091 85.6023C14.9091 86.7292 14.7008 87.714 14.2841 88.5568C13.8722 89.3996 13.2945 90.0554 12.5511 90.5241C11.8125 90.9929 10.9508 91.2273 9.96591 91.2273ZM9.96591 89.7216C10.714 89.7216 11.3295 89.5298 11.8125 89.1463C12.2955 88.7628 12.6529 88.2585 12.8849 87.6335C13.117 87.0085 13.233 86.3314 13.233 85.6023C13.233 84.8731 13.117 84.1937 12.8849 83.5639C12.6529 82.9342 12.2955 82.4252 11.8125 82.0369C11.3295 81.6487 10.714 81.4545 9.96591 81.4545C9.2178 81.4545 8.60227 81.6487 8.11932 82.0369C7.63636 82.4252 7.27888 82.9342 7.04688 83.5639C6.81487 84.1937 6.69886 84.8731 6.69886 85.6023C6.69886 86.3314 6.81487 87.0085 7.04688 87.6335C7.27888 88.2585 7.63636 88.7628 8.11932 89.1463C8.60227 89.5298 9.2178 89.7216 9.96591 89.7216ZM17.695 91V76.4545H19.3711V81.8239H19.5131C19.6362 81.6345 19.8067 81.393 20.0245 81.0994C20.247 80.8011 20.5643 80.536 20.9762 80.304C21.3929 80.0672 21.9563 79.9489 22.6665 79.9489C23.5851 79.9489 24.3948 80.1785 25.0955 80.6378C25.7963 81.0971 26.3432 81.7481 26.7362 82.5909C27.1291 83.4337 27.3256 84.428 27.3256 85.5739C27.3256 86.7292 27.1291 87.7306 26.7362 88.5781C26.3432 89.4209 25.7987 90.0743 25.1026 90.5384C24.4066 90.9976 23.604 91.2273 22.695 91.2273C21.9942 91.2273 21.4331 91.1113 21.0117 90.8793C20.5903 90.6425 20.266 90.375 20.0387 90.0767C19.8114 89.7737 19.6362 89.5227 19.5131 89.3239H19.3143V91H17.695ZM19.3427 85.5455C19.3427 86.3693 19.4634 87.0961 19.7049 87.7259C19.9464 88.3509 20.2991 88.8409 20.7631 89.196C21.2272 89.5464 21.7953 89.7216 22.4677 89.7216C23.1684 89.7216 23.7532 89.5369 24.2219 89.1676C24.6954 88.7936 25.0505 88.2917 25.2873 87.6619C25.5288 87.0275 25.6495 86.322 25.6495 85.5455C25.6495 84.7784 25.5311 84.0871 25.2944 83.4716C25.0624 82.8513 24.7096 82.3613 24.2362 82.0014C23.7674 81.6368 23.1779 81.4545 22.4677 81.4545C21.7859 81.4545 21.2129 81.6274 20.7489 81.973C20.2849 82.3139 19.9345 82.7921 19.6978 83.4077C19.4611 84.0185 19.3427 84.7311 19.3427 85.5455ZM29.8896 80.0909H31.5657V91.7955C31.5657 92.4678 31.4497 93.0502 31.2177 93.5426C30.9904 94.035 30.6448 94.4162 30.1808 94.6861C29.7215 94.956 29.1415 95.0909 28.4407 95.0909C28.3839 95.0909 28.3271 95.0909 28.2702 95.0909C28.2134 95.0909 28.1566 95.0909 28.0998 95.0909V93.5284C28.1566 93.5284 28.2087 93.5284 28.256 93.5284C28.3034 93.5284 28.3555 93.5284 28.4123 93.5284C28.9237 93.5284 29.2977 93.3769 29.5344 93.0739C29.7712 92.7756 29.8896 92.3494 29.8896 91.7955V80.0909ZM30.7134 78.2727C30.3867 78.2727 30.105 78.1615 29.8683 77.9389C29.6362 77.7164 29.5202 77.4489 29.5202 77.1364C29.5202 76.8239 29.6362 76.5563 29.8683 76.3338C30.105 76.1113 30.3867 76 30.7134 76C31.0401 76 31.3195 76.1113 31.5515 76.3338C31.7882 76.5563 31.9066 76.8239 31.9066 77.1364C31.9066 77.4489 31.7882 77.7164 31.5515 77.9389C31.3195 78.1615 31.0401 78.2727 30.7134 78.2727ZM39.2095 91.2273C38.1584 91.2273 37.2517 90.9953 36.4893 90.5312C35.7318 90.0625 35.147 89.4091 34.7351 88.571C34.3279 87.7282 34.1243 86.7481 34.1243 85.6307C34.1243 84.5133 34.3279 83.5284 34.7351 82.6761C35.147 81.8191 35.7199 81.1515 36.4538 80.6733C37.1925 80.1903 38.0542 79.9489 39.0391 79.9489C39.6072 79.9489 40.1683 80.0436 40.7223 80.233C41.2763 80.4223 41.7805 80.7301 42.2351 81.1562C42.6896 81.5777 43.0518 82.1364 43.3217 82.8324C43.5916 83.5284 43.7266 84.3854 43.7266 85.4034V86.1136H35.3175V84.6648H42.022C42.022 84.0492 41.8989 83.5 41.6527 83.017C41.4112 82.5341 41.0656 82.1529 40.6158 81.8736C40.1707 81.5942 39.6451 81.4545 39.0391 81.4545C38.3714 81.4545 37.7938 81.6203 37.3061 81.9517C36.8232 82.2784 36.4515 82.7045 36.1911 83.2301C35.9306 83.7557 35.8004 84.3191 35.8004 84.9205V85.8864C35.8004 86.7102 35.9425 87.4086 36.2266 87.9815C36.5154 88.5497 36.9155 88.983 37.4268 89.2812C37.9382 89.5748 38.5324 89.7216 39.2095 89.7216C39.6499 89.7216 40.0476 89.66 40.4027 89.5369C40.7625 89.4091 41.0727 89.2197 41.3331 88.9688C41.5935 88.7131 41.7947 88.3958 41.9368 88.017L43.5561 88.4716C43.3857 89.0208 43.0992 89.5038 42.6967 89.9205C42.2943 90.3324 41.7971 90.6544 41.2053 90.8864C40.6134 91.1136 39.9482 91.2273 39.2095 91.2273ZM50.7081 91.2273C49.6854 91.2273 48.8047 90.9858 48.0661 90.5028C47.3274 90.0199 46.7592 89.3546 46.3615 88.5071C45.9638 87.6596 45.7649 86.6913 45.7649 85.6023C45.7649 84.4943 45.9685 83.5166 46.3757 82.669C46.7876 81.8168 47.3606 81.1515 48.0945 80.6733C48.8331 80.1903 49.6948 79.9489 50.6797 79.9489C51.4467 79.9489 52.138 80.0909 52.7536 80.375C53.3691 80.6591 53.8733 81.0568 54.2663 81.5682C54.6593 82.0795 54.9032 82.6761 54.9979 83.358H53.3217C53.1939 82.8608 52.9098 82.4205 52.4695 82.0369C52.0339 81.6487 51.4467 81.4545 50.7081 81.4545C50.0547 81.4545 49.4818 81.625 48.9893 81.9659C48.5017 82.3021 48.1205 82.7779 47.8459 83.3935C47.576 84.0043 47.4411 84.7216 47.4411 85.5455C47.4411 86.3883 47.5736 87.1222 47.8388 87.7472C48.1087 88.3722 48.4875 88.8575 48.9751 89.2031C49.4676 89.5488 50.0452 89.7216 50.7081 89.7216C51.1437 89.7216 51.5391 89.6458 51.8942 89.4943C52.2493 89.3428 52.55 89.125 52.7962 88.8409C53.0424 88.5568 53.2176 88.2159 53.3217 87.8182H54.9979C54.9032 88.4621 54.6688 89.0421 54.2947 89.5582C53.9254 90.0696 53.4354 90.4768 52.8246 90.7798C52.2185 91.0781 51.513 91.2273 50.7081 91.2273ZM62.1925 80.0909V81.5114H56.5391V80.0909H62.1925ZM58.1868 77.4773H59.8629V87.875C59.8629 88.3485 59.9316 88.7036 60.0689 88.9403C60.2109 89.1723 60.3909 89.3286 60.6087 89.4091C60.8312 89.4848 61.0656 89.5227 61.3118 89.5227C61.4964 89.5227 61.648 89.5133 61.7663 89.4943C61.8847 89.4706 61.9794 89.4517 62.0504 89.4375L62.3913 90.9432C62.2777 90.9858 62.1191 91.0284 61.9155 91.071C61.7119 91.1184 61.4538 91.142 61.1413 91.142C60.6679 91.142 60.2038 91.0402 59.7493 90.8366C59.2995 90.633 58.9254 90.3229 58.6271 89.9062C58.3336 89.4896 58.1868 88.964 58.1868 88.3295V77.4773ZM72.2457 82.5341L70.7401 82.9602C70.6454 82.7093 70.5057 82.4654 70.321 82.2287C70.1411 81.9872 69.8949 81.7884 69.5824 81.6321C69.2699 81.4759 68.8698 81.3977 68.3821 81.3977C67.7145 81.3977 67.1581 81.5516 66.7131 81.8594C66.2727 82.1624 66.0526 82.5483 66.0526 83.017C66.0526 83.4337 66.2041 83.7628 66.5071 84.0043C66.8101 84.2457 67.2836 84.447 67.9276 84.608L69.5469 85.0057C70.5223 85.2424 71.2491 85.6046 71.7273 86.0923C72.2055 86.5753 72.4446 87.1979 72.4446 87.9602C72.4446 88.5852 72.2647 89.1439 71.9048 89.6364C71.5497 90.1288 71.0526 90.517 70.4134 90.8011C69.7741 91.0852 69.0308 91.2273 68.1832 91.2273C67.0705 91.2273 66.1496 90.9858 65.4205 90.5028C64.6913 90.0199 64.2296 89.3144 64.0355 88.3864L65.6264 87.9886C65.7779 88.5758 66.0644 89.0161 66.4858 89.3097C66.9119 89.6032 67.4683 89.75 68.1548 89.75C68.9361 89.75 69.5563 89.5843 70.0156 89.2528C70.4796 88.9167 70.7116 88.5142 70.7116 88.0455C70.7116 87.6667 70.5791 87.3494 70.3139 87.0938C70.0488 86.8333 69.6416 86.6392 69.0923 86.5114L67.2741 86.0852C66.2751 85.8485 65.5412 85.4815 65.0724 84.9844C64.6084 84.4825 64.3764 83.8551 64.3764 83.1023C64.3764 82.4867 64.5492 81.9422 64.8949 81.4688C65.2453 80.9953 65.7211 80.6236 66.3224 80.3537C66.9285 80.0838 67.6151 79.9489 68.3821 79.9489C69.4616 79.9489 70.3092 80.1856 70.9247 80.6591C71.545 81.1326 71.9853 81.7576 72.2457 82.5341ZM80.5927 91V80.0909H82.2688V91H80.5927ZM81.445 78.2727C81.1183 78.2727 80.8365 78.1615 80.5998 77.9389C80.3678 77.7164 80.2518 77.4489 80.2518 77.1364C80.2518 76.8239 80.3678 76.5563 80.5998 76.3338C80.8365 76.1113 81.1183 76 81.445 76C81.7717 76 82.051 76.1113 82.283 76.3338C82.5198 76.5563 82.6381 76.8239 82.6381 77.1364C82.6381 77.4489 82.5198 77.7164 82.283 77.9389C82.051 78.1615 81.7717 78.2727 81.445 78.2727ZM87.0149 84.4375V91H85.3388V80.0909H86.9581V81.7955H87.1001C87.3558 81.2415 87.7441 80.7964 88.2649 80.4602C88.7857 80.1193 89.4581 79.9489 90.282 79.9489C91.0206 79.9489 91.6669 80.1004 92.2209 80.4034C92.7749 80.7017 93.2057 81.1562 93.5135 81.767C93.8213 82.3731 93.9751 83.1402 93.9751 84.0682V91H92.299V84.1818C92.299 83.3248 92.0765 82.6572 91.6314 82.179C91.1863 81.696 90.5755 81.4545 89.799 81.4545C89.264 81.4545 88.7857 81.5705 88.3643 81.8026C87.9477 82.0346 87.6186 82.3731 87.3771 82.8182C87.1357 83.2633 87.0149 83.803 87.0149 84.4375ZM107.095 91.2273C106.11 91.2273 105.246 90.9929 104.502 90.5241C103.764 90.0554 103.186 89.3996 102.77 88.5568C102.358 87.714 102.152 86.7292 102.152 85.6023C102.152 84.4659 102.358 83.474 102.77 82.6264C103.186 81.7789 103.764 81.1207 104.502 80.652C105.246 80.1832 106.11 79.9489 107.095 79.9489C108.08 79.9489 108.941 80.1832 109.68 80.652C110.423 81.1207 111.001 81.7789 111.413 82.6264C111.83 83.474 112.038 84.4659 112.038 85.6023C112.038 86.7292 111.83 87.714 111.413 88.5568C111.001 89.3996 110.423 90.0554 109.68 90.5241C108.941 90.9929 108.08 91.2273 107.095 91.2273ZM107.095 89.7216C107.843 89.7216 108.458 89.5298 108.941 89.1463C109.424 88.7628 109.782 88.2585 110.014 87.6335C110.246 87.0085 110.362 86.3314 110.362 85.6023C110.362 84.8731 110.246 84.1937 110.014 83.5639C109.782 82.9342 109.424 82.4252 108.941 82.0369C108.458 81.6487 107.843 81.4545 107.095 81.4545C106.347 81.4545 105.731 81.6487 105.248 82.0369C104.765 82.4252 104.408 82.9342 104.176 83.5639C103.944 84.1937 103.828 84.8731 103.828 85.6023C103.828 86.3314 103.944 87.0085 104.176 87.6335C104.408 88.2585 104.765 88.7628 105.248 89.1463C105.731 89.5298 106.347 89.7216 107.095 89.7216ZM121.472 86.5398V80.0909H123.148V91H121.472V89.1534H121.358C121.102 89.7074 120.705 90.1785 120.165 90.5668C119.625 90.9503 118.943 91.142 118.119 91.142C117.438 91.142 116.831 90.9929 116.301 90.6946C115.771 90.3916 115.354 89.937 115.051 89.331C114.748 88.7202 114.597 87.9508 114.597 87.0227V80.0909H116.273V86.9091C116.273 87.7045 116.495 88.339 116.94 88.8125C117.39 89.286 117.963 89.5227 118.659 89.5227C119.076 89.5227 119.5 89.4162 119.93 89.2031C120.366 88.9901 120.731 88.6634 121.024 88.223C121.322 87.7827 121.472 87.2216 121.472 86.5398ZM126.218 91V80.0909H127.837V81.7386H127.951C128.15 81.1989 128.509 80.7609 129.03 80.4247C129.551 80.0885 130.138 79.9205 130.792 79.9205C130.915 79.9205 131.069 79.9228 131.253 79.9276C131.438 79.9323 131.578 79.9394 131.672 79.9489V81.6534C131.615 81.6392 131.485 81.6179 131.282 81.5895C131.083 81.5563 130.872 81.5398 130.65 81.5398C130.119 81.5398 129.646 81.651 129.229 81.8736C128.817 82.0914 128.49 82.3944 128.249 82.7827C128.012 83.1662 127.894 83.6042 127.894 84.0966V91H126.218ZM143.403 91.2273C142.494 91.2273 141.692 90.9976 140.996 90.5384C140.3 90.0743 139.755 89.4209 139.362 88.5781C138.969 87.7306 138.773 86.7292 138.773 85.5739C138.773 84.428 138.969 83.4337 139.362 82.5909C139.755 81.7481 140.302 81.0971 141.003 80.6378C141.704 80.1785 142.513 79.9489 143.432 79.9489C144.142 79.9489 144.703 80.0672 145.115 80.304C145.532 80.536 145.849 80.8011 146.067 81.0994C146.289 81.393 146.462 81.6345 146.585 81.8239H146.727V76.4545H148.403V91H146.784V89.3239H146.585C146.462 89.5227 146.287 89.7737 146.06 90.0767C145.832 90.375 145.508 90.6425 145.087 90.8793C144.665 91.1113 144.104 91.2273 143.403 91.2273ZM143.631 89.7216C144.303 89.7216 144.871 89.5464 145.335 89.196C145.799 88.8409 146.152 88.3509 146.393 87.7259C146.635 87.0961 146.756 86.3693 146.756 85.5455C146.756 84.7311 146.637 84.0185 146.401 83.4077C146.164 82.7921 145.813 82.3139 145.349 81.973C144.885 81.6274 144.313 81.4545 143.631 81.4545C142.92 81.4545 142.329 81.6368 141.855 82.0014C141.386 82.3613 141.034 82.8513 140.797 83.4716C140.565 84.0871 140.449 84.7784 140.449 85.5455C140.449 86.322 140.567 87.0275 140.804 87.6619C141.045 88.2917 141.401 88.7936 141.869 89.1676C142.343 89.5369 142.93 89.7216 143.631 89.7216ZM156.28 91.2273C155.229 91.2273 154.322 90.9953 153.56 90.5312C152.802 90.0625 152.217 89.4091 151.805 88.571C151.398 87.7282 151.195 86.7481 151.195 85.6307C151.195 84.5133 151.398 83.5284 151.805 82.6761C152.217 81.8191 152.79 81.1515 153.524 80.6733C154.263 80.1903 155.125 79.9489 156.109 79.9489C156.678 79.9489 157.239 80.0436 157.793 80.233C158.347 80.4223 158.851 80.7301 159.305 81.1562C159.76 81.5777 160.122 82.1364 160.392 82.8324C160.662 83.5284 160.797 84.3854 160.797 85.4034V86.1136H152.388V84.6648H159.092C159.092 84.0492 158.969 83.5 158.723 83.017C158.482 82.5341 158.136 82.1529 157.686 81.8736C157.241 81.5942 156.715 81.4545 156.109 81.4545C155.442 81.4545 154.864 81.6203 154.376 81.9517C153.893 82.2784 153.522 82.7045 153.261 83.2301C153.001 83.7557 152.871 84.3191 152.871 84.9205V85.8864C152.871 86.7102 153.013 87.4086 153.297 87.9815C153.586 88.5497 153.986 88.983 154.497 89.2812C155.009 89.5748 155.603 89.7216 156.28 89.7216C156.72 89.7216 157.118 89.66 157.473 89.5369C157.833 89.4091 158.143 89.2197 158.403 88.9688C158.664 88.7131 158.865 88.3958 159.007 88.017L160.626 88.4716C160.456 89.0208 160.17 89.5038 159.767 89.9205C159.365 90.3324 158.867 90.6544 158.276 90.8864C157.684 91.1136 157.018 91.2273 156.28 91.2273ZM171.074 82.5341L169.568 82.9602C169.473 82.7093 169.334 82.4654 169.149 82.2287C168.969 81.9872 168.723 81.7884 168.411 81.6321C168.098 81.4759 167.698 81.3977 167.21 81.3977C166.543 81.3977 165.986 81.5516 165.541 81.8594C165.101 82.1624 164.881 82.5483 164.881 83.017C164.881 83.4337 165.032 83.7628 165.335 84.0043C165.638 84.2457 166.112 84.447 166.756 84.608L168.375 85.0057C169.35 85.2424 170.077 85.6046 170.555 86.0923C171.034 86.5753 171.273 87.1979 171.273 87.9602C171.273 88.5852 171.093 89.1439 170.733 89.6364C170.378 90.1288 169.881 90.517 169.241 90.8011C168.602 91.0852 167.859 91.2273 167.011 91.2273C165.899 91.2273 164.978 90.9858 164.249 90.5028C163.519 90.0199 163.058 89.3144 162.864 88.3864L164.455 87.9886C164.606 88.5758 164.893 89.0161 165.314 89.3097C165.74 89.6032 166.296 89.75 166.983 89.75C167.764 89.75 168.384 89.5843 168.844 89.2528C169.308 88.9167 169.54 88.5142 169.54 88.0455C169.54 87.6667 169.407 87.3494 169.142 87.0938C168.877 86.8333 168.47 86.6392 167.92 86.5114L166.102 86.0852C165.103 85.8485 164.369 85.4815 163.901 84.9844C163.437 84.4825 163.205 83.8551 163.205 83.1023C163.205 82.4867 163.377 81.9422 163.723 81.4688C164.073 80.9953 164.549 80.6236 165.151 80.3537C165.757 80.0838 166.443 79.9489 167.21 79.9489C168.29 79.9489 169.137 80.1856 169.753 80.6591C170.373 81.1326 170.813 81.7576 171.074 82.5341ZM173.796 91V80.0909H175.472V91H173.796ZM174.648 78.2727C174.321 78.2727 174.04 78.1615 173.803 77.9389C173.571 77.7164 173.455 77.4489 173.455 77.1364C173.455 76.8239 173.571 76.5563 173.803 76.3338C174.04 76.1113 174.321 76 174.648 76C174.975 76 175.254 76.1113 175.486 76.3338C175.723 76.5563 175.841 76.8239 175.841 77.1364C175.841 77.4489 175.723 77.7164 175.486 77.9389C175.254 78.1615 174.975 78.2727 174.648 78.2727ZM182.945 95.3182C182.136 95.3182 181.44 95.214 180.857 95.0057C180.275 94.8021 179.79 94.5322 179.401 94.196C179.018 93.8646 178.712 93.5095 178.485 93.1307L179.82 92.1932C179.972 92.392 180.164 92.6193 180.396 92.875C180.628 93.1354 180.945 93.3603 181.347 93.5497C181.754 93.7438 182.287 93.8409 182.945 93.8409C183.826 93.8409 184.553 93.6278 185.126 93.2017C185.699 92.7756 185.985 92.108 185.985 91.1989V88.983H185.843C185.72 89.1818 185.545 89.428 185.317 89.7216C185.095 90.0104 184.773 90.2685 184.352 90.4957C183.935 90.7183 183.371 90.8295 182.661 90.8295C181.781 90.8295 180.99 90.6212 180.289 90.2045C179.593 89.7879 179.041 89.1818 178.634 88.3864C178.232 87.5909 178.031 86.625 178.031 85.4886C178.031 84.3712 178.227 83.3982 178.62 82.5696C179.013 81.7363 179.56 81.0923 180.261 80.6378C180.961 80.1785 181.771 79.9489 182.69 79.9489C183.4 79.9489 183.963 80.0672 184.38 80.304C184.801 80.536 185.123 80.8011 185.346 81.0994C185.573 81.393 185.748 81.6345 185.871 81.8239H186.042V80.0909H187.661V91.3125C187.661 92.25 187.448 93.0123 187.022 93.5994C186.601 94.1913 186.032 94.6245 185.317 94.8991C184.607 95.1785 183.817 95.3182 182.945 95.3182ZM182.888 89.3239C183.561 89.3239 184.129 89.17 184.593 88.8622C185.057 88.5545 185.41 88.1117 185.651 87.5341C185.893 86.9564 186.013 86.2652 186.013 85.4602C186.013 84.6742 185.895 83.9806 185.658 83.3793C185.422 82.7779 185.071 82.3068 184.607 81.9659C184.143 81.625 183.57 81.4545 182.888 81.4545C182.178 81.4545 181.586 81.6345 181.113 81.9943C180.644 82.3542 180.291 82.8371 180.055 83.4432C179.823 84.0492 179.707 84.7216 179.707 85.4602C179.707 86.2178 179.825 86.8878 180.062 87.4702C180.303 88.0478 180.658 88.5024 181.127 88.8338C181.601 89.1605 182.188 89.3239 182.888 89.3239ZM192.406 84.4375V91H190.729V80.0909H192.349V81.7955H192.491C192.746 81.2415 193.135 80.7964 193.656 80.4602C194.176 80.1193 194.849 79.9489 195.673 79.9489C196.411 79.9489 197.058 80.1004 197.612 80.4034C198.165 80.7017 198.596 81.1562 198.904 81.767C199.212 82.3731 199.366 83.1402 199.366 84.0682V91H197.69V84.1818C197.69 83.3248 197.467 82.6572 197.022 82.179C196.577 81.696 195.966 81.4545 195.19 81.4545C194.655 81.4545 194.176 81.5705 193.755 81.8026C193.338 82.0346 193.009 82.3731 192.768 82.8182C192.526 83.2633 192.406 83.803 192.406 84.4375ZM6.35795 139H4.51136L9.85227 124.455H11.6705L17.0114 139H15.1648L10.8182 126.756H10.7045L6.35795 139ZM7.03977 133.318H14.483V134.881H7.03977V133.318ZM20.7259 124.455V139H19.0497V124.455H20.7259ZM23.7958 139V128.091H25.4719V139H23.7958ZM24.6481 126.273C24.3214 126.273 24.0397 126.161 23.8029 125.939C23.5709 125.716 23.4549 125.449 23.4549 125.136C23.4549 124.824 23.5709 124.556 23.8029 124.334C24.0397 124.111 24.3214 124 24.6481 124C24.9748 124 25.2541 124.111 25.4862 124.334C25.7229 124.556 25.8413 124.824 25.8413 125.136C25.8413 125.449 25.7229 125.716 25.4862 125.939C25.2541 126.161 24.9748 126.273 24.6481 126.273ZM32.9453 143.318C32.1357 143.318 31.4396 143.214 30.8572 143.006C30.2749 142.802 29.7895 142.532 29.4013 142.196C29.0178 141.865 28.7124 141.509 28.4851 141.131L29.8203 140.193C29.9718 140.392 30.1636 140.619 30.3956 140.875C30.6276 141.135 30.9448 141.36 31.3473 141.55C31.7545 141.744 32.2872 141.841 32.9453 141.841C33.826 141.841 34.5528 141.628 35.1257 141.202C35.6986 140.776 35.9851 140.108 35.9851 139.199V136.983H35.843C35.7199 137.182 35.5447 137.428 35.3175 137.722C35.0949 138.01 34.773 138.268 34.3516 138.496C33.9349 138.718 33.3714 138.83 32.6612 138.83C31.7805 138.83 30.9898 138.621 30.2891 138.205C29.593 137.788 29.0414 137.182 28.6342 136.386C28.2318 135.591 28.0305 134.625 28.0305 133.489C28.0305 132.371 28.227 131.398 28.62 130.57C29.013 129.736 29.5599 129.092 30.2607 128.638C30.9614 128.179 31.7711 127.949 32.6896 127.949C33.3999 127.949 33.9633 128.067 34.38 128.304C34.8014 128.536 35.1233 128.801 35.3459 129.099C35.5732 129.393 35.7483 129.634 35.8714 129.824H36.0419V128.091H37.6612V139.312C37.6612 140.25 37.4482 141.012 37.022 141.599C36.6006 142.191 36.0324 142.625 35.3175 142.899C34.6072 143.179 33.8165 143.318 32.9453 143.318ZM32.8885 137.324C33.5608 137.324 34.129 137.17 34.593 136.862C35.0571 136.554 35.4098 136.112 35.6513 135.534C35.8928 134.956 36.0135 134.265 36.0135 133.46C36.0135 132.674 35.8951 131.981 35.6584 131.379C35.4216 130.778 35.0713 130.307 34.6072 129.966C34.1432 129.625 33.5703 129.455 32.8885 129.455C32.1783 129.455 31.5864 129.634 31.1129 129.994C30.6442 130.354 30.2914 130.837 30.0547 131.443C29.8227 132.049 29.7067 132.722 29.7067 133.46C29.7067 134.218 29.825 134.888 30.0618 135.47C30.3033 136.048 30.6584 136.502 31.1271 136.834C31.6006 137.161 32.1877 137.324 32.8885 137.324ZM42.4055 132.438V139H40.7294V128.091H42.3487V129.795H42.4908C42.7464 129.241 43.1347 128.796 43.6555 128.46C44.1764 128.119 44.8487 127.949 45.6726 127.949C46.4112 127.949 47.0575 128.1 47.6115 128.403C48.1655 128.702 48.5964 129.156 48.9041 129.767C49.2119 130.373 49.3658 131.14 49.3658 132.068V139H47.6896V132.182C47.6896 131.325 47.4671 130.657 47.022 130.179C46.5769 129.696 45.9661 129.455 45.1896 129.455C44.6546 129.455 44.1764 129.571 43.755 129.803C43.3383 130.035 43.0092 130.373 42.7678 130.818C42.5263 131.263 42.4055 131.803 42.4055 132.438ZM52.4286 139V128.091H54.0479V129.795H54.19C54.4173 129.213 54.7842 128.761 55.2908 128.439C55.7975 128.112 56.4059 127.949 57.1161 127.949C57.8358 127.949 58.4348 128.112 58.913 128.439C59.396 128.761 59.7724 129.213 60.0423 129.795H60.1559C60.4353 129.232 60.8543 128.785 61.413 128.453C61.9717 128.117 62.6417 127.949 63.4229 127.949C64.3983 127.949 65.1961 128.254 65.8164 128.865C66.4367 129.471 66.7468 130.416 66.7468 131.699V139H65.0707V131.699C65.0707 130.894 64.8505 130.319 64.4102 129.973C63.9698 129.627 63.4513 129.455 62.8548 129.455C62.0877 129.455 61.4935 129.687 61.0721 130.151C60.6507 130.61 60.44 131.192 60.44 131.898V139H58.7354V131.528C58.7354 130.908 58.5342 130.409 58.1317 130.03C57.7293 129.646 57.2108 129.455 56.5763 129.455C56.1407 129.455 55.7335 129.571 55.3548 129.803C54.9807 130.035 54.6777 130.357 54.4457 130.768C54.2184 131.176 54.1048 131.647 54.1048 132.182V139H52.4286ZM74.3853 139.227C73.3342 139.227 72.4274 138.995 71.6651 138.531C70.9076 138.062 70.3228 137.409 69.9109 136.571C69.5037 135.728 69.3001 134.748 69.3001 133.631C69.3001 132.513 69.5037 131.528 69.9109 130.676C70.3228 129.819 70.8957 129.152 71.6296 128.673C72.3683 128.19 73.23 127.949 74.2148 127.949C74.783 127.949 75.3441 128.044 75.8981 128.233C76.4521 128.422 76.9563 128.73 77.4109 129.156C77.8654 129.578 78.2276 130.136 78.4975 130.832C78.7674 131.528 78.9023 132.385 78.9023 133.403V134.114H70.4933V132.665H77.1978C77.1978 132.049 77.0747 131.5 76.8285 131.017C76.587 130.534 76.2414 130.153 75.7915 129.874C75.3465 129.594 74.8209 129.455 74.2148 129.455C73.5472 129.455 72.9696 129.62 72.4819 129.952C71.9989 130.278 71.6272 130.705 71.3668 131.23C71.1064 131.756 70.9762 132.319 70.9762 132.92V133.886C70.9762 134.71 71.1183 135.409 71.4023 135.982C71.6912 136.55 72.0913 136.983 72.6026 137.281C73.114 137.575 73.7082 137.722 74.3853 137.722C74.8256 137.722 75.2234 137.66 75.5785 137.537C75.9383 137.409 76.2485 137.22 76.5089 136.969C76.7693 136.713 76.9705 136.396 77.1126 136.017L78.7319 136.472C78.5614 137.021 78.275 137.504 77.8725 137.92C77.4701 138.332 76.9729 138.654 76.381 138.886C75.7892 139.114 75.1239 139.227 74.3853 139.227ZM83.1282 132.438V139H81.4521V128.091H83.0714V129.795H83.2134C83.4691 129.241 83.8574 128.796 84.3782 128.46C84.899 128.119 85.5714 127.949 86.3952 127.949C87.1339 127.949 87.7802 128.1 88.3342 128.403C88.8881 128.702 89.319 129.156 89.6268 129.767C89.9345 130.373 90.0884 131.14 90.0884 132.068V139H88.4123V132.182C88.4123 131.325 88.1897 130.657 87.7447 130.179C87.2996 129.696 86.6888 129.455 85.9123 129.455C85.3772 129.455 84.899 129.571 84.4776 129.803C84.061 130.035 83.7319 130.373 83.4904 130.818C83.2489 131.263 83.1282 131.803 83.1282 132.438ZM97.8956 128.091V129.511H92.2422V128.091H97.8956ZM93.8899 125.477H95.5661V135.875C95.5661 136.348 95.6347 136.704 95.772 136.94C95.9141 137.172 96.094 137.329 96.3118 137.409C96.5343 137.485 96.7687 137.523 97.0149 137.523C97.1996 137.523 97.3511 137.513 97.4695 137.494C97.5878 137.471 97.6825 137.452 97.7536 137.438L98.0945 138.943C97.9808 138.986 97.8222 139.028 97.6186 139.071C97.415 139.118 97.157 139.142 96.8445 139.142C96.371 139.142 95.907 139.04 95.4524 138.837C95.0026 138.633 94.6286 138.323 94.3303 137.906C94.0367 137.49 93.8899 136.964 93.8899 136.33V125.477ZM106.724 130.392V128.858H115.474V130.392H106.724ZM106.724 134.597V133.062H115.474V134.597H106.724ZM136.782 129H135.021C134.917 128.493 134.734 128.048 134.474 127.665C134.218 127.281 133.906 126.959 133.537 126.699C133.172 126.434 132.767 126.235 132.322 126.102C131.877 125.97 131.413 125.903 130.93 125.903C130.049 125.903 129.252 126.126 128.537 126.571C127.826 127.016 127.261 127.672 126.839 128.538C126.422 129.405 126.214 130.468 126.214 131.727C126.214 132.987 126.422 134.05 126.839 134.916C127.261 135.783 127.826 136.438 128.537 136.884C129.252 137.329 130.049 137.551 130.93 137.551C131.413 137.551 131.877 137.485 132.322 137.352C132.767 137.22 133.172 137.023 133.537 136.763C133.906 136.498 134.218 136.173 134.474 135.79C134.734 135.402 134.917 134.956 135.021 134.455H136.782C136.65 135.198 136.408 135.863 136.058 136.45C135.708 137.037 135.272 137.537 134.751 137.949C134.23 138.356 133.645 138.666 132.997 138.879C132.353 139.092 131.664 139.199 130.93 139.199C129.69 139.199 128.586 138.896 127.62 138.29C126.654 137.684 125.895 136.822 125.341 135.705C124.787 134.587 124.51 133.261 124.51 131.727C124.51 130.193 124.787 128.867 125.341 127.75C125.895 126.633 126.654 125.771 127.62 125.165C128.586 124.559 129.69 124.256 130.93 124.256C131.664 124.256 132.353 124.362 132.997 124.575C133.645 124.788 134.23 125.101 134.751 125.513C135.272 125.92 135.708 126.417 136.058 127.004C136.408 127.587 136.65 128.252 136.782 129ZM143.833 139.227C142.848 139.227 141.984 138.993 141.241 138.524C140.502 138.055 139.924 137.4 139.508 136.557C139.096 135.714 138.89 134.729 138.89 133.602C138.89 132.466 139.096 131.474 139.508 130.626C139.924 129.779 140.502 129.121 141.241 128.652C141.984 128.183 142.848 127.949 143.833 127.949C144.818 127.949 145.68 128.183 146.418 128.652C147.162 129.121 147.739 129.779 148.151 130.626C148.568 131.474 148.776 132.466 148.776 133.602C148.776 134.729 148.568 135.714 148.151 136.557C147.739 137.4 147.162 138.055 146.418 138.524C145.68 138.993 144.818 139.227 143.833 139.227ZM143.833 137.722C144.581 137.722 145.197 137.53 145.68 137.146C146.163 136.763 146.52 136.259 146.752 135.634C146.984 135.009 147.1 134.331 147.1 133.602C147.1 132.873 146.984 132.194 146.752 131.564C146.52 130.934 146.163 130.425 145.68 130.037C145.197 129.649 144.581 129.455 143.833 129.455C143.085 129.455 142.469 129.649 141.987 130.037C141.504 130.425 141.146 130.934 140.914 131.564C140.682 132.194 140.566 132.873 140.566 133.602C140.566 134.331 140.682 135.009 140.914 135.634C141.146 136.259 141.504 136.763 141.987 137.146C142.469 137.53 143.085 137.722 143.833 137.722ZM153.011 132.438V139H151.335V128.091H152.954V129.795H153.096C153.352 129.241 153.74 128.796 154.261 128.46C154.782 128.119 155.454 127.949 156.278 127.949C157.017 127.949 157.663 128.1 158.217 128.403C158.771 128.702 159.202 129.156 159.51 129.767C159.817 130.373 159.971 131.14 159.971 132.068V139H158.295V132.182C158.295 131.325 158.073 130.657 157.627 130.179C157.182 129.696 156.572 129.455 155.795 129.455C155.26 129.455 154.782 129.571 154.36 129.803C153.944 130.035 153.615 130.373 153.373 130.818C153.132 131.263 153.011 131.803 153.011 132.438ZM164.71 132.438V139H163.034V128.091H164.653V129.795H164.795C165.051 129.241 165.439 128.796 165.96 128.46C166.481 128.119 167.153 127.949 167.977 127.949C168.716 127.949 169.362 128.1 169.916 128.403C170.47 128.702 170.901 129.156 171.209 129.767C171.517 130.373 171.67 131.14 171.67 132.068V139H169.994V132.182C169.994 131.325 169.772 130.657 169.327 130.179C168.882 129.696 168.271 129.455 167.494 129.455C166.959 129.455 166.481 129.571 166.06 129.803C165.643 130.035 165.314 130.373 165.072 130.818C164.831 131.263 164.71 131.803 164.71 132.438ZM179.307 139.227C178.256 139.227 177.349 138.995 176.587 138.531C175.829 138.062 175.245 137.409 174.833 136.571C174.426 135.728 174.222 134.748 174.222 133.631C174.222 132.513 174.426 131.528 174.833 130.676C175.245 129.819 175.818 129.152 176.551 128.673C177.29 128.19 178.152 127.949 179.137 127.949C179.705 127.949 180.266 128.044 180.82 128.233C181.374 128.422 181.878 128.73 182.333 129.156C182.787 129.578 183.15 130.136 183.419 130.832C183.689 131.528 183.824 132.385 183.824 133.403V134.114H175.415V132.665H182.12C182.12 132.049 181.997 131.5 181.75 131.017C181.509 130.534 181.163 130.153 180.713 129.874C180.268 129.594 179.743 129.455 179.137 129.455C178.469 129.455 177.891 129.62 177.404 129.952C176.921 130.278 176.549 130.705 176.289 131.23C176.028 131.756 175.898 132.319 175.898 132.92V133.886C175.898 134.71 176.04 135.409 176.324 135.982C176.613 136.55 177.013 136.983 177.525 137.281C178.036 137.575 178.63 137.722 179.307 137.722C179.748 137.722 180.145 137.66 180.5 137.537C180.86 137.409 181.17 137.22 181.431 136.969C181.691 136.713 181.892 136.396 182.034 136.017L183.654 136.472C183.483 137.021 183.197 137.504 182.794 137.92C182.392 138.332 181.895 138.654 181.303 138.886C180.711 139.114 180.046 139.227 179.307 139.227ZM190.806 139.227C189.783 139.227 188.902 138.986 188.164 138.503C187.425 138.02 186.857 137.355 186.459 136.507C186.061 135.66 185.863 134.691 185.863 133.602C185.863 132.494 186.066 131.517 186.473 130.669C186.885 129.817 187.458 129.152 188.192 128.673C188.931 128.19 189.792 127.949 190.777 127.949C191.544 127.949 192.236 128.091 192.851 128.375C193.467 128.659 193.971 129.057 194.364 129.568C194.757 130.08 195.001 130.676 195.096 131.358H193.419C193.292 130.861 193.007 130.42 192.567 130.037C192.132 129.649 191.544 129.455 190.806 129.455C190.152 129.455 189.579 129.625 189.087 129.966C188.599 130.302 188.218 130.778 187.944 131.393C187.674 132.004 187.539 132.722 187.539 133.545C187.539 134.388 187.671 135.122 187.936 135.747C188.206 136.372 188.585 136.857 189.073 137.203C189.565 137.549 190.143 137.722 190.806 137.722C191.241 137.722 191.637 137.646 191.992 137.494C192.347 137.343 192.648 137.125 192.894 136.841C193.14 136.557 193.315 136.216 193.419 135.818H195.096C195.001 136.462 194.766 137.042 194.392 137.558C194.023 138.07 193.533 138.477 192.922 138.78C192.316 139.078 191.611 139.227 190.806 139.227ZM202.29 128.091V129.511H196.637V128.091H202.29ZM198.284 125.477H199.961V135.875C199.961 136.348 200.029 136.704 200.167 136.94C200.309 137.172 200.489 137.329 200.706 137.409C200.929 137.485 201.163 137.523 201.409 137.523C201.594 137.523 201.746 137.513 201.864 137.494C201.982 137.471 202.077 137.452 202.148 137.438L202.489 138.943C202.375 138.986 202.217 139.028 202.013 139.071C201.81 139.118 201.551 139.142 201.239 139.142C200.766 139.142 200.301 139.04 199.847 138.837C199.397 138.633 199.023 138.323 198.725 137.906C198.431 137.49 198.284 136.964 198.284 136.33V125.477ZM204.811 139V128.091H206.488V139H204.811ZM205.664 126.273C205.337 126.273 205.055 126.161 204.819 125.939C204.587 125.716 204.471 125.449 204.471 125.136C204.471 124.824 204.587 124.556 204.819 124.334C205.055 124.111 205.337 124 205.664 124C205.99 124 206.27 124.111 206.502 124.334C206.739 124.556 206.857 124.824 206.857 125.136C206.857 125.449 206.739 125.716 206.502 125.939C206.27 126.161 205.99 126.273 205.664 126.273ZM213.989 139.227C213.004 139.227 212.14 138.993 211.397 138.524C210.658 138.055 210.081 137.4 209.664 136.557C209.252 135.714 209.046 134.729 209.046 133.602C209.046 132.466 209.252 131.474 209.664 130.626C210.081 129.779 210.658 129.121 211.397 128.652C212.14 128.183 213.004 127.949 213.989 127.949C214.974 127.949 215.836 128.183 216.575 128.652C217.318 129.121 217.896 129.779 218.308 130.626C218.724 131.474 218.933 132.466 218.933 133.602C218.933 134.729 218.724 135.714 218.308 136.557C217.896 137.4 217.318 138.055 216.575 138.524C215.836 138.993 214.974 139.227 213.989 139.227ZM213.989 137.722C214.737 137.722 215.353 137.53 215.836 137.146C216.319 136.763 216.676 136.259 216.908 135.634C217.14 135.009 217.256 134.331 217.256 133.602C217.256 132.873 217.14 132.194 216.908 131.564C216.676 130.934 216.319 130.425 215.836 130.037C215.353 129.649 214.737 129.455 213.989 129.455C213.241 129.455 212.626 129.649 212.143 130.037C211.66 130.425 211.302 130.934 211.07 131.564C210.838 132.194 210.722 132.873 210.722 133.602C210.722 134.331 210.838 135.009 211.07 135.634C211.302 136.259 211.66 136.763 212.143 137.146C212.626 137.53 213.241 137.722 213.989 137.722ZM223.167 132.438V139H221.491V128.091H223.11V129.795H223.252C223.508 129.241 223.896 128.796 224.417 128.46C224.938 128.119 225.61 127.949 226.434 127.949C227.173 127.949 227.819 128.1 228.373 128.403C228.927 128.702 229.358 129.156 229.666 129.767C229.974 130.373 230.127 131.14 230.127 132.068V139H228.451V132.182C228.451 131.325 228.229 130.657 227.784 130.179C227.339 129.696 226.728 129.455 225.951 129.455C225.416 129.455 224.938 129.571 224.517 129.803C224.1 130.035 223.771 130.373 223.529 130.818C223.288 131.263 223.167 131.803 223.167 132.438Z" fill="black"/>
<rect x="4" y="176" width="228" height="62" fill="#E9F0F8"/>
<path d="M1 4.5V235" stroke="black"/>
</svg>
