<svg width="195" height="144" viewBox="0 0 195 144" fill="none" xmlns="http://www.w3.org/2000/svg">
<path d="M9.76136 19V4.45455H14.8466C15.8598 4.45455 16.6955 4.62973 17.3537 4.98011C18.0118 5.32576 18.5019 5.79214 18.8239 6.37926C19.1458 6.96165 19.3068 7.60795 19.3068 8.31818C19.3068 8.94318 19.1955 9.45928 18.973 9.86648C18.7552 10.2737 18.4664 10.5956 18.1065 10.8324C17.7514 11.0691 17.3655 11.2443 16.9489 11.358V11.5C17.3939 11.5284 17.8414 11.6847 18.2912 11.9688C18.741 12.2528 19.1174 12.66 19.4205 13.1903C19.7235 13.7206 19.875 14.3693 19.875 15.1364C19.875 15.8655 19.7093 16.5213 19.3778 17.1037C19.0464 17.6861 18.5232 18.1477 17.8082 18.4886C17.0933 18.8295 16.1629 19 15.017 19H9.76136ZM11.5227 17.4375H15.017C16.1676 17.4375 16.9844 17.215 17.4673 16.7699C17.955 16.3201 18.1989 15.7756 18.1989 15.1364C18.1989 14.6439 18.0734 14.1894 17.8224 13.7727C17.5715 13.3513 17.214 13.0152 16.75 12.7642C16.286 12.5085 15.7367 12.3807 15.1023 12.3807H11.5227V17.4375ZM11.5227 10.8466H14.7898C15.3201 10.8466 15.7983 10.7424 16.2244 10.5341C16.6553 10.3258 16.9962 10.0322 17.2472 9.65341C17.5028 9.27462 17.6307 8.82955 17.6307 8.31818C17.6307 7.67898 17.4081 7.13684 16.9631 6.69176C16.518 6.24195 15.8125 6.01705 14.8466 6.01705H11.5227V10.8466ZM29.4169 14.5398V8.09091H31.093V19H29.4169V17.1534H29.3033C29.0476 17.7074 28.6499 18.1785 28.1101 18.5668C27.5703 18.9503 26.8885 19.142 26.0646 19.142C25.3828 19.142 24.7768 18.9929 24.2464 18.6946C23.7161 18.3916 23.2995 17.937 22.9964 17.331C22.6934 16.7202 22.5419 15.9508 22.5419 15.0227V8.09091H24.218V14.9091C24.218 15.7045 24.4406 16.339 24.8857 16.8125C25.3355 17.286 25.9084 17.5227 26.6044 17.5227C27.0211 17.5227 27.4448 17.4162 27.8757 17.2031C28.3113 16.9901 28.6759 16.6634 28.9695 16.223C29.2678 15.7827 29.4169 15.2216 29.4169 14.5398ZM38.9073 8.09091V9.51136H33.2539V8.09091H38.9073ZM34.9016 5.47727H36.5778V15.875C36.5778 16.3485 36.6464 16.7036 36.7837 16.9403C36.9258 17.1723 37.1057 17.3286 37.3235 17.4091C37.546 17.4848 37.7804 17.5227 38.0266 17.5227C38.2113 17.5227 38.3628 17.5133 38.4812 17.4943C38.5996 17.4706 38.6942 17.4517 38.7653 17.4375L39.1062 18.9432C38.9925 18.9858 38.8339 19.0284 38.6303 19.071C38.4267 19.1184 38.1687 19.142 37.8562 19.142C37.3827 19.142 36.9187 19.0402 36.4641 18.8366C36.0143 18.633 35.6403 18.3229 35.342 17.9062C35.0484 17.4896 34.9016 16.964 34.9016 16.3295V5.47727ZM49.5252 19L46.2013 8.09091H47.9627L50.3207 16.4432H50.4343L52.7638 8.09091H54.5536L56.8548 16.4148H56.9684L59.3263 8.09091H61.0877L57.7638 19H56.1161L53.7298 10.6193H53.5593L51.1729 19H49.5252ZM63.3036 19V8.09091H64.9798V19H63.3036ZM64.1559 6.27273C63.8292 6.27273 63.5475 6.16146 63.3107 5.93892C63.0787 5.71638 62.9627 5.44886 62.9627 5.13636C62.9627 4.82386 63.0787 4.55634 63.3107 4.33381C63.5475 4.11127 63.8292 4 64.1559 4C64.4826 4 64.762 4.11127 64.994 4.33381C65.2307 4.55634 65.3491 4.82386 65.3491 5.13636C65.3491 5.44886 65.2307 5.71638 64.994 5.93892C64.762 6.16146 64.4826 6.27273 64.1559 6.27273ZM72.794 8.09091V9.51136H67.1406V8.09091H72.794ZM68.7884 5.47727H70.4645V15.875C70.4645 16.3485 70.5331 16.7036 70.6705 16.9403C70.8125 17.1723 70.9924 17.3286 71.2102 17.4091C71.4328 17.4848 71.6671 17.5227 71.9134 17.5227C72.098 17.5227 72.2495 17.5133 72.3679 17.4943C72.4863 17.4706 72.581 17.4517 72.652 17.4375L72.9929 18.9432C72.8793 18.9858 72.7206 19.0284 72.517 19.071C72.3134 19.1184 72.0554 19.142 71.7429 19.142C71.2694 19.142 70.8054 19.0402 70.3509 18.8366C69.901 18.633 69.527 18.3229 69.2287 17.9062C68.9351 17.4896 68.7884 16.964 68.7884 16.3295V5.47727ZM77.2259 12.4375V19H75.5497V4.45455H77.2259V9.79545H77.3679C77.6236 9.23201 78.0071 8.78456 78.5185 8.45312C79.0346 8.11695 79.7211 7.94886 80.5781 7.94886C81.3215 7.94886 81.9725 8.09801 82.5312 8.39631C83.09 8.68987 83.5232 9.14205 83.831 9.75284C84.1435 10.3589 84.2997 11.1307 84.2997 12.0682V19H82.6236V12.1818C82.6236 11.3153 82.3987 10.6454 81.9489 10.1719C81.5038 9.69366 80.8859 9.45455 80.0952 9.45455C79.5459 9.45455 79.0535 9.57055 78.6179 9.80256C78.187 10.0346 77.8461 10.3731 77.5952 10.8182C77.349 11.2633 77.2259 11.803 77.2259 12.4375ZM94.6673 4.45455V19H92.9911V4.45455H94.6673ZM102.311 19.2273C101.26 19.2273 100.353 18.9953 99.5909 18.5312C98.8333 18.0625 98.2486 17.4091 97.8366 16.571C97.4295 15.7282 97.2259 14.7481 97.2259 13.6307C97.2259 12.5133 97.4295 11.5284 97.8366 10.6761C98.2486 9.81913 98.8215 9.15152 99.5554 8.6733C100.294 8.19034 101.156 7.94886 102.141 7.94886C102.709 7.94886 103.27 8.04356 103.824 8.23295C104.378 8.42235 104.882 8.73011 105.337 9.15625C105.791 9.57765 106.153 10.1364 106.423 10.8324C106.693 11.5284 106.828 12.3854 106.828 13.4034V14.1136H98.419V12.6648H105.124C105.124 12.0492 105 11.5 104.754 11.017C104.513 10.5341 104.167 10.1529 103.717 9.87358C103.272 9.59422 102.747 9.45455 102.141 9.45455C101.473 9.45455 100.895 9.62026 100.408 9.9517C99.9247 10.2784 99.553 10.7045 99.2926 11.2301C99.0322 11.7557 98.902 12.3191 98.902 12.9205V13.8864C98.902 14.7102 99.044 15.4086 99.3281 15.9815C99.617 16.5497 100.017 16.983 100.528 17.2812C101.04 17.5748 101.634 17.7216 102.311 17.7216C102.751 17.7216 103.149 17.66 103.504 17.5369C103.864 17.4091 104.174 17.2197 104.435 16.9688C104.695 16.7131 104.896 16.3958 105.038 16.017L106.658 16.4716C106.487 17.0208 106.201 17.5038 105.798 17.9205C105.396 18.3324 104.899 18.6544 104.307 18.8864C103.715 19.1136 103.05 19.2273 102.311 19.2273ZM114.236 8.09091V9.51136H108.355V8.09091H114.236ZM110.116 19V6.58523C110.116 5.96023 110.263 5.43939 110.557 5.02273C110.85 4.60606 111.232 4.29356 111.7 4.08523C112.169 3.87689 112.664 3.77273 113.185 3.77273C113.597 3.77273 113.933 3.80587 114.193 3.87216C114.454 3.93845 114.648 4 114.776 4.05682L114.293 5.50568C114.207 5.47727 114.089 5.44176 113.938 5.39915C113.791 5.35653 113.597 5.33523 113.355 5.33523C112.801 5.33523 112.401 5.4749 112.155 5.75426C111.913 6.03362 111.793 6.44318 111.793 6.98295V19H110.116ZM121.329 8.09091V9.51136H115.676V8.09091H121.329ZM117.324 5.47727H119V15.875C119 16.3485 119.068 16.7036 119.206 16.9403C119.348 17.1723 119.528 17.3286 119.745 17.4091C119.968 17.4848 120.202 17.5227 120.449 17.5227C120.633 17.5227 120.785 17.5133 120.903 17.4943C121.021 17.4706 121.116 17.4517 121.187 17.4375L121.528 18.9432C121.414 18.9858 121.256 19.0284 121.052 19.071C120.849 19.1184 120.591 19.142 120.278 19.142C119.805 19.142 119.341 19.0402 118.886 18.8366C118.436 18.633 118.062 18.3229 117.764 17.9062C117.47 17.4896 117.324 16.964 117.324 16.3295V5.47727ZM12.7443 43.2557C12.053 43.2557 11.4257 43.1255 10.8622 42.8651C10.2988 42.5999 9.85133 42.2188 9.51989 41.7216C9.18845 41.2197 9.02273 40.6136 9.02273 39.9034C9.02273 39.2784 9.14583 38.7718 9.39205 38.3835C9.63826 37.9905 9.96733 37.6828 10.3793 37.4602C10.7912 37.2377 11.2457 37.072 11.7429 36.9631C12.2448 36.8494 12.7491 36.7595 13.2557 36.6932C13.9186 36.608 14.456 36.544 14.8679 36.5014C15.2846 36.4541 15.5876 36.3759 15.777 36.267C15.9711 36.1581 16.0682 35.9687 16.0682 35.6989V35.642C16.0682 34.9413 15.8764 34.3968 15.4929 34.0085C15.1141 33.6203 14.5388 33.4261 13.767 33.4261C12.9669 33.4261 12.3395 33.6013 11.8849 33.9517C11.4304 34.3021 11.1108 34.6761 10.9261 35.0739L9.33523 34.5057C9.61932 33.8428 9.99811 33.3267 10.4716 32.9574C10.9498 32.5833 11.4706 32.3229 12.0341 32.1761C12.6023 32.0246 13.161 31.9489 13.7102 31.9489C14.0606 31.9489 14.4631 31.9915 14.9176 32.0767C15.3769 32.1572 15.8196 32.3253 16.2457 32.581C16.6766 32.8366 17.0341 33.2225 17.3182 33.7386C17.6023 34.2547 17.7443 34.946 17.7443 35.8125V43H16.0682V41.5227H15.983C15.8693 41.7595 15.6799 42.0128 15.4148 42.2827C15.1496 42.5526 14.7969 42.7822 14.3565 42.9716C13.9162 43.161 13.3788 43.2557 12.7443 43.2557ZM13 41.75C13.6629 41.75 14.2216 41.6198 14.6761 41.3594C15.1354 41.099 15.4811 40.7628 15.7131 40.3509C15.9498 39.9389 16.0682 39.5057 16.0682 39.0511V37.517C15.9972 37.6023 15.8409 37.6804 15.5994 37.7514C15.3627 37.8177 15.0881 37.8769 14.7756 37.929C14.4678 37.9763 14.1671 38.0189 13.8736 38.0568C13.5848 38.09 13.3504 38.1184 13.1705 38.142C12.7348 38.1989 12.3277 38.2912 11.9489 38.419C11.5748 38.5421 11.2718 38.7292 11.0398 38.9801C10.8125 39.2263 10.6989 39.5625 10.6989 39.9886C10.6989 40.571 10.9143 41.0114 11.3452 41.3097C11.7808 41.6032 12.3324 41.75 13 41.75ZM22.4798 28.4545V43H20.8036V28.4545H22.4798ZM25.5497 43V32.0909H27.2259V43H25.5497ZM26.402 30.2727C26.0753 30.2727 25.7936 30.1615 25.5568 29.9389C25.3248 29.7164 25.2088 29.4489 25.2088 29.1364C25.2088 28.8239 25.3248 28.5563 25.5568 28.3338C25.7936 28.1113 26.0753 28 26.402 28C26.7287 28 27.008 28.1113 27.2401 28.3338C27.4768 28.5563 27.5952 28.8239 27.5952 29.1364C27.5952 29.4489 27.4768 29.7164 27.2401 29.9389C27.008 30.1615 26.7287 30.2727 26.402 30.2727ZM34.6992 47.3182C33.8896 47.3182 33.1935 47.214 32.6112 47.0057C32.0288 46.8021 31.5434 46.5322 31.1552 46.196C30.7717 45.8646 30.4663 45.5095 30.239 45.1307L31.5742 44.1932C31.7257 44.392 31.9175 44.6193 32.1495 44.875C32.3815 45.1354 32.6987 45.3603 33.1012 45.5497C33.5084 45.7438 34.0411 45.8409 34.6992 45.8409C35.5799 45.8409 36.3067 45.6278 36.8796 45.2017C37.4525 44.7756 37.739 44.108 37.739 43.1989V40.983H37.5969C37.4738 41.1818 37.2987 41.428 37.0714 41.7216C36.8488 42.0104 36.5269 42.2685 36.1055 42.4957C35.6888 42.7183 35.1254 42.8295 34.4151 42.8295C33.5344 42.8295 32.7437 42.6212 32.043 42.2045C31.3469 41.7879 30.7953 41.1818 30.3881 40.3864C29.9857 39.5909 29.7844 38.625 29.7844 37.4886C29.7844 36.3712 29.9809 35.3982 30.3739 34.5696C30.7669 33.7363 31.3138 33.0923 32.0146 32.6378C32.7153 32.1785 33.525 31.9489 34.4435 31.9489C35.1538 31.9489 35.7172 32.0672 36.1339 32.304C36.5553 32.536 36.8772 32.8011 37.0998 33.0994C37.3271 33.393 37.5022 33.6345 37.6254 33.8239H37.7958V32.0909H39.4151V43.3125C39.4151 44.25 39.2021 45.0123 38.7759 45.5994C38.3545 46.1913 37.7863 46.6245 37.0714 46.8991C36.3612 47.1785 35.5704 47.3182 34.6992 47.3182ZM34.6424 41.3239C35.3147 41.3239 35.8829 41.17 36.3469 40.8622C36.811 40.5545 37.1637 40.1117 37.4052 39.5341C37.6467 38.9564 37.7674 38.2652 37.7674 37.4602C37.7674 36.6742 37.649 35.9806 37.4123 35.3793C37.1755 34.7779 36.8252 34.3068 36.3612 33.9659C35.8971 33.625 35.3242 33.4545 34.6424 33.4545C33.9322 33.4545 33.3403 33.6345 32.8668 33.9943C32.3981 34.3542 32.0453 34.8371 31.8086 35.4432C31.5766 36.0492 31.4606 36.7216 31.4606 37.4602C31.4606 38.2178 31.579 38.8878 31.8157 39.4702C32.0572 40.0478 32.4123 40.5024 32.881 40.8338C33.3545 41.1605 33.9416 41.3239 34.6424 41.3239ZM44.1594 36.4375V43H42.4833V32.0909H44.1026V33.7955H44.2447C44.5004 33.2415 44.8886 32.7964 45.4094 32.4602C45.9303 32.1193 46.6026 31.9489 47.4265 31.9489C48.1651 31.9489 48.8114 32.1004 49.3654 32.4034C49.9194 32.7017 50.3503 33.1562 50.658 33.767C50.9658 34.3731 51.1197 35.1402 51.1197 36.0682V43H49.4435V36.1818C49.4435 35.3248 49.221 34.6572 48.7759 34.179C48.3308 33.696 47.7201 33.4545 46.9435 33.4545C46.4085 33.4545 45.9303 33.5705 45.5089 33.8026C45.0922 34.0346 44.7631 34.3731 44.5217 34.8182C44.2802 35.2633 44.1594 35.803 44.1594 36.4375ZM58.7564 43.2273C57.7053 43.2273 56.7985 42.9953 56.0362 42.5312C55.2786 42.0625 54.6939 41.4091 54.282 40.571C53.8748 39.7282 53.6712 38.7481 53.6712 37.6307C53.6712 36.5133 53.8748 35.5284 54.282 34.6761C54.6939 33.8191 55.2668 33.1515 56.0007 32.6733C56.7393 32.1903 57.6011 31.9489 58.5859 31.9489C59.1541 31.9489 59.7152 32.0436 60.2692 32.233C60.8232 32.4223 61.3274 32.7301 61.782 33.1562C62.2365 33.5777 62.5987 34.1364 62.8686 34.8324C63.1385 35.5284 63.2734 36.3854 63.2734 37.4034V38.1136H54.8643V36.6648H61.5689C61.5689 36.0492 61.4458 35.5 61.1996 35.017C60.9581 34.5341 60.6125 34.1529 60.1626 33.8736C59.7176 33.5942 59.192 33.4545 58.5859 33.4545C57.9183 33.4545 57.3407 33.6203 56.853 33.9517C56.37 34.2784 55.9983 34.7045 55.7379 35.2301C55.4775 35.7557 55.3473 36.3191 55.3473 36.9205V37.8864C55.3473 38.7102 55.4893 39.4086 55.7734 39.9815C56.0623 40.5497 56.4624 40.983 56.9737 41.2812C57.4851 41.5748 58.0793 41.7216 58.7564 41.7216C59.1967 41.7216 59.5945 41.66 59.9496 41.5369C60.3094 41.4091 60.6196 41.2197 60.88 40.9688C61.1404 40.7131 61.3416 40.3958 61.4837 40.017L63.103 40.4716C62.9325 41.0208 62.6461 41.5038 62.2436 41.9205C61.8411 42.3324 61.344 42.6544 60.7521 42.8864C60.1603 43.1136 59.495 43.2273 58.7564 43.2273ZM69.9425 43.2273C69.0334 43.2273 68.2308 42.9976 67.5348 42.5384C66.8388 42.0743 66.2943 41.4209 65.9013 40.5781C65.5083 39.7306 65.3118 38.7292 65.3118 37.5739C65.3118 36.428 65.5083 35.4337 65.9013 34.5909C66.2943 33.7481 66.8411 33.0971 67.5419 32.6378C68.2427 32.1785 69.0523 31.9489 69.9709 31.9489C70.6811 31.9489 71.2422 32.0672 71.6541 32.304C72.0708 32.536 72.388 32.8011 72.6058 33.0994C72.8284 33.393 73.0012 33.6345 73.1243 33.8239H73.2663V28.4545H74.9425V43H73.3232V41.3239H73.1243C73.0012 41.5227 72.826 41.7737 72.5987 42.0767C72.3714 42.375 72.0471 42.6425 71.6257 42.8793C71.2043 43.1113 70.6432 43.2273 69.9425 43.2273ZM70.1697 41.7216C70.8421 41.7216 71.4103 41.5464 71.8743 41.196C72.3383 40.8409 72.6911 40.3509 72.9325 39.7259C73.174 39.0961 73.2947 38.3693 73.2947 37.5455C73.2947 36.7311 73.1764 36.0185 72.9396 35.4077C72.7029 34.7921 72.3525 34.3139 71.8885 33.973C71.4245 33.6274 70.8516 33.4545 70.1697 33.4545C69.4595 33.4545 68.8677 33.6368 68.3942 34.0014C67.9254 34.3613 67.5727 34.8513 67.3359 35.4716C67.1039 36.0871 66.9879 36.7784 66.9879 37.5455C66.9879 38.322 67.1063 39.0275 67.343 39.6619C67.5845 40.2917 67.9396 40.7936 68.4084 41.1676C68.8819 41.5369 69.469 41.7216 70.1697 41.7216ZM88.6143 32.0909V33.5114H82.9609V32.0909H88.6143ZM84.6087 29.4773H86.2848V39.875C86.2848 40.3485 86.3535 40.7036 86.4908 40.9403C86.6328 41.1723 86.8127 41.3286 87.0305 41.4091C87.2531 41.4848 87.4875 41.5227 87.7337 41.5227C87.9183 41.5227 88.0698 41.5133 88.1882 41.4943C88.3066 41.4706 88.4013 41.4517 88.4723 41.4375L88.8132 42.9432C88.6996 42.9858 88.541 43.0284 88.3374 43.071C88.1338 43.1184 87.8757 43.142 87.5632 43.142C87.0897 43.142 86.6257 43.0402 86.1712 42.8366C85.7214 42.633 85.3473 42.3229 85.049 41.9062C84.7554 41.4896 84.6087 40.964 84.6087 40.3295V29.4773ZM95.5923 43.2273C94.5412 43.2273 93.6345 42.9953 92.8722 42.5312C92.1146 42.0625 91.5298 41.4091 91.1179 40.571C90.7107 39.7282 90.5071 38.7481 90.5071 37.6307C90.5071 36.5133 90.7107 35.5284 91.1179 34.6761C91.5298 33.8191 92.1027 33.1515 92.8366 32.6733C93.5753 32.1903 94.437 31.9489 95.4219 31.9489C95.9901 31.9489 96.5511 32.0436 97.1051 32.233C97.6591 32.4223 98.1634 32.7301 98.6179 33.1562C99.0724 33.5777 99.4347 34.1364 99.7045 34.8324C99.9744 35.5284 100.109 36.3854 100.109 37.4034V38.1136H91.7003V36.6648H98.4048C98.4048 36.0492 98.2817 35.5 98.0355 35.017C97.794 34.5341 97.4484 34.1529 96.9986 33.8736C96.5535 33.5942 96.0279 33.4545 95.4219 33.4545C94.7543 33.4545 94.1766 33.6203 93.6889 33.9517C93.206 34.2784 92.8343 34.7045 92.5739 35.2301C92.3134 35.7557 92.1832 36.3191 92.1832 36.9205V37.8864C92.1832 38.7102 92.3253 39.4086 92.6094 39.9815C92.8982 40.5497 93.2983 40.983 93.8097 41.2812C94.321 41.5748 94.9152 41.7216 95.5923 41.7216C96.0327 41.7216 96.4304 41.66 96.7855 41.5369C97.1454 41.4091 97.4555 41.2197 97.7159 40.9688C97.9763 40.7131 98.1776 40.3958 98.3196 40.017L99.9389 40.4716C99.7685 41.0208 99.482 41.5038 99.0795 41.9205C98.6771 42.3324 98.1799 42.6544 97.5881 42.8864C96.9962 43.1136 96.331 43.2273 95.5923 43.2273ZM103.616 32.0909L106.23 36.5511L108.843 32.0909H110.775L107.252 37.5455L110.775 43H108.843L106.23 38.767L103.616 43H101.684L105.15 37.5455L101.684 32.0909H103.616ZM117.911 32.0909V33.5114H112.258V32.0909H117.911ZM113.906 29.4773H115.582V39.875C115.582 40.3485 115.65 40.7036 115.788 40.9403C115.93 41.1723 116.11 41.3286 116.327 41.4091C116.55 41.4848 116.784 41.5227 117.031 41.5227C117.215 41.5227 117.367 41.5133 117.485 41.4943C117.603 41.4706 117.698 41.4517 117.769 41.4375L118.11 42.9432C117.996 42.9858 117.838 43.0284 117.634 43.071C117.431 43.1184 117.173 43.142 116.86 43.142C116.387 43.142 115.923 43.0402 115.468 42.8366C115.018 42.633 114.644 42.3229 114.346 41.9062C114.052 41.4896 113.906 40.964 113.906 40.3295V29.4773ZM122.933 41.0114L122.819 41.7784C122.738 42.3182 122.615 42.8958 122.45 43.5114C122.289 44.1269 122.121 44.7069 121.945 45.2514C121.77 45.7959 121.626 46.2292 121.512 46.5511H120.234C120.295 46.2481 120.376 45.848 120.475 45.3509C120.575 44.8537 120.674 44.2973 120.773 43.6818C120.878 43.071 120.963 42.446 121.029 41.8068L121.114 41.0114H122.933ZM134.873 43.2557C134.182 43.2557 133.555 43.1255 132.991 42.8651C132.428 42.5999 131.98 42.2188 131.649 41.7216C131.317 41.2197 131.152 40.6136 131.152 39.9034C131.152 39.2784 131.275 38.7718 131.521 38.3835C131.767 37.9905 132.096 37.6828 132.508 37.4602C132.92 37.2377 133.375 37.072 133.872 36.9631C134.374 36.8494 134.878 36.7595 135.385 36.6932C136.047 36.608 136.585 36.544 136.997 36.5014C137.413 36.4541 137.717 36.3759 137.906 36.267C138.1 36.1581 138.197 35.9687 138.197 35.6989V35.642C138.197 34.9413 138.005 34.3968 137.622 34.0085C137.243 33.6203 136.668 33.4261 135.896 33.4261C135.096 33.4261 134.468 33.6013 134.014 33.9517C133.559 34.3021 133.24 34.6761 133.055 35.0739L131.464 34.5057C131.748 33.8428 132.127 33.3267 132.6 32.9574C133.079 32.5833 133.6 32.3229 134.163 32.1761C134.731 32.0246 135.29 31.9489 135.839 31.9489C136.19 31.9489 136.592 31.9915 137.047 32.0767C137.506 32.1572 137.949 32.3253 138.375 32.581C138.806 32.8366 139.163 33.2225 139.447 33.7386C139.731 34.2547 139.873 34.946 139.873 35.8125V43H138.197V41.5227H138.112C137.998 41.7595 137.809 42.0128 137.544 42.2827C137.279 42.5526 136.926 42.7822 136.485 42.9716C136.045 43.161 135.508 43.2557 134.873 43.2557ZM135.129 41.75C135.792 41.75 136.35 41.6198 136.805 41.3594C137.264 41.099 137.61 40.7628 137.842 40.3509C138.079 39.9389 138.197 39.5057 138.197 39.0511V37.517C138.126 37.6023 137.97 37.6804 137.728 37.7514C137.492 37.8177 137.217 37.8769 136.904 37.929C136.597 37.9763 136.296 38.0189 136.002 38.0568C135.714 38.09 135.479 38.1184 135.299 38.142C134.864 38.1989 134.457 38.2912 134.078 38.419C133.704 38.5421 133.401 38.7292 133.169 38.9801C132.941 39.2263 132.828 39.5625 132.828 39.9886C132.828 40.571 133.043 41.0114 133.474 41.3097C133.91 41.6032 134.461 41.75 135.129 41.75ZM148.231 43V32.0909H151.164V33.9943H151.278C151.477 33.3172 151.81 32.8059 152.279 32.4602C152.748 32.1098 153.288 31.9347 153.898 31.9347C154.05 31.9347 154.213 31.9441 154.388 31.9631C154.564 31.982 154.718 32.008 154.85 32.0412V34.7259C154.708 34.6832 154.512 34.6454 154.261 34.6122C154.01 34.5791 153.78 34.5625 153.572 34.5625C153.127 34.5625 152.729 34.6596 152.379 34.8537C152.033 35.0431 151.758 35.3082 151.555 35.6491C151.356 35.9901 151.256 36.383 151.256 36.8281V43H148.231ZM159.213 43.206C158.517 43.206 157.896 43.0852 157.352 42.8438C156.807 42.5975 156.377 42.2353 156.059 41.7571C155.747 41.2741 155.591 40.6728 155.591 39.9531C155.591 39.3471 155.702 38.8381 155.924 38.4261C156.147 38.0142 156.45 37.6828 156.833 37.4318C157.217 37.1809 157.653 36.9915 158.14 36.8636C158.633 36.7358 159.149 36.6458 159.689 36.5938C160.323 36.5275 160.834 36.4659 161.223 36.4091C161.611 36.3475 161.893 36.2576 162.068 36.1392C162.243 36.0208 162.331 35.8456 162.331 35.6136V35.571C162.331 35.1212 162.189 34.7732 161.904 34.527C161.625 34.2808 161.227 34.1577 160.711 34.1577C160.167 34.1577 159.734 34.2784 159.412 34.5199C159.09 34.7566 158.877 35.0549 158.772 35.4148L155.974 35.1875C156.116 34.5246 156.395 33.9517 156.812 33.4688C157.229 32.9811 157.766 32.607 158.424 32.3466C159.087 32.0814 159.854 31.9489 160.725 31.9489C161.332 31.9489 161.912 32.0199 162.466 32.1619C163.024 32.304 163.519 32.5241 163.95 32.8224C164.386 33.1207 164.729 33.5043 164.98 33.973C165.231 34.437 165.356 34.9934 165.356 35.642V43H162.487V41.4872H162.402C162.226 41.8281 161.992 42.1288 161.699 42.3892C161.405 42.6449 161.052 42.8461 160.64 42.9929C160.228 43.1349 159.752 43.206 159.213 43.206ZM160.079 41.1179C160.524 41.1179 160.917 41.0303 161.258 40.8551C161.599 40.6752 161.867 40.4337 162.061 40.1307C162.255 39.8277 162.352 39.4844 162.352 39.1009V37.9432C162.257 38.0047 162.127 38.0616 161.961 38.1136C161.8 38.161 161.618 38.206 161.414 38.2486C161.211 38.2865 161.007 38.322 160.804 38.3551C160.6 38.3835 160.415 38.4096 160.25 38.4332C159.895 38.4853 159.584 38.5682 159.319 38.6818C159.054 38.7955 158.848 38.9493 158.701 39.1435C158.555 39.3329 158.481 39.5696 158.481 39.8537C158.481 40.2656 158.63 40.5805 158.929 40.7983C159.232 41.0114 159.615 41.1179 160.079 41.1179ZM172.618 47.3182C171.638 47.3182 170.798 47.1832 170.097 46.9134C169.401 46.6482 168.847 46.286 168.435 45.8267C168.023 45.3674 167.756 44.8513 167.632 44.2784L170.431 43.902C170.516 44.1198 170.651 44.3234 170.836 44.5128C171.02 44.7022 171.264 44.8537 171.567 44.9673C171.875 45.0857 172.249 45.1449 172.689 45.1449C173.347 45.1449 173.89 44.9839 174.316 44.6619C174.747 44.3447 174.962 43.812 174.962 43.0639V41.0682H174.834C174.702 41.3712 174.503 41.6577 174.238 41.9276C173.972 42.1974 173.632 42.4176 173.215 42.5881C172.798 42.7585 172.301 42.8438 171.723 42.8438C170.904 42.8438 170.158 42.6544 169.486 42.2756C168.819 41.892 168.286 41.3073 167.888 40.5213C167.495 39.7306 167.299 38.7315 167.299 37.5241C167.299 36.2884 167.5 35.2562 167.902 34.4276C168.305 33.599 168.84 32.9787 169.507 32.5668C170.18 32.1548 170.916 31.9489 171.716 31.9489C172.327 31.9489 172.838 32.053 173.25 32.2614C173.662 32.465 173.994 32.7206 174.245 33.0284C174.5 33.3314 174.697 33.6297 174.834 33.9233H174.948V32.0909H177.952V43.1065C177.952 44.0346 177.725 44.8111 177.27 45.4361C176.816 46.0611 176.186 46.5298 175.381 46.8423C174.581 47.1596 173.66 47.3182 172.618 47.3182ZM172.682 40.571C173.17 40.571 173.582 40.4503 173.918 40.2088C174.259 39.9626 174.519 39.6122 174.699 39.1577C174.884 38.6984 174.976 38.1491 174.976 37.5099C174.976 36.8707 174.886 36.3168 174.706 35.848C174.526 35.3745 174.266 35.0076 173.925 34.7472C173.584 34.4867 173.17 34.3565 172.682 34.3565C172.185 34.3565 171.766 34.4915 171.425 34.7614C171.084 35.0265 170.826 35.3958 170.651 35.8693C170.476 36.3428 170.388 36.8897 170.388 37.5099C170.388 38.1397 170.476 38.6842 170.651 39.1435C170.831 39.598 171.089 39.9508 171.425 40.2017C171.766 40.4479 172.185 40.571 172.682 40.571ZM13.9659 67.2273C12.9811 67.2273 12.117 66.9929 11.3736 66.5241C10.6349 66.0554 10.0573 65.3996 9.64062 64.5568C9.22869 63.714 9.02273 62.7292 9.02273 61.6023C9.02273 60.4659 9.22869 59.474 9.64062 58.6264C10.0573 57.7789 10.6349 57.1207 11.3736 56.652C12.117 56.1832 12.9811 55.9489 13.9659 55.9489C14.9508 55.9489 15.8125 56.1832 16.5511 56.652C17.2945 57.1207 17.8722 57.7789 18.2841 58.6264C18.7008 59.474 18.9091 60.4659 18.9091 61.6023C18.9091 62.7292 18.7008 63.714 18.2841 64.5568C17.8722 65.3996 17.2945 66.0554 16.5511 66.5241C15.8125 66.9929 14.9508 67.2273 13.9659 67.2273ZM13.9659 65.7216C14.714 65.7216 15.3295 65.5298 15.8125 65.1463C16.2955 64.7628 16.6529 64.2585 16.8849 63.6335C17.117 63.0085 17.233 62.3314 17.233 61.6023C17.233 60.8731 17.117 60.1937 16.8849 59.5639C16.6529 58.9342 16.2955 58.4252 15.8125 58.0369C15.3295 57.6487 14.714 57.4545 13.9659 57.4545C13.2178 57.4545 12.6023 57.6487 12.1193 58.0369C11.6364 58.4252 11.2789 58.9342 11.0469 59.5639C10.8149 60.1937 10.6989 60.8731 10.6989 61.6023C10.6989 62.3314 10.8149 63.0085 11.0469 63.6335C11.2789 64.2585 11.6364 64.7628 12.1193 65.1463C12.6023 65.5298 13.2178 65.7216 13.9659 65.7216ZM23.1438 60.4375V67H21.4677V56.0909H23.087V57.7955H23.229C23.4847 57.2415 23.873 56.7964 24.3938 56.4602C24.9147 56.1193 25.587 55.9489 26.4109 55.9489C27.1495 55.9489 27.7958 56.1004 28.3498 56.4034C28.9038 56.7017 29.3346 57.1562 29.6424 57.767C29.9502 58.3731 30.104 59.1402 30.104 60.0682V67H28.4279V60.1818C28.4279 59.3248 28.2054 58.6572 27.7603 58.179C27.3152 57.696 26.7044 57.4545 25.9279 57.4545C25.3929 57.4545 24.9147 57.5705 24.4933 57.8026C24.0766 58.0346 23.7475 58.3731 23.506 58.8182C23.2646 59.2633 23.1438 59.803 23.1438 60.4375ZM34.843 52.4545V67H33.1669V52.4545H34.843ZM38.9925 71.0909C38.7085 71.0909 38.4551 71.0672 38.2326 71.0199C38.0101 70.9773 37.8562 70.9347 37.771 70.892L38.1971 69.4148C38.6043 69.5189 38.9641 69.5568 39.2766 69.5284C39.5891 69.5 39.8661 69.3603 40.1076 69.1094C40.3538 68.8632 40.5787 68.4631 40.7823 67.9091L41.0948 67.0568L37.0607 56.0909H38.8789L41.8903 64.7841H42.0039L45.0153 56.0909H46.8335L42.2028 68.5909C41.9944 69.1544 41.7364 69.6207 41.4286 69.9901C41.1209 70.3641 40.7634 70.6411 40.3562 70.821C39.9537 71.0009 39.4992 71.0909 38.9925 71.0909ZM59.2447 67.2273C58.1935 67.2273 57.2868 66.9953 56.5245 66.5312C55.7669 66.0625 55.1822 65.4091 54.7702 64.571C54.363 63.7282 54.1594 62.7481 54.1594 61.6307C54.1594 60.5133 54.363 59.5284 54.7702 58.6761C55.1822 57.8191 55.7551 57.1515 56.489 56.6733C57.2276 56.1903 58.0894 55.9489 59.0742 55.9489C59.6424 55.9489 60.2035 56.0436 60.7575 56.233C61.3114 56.4223 61.8157 56.7301 62.2702 57.1562C62.7248 57.5777 63.087 58.1364 63.3569 58.8324C63.6268 59.5284 63.7617 60.3854 63.7617 61.4034V62.1136H55.3526V60.6648H62.0572C62.0572 60.0492 61.9341 59.5 61.6879 59.017C61.4464 58.5341 61.1007 58.1529 60.6509 57.8736C60.2058 57.5942 59.6803 57.4545 59.0742 57.4545C58.4066 57.4545 57.829 57.6203 57.3413 57.9517C56.8583 58.2784 56.4866 58.7045 56.2262 59.2301C55.9658 59.7557 55.8356 60.3191 55.8356 60.9205V61.8864C55.8356 62.7102 55.9776 63.4086 56.2617 63.9815C56.5505 64.5497 56.9506 64.983 57.462 65.2812C57.9734 65.5748 58.5676 65.7216 59.2447 65.7216C59.685 65.7216 60.0827 65.66 60.4379 65.5369C60.7977 65.4091 61.1078 65.2197 61.3683 64.9688C61.6287 64.7131 61.8299 64.3958 61.9719 64.017L63.5913 64.4716C63.4208 65.0208 63.1344 65.5038 62.7319 65.9205C62.3294 66.3324 61.8323 66.6544 61.2404 66.8864C60.6486 67.1136 59.9833 67.2273 59.2447 67.2273ZM67.2685 56.0909L69.8821 60.5511L72.4957 56.0909H74.4276L70.9048 61.5455L74.4276 67H72.4957L69.8821 62.767L67.2685 67H65.3366L68.8026 61.5455L65.3366 56.0909H67.2685ZM76.8192 67V56.0909H78.4954V67H76.8192ZM77.6715 54.2727C77.3448 54.2727 77.0631 54.1615 76.8263 53.9389C76.5943 53.7164 76.4783 53.4489 76.4783 53.1364C76.4783 52.8239 76.5943 52.5563 76.8263 52.3338C77.0631 52.1113 77.3448 52 77.6715 52C77.9982 52 78.2776 52.1113 78.5096 52.3338C78.7463 52.5563 78.8647 52.8239 78.8647 53.1364C78.8647 53.4489 78.7463 53.7164 78.5096 53.9389C78.2776 54.1615 77.9982 54.2727 77.6715 54.2727ZM89.2926 58.5341L87.7869 58.9602C87.6922 58.7093 87.5526 58.4654 87.3679 58.2287C87.188 57.9872 86.9418 57.7884 86.6293 57.6321C86.3168 57.4759 85.9167 57.3977 85.429 57.3977C84.7614 57.3977 84.205 57.5516 83.7599 57.8594C83.3196 58.1624 83.0994 58.5483 83.0994 59.017C83.0994 59.4337 83.2509 59.7628 83.554 60.0043C83.857 60.2457 84.3305 60.447 84.9744 60.608L86.5938 61.0057C87.5691 61.2424 88.2959 61.6046 88.7741 62.0923C89.2524 62.5753 89.4915 63.1979 89.4915 63.9602C89.4915 64.5852 89.3116 65.1439 88.9517 65.6364C88.5966 66.1288 88.0994 66.517 87.4602 66.8011C86.821 67.0852 86.0777 67.2273 85.2301 67.2273C84.1174 67.2273 83.1965 66.9858 82.4673 66.5028C81.7382 66.0199 81.2765 65.3144 81.0824 64.3864L82.6733 63.9886C82.8248 64.5758 83.1113 65.0161 83.5327 65.3097C83.9588 65.6032 84.5152 65.75 85.2017 65.75C85.983 65.75 86.6032 65.5843 87.0625 65.2528C87.5265 64.9167 87.7585 64.5142 87.7585 64.0455C87.7585 63.6667 87.6259 63.3494 87.3608 63.0938C87.0956 62.8333 86.6884 62.6392 86.1392 62.5114L84.321 62.0852C83.322 61.8485 82.5881 61.4815 82.1193 60.9844C81.6553 60.4825 81.4233 59.8551 81.4233 59.1023C81.4233 58.4867 81.5961 57.9422 81.9418 57.4688C82.2921 56.9953 82.768 56.6236 83.3693 56.3537C83.9754 56.0838 84.6619 55.9489 85.429 55.9489C86.5085 55.9489 87.3561 56.1856 87.9716 56.6591C88.5919 57.1326 89.0322 57.7576 89.2926 58.5341ZM96.7589 56.0909V57.5114H91.1055V56.0909H96.7589ZM92.7532 53.4773H94.4293V63.875C94.4293 64.3485 94.498 64.7036 94.6353 64.9403C94.7773 65.1723 94.9573 65.3286 95.1751 65.4091C95.3976 65.4848 95.632 65.5227 95.8782 65.5227C96.0629 65.5227 96.2144 65.5133 96.3327 65.4943C96.4511 65.4706 96.5458 65.4517 96.6168 65.4375L96.9577 66.9432C96.8441 66.9858 96.6855 67.0284 96.4819 67.071C96.2783 67.1184 96.0202 67.142 95.7077 67.142C95.2343 67.142 94.7702 67.0402 94.3157 66.8366C93.8659 66.633 93.4918 66.3229 93.1935 65.9062C92.9 65.4896 92.7532 64.964 92.7532 64.3295V53.4773ZM109.337 67.2273C108.352 67.2273 107.488 66.9929 106.745 66.5241C106.006 66.0554 105.428 65.3996 105.012 64.5568C104.6 63.714 104.394 62.7292 104.394 61.6023C104.394 60.4659 104.6 59.474 105.012 58.6264C105.428 57.7789 106.006 57.1207 106.745 56.652C107.488 56.1832 108.352 55.9489 109.337 55.9489C110.322 55.9489 111.184 56.1832 111.922 56.652C112.666 57.1207 113.243 57.7789 113.655 58.6264C114.072 59.474 114.28 60.4659 114.28 61.6023C114.28 62.7292 114.072 63.714 113.655 64.5568C113.243 65.3996 112.666 66.0554 111.922 66.5241C111.184 66.9929 110.322 67.2273 109.337 67.2273ZM109.337 65.7216C110.085 65.7216 110.701 65.5298 111.184 65.1463C111.667 64.7628 112.024 64.2585 112.256 63.6335C112.488 63.0085 112.604 62.3314 112.604 61.6023C112.604 60.8731 112.488 60.1937 112.256 59.5639C112.024 58.9342 111.667 58.4252 111.184 58.0369C110.701 57.6487 110.085 57.4545 109.337 57.4545C108.589 57.4545 107.973 57.6487 107.49 58.0369C107.007 58.4252 106.65 58.9342 106.418 59.5639C106.186 60.1937 106.07 60.8731 106.07 61.6023C106.07 62.3314 106.186 63.0085 106.418 63.6335C106.65 64.2585 107.007 64.7628 107.49 65.1463C107.973 65.5298 108.589 65.7216 109.337 65.7216ZM118.515 60.4375V67H116.839V56.0909H118.458V57.7955H118.6C118.856 57.2415 119.244 56.7964 119.765 56.4602C120.286 56.1193 120.958 55.9489 121.782 55.9489C122.521 55.9489 123.167 56.1004 123.721 56.4034C124.275 56.7017 124.706 57.1562 125.013 57.767C125.321 58.3731 125.475 59.1402 125.475 60.0682V67H123.799V60.1818C123.799 59.3248 123.576 58.6572 123.131 58.179C122.686 57.696 122.076 57.4545 121.299 57.4545C120.764 57.4545 120.286 57.5705 119.864 57.8026C119.448 58.0346 119.119 58.3731 118.877 58.8182C118.636 59.2633 118.515 59.803 118.515 60.4375ZM138.907 56.0909V57.5114H133.254V56.0909H138.907ZM134.902 53.4773H136.578V63.875C136.578 64.3485 136.646 64.7036 136.784 64.9403C136.926 65.1723 137.106 65.3286 137.324 65.4091C137.546 65.4848 137.78 65.5227 138.027 65.5227C138.211 65.5227 138.363 65.5133 138.481 65.4943C138.6 65.4706 138.694 65.4517 138.765 65.4375L139.106 66.9432C138.993 66.9858 138.834 67.0284 138.63 67.071C138.427 67.1184 138.169 67.142 137.856 67.142C137.383 67.142 136.919 67.0402 136.464 66.8366C136.014 66.633 135.64 66.3229 135.342 65.9062C135.048 65.4896 134.902 64.964 134.902 64.3295V53.4773ZM143.339 60.4375V67H141.663V52.4545H143.339V57.7955H143.481C143.737 57.232 144.12 56.7846 144.632 56.4531C145.148 56.117 145.834 55.9489 146.691 55.9489C147.435 55.9489 148.086 56.098 148.645 56.3963C149.203 56.6899 149.636 57.142 149.944 57.7528C150.257 58.3589 150.413 59.1307 150.413 60.0682V67H148.737V60.1818C148.737 59.3153 148.512 58.6454 148.062 58.1719C147.617 57.6937 146.999 57.4545 146.208 57.4545C145.659 57.4545 145.167 57.5705 144.731 57.8026C144.3 58.0346 143.959 58.3731 143.708 58.8182C143.462 59.2633 143.339 59.803 143.339 60.4375ZM158.053 67.2273C157.002 67.2273 156.095 66.9953 155.333 66.5312C154.576 66.0625 153.991 65.4091 153.579 64.571C153.172 63.7282 152.968 62.7481 152.968 61.6307C152.968 60.5133 153.172 59.5284 153.579 58.6761C153.991 57.8191 154.564 57.1515 155.298 56.6733C156.036 56.1903 156.898 55.9489 157.883 55.9489C158.451 55.9489 159.012 56.0436 159.566 56.233C160.12 56.4223 160.624 56.7301 161.079 57.1562C161.533 57.5777 161.896 58.1364 162.165 58.8324C162.435 59.5284 162.57 60.3854 162.57 61.4034V62.1136H154.161V60.6648H160.866C160.866 60.0492 160.743 59.5 160.496 59.017C160.255 58.5341 159.909 58.1529 159.46 57.8736C159.014 57.5942 158.489 57.4545 157.883 57.4545C157.215 57.4545 156.638 57.6203 156.15 57.9517C155.667 58.2784 155.295 58.7045 155.035 59.2301C154.774 59.7557 154.644 60.3191 154.644 60.9205V61.8864C154.644 62.7102 154.786 63.4086 155.07 63.9815C155.359 64.5497 155.759 64.983 156.271 65.2812C156.782 65.5748 157.376 65.7216 158.053 65.7216C158.494 65.7216 158.891 65.66 159.246 65.5369C159.606 65.4091 159.916 65.2197 160.177 64.9688C160.437 64.7131 160.638 64.3958 160.781 64.017L162.4 64.4716C162.229 65.0208 161.943 65.5038 161.54 65.9205C161.138 66.3324 160.641 66.6544 160.049 66.8864C159.457 67.1136 158.792 67.2273 158.053 67.2273ZM9.53409 91V80.0909H11.1534V81.7386H11.267C11.4659 81.1989 11.8258 80.7609 12.3466 80.4247C12.8674 80.0885 13.4545 79.9205 14.108 79.9205C14.2311 79.9205 14.3849 79.9228 14.5696 79.9276C14.7543 79.9323 14.8939 79.9394 14.9886 79.9489V81.6534C14.9318 81.6392 14.8016 81.6179 14.598 81.5895C14.3991 81.5563 14.1884 81.5398 13.9659 81.5398C13.4356 81.5398 12.9621 81.651 12.5455 81.8736C12.1335 82.0914 11.8068 82.3944 11.5653 82.7827C11.3286 83.1662 11.2102 83.6042 11.2102 84.0966V91H9.53409ZM16.9755 91V80.0909H18.6516V91H16.9755ZM17.8278 78.2727C17.5011 78.2727 17.2193 78.1615 16.9826 77.9389C16.7506 77.7164 16.6346 77.4489 16.6346 77.1364C16.6346 76.8239 16.7506 76.5563 16.9826 76.3338C17.2193 76.1113 17.5011 76 17.8278 76C18.1545 76 18.4338 76.1113 18.6658 76.3338C18.9026 76.5563 19.021 76.8239 19.021 77.1364C19.021 77.4489 18.9026 77.7164 18.6658 77.9389C18.4338 78.1615 18.1545 78.2727 17.8278 78.2727ZM26.125 95.3182C25.3153 95.3182 24.6193 95.214 24.0369 95.0057C23.4545 94.8021 22.9692 94.5322 22.581 94.196C22.1974 93.8646 21.892 93.5095 21.6648 93.1307L23 92.1932C23.1515 92.392 23.3433 92.6193 23.5753 92.875C23.8073 93.1354 24.1245 93.3603 24.527 93.5497C24.9342 93.7438 25.4669 93.8409 26.125 93.8409C27.0057 93.8409 27.7325 93.6278 28.3054 93.2017C28.8783 92.7756 29.1648 92.108 29.1648 91.1989V88.983H29.0227C28.8996 89.1818 28.7244 89.428 28.4972 89.7216C28.2746 90.0104 27.9527 90.2685 27.5312 90.4957C27.1146 90.7183 26.5511 90.8295 25.8409 90.8295C24.9602 90.8295 24.1695 90.6212 23.4688 90.2045C22.7727 89.7879 22.2211 89.1818 21.8139 88.3864C21.4115 87.5909 21.2102 86.625 21.2102 85.4886C21.2102 84.3712 21.4067 83.3982 21.7997 82.5696C22.1927 81.7363 22.7396 81.0923 23.4403 80.6378C24.1411 80.1785 24.9508 79.9489 25.8693 79.9489C26.5795 79.9489 27.143 80.0672 27.5597 80.304C27.9811 80.536 28.303 80.8011 28.5256 81.0994C28.7528 81.393 28.928 81.6345 29.0511 81.8239H29.2216V80.0909H30.8409V91.3125C30.8409 92.25 30.6278 93.0123 30.2017 93.5994C29.7803 94.1913 29.2121 94.6245 28.4972 94.8991C27.7869 95.1785 26.9962 95.3182 26.125 95.3182ZM26.0682 89.3239C26.7405 89.3239 27.3087 89.17 27.7727 88.8622C28.2367 88.5545 28.5895 88.1117 28.831 87.5341C29.0724 86.9564 29.1932 86.2652 29.1932 85.4602C29.1932 84.6742 29.0748 83.9806 28.8381 83.3793C28.6013 82.7779 28.2509 82.3068 27.7869 81.9659C27.3229 81.625 26.75 81.4545 26.0682 81.4545C25.358 81.4545 24.7661 81.6345 24.2926 81.9943C23.8239 82.3542 23.4711 82.8371 23.2344 83.4432C23.0024 84.0492 22.8864 84.7216 22.8864 85.4602C22.8864 86.2178 23.0047 86.8878 23.2415 87.4702C23.483 88.0478 23.8381 88.5024 24.3068 88.8338C24.7803 89.1605 25.3674 89.3239 26.0682 89.3239ZM35.5852 84.4375V91H33.9091V76.4545H35.5852V81.7955H35.7273C35.983 81.232 36.3665 80.7846 36.8778 80.4531C37.3939 80.117 38.0805 79.9489 38.9375 79.9489C39.6809 79.9489 40.3319 80.098 40.8906 80.3963C41.4493 80.6899 41.8826 81.142 42.1903 81.7528C42.5028 82.3589 42.6591 83.1307 42.6591 84.0682V91H40.983V84.1818C40.983 83.3153 40.758 82.6454 40.3082 82.1719C39.8632 81.6937 39.2453 81.4545 38.4545 81.4545C37.9053 81.4545 37.4129 81.5705 36.9773 81.8026C36.5464 82.0346 36.2055 82.3731 35.9545 82.8182C35.7083 83.2633 35.5852 83.803 35.5852 84.4375ZM50.4698 80.0909V81.5114H44.8164V80.0909H50.4698ZM46.4641 77.4773H48.1403V87.875C48.1403 88.3485 48.2089 88.7036 48.3462 88.9403C48.4883 89.1723 48.6682 89.3286 48.886 89.4091C49.1085 89.4848 49.3429 89.5227 49.5891 89.5227C49.7738 89.5227 49.9253 89.5133 50.0437 89.4943C50.1621 89.4706 50.2567 89.4517 50.3278 89.4375L50.6687 90.9432C50.555 90.9858 50.3964 91.0284 50.1928 91.071C49.9892 91.1184 49.7312 91.142 49.4187 91.142C48.9452 91.142 48.4812 91.0402 48.0266 90.8366C47.5768 90.633 47.2028 90.3229 46.9045 89.9062C46.6109 89.4896 46.4641 88.964 46.4641 88.3295V77.4773ZM54.2127 91.1136C53.8623 91.1136 53.5617 90.9882 53.3107 90.7372C53.0598 90.4863 52.9343 90.1856 52.9343 89.8352C52.9343 89.4848 53.0598 89.1842 53.3107 88.9332C53.5617 88.6823 53.8623 88.5568 54.2127 88.5568C54.5631 88.5568 54.8638 88.6823 55.1147 88.9332C55.3656 89.1842 55.4911 89.4848 55.4911 89.8352C55.4911 90.0672 55.4319 90.2803 55.3136 90.4744C55.1999 90.6686 55.046 90.8248 54.8519 90.9432C54.6625 91.0568 54.4495 91.1136 54.2127 91.1136ZM63.5558 78.017V76.4545H74.4648V78.017H69.891V91H68.1296V78.017H63.5558ZM78.6321 84.4375V91H76.956V76.4545H78.6321V81.7955H78.7741C79.0298 81.232 79.4134 80.7846 79.9247 80.4531C80.4408 80.117 81.1274 79.9489 81.9844 79.9489C82.7277 79.9489 83.3788 80.098 83.9375 80.3963C84.4962 80.6899 84.9295 81.142 85.2372 81.7528C85.5497 82.3589 85.706 83.1307 85.706 84.0682V91H84.0298V84.1818C84.0298 83.3153 83.8049 82.6454 83.3551 82.1719C82.91 81.6937 82.2921 81.4545 81.5014 81.4545C80.9522 81.4545 80.4598 81.5705 80.0241 81.8026C79.5933 82.0346 79.2524 82.3731 79.0014 82.8182C78.7552 83.2633 78.6321 83.803 78.6321 84.4375ZM88.7724 91V80.0909H90.4485V91H88.7724ZM89.6246 78.2727C89.2979 78.2727 89.0162 78.1615 88.7795 77.9389C88.5475 77.7164 88.4315 77.4489 88.4315 77.1364C88.4315 76.8239 88.5475 76.5563 88.7795 76.3338C89.0162 76.1113 89.2979 76 89.6246 76C89.9513 76 90.2307 76.1113 90.4627 76.3338C90.6995 76.5563 90.8178 76.8239 90.8178 77.1364C90.8178 77.4489 90.6995 77.7164 90.4627 77.9389C90.2307 78.1615 89.9513 78.2727 89.6246 78.2727ZM101.246 82.5341L99.7401 82.9602C99.6454 82.7093 99.5057 82.4654 99.321 82.2287C99.1411 81.9872 98.8949 81.7884 98.5824 81.6321C98.2699 81.4759 97.8698 81.3977 97.3821 81.3977C96.7145 81.3977 96.1581 81.5516 95.7131 81.8594C95.2727 82.1624 95.0526 82.5483 95.0526 83.017C95.0526 83.4337 95.2041 83.7628 95.5071 84.0043C95.8101 84.2457 96.2836 84.447 96.9276 84.608L98.5469 85.0057C99.5223 85.2424 100.249 85.6046 100.727 86.0923C101.205 86.5753 101.445 87.1979 101.445 87.9602C101.445 88.5852 101.265 89.1439 100.905 89.6364C100.55 90.1288 100.053 90.517 99.4134 90.8011C98.7741 91.0852 98.0308 91.2273 97.1832 91.2273C96.0705 91.2273 95.1496 90.9858 94.4205 90.5028C93.6913 90.0199 93.2296 89.3144 93.0355 88.3864L94.6264 87.9886C94.7779 88.5758 95.0644 89.0161 95.4858 89.3097C95.9119 89.6032 96.4683 89.75 97.1548 89.75C97.9361 89.75 98.5563 89.5843 99.0156 89.2528C99.4796 88.9167 99.7116 88.5142 99.7116 88.0455C99.7116 87.6667 99.5791 87.3494 99.3139 87.0938C99.0488 86.8333 98.6416 86.6392 98.0923 86.5114L96.2741 86.0852C95.2751 85.8485 94.5412 85.4815 94.0724 84.9844C93.6084 84.4825 93.3764 83.8551 93.3764 83.1023C93.3764 82.4867 93.5492 81.9422 93.8949 81.4688C94.2453 80.9953 94.7211 80.6236 95.3224 80.3537C95.9285 80.0838 96.6151 79.9489 97.3821 79.9489C98.4616 79.9489 99.3092 80.1856 99.9247 80.6591C100.545 81.1326 100.985 81.7576 101.246 82.5341ZM109.593 91V80.0909H111.212V81.7955H111.354C111.581 81.2131 111.948 80.7609 112.455 80.4389C112.962 80.1122 113.57 79.9489 114.28 79.9489C115 79.9489 115.599 80.1122 116.077 80.4389C116.56 80.7609 116.936 81.2131 117.206 81.7955H117.32C117.599 81.232 118.018 80.7846 118.577 80.4531C119.136 80.117 119.806 79.9489 120.587 79.9489C121.562 79.9489 122.36 80.2543 122.98 80.8651C123.601 81.4711 123.911 82.4157 123.911 83.6989V91H122.235V83.6989C122.235 82.8939 122.015 82.3187 121.574 81.973C121.134 81.6274 120.615 81.4545 120.019 81.4545C119.252 81.4545 118.658 81.6866 118.236 82.1506C117.815 82.6098 117.604 83.1922 117.604 83.8977V91H115.9V83.5284C115.9 82.9081 115.698 82.4086 115.296 82.0298C114.893 81.6463 114.375 81.4545 113.74 81.4545C113.305 81.4545 112.898 81.5705 112.519 81.8026C112.145 82.0346 111.842 82.3565 111.61 82.7685C111.382 83.1757 111.269 83.6468 111.269 84.1818V91H109.593ZM130.186 91.2557C129.494 91.2557 128.867 91.1255 128.304 90.8651C127.74 90.5999 127.293 90.2188 126.961 89.7216C126.63 89.2197 126.464 88.6136 126.464 87.9034C126.464 87.2784 126.587 86.7718 126.833 86.3835C127.08 85.9905 127.409 85.6828 127.821 85.4602C128.233 85.2377 128.687 85.072 129.184 84.9631C129.686 84.8494 130.19 84.7595 130.697 84.6932C131.36 84.608 131.897 84.544 132.309 84.5014C132.726 84.4541 133.029 84.3759 133.218 84.267C133.413 84.1581 133.51 83.9687 133.51 83.6989V83.642C133.51 82.9413 133.318 82.3968 132.934 82.0085C132.556 81.6203 131.98 81.4261 131.208 81.4261C130.408 81.4261 129.781 81.6013 129.326 81.9517C128.872 82.3021 128.552 82.6761 128.368 83.0739L126.777 82.5057C127.061 81.8428 127.44 81.3267 127.913 80.9574C128.391 80.5833 128.912 80.3229 129.475 80.1761C130.044 80.0246 130.602 79.9489 131.152 79.9489C131.502 79.9489 131.904 79.9915 132.359 80.0767C132.818 80.1572 133.261 80.3253 133.687 80.581C134.118 80.8366 134.475 81.2225 134.76 81.7386C135.044 82.2547 135.186 82.946 135.186 83.8125V91H133.51V89.5227H133.424C133.311 89.7595 133.121 90.0128 132.856 90.2827C132.591 90.5526 132.238 90.7822 131.798 90.9716C131.358 91.161 130.82 91.2557 130.186 91.2557ZM130.441 89.75C131.104 89.75 131.663 89.6198 132.118 89.3594C132.577 89.099 132.922 88.7628 133.154 88.3509C133.391 87.9389 133.51 87.5057 133.51 87.0511V85.517C133.439 85.6023 133.282 85.6804 133.041 85.7514C132.804 85.8177 132.529 85.8769 132.217 85.929C131.909 85.9763 131.609 86.0189 131.315 86.0568C131.026 86.09 130.792 86.1184 130.612 86.142C130.176 86.1989 129.769 86.2912 129.39 86.419C129.016 86.5421 128.713 86.7292 128.481 86.9801C128.254 87.2263 128.14 87.5625 128.14 87.9886C128.14 88.571 128.356 89.0114 128.787 89.3097C129.222 89.6032 129.774 89.75 130.441 89.75ZM139.808 87.0227L139.779 84.9489H140.12L144.893 80.0909H146.967L141.881 85.233H141.739L139.808 87.0227ZM138.245 91V76.4545H139.921V91H138.245ZM145.177 91L140.915 85.6023L142.109 84.4375L147.308 91H145.177ZM153.249 91.2273C152.197 91.2273 151.291 90.9953 150.528 90.5312C149.771 90.0625 149.186 89.4091 148.774 88.571C148.367 87.7282 148.163 86.7481 148.163 85.6307C148.163 84.5133 148.367 83.5284 148.774 82.6761C149.186 81.8191 149.759 81.1515 150.493 80.6733C151.232 80.1903 152.093 79.9489 153.078 79.9489C153.646 79.9489 154.207 80.0436 154.761 80.233C155.315 80.4223 155.82 80.7301 156.274 81.1562C156.729 81.5777 157.091 82.1364 157.361 82.8324C157.631 83.5284 157.766 84.3854 157.766 85.4034V86.1136H149.357V84.6648H156.061C156.061 84.0492 155.938 83.5 155.692 83.017C155.45 82.5341 155.105 82.1529 154.655 81.8736C154.21 81.5942 153.684 81.4545 153.078 81.4545C152.411 81.4545 151.833 81.6203 151.345 81.9517C150.862 82.2784 150.491 82.7045 150.23 83.2301C149.97 83.7557 149.839 84.3191 149.839 84.9205V85.8864C149.839 86.7102 149.982 87.4086 150.266 87.9815C150.554 88.5497 150.955 88.983 151.466 89.2812C151.977 89.5748 152.571 89.7216 153.249 89.7216C153.689 89.7216 154.087 89.66 154.442 89.5369C154.802 89.4091 155.112 89.2197 155.372 88.9688C155.633 88.7131 155.834 88.3958 155.976 88.017L157.595 88.4716C157.425 89.0208 157.138 89.5038 156.736 89.9205C156.333 90.3324 155.836 90.6544 155.244 90.8864C154.652 91.1136 153.987 91.2273 153.249 91.2273ZM168.043 82.5341L166.537 82.9602C166.442 82.7093 166.303 82.4654 166.118 82.2287C165.938 81.9872 165.692 81.7884 165.379 81.6321C165.067 81.4759 164.667 81.3977 164.179 81.3977C163.511 81.3977 162.955 81.5516 162.51 81.8594C162.07 82.1624 161.849 82.5483 161.849 83.017C161.849 83.4337 162.001 83.7628 162.304 84.0043C162.607 84.2457 163.08 84.447 163.724 84.608L165.344 85.0057C166.319 85.2424 167.046 85.6046 167.524 86.0923C168.002 86.5753 168.241 87.1979 168.241 87.9602C168.241 88.5852 168.062 89.1439 167.702 89.6364C167.347 90.1288 166.849 90.517 166.21 90.8011C165.571 91.0852 164.828 91.2273 163.98 91.2273C162.867 91.2273 161.946 90.9858 161.217 90.5028C160.488 90.0199 160.027 89.3144 159.832 88.3864L161.423 87.9886C161.575 88.5758 161.861 89.0161 162.283 89.3097C162.709 89.6032 163.265 89.75 163.952 89.75C164.733 89.75 165.353 89.5843 165.812 89.2528C166.277 88.9167 166.509 88.5142 166.509 88.0455C166.509 87.6667 166.376 87.3494 166.111 87.0938C165.846 86.8333 165.438 86.6392 164.889 86.5114L163.071 86.0852C162.072 85.8485 161.338 85.4815 160.869 84.9844C160.405 84.4825 160.173 83.8551 160.173 83.1023C160.173 82.4867 160.346 81.9422 160.692 81.4688C161.042 80.9953 161.518 80.6236 162.119 80.3537C162.725 80.0838 163.412 79.9489 164.179 79.9489C165.259 79.9489 166.106 80.1856 166.722 80.6591C167.342 81.1326 167.782 81.7576 168.043 82.5341ZM14.2784 104.091V105.511H8.625V104.091H14.2784ZM10.2727 101.477H11.9489V111.875C11.9489 112.348 12.0175 112.704 12.1548 112.94C12.2969 113.172 12.4768 113.329 12.6946 113.409C12.9171 113.485 13.1515 113.523 13.3977 113.523C13.5824 113.523 13.7339 113.513 13.8523 113.494C13.9706 113.471 14.0653 113.452 14.1364 113.438L14.4773 114.943C14.3636 114.986 14.205 115.028 14.0014 115.071C13.7978 115.118 13.5398 115.142 13.2273 115.142C12.7538 115.142 12.2898 115.04 11.8352 114.837C11.3854 114.633 11.0114 114.323 10.7131 113.906C10.4195 113.49 10.2727 112.964 10.2727 112.33V101.477ZM18.7102 108.438V115H17.0341V100.455H18.7102V105.795H18.8523C19.108 105.232 19.4915 104.785 20.0028 104.453C20.5189 104.117 21.2055 103.949 22.0625 103.949C22.8059 103.949 23.4569 104.098 24.0156 104.396C24.5743 104.69 25.0076 105.142 25.3153 105.753C25.6278 106.359 25.7841 107.131 25.7841 108.068V115H24.108V108.182C24.108 107.315 23.883 106.645 23.4332 106.172C22.9882 105.694 22.3703 105.455 21.5795 105.455C21.0303 105.455 20.5379 105.571 20.1023 105.803C19.6714 106.035 19.3305 106.373 19.0795 106.818C18.8333 107.263 18.7102 107.803 18.7102 108.438ZM33.4244 115.227C32.3732 115.227 31.4665 114.995 30.7042 114.531C29.9466 114.062 29.3619 113.409 28.9499 112.571C28.5427 111.728 28.3391 110.748 28.3391 109.631C28.3391 108.513 28.5427 107.528 28.9499 106.676C29.3619 105.819 29.9348 105.152 30.6687 104.673C31.4073 104.19 32.2691 103.949 33.2539 103.949C33.8221 103.949 34.3832 104.044 34.9371 104.233C35.4911 104.422 35.9954 104.73 36.4499 105.156C36.9045 105.578 37.2667 106.136 37.5366 106.832C37.8065 107.528 37.9414 108.385 37.9414 109.403V110.114H29.5323V108.665H36.2369C36.2369 108.049 36.1138 107.5 35.8675 107.017C35.6261 106.534 35.2804 106.153 34.8306 105.874C34.3855 105.594 33.86 105.455 33.2539 105.455C32.5863 105.455 32.0086 105.62 31.521 105.952C31.038 106.278 30.6663 106.705 30.4059 107.23C30.1455 107.756 30.0153 108.319 30.0153 108.92V109.886C30.0153 110.71 30.1573 111.409 30.4414 111.982C30.7302 112.55 31.1303 112.983 31.6417 113.281C32.1531 113.575 32.7473 113.722 33.4244 113.722C33.8647 113.722 34.2624 113.66 34.6175 113.537C34.9774 113.409 35.2875 113.22 35.5479 112.969C35.8084 112.713 36.0096 112.396 36.1516 112.017L37.771 112.472C37.6005 113.021 37.314 113.504 36.9116 113.92C36.5091 114.332 36.012 114.654 35.4201 114.886C34.8282 115.114 34.163 115.227 33.4244 115.227ZM48.5877 115L45.2638 104.091H47.0252L49.3832 112.443H49.4968L51.8263 104.091H53.6161L55.9173 112.415H56.0309L58.3888 104.091H60.1502L56.8263 115H55.1786L52.7923 106.619H52.6218L50.2354 115H48.5877ZM64.0423 108.438V115H62.3661V100.455H64.0423V105.795H64.1843C64.44 105.232 64.8235 104.785 65.3349 104.453C65.851 104.117 66.5375 103.949 67.3945 103.949C68.1379 103.949 68.7889 104.098 69.3477 104.396C69.9064 104.69 70.3396 105.142 70.6474 105.753C70.9599 106.359 71.1161 107.131 71.1161 108.068V115H69.44V108.182C69.44 107.315 69.2151 106.645 68.7653 106.172C68.3202 105.694 67.7023 105.455 66.9116 105.455C66.3623 105.455 65.8699 105.571 65.4343 105.803C65.0034 106.035 64.6625 106.373 64.4116 106.818C64.1654 107.263 64.0423 107.803 64.0423 108.438ZM78.6143 115.227C77.6295 115.227 76.7654 114.993 76.022 114.524C75.2834 114.055 74.7057 113.4 74.2891 112.557C73.8771 111.714 73.6712 110.729 73.6712 109.602C73.6712 108.466 73.8771 107.474 74.2891 106.626C74.7057 105.779 75.2834 105.121 76.022 104.652C76.7654 104.183 77.6295 103.949 78.6143 103.949C79.5992 103.949 80.4609 104.183 81.1996 104.652C81.9429 105.121 82.5206 105.779 82.9325 106.626C83.3492 107.474 83.5575 108.466 83.5575 109.602C83.5575 110.729 83.3492 111.714 82.9325 112.557C82.5206 113.4 81.9429 114.055 81.1996 114.524C80.4609 114.993 79.5992 115.227 78.6143 115.227ZM78.6143 113.722C79.3625 113.722 79.978 113.53 80.4609 113.146C80.9439 112.763 81.3014 112.259 81.5334 111.634C81.7654 111.009 81.8814 110.331 81.8814 109.602C81.8814 108.873 81.7654 108.194 81.5334 107.564C81.3014 106.934 80.9439 106.425 80.4609 106.037C79.978 105.649 79.3625 105.455 78.6143 105.455C77.8662 105.455 77.2507 105.649 76.7678 106.037C76.2848 106.425 75.9273 106.934 75.6953 107.564C75.4633 108.194 75.3473 108.873 75.3473 109.602C75.3473 110.331 75.4633 111.009 75.6953 111.634C75.9273 112.259 76.2848 112.763 76.7678 113.146C77.2507 113.53 77.8662 113.722 78.6143 113.722ZM87.7923 100.455V115H86.1161V100.455H87.7923ZM95.4361 115.227C94.3849 115.227 93.4782 114.995 92.7159 114.531C91.9583 114.062 91.3736 113.409 90.9616 112.571C90.5545 111.728 90.3509 110.748 90.3509 109.631C90.3509 108.513 90.5545 107.528 90.9616 106.676C91.3736 105.819 91.9465 105.152 92.6804 104.673C93.419 104.19 94.2808 103.949 95.2656 103.949C95.8338 103.949 96.3949 104.044 96.9489 104.233C97.5028 104.422 98.0071 104.73 98.4616 105.156C98.9162 105.578 99.2784 106.136 99.5483 106.832C99.8182 107.528 99.9531 108.385 99.9531 109.403V110.114H91.544V108.665H98.2486C98.2486 108.049 98.1255 107.5 97.8793 107.017C97.6378 106.534 97.2921 106.153 96.8423 105.874C96.3973 105.594 95.8717 105.455 95.2656 105.455C94.598 105.455 94.0204 105.62 93.5327 105.952C93.0497 106.278 92.678 106.705 92.4176 107.23C92.1572 107.756 92.027 108.319 92.027 108.92V109.886C92.027 110.71 92.169 111.409 92.4531 111.982C92.742 112.55 93.142 112.983 93.6534 113.281C94.1648 113.575 94.759 113.722 95.4361 113.722C95.8764 113.722 96.2741 113.66 96.6293 113.537C96.9891 113.409 97.2992 113.22 97.5597 112.969C97.8201 112.713 98.0213 112.396 98.1634 112.017L99.7827 112.472C99.6122 113.021 99.3258 113.504 98.9233 113.92C98.5208 114.332 98.0237 114.654 97.4318 114.886C96.84 115.114 96.1747 115.227 95.4361 115.227ZM109.804 100.455V115H108.128V100.455H109.804ZM116.084 115.256C115.393 115.256 114.766 115.125 114.202 114.865C113.639 114.6 113.191 114.219 112.86 113.722C112.528 113.22 112.363 112.614 112.363 111.903C112.363 111.278 112.486 110.772 112.732 110.384C112.978 109.991 113.307 109.683 113.719 109.46C114.131 109.238 114.586 109.072 115.083 108.963C115.585 108.849 116.089 108.759 116.596 108.693C117.258 108.608 117.796 108.544 118.208 108.501C118.624 108.454 118.927 108.376 119.117 108.267C119.311 108.158 119.408 107.969 119.408 107.699V107.642C119.408 106.941 119.216 106.397 118.833 106.009C118.454 105.62 117.879 105.426 117.107 105.426C116.307 105.426 115.679 105.601 115.225 105.952C114.77 106.302 114.451 106.676 114.266 107.074L112.675 106.506C112.959 105.843 113.338 105.327 113.811 104.957C114.29 104.583 114.81 104.323 115.374 104.176C115.942 104.025 116.501 103.949 117.05 103.949C117.4 103.949 117.803 103.991 118.257 104.077C118.717 104.157 119.159 104.325 119.586 104.581C120.016 104.837 120.374 105.223 120.658 105.739C120.942 106.255 121.084 106.946 121.084 107.812V115H119.408V113.523H119.323C119.209 113.759 119.02 114.013 118.755 114.283C118.489 114.553 118.137 114.782 117.696 114.972C117.256 115.161 116.719 115.256 116.084 115.256ZM116.34 113.75C117.003 113.75 117.561 113.62 118.016 113.359C118.475 113.099 118.821 112.763 119.053 112.351C119.29 111.939 119.408 111.506 119.408 111.051V109.517C119.337 109.602 119.181 109.68 118.939 109.751C118.703 109.818 118.428 109.877 118.115 109.929C117.808 109.976 117.507 110.019 117.213 110.057C116.925 110.09 116.69 110.118 116.51 110.142C116.075 110.199 115.667 110.291 115.289 110.419C114.915 110.542 114.612 110.729 114.38 110.98C114.152 111.226 114.039 111.562 114.039 111.989C114.039 112.571 114.254 113.011 114.685 113.31C115.121 113.603 115.672 113.75 116.34 113.75ZM124.832 119.091C124.548 119.091 124.295 119.067 124.072 119.02C123.85 118.977 123.696 118.935 123.611 118.892L124.037 117.415C124.444 117.519 124.804 117.557 125.116 117.528C125.429 117.5 125.706 117.36 125.947 117.109C126.194 116.863 126.419 116.463 126.622 115.909L126.935 115.057L122.901 104.091H124.719L127.73 112.784H127.844L130.855 104.091H132.673L128.043 116.591C127.834 117.154 127.576 117.621 127.268 117.99C126.961 118.364 126.603 118.641 126.196 118.821C125.794 119.001 125.339 119.091 124.832 119.091ZM138.927 115.227C137.942 115.227 137.078 114.993 136.335 114.524C135.596 114.055 135.018 113.4 134.602 112.557C134.19 111.714 133.984 110.729 133.984 109.602C133.984 108.466 134.19 107.474 134.602 106.626C135.018 105.779 135.596 105.121 136.335 104.652C137.078 104.183 137.942 103.949 138.927 103.949C139.912 103.949 140.773 104.183 141.512 104.652C142.255 105.121 142.833 105.779 143.245 106.626C143.662 107.474 143.87 108.466 143.87 109.602C143.87 110.729 143.662 111.714 143.245 112.557C142.833 113.4 142.255 114.055 141.512 114.524C140.773 114.993 139.912 115.227 138.927 115.227ZM138.927 113.722C139.675 113.722 140.29 113.53 140.773 113.146C141.256 112.763 141.614 112.259 141.846 111.634C142.078 111.009 142.194 110.331 142.194 109.602C142.194 108.873 142.078 108.194 141.846 107.564C141.614 106.934 141.256 106.425 140.773 106.037C140.29 105.649 139.675 105.455 138.927 105.455C138.179 105.455 137.563 105.649 137.08 106.037C136.597 106.425 136.24 106.934 136.008 107.564C135.776 108.194 135.66 108.873 135.66 109.602C135.66 110.331 135.776 111.009 136.008 111.634C136.24 112.259 136.597 112.763 137.08 113.146C137.563 113.53 138.179 113.722 138.927 113.722ZM153.304 110.54V104.091H154.98V115H153.304V113.153H153.19C152.934 113.707 152.537 114.179 151.997 114.567C151.457 114.95 150.775 115.142 149.951 115.142C149.27 115.142 148.663 114.993 148.133 114.695C147.603 114.392 147.186 113.937 146.883 113.331C146.58 112.72 146.429 111.951 146.429 111.023V104.091H148.105V110.909C148.105 111.705 148.327 112.339 148.772 112.812C149.222 113.286 149.795 113.523 150.491 113.523C150.908 113.523 151.332 113.416 151.762 113.203C152.198 112.99 152.563 112.663 152.856 112.223C153.154 111.783 153.304 111.222 153.304 110.54ZM162.794 104.091V105.511H157.141V104.091H162.794ZM158.788 101.477H160.464V111.875C160.464 112.348 160.533 112.704 160.67 112.94C160.813 113.172 160.992 113.329 161.21 113.409C161.433 113.485 161.667 113.523 161.913 113.523C162.098 113.523 162.25 113.513 162.368 113.494C162.486 113.471 162.581 113.452 162.652 113.438L162.993 114.943C162.879 114.986 162.721 115.028 162.517 115.071C162.313 115.118 162.055 115.142 161.743 115.142C161.269 115.142 160.805 115.04 160.351 114.837C159.901 114.633 159.527 114.323 159.229 113.906C158.935 113.49 158.788 112.964 158.788 112.33V101.477ZM14.108 139.227C13.0568 139.227 12.1501 138.995 11.3878 138.531C10.6302 138.062 10.0455 137.409 9.63352 136.571C9.22633 135.728 9.02273 134.748 9.02273 133.631C9.02273 132.513 9.22633 131.528 9.63352 130.676C10.0455 129.819 10.6184 129.152 11.3523 128.673C12.0909 128.19 12.9527 127.949 13.9375 127.949C14.5057 127.949 15.0668 128.044 15.6207 128.233C16.1747 128.422 16.679 128.73 17.1335 129.156C17.5881 129.578 17.9503 130.136 18.2202 130.832C18.4901 131.528 18.625 132.385 18.625 133.403V134.114H10.2159V132.665H16.9205C16.9205 132.049 16.7973 131.5 16.5511 131.017C16.3097 130.534 15.964 130.153 15.5142 129.874C15.0691 129.594 14.5436 129.455 13.9375 129.455C13.2699 129.455 12.6922 129.62 12.2045 129.952C11.7216 130.278 11.3499 130.705 11.0895 131.23C10.8291 131.756 10.6989 132.319 10.6989 132.92V133.886C10.6989 134.71 10.8409 135.409 11.125 135.982C11.4138 136.55 11.8139 136.983 12.3253 137.281C12.8366 137.575 13.4309 137.722 14.108 137.722C14.5483 137.722 14.946 137.66 15.3011 137.537C15.661 137.409 15.9711 137.22 16.2315 136.969C16.492 136.713 16.6932 136.396 16.8352 136.017L18.4545 136.472C18.2841 137.021 17.9976 137.504 17.5952 137.92C17.1927 138.332 16.6955 138.654 16.1037 138.886C15.5118 139.114 14.8466 139.227 14.108 139.227ZM24.3849 139.256C23.6937 139.256 23.0663 139.125 22.5028 138.865C21.9394 138.6 21.492 138.219 21.1605 137.722C20.8291 137.22 20.6634 136.614 20.6634 135.903C20.6634 135.278 20.7865 134.772 21.0327 134.384C21.2789 133.991 21.608 133.683 22.0199 133.46C22.4318 133.238 22.8864 133.072 23.3835 132.963C23.8854 132.849 24.3897 132.759 24.8963 132.693C25.5592 132.608 26.0966 132.544 26.5085 132.501C26.9252 132.454 27.2282 132.376 27.4176 132.267C27.6117 132.158 27.7088 131.969 27.7088 131.699V131.642C27.7088 130.941 27.517 130.397 27.1335 130.009C26.7547 129.62 26.1795 129.426 25.4077 129.426C24.6075 129.426 23.9801 129.601 23.5256 129.952C23.071 130.302 22.7514 130.676 22.5668 131.074L20.9759 130.506C21.2599 129.843 21.6387 129.327 22.1122 128.957C22.5904 128.583 23.1113 128.323 23.6747 128.176C24.2429 128.025 24.8016 127.949 25.3509 127.949C25.7012 127.949 26.1037 127.991 26.5582 128.077C27.0175 128.157 27.4602 128.325 27.8864 128.581C28.3172 128.837 28.6747 129.223 28.9588 129.739C29.2429 130.255 29.3849 130.946 29.3849 131.812V139H27.7088V137.523H27.6236C27.5099 137.759 27.3205 138.013 27.0554 138.283C26.7902 138.553 26.4375 138.782 25.9972 138.972C25.5568 139.161 25.0194 139.256 24.3849 139.256ZM24.6406 137.75C25.3035 137.75 25.8622 137.62 26.3168 137.359C26.776 137.099 27.1217 136.763 27.3537 136.351C27.5904 135.939 27.7088 135.506 27.7088 135.051V133.517C27.6378 133.602 27.4815 133.68 27.2401 133.751C27.0033 133.818 26.7287 133.877 26.4162 133.929C26.1084 133.976 25.8078 134.019 25.5142 134.057C25.2254 134.09 24.991 134.118 24.8111 134.142C24.3755 134.199 23.9683 134.291 23.5895 134.419C23.2154 134.542 22.9124 134.729 22.6804 134.98C22.4531 135.226 22.3395 135.562 22.3395 135.989C22.3395 136.571 22.5549 137.011 22.9858 137.31C23.4214 137.603 23.973 137.75 24.6406 137.75ZM40.1715 130.534L38.6658 130.96C38.5711 130.709 38.4315 130.465 38.2468 130.229C38.0669 129.987 37.8207 129.788 37.5082 129.632C37.1957 129.476 36.7956 129.398 36.3079 129.398C35.6403 129.398 35.0839 129.552 34.6388 129.859C34.1985 130.162 33.9783 130.548 33.9783 131.017C33.9783 131.434 34.1299 131.763 34.4329 132.004C34.7359 132.246 35.2094 132.447 35.8533 132.608L37.4727 133.006C38.448 133.242 39.1748 133.605 39.6531 134.092C40.1313 134.575 40.3704 135.198 40.3704 135.96C40.3704 136.585 40.1905 137.144 39.8306 137.636C39.4755 138.129 38.9783 138.517 38.3391 138.801C37.6999 139.085 36.9566 139.227 36.109 139.227C34.9963 139.227 34.0754 138.986 33.3462 138.503C32.6171 138.02 32.1554 137.314 31.9613 136.386L33.5522 135.989C33.7037 136.576 33.9902 137.016 34.4116 137.31C34.8377 137.603 35.3941 137.75 36.0806 137.75C36.8619 137.75 37.4821 137.584 37.9414 137.253C38.4054 136.917 38.6374 136.514 38.6374 136.045C38.6374 135.667 38.5049 135.349 38.2397 135.094C37.9746 134.833 37.5674 134.639 37.0181 134.511L35.1999 134.085C34.2009 133.848 33.467 133.482 32.9982 132.984C32.5342 132.482 32.3022 131.855 32.3022 131.102C32.3022 130.487 32.475 129.942 32.8207 129.469C33.171 128.995 33.6469 128.624 34.2482 128.354C34.8543 128.084 35.5408 127.949 36.3079 127.949C37.3874 127.949 38.235 128.186 38.8505 128.659C39.4708 129.133 39.9111 129.758 40.1715 130.534ZM42.8935 139V128.091H44.5696V139H42.8935ZM43.7457 126.273C43.419 126.273 43.1373 126.161 42.9006 125.939C42.6686 125.716 42.5526 125.449 42.5526 125.136C42.5526 124.824 42.6686 124.556 42.9006 124.334C43.1373 124.111 43.419 124 43.7457 124C44.0724 124 44.3518 124.111 44.5838 124.334C44.8205 124.556 44.9389 124.824 44.9389 125.136C44.9389 125.449 44.8205 125.716 44.5838 125.939C44.3518 126.161 44.0724 126.273 43.7457 126.273ZM52.2134 139.227C51.1623 139.227 50.2556 138.995 49.4933 138.531C48.7357 138.062 48.1509 137.409 47.739 136.571C47.3318 135.728 47.1282 134.748 47.1282 133.631C47.1282 132.513 47.3318 131.528 47.739 130.676C48.1509 129.819 48.7238 129.152 49.4577 128.673C50.1964 128.19 51.0581 127.949 52.043 127.949C52.6112 127.949 53.1722 128.044 53.7262 128.233C54.2802 128.422 54.7844 128.73 55.239 129.156C55.6935 129.578 56.0558 130.136 56.3256 130.832C56.5955 131.528 56.7305 132.385 56.7305 133.403V134.114H48.3214V132.665H55.0259C55.0259 132.049 54.9028 131.5 54.6566 131.017C54.4151 130.534 54.0695 130.153 53.6197 129.874C53.1746 129.594 52.649 129.455 52.043 129.455C51.3754 129.455 50.7977 129.62 50.31 129.952C49.8271 130.278 49.4554 130.705 49.195 131.23C48.9345 131.756 48.8043 132.319 48.8043 132.92V133.886C48.8043 134.71 48.9464 135.409 49.2305 135.982C49.5193 136.55 49.9194 136.983 50.4308 137.281C50.9421 137.575 51.5363 137.722 52.2134 137.722C52.6538 137.722 53.0515 137.66 53.4066 137.537C53.7665 137.409 54.0766 137.22 54.337 136.969C54.5974 136.713 54.7987 136.396 54.9407 136.017L56.56 136.472C56.3896 137.021 56.1031 137.504 55.7006 137.92C55.2982 138.332 54.801 138.654 54.2092 138.886C53.6173 139.114 52.9521 139.227 52.2134 139.227ZM59.2802 139V128.091H60.8995V129.739H61.0131C61.212 129.199 61.5719 128.761 62.0927 128.425C62.6135 128.089 63.2006 127.92 63.854 127.92C63.9772 127.92 64.131 127.923 64.3157 127.928C64.5004 127.932 64.64 127.939 64.7347 127.949V129.653C64.6779 129.639 64.5477 129.618 64.3441 129.589C64.1452 129.556 63.9345 129.54 63.712 129.54C63.1817 129.54 62.7082 129.651 62.2915 129.874C61.8796 130.091 61.5529 130.394 61.3114 130.783C61.0747 131.166 60.9563 131.604 60.9563 132.097V139H59.2802ZM77.0909 128.091V129.511H71.4375V128.091H77.0909ZM73.0852 125.477H74.7614V135.875C74.7614 136.348 74.83 136.704 74.9673 136.94C75.1094 137.172 75.2893 137.329 75.5071 137.409C75.7296 137.485 75.964 137.523 76.2102 137.523C76.3949 137.523 76.5464 137.513 76.6648 137.494C76.7831 137.471 76.8778 137.452 76.9489 137.438L77.2898 138.943C77.1761 138.986 77.0175 139.028 76.8139 139.071C76.6103 139.118 76.3523 139.142 76.0398 139.142C75.5663 139.142 75.1023 139.04 74.6477 138.837C74.1979 138.633 73.8239 138.323 73.5256 137.906C73.232 137.49 73.0852 136.964 73.0852 136.33V125.477ZM83.9268 139.227C82.942 139.227 82.0779 138.993 81.3345 138.524C80.5959 138.055 80.0182 137.4 79.6016 136.557C79.1896 135.714 78.9837 134.729 78.9837 133.602C78.9837 132.466 79.1896 131.474 79.6016 130.626C80.0182 129.779 80.5959 129.121 81.3345 128.652C82.0779 128.183 82.942 127.949 83.9268 127.949C84.9117 127.949 85.7734 128.183 86.5121 128.652C87.2554 129.121 87.8331 129.779 88.245 130.626C88.6617 131.474 88.87 132.466 88.87 133.602C88.87 134.729 88.6617 135.714 88.245 136.557C87.8331 137.4 87.2554 138.055 86.5121 138.524C85.7734 138.993 84.9117 139.227 83.9268 139.227ZM83.9268 137.722C84.675 137.722 85.2905 137.53 85.7734 137.146C86.2564 136.763 86.6139 136.259 86.8459 135.634C87.0779 135.009 87.1939 134.331 87.1939 133.602C87.1939 132.873 87.0779 132.194 86.8459 131.564C86.6139 130.934 86.2564 130.425 85.7734 130.037C85.2905 129.649 84.675 129.455 83.9268 129.455C83.1787 129.455 82.5632 129.649 82.0803 130.037C81.5973 130.425 81.2398 130.934 81.0078 131.564C80.7758 132.194 80.6598 132.873 80.6598 133.602C80.6598 134.331 80.7758 135.009 81.0078 135.634C81.2398 136.259 81.5973 136.763 82.0803 137.146C82.5632 137.53 83.1787 137.722 83.9268 137.722ZM97.0536 139V128.091H98.6729V129.739H98.7866C98.9854 129.199 99.3453 128.761 99.8661 128.425C100.387 128.089 100.974 127.92 101.627 127.92C101.751 127.92 101.904 127.923 102.089 127.928C102.274 127.932 102.413 127.939 102.508 127.949V129.653C102.451 129.639 102.321 129.618 102.118 129.589C101.919 129.556 101.708 129.54 101.485 129.54C100.955 129.54 100.482 129.651 100.065 129.874C99.6531 130.091 99.3263 130.394 99.0849 130.783C98.8481 131.166 98.7298 131.604 98.7298 132.097V139H97.0536ZM108.737 139.227C107.686 139.227 106.779 138.995 106.017 138.531C105.259 138.062 104.674 137.409 104.262 136.571C103.855 135.728 103.652 134.748 103.652 133.631C103.652 132.513 103.855 131.528 104.262 130.676C104.674 129.819 105.247 129.152 105.981 128.673C106.72 128.19 107.582 127.949 108.566 127.949C109.135 127.949 109.696 128.044 110.25 128.233C110.804 128.422 111.308 128.73 111.762 129.156C112.217 129.578 112.579 130.136 112.849 130.832C113.119 131.528 113.254 132.385 113.254 133.403V134.114H104.845V132.665H111.549C111.549 132.049 111.426 131.5 111.18 131.017C110.939 130.534 110.593 130.153 110.143 129.874C109.698 129.594 109.172 129.455 108.566 129.455C107.899 129.455 107.321 129.62 106.833 129.952C106.35 130.278 105.979 130.705 105.718 131.23C105.458 131.756 105.328 132.319 105.328 132.92V133.886C105.328 134.71 105.47 135.409 105.754 135.982C106.043 136.55 106.443 136.983 106.954 137.281C107.466 137.575 108.06 137.722 108.737 137.722C109.177 137.722 109.575 137.66 109.93 137.537C110.29 137.409 110.6 137.22 110.86 136.969C111.121 136.713 111.322 136.396 111.464 136.017L113.083 136.472C112.913 137.021 112.627 137.504 112.224 137.92C111.822 138.332 111.324 138.654 110.733 138.886C110.141 139.114 109.475 139.227 108.737 139.227ZM119.014 139.256C118.323 139.256 117.695 139.125 117.132 138.865C116.568 138.6 116.121 138.219 115.789 137.722C115.458 137.22 115.292 136.614 115.292 135.903C115.292 135.278 115.415 134.772 115.662 134.384C115.908 133.991 116.237 133.683 116.649 133.46C117.061 133.238 117.515 133.072 118.012 132.963C118.514 132.849 119.019 132.759 119.525 132.693C120.188 132.608 120.725 132.544 121.137 132.501C121.554 132.454 121.857 132.376 122.047 132.267C122.241 132.158 122.338 131.969 122.338 131.699V131.642C122.338 130.941 122.146 130.397 121.762 130.009C121.384 129.62 120.808 129.426 120.037 129.426C119.236 129.426 118.609 129.601 118.154 129.952C117.7 130.302 117.38 130.676 117.196 131.074L115.605 130.506C115.889 129.843 116.268 129.327 116.741 128.957C117.219 128.583 117.74 128.323 118.304 128.176C118.872 128.025 119.431 127.949 119.98 127.949C120.33 127.949 120.733 127.991 121.187 128.077C121.646 128.157 122.089 128.325 122.515 128.581C122.946 128.837 123.304 129.223 123.588 129.739C123.872 130.255 124.014 130.946 124.014 131.812V139H122.338V137.523H122.252C122.139 137.759 121.949 138.013 121.684 138.283C121.419 138.553 121.066 138.782 120.626 138.972C120.186 139.161 119.648 139.256 119.014 139.256ZM119.27 137.75C119.932 137.75 120.491 137.62 120.946 137.359C121.405 137.099 121.751 136.763 121.983 136.351C122.219 135.939 122.338 135.506 122.338 135.051V133.517C122.267 133.602 122.11 133.68 121.869 133.751C121.632 133.818 121.358 133.877 121.045 133.929C120.737 133.976 120.437 134.019 120.143 134.057C119.854 134.09 119.62 134.118 119.44 134.142C119.004 134.199 118.597 134.291 118.218 134.419C117.844 134.542 117.541 134.729 117.309 134.98C117.082 135.226 116.968 135.562 116.968 135.989C116.968 136.571 117.184 137.011 117.615 137.31C118.05 137.603 118.602 137.75 119.27 137.75ZM131.192 139.227C130.283 139.227 129.481 138.998 128.785 138.538C128.089 138.074 127.544 137.421 127.151 136.578C126.758 135.731 126.562 134.729 126.562 133.574C126.562 132.428 126.758 131.434 127.151 130.591C127.544 129.748 128.091 129.097 128.792 128.638C129.493 128.179 130.302 127.949 131.221 127.949C131.931 127.949 132.492 128.067 132.904 128.304C133.321 128.536 133.638 128.801 133.856 129.099C134.078 129.393 134.251 129.634 134.374 129.824H134.516V124.455H136.192V139H134.573V137.324H134.374C134.251 137.523 134.076 137.774 133.849 138.077C133.621 138.375 133.297 138.643 132.876 138.879C132.454 139.111 131.893 139.227 131.192 139.227ZM131.42 137.722C132.092 137.722 132.66 137.546 133.124 137.196C133.588 136.841 133.941 136.351 134.183 135.726C134.424 135.096 134.545 134.369 134.545 133.545C134.545 132.731 134.426 132.018 134.19 131.408C133.953 130.792 133.603 130.314 133.138 129.973C132.674 129.627 132.102 129.455 131.42 129.455C130.71 129.455 130.118 129.637 129.644 130.001C129.175 130.361 128.823 130.851 128.586 131.472C128.354 132.087 128.238 132.778 128.238 133.545C128.238 134.322 128.356 135.027 128.593 135.662C128.835 136.292 129.19 136.794 129.658 137.168C130.132 137.537 130.719 137.722 131.42 137.722ZM140.717 139.114C140.366 139.114 140.066 138.988 139.815 138.737C139.564 138.486 139.438 138.186 139.438 137.835C139.438 137.485 139.564 137.184 139.815 136.933C140.066 136.682 140.366 136.557 140.717 136.557C141.067 136.557 141.368 136.682 141.619 136.933C141.87 137.184 141.995 137.485 141.995 137.835C141.995 138.067 141.936 138.28 141.817 138.474C141.704 138.669 141.55 138.825 141.356 138.943C141.166 139.057 140.953 139.114 140.717 139.114Z" fill="black"/>
<path d="M1 4.5V136" stroke="black"/>
<path d="M130.5 3V25H189V47.5L171.5 56.5V73.5L181.5 92L171.5 105V115.5L152.5 126.5V143" stroke="black"/>
</svg>
