<svg width="381" height="104" viewBox="0 0 381 104" fill="none" xmlns="http://www.w3.org/2000/svg">
<path d="M49.6464 12.3536C49.8417 12.5488 50.1583 12.5488 50.3536 12.3536L53.5355 9.17157C53.7308 8.97631 53.7308 8.65973 53.5355 8.46447C53.3403 8.2692 53.0237 8.2692 52.8284 8.46447L50 11.2929L47.1716 8.46447C46.9763 8.2692 46.6597 8.2692 46.4645 8.46447C46.2692 8.65973 46.2692 8.97631 46.4645 9.17157L49.6464 12.3536ZM49.5 0V12H50.5V0L49.5 0Z" fill="#FF0000"/>
<path d="M49.6464 47.3536C49.8417 47.5488 50.1583 47.5488 50.3536 47.3536L53.5355 44.1716C53.7308 43.9763 53.7308 43.6597 53.5355 43.4645C53.3403 43.2692 53.0237 43.2692 52.8284 43.4645L50 46.2929L47.1716 43.4645C46.9763 43.2692 46.6597 43.2692 46.4645 43.4645C46.2692 43.6597 46.2692 43.9763 46.4645 44.1716L49.6464 47.3536ZM49.5 35V47H50.5V35H49.5Z" fill="#FF0000"/>
<path d="M49.6464 82.3536C49.8417 82.5488 50.1583 82.5488 50.3536 82.3536L53.5355 79.1716C53.7308 78.9763 53.7308 78.6597 53.5355 78.4645C53.3403 78.2692 53.0237 78.2692 52.8284 78.4645L50 81.2929L47.1716 78.4645C46.9763 78.2692 46.6597 78.2692 46.4645 78.4645C46.2692 78.6597 46.2692 78.9763 46.4645 79.1716L49.6464 82.3536ZM49.5 70V82H50.5V70H49.5Z" fill="#FF0000"/>
<path d="M49.7614 31V16.4545H54.8466C55.8598 16.4545 56.6955 16.6297 57.3537 16.9801C58.0118 17.3258 58.5019 17.7921 58.8239 18.3793C59.1458 18.9616 59.3068 19.608 59.3068 20.3182C59.3068 20.9432 59.1955 21.4593 58.973 21.8665C58.7552 22.2737 58.4664 22.5956 58.1065 22.8324C57.7514 23.0691 57.3655 23.2443 56.9489 23.358V23.5C57.3939 23.5284 57.8414 23.6847 58.2912 23.9688C58.741 24.2528 59.1174 24.66 59.4205 25.1903C59.7235 25.7206 59.875 26.3693 59.875 27.1364C59.875 27.8655 59.7093 28.5213 59.3778 29.1037C59.0464 29.6861 58.5232 30.1477 57.8082 30.4886C57.0933 30.8295 56.1629 31 55.017 31H49.7614ZM51.5227 29.4375H55.017C56.1676 29.4375 56.9844 29.215 57.4673 28.7699C57.955 28.3201 58.1989 27.7756 58.1989 27.1364C58.1989 26.6439 58.0734 26.1894 57.8224 25.7727C57.5715 25.3513 57.214 25.0152 56.75 24.7642C56.286 24.5085 55.7367 24.3807 55.1023 24.3807H51.5227V29.4375ZM51.5227 22.8466H54.7898C55.3201 22.8466 55.7983 22.7424 56.2244 22.5341C56.6553 22.3258 56.9962 22.0322 57.2472 21.6534C57.5028 21.2746 57.6307 20.8295 57.6307 20.3182C57.6307 19.679 57.4081 19.1368 56.9631 18.6918C56.518 18.242 55.8125 18.017 54.8466 18.017H51.5227V22.8466ZM69.4169 26.5398V20.0909H71.093V31H69.4169V29.1534H69.3033C69.0476 29.7074 68.6499 30.1785 68.1101 30.5668C67.5703 30.9503 66.8885 31.142 66.0646 31.142C65.3828 31.142 64.7768 30.9929 64.2464 30.6946C63.7161 30.3916 63.2995 29.937 62.9964 29.331C62.6934 28.7202 62.5419 27.9508 62.5419 27.0227V20.0909H64.218V26.9091C64.218 27.7045 64.4406 28.339 64.8857 28.8125C65.3355 29.286 65.9084 29.5227 66.6044 29.5227C67.0211 29.5227 67.4448 29.4162 67.8757 29.2031C68.3113 28.9901 68.6759 28.6634 68.9695 28.223C69.2678 27.7827 69.4169 27.2216 69.4169 26.5398ZM78.9073 20.0909V21.5114H73.2539V20.0909H78.9073ZM74.9016 17.4773H76.5778V27.875C76.5778 28.3485 76.6464 28.7036 76.7837 28.9403C76.9258 29.1723 77.1057 29.3286 77.3235 29.4091C77.546 29.4848 77.7804 29.5227 78.0266 29.5227C78.2113 29.5227 78.3628 29.5133 78.4812 29.4943C78.5996 29.4706 78.6942 29.4517 78.7653 29.4375L79.1062 30.9432C78.9925 30.9858 78.8339 31.0284 78.6303 31.071C78.4267 31.1184 78.1687 31.142 77.8562 31.142C77.3827 31.142 76.9187 31.0402 76.4641 30.8366C76.0143 30.633 75.6403 30.3229 75.342 29.9062C75.0484 29.4896 74.9016 28.964 74.9016 28.3295V17.4773ZM89.5252 31L86.2013 20.0909H87.9627L90.3207 28.4432H90.4343L92.7638 20.0909H94.5536L96.8548 28.4148H96.9684L99.3263 20.0909H101.088L97.7638 31H96.1161L93.7298 22.6193H93.5593L91.1729 31H89.5252ZM103.304 31V20.0909H104.98V31H103.304ZM104.156 18.2727C103.829 18.2727 103.547 18.1615 103.311 17.9389C103.079 17.7164 102.963 17.4489 102.963 17.1364C102.963 16.8239 103.079 16.5563 103.311 16.3338C103.547 16.1113 103.829 16 104.156 16C104.483 16 104.762 16.1113 104.994 16.3338C105.231 16.5563 105.349 16.8239 105.349 17.1364C105.349 17.4489 105.231 17.7164 104.994 17.9389C104.762 18.1615 104.483 18.2727 104.156 18.2727ZM112.794 20.0909V21.5114H107.141V20.0909H112.794ZM108.788 17.4773H110.464V27.875C110.464 28.3485 110.533 28.7036 110.67 28.9403C110.813 29.1723 110.992 29.3286 111.21 29.4091C111.433 29.4848 111.667 29.5227 111.913 29.5227C112.098 29.5227 112.25 29.5133 112.368 29.4943C112.486 29.4706 112.581 29.4517 112.652 29.4375L112.993 30.9432C112.879 30.9858 112.721 31.0284 112.517 31.071C112.313 31.1184 112.055 31.142 111.743 31.142C111.269 31.142 110.805 31.0402 110.351 30.8366C109.901 30.633 109.527 30.3229 109.229 29.9062C108.935 29.4896 108.788 28.964 108.788 28.3295V17.4773ZM117.226 24.4375V31H115.55V16.4545H117.226V21.7955H117.368C117.624 21.232 118.007 20.7846 118.518 20.4531C119.035 20.117 119.721 19.9489 120.578 19.9489C121.321 19.9489 121.973 20.098 122.531 20.3963C123.09 20.6899 123.523 21.142 123.831 21.7528C124.143 22.3589 124.3 23.1307 124.3 24.0682V31H122.624V24.1818C122.624 23.3153 122.399 22.6454 121.949 22.1719C121.504 21.6937 120.886 21.4545 120.095 21.4545C119.546 21.4545 119.054 21.5705 118.618 21.8026C118.187 22.0346 117.846 22.3731 117.595 22.8182C117.349 23.2633 117.226 23.803 117.226 24.4375ZM134.667 16.4545V31H132.991V16.4545H134.667ZM142.311 31.2273C141.26 31.2273 140.353 30.9953 139.591 30.5312C138.833 30.0625 138.249 29.4091 137.837 28.571C137.429 27.7282 137.226 26.7481 137.226 25.6307C137.226 24.5133 137.429 23.5284 137.837 22.6761C138.249 21.8191 138.821 21.1515 139.555 20.6733C140.294 20.1903 141.156 19.9489 142.141 19.9489C142.709 19.9489 143.27 20.0436 143.824 20.233C144.378 20.4223 144.882 20.7301 145.337 21.1562C145.791 21.5777 146.153 22.1364 146.423 22.8324C146.693 23.5284 146.828 24.3854 146.828 25.4034V26.1136H138.419V24.6648H145.124C145.124 24.0492 145 23.5 144.754 23.017C144.513 22.5341 144.167 22.1529 143.717 21.8736C143.272 21.5942 142.747 21.4545 142.141 21.4545C141.473 21.4545 140.895 21.6203 140.408 21.9517C139.925 22.2784 139.553 22.7045 139.293 23.2301C139.032 23.7557 138.902 24.3191 138.902 24.9205V25.8864C138.902 26.7102 139.044 27.4086 139.328 27.9815C139.617 28.5497 140.017 28.983 140.528 29.2812C141.04 29.5748 141.634 29.7216 142.311 29.7216C142.751 29.7216 143.149 29.66 143.504 29.5369C143.864 29.4091 144.174 29.2197 144.435 28.9688C144.695 28.7131 144.896 28.3958 145.038 28.017L146.658 28.4716C146.487 29.0208 146.201 29.5038 145.798 29.9205C145.396 30.3324 144.899 30.6544 144.307 30.8864C143.715 31.1136 143.05 31.2273 142.311 31.2273ZM154.236 20.0909V21.5114H148.355V20.0909H154.236ZM150.116 31V18.5852C150.116 17.9602 150.263 17.4394 150.557 17.0227C150.85 16.6061 151.232 16.2936 151.7 16.0852C152.169 15.8769 152.664 15.7727 153.185 15.7727C153.597 15.7727 153.933 15.8059 154.193 15.8722C154.454 15.9384 154.648 16 154.776 16.0568L154.293 17.5057C154.207 17.4773 154.089 17.4418 153.938 17.3991C153.791 17.3565 153.597 17.3352 153.355 17.3352C152.801 17.3352 152.401 17.4749 152.155 17.7543C151.913 18.0336 151.793 18.4432 151.793 18.983V31H150.116ZM161.329 20.0909V21.5114H155.676V20.0909H161.329ZM157.324 17.4773H159V27.875C159 28.3485 159.068 28.7036 159.206 28.9403C159.348 29.1723 159.528 29.3286 159.745 29.4091C159.968 29.4848 160.202 29.5227 160.449 29.5227C160.633 29.5227 160.785 29.5133 160.903 29.4943C161.021 29.4706 161.116 29.4517 161.187 29.4375L161.528 30.9432C161.414 30.9858 161.256 31.0284 161.052 31.071C160.849 31.1184 160.591 31.142 160.278 31.142C159.805 31.142 159.341 31.0402 158.886 30.8366C158.436 30.633 158.062 30.3229 157.764 29.9062C157.47 29.4896 157.324 28.964 157.324 28.3295V17.4773ZM172.686 31.2557C171.994 31.2557 171.367 31.1255 170.804 30.8651C170.24 30.5999 169.793 30.2188 169.461 29.7216C169.13 29.2197 168.964 28.6136 168.964 27.9034C168.964 27.2784 169.087 26.7718 169.333 26.3835C169.58 25.9905 169.909 25.6828 170.321 25.4602C170.733 25.2377 171.187 25.072 171.684 24.9631C172.186 24.8494 172.69 24.7595 173.197 24.6932C173.86 24.608 174.397 24.544 174.809 24.5014C175.226 24.4541 175.529 24.3759 175.718 24.267C175.913 24.1581 176.01 23.9687 176.01 23.6989V23.642C176.01 22.9413 175.818 22.3968 175.434 22.0085C175.056 21.6203 174.48 21.4261 173.708 21.4261C172.908 21.4261 172.281 21.6013 171.826 21.9517C171.372 22.3021 171.052 22.6761 170.868 23.0739L169.277 22.5057C169.561 21.8428 169.94 21.3267 170.413 20.9574C170.891 20.5833 171.412 20.3229 171.975 20.1761C172.544 20.0246 173.102 19.9489 173.652 19.9489C174.002 19.9489 174.404 19.9915 174.859 20.0767C175.318 20.1572 175.761 20.3253 176.187 20.581C176.618 20.8366 176.975 21.2225 177.26 21.7386C177.544 22.2547 177.686 22.946 177.686 23.8125V31H176.01V29.5227H175.924C175.811 29.7595 175.621 30.0128 175.356 30.2827C175.091 30.5526 174.738 30.7822 174.298 30.9716C173.858 31.161 173.32 31.2557 172.686 31.2557ZM172.941 29.75C173.604 29.75 174.163 29.6198 174.618 29.3594C175.077 29.099 175.422 28.7628 175.654 28.3509C175.891 27.9389 176.01 27.5057 176.01 27.0511V25.517C175.939 25.6023 175.782 25.6804 175.541 25.7514C175.304 25.8177 175.029 25.8769 174.717 25.929C174.409 25.9763 174.109 26.0189 173.815 26.0568C173.526 26.09 173.292 26.1184 173.112 26.142C172.676 26.1989 172.269 26.2912 171.89 26.419C171.516 26.5421 171.213 26.7292 170.981 26.9801C170.754 27.2263 170.64 27.5625 170.64 27.9886C170.64 28.571 170.856 29.0114 171.287 29.3097C171.722 29.6032 172.274 29.75 172.941 29.75ZM182.421 16.4545V31H180.745V16.4545H182.421ZM185.491 31V20.0909H187.167V31H185.491ZM186.343 18.2727C186.017 18.2727 185.735 18.1615 185.498 17.9389C185.266 17.7164 185.15 17.4489 185.15 17.1364C185.15 16.8239 185.266 16.5563 185.498 16.3338C185.735 16.1113 186.017 16 186.343 16C186.67 16 186.949 16.1113 187.181 16.3338C187.418 16.5563 187.537 16.8239 187.537 17.1364C187.537 17.4489 187.418 17.7164 187.181 17.9389C186.949 18.1615 186.67 18.2727 186.343 18.2727ZM194.641 35.3182C193.831 35.3182 193.135 35.214 192.553 35.0057C191.97 34.8021 191.485 34.5322 191.097 34.196C190.713 33.8646 190.408 33.5095 190.18 33.1307L191.516 32.1932C191.667 32.392 191.859 32.6193 192.091 32.875C192.323 33.1354 192.64 33.3603 193.043 33.5497C193.45 33.7438 193.982 33.8409 194.641 33.8409C195.521 33.8409 196.248 33.6278 196.821 33.2017C197.394 32.7756 197.68 32.108 197.68 31.1989V28.983H197.538C197.415 29.1818 197.24 29.428 197.013 29.7216C196.79 30.0104 196.468 30.2685 196.047 30.4957C195.63 30.7183 195.067 30.8295 194.357 30.8295C193.476 30.8295 192.685 30.6212 191.984 30.2045C191.288 29.7879 190.737 29.1818 190.33 28.3864C189.927 27.5909 189.726 26.625 189.726 25.4886C189.726 24.3712 189.922 23.3982 190.315 22.5696C190.708 21.7363 191.255 21.0923 191.956 20.6378C192.657 20.1785 193.466 19.9489 194.385 19.9489C195.095 19.9489 195.659 20.0672 196.075 20.304C196.497 20.536 196.819 20.8011 197.041 21.0994C197.268 21.393 197.444 21.6345 197.567 21.8239H197.737V20.0909H199.357V31.3125C199.357 32.25 199.143 33.0123 198.717 33.5994C198.296 34.1913 197.728 34.6245 197.013 34.8991C196.303 35.1785 195.512 35.3182 194.641 35.3182ZM194.584 29.3239C195.256 29.3239 195.824 29.17 196.288 28.8622C196.752 28.5545 197.105 28.1117 197.347 27.5341C197.588 26.9564 197.709 26.2652 197.709 25.4602C197.709 24.6742 197.59 23.9806 197.354 23.3793C197.117 22.7779 196.767 22.3068 196.303 21.9659C195.839 21.625 195.266 21.4545 194.584 21.4545C193.874 21.4545 193.282 21.6345 192.808 21.9943C192.339 22.3542 191.987 22.8371 191.75 23.4432C191.518 24.0492 191.402 24.7216 191.402 25.4602C191.402 26.2178 191.52 26.8878 191.757 27.4702C191.999 28.0478 192.354 28.5024 192.822 28.8338C193.296 29.1605 193.883 29.3239 194.584 29.3239ZM204.101 24.4375V31H202.425V20.0909H204.044V21.7955H204.186C204.442 21.2415 204.83 20.7964 205.351 20.4602C205.872 20.1193 206.544 19.9489 207.368 19.9489C208.107 19.9489 208.753 20.1004 209.307 20.4034C209.861 20.7017 210.292 21.1562 210.599 21.767C210.907 22.3731 211.061 23.1402 211.061 24.0682V31H209.385V24.1818C209.385 23.3248 209.162 22.6572 208.717 22.179C208.272 21.696 207.661 21.4545 206.885 21.4545C206.35 21.4545 205.872 21.5705 205.45 21.8026C205.034 22.0346 204.705 22.3731 204.463 22.8182C204.222 23.2633 204.101 23.803 204.101 24.4375ZM218.698 31.2273C217.647 31.2273 216.74 30.9953 215.978 30.5312C215.22 30.0625 214.635 29.4091 214.223 28.571C213.816 27.7282 213.613 26.7481 213.613 25.6307C213.613 24.5133 213.816 23.5284 214.223 22.6761C214.635 21.8191 215.208 21.1515 215.942 20.6733C216.681 20.1903 217.542 19.9489 218.527 19.9489C219.096 19.9489 219.657 20.0436 220.211 20.233C220.765 20.4223 221.269 20.7301 221.723 21.1562C222.178 21.5777 222.54 22.1364 222.81 22.8324C223.08 23.5284 223.215 24.3854 223.215 25.4034V26.1136H214.806V24.6648H221.51C221.51 24.0492 221.387 23.5 221.141 23.017C220.9 22.5341 220.554 22.1529 220.104 21.8736C219.659 21.5942 219.133 21.4545 218.527 21.4545C217.86 21.4545 217.282 21.6203 216.794 21.9517C216.311 22.2784 215.94 22.7045 215.679 23.2301C215.419 23.7557 215.289 24.3191 215.289 24.9205V25.8864C215.289 26.7102 215.431 27.4086 215.715 27.9815C216.004 28.5497 216.404 28.983 216.915 29.2812C217.426 29.5748 218.021 29.7216 218.698 29.7216C219.138 29.7216 219.536 29.66 219.891 29.5369C220.251 29.4091 220.561 29.2197 220.821 28.9688C221.082 28.7131 221.283 28.3958 221.425 28.017L223.044 28.4716C222.874 29.0208 222.587 29.5038 222.185 29.9205C221.783 30.3324 221.285 30.6544 220.694 30.8864C220.102 31.1136 219.436 31.2273 218.698 31.2273ZM229.884 31.2273C228.975 31.2273 228.172 30.9976 227.476 30.5384C226.78 30.0743 226.236 29.4209 225.843 28.5781C225.45 27.7306 225.253 26.7292 225.253 25.5739C225.253 24.428 225.45 23.4337 225.843 22.5909C226.236 21.7481 226.783 21.0971 227.483 20.6378C228.184 20.1785 228.994 19.9489 229.912 19.9489C230.623 19.9489 231.184 20.0672 231.596 20.304C232.012 20.536 232.329 20.8011 232.547 21.0994C232.77 21.393 232.943 21.6345 233.066 21.8239H233.208V16.4545H234.884V31H233.265V29.3239H233.066C232.943 29.5227 232.767 29.7737 232.54 30.0767C232.313 30.375 231.989 30.6425 231.567 30.8793C231.146 31.1113 230.585 31.2273 229.884 31.2273ZM230.111 29.7216C230.783 29.7216 231.352 29.5464 231.816 29.196C232.28 28.8409 232.632 28.3509 232.874 27.7259C233.115 27.0961 233.236 26.3693 233.236 25.5455C233.236 24.7311 233.118 24.0185 232.881 23.4077C232.644 22.7921 232.294 22.3139 231.83 21.973C231.366 21.6274 230.793 21.4545 230.111 21.4545C229.401 21.4545 228.809 21.6368 228.336 22.0014C227.867 22.3613 227.514 22.8513 227.277 23.4716C227.045 24.0871 226.929 24.7784 226.929 25.5455C226.929 26.322 227.048 27.0275 227.284 27.6619C227.526 28.2917 227.881 28.7936 228.35 29.1676C228.823 29.5369 229.41 29.7216 230.111 29.7216ZM248.556 20.0909V21.5114H242.902V20.0909H248.556ZM244.55 17.4773H246.226V27.875C246.226 28.3485 246.295 28.7036 246.432 28.9403C246.574 29.1723 246.754 29.3286 246.972 29.4091C247.194 29.4848 247.429 29.5227 247.675 29.5227C247.86 29.5227 248.011 29.5133 248.13 29.4943C248.248 29.4706 248.343 29.4517 248.414 29.4375L248.755 30.9432C248.641 30.9858 248.482 31.0284 248.279 31.071C248.075 31.1184 247.817 31.142 247.505 31.142C247.031 31.142 246.567 31.0402 246.113 30.8366C245.663 30.633 245.289 30.3229 244.99 29.9062C244.697 29.4896 244.55 28.964 244.55 28.3295V17.4773ZM252.157 35.0909C251.873 35.0909 251.619 35.0672 251.397 35.0199C251.174 34.9773 251.02 34.9347 250.935 34.892L251.361 33.4148C251.768 33.5189 252.128 33.5568 252.441 33.5284C252.753 33.5 253.03 33.3603 253.272 33.1094C253.518 32.8632 253.743 32.4631 253.946 31.9091L254.259 31.0568L250.225 20.0909H252.043L255.054 28.7841H255.168L258.179 20.0909H259.998L255.367 32.5909C255.158 33.1544 254.9 33.6207 254.593 33.9901C254.285 34.3641 253.927 34.6411 253.52 34.821C253.118 35.0009 252.663 35.0909 252.157 35.0909ZM262.21 35.0909V20.0909H263.829V21.8239H264.028C264.151 21.6345 264.322 21.393 264.539 21.0994C264.762 20.8011 265.079 20.536 265.491 20.304C265.908 20.0672 266.471 19.9489 267.181 19.9489C268.1 19.9489 268.91 20.1785 269.61 20.6378C270.311 21.0971 270.858 21.7481 271.251 22.5909C271.644 23.4337 271.841 24.428 271.841 25.5739C271.841 26.7292 271.644 27.7306 271.251 28.5781C270.858 29.4209 270.314 30.0743 269.618 30.5384C268.922 30.9976 268.119 31.2273 267.21 31.2273C266.509 31.2273 265.948 31.1113 265.527 30.8793C265.105 30.6425 264.781 30.375 264.554 30.0767C264.326 29.7737 264.151 29.5227 264.028 29.3239H263.886V35.0909H262.21ZM263.858 25.5455C263.858 26.3693 263.978 27.0961 264.22 27.7259C264.461 28.3509 264.814 28.8409 265.278 29.196C265.742 29.5464 266.31 29.7216 266.983 29.7216C267.683 29.7216 268.268 29.5369 268.737 29.1676C269.21 28.7936 269.565 28.2917 269.802 27.6619C270.044 27.0275 270.164 26.322 270.164 25.5455C270.164 24.7784 270.046 24.0871 269.809 23.4716C269.577 22.8513 269.225 22.3613 268.751 22.0014C268.282 21.6368 267.693 21.4545 266.983 21.4545C266.301 21.4545 265.728 21.6274 265.264 21.973C264.8 22.3139 264.449 22.7921 264.213 23.4077C263.976 24.0185 263.858 24.7311 263.858 25.5455ZM278.971 31.2273C277.92 31.2273 277.013 30.9953 276.251 30.5312C275.493 30.0625 274.909 29.4091 274.497 28.571C274.09 27.7282 273.886 26.7481 273.886 25.6307C273.886 24.5133 274.09 23.5284 274.497 22.6761C274.909 21.8191 275.482 21.1515 276.216 20.6733C276.954 20.1903 277.816 19.9489 278.801 19.9489C279.369 19.9489 279.93 20.0436 280.484 20.233C281.038 20.4223 281.542 20.7301 281.997 21.1562C282.451 21.5777 282.814 22.1364 283.083 22.8324C283.353 23.5284 283.488 24.3854 283.488 25.4034V26.1136H275.079V24.6648H281.784C281.784 24.0492 281.661 23.5 281.414 23.017C281.173 22.5341 280.827 22.1529 280.377 21.8736C279.932 21.5942 279.407 21.4545 278.801 21.4545C278.133 21.4545 277.556 21.6203 277.068 21.9517C276.585 22.2784 276.213 22.7045 275.953 23.2301C275.692 23.7557 275.562 24.3191 275.562 24.9205V25.8864C275.562 26.7102 275.704 27.4086 275.988 27.9815C276.277 28.5497 276.677 28.983 277.189 29.2812C277.7 29.5748 278.294 29.7216 278.971 29.7216C279.412 29.7216 279.809 29.66 280.164 29.5369C280.524 29.4091 280.834 29.2197 281.095 28.9688C281.355 28.7131 281.556 28.3958 281.699 28.017L283.318 28.4716C283.147 29.0208 282.861 29.5038 282.458 29.9205C282.056 30.3324 281.559 30.6544 280.967 30.8864C280.375 31.1136 279.71 31.2273 278.971 31.2273ZM288.538 29.0114L288.424 29.7784C288.344 30.3182 288.221 30.8958 288.055 31.5114C287.894 32.1269 287.726 32.7069 287.551 33.2514C287.376 33.7959 287.231 34.2292 287.118 34.5511H285.839C285.901 34.2481 285.981 33.848 286.081 33.3509C286.18 32.8537 286.279 32.2973 286.379 31.6818C286.483 31.071 286.568 30.446 286.635 29.8068L286.72 29.0114H288.538ZM301.7 31.2273C300.715 31.2273 299.851 30.9929 299.108 30.5241C298.369 30.0554 297.792 29.3996 297.375 28.5568C296.963 27.714 296.757 26.7292 296.757 25.6023C296.757 24.4659 296.963 23.474 297.375 22.6264C297.792 21.7789 298.369 21.1207 299.108 20.652C299.851 20.1832 300.715 19.9489 301.7 19.9489C302.685 19.9489 303.547 20.1832 304.286 20.652C305.029 21.1207 305.607 21.7789 306.018 22.6264C306.435 23.474 306.643 24.4659 306.643 25.6023C306.643 26.7292 306.435 27.714 306.018 28.5568C305.607 29.3996 305.029 30.0554 304.286 30.5241C303.547 30.9929 302.685 31.2273 301.7 31.2273ZM301.7 29.7216C302.448 29.7216 303.064 29.5298 303.547 29.1463C304.03 28.7628 304.387 28.2585 304.619 27.6335C304.851 27.0085 304.967 26.3314 304.967 25.6023C304.967 24.8731 304.851 24.1937 304.619 23.5639C304.387 22.9342 304.03 22.4252 303.547 22.0369C303.064 21.6487 302.448 21.4545 301.7 21.4545C300.952 21.4545 300.337 21.6487 299.854 22.0369C299.371 22.4252 299.013 22.9342 298.781 23.5639C298.549 24.1937 298.433 24.8731 298.433 25.6023C298.433 26.3314 298.549 27.0085 298.781 27.6335C299.013 28.2585 299.371 28.7628 299.854 29.1463C300.337 29.5298 300.952 29.7216 301.7 29.7216ZM316.077 26.5398V20.0909H317.753V31H316.077V29.1534H315.963C315.708 29.7074 315.31 30.1785 314.77 30.5668C314.23 30.9503 313.549 31.142 312.725 31.142C312.043 31.142 311.437 30.9929 310.907 30.6946C310.376 30.3916 309.96 29.937 309.657 29.331C309.354 28.7202 309.202 27.9508 309.202 27.0227V20.0909H310.878V26.9091C310.878 27.7045 311.101 28.339 311.546 28.8125C311.996 29.286 312.569 29.5227 313.265 29.5227C313.681 29.5227 314.105 29.4162 314.536 29.2031C314.971 28.9901 315.336 28.6634 315.63 28.223C315.928 27.7827 316.077 27.2216 316.077 26.5398ZM320.823 31V20.0909H322.442V21.7386H322.556C322.755 21.1989 323.115 20.7609 323.636 20.4247C324.156 20.0885 324.744 19.9205 325.397 19.9205C325.52 19.9205 325.674 19.9228 325.859 19.9276C326.043 19.9323 326.183 19.9394 326.278 19.9489V21.6534C326.221 21.6392 326.091 21.6179 325.887 21.5895C325.688 21.5563 325.478 21.5398 325.255 21.5398C324.725 21.5398 324.251 21.651 323.835 21.8736C323.423 22.0914 323.096 22.3944 322.854 22.7827C322.618 23.1662 322.499 23.6042 322.499 24.0966V31H320.823ZM338.463 31.2273C337.412 31.2273 336.506 30.9953 335.743 30.5312C334.986 30.0625 334.401 29.4091 333.989 28.571C333.582 27.7282 333.378 26.7481 333.378 25.6307C333.378 24.5133 333.582 23.5284 333.989 22.6761C334.401 21.8191 334.974 21.1515 335.708 20.6733C336.446 20.1903 337.308 19.9489 338.293 19.9489C338.861 19.9489 339.422 20.0436 339.976 20.233C340.53 20.4223 341.034 20.7301 341.489 21.1562C341.944 21.5777 342.306 22.1364 342.576 22.8324C342.846 23.5284 342.98 24.3854 342.98 25.4034V26.1136H334.571V24.6648H341.276C341.276 24.0492 341.153 23.5 340.907 23.017C340.665 22.5341 340.319 22.1529 339.87 21.8736C339.425 21.5942 338.899 21.4545 338.293 21.4545C337.625 21.4545 337.048 21.6203 336.56 21.9517C336.077 22.2784 335.705 22.7045 335.445 23.2301C335.185 23.7557 335.054 24.3191 335.054 24.9205V25.8864C335.054 26.7102 335.196 27.4086 335.48 27.9815C335.769 28.5497 336.169 28.983 336.681 29.2812C337.192 29.5748 337.786 29.7216 338.463 29.7216C338.904 29.7216 339.301 29.66 339.657 29.5369C340.016 29.4091 340.327 29.2197 340.587 28.9688C340.847 28.7131 341.049 28.3958 341.191 28.017L342.81 28.4716C342.64 29.0208 342.353 29.5038 341.951 29.9205C341.548 30.3324 341.051 30.6544 340.459 30.8864C339.867 31.1136 339.202 31.2273 338.463 31.2273ZM346.278 35.0909C345.994 35.0909 345.74 35.0672 345.518 35.0199C345.295 34.9773 345.141 34.9347 345.056 34.892L345.482 33.4148C345.889 33.5189 346.249 33.5568 346.562 33.5284C346.874 33.5 347.151 33.3603 347.393 33.1094C347.639 32.8632 347.864 32.4631 348.067 31.9091L348.38 31.0568L344.346 20.0909H346.164L349.175 28.7841H349.289L352.3 20.0909H354.119L349.488 32.5909C349.28 33.1544 349.022 33.6207 348.714 33.9901C348.406 34.3641 348.049 34.6411 347.641 34.821C347.239 35.0009 346.784 35.0909 346.278 35.0909ZM360.514 31.2273C359.463 31.2273 358.556 30.9953 357.794 30.5312C357.036 30.0625 356.452 29.4091 356.04 28.571C355.633 27.7282 355.429 26.7481 355.429 25.6307C355.429 24.5133 355.633 23.5284 356.04 22.6761C356.452 21.8191 357.025 21.1515 357.759 20.6733C358.497 20.1903 359.359 19.9489 360.344 19.9489C360.912 19.9489 361.473 20.0436 362.027 20.233C362.581 20.4223 363.085 20.7301 363.54 21.1562C363.994 21.5777 364.357 22.1364 364.626 22.8324C364.896 23.5284 365.031 24.3854 365.031 25.4034V26.1136H356.622V24.6648H363.327C363.327 24.0492 363.204 23.5 362.957 23.017C362.716 22.5341 362.37 22.1529 361.92 21.8736C361.475 21.5942 360.95 21.4545 360.344 21.4545C359.676 21.4545 359.098 21.6203 358.611 21.9517C358.128 22.2784 357.756 22.7045 357.496 23.2301C357.235 23.7557 357.105 24.3191 357.105 24.9205V25.8864C357.105 26.7102 357.247 27.4086 357.531 27.9815C357.82 28.5497 358.22 28.983 358.732 29.2812C359.243 29.5748 359.837 29.7216 360.514 29.7216C360.955 29.7216 361.352 29.66 361.707 29.5369C362.067 29.4091 362.377 29.2197 362.638 28.9688C362.898 28.7131 363.099 28.3958 363.241 28.017L364.861 28.4716C364.69 29.0208 364.404 29.5038 364.001 29.9205C363.599 30.3324 363.102 30.6544 362.51 30.8864C361.918 31.1136 361.253 31.2273 360.514 31.2273ZM375.308 22.5341L373.803 22.9602C373.708 22.7093 373.568 22.4654 373.384 22.2287C373.204 21.9872 372.957 21.7884 372.645 21.6321C372.332 21.4759 371.932 21.3977 371.445 21.3977C370.777 21.3977 370.221 21.5516 369.776 21.8594C369.335 22.1624 369.115 22.5483 369.115 23.017C369.115 23.4337 369.267 23.7628 369.57 24.0043C369.873 24.2457 370.346 24.447 370.99 24.608L372.609 25.0057C373.585 25.2424 374.312 25.6046 374.79 26.0923C375.268 26.5753 375.507 27.1979 375.507 27.9602C375.507 28.5852 375.327 29.1439 374.967 29.6364C374.612 30.1288 374.115 30.517 373.476 30.8011C372.837 31.0852 372.093 31.2273 371.246 31.2273C370.133 31.2273 369.212 30.9858 368.483 30.5028C367.754 30.0199 367.292 29.3144 367.098 28.3864L368.689 27.9886C368.84 28.5758 369.127 29.0161 369.548 29.3097C369.974 29.6032 370.531 29.75 371.217 29.75C371.999 29.75 372.619 29.5843 373.078 29.2528C373.542 28.9167 373.774 28.5142 373.774 28.0455C373.774 27.6667 373.642 27.3494 373.376 27.0938C373.111 26.8333 372.704 26.6392 372.155 26.5114L370.337 26.0852C369.338 25.8485 368.604 25.4815 368.135 24.9844C367.671 24.4825 367.439 23.8551 367.439 23.1023C367.439 22.4867 367.612 21.9422 367.957 21.4688C368.308 20.9953 368.784 20.6236 369.385 20.3537C369.991 20.0838 370.678 19.9489 371.445 19.9489C372.524 19.9489 373.372 20.1856 373.987 20.6591C374.607 21.1326 375.048 21.7576 375.308 22.5341ZM51.0966 59.0227L51.0682 56.9489H51.4091L56.1818 52.0909H58.2557L53.1705 57.233H53.0284L51.0966 59.0227ZM49.5341 63V48.4545H51.2102V63H49.5341ZM56.4659 63L52.2045 57.6023L53.3977 56.4375L58.5966 63H56.4659ZM62.0891 56.4375V63H60.413V52.0909H62.0323V53.7955H62.1744C62.43 53.2415 62.8183 52.7964 63.3391 52.4602C63.86 52.1193 64.5323 51.9489 65.3562 51.9489C66.0948 51.9489 66.7411 52.1004 67.2951 52.4034C67.8491 52.7017 68.2799 53.1562 68.5877 53.767C68.8955 54.3731 69.0494 55.1402 69.0494 56.0682V63H67.3732V56.1818C67.3732 55.3248 67.1507 54.6572 66.7056 54.179C66.2605 53.696 65.6497 53.4545 64.8732 53.4545C64.3382 53.4545 63.86 53.5705 63.4386 53.8026C63.0219 54.0346 62.6928 54.3731 62.4513 54.8182C62.2099 55.2633 62.0891 55.803 62.0891 56.4375ZM76.544 63.2273C75.5592 63.2273 74.6951 62.9929 73.9517 62.5241C73.2131 62.0554 72.6354 61.3996 72.2188 60.5568C71.8068 59.714 71.6009 58.7292 71.6009 57.6023C71.6009 56.4659 71.8068 55.474 72.2188 54.6264C72.6354 53.7789 73.2131 53.1207 73.9517 52.652C74.6951 52.1832 75.5592 51.9489 76.544 51.9489C77.5289 51.9489 78.3906 52.1832 79.1293 52.652C79.8726 53.1207 80.4503 53.7789 80.8622 54.6264C81.2789 55.474 81.4872 56.4659 81.4872 57.6023C81.4872 58.7292 81.2789 59.714 80.8622 60.5568C80.4503 61.3996 79.8726 62.0554 79.1293 62.5241C78.3906 62.9929 77.5289 63.2273 76.544 63.2273ZM76.544 61.7216C77.2921 61.7216 77.9077 61.5298 78.3906 61.1463C78.8736 60.7628 79.2311 60.2585 79.4631 59.6335C79.6951 59.0085 79.8111 58.3314 79.8111 57.6023C79.8111 56.8731 79.6951 56.1937 79.4631 55.5639C79.2311 54.9342 78.8736 54.4252 78.3906 54.0369C77.9077 53.6487 77.2921 53.4545 76.544 53.4545C75.7959 53.4545 75.1804 53.6487 74.6974 54.0369C74.2145 54.4252 73.857 54.9342 73.625 55.5639C73.393 56.1937 73.277 56.8731 73.277 57.6023C73.277 58.3314 73.393 59.0085 73.625 59.6335C73.857 60.2585 74.2145 60.7628 74.6974 61.1463C75.1804 61.5298 75.7959 61.7216 76.544 61.7216ZM86.1463 63L82.8224 52.0909H84.5838L86.9418 60.4432H87.0554L89.3849 52.0909H91.1747L93.4759 60.4148H93.5895L95.9474 52.0909H97.7088L94.3849 63H92.7372L90.3509 54.6193H90.1804L87.794 63H86.1463ZM108.021 63L104.697 52.0909H106.459L108.817 60.4432H108.93L111.26 52.0909H113.05L115.351 60.4148H115.464L117.822 52.0909H119.584L116.26 63H114.612L112.226 54.6193H112.055L109.669 63H108.021ZM123.476 56.4375V63H121.8V48.4545H123.476V53.7955H123.618C123.874 53.232 124.257 52.7846 124.768 52.4531C125.285 52.117 125.971 51.9489 126.828 51.9489C127.571 51.9489 128.223 52.098 128.781 52.3963C129.34 52.6899 129.773 53.142 130.081 53.7528C130.393 54.3589 130.55 55.1307 130.55 56.0682V63H128.874V56.1818C128.874 55.3153 128.649 54.6454 128.199 54.1719C127.754 53.6937 127.136 53.4545 126.345 53.4545C125.796 53.4545 125.304 53.5705 124.868 53.8026C124.437 54.0346 124.096 54.3731 123.845 54.8182C123.599 55.2633 123.476 55.803 123.476 56.4375ZM138.19 63.2273C137.139 63.2273 136.232 62.9953 135.47 62.5312C134.712 62.0625 134.127 61.4091 133.716 60.571C133.308 59.7282 133.105 58.7481 133.105 57.6307C133.105 56.5133 133.308 55.5284 133.716 54.6761C134.127 53.8191 134.7 53.1515 135.434 52.6733C136.173 52.1903 137.035 51.9489 138.02 51.9489C138.588 51.9489 139.149 52.0436 139.703 52.233C140.257 52.4223 140.761 52.7301 141.216 53.1562C141.67 53.5777 142.032 54.1364 142.302 54.8324C142.572 55.5284 142.707 56.3854 142.707 57.4034V58.1136H134.298V56.6648H141.002C141.002 56.0492 140.879 55.5 140.633 55.017C140.392 54.5341 140.046 54.1529 139.596 53.8736C139.151 53.5942 138.626 53.4545 138.02 53.4545C137.352 53.4545 136.774 53.6203 136.287 53.9517C135.804 54.2784 135.432 54.7045 135.172 55.2301C134.911 55.7557 134.781 56.3191 134.781 56.9205V57.8864C134.781 58.7102 134.923 59.4086 135.207 59.9815C135.496 60.5497 135.896 60.983 136.407 61.2812C136.919 61.5748 137.513 61.7216 138.19 61.7216C138.63 61.7216 139.028 61.66 139.383 61.5369C139.743 61.4091 140.053 61.2197 140.314 60.9688C140.574 60.7131 140.775 60.3958 140.917 60.017L142.537 60.4716C142.366 61.0208 142.08 61.5038 141.677 61.9205C141.275 62.3324 140.778 62.6544 140.186 62.8864C139.594 63.1136 138.929 63.2273 138.19 63.2273ZM145.257 63V52.0909H146.876V53.7386H146.99C147.189 53.1989 147.548 52.7609 148.069 52.4247C148.59 52.0885 149.177 51.9205 149.831 51.9205C149.954 51.9205 150.108 51.9228 150.292 51.9276C150.477 51.9323 150.617 51.9394 150.711 51.9489V53.6534C150.654 53.6392 150.524 53.6179 150.321 53.5895C150.122 53.5563 149.911 53.5398 149.689 53.5398C149.158 53.5398 148.685 53.651 148.268 53.8736C147.856 54.0914 147.529 54.3944 147.288 54.7827C147.051 55.1662 146.933 55.6042 146.933 56.0966V63H145.257ZM156.94 63.2273C155.889 63.2273 154.982 62.9953 154.22 62.5312C153.462 62.0625 152.877 61.4091 152.466 60.571C152.058 59.7282 151.855 58.7481 151.855 57.6307C151.855 56.5133 152.058 55.5284 152.466 54.6761C152.877 53.8191 153.45 53.1515 154.184 52.6733C154.923 52.1903 155.785 51.9489 156.77 51.9489C157.338 51.9489 157.899 52.0436 158.453 52.233C159.007 52.4223 159.511 52.7301 159.966 53.1562C160.42 53.5777 160.782 54.1364 161.052 54.8324C161.322 55.5284 161.457 56.3854 161.457 57.4034V58.1136H153.048V56.6648H159.752C159.752 56.0492 159.629 55.5 159.383 55.017C159.142 54.5341 158.796 54.1529 158.346 53.8736C157.901 53.5942 157.376 53.4545 156.77 53.4545C156.102 53.4545 155.524 53.6203 155.037 53.9517C154.554 54.2784 154.182 54.7045 153.922 55.2301C153.661 55.7557 153.531 56.3191 153.531 56.9205V57.8864C153.531 58.7102 153.673 59.4086 153.957 59.9815C154.246 60.5497 154.646 60.983 155.157 61.2812C155.669 61.5748 156.263 61.7216 156.94 61.7216C157.38 61.7216 157.778 61.66 158.133 61.5369C158.493 61.4091 158.803 61.2197 159.064 60.9688C159.324 60.7131 159.525 60.3958 159.667 60.017L161.287 60.4716C161.116 61.0208 160.83 61.5038 160.427 61.9205C160.025 62.3324 159.528 62.6544 158.936 62.8864C158.344 63.1136 157.679 63.2273 156.94 63.2273ZM174.376 52.0909V53.5114H168.723V52.0909H174.376ZM170.37 49.4773H172.047V59.875C172.047 60.3485 172.115 60.7036 172.252 60.9403C172.395 61.1723 172.574 61.3286 172.792 61.4091C173.015 61.4848 173.249 61.5227 173.495 61.5227C173.68 61.5227 173.832 61.5133 173.95 61.4943C174.068 61.4706 174.163 61.4517 174.234 61.4375L174.575 62.9432C174.461 62.9858 174.303 63.0284 174.099 63.071C173.895 63.1184 173.637 63.142 173.325 63.142C172.851 63.142 172.387 63.0402 171.933 62.8366C171.483 62.633 171.109 62.3229 170.811 61.9062C170.517 61.4896 170.37 60.964 170.37 60.3295V49.4773ZM181.212 63.2273C180.227 63.2273 179.363 62.9929 178.62 62.5241C177.881 62.0554 177.303 61.3996 176.887 60.5568C176.475 59.714 176.269 58.7292 176.269 57.6023C176.269 56.4659 176.475 55.474 176.887 54.6264C177.303 53.7789 177.881 53.1207 178.62 52.652C179.363 52.1832 180.227 51.9489 181.212 51.9489C182.197 51.9489 183.059 52.1832 183.797 52.652C184.541 53.1207 185.118 53.7789 185.53 54.6264C185.947 55.474 186.155 56.4659 186.155 57.6023C186.155 58.7292 185.947 59.714 185.53 60.5568C185.118 61.3996 184.541 62.0554 183.797 62.5241C183.059 62.9929 182.197 63.2273 181.212 63.2273ZM181.212 61.7216C181.96 61.7216 182.576 61.5298 183.059 61.1463C183.542 60.7628 183.899 60.2585 184.131 59.6335C184.363 59.0085 184.479 58.3314 184.479 57.6023C184.479 56.8731 184.363 56.1937 184.131 55.5639C183.899 54.9342 183.542 54.4252 183.059 54.0369C182.576 53.6487 181.96 53.4545 181.212 53.4545C180.464 53.4545 179.848 53.6487 179.365 54.0369C178.882 54.4252 178.525 54.9342 178.293 55.5639C178.061 56.1937 177.945 56.8731 177.945 57.6023C177.945 58.3314 178.061 59.0085 178.293 59.6335C178.525 60.2585 178.882 60.7628 179.365 61.1463C179.848 61.5298 180.464 61.7216 181.212 61.7216ZM194.339 52.0909H196.015V63.7955C196.015 64.4678 195.899 65.0502 195.667 65.5426C195.44 66.035 195.094 66.4162 194.63 66.6861C194.171 66.956 193.591 67.0909 192.89 67.0909C192.833 67.0909 192.776 67.0909 192.719 67.0909C192.663 67.0909 192.606 67.0909 192.549 67.0909V65.5284C192.606 65.5284 192.658 65.5284 192.705 65.5284C192.753 65.5284 192.805 65.5284 192.862 65.5284C193.373 65.5284 193.747 65.3769 193.984 65.0739C194.22 64.7756 194.339 64.3494 194.339 63.7955V52.0909ZM195.163 50.2727C194.836 50.2727 194.554 50.1615 194.317 49.9389C194.085 49.7164 193.969 49.4489 193.969 49.1364C193.969 48.8239 194.085 48.5563 194.317 48.3338C194.554 48.1113 194.836 48 195.163 48C195.489 48 195.769 48.1113 196.001 48.3338C196.237 48.5563 196.356 48.8239 196.356 49.1364C196.356 49.4489 196.237 49.7164 196.001 49.9389C195.769 50.1615 195.489 50.2727 195.163 50.2727ZM205.96 58.5398V52.0909H207.636V63H205.96V61.1534H205.846C205.591 61.7074 205.193 62.1785 204.653 62.5668C204.113 62.9503 203.431 63.142 202.608 63.142C201.926 63.142 201.32 62.9929 200.789 62.6946C200.259 62.3916 199.842 61.937 199.539 61.331C199.236 60.7202 199.085 59.9508 199.085 59.0227V52.0909H200.761V58.9091C200.761 59.7045 200.984 60.339 201.429 60.8125C201.878 61.286 202.451 61.5227 203.147 61.5227C203.564 61.5227 203.988 61.4162 204.419 61.2031C204.854 60.9901 205.219 60.6634 205.512 60.223C205.811 59.7827 205.96 59.2216 205.96 58.5398ZM210.706 63V52.0909H212.325V53.7955H212.467C212.695 53.2131 213.062 52.7609 213.568 52.4389C214.075 52.1122 214.683 51.9489 215.393 51.9489C216.113 51.9489 216.712 52.1122 217.19 52.4389C217.673 52.7609 218.05 53.2131 218.32 53.7955H218.433C218.713 53.232 219.132 52.7846 219.69 52.4531C220.249 52.117 220.919 51.9489 221.7 51.9489C222.676 51.9489 223.473 52.2543 224.094 52.8651C224.714 53.4711 225.024 54.4157 225.024 55.6989V63H223.348V55.6989C223.348 54.8939 223.128 54.3187 222.688 53.973C222.247 53.6274 221.729 53.4545 221.132 53.4545C220.365 53.4545 219.771 53.6866 219.349 54.1506C218.928 54.6098 218.717 55.1922 218.717 55.8977V63H217.013V55.5284C217.013 54.9081 216.812 54.4086 216.409 54.0298C216.007 53.6463 215.488 53.4545 214.854 53.4545C214.418 53.4545 214.011 53.5705 213.632 53.8026C213.258 54.0346 212.955 54.3565 212.723 54.7685C212.496 55.1757 212.382 55.6468 212.382 56.1818V63H210.706ZM228.089 67.0909V52.0909H229.708V53.8239H229.907C230.03 53.6345 230.201 53.393 230.418 53.0994C230.641 52.8011 230.958 52.536 231.37 52.304C231.787 52.0672 232.35 51.9489 233.06 51.9489C233.979 51.9489 234.789 52.1785 235.489 52.6378C236.19 53.0971 236.737 53.7481 237.13 54.5909C237.523 55.4337 237.719 56.428 237.719 57.5739C237.719 58.7292 237.523 59.7306 237.13 60.5781C236.737 61.4209 236.192 62.0743 235.496 62.5384C234.8 62.9976 233.998 63.2273 233.089 63.2273C232.388 63.2273 231.827 63.1113 231.406 62.8793C230.984 62.6425 230.66 62.375 230.433 62.0767C230.205 61.7737 230.03 61.5227 229.907 61.3239H229.765V67.0909H228.089ZM229.737 57.5455C229.737 58.3693 229.857 59.0961 230.099 59.7259C230.34 60.3509 230.693 60.8409 231.157 61.196C231.621 61.5464 232.189 61.7216 232.862 61.7216C233.562 61.7216 234.147 61.5369 234.616 61.1676C235.089 60.7936 235.444 60.2917 235.681 59.6619C235.923 59.0275 236.043 58.322 236.043 57.5455C236.043 56.7784 235.925 56.0871 235.688 55.4716C235.456 54.8513 235.103 54.3613 234.63 54.0014C234.161 53.6368 233.572 53.4545 232.862 53.4545C232.18 53.4545 231.607 53.6274 231.143 53.973C230.679 54.3139 230.328 54.7921 230.092 55.4077C229.855 56.0185 229.737 56.7311 229.737 57.5455ZM242.776 61.0114L242.663 61.7784C242.582 62.3182 242.459 62.8958 242.293 63.5114C242.132 64.1269 241.964 64.7069 241.789 65.2514C241.614 65.7959 241.469 66.2292 241.356 66.5511H240.077C240.139 66.2481 240.219 65.848 240.319 65.3509C240.418 64.8537 240.518 64.2973 240.617 63.6818C240.721 63.071 240.807 62.446 240.873 61.8068L240.958 61.0114H242.776ZM251.507 63V52.0909H253.183V63H251.507ZM252.359 50.2727C252.032 50.2727 251.751 50.1615 251.514 49.9389C251.282 49.7164 251.166 49.4489 251.166 49.1364C251.166 48.8239 251.282 48.5563 251.514 48.3338C251.751 48.1113 252.032 48 252.359 48C252.686 48 252.965 48.1113 253.197 48.3338C253.434 48.5563 253.552 48.8239 253.552 49.1364C253.552 49.4489 253.434 49.7164 253.197 49.9389C252.965 50.1615 252.686 50.2727 252.359 50.2727ZM257.929 56.4375V63H256.253V52.0909H257.872V53.7955H258.014C258.27 53.2415 258.658 52.7964 259.179 52.4602C259.7 52.1193 260.372 51.9489 261.196 51.9489C261.935 51.9489 262.581 52.1004 263.135 52.4034C263.689 52.7017 264.12 53.1562 264.428 53.767C264.735 54.3731 264.889 55.1402 264.889 56.0682V63H263.213V56.1818C263.213 55.3248 262.991 54.6572 262.545 54.179C262.1 53.696 261.49 53.4545 260.713 53.4545C260.178 53.4545 259.7 53.5705 259.278 53.8026C258.862 54.0346 258.533 54.3731 258.291 54.8182C258.05 55.2633 257.929 55.803 257.929 56.4375ZM272.384 63.2273C271.361 63.2273 270.48 62.9858 269.742 62.5028C269.003 62.0199 268.435 61.3546 268.037 60.5071C267.64 59.6596 267.441 58.6913 267.441 57.6023C267.441 56.4943 267.644 55.5166 268.051 54.669C268.463 53.8168 269.036 53.1515 269.77 52.6733C270.509 52.1903 271.371 51.9489 272.355 51.9489C273.123 51.9489 273.814 52.0909 274.429 52.375C275.045 52.6591 275.549 53.0568 275.942 53.5682C276.335 54.0795 276.579 54.6761 276.674 55.358H274.998C274.87 54.8608 274.586 54.4205 274.145 54.0369C273.71 53.6487 273.123 53.4545 272.384 53.4545C271.73 53.4545 271.158 53.625 270.665 53.9659C270.177 54.3021 269.796 54.7779 269.522 55.3935C269.252 56.0043 269.117 56.7216 269.117 57.5455C269.117 58.3883 269.249 59.1222 269.515 59.7472C269.784 60.3722 270.163 60.8575 270.651 61.2031C271.143 61.5488 271.721 61.7216 272.384 61.7216C272.819 61.7216 273.215 61.6458 273.57 61.4943C273.925 61.3428 274.226 61.125 274.472 60.8409C274.718 60.5568 274.893 60.2159 274.998 59.8182H276.674C276.579 60.4621 276.345 61.0421 275.971 61.5582C275.601 62.0696 275.111 62.4768 274.5 62.7798C273.894 63.0781 273.189 63.2273 272.384 63.2273ZM279.124 63V52.0909H280.743V53.7386H280.857C281.056 53.1989 281.416 52.7609 281.936 52.4247C282.457 52.0885 283.044 51.9205 283.698 51.9205C283.821 51.9205 283.975 51.9228 284.159 51.9276C284.344 51.9323 284.484 51.9394 284.578 51.9489V53.6534C284.522 53.6392 284.391 53.6179 284.188 53.5895C283.989 53.5563 283.778 53.5398 283.556 53.5398C283.025 53.5398 282.552 53.651 282.135 53.8736C281.723 54.0914 281.397 54.3944 281.155 54.7827C280.918 55.1662 280.8 55.6042 280.8 56.0966V63H279.124ZM290.807 63.2273C289.756 63.2273 288.849 62.9953 288.087 62.5312C287.329 62.0625 286.745 61.4091 286.333 60.571C285.926 59.7282 285.722 58.7481 285.722 57.6307C285.722 56.5133 285.926 55.5284 286.333 54.6761C286.745 53.8191 287.318 53.1515 288.051 52.6733C288.79 52.1903 289.652 51.9489 290.637 51.9489C291.205 51.9489 291.766 52.0436 292.32 52.233C292.874 52.4223 293.378 52.7301 293.833 53.1562C294.287 53.5777 294.65 54.1364 294.919 54.8324C295.189 55.5284 295.324 56.3854 295.324 57.4034V58.1136H286.915V56.6648H293.62C293.62 56.0492 293.497 55.5 293.25 55.017C293.009 54.5341 292.663 54.1529 292.213 53.8736C291.768 53.5942 291.243 53.4545 290.637 53.4545C289.969 53.4545 289.391 53.6203 288.904 53.9517C288.421 54.2784 288.049 54.7045 287.789 55.2301C287.528 55.7557 287.398 56.3191 287.398 56.9205V57.8864C287.398 58.7102 287.54 59.4086 287.824 59.9815C288.113 60.5497 288.513 60.983 289.025 61.2812C289.536 61.5748 290.13 61.7216 290.807 61.7216C291.248 61.7216 291.645 61.66 292 61.5369C292.36 61.4091 292.67 61.2197 292.931 60.9688C293.191 60.7131 293.392 60.3958 293.534 60.017L295.154 60.4716C294.983 61.0208 294.697 61.5038 294.294 61.9205C293.892 62.3324 293.395 62.6544 292.803 62.8864C292.211 63.1136 291.546 63.2273 290.807 63.2273ZM301.084 63.2557C300.393 63.2557 299.766 63.1255 299.202 62.8651C298.639 62.5999 298.191 62.2188 297.86 61.7216C297.528 61.2197 297.363 60.6136 297.363 59.9034C297.363 59.2784 297.486 58.7718 297.732 58.3835C297.978 57.9905 298.307 57.6828 298.719 57.4602C299.131 57.2377 299.586 57.072 300.083 56.9631C300.585 56.8494 301.089 56.7595 301.596 56.6932C302.258 56.608 302.796 56.544 303.208 56.5014C303.624 56.4541 303.927 56.3759 304.117 56.267C304.311 56.1581 304.408 55.9687 304.408 55.6989V55.642C304.408 54.9413 304.216 54.3968 303.833 54.0085C303.454 53.6203 302.879 53.4261 302.107 53.4261C301.307 53.4261 300.679 53.6013 300.225 53.9517C299.77 54.3021 299.451 54.6761 299.266 55.0739L297.675 54.5057C297.959 53.8428 298.338 53.3267 298.811 52.9574C299.29 52.5833 299.81 52.3229 300.374 52.1761C300.942 52.0246 301.501 51.9489 302.05 51.9489C302.4 51.9489 302.803 51.9915 303.257 52.0767C303.717 52.1572 304.159 52.3253 304.586 52.581C305.016 52.8366 305.374 53.2225 305.658 53.7386C305.942 54.2547 306.084 54.946 306.084 55.8125V63H304.408V61.5227H304.323C304.209 61.7595 304.02 62.0128 303.755 62.2827C303.489 62.5526 303.137 62.7822 302.696 62.9716C302.256 63.161 301.719 63.2557 301.084 63.2557ZM301.34 61.75C302.003 61.75 302.561 61.6198 303.016 61.3594C303.475 61.099 303.821 60.7628 304.053 60.3509C304.29 59.9389 304.408 59.5057 304.408 59.0511V57.517C304.337 57.6023 304.181 57.6804 303.939 57.7514C303.703 57.8177 303.428 57.8769 303.115 57.929C302.808 57.9763 302.507 58.0189 302.213 58.0568C301.925 58.09 301.69 58.1184 301.51 58.142C301.075 58.1989 300.667 58.2912 300.289 58.419C299.915 58.5421 299.612 58.7292 299.38 58.9801C299.152 59.2263 299.039 59.5625 299.039 59.9886C299.039 60.571 299.254 61.0114 299.685 61.3097C300.121 61.6032 300.672 61.75 301.34 61.75ZM316.871 54.5341L315.365 54.9602C315.27 54.7093 315.131 54.4654 314.946 54.2287C314.766 53.9872 314.52 53.7884 314.207 53.6321C313.895 53.4759 313.495 53.3977 313.007 53.3977C312.339 53.3977 311.783 53.5516 311.338 53.8594C310.898 54.1624 310.678 54.5483 310.678 55.017C310.678 55.4337 310.829 55.7628 311.132 56.0043C311.435 56.2457 311.909 56.447 312.553 56.608L314.172 57.0057C315.147 57.2424 315.874 57.6046 316.352 58.0923C316.83 58.5753 317.07 59.1979 317.07 59.9602C317.07 60.5852 316.89 61.1439 316.53 61.6364C316.175 62.1288 315.678 62.517 315.038 62.8011C314.399 63.0852 313.656 63.2273 312.808 63.2273C311.696 63.2273 310.775 62.9858 310.045 62.5028C309.316 62.0199 308.855 61.3144 308.661 60.3864L310.251 59.9886C310.403 60.5758 310.689 61.0161 311.111 61.3097C311.537 61.6032 312.093 61.75 312.78 61.75C313.561 61.75 314.181 61.5843 314.641 61.2528C315.105 60.9167 315.337 60.5142 315.337 60.0455C315.337 59.6667 315.204 59.3494 314.939 59.0938C314.674 58.8333 314.267 58.6392 313.717 58.5114L311.899 58.0852C310.9 57.8485 310.166 57.4815 309.697 56.9844C309.233 56.4825 309.001 55.8551 309.001 55.1023C309.001 54.4867 309.174 53.9422 309.52 53.4688C309.87 52.9953 310.346 52.6236 310.947 52.3537C311.554 52.0838 312.24 51.9489 313.007 51.9489C314.087 51.9489 314.934 52.1856 315.55 52.6591C316.17 53.1326 316.61 53.7576 316.871 54.5341ZM319.593 63V52.0909H321.269V63H319.593ZM320.445 50.2727C320.118 50.2727 319.837 50.1615 319.6 49.9389C319.368 49.7164 319.252 49.4489 319.252 49.1364C319.252 48.8239 319.368 48.5563 319.6 48.3338C319.837 48.1113 320.118 48 320.445 48C320.772 48 321.051 48.1113 321.283 48.3338C321.52 48.5563 321.638 48.8239 321.638 49.1364C321.638 49.4489 321.52 49.7164 321.283 49.9389C321.051 50.1615 320.772 50.2727 320.445 50.2727ZM326.015 56.4375V63H324.339V52.0909H325.958V53.7955H326.1C326.356 53.2415 326.744 52.7964 327.265 52.4602C327.786 52.1193 328.458 51.9489 329.282 51.9489C330.021 51.9489 330.667 52.1004 331.221 52.4034C331.775 52.7017 332.206 53.1562 332.513 53.767C332.821 54.3731 332.975 55.1402 332.975 56.0682V63H331.299V56.1818C331.299 55.3248 331.076 54.6572 330.631 54.179C330.186 53.696 329.576 53.4545 328.799 53.4545C328.264 53.4545 327.786 53.5705 327.364 53.8026C326.948 54.0346 326.619 54.3731 326.377 54.8182C326.136 55.2633 326.015 55.803 326.015 56.4375ZM340.441 67.3182C339.632 67.3182 338.936 67.214 338.353 67.0057C337.771 66.8021 337.286 66.5322 336.897 66.196C336.514 65.8646 336.208 65.5095 335.981 65.1307L337.316 64.1932C337.468 64.392 337.66 64.6193 337.892 64.875C338.124 65.1354 338.441 65.3603 338.843 65.5497C339.251 65.7438 339.783 65.8409 340.441 65.8409C341.322 65.8409 342.049 65.6278 342.622 65.2017C343.195 64.7756 343.481 64.108 343.481 63.1989V60.983H343.339C343.216 61.1818 343.041 61.428 342.814 61.7216C342.591 62.0104 342.269 62.2685 341.848 62.4957C341.431 62.7183 340.868 62.8295 340.157 62.8295C339.277 62.8295 338.486 62.6212 337.785 62.2045C337.089 61.7879 336.538 61.1818 336.13 60.3864C335.728 59.5909 335.527 58.625 335.527 57.4886C335.527 56.3712 335.723 55.3982 336.116 54.5696C336.509 53.7363 337.056 53.0923 337.757 52.6378C338.458 52.1785 339.267 51.9489 340.186 51.9489C340.896 51.9489 341.459 52.0672 341.876 52.304C342.297 52.536 342.619 52.8011 342.842 53.0994C343.069 53.393 343.244 53.6345 343.368 53.8239H343.538V52.0909H345.157V63.3125C345.157 64.25 344.944 65.0123 344.518 65.5994C344.097 66.1913 343.529 66.6245 342.814 66.8991C342.103 67.1785 341.313 67.3182 340.441 67.3182ZM340.385 61.3239C341.057 61.3239 341.625 61.17 342.089 60.8622C342.553 60.5545 342.906 60.1117 343.147 59.5341C343.389 58.9564 343.51 58.2652 343.51 57.4602C343.51 56.6742 343.391 55.9806 343.154 55.3793C342.918 54.7779 342.567 54.3068 342.103 53.9659C341.639 53.625 341.066 53.4545 340.385 53.4545C339.674 53.4545 339.083 53.6345 338.609 53.9943C338.14 54.3542 337.788 54.8371 337.551 55.4432C337.319 56.0492 337.203 56.7216 337.203 57.4602C337.203 58.2178 337.321 58.8878 337.558 59.4702C337.799 60.0478 338.154 60.5024 338.623 60.8338C339.097 61.1605 339.684 61.3239 340.385 61.3239ZM49.5341 95V84.0909H51.1534V85.7386H51.267C51.4659 85.1989 51.8258 84.7609 52.3466 84.4247C52.8674 84.0885 53.4545 83.9205 54.108 83.9205C54.2311 83.9205 54.3849 83.9228 54.5696 83.9276C54.7543 83.9323 54.8939 83.9394 54.9886 83.9489V85.6534C54.9318 85.6392 54.8016 85.6179 54.598 85.5895C54.3991 85.5563 54.1884 85.5398 53.9659 85.5398C53.4356 85.5398 52.9621 85.651 52.5455 85.8736C52.1335 86.0914 51.8068 86.3944 51.5653 86.7827C51.3286 87.1662 51.2102 87.6042 51.2102 88.0966V95H49.5341ZM61.2173 95.2273C60.1662 95.2273 59.2595 94.9953 58.4972 94.5312C57.7396 94.0625 57.1548 93.4091 56.7429 92.571C56.3357 91.7282 56.1321 90.7481 56.1321 89.6307C56.1321 88.5133 56.3357 87.5284 56.7429 86.6761C57.1548 85.8191 57.7277 85.1515 58.4616 84.6733C59.2003 84.1903 60.062 83.9489 61.0469 83.9489C61.6151 83.9489 62.1761 84.0436 62.7301 84.233C63.2841 84.4223 63.7884 84.7301 64.2429 85.1562C64.6974 85.5777 65.0597 86.1364 65.3295 86.8324C65.5994 87.5284 65.7344 88.3854 65.7344 89.4034V90.1136H57.3253V88.6648H64.0298C64.0298 88.0492 63.9067 87.5 63.6605 87.017C63.419 86.5341 63.0734 86.1529 62.6236 85.8736C62.1785 85.5942 61.6529 85.4545 61.0469 85.4545C60.3793 85.4545 59.8016 85.6203 59.3139 85.9517C58.831 86.2784 58.4593 86.7045 58.1989 87.2301C57.9384 87.7557 57.8082 88.3191 57.8082 88.9205V89.8864C57.8082 90.7102 57.9503 91.4086 58.2344 91.9815C58.5232 92.5497 58.9233 92.983 59.4347 93.2812C59.946 93.5748 60.5402 93.7216 61.2173 93.7216C61.6577 93.7216 62.0554 93.66 62.4105 93.5369C62.7704 93.4091 63.0805 93.2197 63.3409 92.9688C63.6013 92.7131 63.8026 92.3958 63.9446 92.017L65.5639 92.4716C65.3935 93.0208 65.107 93.5038 64.7045 93.9205C64.3021 94.3324 63.8049 94.6544 63.2131 94.8864C62.6212 95.1136 61.956 95.2273 61.2173 95.2273ZM71.4943 95.2557C70.803 95.2557 70.1757 95.1255 69.6122 94.8651C69.0488 94.5999 68.6013 94.2188 68.2699 93.7216C67.9384 93.2197 67.7727 92.6136 67.7727 91.9034C67.7727 91.2784 67.8958 90.7718 68.142 90.3835C68.3883 89.9905 68.7173 89.6828 69.1293 89.4602C69.5412 89.2377 69.9957 89.072 70.4929 88.9631C70.9948 88.8494 71.4991 88.7595 72.0057 88.6932C72.6686 88.608 73.206 88.544 73.6179 88.5014C74.0346 88.4541 74.3376 88.3759 74.527 88.267C74.7211 88.1581 74.8182 87.9687 74.8182 87.6989V87.642C74.8182 86.9413 74.6264 86.3968 74.2429 86.0085C73.8641 85.6203 73.2888 85.4261 72.517 85.4261C71.7169 85.4261 71.0895 85.6013 70.6349 85.9517C70.1804 86.3021 69.8608 86.6761 69.6761 87.0739L68.0852 86.5057C68.3693 85.8428 68.7481 85.3267 69.2216 84.9574C69.6998 84.5833 70.2206 84.3229 70.7841 84.1761C71.3523 84.0246 71.911 83.9489 72.4602 83.9489C72.8106 83.9489 73.2131 83.9915 73.6676 84.0767C74.1269 84.1572 74.5696 84.3253 74.9957 84.581C75.4266 84.8366 75.7841 85.2225 76.0682 85.7386C76.3523 86.2547 76.4943 86.946 76.4943 87.8125V95H74.8182V93.5227H74.733C74.6193 93.7595 74.4299 94.0128 74.1648 94.2827C73.8996 94.5526 73.5469 94.7822 73.1065 94.9716C72.6662 95.161 72.1288 95.2557 71.4943 95.2557ZM71.75 93.75C72.4129 93.75 72.9716 93.6198 73.4261 93.3594C73.8854 93.099 74.2311 92.7628 74.4631 92.3509C74.6998 91.9389 74.8182 91.5057 74.8182 91.0511V89.517C74.7472 89.6023 74.5909 89.6804 74.3494 89.7514C74.1127 89.8177 73.8381 89.8769 73.5256 89.929C73.2178 89.9763 72.9171 90.0189 72.6236 90.0568C72.3348 90.09 72.1004 90.1184 71.9205 90.142C71.4848 90.1989 71.0777 90.2912 70.6989 90.419C70.3248 90.5421 70.0218 90.7292 69.7898 90.9801C69.5625 91.2263 69.4489 91.5625 69.4489 91.9886C69.4489 92.571 69.6643 93.0114 70.0952 93.3097C70.5308 93.6032 71.0824 93.75 71.75 93.75ZM83.6729 95.2273C82.7638 95.2273 81.9613 94.9976 81.2653 94.5384C80.5692 94.0743 80.0247 93.4209 79.6317 92.5781C79.2388 91.7306 79.0423 90.7292 79.0423 89.5739C79.0423 88.428 79.2388 87.4337 79.6317 86.5909C80.0247 85.7481 80.5716 85.0971 81.2724 84.6378C81.9731 84.1785 82.7828 83.9489 83.7013 83.9489C84.4116 83.9489 84.9727 84.0672 85.3846 84.304C85.8013 84.536 86.1185 84.8011 86.3363 85.0994C86.5588 85.393 86.7317 85.6345 86.8548 85.8239H86.9968V80.4545H88.6729V95H87.0536V93.3239H86.8548C86.7317 93.5227 86.5565 93.7737 86.3292 94.0767C86.1019 94.375 85.7776 94.6425 85.3562 94.8793C84.9348 95.1113 84.3737 95.2273 83.6729 95.2273ZM83.9002 93.7216C84.5726 93.7216 85.1407 93.5464 85.6048 93.196C86.0688 92.8409 86.4215 92.3509 86.663 91.7259C86.9045 91.0961 87.0252 90.3693 87.0252 89.5455C87.0252 88.7311 86.9068 88.0185 86.6701 87.4077C86.4334 86.7921 86.083 86.3139 85.619 85.973C85.1549 85.6274 84.582 85.4545 83.9002 85.4545C83.19 85.4545 82.5981 85.6368 82.1246 86.0014C81.6559 86.3613 81.3031 86.8513 81.0664 87.4716C80.8344 88.0871 80.7184 88.7784 80.7184 89.5455C80.7184 90.322 80.8368 91.0275 81.0735 91.6619C81.315 92.2917 81.6701 92.7936 82.1388 93.1676C82.6123 93.5369 83.1995 93.7216 83.9002 93.7216ZM95.1857 95.2557C94.4944 95.2557 93.8671 95.1255 93.3036 94.8651C92.7402 94.5999 92.2927 94.2188 91.9613 93.7216C91.6299 93.2197 91.4641 92.6136 91.4641 91.9034C91.4641 91.2784 91.5872 90.7718 91.8335 90.3835C92.0797 89.9905 92.4087 89.6828 92.8207 89.4602C93.2326 89.2377 93.6871 89.072 94.1843 88.9631C94.6862 88.8494 95.1905 88.7595 95.6971 88.6932C96.36 88.608 96.8974 88.544 97.3093 88.5014C97.726 88.4541 98.029 88.3759 98.2184 88.267C98.4125 88.1581 98.5096 87.9687 98.5096 87.6989V87.642C98.5096 86.9413 98.3178 86.3968 97.9343 86.0085C97.5555 85.6203 96.9802 85.4261 96.2085 85.4261C95.4083 85.4261 94.7809 85.6013 94.3263 85.9517C93.8718 86.3021 93.5522 86.6761 93.3675 87.0739L91.7766 86.5057C92.0607 85.8428 92.4395 85.3267 92.913 84.9574C93.3912 84.5833 93.9121 84.3229 94.4755 84.1761C95.0437 84.0246 95.6024 83.9489 96.1516 83.9489C96.502 83.9489 96.9045 83.9915 97.359 84.0767C97.8183 84.1572 98.261 84.3253 98.6871 84.581C99.118 84.8366 99.4755 85.2225 99.7596 85.7386C100.044 86.2547 100.186 86.946 100.186 87.8125V95H98.5096V93.5227H98.4244C98.3107 93.7595 98.1213 94.0128 97.8562 94.2827C97.591 94.5526 97.2383 94.7822 96.7979 94.9716C96.3576 95.161 95.8202 95.2557 95.1857 95.2557ZM95.4414 93.75C96.1043 93.75 96.663 93.6198 97.1175 93.3594C97.5768 93.099 97.9225 92.7628 98.1545 92.3509C98.3912 91.9389 98.5096 91.5057 98.5096 91.0511V89.517C98.4386 89.6023 98.2823 89.6804 98.0408 89.7514C97.8041 89.8177 97.5295 89.8769 97.217 89.929C96.9092 89.9763 96.6085 90.0189 96.315 90.0568C96.0262 90.09 95.7918 90.1184 95.6119 90.142C95.1763 90.1989 94.7691 90.2912 94.3903 90.419C94.0162 90.5421 93.7132 90.7292 93.4812 90.9801C93.2539 91.2263 93.1403 91.5625 93.1403 91.9886C93.1403 92.571 93.3557 93.0114 93.7866 93.3097C94.2222 93.6032 94.7738 93.75 95.4414 93.75ZM103.472 95V80.4545H105.148V85.8239H105.29C105.414 85.6345 105.584 85.393 105.802 85.0994C106.024 84.8011 106.342 84.536 106.754 84.304C107.17 84.0672 107.734 83.9489 108.444 83.9489C109.362 83.9489 110.172 84.1785 110.873 84.6378C111.574 85.0971 112.121 85.7481 112.513 86.5909C112.906 87.4337 113.103 88.428 113.103 89.5739C113.103 90.7292 112.906 91.7306 112.513 92.5781C112.121 93.4209 111.576 94.0743 110.88 94.5384C110.184 94.9976 109.381 95.2273 108.472 95.2273C107.772 95.2273 107.21 95.1113 106.789 94.8793C106.368 94.6425 106.043 94.375 105.816 94.0767C105.589 93.7737 105.414 93.5227 105.29 93.3239H105.092V95H103.472ZM105.12 89.5455C105.12 90.3693 105.241 91.0961 105.482 91.7259C105.724 92.3509 106.076 92.8409 106.54 93.196C107.004 93.5464 107.573 93.7216 108.245 93.7216C108.946 93.7216 109.531 93.5369 109.999 93.1676C110.473 92.7936 110.828 92.2917 111.065 91.6619C111.306 91.0275 111.427 90.322 111.427 89.5455C111.427 88.7784 111.308 88.0871 111.072 87.4716C110.84 86.8513 110.487 86.3613 110.013 86.0014C109.545 85.6368 108.955 85.4545 108.245 85.4545C107.563 85.4545 106.99 85.6274 106.526 85.973C106.062 86.3139 105.712 86.7921 105.475 87.4077C105.238 88.0185 105.12 88.7311 105.12 89.5455ZM115.667 95V84.0909H117.343V95H115.667ZM116.519 82.2727C116.192 82.2727 115.911 82.1615 115.674 81.9389C115.442 81.7164 115.326 81.4489 115.326 81.1364C115.326 80.8239 115.442 80.5563 115.674 80.3338C115.911 80.1113 116.192 80 116.519 80C116.846 80 117.125 80.1113 117.357 80.3338C117.594 80.5563 117.712 80.8239 117.712 81.1364C117.712 81.4489 117.594 81.7164 117.357 81.9389C117.125 82.1615 116.846 82.2727 116.519 82.2727ZM122.089 80.4545V95H120.413V80.4545H122.089ZM125.159 95V84.0909H126.835V95H125.159ZM126.011 82.2727C125.685 82.2727 125.403 82.1615 125.166 81.9389C124.934 81.7164 124.818 81.4489 124.818 81.1364C124.818 80.8239 124.934 80.5563 125.166 80.3338C125.403 80.1113 125.685 80 126.011 80C126.338 80 126.617 80.1113 126.849 80.3338C127.086 80.5563 127.205 80.8239 127.205 81.1364C127.205 81.4489 127.086 81.7164 126.849 81.9389C126.617 82.1615 126.338 82.2727 126.011 82.2727ZM134.65 84.0909V85.5114H128.996V84.0909H134.65ZM130.644 81.4773H132.32V91.875C132.32 92.3485 132.389 92.7036 132.526 92.9403C132.668 93.1723 132.848 93.3286 133.066 93.4091C133.288 93.4848 133.523 93.5227 133.769 93.5227C133.953 93.5227 134.105 93.5133 134.223 93.4943C134.342 93.4706 134.436 93.4517 134.507 93.4375L134.848 94.9432C134.735 94.9858 134.576 95.0284 134.373 95.071C134.169 95.1184 133.911 95.142 133.598 95.142C133.125 95.142 132.661 95.0402 132.206 94.8366C131.757 94.633 131.382 94.3229 131.084 93.9062C130.791 93.4896 130.644 92.964 130.644 92.3295V81.4773ZM138.25 99.0909C137.966 99.0909 137.713 99.0672 137.49 99.0199C137.268 98.9773 137.114 98.9347 137.029 98.892L137.455 97.4148C137.862 97.5189 138.222 97.5568 138.534 97.5284C138.847 97.5 139.124 97.3603 139.365 97.1094C139.612 96.8632 139.837 96.4631 140.04 95.9091L140.353 95.0568L136.319 84.0909H138.137L141.148 92.7841H141.262L144.273 84.0909H146.091L141.461 96.5909C141.252 97.1544 140.994 97.6207 140.686 97.9901C140.379 98.3641 140.021 98.6411 139.614 98.821C139.212 99.0009 138.757 99.0909 138.25 99.0909Z" fill="black"/>
</svg>
