<svg width="300" height="74" viewBox="0 0 300 74" fill="none" xmlns="http://www.w3.org/2000/svg">
<path d="M29.9972 19L26.0199 4.45455H27.8097L30.8494 16.3011H30.9915L34.0881 4.45455H36.0767L39.1733 16.3011H39.3153L42.3551 4.45455H44.1449L40.1676 19H38.3494L35.1392 7.40909H35.0256L31.8153 19H29.9972ZM47.7884 12.4375V19H46.1122V4.45455H47.7884V9.79545H47.9304C48.1861 9.23201 48.5696 8.78456 49.081 8.45312C49.5971 8.11695 50.2836 7.94886 51.1406 7.94886C51.884 7.94886 52.535 8.09801 53.0938 8.39631C53.6525 8.68987 54.0857 9.14205 54.3935 9.75284C54.706 10.3589 54.8622 11.1307 54.8622 12.0682V19H53.1861V12.1818C53.1861 11.3153 52.9612 10.6454 52.5114 10.1719C52.0663 9.69366 51.4484 9.45455 50.6577 9.45455C50.1084 9.45455 49.616 9.57055 49.1804 9.80256C48.7495 10.0346 48.4086 10.3731 48.1577 10.8182C47.9115 11.2633 47.7884 11.803 47.7884 12.4375ZM62.5025 19.2273C61.4513 19.2273 60.5446 18.9953 59.7823 18.5312C59.0247 18.0625 58.44 17.4091 58.0281 16.571C57.6209 15.7282 57.4173 14.7481 57.4173 13.6307C57.4173 12.5133 57.6209 11.5284 58.0281 10.6761C58.44 9.81913 59.0129 9.15152 59.7468 8.6733C60.4854 8.19034 61.3472 7.94886 62.332 7.94886C62.9002 7.94886 63.4613 8.04356 64.0153 8.23295C64.5692 8.42235 65.0735 8.73011 65.5281 9.15625C65.9826 9.57765 66.3448 10.1364 66.6147 10.8324C66.8846 11.5284 67.0195 12.3854 67.0195 13.4034V14.1136H58.6104V12.6648H65.315C65.315 12.0492 65.1919 11.5 64.9457 11.017C64.7042 10.5341 64.3585 10.1529 63.9087 9.87358C63.4637 9.59422 62.9381 9.45455 62.332 9.45455C61.6644 9.45455 61.0868 9.62026 60.5991 9.9517C60.1161 10.2784 59.7444 10.7045 59.484 11.2301C59.2236 11.7557 59.0934 12.3191 59.0934 12.9205V13.8864C59.0934 14.7102 59.2354 15.4086 59.5195 15.9815C59.8084 16.5497 60.2085 16.983 60.7198 17.2812C61.2312 17.5748 61.8254 17.7216 62.5025 17.7216C62.9428 17.7216 63.3406 17.66 63.6957 17.5369C64.0555 17.4091 64.3656 17.2197 64.6261 16.9688C64.8865 16.7131 65.0877 16.3958 65.2298 16.017L66.8491 16.4716C66.6786 17.0208 66.3922 17.5038 65.9897 17.9205C65.5872 18.3324 65.0901 18.6544 64.4982 18.8864C63.9064 19.1136 63.2411 19.2273 62.5025 19.2273ZM71.2454 12.4375V19H69.5692V8.09091H71.1886V9.79545H71.3306C71.5863 9.24148 71.9746 8.7964 72.4954 8.46023C73.0162 8.11932 73.6886 7.94886 74.5124 7.94886C75.2511 7.94886 75.8974 8.10038 76.4513 8.40341C77.0053 8.7017 77.4362 9.15625 77.744 9.76705C78.0517 10.3731 78.2056 11.1402 78.2056 12.0682V19H76.5295V12.1818C76.5295 11.3248 76.3069 10.6572 75.8619 10.179C75.4168 9.69602 74.806 9.45455 74.0295 9.45455C73.4944 9.45455 73.0162 9.57055 72.5948 9.80256C72.1781 10.0346 71.8491 10.3731 71.6076 10.8182C71.3661 11.2633 71.2454 11.803 71.2454 12.4375ZM87.973 23.0909C87.6889 23.0909 87.4356 23.0672 87.2131 23.0199C86.9905 22.9773 86.8366 22.9347 86.7514 22.892L87.1776 21.4148C87.5848 21.5189 87.9446 21.5568 88.2571 21.5284C88.5696 21.5 88.8466 21.3603 89.0881 21.1094C89.3343 20.8632 89.5592 20.4631 89.7628 19.9091L90.0753 19.0568L86.0412 8.09091H87.8594L90.8707 16.7841H90.9844L93.9957 8.09091H95.8139L91.1832 20.5909C90.9749 21.1544 90.7169 21.6207 90.4091 21.9901C90.1013 22.3641 89.7438 22.6411 89.3366 22.821C88.9342 23.0009 88.4796 23.0909 87.973 23.0909ZM102.067 19.2273C101.083 19.2273 100.219 18.9929 99.4751 18.5241C98.7365 18.0554 98.1589 17.3996 97.7422 16.5568C97.3303 15.714 97.1243 14.7292 97.1243 13.6023C97.1243 12.4659 97.3303 11.474 97.7422 10.6264C98.1589 9.77888 98.7365 9.12074 99.4751 8.65199C100.219 8.18324 101.083 7.94886 102.067 7.94886C103.052 7.94886 103.914 8.18324 104.653 8.65199C105.396 9.12074 105.974 9.77888 106.386 10.6264C106.802 11.474 107.011 12.4659 107.011 13.6023C107.011 14.7292 106.802 15.714 106.386 16.5568C105.974 17.3996 105.396 18.0554 104.653 18.5241C103.914 18.9929 103.052 19.2273 102.067 19.2273ZM102.067 17.7216C102.816 17.7216 103.431 17.5298 103.914 17.1463C104.397 16.7628 104.754 16.2585 104.987 15.6335C105.219 15.0085 105.335 14.3314 105.335 13.6023C105.335 12.8731 105.219 12.1937 104.987 11.5639C104.754 10.9342 104.397 10.4252 103.914 10.0369C103.431 9.64867 102.816 9.45455 102.067 9.45455C101.319 9.45455 100.704 9.64867 100.221 10.0369C99.7379 10.4252 99.3804 10.9342 99.1484 11.5639C98.9164 12.1937 98.8004 12.8731 98.8004 13.6023C98.8004 14.3314 98.9164 15.0085 99.1484 15.6335C99.3804 16.2585 99.7379 16.7628 100.221 17.1463C100.704 17.5298 101.319 17.7216 102.067 17.7216ZM116.444 14.5398V8.09091H118.12V19H116.444V17.1534H116.331C116.075 17.7074 115.677 18.1785 115.137 18.5668C114.598 18.9503 113.916 19.142 113.092 19.142C112.41 19.142 111.804 18.9929 111.274 18.6946C110.743 18.3916 110.327 17.937 110.024 17.331C109.721 16.7202 109.569 15.9508 109.569 15.0227V8.09091H111.245V14.9091C111.245 15.7045 111.468 16.339 111.913 16.8125C112.363 17.286 112.936 17.5227 113.632 17.5227C114.048 17.5227 114.472 17.4162 114.903 17.2031C115.339 16.9901 115.703 16.6634 115.997 16.223C116.295 15.7827 116.444 15.2216 116.444 14.5398ZM130.026 19.2557C129.334 19.2557 128.707 19.1255 128.143 18.8651C127.58 18.5999 127.133 18.2188 126.801 17.7216C126.47 17.2197 126.304 16.6136 126.304 15.9034C126.304 15.2784 126.427 14.7718 126.673 14.3835C126.92 13.9905 127.249 13.6828 127.661 13.4602C128.072 13.2377 128.527 13.072 129.024 12.9631C129.526 12.8494 130.03 12.7595 130.537 12.6932C131.2 12.608 131.737 12.544 132.149 12.5014C132.566 12.4541 132.869 12.3759 133.058 12.267C133.252 12.1581 133.349 11.9687 133.349 11.6989V11.642C133.349 10.9413 133.158 10.3968 132.774 10.0085C132.395 9.62027 131.82 9.42614 131.048 9.42614C130.248 9.42614 129.621 9.60133 129.166 9.9517C128.712 10.3021 128.392 10.6761 128.207 11.0739L126.616 10.5057C126.901 9.8428 127.279 9.3267 127.753 8.95739C128.231 8.58333 128.752 8.32292 129.315 8.17614C129.884 8.02462 130.442 7.94886 130.991 7.94886C131.342 7.94886 131.744 7.99148 132.199 8.0767C132.658 8.1572 133.101 8.32528 133.527 8.58097C133.958 8.83665 134.315 9.22254 134.599 9.73864C134.884 10.2547 135.026 10.946 135.026 11.8125V19H133.349V17.5227H133.264C133.151 17.7595 132.961 18.0128 132.696 18.2827C132.431 18.5526 132.078 18.7822 131.638 18.9716C131.197 19.161 130.66 19.2557 130.026 19.2557ZM130.281 17.75C130.944 17.75 131.503 17.6198 131.957 17.3594C132.417 17.099 132.762 16.7628 132.994 16.3509C133.231 15.9389 133.349 15.5057 133.349 15.0511V13.517C133.278 13.6023 133.122 13.6804 132.881 13.7514C132.644 13.8177 132.369 13.8769 132.057 13.929C131.749 13.9763 131.448 14.0189 131.155 14.0568C130.866 14.09 130.632 14.1184 130.452 14.142C130.016 14.1989 129.609 14.2912 129.23 14.419C128.856 14.5421 128.553 14.7292 128.321 14.9801C128.094 15.2263 127.98 15.5625 127.98 15.9886C127.98 16.571 128.196 17.0114 128.626 17.3097C129.062 17.6032 129.614 17.75 130.281 17.75ZM139.761 4.45455V19H138.085V4.45455H139.761ZM142.831 19V8.09091H144.507V19H142.831ZM143.683 6.27273C143.357 6.27273 143.075 6.16146 142.838 5.93892C142.606 5.71638 142.49 5.44886 142.49 5.13636C142.49 4.82386 142.606 4.55634 142.838 4.33381C143.075 4.11127 143.357 4 143.683 4C144.01 4 144.289 4.11127 144.521 4.33381C144.758 4.55634 144.876 4.82386 144.876 5.13636C144.876 5.44886 144.758 5.71638 144.521 5.93892C144.289 6.16146 144.01 6.27273 143.683 6.27273ZM151.98 23.3182C151.171 23.3182 150.475 23.214 149.892 23.0057C149.31 22.8021 148.825 22.5322 148.436 22.196C148.053 21.8646 147.748 21.5095 147.52 21.1307L148.855 20.1932C149.007 20.392 149.199 20.6193 149.431 20.875C149.663 21.1354 149.98 21.3603 150.382 21.5497C150.79 21.7438 151.322 21.8409 151.98 21.8409C152.861 21.8409 153.588 21.6278 154.161 21.2017C154.734 20.7756 155.02 20.108 155.02 19.1989V16.983H154.878C154.755 17.1818 154.58 17.428 154.353 17.7216C154.13 18.0104 153.808 18.2685 153.387 18.4957C152.97 18.7183 152.407 18.8295 151.696 18.8295C150.816 18.8295 150.025 18.6212 149.324 18.2045C148.628 17.7879 148.077 17.1818 147.669 16.3864C147.267 15.5909 147.066 14.625 147.066 13.4886C147.066 12.3712 147.262 11.3982 147.655 10.5696C148.048 9.73627 148.595 9.09233 149.296 8.63778C149.997 8.1785 150.806 7.94886 151.725 7.94886C152.435 7.94886 152.998 8.06723 153.415 8.30398C153.837 8.53598 154.158 8.80114 154.381 9.09943C154.608 9.39299 154.783 9.63447 154.907 9.82386H155.077V8.09091H156.696V19.3125C156.696 20.25 156.483 21.0123 156.057 21.5994C155.636 22.1913 155.068 22.6245 154.353 22.8991C153.642 23.1785 152.852 23.3182 151.98 23.3182ZM151.924 17.3239C152.596 17.3239 153.164 17.17 153.628 16.8622C154.092 16.5545 154.445 16.1117 154.686 15.5341C154.928 14.9564 155.049 14.2652 155.049 13.4602C155.049 12.6742 154.93 11.9806 154.694 11.3793C154.457 10.7779 154.106 10.3068 153.642 9.96591C153.178 9.625 152.605 9.45455 151.924 9.45455C151.213 9.45455 150.622 9.63447 150.148 9.99432C149.679 10.3542 149.327 10.8371 149.09 11.4432C148.858 12.0492 148.742 12.7216 148.742 13.4602C148.742 14.2178 148.86 14.8878 149.097 15.4702C149.338 16.0478 149.694 16.5024 150.162 16.8338C150.636 17.1605 151.223 17.3239 151.924 17.3239ZM161.441 12.4375V19H159.765V8.09091H161.384V9.79545H161.526C161.782 9.24148 162.17 8.7964 162.691 8.46023C163.212 8.11932 163.884 7.94886 164.708 7.94886C165.446 7.94886 166.093 8.10038 166.647 8.40341C167.201 8.7017 167.632 9.15625 167.939 9.76705C168.247 10.3731 168.401 11.1402 168.401 12.0682V19H166.725V12.1818C166.725 11.3248 166.502 10.6572 166.057 10.179C165.612 9.69602 165.001 9.45455 164.225 9.45455C163.69 9.45455 163.212 9.57055 162.79 9.80256C162.373 10.0346 162.044 10.3731 161.803 10.8182C161.561 11.2633 161.441 11.803 161.441 12.4375ZM181.833 8.09091V9.51136H176.18V8.09091H181.833ZM177.827 5.47727H179.504V15.875C179.504 16.3485 179.572 16.7036 179.71 16.9403C179.852 17.1723 180.031 17.3286 180.249 17.4091C180.472 17.4848 180.706 17.5227 180.952 17.5227C181.137 17.5227 181.289 17.5133 181.407 17.4943C181.525 17.4706 181.62 17.4517 181.691 17.4375L182.032 18.9432C181.918 18.9858 181.76 19.0284 181.556 19.071C181.353 19.1184 181.094 19.142 180.782 19.142C180.308 19.142 179.844 19.0402 179.39 18.8366C178.94 18.633 178.566 18.3229 178.268 17.9062C177.974 17.4896 177.827 16.964 177.827 16.3295V5.47727ZM188.811 19.2273C187.76 19.2273 186.853 18.9953 186.091 18.5312C185.333 18.0625 184.749 17.4091 184.337 16.571C183.929 15.7282 183.726 14.7481 183.726 13.6307C183.726 12.5133 183.929 11.5284 184.337 10.6761C184.749 9.81913 185.321 9.15152 186.055 8.6733C186.794 8.19034 187.656 7.94886 188.641 7.94886C189.209 7.94886 189.77 8.04356 190.324 8.23295C190.878 8.42235 191.382 8.73011 191.837 9.15625C192.291 9.57765 192.653 10.1364 192.923 10.8324C193.193 11.5284 193.328 12.3854 193.328 13.4034V14.1136H184.919V12.6648H191.624C191.624 12.0492 191.5 11.5 191.254 11.017C191.013 10.5341 190.667 10.1529 190.217 9.87358C189.772 9.59422 189.247 9.45455 188.641 9.45455C187.973 9.45455 187.395 9.62026 186.908 9.9517C186.425 10.2784 186.053 10.7045 185.793 11.2301C185.532 11.7557 185.402 12.3191 185.402 12.9205V13.8864C185.402 14.7102 185.544 15.4086 185.828 15.9815C186.117 16.5497 186.517 16.983 187.028 17.2812C187.54 17.5748 188.134 17.7216 188.811 17.7216C189.251 17.7216 189.649 17.66 190.004 17.5369C190.364 17.4091 190.674 17.2197 190.935 16.9688C191.195 16.7131 191.396 16.3958 191.538 16.017L193.158 16.4716C192.987 17.0208 192.701 17.5038 192.298 17.9205C191.896 18.3324 191.399 18.6544 190.807 18.8864C190.215 19.1136 189.55 19.2273 188.811 19.2273ZM196.835 8.09091L199.449 12.5511L202.062 8.09091H203.994L200.471 13.5455L203.994 19H202.062L199.449 14.767L196.835 19H194.903L198.369 13.5455L194.903 8.09091H196.835ZM211.13 8.09091V9.51136H205.477V8.09091H211.13ZM207.124 5.47727H208.8V15.875C208.8 16.3485 208.869 16.7036 209.006 16.9403C209.148 17.1723 209.328 17.3286 209.546 17.4091C209.769 17.4848 210.003 17.5227 210.249 17.5227C210.434 17.5227 210.585 17.5133 210.704 17.4943C210.822 17.4706 210.917 17.4517 210.988 17.4375L211.329 18.9432C211.215 18.9858 211.057 19.0284 210.853 19.071C210.649 19.1184 210.391 19.142 210.079 19.142C209.605 19.142 209.141 19.0402 208.687 18.8366C208.237 18.633 207.863 18.3229 207.565 17.9062C207.271 17.4896 207.124 16.964 207.124 16.3295V5.47727ZM224.021 8.09091V9.51136H218.367V8.09091H224.021ZM220.015 5.47727H221.691V15.875C221.691 16.3485 221.76 16.7036 221.897 16.9403C222.039 17.1723 222.219 17.3286 222.437 17.4091C222.659 17.4848 222.894 17.5227 223.14 17.5227C223.325 17.5227 223.476 17.5133 223.594 17.4943C223.713 17.4706 223.808 17.4517 223.879 17.4375L224.219 18.9432C224.106 18.9858 223.947 19.0284 223.744 19.071C223.54 19.1184 223.282 19.142 222.969 19.142C222.496 19.142 222.032 19.0402 221.577 18.8366C221.128 18.633 220.754 18.3229 220.455 17.9062C220.162 17.4896 220.015 16.964 220.015 16.3295V5.47727ZM230.857 19.2273C229.872 19.2273 229.008 18.9929 228.264 18.5241C227.526 18.0554 226.948 17.3996 226.531 16.5568C226.119 15.714 225.913 14.7292 225.913 13.6023C225.913 12.4659 226.119 11.474 226.531 10.6264C226.948 9.77888 227.526 9.12074 228.264 8.65199C229.008 8.18324 229.872 7.94886 230.857 7.94886C231.841 7.94886 232.703 8.18324 233.442 8.65199C234.185 9.12074 234.763 9.77888 235.175 10.6264C235.591 11.474 235.8 12.4659 235.8 13.6023C235.8 14.7292 235.591 15.714 235.175 16.5568C234.763 17.3996 234.185 18.0554 233.442 18.5241C232.703 18.9929 231.841 19.2273 230.857 19.2273ZM230.857 17.7216C231.605 17.7216 232.22 17.5298 232.703 17.1463C233.186 16.7628 233.544 16.2585 233.776 15.6335C234.008 15.0085 234.124 14.3314 234.124 13.6023C234.124 12.8731 234.008 12.1937 233.776 11.5639C233.544 10.9342 233.186 10.4252 232.703 10.0369C232.22 9.64867 231.605 9.45455 230.857 9.45455C230.108 9.45455 229.493 9.64867 229.01 10.0369C228.527 10.4252 228.17 10.9342 227.938 11.5639C227.705 12.1937 227.589 12.8731 227.589 13.6023C227.589 14.3314 227.705 15.0085 227.938 15.6335C228.17 16.2585 228.527 16.7628 229.01 17.1463C229.493 17.5298 230.108 17.7216 230.857 17.7216ZM248.728 8.09091V9.51136H243.074V8.09091H248.728ZM244.722 5.47727H246.398V15.875C246.398 16.3485 246.467 16.7036 246.604 16.9403C246.746 17.1723 246.926 17.3286 247.144 17.4091C247.366 17.4848 247.601 17.5227 247.847 17.5227C248.032 17.5227 248.183 17.5133 248.301 17.4943C248.42 17.4706 248.515 17.4517 248.586 17.4375L248.926 18.9432C248.813 18.9858 248.654 19.0284 248.451 19.071C248.247 19.1184 247.989 19.142 247.676 19.142C247.203 19.142 246.739 19.0402 246.284 18.8366C245.835 18.633 245.461 18.3229 245.162 17.9062C244.869 17.4896 244.722 16.964 244.722 16.3295V5.47727ZM253.159 12.4375V19H251.483V4.45455H253.159V9.79545H253.301C253.557 9.23201 253.941 8.78456 254.452 8.45312C254.968 8.11695 255.655 7.94886 256.512 7.94886C257.255 7.94886 257.906 8.09801 258.465 8.39631C259.024 8.68987 259.457 9.14205 259.765 9.75284C260.077 10.3589 260.233 11.1307 260.233 12.0682V19H258.557V12.1818C258.557 11.3153 258.332 10.6454 257.882 10.1719C257.437 9.69366 256.819 9.45455 256.029 9.45455C255.48 9.45455 254.987 9.57055 254.551 9.80256C254.121 10.0346 253.78 10.3731 253.529 10.8182C253.283 11.2633 253.159 11.803 253.159 12.4375ZM267.874 19.2273C266.822 19.2273 265.916 18.9953 265.153 18.5312C264.396 18.0625 263.811 17.4091 263.399 16.571C262.992 15.7282 262.788 14.7481 262.788 13.6307C262.788 12.5133 262.992 11.5284 263.399 10.6761C263.811 9.81913 264.384 9.15152 265.118 8.6733C265.857 8.19034 266.718 7.94886 267.703 7.94886C268.271 7.94886 268.832 8.04356 269.386 8.23295C269.94 8.42235 270.445 8.73011 270.899 9.15625C271.354 9.57765 271.716 10.1364 271.986 10.8324C272.256 11.5284 272.391 12.3854 272.391 13.4034V14.1136H263.982V12.6648H270.686C270.686 12.0492 270.563 11.5 270.317 11.017C270.075 10.5341 269.73 10.1529 269.28 9.87358C268.835 9.59422 268.309 9.45455 267.703 9.45455C267.036 9.45455 266.458 9.62026 265.97 9.9517C265.487 10.2784 265.116 10.7045 264.855 11.2301C264.595 11.7557 264.464 12.3191 264.464 12.9205V13.8864C264.464 14.7102 264.607 15.4086 264.891 15.9815C265.179 16.5497 265.58 16.983 266.091 17.2812C266.602 17.5748 267.196 17.7216 267.874 17.7216C268.314 17.7216 268.712 17.66 269.067 17.5369C269.427 17.4091 269.737 17.2197 269.997 16.9688C270.258 16.7131 270.459 16.3958 270.601 16.017L272.22 16.4716C272.05 17.0208 271.763 17.5038 271.361 17.9205C270.958 18.3324 270.461 18.6544 269.869 18.8864C269.277 19.1136 268.612 19.2273 267.874 19.2273ZM11.003 43.2273C9.98029 43.2273 9.09961 42.9858 8.36097 42.5028C7.62234 42.0199 7.05415 41.3546 6.65643 40.5071C6.2587 39.6596 6.05984 38.6913 6.05984 37.6023C6.05984 36.4943 6.26344 35.5166 6.67063 34.669C7.08256 33.8168 7.65548 33.1515 8.38938 32.6733C9.12802 32.1903 9.98976 31.9489 10.9746 31.9489C11.7417 31.9489 12.4329 32.0909 13.0485 32.375C13.664 32.6591 14.1683 33.0568 14.5613 33.5682C14.9542 34.0795 15.1981 34.6761 15.2928 35.358H13.6167C13.4888 34.8608 13.2047 34.4205 12.7644 34.0369C12.3288 33.6487 11.7417 33.4545 11.003 33.4545C10.3496 33.4545 9.77669 33.625 9.28427 33.9659C8.79658 34.3021 8.41542 34.7779 8.1408 35.3935C7.87092 36.0043 7.73597 36.7216 7.73597 37.5455C7.73597 38.3883 7.86855 39.1222 8.1337 39.7472C8.40359 40.3722 8.78237 40.8575 9.27006 41.2031C9.76249 41.5488 10.3401 41.7216 11.003 41.7216C11.4386 41.7216 11.834 41.6458 12.1891 41.4943C12.5442 41.3428 12.8449 41.125 13.0911 40.8409C13.3373 40.5568 13.5125 40.2159 13.6167 39.8182H15.2928C15.1981 40.4621 14.9637 41.0421 14.5897 41.5582C14.2203 42.0696 13.7303 42.4768 13.1195 42.7798C12.5134 43.0781 11.8079 43.2273 11.003 43.2273ZM22.3169 43.2273C21.2658 43.2273 20.3591 42.9953 19.5968 42.5312C18.8392 42.0625 18.2544 41.4091 17.8425 40.571C17.4353 39.7282 17.2317 38.7481 17.2317 37.6307C17.2317 36.5133 17.4353 35.5284 17.8425 34.6761C18.2544 33.8191 18.8274 33.1515 19.5613 32.6733C20.2999 32.1903 21.1616 31.9489 22.1465 31.9489C22.7147 31.9489 23.2757 32.0436 23.8297 32.233C24.3837 32.4223 24.888 32.7301 25.3425 33.1562C25.7971 33.5777 26.1593 34.1364 26.4292 34.8324C26.699 35.5284 26.834 36.3854 26.834 37.4034V38.1136H18.4249V36.6648H25.1294C25.1294 36.0492 25.0063 35.5 24.7601 35.017C24.5186 34.5341 24.173 34.1529 23.7232 33.8736C23.2781 33.5942 22.7525 33.4545 22.1465 33.4545C21.4789 33.4545 20.9012 33.6203 20.4135 33.9517C19.9306 34.2784 19.5589 34.7045 19.2985 35.2301C19.0381 35.7557 18.9078 36.3191 18.9078 36.9205V37.8864C18.9078 38.7102 19.0499 39.4086 19.334 39.9815C19.6228 40.5497 20.0229 40.983 20.5343 41.2812C21.0456 41.5748 21.6399 41.7216 22.3169 41.7216C22.7573 41.7216 23.155 41.66 23.5101 41.5369C23.87 41.4091 24.1801 41.2197 24.4405 40.9688C24.7009 40.7131 24.9022 40.3958 25.0442 40.017L26.6635 40.4716C26.4931 41.0208 26.2066 41.5038 25.8042 41.9205C25.4017 42.3324 24.9045 42.6544 24.3127 42.8864C23.7208 43.1136 23.0556 43.2273 22.3169 43.2273ZM31.0598 36.4375V43H29.3837V32.0909H31.003V33.7955H31.1451C31.4007 33.2415 31.789 32.7964 32.3098 32.4602C32.8307 32.1193 33.503 31.9489 34.3269 31.9489C35.0655 31.9489 35.7118 32.1004 36.2658 32.4034C36.8198 32.7017 37.2507 33.1562 37.5584 33.767C37.8662 34.3731 38.0201 35.1402 38.0201 36.0682V43H36.3439V36.1818C36.3439 35.3248 36.1214 34.6572 35.6763 34.179C35.2312 33.696 34.6204 33.4545 33.8439 33.4545C33.3089 33.4545 32.8307 33.5705 32.4093 33.8026C31.9926 34.0346 31.6635 34.3731 31.4221 34.8182C31.1806 35.2633 31.0598 35.803 31.0598 36.4375ZM45.8272 32.0909V33.5114H40.1738V32.0909H45.8272ZM41.8216 29.4773H43.4977V39.875C43.4977 40.3485 43.5663 40.7036 43.7037 40.9403C43.8457 41.1723 44.0256 41.3286 44.2434 41.4091C44.466 41.4848 44.7003 41.5227 44.9466 41.5227C45.1312 41.5227 45.2827 41.5133 45.4011 41.4943C45.5195 41.4706 45.6142 41.4517 45.6852 41.4375L46.0261 42.9432C45.9125 42.9858 45.7538 43.0284 45.5502 43.071C45.3467 43.1184 45.0886 43.142 44.7761 43.142C44.3026 43.142 43.8386 43.0402 43.3841 42.8366C42.9342 42.633 42.5602 42.3229 42.2619 41.9062C41.9683 41.4896 41.8216 40.964 41.8216 40.3295V29.4773ZM52.8052 43.2273C51.7541 43.2273 50.8474 42.9953 50.085 42.5312C49.3275 42.0625 48.7427 41.4091 48.3308 40.571C47.9236 39.7282 47.72 38.7481 47.72 37.6307C47.72 36.5133 47.9236 35.5284 48.3308 34.6761C48.7427 33.8191 49.3156 33.1515 50.0495 32.6733C50.7882 32.1903 51.6499 31.9489 52.6348 31.9489C53.2029 31.9489 53.764 32.0436 54.318 32.233C54.872 32.4223 55.3762 32.7301 55.8308 33.1562C56.2853 33.5777 56.6476 34.1364 56.9174 34.8324C57.1873 35.5284 57.3223 36.3854 57.3223 37.4034V38.1136H48.9132V36.6648H55.6177C55.6177 36.0492 55.4946 35.5 55.2484 35.017C55.0069 34.5341 54.6613 34.1529 54.2115 33.8736C53.7664 33.5942 53.2408 33.4545 52.6348 33.4545C51.9672 33.4545 51.3895 33.6203 50.9018 33.9517C50.4189 34.2784 50.0472 34.7045 49.7868 35.2301C49.5263 35.7557 49.3961 36.3191 49.3961 36.9205V37.8864C49.3961 38.7102 49.5382 39.4086 49.8223 39.9815C50.1111 40.5497 50.5112 40.983 51.0225 41.2812C51.5339 41.5748 52.1281 41.7216 52.8052 41.7216C53.2456 41.7216 53.6433 41.66 53.9984 41.5369C54.3583 41.4091 54.6684 41.2197 54.9288 40.9688C55.1892 40.7131 55.3904 40.3958 55.5325 40.017L57.1518 40.4716C56.9814 41.0208 56.6949 41.5038 56.2924 41.9205C55.89 42.3324 55.3928 42.6544 54.801 42.8864C54.2091 43.1136 53.5439 43.2273 52.8052 43.2273ZM59.872 43V32.0909H61.4913V33.7386H61.6049C61.8038 33.1989 62.1636 32.7609 62.6845 32.4247C63.2053 32.0885 63.7924 31.9205 64.4458 31.9205C64.569 31.9205 64.7228 31.9228 64.9075 31.9276C65.0922 31.9323 65.2318 31.9394 65.3265 31.9489V33.6534C65.2697 33.6392 65.1395 33.6179 64.9359 33.5895C64.737 33.5563 64.5263 33.5398 64.3038 33.5398C63.7735 33.5398 63.3 33.651 62.8833 33.8736C62.4714 34.0914 62.1447 34.3944 61.9032 34.7827C61.6665 35.1662 61.5481 35.6042 61.5481 36.0966V43H59.872ZM68.5634 41.0114L68.4498 41.7784C68.3693 42.3182 68.2462 42.8958 68.0804 43.5114C67.9194 44.1269 67.7514 44.7069 67.5762 45.2514C67.401 45.7959 67.2566 46.2292 67.1429 46.5511H65.8645C65.9261 46.2481 66.0066 45.848 66.106 45.3509C66.2054 44.8537 66.3049 44.2973 66.4043 43.6818C66.5085 43.071 66.5937 42.446 66.66 41.8068L66.7452 41.0114H68.5634ZM78.3734 47.0909C78.0893 47.0909 77.836 47.0672 77.6135 47.0199C77.3909 46.9773 77.237 46.9347 77.1518 46.892L77.5779 45.4148C77.9851 45.5189 78.345 45.5568 78.6575 45.5284C78.97 45.5 79.247 45.3603 79.4885 45.1094C79.7347 44.8632 79.9596 44.4631 80.1632 43.9091L80.4757 43.0568L76.4416 32.0909H78.2598L81.2711 40.7841H81.3848L84.3961 32.0909H86.2143L81.5836 44.5909C81.3753 45.1544 81.1172 45.6207 80.8095 45.9901C80.5017 46.3641 80.1442 46.6411 79.737 46.821C79.3346 47.0009 78.88 47.0909 78.3734 47.0909ZM92.4679 43.2273C91.483 43.2273 90.6189 42.9929 89.8755 42.5241C89.1369 42.0554 88.5592 41.3996 88.1426 40.5568C87.7306 39.714 87.5247 38.7292 87.5247 37.6023C87.5247 36.4659 87.7306 35.474 88.1426 34.6264C88.5592 33.7789 89.1369 33.1207 89.8755 32.652C90.6189 32.1832 91.483 31.9489 92.4679 31.9489C93.4527 31.9489 94.3145 32.1832 95.0531 32.652C95.7965 33.1207 96.3741 33.7789 96.786 34.6264C97.2027 35.474 97.411 36.4659 97.411 37.6023C97.411 38.7292 97.2027 39.714 96.786 40.5568C96.3741 41.3996 95.7965 42.0554 95.0531 42.5241C94.3145 42.9929 93.4527 43.2273 92.4679 43.2273ZM92.4679 41.7216C93.216 41.7216 93.8315 41.5298 94.3145 41.1463C94.7974 40.7628 95.1549 40.2585 95.3869 39.6335C95.6189 39.0085 95.7349 38.3314 95.7349 37.6023C95.7349 36.8731 95.6189 36.1937 95.3869 35.5639C95.1549 34.9342 94.7974 34.4252 94.3145 34.0369C93.8315 33.6487 93.216 33.4545 92.4679 33.4545C91.7198 33.4545 91.1042 33.6487 90.6213 34.0369C90.1383 34.4252 89.7808 34.9342 89.5488 35.5639C89.3168 36.1937 89.2008 36.8731 89.2008 37.6023C89.2008 38.3314 89.3168 39.0085 89.5488 39.6335C89.7808 40.2585 90.1383 40.7628 90.6213 41.1463C91.1042 41.5298 91.7198 41.7216 92.4679 41.7216ZM106.845 38.5398V32.0909H108.521V43H106.845V41.1534H106.731C106.475 41.7074 106.078 42.1785 105.538 42.5668C104.998 42.9503 104.316 43.142 103.492 43.142C102.811 43.142 102.204 42.9929 101.674 42.6946C101.144 42.3916 100.727 41.937 100.424 41.331C100.121 40.7202 99.9696 39.9508 99.9696 39.0227V32.0909H101.646V38.9091C101.646 39.7045 101.868 40.339 102.313 40.8125C102.763 41.286 103.336 41.5227 104.032 41.5227C104.449 41.5227 104.873 41.4162 105.303 41.2031C105.739 40.9901 106.104 40.6634 106.397 40.223C106.695 39.7827 106.845 39.2216 106.845 38.5398ZM118.892 36.4375V43H117.216V28.4545H118.892V33.7955H119.034C119.29 33.232 119.673 32.7846 120.184 32.4531C120.701 32.117 121.387 31.9489 122.244 31.9489C122.988 31.9489 123.639 32.098 124.197 32.3963C124.756 32.6899 125.189 33.142 125.497 33.7528C125.809 34.3589 125.966 35.1307 125.966 36.0682V43H124.29V36.1818C124.29 35.3153 124.065 34.6454 123.615 34.1719C123.17 33.6937 122.552 33.4545 121.761 33.4545C121.212 33.4545 120.72 33.5705 120.284 33.8026C119.853 34.0346 119.512 34.3731 119.261 34.8182C119.015 35.2633 118.892 35.803 118.892 36.4375ZM132.242 43.2557C131.551 43.2557 130.924 43.1255 130.36 42.8651C129.797 42.5999 129.349 42.2188 129.018 41.7216C128.686 41.2197 128.521 40.6136 128.521 39.9034C128.521 39.2784 128.644 38.7718 128.89 38.3835C129.136 37.9905 129.465 37.6828 129.877 37.4602C130.289 37.2377 130.744 37.072 131.241 36.9631C131.743 36.8494 132.247 36.7595 132.754 36.6932C133.417 36.608 133.954 36.544 134.366 36.5014C134.783 36.4541 135.086 36.3759 135.275 36.267C135.469 36.1581 135.566 35.9687 135.566 35.6989V35.642C135.566 34.9413 135.374 34.3968 134.991 34.0085C134.612 33.6203 134.037 33.4261 133.265 33.4261C132.465 33.4261 131.838 33.6013 131.383 33.9517C130.928 34.3021 130.609 34.6761 130.424 35.0739L128.833 34.5057C129.117 33.8428 129.496 33.3267 129.97 32.9574C130.448 32.5833 130.969 32.3229 131.532 32.1761C132.1 32.0246 132.659 31.9489 133.208 31.9489C133.559 31.9489 133.961 31.9915 134.416 32.0767C134.875 32.1572 135.318 32.3253 135.744 32.581C136.175 32.8366 136.532 33.2225 136.816 33.7386C137.1 34.2547 137.242 34.946 137.242 35.8125V43H135.566V41.5227H135.481C135.367 41.7595 135.178 42.0128 134.913 42.2827C134.648 42.5526 134.295 42.7822 133.855 42.9716C133.414 43.161 132.877 43.2557 132.242 43.2557ZM132.498 41.75C133.161 41.75 133.72 41.6198 134.174 41.3594C134.633 41.099 134.979 40.7628 135.211 40.3509C135.448 39.9389 135.566 39.5057 135.566 39.0511V37.517C135.495 37.6023 135.339 37.6804 135.097 37.7514C134.861 37.8177 134.586 37.8769 134.274 37.929C133.966 37.9763 133.665 38.0189 133.372 38.0568C133.083 38.09 132.848 38.1184 132.669 38.142C132.233 38.1989 131.826 38.2912 131.447 38.419C131.073 38.5421 130.77 38.7292 130.538 38.9801C130.311 39.2263 130.197 39.5625 130.197 39.9886C130.197 40.571 130.412 41.0114 130.843 41.3097C131.279 41.6032 131.83 41.75 132.498 41.75ZM148.831 32.0909L144.797 43H143.093L139.059 32.0909H140.877L143.888 40.7841H144.002L147.013 32.0909H148.831ZM155.227 43.2273C154.176 43.2273 153.269 42.9953 152.507 42.5312C151.749 42.0625 151.165 41.4091 150.753 40.571C150.345 39.7282 150.142 38.7481 150.142 37.6307C150.142 36.5133 150.345 35.5284 150.753 34.6761C151.165 33.8191 151.738 33.1515 152.471 32.6733C153.21 32.1903 154.072 31.9489 155.057 31.9489C155.625 31.9489 156.186 32.0436 156.74 32.233C157.294 32.4223 157.798 32.7301 158.253 33.1562C158.707 33.5777 159.069 34.1364 159.339 34.8324C159.609 35.5284 159.744 36.3854 159.744 37.4034V38.1136H151.335V36.6648H158.04C158.04 36.0492 157.916 35.5 157.67 35.017C157.429 34.5341 157.083 34.1529 156.633 33.8736C156.188 33.5942 155.663 33.4545 155.057 33.4545C154.389 33.4545 153.811 33.6203 153.324 33.9517C152.841 34.2784 152.469 34.7045 152.209 35.2301C151.948 35.7557 151.818 36.3191 151.818 36.9205V37.8864C151.818 38.7102 151.96 39.4086 152.244 39.9815C152.533 40.5497 152.933 40.983 153.444 41.2812C153.956 41.5748 154.55 41.7216 155.227 41.7216C155.667 41.7216 156.065 41.66 156.42 41.5369C156.78 41.4091 157.09 41.2197 157.351 40.9688C157.611 40.7131 157.812 40.3958 157.954 40.017L159.574 40.4716C159.403 41.0208 159.117 41.5038 158.714 41.9205C158.312 42.3324 157.815 42.6544 157.223 42.8864C156.631 43.1136 155.966 43.2273 155.227 43.2273ZM171.129 43.2557C170.438 43.2557 169.81 43.1255 169.247 42.8651C168.684 42.5999 168.236 42.2188 167.905 41.7216C167.573 41.2197 167.407 40.6136 167.407 39.9034C167.407 39.2784 167.531 38.7718 167.777 38.3835C168.023 37.9905 168.352 37.6828 168.764 37.4602C169.176 37.2377 169.631 37.072 170.128 36.9631C170.63 36.8494 171.134 36.7595 171.64 36.6932C172.303 36.608 172.841 36.544 173.253 36.5014C173.669 36.4541 173.972 36.3759 174.162 36.267C174.356 36.1581 174.453 35.9687 174.453 35.6989V35.642C174.453 34.9413 174.261 34.3968 173.878 34.0085C173.499 33.6203 172.924 33.4261 172.152 33.4261C171.352 33.4261 170.724 33.6013 170.27 33.9517C169.815 34.3021 169.496 34.6761 169.311 35.0739L167.72 34.5057C168.004 33.8428 168.383 33.3267 168.856 32.9574C169.335 32.5833 169.855 32.3229 170.419 32.1761C170.987 32.0246 171.546 31.9489 172.095 31.9489C172.445 31.9489 172.848 31.9915 173.302 32.0767C173.762 32.1572 174.204 32.3253 174.631 32.581C175.061 32.8366 175.419 33.2225 175.703 33.7386C175.987 34.2547 176.129 34.946 176.129 35.8125V43H174.453V41.5227H174.368C174.254 41.7595 174.065 42.0128 173.8 42.2827C173.534 42.5526 173.182 42.7822 172.741 42.9716C172.301 43.161 171.764 43.2557 171.129 43.2557ZM171.385 41.75C172.048 41.75 172.606 41.6198 173.061 41.3594C173.52 41.099 173.866 40.7628 174.098 40.3509C174.335 39.9389 174.453 39.5057 174.453 39.0511V37.517C174.382 37.6023 174.226 37.6804 173.984 37.7514C173.747 37.8177 173.473 37.8769 173.16 37.929C172.853 37.9763 172.552 38.0189 172.258 38.0568C171.97 38.09 171.735 38.1184 171.555 38.142C171.12 38.1989 170.712 38.2912 170.334 38.419C169.96 38.5421 169.657 38.7292 169.425 38.9801C169.197 39.2263 169.084 39.5625 169.084 39.9886C169.084 40.571 169.299 41.0114 169.73 41.3097C170.166 41.6032 170.717 41.75 171.385 41.75ZM184.487 43V32.0909H187.42V33.9943H187.534C187.732 33.3172 188.066 32.8059 188.535 32.4602C189.004 32.1098 189.544 31.9347 190.154 31.9347C190.306 31.9347 190.469 31.9441 190.644 31.9631C190.82 31.982 190.973 32.008 191.106 32.0412V34.7259C190.964 34.6832 190.767 34.6454 190.517 34.6122C190.266 34.5791 190.036 34.5625 189.828 34.5625C189.383 34.5625 188.985 34.6596 188.634 34.8537C188.289 35.0431 188.014 35.3082 187.811 35.6491C187.612 35.9901 187.512 36.383 187.512 36.8281V43H184.487ZM195.469 43.206C194.773 43.206 194.152 43.0852 193.608 42.8438C193.063 42.5975 192.632 42.2353 192.315 41.7571C192.003 41.2741 191.846 40.6728 191.846 39.9531C191.846 39.3471 191.958 38.8381 192.18 38.4261C192.403 38.0142 192.706 37.6828 193.089 37.4318C193.473 37.1809 193.908 36.9915 194.396 36.8636C194.889 36.7358 195.405 36.6458 195.944 36.5938C196.579 36.5275 197.09 36.4659 197.479 36.4091C197.867 36.3475 198.148 36.2576 198.324 36.1392C198.499 36.0208 198.586 35.8456 198.586 35.6136V35.571C198.586 35.1212 198.444 34.7732 198.16 34.527C197.881 34.2808 197.483 34.1577 196.967 34.1577C196.423 34.1577 195.989 34.2784 195.667 34.5199C195.345 34.7566 195.132 35.0549 195.028 35.4148L192.23 35.1875C192.372 34.5246 192.651 33.9517 193.068 33.4688C193.485 32.9811 194.022 32.607 194.68 32.3466C195.343 32.0814 196.11 31.9489 196.981 31.9489C197.587 31.9489 198.167 32.0199 198.721 32.1619C199.28 32.304 199.775 32.5241 200.206 32.8224C200.641 33.1207 200.985 33.5043 201.236 33.973C201.487 34.437 201.612 34.9934 201.612 35.642V43H198.743V41.4872H198.657C198.482 41.8281 198.248 42.1288 197.954 42.3892C197.661 42.6449 197.308 42.8461 196.896 42.9929C196.484 43.1349 196.008 43.206 195.469 43.206ZM196.335 41.1179C196.78 41.1179 197.173 41.0303 197.514 40.8551C197.855 40.6752 198.122 40.4337 198.317 40.1307C198.511 39.8277 198.608 39.4844 198.608 39.1009V37.9432C198.513 38.0047 198.383 38.0616 198.217 38.1136C198.056 38.161 197.874 38.206 197.67 38.2486C197.467 38.2865 197.263 38.322 197.059 38.3551C196.856 38.3835 196.671 38.4096 196.506 38.4332C196.15 38.4853 195.84 38.5682 195.575 38.6818C195.31 38.7955 195.104 38.9493 194.957 39.1435C194.81 39.3329 194.737 39.5696 194.737 39.8537C194.737 40.2656 194.886 40.5805 195.184 40.7983C195.488 41.0114 195.871 41.1179 196.335 41.1179ZM208.874 47.3182C207.894 47.3182 207.054 47.1832 206.353 46.9134C205.657 46.6482 205.103 46.286 204.691 45.8267C204.279 45.3674 204.011 44.8513 203.888 44.2784L206.687 43.902C206.772 44.1198 206.907 44.3234 207.091 44.5128C207.276 44.7022 207.52 44.8537 207.823 44.9673C208.131 45.0857 208.505 45.1449 208.945 45.1449C209.603 45.1449 210.145 44.9839 210.572 44.6619C211.002 44.3447 211.218 43.812 211.218 43.0639V41.0682H211.09C210.957 41.3712 210.759 41.6577 210.493 41.9276C210.228 42.1974 209.887 42.4176 209.471 42.5881C209.054 42.7585 208.557 42.8438 207.979 42.8438C207.16 42.8438 206.414 42.6544 205.742 42.2756C205.074 41.892 204.542 41.3073 204.144 40.5213C203.751 39.7306 203.555 38.7315 203.555 37.5241C203.555 36.2884 203.756 35.2562 204.158 34.4276C204.561 33.599 205.096 32.9787 205.763 32.5668C206.436 32.1548 207.172 31.9489 207.972 31.9489C208.583 31.9489 209.094 32.053 209.506 32.2614C209.918 32.465 210.25 32.7206 210.501 33.0284C210.756 33.3314 210.953 33.6297 211.09 33.9233H211.204V32.0909H214.208V43.1065C214.208 44.0346 213.981 44.8111 213.526 45.4361C213.072 46.0611 212.442 46.5298 211.637 46.8423C210.837 47.1596 209.916 47.3182 208.874 47.3182ZM208.938 40.571C209.426 40.571 209.838 40.4503 210.174 40.2088C210.515 39.9626 210.775 39.6122 210.955 39.1577C211.14 38.6984 211.232 38.1491 211.232 37.5099C211.232 36.8707 211.142 36.3168 210.962 35.848C210.782 35.3745 210.522 35.0076 210.181 34.7472C209.84 34.4867 209.426 34.3565 208.938 34.3565C208.441 34.3565 208.022 34.4915 207.681 34.7614C207.34 35.0265 207.082 35.3958 206.907 35.8693C206.732 36.3428 206.644 36.8897 206.644 37.5099C206.644 38.1397 206.732 38.6842 206.907 39.1435C207.087 39.598 207.345 39.9508 207.681 40.2017C208.022 40.4479 208.441 40.571 208.938 40.571ZM226.999 43.2273C226.014 43.2273 225.15 42.9929 224.407 42.5241C223.668 42.0554 223.09 41.3996 222.674 40.5568C222.262 39.714 222.056 38.7292 222.056 37.6023C222.056 36.4659 222.262 35.474 222.674 34.6264C223.09 33.7789 223.668 33.1207 224.407 32.652C225.15 32.1832 226.014 31.9489 226.999 31.9489C227.984 31.9489 228.846 32.1832 229.584 32.652C230.328 33.1207 230.905 33.7789 231.317 34.6264C231.734 35.474 231.942 36.4659 231.942 37.6023C231.942 38.7292 231.734 39.714 231.317 40.5568C230.905 41.3996 230.328 42.0554 229.584 42.5241C228.846 42.9929 227.984 43.2273 226.999 43.2273ZM226.999 41.7216C227.747 41.7216 228.363 41.5298 228.846 41.1463C229.329 40.7628 229.686 40.2585 229.918 39.6335C230.15 39.0085 230.266 38.3314 230.266 37.6023C230.266 36.8731 230.15 36.1937 229.918 35.5639C229.686 34.9342 229.329 34.4252 228.846 34.0369C228.363 33.6487 227.747 33.4545 226.999 33.4545C226.251 33.4545 225.635 33.6487 225.153 34.0369C224.67 34.4252 224.312 34.9342 224.08 35.5639C223.848 36.1937 223.732 36.8731 223.732 37.6023C223.732 38.3314 223.848 39.0085 224.08 39.6335C224.312 40.2585 224.67 40.7628 225.153 41.1463C225.635 41.5298 226.251 41.7216 226.999 41.7216ZM236.177 36.4375V43H234.501V32.0909H236.12V33.7955H236.262C236.518 33.2415 236.906 32.7964 237.427 32.4602C237.948 32.1193 238.62 31.9489 239.444 31.9489C240.183 31.9489 240.829 32.1004 241.383 32.4034C241.937 32.7017 242.368 33.1562 242.676 33.767C242.983 34.3731 243.137 35.1402 243.137 36.0682V43H241.461V36.1818C241.461 35.3248 241.239 34.6572 240.794 34.179C240.348 33.696 239.738 33.4545 238.961 33.4545C238.426 33.4545 237.948 33.5705 237.526 33.8026C237.11 34.0346 236.781 34.3731 236.539 34.8182C236.298 35.2633 236.177 35.803 236.177 36.4375ZM252.052 43V28.4545H253.729V33.8239H253.871C253.994 33.6345 254.164 33.393 254.382 33.0994C254.604 32.8011 254.922 32.536 255.334 32.304C255.75 32.0672 256.314 31.9489 257.024 31.9489C257.943 31.9489 258.752 32.1785 259.453 32.6378C260.154 33.0971 260.701 33.7481 261.094 34.5909C261.487 35.4337 261.683 36.428 261.683 37.5739C261.683 38.7292 261.487 39.7306 261.094 40.5781C260.701 41.4209 260.156 42.0743 259.46 42.5384C258.764 42.9976 257.961 43.2273 257.052 43.2273C256.352 43.2273 255.791 43.1113 255.369 42.8793C254.948 42.6425 254.623 42.375 254.396 42.0767C254.169 41.7737 253.994 41.5227 253.871 41.3239H253.672V43H252.052ZM253.7 37.5455C253.7 38.3693 253.821 39.0961 254.062 39.7259C254.304 40.3509 254.657 40.8409 255.121 41.196C255.585 41.5464 256.153 41.7216 256.825 41.7216C257.526 41.7216 258.111 41.5369 258.579 41.1676C259.053 40.7936 259.408 40.2917 259.645 39.6619C259.886 39.0275 260.007 38.322 260.007 37.5455C260.007 36.7784 259.889 36.0871 259.652 35.4716C259.42 34.8513 259.067 34.3613 258.594 34.0014C258.125 33.6368 257.535 33.4545 256.825 33.4545C256.143 33.4545 255.57 33.6274 255.106 33.973C254.642 34.3139 254.292 34.7921 254.055 35.4077C253.818 36.0185 253.7 36.7311 253.7 37.5455ZM268.679 43.2273C267.694 43.2273 266.83 42.9929 266.086 42.5241C265.348 42.0554 264.77 41.3996 264.354 40.5568C263.942 39.714 263.736 38.7292 263.736 37.6023C263.736 36.4659 263.942 35.474 264.354 34.6264C264.77 33.7789 265.348 33.1207 266.086 32.652C266.83 32.1832 267.694 31.9489 268.679 31.9489C269.664 31.9489 270.525 32.1832 271.264 32.652C272.007 33.1207 272.585 33.7789 272.997 34.6264C273.414 35.474 273.622 36.4659 273.622 37.6023C273.622 38.7292 273.414 39.714 272.997 40.5568C272.585 41.3996 272.007 42.0554 271.264 42.5241C270.525 42.9929 269.664 43.2273 268.679 43.2273ZM268.679 41.7216C269.427 41.7216 270.042 41.5298 270.525 41.1463C271.008 40.7628 271.366 40.2585 271.598 39.6335C271.83 39.0085 271.946 38.3314 271.946 37.6023C271.946 36.8731 271.83 36.1937 271.598 35.5639C271.366 34.9342 271.008 34.4252 270.525 34.0369C270.042 33.6487 269.427 33.4545 268.679 33.4545C267.931 33.4545 267.315 33.6487 266.832 34.0369C266.349 34.4252 265.992 34.9342 265.76 35.5639C265.528 36.1937 265.412 36.8731 265.412 37.6023C265.412 38.3314 265.528 39.0085 265.76 39.6335C265.992 40.2585 266.349 40.7628 266.832 41.1463C267.315 41.5298 267.931 41.7216 268.679 41.7216ZM280.925 32.0909V33.5114H275.271V32.0909H280.925ZM276.919 29.4773H278.595V39.875C278.595 40.3485 278.664 40.7036 278.801 40.9403C278.943 41.1723 279.123 41.3286 279.341 41.4091C279.564 41.4848 279.798 41.5227 280.044 41.5227C280.229 41.5227 280.38 41.5133 280.499 41.4943C280.617 41.4706 280.712 41.4517 280.783 41.4375L281.124 42.9432C281.01 42.9858 280.852 43.0284 280.648 43.071C280.444 43.1184 280.186 43.142 279.874 43.142C279.4 43.142 278.936 43.0402 278.482 42.8366C278.032 42.633 277.658 42.3229 277.36 41.9062C277.066 41.4896 276.919 40.964 276.919 40.3295V29.4773ZM285.357 36.4375V43H283.681V28.4545H285.357V33.7955H285.499C285.754 33.232 286.138 32.7846 286.649 32.4531C287.165 32.117 287.852 31.9489 288.709 31.9489C289.452 31.9489 290.103 32.098 290.662 32.3963C291.221 32.6899 291.654 33.142 291.962 33.7528C292.274 34.3589 292.431 35.1307 292.431 36.0682V43H290.754V36.1818C290.754 35.3153 290.53 34.6454 290.08 34.1719C289.635 33.6937 289.017 33.4545 288.226 33.4545C287.677 33.4545 287.184 33.5705 286.749 33.8026C286.318 34.0346 285.977 34.3731 285.726 34.8182C285.48 35.2633 285.357 35.803 285.357 36.4375ZM69.6012 58.5341L68.0955 58.9602C68.0008 58.7093 67.8612 58.4654 67.6765 58.2287C67.4966 57.9872 67.2504 57.7884 66.9379 57.6321C66.6254 57.4759 66.2253 57.3977 65.7376 57.3977C65.07 57.3977 64.5136 57.5516 64.0685 57.8594C63.6282 58.1624 63.408 58.5483 63.408 59.017C63.408 59.4337 63.5595 59.7628 63.8626 60.0043C64.1656 60.2457 64.6391 60.447 65.283 60.608L66.9023 61.0057C67.8777 61.2424 68.6045 61.6046 69.0827 62.0923C69.561 62.5753 69.8001 63.1979 69.8001 63.9602C69.8001 64.5852 69.6201 65.1439 69.2603 65.6364C68.9052 66.1288 68.408 66.517 67.7688 66.8011C67.1296 67.0852 66.3862 67.2273 65.5387 67.2273C64.426 67.2273 63.5051 66.9858 62.7759 66.5028C62.0468 66.0199 61.5851 65.3144 61.391 64.3864L62.9819 63.9886C63.1334 64.5758 63.4199 65.0161 63.8413 65.3097C64.2674 65.6032 64.8237 65.75 65.5103 65.75C66.2915 65.75 66.9118 65.5843 67.3711 65.2528C67.8351 64.9167 68.0671 64.5142 68.0671 64.0455C68.0671 63.6667 67.9345 63.3494 67.6694 63.0938C67.4042 62.8333 66.997 62.6392 66.4478 62.5114L64.6296 62.0852C63.6306 61.8485 62.8967 61.4815 62.4279 60.9844C61.9639 60.4825 61.7319 59.8551 61.7319 59.1023C61.7319 58.4867 61.9047 57.9422 62.2504 57.4688C62.6007 56.9953 63.0766 56.6236 63.6779 56.3537C64.284 56.0838 64.9705 55.9489 65.7376 55.9489C66.8171 55.9489 67.6647 56.1856 68.2802 56.6591C68.9004 57.1326 69.3408 57.7576 69.6012 58.5341ZM72.3232 67V56.0909H73.9993V67H72.3232ZM73.1754 54.2727C72.8487 54.2727 72.567 54.1615 72.3303 53.9389C72.0982 53.7164 71.9822 53.4489 71.9822 53.1364C71.9822 52.8239 72.0982 52.5563 72.3303 52.3338C72.567 52.1113 72.8487 52 73.1754 52C73.5021 52 73.7815 52.1113 74.0135 52.3338C74.2502 52.5563 74.3686 52.8239 74.3686 53.1364C74.3686 53.4489 74.2502 53.7164 74.0135 53.9389C73.7815 54.1615 73.5021 54.2727 73.1754 54.2727ZM81.1886 67.2273C80.2795 67.2273 79.4769 66.9976 78.7809 66.5384C78.0849 66.0743 77.5404 65.4209 77.1474 64.5781C76.7544 63.7306 76.5579 62.7292 76.5579 61.5739C76.5579 60.428 76.7544 59.4337 77.1474 58.5909C77.5404 57.7481 78.0872 57.0971 78.788 56.6378C79.4888 56.1785 80.2984 55.9489 81.217 55.9489C81.9272 55.9489 82.4883 56.0672 82.9002 56.304C83.3169 56.536 83.6341 56.8011 83.8519 57.0994C84.0745 57.393 84.2473 57.6345 84.3704 57.8239H84.5124V52.4545H86.1886V67H84.5692V65.3239H84.3704C84.2473 65.5227 84.0721 65.7737 83.8448 66.0767C83.6175 66.375 83.2932 66.6425 82.8718 66.8793C82.4504 67.1113 81.8893 67.2273 81.1886 67.2273ZM81.4158 65.7216C82.0882 65.7216 82.6564 65.5464 83.1204 65.196C83.5844 64.8409 83.9371 64.3509 84.1786 63.7259C84.4201 63.0961 84.5408 62.3693 84.5408 61.5455C84.5408 60.7311 84.4225 60.0185 84.1857 59.4077C83.949 58.7921 83.5986 58.3139 83.1346 57.973C82.6706 57.6274 82.0977 57.4545 81.4158 57.4545C80.7056 57.4545 80.1138 57.6368 79.6403 58.0014C79.1715 58.3613 78.8188 58.8513 78.582 59.4716C78.35 60.0871 78.234 60.7784 78.234 61.5455C78.234 62.322 78.3524 63.0275 78.5891 63.6619C78.8306 64.2917 79.1857 64.7936 79.6545 65.1676C80.128 65.5369 80.7151 65.7216 81.4158 65.7216ZM94.065 67.2273C93.0138 67.2273 92.1071 66.9953 91.3448 66.5312C90.5872 66.0625 90.0025 65.4091 89.5906 64.571C89.1834 63.7282 88.9798 62.7481 88.9798 61.6307C88.9798 60.5133 89.1834 59.5284 89.5906 58.6761C90.0025 57.8191 90.5754 57.1515 91.3093 56.6733C92.0479 56.1903 92.9097 55.9489 93.8945 55.9489C94.4627 55.9489 95.0238 56.0436 95.5778 56.233C96.1317 56.4223 96.636 56.7301 97.0906 57.1562C97.5451 57.5777 97.9073 58.1364 98.1772 58.8324C98.4471 59.5284 98.582 60.3854 98.582 61.4034V62.1136H90.1729V60.6648H96.8775C96.8775 60.0492 96.7544 59.5 96.5082 59.017C96.2667 58.5341 95.921 58.1529 95.4712 57.8736C95.0262 57.5942 94.5006 57.4545 93.8945 57.4545C93.2269 57.4545 92.6493 57.6203 92.1616 57.9517C91.6786 58.2784 91.3069 58.7045 91.0465 59.2301C90.7861 59.7557 90.6559 60.3191 90.6559 60.9205V61.8864C90.6559 62.7102 90.7979 63.4086 91.082 63.9815C91.3709 64.5497 91.771 64.983 92.2823 65.2812C92.7937 65.5748 93.3879 65.7216 94.065 65.7216C94.5053 65.7216 94.9031 65.66 95.2582 65.5369C95.618 65.4091 95.9281 65.2197 96.1886 64.9688C96.449 64.7131 96.6502 64.3958 96.7923 64.017L98.4116 64.4716C98.2411 65.0208 97.9547 65.5038 97.5522 65.9205C97.1497 66.3324 96.6526 66.6544 96.0607 66.8864C95.4689 67.1136 94.8036 67.2273 94.065 67.2273ZM108.859 58.5341L107.353 58.9602C107.259 58.7093 107.119 58.4654 106.934 58.2287C106.754 57.9872 106.508 57.7884 106.196 57.6321C105.883 57.4759 105.483 57.3977 104.995 57.3977C104.328 57.3977 103.771 57.5516 103.326 57.8594C102.886 58.1624 102.666 58.5483 102.666 59.017C102.666 59.4337 102.817 59.7628 103.12 60.0043C103.423 60.2457 103.897 60.447 104.541 60.608L106.16 61.0057C107.136 61.2424 107.862 61.6046 108.341 62.0923C108.819 62.5753 109.058 63.1979 109.058 63.9602C109.058 64.5852 108.878 65.1439 108.518 65.6364C108.163 66.1288 107.666 66.517 107.027 66.8011C106.387 67.0852 105.644 67.2273 104.797 67.2273C103.684 67.2273 102.763 66.9858 102.034 66.5028C101.305 66.0199 100.843 65.3144 100.649 64.3864L102.24 63.9886C102.391 64.5758 102.678 65.0161 103.099 65.3097C103.525 65.6032 104.082 65.75 104.768 65.75C105.549 65.75 106.17 65.5843 106.629 65.2528C107.093 64.9167 107.325 64.5142 107.325 64.0455C107.325 63.6667 107.192 63.3494 106.927 63.0938C106.662 62.8333 106.255 62.6392 105.706 62.5114L103.887 62.0852C102.888 61.8485 102.154 61.4815 101.686 60.9844C101.222 60.4825 100.99 59.8551 100.99 59.1023C100.99 58.4867 101.163 57.9422 101.508 57.4688C101.859 56.9953 102.334 56.6236 102.936 56.3537C103.542 56.0838 104.228 55.9489 104.995 55.9489C106.075 55.9489 106.922 56.1856 107.538 56.6591C108.158 57.1326 108.599 57.7576 108.859 58.5341ZM121.638 67.2273C120.653 67.2273 119.789 66.9929 119.045 66.5241C118.307 66.0554 117.729 65.3996 117.312 64.5568C116.901 63.714 116.695 62.7292 116.695 61.6023C116.695 60.4659 116.901 59.474 117.312 58.6264C117.729 57.7789 118.307 57.1207 119.045 56.652C119.789 56.1832 120.653 55.9489 121.638 55.9489C122.623 55.9489 123.484 56.1832 124.223 56.652C124.966 57.1207 125.544 57.7789 125.956 58.6264C126.373 59.474 126.581 60.4659 126.581 61.6023C126.581 62.7292 126.373 63.714 125.956 64.5568C125.544 65.3996 124.966 66.0554 124.223 66.5241C123.484 66.9929 122.623 67.2273 121.638 67.2273ZM121.638 65.7216C122.386 65.7216 123.001 65.5298 123.484 65.1463C123.967 64.7628 124.325 64.2585 124.557 63.6335C124.789 63.0085 124.905 62.3314 124.905 61.6023C124.905 60.8731 124.789 60.1937 124.557 59.5639C124.325 58.9342 123.967 58.4252 123.484 58.0369C123.001 57.6487 122.386 57.4545 121.638 57.4545C120.89 57.4545 120.274 57.6487 119.791 58.0369C119.308 58.4252 118.951 58.9342 118.719 59.5639C118.487 60.1937 118.371 60.8731 118.371 61.6023C118.371 62.3314 118.487 63.0085 118.719 63.6335C118.951 64.2585 119.308 64.7628 119.791 65.1463C120.274 65.5298 120.89 65.7216 121.638 65.7216ZM133.998 56.0909V57.5114H128.117V56.0909H133.998ZM129.878 67V54.5852C129.878 53.9602 130.025 53.4394 130.319 53.0227C130.612 52.6061 130.993 52.2936 131.462 52.0852C131.931 51.8769 132.426 51.7727 132.946 51.7727C133.358 51.7727 133.694 51.8059 133.955 51.8722C134.215 51.9384 134.409 52 134.537 52.0568L134.054 53.5057C133.969 53.4773 133.851 53.4418 133.699 53.3991C133.552 53.3565 133.358 53.3352 133.117 53.3352C132.563 53.3352 132.163 53.4749 131.917 53.7543C131.675 54.0336 131.554 54.4432 131.554 54.983V67H129.878ZM143.051 71.0909C142.767 71.0909 142.514 71.0672 142.291 71.0199C142.069 70.9773 141.915 70.9347 141.83 70.892L142.256 69.4148C142.663 69.5189 143.023 69.5568 143.335 69.5284C143.648 69.5 143.925 69.3603 144.166 69.1094C144.412 68.8632 144.637 68.4631 144.841 67.9091L145.153 67.0568L141.119 56.0909H142.938L145.949 64.7841H146.062L149.074 56.0909H150.892L146.261 68.5909C146.053 69.1544 145.795 69.6207 145.487 69.9901C145.179 70.3641 144.822 70.6411 144.415 70.821C144.012 71.0009 143.558 71.0909 143.051 71.0909ZM157.146 67.2273C156.161 67.2273 155.297 66.9929 154.553 66.5241C153.815 66.0554 153.237 65.3996 152.82 64.5568C152.408 63.714 152.202 62.7292 152.202 61.6023C152.202 60.4659 152.408 59.474 152.82 58.6264C153.237 57.7789 153.815 57.1207 154.553 56.652C155.297 56.1832 156.161 55.9489 157.146 55.9489C158.13 55.9489 158.992 56.1832 159.731 56.652C160.474 57.1207 161.052 57.7789 161.464 58.6264C161.88 59.474 162.089 60.4659 162.089 61.6023C162.089 62.7292 161.88 63.714 161.464 64.5568C161.052 65.3996 160.474 66.0554 159.731 66.5241C158.992 66.9929 158.13 67.2273 157.146 67.2273ZM157.146 65.7216C157.894 65.7216 158.509 65.5298 158.992 65.1463C159.475 64.7628 159.833 64.2585 160.065 63.6335C160.297 63.0085 160.413 62.3314 160.413 61.6023C160.413 60.8731 160.297 60.1937 160.065 59.5639C159.833 58.9342 159.475 58.4252 158.992 58.0369C158.509 57.6487 157.894 57.4545 157.146 57.4545C156.397 57.4545 155.782 57.6487 155.299 58.0369C154.816 58.4252 154.459 58.9342 154.227 59.5639C153.995 60.1937 153.879 60.8731 153.879 61.6023C153.879 62.3314 153.995 63.0085 154.227 63.6335C154.459 64.2585 154.816 64.7628 155.299 65.1463C155.782 65.5298 156.397 65.7216 157.146 65.7216ZM171.522 62.5398V56.0909H173.199V67H171.522V65.1534H171.409C171.153 65.7074 170.755 66.1785 170.216 66.5668C169.676 66.9503 168.994 67.142 168.17 67.142C167.488 67.142 166.882 66.9929 166.352 66.6946C165.822 66.3916 165.405 65.937 165.102 65.331C164.799 64.7202 164.647 63.9508 164.647 63.0227V56.0909H166.324V62.9091C166.324 63.7045 166.546 64.339 166.991 64.8125C167.441 65.286 168.014 65.5227 168.71 65.5227C169.127 65.5227 169.55 65.4162 169.981 65.2031C170.417 64.9901 170.781 64.6634 171.075 64.223C171.373 63.7827 171.522 63.2216 171.522 62.5398ZM176.268 67V56.0909H177.888V57.7386H178.001C178.2 57.1989 178.56 56.7609 179.081 56.4247C179.602 56.0885 180.189 55.9205 180.842 55.9205C180.965 55.9205 181.119 55.9228 181.304 55.9276C181.489 55.9323 181.628 55.9394 181.723 55.9489V57.6534C181.666 57.6392 181.536 57.6179 181.332 57.5895C181.134 57.5563 180.923 57.5398 180.7 57.5398C180.17 57.5398 179.696 57.651 179.28 57.8736C178.868 58.0914 178.541 58.3944 178.3 58.7827C178.063 59.1662 177.945 59.6042 177.945 60.0966V67H176.268ZM193.767 67.2273C192.744 67.2273 191.863 66.9858 191.125 66.5028C190.386 66.0199 189.818 65.3546 189.42 64.5071C189.022 63.6596 188.824 62.6913 188.824 61.6023C188.824 60.4943 189.027 59.5166 189.434 58.669C189.846 57.8168 190.419 57.1515 191.153 56.6733C191.892 56.1903 192.753 55.9489 193.738 55.9489C194.505 55.9489 195.197 56.0909 195.812 56.375C196.428 56.6591 196.932 57.0568 197.325 57.5682C197.718 58.0795 197.962 58.6761 198.056 59.358H196.38C196.252 58.8608 195.968 58.4205 195.528 58.0369C195.092 57.6487 194.505 57.4545 193.767 57.4545C193.113 57.4545 192.54 57.625 192.048 57.9659C191.56 58.3021 191.179 58.7779 190.904 59.3935C190.635 60.0043 190.5 60.7216 190.5 61.5455C190.5 62.3883 190.632 63.1222 190.897 63.7472C191.167 64.3722 191.546 64.8575 192.034 65.2031C192.526 65.5488 193.104 65.7216 193.767 65.7216C194.202 65.7216 194.598 65.6458 194.953 65.4943C195.308 65.3428 195.609 65.125 195.855 64.8409C196.101 64.5568 196.276 64.2159 196.38 63.8182H198.056C197.962 64.4621 197.727 65.0421 197.353 65.5582C196.984 66.0696 196.494 66.4768 195.883 66.7798C195.277 67.0781 194.572 67.2273 193.767 67.2273ZM204.939 67.2273C203.954 67.2273 203.09 66.9929 202.346 66.5241C201.608 66.0554 201.03 65.3996 200.613 64.5568C200.201 63.714 199.995 62.7292 199.995 61.6023C199.995 60.4659 200.201 59.474 200.613 58.6264C201.03 57.7789 201.608 57.1207 202.346 56.652C203.09 56.1832 203.954 55.9489 204.939 55.9489C205.923 55.9489 206.785 56.1832 207.524 56.652C208.267 57.1207 208.845 57.7789 209.257 58.6264C209.673 59.474 209.882 60.4659 209.882 61.6023C209.882 62.7292 209.673 63.714 209.257 64.5568C208.845 65.3996 208.267 66.0554 207.524 66.5241C206.785 66.9929 205.923 67.2273 204.939 67.2273ZM204.939 65.7216C205.687 65.7216 206.302 65.5298 206.785 65.1463C207.268 64.7628 207.626 64.2585 207.858 63.6335C208.09 63.0085 208.206 62.3314 208.206 61.6023C208.206 60.8731 208.09 60.1937 207.858 59.5639C207.626 58.9342 207.268 58.4252 206.785 58.0369C206.302 57.6487 205.687 57.4545 204.939 57.4545C204.19 57.4545 203.575 57.6487 203.092 58.0369C202.609 58.4252 202.252 58.9342 202.02 59.5639C201.788 60.1937 201.672 60.8731 201.672 61.6023C201.672 62.3314 201.788 63.0085 202.02 63.6335C202.252 64.2585 202.609 64.7628 203.092 65.1463C203.575 65.5298 204.19 65.7216 204.939 65.7216ZM212.44 71.0909V56.0909H214.06V57.8239H214.259C214.382 57.6345 214.552 57.393 214.77 57.0994C214.992 56.8011 215.31 56.536 215.722 56.304C216.138 56.0672 216.702 55.9489 217.412 55.9489C218.33 55.9489 219.14 56.1785 219.841 56.6378C220.542 57.0971 221.089 57.7481 221.482 58.5909C221.875 59.4337 222.071 60.428 222.071 61.5739C222.071 62.7292 221.875 63.7306 221.482 64.5781C221.089 65.4209 220.544 66.0743 219.848 66.5384C219.152 66.9976 218.349 67.2273 217.44 67.2273C216.74 67.2273 216.179 67.1113 215.757 66.8793C215.336 66.6425 215.011 66.375 214.784 66.0767C214.557 65.7737 214.382 65.5227 214.259 65.3239H214.116V71.0909H212.44ZM214.088 61.5455C214.088 62.3693 214.209 63.0961 214.45 63.7259C214.692 64.3509 215.045 64.8409 215.509 65.196C215.973 65.5464 216.541 65.7216 217.213 65.7216C217.914 65.7216 218.499 65.5369 218.967 65.1676C219.441 64.7936 219.796 64.2917 220.033 63.6619C220.274 63.0275 220.395 62.322 220.395 61.5455C220.395 60.7784 220.277 60.0871 220.04 59.4716C219.808 58.8513 219.455 58.3613 218.982 58.0014C218.513 57.6368 217.923 57.4545 217.213 57.4545C216.531 57.4545 215.958 57.6274 215.494 57.973C215.03 58.3139 214.68 58.7921 214.443 59.4077C214.206 60.0185 214.088 60.7311 214.088 61.5455ZM225.317 71.0909C225.033 71.0909 224.779 71.0672 224.557 71.0199C224.334 70.9773 224.18 70.9347 224.095 70.892L224.521 69.4148C224.929 69.5189 225.288 69.5568 225.601 69.5284C225.913 69.5 226.19 69.3603 226.432 69.1094C226.678 68.8632 226.903 68.4631 227.107 67.9091L227.419 67.0568L223.385 56.0909H225.203L228.214 64.7841H228.328L231.339 56.0909H233.158L228.527 68.5909C228.319 69.1544 228.061 69.6207 227.753 69.9901C227.445 70.3641 227.088 70.6411 226.68 70.821C226.278 71.0009 225.823 71.0909 225.317 71.0909ZM235.908 67.1136C235.558 67.1136 235.257 66.9882 235.006 66.7372C234.755 66.4863 234.63 66.1856 234.63 65.8352C234.63 65.4848 234.755 65.1842 235.006 64.9332C235.257 64.6823 235.558 64.5568 235.908 64.5568C236.258 64.5568 236.559 64.6823 236.81 64.9332C237.061 65.1842 237.186 65.4848 237.186 65.8352C237.186 66.0672 237.127 66.2803 237.009 66.4744C236.895 66.6686 236.741 66.8248 236.547 66.9432C236.358 67.0568 236.145 67.1136 235.908 67.1136Z" fill="black"/>
<path d="M21 3V22L1 27.5V48L53 58.5V74" stroke="black"/>
<path d="M279.385 3V22L299 27.5V48L248 58.5V74" stroke="black"/>
</svg>
