<svg width="366" height="102" viewBox="0 0 366 102" fill="none" xmlns="http://www.w3.org/2000/svg">
<path d="M39.897 29H38.0504L43.3913 14.4545H45.2095L50.5504 29H48.7038L44.3572 16.7557H44.2436L39.897 29ZM40.5788 23.3182H48.022V24.8807H40.5788V23.3182ZM54.2649 22.4375V29H52.5888V18.0909H54.2081V19.7955H54.3501C54.6058 19.2415 54.9941 18.7964 55.5149 18.4602C56.0357 18.1193 56.7081 17.9489 57.532 17.9489C58.2706 17.9489 58.9169 18.1004 59.4709 18.4034C60.0249 18.7017 60.4557 19.1562 60.7635 19.767C61.0713 20.3731 61.2251 21.1402 61.2251 22.0682V29H59.549V22.1818C59.549 21.3248 59.3265 20.6572 58.8814 20.179C58.4363 19.696 57.8255 19.4545 57.049 19.4545C56.514 19.4545 56.0357 19.5705 55.6143 19.8026C55.1977 20.0346 54.8686 20.3731 54.6271 20.8182C54.3857 21.2633 54.2649 21.803 54.2649 22.4375ZM68.4073 29.2273C67.4982 29.2273 66.6957 28.9976 65.9996 28.5384C65.3036 28.0743 64.7591 27.4209 64.3661 26.5781C63.9731 25.7306 63.7766 24.7292 63.7766 23.5739C63.7766 22.428 63.9731 21.4337 64.3661 20.5909C64.7591 19.7481 65.306 19.0971 66.0067 18.6378C66.7075 18.1785 67.5172 17.9489 68.4357 17.9489C69.146 17.9489 69.707 18.0672 70.119 18.304C70.5356 18.536 70.8529 18.8011 71.0707 19.0994C71.2932 19.393 71.466 19.6345 71.5891 19.8239H71.7312V14.4545H73.4073V29H71.788V27.3239H71.5891C71.466 27.5227 71.2908 27.7737 71.0636 28.0767C70.8363 28.375 70.512 28.6425 70.0906 28.8793C69.6692 29.1113 69.1081 29.2273 68.4073 29.2273ZM68.6346 27.7216C69.3069 27.7216 69.8751 27.5464 70.3391 27.196C70.8031 26.8409 71.1559 26.3509 71.3974 25.7259C71.6388 25.0961 71.7596 24.3693 71.7596 23.5455C71.7596 22.7311 71.6412 22.0185 71.4045 21.4077C71.1677 20.7921 70.8174 20.3139 70.3533 19.973C69.8893 19.6274 69.3164 19.4545 68.6346 19.4545C67.9244 19.4545 67.3325 19.6368 66.859 20.0014C66.3903 20.3613 66.0375 20.8513 65.8008 21.4716C65.5688 22.0871 65.4528 22.7784 65.4528 23.5455C65.4528 24.322 65.5711 25.0275 65.8079 25.6619C66.0494 26.2917 66.4045 26.7936 66.8732 27.1676C67.3467 27.5369 67.9338 27.7216 68.6346 27.7216ZM84.8065 29L81.4826 18.0909H83.244L85.6019 26.4432H85.7156L88.0451 18.0909H89.8349L92.136 26.4148H92.2496L94.6076 18.0909H96.369L93.0451 29H91.3974L89.011 20.6193H88.8406L86.4542 29H84.8065ZM100.261 22.4375V29H98.5849V14.4545H100.261V19.7955H100.403C100.659 19.232 101.042 18.7846 101.554 18.4531C102.07 18.117 102.756 17.9489 103.613 17.9489C104.357 17.9489 105.008 18.098 105.566 18.3963C106.125 18.6899 106.558 19.142 106.866 19.7528C107.179 20.3589 107.335 21.1307 107.335 22.0682V29H105.659V22.1818C105.659 21.3153 105.434 20.6454 104.984 20.1719C104.539 19.6937 103.921 19.4545 103.13 19.4545C102.581 19.4545 102.089 19.5705 101.653 19.8026C101.222 20.0346 100.881 20.3731 100.63 20.8182C100.384 21.2633 100.261 21.803 100.261 22.4375ZM114.975 29.2273C113.924 29.2273 113.017 28.9953 112.255 28.5312C111.497 28.0625 110.913 27.4091 110.501 26.571C110.094 25.7282 109.89 24.7481 109.89 23.6307C109.89 22.5133 110.094 21.5284 110.501 20.6761C110.913 19.8191 111.486 19.1515 112.219 18.6733C112.958 18.1903 113.82 17.9489 114.805 17.9489C115.373 17.9489 115.934 18.0436 116.488 18.233C117.042 18.4223 117.546 18.7301 118.001 19.1562C118.455 19.5777 118.817 20.1364 119.087 20.8324C119.357 21.5284 119.492 22.3854 119.492 23.4034V24.1136H111.083V22.6648H117.788C117.788 22.0492 117.665 21.5 117.418 21.017C117.177 20.5341 116.831 20.1529 116.381 19.8736C115.936 19.5942 115.411 19.4545 114.805 19.4545C114.137 19.4545 113.559 19.6203 113.072 19.9517C112.589 20.2784 112.217 20.7045 111.957 21.2301C111.696 21.7557 111.566 22.3191 111.566 22.9205V23.8864C111.566 24.7102 111.708 25.4086 111.992 25.9815C112.281 26.5497 112.681 26.983 113.192 27.2812C113.704 27.5748 114.298 27.7216 114.975 27.7216C115.415 27.7216 115.813 27.66 116.168 27.5369C116.528 27.4091 116.838 27.2197 117.099 26.9688C117.359 26.7131 117.56 26.3958 117.702 26.017L119.322 26.4716C119.151 27.0208 118.865 27.5038 118.462 27.9205C118.06 28.3324 117.563 28.6544 116.971 28.8864C116.379 29.1136 115.714 29.2273 114.975 29.2273ZM123.718 22.4375V29H122.042V18.0909H123.661V19.7955H123.803C124.059 19.2415 124.447 18.7964 124.968 18.4602C125.489 18.1193 126.161 17.9489 126.985 17.9489C127.724 17.9489 128.37 18.1004 128.924 18.4034C129.478 18.7017 129.909 19.1562 130.217 19.767C130.524 20.3731 130.678 21.1402 130.678 22.0682V29H129.002V22.1818C129.002 21.3248 128.78 20.6572 128.335 20.179C127.889 19.696 127.279 19.4545 126.502 19.4545C125.967 19.4545 125.489 19.5705 125.067 19.8026C124.651 20.0346 124.322 20.3731 124.08 20.8182C123.839 21.2633 123.718 21.803 123.718 22.4375ZM139.366 29V18.0909H140.985V19.7386H141.099C141.298 19.1989 141.658 18.7609 142.179 18.4247C142.699 18.0885 143.287 17.9205 143.94 17.9205C144.063 17.9205 144.217 17.9228 144.402 17.9276C144.586 17.9323 144.726 17.9394 144.821 17.9489V19.6534C144.764 19.6392 144.634 19.6179 144.43 19.5895C144.231 19.5563 144.02 19.5398 143.798 19.5398C143.268 19.5398 142.794 19.651 142.377 19.8736C141.966 20.0914 141.639 20.3944 141.397 20.7827C141.161 21.1662 141.042 21.6042 141.042 22.0966V29H139.366ZM151.049 29.2273C149.998 29.2273 149.092 28.9953 148.329 28.5312C147.572 28.0625 146.987 27.4091 146.575 26.571C146.168 25.7282 145.964 24.7481 145.964 23.6307C145.964 22.5133 146.168 21.5284 146.575 20.6761C146.987 19.8191 147.56 19.1515 148.294 18.6733C149.032 18.1903 149.894 17.9489 150.879 17.9489C151.447 17.9489 152.008 18.0436 152.562 18.233C153.116 18.4223 153.62 18.7301 154.075 19.1562C154.529 19.5777 154.892 20.1364 155.162 20.8324C155.431 21.5284 155.566 22.3854 155.566 23.4034V24.1136H147.157V22.6648H153.862C153.862 22.0492 153.739 21.5 153.493 21.017C153.251 20.5341 152.905 20.1529 152.456 19.8736C152.011 19.5942 151.485 19.4545 150.879 19.4545C150.211 19.4545 149.634 19.6203 149.146 19.9517C148.663 20.2784 148.291 20.7045 148.031 21.2301C147.77 21.7557 147.64 22.3191 147.64 22.9205V23.8864C147.64 24.7102 147.782 25.4086 148.066 25.9815C148.355 26.5497 148.755 26.983 149.267 27.2812C149.778 27.5748 150.372 27.7216 151.049 27.7216C151.49 27.7216 151.887 27.66 152.243 27.5369C152.602 27.4091 152.913 27.2197 153.173 26.9688C153.433 26.7131 153.635 26.3958 153.777 26.017L155.396 26.4716C155.225 27.0208 154.939 27.5038 154.537 27.9205C154.134 28.3324 153.637 28.6544 153.045 28.8864C152.453 29.1136 151.788 29.2273 151.049 29.2273ZM161.326 29.2557C160.635 29.2557 160.008 29.1255 159.444 28.8651C158.881 28.5999 158.433 28.2188 158.102 27.7216C157.77 27.2197 157.605 26.6136 157.605 25.9034C157.605 25.2784 157.728 24.7718 157.974 24.3835C158.22 23.9905 158.549 23.6828 158.961 23.4602C159.373 23.2377 159.828 23.072 160.325 22.9631C160.827 22.8494 161.331 22.7595 161.838 22.6932C162.501 22.608 163.038 22.544 163.45 22.5014C163.867 22.4541 164.17 22.3759 164.359 22.267C164.553 22.1581 164.65 21.9687 164.65 21.6989V21.642C164.65 20.9413 164.458 20.3968 164.075 20.0085C163.696 19.6203 163.121 19.4261 162.349 19.4261C161.549 19.4261 160.922 19.6013 160.467 19.9517C160.012 20.3021 159.693 20.6761 159.508 21.0739L157.917 20.5057C158.201 19.8428 158.58 19.3267 159.054 18.9574C159.532 18.5833 160.053 18.3229 160.616 18.1761C161.184 18.0246 161.743 17.9489 162.292 17.9489C162.643 17.9489 163.045 17.9915 163.5 18.0767C163.959 18.1572 164.402 18.3253 164.828 18.581C165.259 18.8366 165.616 19.2225 165.9 19.7386C166.184 20.2547 166.326 20.946 166.326 21.8125V29H164.65V27.5227H164.565C164.451 27.7595 164.262 28.0128 163.997 28.2827C163.732 28.5526 163.379 28.7822 162.939 28.9716C162.498 29.161 161.961 29.2557 161.326 29.2557ZM161.582 27.75C162.245 27.75 162.804 27.6198 163.258 27.3594C163.717 27.099 164.063 26.7628 164.295 26.3509C164.532 25.9389 164.65 25.5057 164.65 25.0511V23.517C164.579 23.6023 164.423 23.6804 164.181 23.7514C163.945 23.8177 163.67 23.8769 163.358 23.929C163.05 23.9763 162.749 24.0189 162.456 24.0568C162.167 24.09 161.932 24.1184 161.752 24.142C161.317 24.1989 160.91 24.2912 160.531 24.419C160.157 24.5421 159.854 24.7292 159.622 24.9801C159.395 25.2263 159.281 25.5625 159.281 25.9886C159.281 26.571 159.496 27.0114 159.927 27.3097C160.363 27.6032 160.914 27.75 161.582 27.75ZM173.505 29.2273C172.596 29.2273 171.793 28.9976 171.097 28.5384C170.401 28.0743 169.857 27.4209 169.464 26.5781C169.071 25.7306 168.874 24.7292 168.874 23.5739C168.874 22.428 169.071 21.4337 169.464 20.5909C169.857 19.7481 170.404 19.0971 171.104 18.6378C171.805 18.1785 172.615 17.9489 173.533 17.9489C174.244 17.9489 174.805 18.0672 175.217 18.304C175.633 18.536 175.951 18.8011 176.168 19.0994C176.391 19.393 176.564 19.6345 176.687 19.8239H176.829V14.4545H178.505V29H176.886V27.3239H176.687C176.564 27.5227 176.388 27.7737 176.161 28.0767C175.934 28.375 175.61 28.6425 175.188 28.8793C174.767 29.1113 174.206 29.2273 173.505 29.2273ZM173.732 27.7216C174.405 27.7216 174.973 27.5464 175.437 27.196C175.901 26.8409 176.254 26.3509 176.495 25.7259C176.737 25.0961 176.857 24.3693 176.857 23.5455C176.857 22.7311 176.739 22.0185 176.502 21.4077C176.265 20.7921 175.915 20.3139 175.451 19.973C174.987 19.6274 174.414 19.4545 173.732 19.4545C173.022 19.4545 172.43 19.6368 171.957 20.0014C171.488 20.3613 171.135 20.8513 170.898 21.4716C170.666 22.0871 170.55 22.7784 170.55 23.5455C170.55 24.322 170.669 25.0275 170.906 25.6619C171.147 26.2917 171.502 26.7936 171.971 27.1676C172.444 27.5369 173.031 27.7216 173.732 27.7216ZM181.808 29V18.0909H183.484V29H181.808ZM182.66 16.2727C182.333 16.2727 182.051 16.1615 181.815 15.9389C181.583 15.7164 181.467 15.4489 181.467 15.1364C181.467 14.8239 181.583 14.5563 181.815 14.3338C182.051 14.1113 182.333 14 182.66 14C182.987 14 183.266 14.1113 183.498 14.3338C183.735 14.5563 183.853 14.8239 183.853 15.1364C183.853 15.4489 183.735 15.7164 183.498 15.9389C183.266 16.1615 182.987 16.2727 182.66 16.2727ZM188.23 22.4375V29H186.554V18.0909H188.173V19.7955H188.315C188.571 19.2415 188.959 18.7964 189.48 18.4602C190.001 18.1193 190.673 17.9489 191.497 17.9489C192.235 17.9489 192.882 18.1004 193.436 18.4034C193.99 18.7017 194.421 19.1562 194.728 19.767C195.036 20.3731 195.19 21.1402 195.19 22.0682V29H193.514V22.1818C193.514 21.3248 193.291 20.6572 192.846 20.179C192.401 19.696 191.79 19.4545 191.014 19.4545C190.479 19.4545 190.001 19.5705 189.579 19.8026C189.163 20.0346 188.833 20.3731 188.592 20.8182C188.35 21.2633 188.23 21.803 188.23 22.4375ZM202.656 33.3182C201.847 33.3182 201.151 33.214 200.568 33.0057C199.986 32.8021 199.5 32.5322 199.112 32.196C198.729 31.8646 198.423 31.5095 198.196 31.1307L199.531 30.1932C199.683 30.392 199.875 30.6193 200.107 30.875C200.339 31.1354 200.656 31.3603 201.058 31.5497C201.465 31.7438 201.998 31.8409 202.656 31.8409C203.537 31.8409 204.264 31.6278 204.837 31.2017C205.41 30.7756 205.696 30.108 205.696 29.1989V26.983H205.554C205.431 27.1818 205.256 27.428 205.028 27.7216C204.806 28.0104 204.484 28.2685 204.062 28.4957C203.646 28.7183 203.082 28.8295 202.372 28.8295C201.491 28.8295 200.701 28.6212 200 28.2045C199.304 27.7879 198.752 27.1818 198.345 26.3864C197.943 25.5909 197.741 24.625 197.741 23.4886C197.741 22.3712 197.938 21.3982 198.331 20.5696C198.724 19.7363 199.271 19.0923 199.972 18.6378C200.672 18.1785 201.482 17.9489 202.401 17.9489C203.111 17.9489 203.674 18.0672 204.091 18.304C204.512 18.536 204.834 18.8011 205.057 19.0994C205.284 19.393 205.459 19.6345 205.582 19.8239H205.753V18.0909H207.372V29.3125C207.372 30.25 207.159 31.0123 206.733 31.5994C206.312 32.1913 205.743 32.6245 205.028 32.8991C204.318 33.1785 203.527 33.3182 202.656 33.3182ZM202.599 27.3239C203.272 27.3239 203.84 27.17 204.304 26.8622C204.768 26.5545 205.121 26.1117 205.362 25.5341C205.604 24.9564 205.724 24.2652 205.724 23.4602C205.724 22.6742 205.606 21.9806 205.369 21.3793C205.133 20.7779 204.782 20.3068 204.318 19.9659C203.854 19.625 203.281 19.4545 202.599 19.4545C201.889 19.4545 201.297 19.6345 200.824 19.9943C200.355 20.3542 200.002 20.8371 199.766 21.4432C199.534 22.0492 199.418 22.7216 199.418 23.4602C199.418 24.2178 199.536 24.8878 199.773 25.4702C200.014 26.0478 200.369 26.5024 200.838 26.8338C201.312 27.1605 201.899 27.3239 202.599 27.3239ZM220.497 29.2273C219.474 29.2273 218.594 28.9858 217.855 28.5028C217.116 28.0199 216.548 27.3546 216.151 26.5071C215.753 25.6596 215.554 24.6913 215.554 23.6023C215.554 22.4943 215.758 21.5166 216.165 20.669C216.577 19.8168 217.15 19.1515 217.884 18.6733C218.622 18.1903 219.484 17.9489 220.469 17.9489C221.236 17.9489 221.927 18.0909 222.543 18.375C223.158 18.6591 223.662 19.0568 224.055 19.5682C224.448 20.0795 224.692 20.6761 224.787 21.358H223.111C222.983 20.8608 222.699 20.4205 222.259 20.0369C221.823 19.6487 221.236 19.4545 220.497 19.4545C219.844 19.4545 219.271 19.625 218.778 19.9659C218.291 20.3021 217.91 20.7779 217.635 21.3935C217.365 22.0043 217.23 22.7216 217.23 23.5455C217.23 24.3883 217.363 25.1222 217.628 25.7472C217.898 26.3722 218.277 26.8575 218.764 27.2031C219.257 27.5488 219.834 27.7216 220.497 27.7216C220.933 27.7216 221.328 27.6458 221.683 27.4943C222.038 27.3428 222.339 27.125 222.585 26.8409C222.831 26.5568 223.007 26.2159 223.111 25.8182H224.787C224.692 26.4621 224.458 27.0421 224.084 27.5582C223.714 28.0696 223.224 28.4768 222.614 28.7798C222.008 29.0781 221.302 29.2273 220.497 29.2273ZM231.811 29.2273C230.76 29.2273 229.853 28.9953 229.091 28.5312C228.333 28.0625 227.749 27.4091 227.337 26.571C226.929 25.7282 226.726 24.7481 226.726 23.6307C226.726 22.5133 226.929 21.5284 227.337 20.6761C227.749 19.8191 228.321 19.1515 229.055 18.6733C229.794 18.1903 230.656 17.9489 231.641 17.9489C232.209 17.9489 232.77 18.0436 233.324 18.233C233.878 18.4223 234.382 18.7301 234.837 19.1562C235.291 19.5777 235.653 20.1364 235.923 20.8324C236.193 21.5284 236.328 22.3854 236.328 23.4034V24.1136H227.919V22.6648H234.624C234.624 22.0492 234.5 21.5 234.254 21.017C234.013 20.5341 233.667 20.1529 233.217 19.8736C232.772 19.5942 232.247 19.4545 231.641 19.4545C230.973 19.4545 230.395 19.6203 229.908 19.9517C229.425 20.2784 229.053 20.7045 228.793 21.2301C228.532 21.7557 228.402 22.3191 228.402 22.9205V23.8864C228.402 24.7102 228.544 25.4086 228.828 25.9815C229.117 26.5497 229.517 26.983 230.028 27.2812C230.54 27.5748 231.134 27.7216 231.811 27.7216C232.251 27.7216 232.649 27.66 233.004 27.5369C233.364 27.4091 233.674 27.2197 233.935 26.9688C234.195 26.7131 234.396 26.3958 234.538 26.017L236.158 26.4716C235.987 27.0208 235.701 27.5038 235.298 27.9205C234.896 28.3324 234.399 28.6544 233.807 28.8864C233.215 29.1136 232.55 29.2273 231.811 29.2273ZM240.554 22.4375V29H238.878V18.0909H240.497V19.7955H240.639C240.895 19.2415 241.283 18.7964 241.804 18.4602C242.325 18.1193 242.997 17.9489 243.821 17.9489C244.56 17.9489 245.206 18.1004 245.76 18.4034C246.314 18.7017 246.745 19.1562 247.053 19.767C247.36 20.3731 247.514 21.1402 247.514 22.0682V29H245.838V22.1818C245.838 21.3248 245.616 20.6572 245.17 20.179C244.725 19.696 244.115 19.4545 243.338 19.4545C242.803 19.4545 242.325 19.5705 241.903 19.8026C241.487 20.0346 241.158 20.3731 240.916 20.8182C240.675 21.2633 240.554 21.803 240.554 22.4375ZM255.321 18.0909V19.5114H249.668V18.0909H255.321ZM251.316 15.4773H252.992V25.875C252.992 26.3485 253.06 26.7036 253.198 26.9403C253.34 27.1723 253.52 27.3286 253.738 27.4091C253.96 27.4848 254.194 27.5227 254.441 27.5227C254.625 27.5227 254.777 27.5133 254.895 27.4943C255.014 27.4706 255.108 27.4517 255.179 27.4375L255.52 28.9432C255.407 28.9858 255.248 29.0284 255.044 29.071C254.841 29.1184 254.583 29.142 254.27 29.142C253.797 29.142 253.333 29.0402 252.878 28.8366C252.428 28.633 252.054 28.3229 251.756 27.9062C251.462 27.4896 251.316 26.964 251.316 26.3295V15.4773ZM262.299 29.2273C261.248 29.2273 260.342 28.9953 259.579 28.5312C258.822 28.0625 258.237 27.4091 257.825 26.571C257.418 25.7282 257.214 24.7481 257.214 23.6307C257.214 22.5133 257.418 21.5284 257.825 20.6761C258.237 19.8191 258.81 19.1515 259.544 18.6733C260.282 18.1903 261.144 17.9489 262.129 17.9489C262.697 17.9489 263.258 18.0436 263.812 18.233C264.366 18.4223 264.87 18.7301 265.325 19.1562C265.779 19.5777 266.142 20.1364 266.412 20.8324C266.681 21.5284 266.816 22.3854 266.816 23.4034V24.1136H258.407V22.6648H265.112C265.112 22.0492 264.989 21.5 264.743 21.017C264.501 20.5341 264.155 20.1529 263.706 19.8736C263.261 19.5942 262.735 19.4545 262.129 19.4545C261.461 19.4545 260.884 19.6203 260.396 19.9517C259.913 20.2784 259.541 20.7045 259.281 21.2301C259.02 21.7557 258.89 22.3191 258.89 22.9205V23.8864C258.89 24.7102 259.032 25.4086 259.316 25.9815C259.605 26.5497 260.005 26.983 260.517 27.2812C261.028 27.5748 261.622 27.7216 262.299 27.7216C262.74 27.7216 263.137 27.66 263.493 27.5369C263.852 27.4091 264.163 27.2197 264.423 26.9688C264.683 26.7131 264.885 26.3958 265.027 26.017L266.646 26.4716C266.475 27.0208 266.189 27.5038 265.787 27.9205C265.384 28.3324 264.887 28.6544 264.295 28.8864C263.703 29.1136 263.038 29.2273 262.299 29.2273ZM269.366 29V18.0909H270.985V19.7386H271.099C271.298 19.1989 271.658 18.7609 272.179 18.4247C272.699 18.0885 273.287 17.9205 273.94 17.9205C274.063 17.9205 274.217 17.9228 274.402 17.9276C274.586 17.9323 274.726 17.9394 274.821 17.9489V19.6534C274.764 19.6392 274.634 19.6179 274.43 19.5895C274.231 19.5563 274.02 19.5398 273.798 19.5398C273.268 19.5398 272.794 19.651 272.377 19.8736C271.966 20.0914 271.639 20.3944 271.397 20.7827C271.161 21.1662 271.042 21.6042 271.042 22.0966V29H269.366ZM281.049 29.2273C279.998 29.2273 279.092 28.9953 278.329 28.5312C277.572 28.0625 276.987 27.4091 276.575 26.571C276.168 25.7282 275.964 24.7481 275.964 23.6307C275.964 22.5133 276.168 21.5284 276.575 20.6761C276.987 19.8191 277.56 19.1515 278.294 18.6733C279.032 18.1903 279.894 17.9489 280.879 17.9489C281.447 17.9489 282.008 18.0436 282.562 18.233C283.116 18.4223 283.62 18.7301 284.075 19.1562C284.529 19.5777 284.892 20.1364 285.162 20.8324C285.431 21.5284 285.566 22.3854 285.566 23.4034V24.1136H277.157V22.6648H283.862C283.862 22.0492 283.739 21.5 283.493 21.017C283.251 20.5341 282.905 20.1529 282.456 19.8736C282.011 19.5942 281.485 19.4545 280.879 19.4545C280.211 19.4545 279.634 19.6203 279.146 19.9517C278.663 20.2784 278.291 20.7045 278.031 21.2301C277.77 21.7557 277.64 22.3191 277.64 22.9205V23.8864C277.64 24.7102 277.782 25.4086 278.066 25.9815C278.355 26.5497 278.755 26.983 279.267 27.2812C279.778 27.5748 280.372 27.7216 281.049 27.7216C281.49 27.7216 281.887 27.66 282.243 27.5369C282.602 27.4091 282.913 27.2197 283.173 26.9688C283.433 26.7131 283.635 26.3958 283.777 26.017L285.396 26.4716C285.225 27.0208 284.939 27.5038 284.537 27.9205C284.134 28.3324 283.637 28.6544 283.045 28.8864C282.453 29.1136 281.788 29.2273 281.049 29.2273ZM292.235 29.2273C291.326 29.2273 290.524 28.9976 289.828 28.5384C289.132 28.0743 288.587 27.4209 288.194 26.5781C287.801 25.7306 287.605 24.7292 287.605 23.5739C287.605 22.428 287.801 21.4337 288.194 20.5909C288.587 19.7481 289.134 19.0971 289.835 18.6378C290.536 18.1785 291.345 17.9489 292.264 17.9489C292.974 17.9489 293.535 18.0672 293.947 18.304C294.364 18.536 294.681 18.8011 294.899 19.0994C295.121 19.393 295.294 19.6345 295.417 19.8239H295.559V14.4545H297.235V29H295.616V27.3239H295.417C295.294 27.5227 295.119 27.7737 294.892 28.0767C294.664 28.375 294.34 28.6425 293.919 28.8793C293.497 29.1113 292.936 29.2273 292.235 29.2273ZM292.463 27.7216C293.135 27.7216 293.703 27.5464 294.167 27.196C294.631 26.8409 294.984 26.3509 295.225 25.7259C295.467 25.0961 295.588 24.3693 295.588 23.5455C295.588 22.7311 295.469 22.0185 295.233 21.4077C294.996 20.7921 294.645 20.3139 294.181 19.973C293.717 19.6274 293.145 19.4545 292.463 19.4545C291.752 19.4545 291.161 19.6368 290.687 20.0014C290.218 20.3613 289.866 20.8513 289.629 21.4716C289.397 22.0871 289.281 22.7784 289.281 23.5455C289.281 24.322 289.399 25.0275 289.636 25.6619C289.877 26.2917 290.233 26.7936 290.701 27.1676C291.175 27.5369 291.762 27.7216 292.463 27.7216ZM310.907 18.0909V19.5114H305.254V18.0909H310.907ZM306.902 15.4773H308.578V25.875C308.578 26.3485 308.646 26.7036 308.784 26.9403C308.926 27.1723 309.106 27.3286 309.324 27.4091C309.546 27.4848 309.78 27.5227 310.027 27.5227C310.211 27.5227 310.363 27.5133 310.481 27.4943C310.6 27.4706 310.694 27.4517 310.765 27.4375L311.106 28.9432C310.993 28.9858 310.834 29.0284 310.63 29.071C310.427 29.1184 310.169 29.142 309.856 29.142C309.383 29.142 308.919 29.0402 308.464 28.8366C308.014 28.633 307.64 28.3229 307.342 27.9062C307.048 27.4896 306.902 26.964 306.902 26.3295V15.4773ZM314.508 33.0909C314.224 33.0909 313.971 33.0672 313.748 33.0199C313.526 32.9773 313.372 32.9347 313.287 32.892L313.713 31.4148C314.12 31.5189 314.48 31.5568 314.792 31.5284C315.105 31.5 315.382 31.3603 315.623 31.1094C315.869 30.8632 316.094 30.4631 316.298 29.9091L316.61 29.0568L312.576 18.0909H314.395L317.406 26.7841H317.52L320.531 18.0909H322.349L317.718 30.5909C317.51 31.1544 317.252 31.6207 316.944 31.9901C316.636 32.3641 316.279 32.6411 315.872 32.821C315.469 33.0009 315.015 33.0909 314.508 33.0909ZM324.561 33.0909V18.0909H326.181V19.8239H326.38C326.503 19.6345 326.673 19.393 326.891 19.0994C327.114 18.8011 327.431 18.536 327.843 18.304C328.259 18.0672 328.823 17.9489 329.533 17.9489C330.452 17.9489 331.261 18.1785 331.962 18.6378C332.663 19.0971 333.21 19.7481 333.603 20.5909C333.996 21.4337 334.192 22.428 334.192 23.5739C334.192 24.7292 333.996 25.7306 333.603 26.5781C333.21 27.4209 332.665 28.0743 331.969 28.5384C331.273 28.9976 330.471 29.2273 329.561 29.2273C328.861 29.2273 328.3 29.1113 327.878 28.8793C327.457 28.6425 327.132 28.375 326.905 28.0767C326.678 27.7737 326.503 27.5227 326.38 27.3239H326.238V33.0909H324.561ZM326.209 23.5455C326.209 24.3693 326.33 25.0961 326.571 25.7259C326.813 26.3509 327.166 26.8409 327.63 27.196C328.094 27.5464 328.662 27.7216 329.334 27.7216C330.035 27.7216 330.62 27.5369 331.088 27.1676C331.562 26.7936 331.917 26.2917 332.154 25.6619C332.395 25.0275 332.516 24.322 332.516 23.5455C332.516 22.7784 332.398 22.0871 332.161 21.4716C331.929 20.8513 331.576 20.3613 331.103 20.0014C330.634 19.6368 330.044 19.4545 329.334 19.4545C328.652 19.4545 328.079 19.6274 327.615 19.973C327.151 20.3139 326.801 20.7921 326.564 21.4077C326.328 22.0185 326.209 22.7311 326.209 23.5455ZM341.323 29.2273C340.272 29.2273 339.365 28.9953 338.603 28.5312C337.845 28.0625 337.26 27.4091 336.848 26.571C336.441 25.7282 336.238 24.7481 336.238 23.6307C336.238 22.5133 336.441 21.5284 336.848 20.6761C337.26 19.8191 337.833 19.1515 338.567 18.6733C339.306 18.1903 340.167 17.9489 341.152 17.9489C341.721 17.9489 342.282 18.0436 342.836 18.233C343.39 18.4223 343.894 18.7301 344.348 19.1562C344.803 19.5777 345.165 20.1364 345.435 20.8324C345.705 21.5284 345.84 22.3854 345.84 23.4034V24.1136H337.431V22.6648H344.135C344.135 22.0492 344.012 21.5 343.766 21.017C343.525 20.5341 343.179 20.1529 342.729 19.8736C342.284 19.5942 341.758 19.4545 341.152 19.4545C340.485 19.4545 339.907 19.6203 339.419 19.9517C338.936 20.2784 338.565 20.7045 338.304 21.2301C338.044 21.7557 337.914 22.3191 337.914 22.9205V23.8864C337.914 24.7102 338.056 25.4086 338.34 25.9815C338.629 26.5497 339.029 26.983 339.54 27.2812C340.051 27.5748 340.646 27.7216 341.323 27.7216C341.763 27.7216 342.161 27.66 342.516 27.5369C342.876 27.4091 343.186 27.2197 343.446 26.9688C343.707 26.7131 343.908 26.3958 344.05 26.017L345.669 26.4716C345.499 27.0208 345.212 27.5038 344.81 27.9205C344.408 28.3324 343.91 28.6544 343.319 28.8864C342.727 29.1136 342.061 29.2273 341.323 29.2273ZM350.89 27.0114L350.776 27.7784C350.695 28.3182 350.572 28.8958 350.407 29.5114C350.246 30.1269 350.078 30.7069 349.902 31.2514C349.727 31.7959 349.583 32.2292 349.469 32.5511H348.191C348.252 32.2481 348.333 31.848 348.432 31.3509C348.532 30.8537 348.631 30.2973 348.73 29.6818C348.835 29.071 348.92 28.446 348.986 27.8068L349.071 27.0114H350.89ZM40.1261 61.2273C39.1412 61.2273 38.2771 60.9929 37.5337 60.5241C36.7951 60.0554 36.2174 59.3996 35.8008 58.5568C35.3888 57.714 35.1829 56.7292 35.1829 55.6023C35.1829 54.4659 35.3888 53.474 35.8008 52.6264C36.2174 51.7789 36.7951 51.1207 37.5337 50.652C38.2771 50.1832 39.1412 49.9489 40.1261 49.9489C41.1109 49.9489 41.9727 50.1832 42.7113 50.652C43.4547 51.1207 44.0323 51.7789 44.4442 52.6264C44.8609 53.474 45.0692 54.4659 45.0692 55.6023C45.0692 56.7292 44.8609 57.714 44.4442 58.5568C44.0323 59.3996 43.4547 60.0554 42.7113 60.5241C41.9727 60.9929 41.1109 61.2273 40.1261 61.2273ZM40.1261 59.7216C40.8742 59.7216 41.4897 59.5298 41.9727 59.1463C42.4556 58.7628 42.8131 58.2585 43.0451 57.6335C43.2771 57.0085 43.3931 56.3314 43.3931 55.6023C43.3931 54.8731 43.2771 54.1937 43.0451 53.5639C42.8131 52.9342 42.4556 52.4252 41.9727 52.0369C41.4897 51.6487 40.8742 51.4545 40.1261 51.4545C39.378 51.4545 38.7624 51.6487 38.2795 52.0369C37.7965 52.4252 37.439 52.9342 37.207 53.5639C36.975 54.1937 36.859 54.8731 36.859 55.6023C36.859 56.3314 36.975 57.0085 37.207 57.6335C37.439 58.2585 37.7965 58.7628 38.2795 59.1463C38.7624 59.5298 39.378 59.7216 40.1261 59.7216ZM54.5028 56.5398V50.0909H56.179V61H54.5028V59.1534H54.3892C54.1335 59.7074 53.7358 60.1785 53.196 60.5668C52.6563 60.9503 51.9744 61.142 51.1506 61.142C50.4688 61.142 49.8627 60.9929 49.3324 60.6946C48.8021 60.3916 48.3854 59.937 48.0824 59.331C47.7794 58.7202 47.6278 57.9508 47.6278 57.0227V50.0909H49.304V56.9091C49.304 57.7045 49.5265 58.339 49.9716 58.8125C50.4214 59.286 50.9943 59.5227 51.6903 59.5227C52.107 59.5227 52.5308 59.4162 52.9616 59.2031C53.3973 58.9901 53.7618 58.6634 54.0554 58.223C54.3537 57.7827 54.5028 57.2216 54.5028 56.5398ZM63.9933 50.0909V51.5114H58.3398V50.0909H63.9933ZM59.9876 47.4773H61.6637V57.875C61.6637 58.3485 61.7324 58.7036 61.8697 58.9403C62.0117 59.1723 62.1916 59.3286 62.4094 59.4091C62.632 59.4848 62.8664 59.5227 63.1126 59.5227C63.2972 59.5227 63.4487 59.5133 63.5671 59.4943C63.6855 59.4706 63.7802 59.4517 63.8512 59.4375L64.1921 60.9432C64.0785 60.9858 63.9199 61.0284 63.7163 61.071C63.5127 61.1184 63.2546 61.142 62.9421 61.142C62.4686 61.142 62.0046 61.0402 61.5501 60.8366C61.1003 60.633 60.7262 60.3229 60.4279 59.9062C60.1344 59.4896 59.9876 58.964 59.9876 58.3295V47.4773ZM76.7134 61.2273C75.6623 61.2273 74.7556 60.9953 73.9933 60.5312C73.2357 60.0625 72.6509 59.4091 72.239 58.571C71.8318 57.7282 71.6282 56.7481 71.6282 55.6307C71.6282 54.5133 71.8318 53.5284 72.239 52.6761C72.6509 51.8191 73.2238 51.1515 73.9577 50.6733C74.6964 50.1903 75.5581 49.9489 76.543 49.9489C77.1112 49.9489 77.6722 50.0436 78.2262 50.233C78.7802 50.4223 79.2844 50.7301 79.739 51.1562C80.1935 51.5777 80.5558 52.1364 80.8256 52.8324C81.0955 53.5284 81.2305 54.3854 81.2305 55.4034V56.1136H72.8214V54.6648H79.5259C79.5259 54.0492 79.4028 53.5 79.1566 53.017C78.9151 52.5341 78.5695 52.1529 78.1197 51.8736C77.6746 51.5942 77.149 51.4545 76.543 51.4545C75.8754 51.4545 75.2977 51.6203 74.81 51.9517C74.3271 52.2784 73.9554 52.7045 73.695 53.2301C73.4345 53.7557 73.3043 54.3191 73.3043 54.9205V55.8864C73.3043 56.7102 73.4464 57.4086 73.7305 57.9815C74.0193 58.5497 74.4194 58.983 74.9308 59.2812C75.4421 59.5748 76.0363 59.7216 76.7134 59.7216C77.1538 59.7216 77.5515 59.66 77.9066 59.5369C78.2665 59.4091 78.5766 59.2197 78.837 58.9688C79.0974 58.7131 79.2987 58.3958 79.4407 58.017L81.06 58.4716C80.8896 59.0208 80.6031 59.5038 80.2006 59.9205C79.7982 60.3324 79.301 60.6544 78.7092 60.8864C78.1173 61.1136 77.4521 61.2273 76.7134 61.2273ZM84.5277 65.0909C84.2436 65.0909 83.9903 65.0672 83.7678 65.0199C83.5452 64.9773 83.3913 64.9347 83.3061 64.892L83.7322 63.4148C84.1394 63.5189 84.4993 63.5568 84.8118 63.5284C85.1243 63.5 85.4013 63.3603 85.6428 63.1094C85.889 62.8632 86.1139 62.4631 86.3175 61.9091L86.63 61.0568L82.5959 50.0909H84.4141L87.4254 58.7841H87.5391L90.5504 50.0909H92.3686L87.7379 62.5909C87.5296 63.1544 87.2715 63.6207 86.9638 63.9901C86.656 64.3641 86.2985 64.6411 85.8913 64.821C85.4889 65.0009 85.0343 65.0909 84.5277 65.0909ZM98.7642 61.2273C97.7131 61.2273 96.8063 60.9953 96.044 60.5312C95.2865 60.0625 94.7017 59.4091 94.2898 58.571C93.8826 57.7282 93.679 56.7481 93.679 55.6307C93.679 54.5133 93.8826 53.5284 94.2898 52.6761C94.7017 51.8191 95.2746 51.1515 96.0085 50.6733C96.7472 50.1903 97.6089 49.9489 98.5938 49.9489C99.1619 49.9489 99.723 50.0436 100.277 50.233C100.831 50.4223 101.335 50.7301 101.79 51.1562C102.244 51.5777 102.607 52.1364 102.876 52.8324C103.146 53.5284 103.281 54.3854 103.281 55.4034V56.1136H94.8722V54.6648H101.577C101.577 54.0492 101.454 53.5 101.207 53.017C100.966 52.5341 100.62 52.1529 100.17 51.8736C99.7254 51.5942 99.1998 51.4545 98.5938 51.4545C97.9261 51.4545 97.3485 51.6203 96.8608 51.9517C96.3778 52.2784 96.0062 52.7045 95.7457 53.2301C95.4853 53.7557 95.3551 54.3191 95.3551 54.9205V55.8864C95.3551 56.7102 95.4972 57.4086 95.7812 57.9815C96.0701 58.5497 96.4702 58.983 96.9815 59.2812C97.4929 59.5748 98.0871 59.7216 98.7642 59.7216C99.2045 59.7216 99.6023 59.66 99.9574 59.5369C100.317 59.4091 100.627 59.2197 100.888 58.9688C101.148 58.7131 101.349 58.3958 101.491 58.017L103.111 58.4716C102.94 59.0208 102.654 59.5038 102.251 59.9205C101.849 60.3324 101.352 60.6544 100.76 60.8864C100.168 61.1136 99.5028 61.2273 98.7642 61.2273ZM113.558 52.5341L112.053 52.9602C111.958 52.7093 111.818 52.4654 111.634 52.2287C111.454 51.9872 111.207 51.7884 110.895 51.6321C110.582 51.4759 110.182 51.3977 109.695 51.3977C109.027 51.3977 108.471 51.5516 108.026 51.8594C107.585 52.1624 107.365 52.5483 107.365 53.017C107.365 53.4337 107.517 53.7628 107.82 54.0043C108.123 54.2457 108.596 54.447 109.24 54.608L110.859 55.0057C111.835 55.2424 112.562 55.6046 113.04 56.0923C113.518 56.5753 113.757 57.1979 113.757 57.9602C113.757 58.5852 113.577 59.1439 113.217 59.6364C112.862 60.1288 112.365 60.517 111.726 60.8011C111.087 61.0852 110.343 61.2273 109.496 61.2273C108.383 61.2273 107.462 60.9858 106.733 60.5028C106.004 60.0199 105.542 59.3144 105.348 58.3864L106.939 57.9886C107.09 58.5758 107.377 59.0161 107.798 59.3097C108.224 59.6032 108.781 59.75 109.467 59.75C110.249 59.75 110.869 59.5843 111.328 59.2528C111.792 58.9167 112.024 58.5142 112.024 58.0455C112.024 57.6667 111.892 57.3494 111.626 57.0938C111.361 56.8333 110.954 56.6392 110.405 56.5114L108.587 56.0852C107.588 55.8485 106.854 55.4815 106.385 54.9844C105.921 54.4825 105.689 53.8551 105.689 53.1023C105.689 52.4867 105.862 51.9422 106.207 51.4688C106.558 50.9953 107.034 50.6236 107.635 50.3537C108.241 50.0838 108.928 49.9489 109.695 49.9489C110.774 49.9489 111.622 50.1856 112.237 50.6591C112.857 51.1326 113.298 51.7576 113.558 52.5341ZM123.581 54.4375V61H121.905V46.4545H123.581V51.7955H123.723C123.979 51.232 124.363 50.7846 124.874 50.4531C125.39 50.117 126.077 49.9489 126.934 49.9489C127.677 49.9489 128.328 50.098 128.887 50.3963C129.445 50.6899 129.879 51.142 130.186 51.7528C130.499 52.3589 130.655 53.1307 130.655 54.0682V61H128.979V54.1818C128.979 53.3153 128.754 52.6454 128.304 52.1719C127.859 51.6937 127.241 51.4545 126.451 51.4545C125.901 51.4545 125.409 51.5705 124.973 51.8026C124.542 52.0346 124.202 52.3731 123.951 52.8182C123.704 53.2633 123.581 53.803 123.581 54.4375ZM136.932 61.2557C136.241 61.2557 135.613 61.1255 135.05 60.8651C134.486 60.5999 134.039 60.2188 133.707 59.7216C133.376 59.2197 133.21 58.6136 133.21 57.9034C133.21 57.2784 133.333 56.7718 133.58 56.3835C133.826 55.9905 134.155 55.6828 134.567 55.4602C134.979 55.2377 135.433 55.072 135.93 54.9631C136.432 54.8494 136.937 54.7595 137.443 54.6932C138.106 54.608 138.643 54.544 139.055 54.5014C139.472 54.4541 139.775 54.3759 139.964 54.267C140.159 54.1581 140.256 53.9687 140.256 53.6989V53.642C140.256 52.9413 140.064 52.3968 139.68 52.0085C139.302 51.6203 138.726 51.4261 137.955 51.4261C137.154 51.4261 136.527 51.6013 136.072 51.9517C135.618 52.3021 135.298 52.6761 135.114 53.0739L133.523 52.5057C133.807 51.8428 134.186 51.3267 134.659 50.9574C135.137 50.5833 135.658 50.3229 136.222 50.1761C136.79 50.0246 137.348 49.9489 137.898 49.9489C138.248 49.9489 138.651 49.9915 139.105 50.0767C139.564 50.1572 140.007 50.3253 140.433 50.581C140.864 50.8366 141.222 51.2225 141.506 51.7386C141.79 52.2547 141.932 52.946 141.932 53.8125V61H140.256V59.5227H140.17C140.057 59.7595 139.867 60.0128 139.602 60.2827C139.337 60.5526 138.984 60.7822 138.544 60.9716C138.104 61.161 137.566 61.2557 136.932 61.2557ZM137.188 59.75C137.85 59.75 138.409 59.6198 138.864 59.3594C139.323 59.099 139.669 58.7628 139.901 58.3509C140.137 57.9389 140.256 57.5057 140.256 57.0511V55.517C140.185 55.6023 140.028 55.6804 139.787 55.7514C139.55 55.8177 139.276 55.8769 138.963 55.929C138.655 55.9763 138.355 56.0189 138.061 56.0568C137.772 56.09 137.538 56.1184 137.358 56.142C136.922 56.1989 136.515 56.2912 136.136 56.419C135.762 56.5421 135.459 56.7292 135.227 56.9801C135 57.2263 134.886 57.5625 134.886 57.9886C134.886 58.571 135.102 59.0114 135.533 59.3097C135.968 59.6032 136.52 59.75 137.188 59.75ZM153.521 50.0909L149.487 61H147.782L143.748 50.0909H145.566L148.578 58.7841H148.691L151.703 50.0909H153.521ZM159.917 61.2273C158.865 61.2273 157.959 60.9953 157.196 60.5312C156.439 60.0625 155.854 59.4091 155.442 58.571C155.035 57.7282 154.831 56.7481 154.831 55.6307C154.831 54.5133 155.035 53.5284 155.442 52.6761C155.854 51.8191 156.427 51.1515 157.161 50.6733C157.9 50.1903 158.761 49.9489 159.746 49.9489C160.314 49.9489 160.875 50.0436 161.429 50.233C161.983 50.4223 162.488 50.7301 162.942 51.1562C163.397 51.5777 163.759 52.1364 164.029 52.8324C164.299 53.5284 164.434 54.3854 164.434 55.4034V56.1136H156.025V54.6648H162.729C162.729 54.0492 162.606 53.5 162.36 53.017C162.118 52.5341 161.773 52.1529 161.323 51.8736C160.878 51.5942 160.352 51.4545 159.746 51.4545C159.078 51.4545 158.501 51.6203 158.013 51.9517C157.53 52.2784 157.158 52.7045 156.898 53.2301C156.638 53.7557 156.507 54.3191 156.507 54.9205V55.8864C156.507 56.7102 156.65 57.4086 156.934 57.9815C157.222 58.5497 157.623 58.983 158.134 59.2812C158.645 59.5748 159.239 59.7216 159.917 59.7216C160.357 59.7216 160.755 59.66 161.11 59.5369C161.47 59.4091 161.78 59.2197 162.04 58.9688C162.301 58.7131 162.502 58.3958 162.644 58.017L164.263 58.4716C164.093 59.0208 163.806 59.5038 163.404 59.9205C163.001 60.3324 162.504 60.6544 161.912 60.8864C161.32 61.1136 160.655 61.2273 159.917 61.2273ZM176.728 61.2273C175.819 61.2273 175.016 60.9976 174.32 60.5384C173.624 60.0743 173.079 59.4209 172.686 58.5781C172.293 57.7306 172.097 56.7292 172.097 55.5739C172.097 54.428 172.293 53.4337 172.686 52.5909C173.079 51.7481 173.626 51.0971 174.327 50.6378C175.028 50.1785 175.837 49.9489 176.756 49.9489C177.466 49.9489 178.027 50.0672 178.439 50.304C178.856 50.536 179.173 50.8011 179.391 51.0994C179.614 51.393 179.786 51.6345 179.909 51.8239H180.051V46.4545H181.728V61H180.108V59.3239H179.909C179.786 59.5227 179.611 59.7737 179.384 60.0767C179.157 60.375 178.832 60.6425 178.411 60.8793C177.989 61.1113 177.428 61.2273 176.728 61.2273ZM176.955 59.7216C177.627 59.7216 178.195 59.5464 178.659 59.196C179.123 58.8409 179.476 58.3509 179.718 57.7259C179.959 57.0961 180.08 56.3693 180.08 55.5455C180.08 54.7311 179.962 54.0185 179.725 53.4077C179.488 52.7921 179.138 52.3139 178.674 51.973C178.21 51.6274 177.637 51.4545 176.955 51.4545C176.245 51.4545 175.653 51.6368 175.179 52.0014C174.711 52.3613 174.358 52.8513 174.121 53.4716C173.889 54.0871 173.773 54.7784 173.773 55.5455C173.773 56.322 173.891 57.0275 174.128 57.6619C174.37 58.2917 174.725 58.7936 175.194 59.1676C175.667 59.5369 176.254 59.7216 176.955 59.7216ZM185.03 61V50.0909H186.706V61H185.03ZM185.882 48.2727C185.556 48.2727 185.274 48.1615 185.037 47.9389C184.805 47.7164 184.689 47.4489 184.689 47.1364C184.689 46.8239 184.805 46.5563 185.037 46.3338C185.274 46.1113 185.556 46 185.882 46C186.209 46 186.489 46.1113 186.721 46.3338C186.957 46.5563 187.076 46.8239 187.076 47.1364C187.076 47.4489 186.957 47.7164 186.721 47.9389C186.489 48.1615 186.209 48.2727 185.882 48.2727ZM194.634 50.0909V51.5114H188.754V50.0909H194.634ZM190.515 61V48.5852C190.515 47.9602 190.662 47.4394 190.955 47.0227C191.249 46.6061 191.63 46.2936 192.099 46.0852C192.567 45.8769 193.062 45.7727 193.583 45.7727C193.995 45.7727 194.331 45.8059 194.592 45.8722C194.852 45.9384 195.046 46 195.174 46.0568L194.691 47.5057C194.606 47.4773 194.487 47.4418 194.336 47.3991C194.189 47.3565 193.995 47.3352 193.754 47.3352C193.2 47.3352 192.799 47.4749 192.553 47.7543C192.312 48.0336 192.191 48.4432 192.191 48.983V61H190.515ZM201.841 50.0909V51.5114H195.961V50.0909H201.841ZM197.722 61V48.5852C197.722 47.9602 197.869 47.4394 198.162 47.0227C198.456 46.6061 198.837 46.2936 199.306 46.0852C199.775 45.8769 200.269 45.7727 200.79 45.7727C201.202 45.7727 201.538 45.8059 201.799 45.8722C202.059 45.9384 202.253 46 202.381 46.0568L201.898 47.5057C201.813 47.4773 201.694 47.4418 201.543 47.3991C201.396 47.3565 201.202 47.3352 200.961 47.3352C200.407 47.3352 200.007 47.4749 199.76 47.7543C199.519 48.0336 199.398 48.4432 199.398 48.983V61H197.722ZM204.19 61V50.0909H205.866V61H204.19ZM205.043 48.2727C204.716 48.2727 204.434 48.1615 204.197 47.9389C203.965 47.7164 203.849 47.4489 203.849 47.1364C203.849 46.8239 203.965 46.5563 204.197 46.3338C204.434 46.1113 204.716 46 205.043 46C205.369 46 205.649 46.1113 205.881 46.3338C206.117 46.5563 206.236 46.8239 206.236 47.1364C206.236 47.4489 206.117 47.7164 205.881 47.9389C205.649 48.1615 205.369 48.2727 205.043 48.2727ZM213.368 61.2273C212.346 61.2273 211.465 60.9858 210.726 60.5028C209.988 60.0199 209.419 59.3546 209.022 58.5071C208.624 57.6596 208.425 56.6913 208.425 55.6023C208.425 54.4943 208.629 53.5166 209.036 52.669C209.448 51.8168 210.021 51.1515 210.755 50.6733C211.493 50.1903 212.355 49.9489 213.34 49.9489C214.107 49.9489 214.798 50.0909 215.414 50.375C216.029 50.6591 216.533 51.0568 216.926 51.5682C217.319 52.0795 217.563 52.6761 217.658 53.358H215.982C215.854 52.8608 215.57 52.4205 215.13 52.0369C214.694 51.6487 214.107 51.4545 213.368 51.4545C212.715 51.4545 212.142 51.625 211.65 51.9659C211.162 52.3021 210.781 52.7779 210.506 53.3935C210.236 54.0043 210.101 54.7216 210.101 55.5455C210.101 56.3883 210.234 57.1222 210.499 57.7472C210.769 58.3722 211.148 58.8575 211.635 59.2031C212.128 59.5488 212.705 59.7216 213.368 59.7216C213.804 59.7216 214.199 59.6458 214.554 59.4943C214.909 59.3428 215.21 59.125 215.456 58.8409C215.703 58.5568 215.878 58.2159 215.982 57.8182H217.658C217.563 58.4621 217.329 59.0421 216.955 59.5582C216.586 60.0696 216.096 60.4768 215.485 60.7798C214.879 61.0781 214.173 61.2273 213.368 61.2273ZM226.983 56.5398V50.0909H228.659V61H226.983V59.1534H226.87C226.614 59.7074 226.216 60.1785 225.676 60.5668C225.137 60.9503 224.455 61.142 223.631 61.142C222.949 61.142 222.343 60.9929 221.813 60.6946C221.283 60.3916 220.866 59.937 220.563 59.331C220.26 58.7202 220.108 57.9508 220.108 57.0227V50.0909H221.784V56.9091C221.784 57.7045 222.007 58.339 222.452 58.8125C222.902 59.286 223.475 59.5227 224.171 59.5227C224.587 59.5227 225.011 59.4162 225.442 59.2031C225.878 58.9901 226.242 58.6634 226.536 58.223C226.834 57.7827 226.983 57.2216 226.983 56.5398ZM233.406 46.4545V61H231.729V46.4545H233.406ZM241.22 50.0909V51.5114H235.566V50.0909H241.22ZM237.214 47.4773H238.89V57.875C238.89 58.3485 238.959 58.7036 239.096 58.9403C239.238 59.1723 239.418 59.3286 239.636 59.4091C239.859 59.4848 240.093 59.5227 240.339 59.5227C240.524 59.5227 240.675 59.5133 240.794 59.4943C240.912 59.4706 241.007 59.4517 241.078 59.4375L241.419 60.9432C241.305 60.9858 241.146 61.0284 240.943 61.071C240.739 61.1184 240.481 61.142 240.169 61.142C239.695 61.142 239.231 61.0402 238.777 60.8366C238.327 60.633 237.953 60.3229 237.654 59.9062C237.361 59.4896 237.214 58.964 237.214 58.3295V47.4773ZM244.821 65.0909C244.537 65.0909 244.283 65.0672 244.061 65.0199C243.838 64.9773 243.684 64.9347 243.599 64.892L244.025 63.4148C244.432 63.5189 244.792 63.5568 245.105 63.5284C245.417 63.5 245.694 63.3603 245.936 63.1094C246.182 62.8632 246.407 62.4631 246.61 61.9091L246.923 61.0568L242.889 50.0909H244.707L247.718 58.7841H247.832L250.843 50.0909H252.662L248.031 62.5909C247.823 63.1544 247.565 63.6207 247.257 63.9901C246.949 64.3641 246.592 64.6411 246.184 64.821C245.782 65.0009 245.327 65.0909 244.821 65.0909ZM264.931 61.2273C263.946 61.2273 263.082 60.9929 262.338 60.5241C261.6 60.0554 261.022 59.3996 260.605 58.5568C260.194 57.714 259.988 56.7292 259.988 55.6023C259.988 54.4659 260.194 53.474 260.605 52.6264C261.022 51.7789 261.6 51.1207 262.338 50.652C263.082 50.1832 263.946 49.9489 264.931 49.9489C265.916 49.9489 266.777 50.1832 267.516 50.652C268.259 51.1207 268.837 51.7789 269.249 52.6264C269.666 53.474 269.874 54.4659 269.874 55.6023C269.874 56.7292 269.666 57.714 269.249 58.5568C268.837 59.3996 268.259 60.0554 267.516 60.5241C266.777 60.9929 265.916 61.2273 264.931 61.2273ZM264.931 59.7216C265.679 59.7216 266.294 59.5298 266.777 59.1463C267.26 58.7628 267.618 58.2585 267.85 57.6335C268.082 57.0085 268.198 56.3314 268.198 55.6023C268.198 54.8731 268.082 54.1937 267.85 53.5639C267.618 52.9342 267.26 52.4252 266.777 52.0369C266.294 51.6487 265.679 51.4545 264.931 51.4545C264.183 51.4545 263.567 51.6487 263.084 52.0369C262.601 52.4252 262.244 52.9342 262.012 53.5639C261.78 54.1937 261.664 54.8731 261.664 55.6023C261.664 56.3314 261.78 57.0085 262.012 57.6335C262.244 58.2585 262.601 58.7628 263.084 59.1463C263.567 59.5298 264.183 59.7216 264.931 59.7216ZM274.109 54.4375V61H272.433V50.0909H274.052V51.7955H274.194C274.45 51.2415 274.838 50.7964 275.359 50.4602C275.879 50.1193 276.552 49.9489 277.376 49.9489C278.114 49.9489 278.761 50.1004 279.315 50.4034C279.869 50.7017 280.299 51.1562 280.607 51.767C280.915 52.3731 281.069 53.1402 281.069 54.0682V61H279.393V54.1818C279.393 53.3248 279.17 52.6572 278.725 52.179C278.28 51.696 277.669 51.4545 276.893 51.4545C276.358 51.4545 275.879 51.5705 275.458 51.8026C275.041 52.0346 274.712 52.3731 274.471 52.8182C274.229 53.2633 274.109 53.803 274.109 54.4375ZM289.757 65.0909V50.0909H291.376V51.8239H291.575C291.698 51.6345 291.868 51.393 292.086 51.0994C292.309 50.8011 292.626 50.536 293.038 50.304C293.455 50.0672 294.018 49.9489 294.728 49.9489C295.647 49.9489 296.457 50.1785 297.157 50.6378C297.858 51.0971 298.405 51.7481 298.798 52.5909C299.191 53.4337 299.387 54.428 299.387 55.5739C299.387 56.7292 299.191 57.7306 298.798 58.5781C298.405 59.4209 297.86 60.0743 297.164 60.5384C296.468 60.9976 295.666 61.2273 294.757 61.2273C294.056 61.2273 293.495 61.1113 293.074 60.8793C292.652 60.6425 292.328 60.375 292.1 60.0767C291.873 59.7737 291.698 59.5227 291.575 59.3239H291.433V65.0909H289.757ZM291.404 55.5455C291.404 56.3693 291.525 57.0961 291.767 57.7259C292.008 58.3509 292.361 58.8409 292.825 59.196C293.289 59.5464 293.857 59.7216 294.529 59.7216C295.23 59.7216 295.815 59.5369 296.284 59.1676C296.757 58.7936 297.112 58.2917 297.349 57.6619C297.591 57.0275 297.711 56.322 297.711 55.5455C297.711 54.7784 297.593 54.0871 297.356 53.4716C297.124 52.8513 296.771 52.3613 296.298 52.0014C295.829 51.6368 295.24 51.4545 294.529 51.4545C293.848 51.4545 293.275 51.6274 292.811 51.973C292.347 52.3139 291.996 52.7921 291.76 53.4077C291.523 54.0185 291.404 54.7311 291.404 55.5455ZM301.944 61V50.0909H303.62V61H301.944ZM302.797 48.2727C302.47 48.2727 302.188 48.1615 301.951 47.9389C301.719 47.7164 301.603 47.4489 301.603 47.1364C301.603 46.8239 301.719 46.5563 301.951 46.3338C302.188 46.1113 302.47 46 302.797 46C303.123 46 303.403 46.1113 303.635 46.3338C303.871 46.5563 303.99 46.8239 303.99 47.1364C303.99 47.4489 303.871 47.7164 303.635 47.9389C303.403 48.1615 303.123 48.2727 302.797 48.2727ZM311.122 61.2273C310.099 61.2273 309.219 60.9858 308.48 60.5028C307.741 60.0199 307.173 59.3546 306.776 58.5071C306.378 57.6596 306.179 56.6913 306.179 55.6023C306.179 54.4943 306.383 53.5166 306.79 52.669C307.202 51.8168 307.775 51.1515 308.509 50.6733C309.247 50.1903 310.109 49.9489 311.094 49.9489C311.861 49.9489 312.552 50.0909 313.168 50.375C313.783 50.6591 314.287 51.0568 314.68 51.5682C315.073 52.0795 315.317 52.6761 315.412 53.358H313.736C313.608 52.8608 313.324 52.4205 312.884 52.0369C312.448 51.6487 311.861 51.4545 311.122 51.4545C310.469 51.4545 309.896 51.625 309.403 51.9659C308.916 52.3021 308.535 52.7779 308.26 53.3935C307.99 54.0043 307.855 54.7216 307.855 55.5455C307.855 56.3883 307.988 57.1222 308.253 57.7472C308.523 58.3722 308.902 58.8575 309.389 59.2031C309.882 59.5488 310.459 59.7216 311.122 59.7216C311.558 59.7216 311.953 59.6458 312.308 59.4943C312.663 59.3428 312.964 59.125 313.21 58.8409C313.456 58.5568 313.632 58.2159 313.736 57.8182H315.412C315.317 58.4621 315.083 59.0421 314.709 59.5582C314.339 60.0696 313.849 60.4768 313.239 60.7798C312.633 61.0781 311.927 61.2273 311.122 61.2273ZM319.425 57.0227L319.396 54.9489H319.737L324.51 50.0909H326.584L321.499 55.233H321.357L319.425 57.0227ZM317.862 61V46.4545H319.538V61H317.862ZM324.794 61L320.533 55.6023L321.726 54.4375L326.925 61H324.794ZM328.741 61V50.0909H330.417V61H328.741ZM329.593 48.2727C329.267 48.2727 328.985 48.1615 328.748 47.9389C328.516 47.7164 328.4 47.4489 328.4 47.1364C328.4 46.8239 328.516 46.5563 328.748 46.3338C328.985 46.1113 329.267 46 329.593 46C329.92 46 330.199 46.1113 330.431 46.3338C330.668 46.5563 330.787 46.8239 330.787 47.1364C330.787 47.4489 330.668 47.7164 330.431 47.9389C330.199 48.1615 329.92 48.2727 329.593 48.2727ZM335.163 54.4375V61H333.487V50.0909H335.107V51.7955H335.249C335.504 51.2415 335.893 50.7964 336.413 50.4602C336.934 50.1193 337.607 49.9489 338.43 49.9489C339.169 49.9489 339.815 50.1004 340.369 50.4034C340.923 50.7017 341.354 51.1562 341.662 51.767C341.97 52.3731 342.124 53.1402 342.124 54.0682V61H340.447V54.1818C340.447 53.3248 340.225 52.6572 339.78 52.179C339.335 51.696 338.724 51.4545 337.947 51.4545C337.412 51.4545 336.934 51.5705 336.513 51.8026C336.096 52.0346 335.767 52.3731 335.526 52.8182C335.284 53.2633 335.163 53.803 335.163 54.4375ZM349.59 65.3182C348.78 65.3182 348.084 65.214 347.502 65.0057C346.919 64.8021 346.434 64.5322 346.046 64.196C345.662 63.8646 345.357 63.5095 345.13 63.1307L346.465 62.1932C346.616 62.392 346.808 62.6193 347.04 62.875C347.272 63.1354 347.589 63.3603 347.992 63.5497C348.399 63.7438 348.932 63.8409 349.59 63.8409C350.471 63.8409 351.197 63.6278 351.77 63.2017C352.343 62.7756 352.63 62.108 352.63 61.1989V58.983H352.488C352.364 59.1818 352.189 59.428 351.962 59.7216C351.739 60.0104 351.417 60.2685 350.996 60.4957C350.579 60.7183 350.016 60.8295 349.306 60.8295C348.425 60.8295 347.634 60.6212 346.934 60.2045C346.238 59.7879 345.686 59.1818 345.279 58.3864C344.876 57.5909 344.675 56.625 344.675 55.4886C344.675 54.3712 344.872 53.3982 345.265 52.5696C345.658 51.7363 346.204 51.0923 346.905 50.6378C347.606 50.1785 348.416 49.9489 349.334 49.9489C350.044 49.9489 350.608 50.0672 351.025 50.304C351.446 50.536 351.768 50.8011 351.99 51.0994C352.218 51.393 352.393 51.6345 352.516 51.8239H352.686V50.0909H354.306V61.3125C354.306 62.25 354.093 63.0123 353.667 63.5994C353.245 64.1913 352.677 64.6245 351.962 64.8991C351.252 65.1785 350.461 65.3182 349.59 65.3182ZM349.533 59.3239C350.205 59.3239 350.774 59.17 351.238 58.8622C351.702 58.5545 352.054 58.1117 352.296 57.5341C352.537 56.9564 352.658 56.2652 352.658 55.4602C352.658 54.6742 352.54 53.9806 352.303 53.3793C352.066 52.7779 351.716 52.3068 351.252 51.9659C350.788 51.625 350.215 51.4545 349.533 51.4545C348.823 51.4545 348.231 51.6345 347.757 51.9943C347.289 52.3542 346.936 52.8371 346.699 53.4432C346.467 54.0492 346.351 54.7216 346.351 55.4602C346.351 56.2178 346.47 56.8878 346.706 57.4702C346.948 58.0478 347.303 58.5024 347.772 58.8338C348.245 59.1605 348.832 59.3239 349.533 59.3239ZM65.6942 88.5398V82.0909H67.3704V93H65.6942V91.1534H65.5806C65.3249 91.7074 64.9272 92.1785 64.3874 92.5668C63.8477 92.9503 63.1658 93.142 62.342 93.142C61.6602 93.142 61.0541 92.9929 60.5238 92.6946C59.9935 92.3916 59.5768 91.937 59.2738 91.331C58.9708 90.7202 58.8192 89.9508 58.8192 89.0227V82.0909H60.4954V88.9091C60.4954 89.7045 60.7179 90.339 61.163 90.8125C61.6128 91.286 62.1857 91.5227 62.8817 91.5227C63.2984 91.5227 63.7222 91.4162 64.1531 91.2031C64.5887 90.9901 64.9532 90.6634 65.2468 90.223C65.5451 89.7827 65.6942 89.2216 65.6942 88.5398ZM70.4403 97.0909V82.0909H72.0597V83.8239H72.2585C72.3816 83.6345 72.5521 83.393 72.7699 83.0994C72.9924 82.8011 73.3097 82.536 73.7216 82.304C74.1383 82.0672 74.7017 81.9489 75.4119 81.9489C76.3305 81.9489 77.1402 82.1785 77.8409 82.6378C78.5417 83.0971 79.0885 83.7481 79.4815 84.5909C79.8745 85.4337 80.071 86.428 80.071 87.5739C80.071 88.7292 79.8745 89.7306 79.4815 90.5781C79.0885 91.4209 78.544 92.0743 77.848 92.5384C77.152 92.9976 76.3494 93.2273 75.4403 93.2273C74.7396 93.2273 74.1785 93.1113 73.7571 92.8793C73.3357 92.6425 73.0114 92.375 72.7841 92.0767C72.5568 91.7737 72.3816 91.5227 72.2585 91.3239H72.1165V97.0909H70.4403ZM72.0881 87.5455C72.0881 88.3693 72.2088 89.0961 72.4503 89.7259C72.6918 90.3509 73.0445 90.8409 73.5085 91.196C73.9725 91.5464 74.5407 91.7216 75.2131 91.7216C75.9138 91.7216 76.4986 91.5369 76.9673 91.1676C77.4408 90.7936 77.7959 90.2917 78.0327 89.6619C78.2741 89.0275 78.3949 88.322 78.3949 87.5455C78.3949 86.7784 78.2765 86.0871 78.0398 85.4716C77.8078 84.8513 77.455 84.3613 76.9815 84.0014C76.5128 83.6368 75.9233 83.4545 75.2131 83.4545C74.5313 83.4545 73.9583 83.6274 73.4943 83.973C73.0303 84.3139 72.6799 84.7921 72.4432 85.4077C72.2064 86.0185 72.0881 86.7311 72.0881 87.5455ZM90.7244 93L87.4006 82.0909H89.1619L91.5199 90.4432H91.6335L93.9631 82.0909H95.7528L98.054 90.4148H98.1676L100.526 82.0909H102.287L98.9631 93H97.3153L94.929 84.6193H94.7585L92.3722 93H90.7244ZM106.179 86.4375V93H104.503V78.4545H106.179V83.7955H106.321C106.577 83.232 106.96 82.7846 107.472 82.4531C107.988 82.117 108.674 81.9489 109.531 81.9489C110.275 81.9489 110.926 82.098 111.484 82.3963C112.043 82.6899 112.476 83.142 112.784 83.7528C113.097 84.3589 113.253 85.1307 113.253 86.0682V93H111.577V86.1818C111.577 85.3153 111.352 84.6454 110.902 84.1719C110.457 83.6937 109.839 83.4545 109.048 83.4545C108.499 83.4545 108.007 83.5705 107.571 83.8026C107.14 84.0346 106.799 84.3731 106.548 84.8182C106.302 85.2633 106.179 85.803 106.179 86.4375ZM120.893 93.2273C119.842 93.2273 118.935 92.9953 118.173 92.5312C117.415 92.0625 116.831 91.4091 116.419 90.571C116.011 89.7282 115.808 88.7481 115.808 87.6307C115.808 86.5133 116.011 85.5284 116.419 84.6761C116.831 83.8191 117.404 83.1515 118.137 82.6733C118.876 82.1903 119.738 81.9489 120.723 81.9489C121.291 81.9489 121.852 82.0436 122.406 82.233C122.96 82.4223 123.464 82.7301 123.919 83.1562C124.373 83.5777 124.735 84.1364 125.005 84.8324C125.275 85.5284 125.41 86.3854 125.41 87.4034V88.1136H117.001V86.6648H123.706C123.706 86.0492 123.583 85.5 123.336 85.017C123.095 84.5341 122.749 84.1529 122.299 83.8736C121.854 83.5942 121.329 83.4545 120.723 83.4545C120.055 83.4545 119.477 83.6203 118.99 83.9517C118.507 84.2784 118.135 84.7045 117.875 85.2301C117.614 85.7557 117.484 86.3191 117.484 86.9205V87.8864C117.484 88.7102 117.626 89.4086 117.91 89.9815C118.199 90.5497 118.599 90.983 119.11 91.2812C119.622 91.5748 120.216 91.7216 120.893 91.7216C121.333 91.7216 121.731 91.66 122.086 91.5369C122.446 91.4091 122.756 91.2197 123.017 90.9688C123.277 90.7131 123.478 90.3958 123.62 90.017L125.24 90.4716C125.069 91.0208 124.783 91.5038 124.38 91.9205C123.978 92.3324 123.481 92.6544 122.889 92.8864C122.297 93.1136 121.632 93.2273 120.893 93.2273ZM127.96 93V82.0909H129.579V83.7386H129.693C129.892 83.1989 130.252 82.7609 130.772 82.4247C131.293 82.0885 131.88 81.9205 132.534 81.9205C132.657 81.9205 132.811 81.9228 132.995 81.9276C133.18 81.9323 133.32 81.9394 133.414 81.9489V83.6534C133.358 83.6392 133.227 83.6179 133.024 83.5895C132.825 83.5563 132.614 83.5398 132.392 83.5398C131.861 83.5398 131.388 83.651 130.971 83.8736C130.559 84.0914 130.233 84.3944 129.991 84.7827C129.754 85.1662 129.636 85.6042 129.636 86.0966V93H127.96ZM139.643 93.2273C138.592 93.2273 137.685 92.9953 136.923 92.5312C136.165 92.0625 135.581 91.4091 135.169 90.571C134.761 89.7282 134.558 88.7481 134.558 87.6307C134.558 86.5133 134.761 85.5284 135.169 84.6761C135.581 83.8191 136.154 83.1515 136.887 82.6733C137.626 82.1903 138.488 81.9489 139.473 81.9489C140.041 81.9489 140.602 82.0436 141.156 82.233C141.71 82.4223 142.214 82.7301 142.669 83.1562C143.123 83.5777 143.485 84.1364 143.755 84.8324C144.025 85.5284 144.16 86.3854 144.16 87.4034V88.1136H135.751V86.6648H142.456C142.456 86.0492 142.333 85.5 142.086 85.017C141.845 84.5341 141.499 84.1529 141.049 83.8736C140.604 83.5942 140.079 83.4545 139.473 83.4545C138.805 83.4545 138.227 83.6203 137.74 83.9517C137.257 84.2784 136.885 84.7045 136.625 85.2301C136.364 85.7557 136.234 86.3191 136.234 86.9205V87.8864C136.234 88.7102 136.376 89.4086 136.66 89.9815C136.949 90.5497 137.349 90.983 137.86 91.2812C138.372 91.5748 138.966 91.7216 139.643 91.7216C140.083 91.7216 140.481 91.66 140.836 91.5369C141.196 91.4091 141.506 91.2197 141.767 90.9688C142.027 90.7131 142.228 90.3958 142.37 90.017L143.99 90.4716C143.819 91.0208 143.533 91.5038 143.13 91.9205C142.728 92.3324 142.231 92.6544 141.639 92.8864C141.047 93.1136 140.382 93.2273 139.643 93.2273ZM157.079 82.0909V83.5114H151.426V82.0909H157.079ZM153.074 79.4773H154.75V89.875C154.75 90.3485 154.818 90.7036 154.956 90.9403C155.098 91.1723 155.278 91.3286 155.495 91.4091C155.718 91.4848 155.952 91.5227 156.199 91.5227C156.383 91.5227 156.535 91.5133 156.653 91.4943C156.771 91.4706 156.866 91.4517 156.937 91.4375L157.278 92.9432C157.164 92.9858 157.006 93.0284 156.802 93.071C156.599 93.1184 156.341 93.142 156.028 93.142C155.555 93.142 155.091 93.0402 154.636 92.8366C154.186 92.633 153.812 92.3229 153.514 91.9062C153.22 91.4896 153.074 90.964 153.074 90.3295V79.4773ZM161.511 86.4375V93H159.835V78.4545H161.511V83.7955H161.653C161.909 83.232 162.292 82.7846 162.804 82.4531C163.32 82.117 164.006 81.9489 164.863 81.9489C165.607 81.9489 166.258 82.098 166.816 82.3963C167.375 82.6899 167.808 83.142 168.116 83.7528C168.429 84.3589 168.585 85.1307 168.585 86.0682V93H166.909V86.1818C166.909 85.3153 166.684 84.6454 166.234 84.1719C165.789 83.6937 165.171 83.4545 164.38 83.4545C163.831 83.4545 163.339 83.5705 162.903 83.8026C162.472 84.0346 162.131 84.3731 161.88 84.8182C161.634 85.2633 161.511 85.803 161.511 86.4375ZM176.225 93.2273C175.174 93.2273 174.267 92.9953 173.505 92.5312C172.747 92.0625 172.163 91.4091 171.751 90.571C171.344 89.7282 171.14 88.7481 171.14 87.6307C171.14 86.5133 171.344 85.5284 171.751 84.6761C172.163 83.8191 172.736 83.1515 173.469 82.6733C174.208 82.1903 175.07 81.9489 176.055 81.9489C176.623 81.9489 177.184 82.0436 177.738 82.233C178.292 82.4223 178.796 82.7301 179.251 83.1562C179.705 83.5777 180.067 84.1364 180.337 84.8324C180.607 85.5284 180.742 86.3854 180.742 87.4034V88.1136H172.333V86.6648H179.038C179.038 86.0492 178.915 85.5 178.668 85.017C178.427 84.5341 178.081 84.1529 177.631 83.8736C177.186 83.5942 176.661 83.4545 176.055 83.4545C175.387 83.4545 174.809 83.6203 174.322 83.9517C173.839 84.2784 173.467 84.7045 173.207 85.2301C172.946 85.7557 172.816 86.3191 172.816 86.9205V87.8864C172.816 88.7102 172.958 89.4086 173.242 89.9815C173.531 90.5497 173.931 90.983 174.442 91.2812C174.954 91.5748 175.548 91.7216 176.225 91.7216C176.665 91.7216 177.063 91.66 177.418 91.5369C177.778 91.4091 178.088 91.2197 178.349 90.9688C178.609 90.7131 178.81 90.3958 178.952 90.017L180.572 90.4716C180.401 91.0208 180.115 91.5038 179.712 91.9205C179.31 92.3324 178.813 92.6544 178.221 92.8864C177.629 93.1136 176.964 93.2273 176.225 93.2273ZM190.593 86.4375V93H188.917V82.0909H190.536V83.7955H190.678C190.934 83.2415 191.322 82.7964 191.843 82.4602C192.364 82.1193 193.036 81.9489 193.86 81.9489C194.599 81.9489 195.245 82.1004 195.799 82.4034C196.353 82.7017 196.784 83.1562 197.092 83.767C197.399 84.3731 197.553 85.1402 197.553 86.0682V93H195.877V86.1818C195.877 85.3248 195.655 84.6572 195.21 84.179C194.764 83.696 194.154 83.4545 193.377 83.4545C192.842 83.4545 192.364 83.5705 191.942 83.8026C191.526 84.0346 191.197 84.3731 190.955 84.8182C190.714 85.2633 190.593 85.803 190.593 86.4375ZM205.19 93.2273C204.139 93.2273 203.232 92.9953 202.47 92.5312C201.712 92.0625 201.127 91.4091 200.716 90.571C200.308 89.7282 200.105 88.7481 200.105 87.6307C200.105 86.5133 200.308 85.5284 200.716 84.6761C201.127 83.8191 201.7 83.1515 202.434 82.6733C203.173 82.1903 204.035 81.9489 205.02 81.9489C205.588 81.9489 206.149 82.0436 206.703 82.233C207.257 82.4223 207.761 82.7301 208.216 83.1562C208.67 83.5777 209.032 84.1364 209.302 84.8324C209.572 85.5284 209.707 86.3854 209.707 87.4034V88.1136H201.298V86.6648H208.002C208.002 86.0492 207.879 85.5 207.633 85.017C207.392 84.5341 207.046 84.1529 206.596 83.8736C206.151 83.5942 205.626 83.4545 205.02 83.4545C204.352 83.4545 203.774 83.6203 203.287 83.9517C202.804 84.2784 202.432 84.7045 202.172 85.2301C201.911 85.7557 201.781 86.3191 201.781 86.9205V87.8864C201.781 88.7102 201.923 89.4086 202.207 89.9815C202.496 90.5497 202.896 90.983 203.407 91.2812C203.919 91.5748 204.513 91.7216 205.19 91.7216C205.63 91.7216 206.028 91.66 206.383 91.5369C206.743 91.4091 207.053 91.2197 207.314 90.9688C207.574 90.7131 207.775 90.3958 207.917 90.017L209.537 90.4716C209.366 91.0208 209.08 91.5038 208.677 91.9205C208.275 92.3324 207.778 92.6544 207.186 92.8864C206.594 93.1136 205.929 93.2273 205.19 93.2273ZM213.214 82.0909L215.827 86.5511L218.441 82.0909H220.373L216.85 87.5455L220.373 93H218.441L215.827 88.767L213.214 93H211.282L214.748 87.5455L211.282 82.0909H213.214ZM227.509 82.0909V83.5114H221.855V82.0909H227.509ZM223.503 79.4773H225.179V89.875C225.179 90.3485 225.248 90.7036 225.385 90.9403C225.527 91.1723 225.707 91.3286 225.925 91.4091C226.148 91.4848 226.382 91.5227 226.628 91.5227C226.813 91.5227 226.964 91.5133 227.083 91.4943C227.201 91.4706 227.296 91.4517 227.367 91.4375L227.708 92.9432C227.594 92.9858 227.435 93.0284 227.232 93.071C227.028 93.1184 226.77 93.142 226.458 93.142C225.984 93.142 225.52 93.0402 225.066 92.8366C224.616 92.633 224.242 92.3229 223.944 91.9062C223.65 91.4896 223.503 90.964 223.503 90.3295V79.4773ZM237.331 78.4545V93H235.655V78.4545H237.331ZM240.401 93V82.0909H242.077V93H240.401ZM241.254 80.2727C240.927 80.2727 240.645 80.1615 240.408 79.9389C240.176 79.7164 240.06 79.4489 240.06 79.1364C240.06 78.8239 240.176 78.5563 240.408 78.3338C240.645 78.1113 240.927 78 241.254 78C241.58 78 241.86 78.1113 242.092 78.3338C242.328 78.5563 242.447 78.8239 242.447 79.1364C242.447 79.4489 242.328 79.7164 242.092 79.9389C241.86 80.1615 241.58 80.2727 241.254 80.2727ZM246.824 86.4375V93H245.147V82.0909H246.767V83.7955H246.909C247.164 83.2415 247.553 82.7964 248.074 82.4602C248.594 82.1193 249.267 81.9489 250.091 81.9489C250.829 81.9489 251.475 82.1004 252.029 82.4034C252.583 82.7017 253.014 83.1562 253.322 83.767C253.63 84.3731 253.784 85.1402 253.784 86.0682V93H252.108V86.1818C252.108 85.3248 251.885 84.6572 251.44 84.179C250.995 83.696 250.384 83.4545 249.608 83.4545C249.073 83.4545 248.594 83.5705 248.173 83.8026C247.756 84.0346 247.427 84.3731 247.186 84.8182C246.944 85.2633 246.824 85.803 246.824 86.4375ZM261.42 93.2273C260.369 93.2273 259.463 92.9953 258.7 92.5312C257.943 92.0625 257.358 91.4091 256.946 90.571C256.539 89.7282 256.335 88.7481 256.335 87.6307C256.335 86.5133 256.539 85.5284 256.946 84.6761C257.358 83.8191 257.931 83.1515 258.665 82.6733C259.403 82.1903 260.265 81.9489 261.25 81.9489C261.818 81.9489 262.379 82.0436 262.933 82.233C263.487 82.4223 263.991 82.7301 264.446 83.1562C264.901 83.5777 265.263 84.1364 265.533 84.8324C265.803 85.5284 265.938 86.3854 265.938 87.4034V88.1136H257.528V86.6648H264.233C264.233 86.0492 264.11 85.5 263.864 85.017C263.622 84.5341 263.277 84.1529 262.827 83.8736C262.382 83.5942 261.856 83.4545 261.25 83.4545C260.582 83.4545 260.005 83.6203 259.517 83.9517C259.034 84.2784 258.662 84.7045 258.402 85.2301C258.142 85.7557 258.011 86.3191 258.011 86.9205V87.8864C258.011 88.7102 258.153 89.4086 258.438 89.9815C258.726 90.5497 259.126 90.983 259.638 91.2812C260.149 91.5748 260.743 91.7216 261.42 91.7216C261.861 91.7216 262.259 91.66 262.614 91.5369C262.973 91.4091 263.284 91.2197 263.544 90.9688C263.804 90.7131 264.006 90.3958 264.148 90.017L265.767 90.4716C265.597 91.0208 265.31 91.5038 264.908 91.9205C264.505 92.3324 264.008 92.6544 263.416 92.8864C262.824 93.1136 262.159 93.2273 261.42 93.2273ZM281.839 84.5341L280.334 84.9602C280.239 84.7093 280.099 84.4654 279.915 84.2287C279.735 83.9872 279.489 83.7884 279.176 83.6321C278.864 83.4759 278.464 83.3977 277.976 83.3977C277.308 83.3977 276.752 83.5516 276.307 83.8594C275.866 84.1624 275.646 84.5483 275.646 85.017C275.646 85.4337 275.798 85.7628 276.101 86.0043C276.404 86.2457 276.877 86.447 277.521 86.608L279.141 87.0057C280.116 87.2424 280.843 87.6046 281.321 88.0923C281.799 88.5753 282.038 89.1979 282.038 89.9602C282.038 90.5852 281.858 91.1439 281.499 91.6364C281.143 92.1288 280.646 92.517 280.007 92.8011C279.368 93.0852 278.625 93.2273 277.777 93.2273C276.664 93.2273 275.743 92.9858 275.014 92.5028C274.285 92.0199 273.823 91.3144 273.629 90.3864L275.22 89.9886C275.372 90.5758 275.658 91.0161 276.08 91.3097C276.506 91.6032 277.062 91.75 277.749 91.75C278.53 91.75 279.15 91.5843 279.609 91.2528C280.073 90.9167 280.305 90.5142 280.305 90.0455C280.305 89.6667 280.173 89.3494 279.908 89.0938C279.643 88.8333 279.235 88.6392 278.686 88.5114L276.868 88.0852C275.869 87.8485 275.135 87.4815 274.666 86.9844C274.202 86.4825 273.97 85.8551 273.97 85.1023C273.97 84.4867 274.143 83.9422 274.489 83.4688C274.839 82.9953 275.315 82.6236 275.916 82.3537C276.522 82.0838 277.209 81.9489 277.976 81.9489C279.055 81.9489 279.903 82.1856 280.518 82.6591C281.139 83.1326 281.579 83.7576 281.839 84.5341ZM289.306 82.0909V83.5114H283.652V82.0909H289.306ZM285.3 79.4773H286.976V89.875C286.976 90.3485 287.045 90.7036 287.182 90.9403C287.324 91.1723 287.504 91.3286 287.722 91.4091C287.944 91.4848 288.179 91.5227 288.425 91.5227C288.61 91.5227 288.761 91.5133 288.88 91.4943C288.998 91.4706 289.093 91.4517 289.164 91.4375L289.505 92.9432C289.391 92.9858 289.232 93.0284 289.029 93.071C288.825 93.1184 288.567 93.142 288.255 93.142C287.781 93.142 287.317 93.0402 286.863 92.8366C286.413 92.633 286.039 92.3229 285.74 91.9062C285.447 91.4896 285.3 90.964 285.3 90.3295V79.4773ZM295.037 93.2557C294.346 93.2557 293.719 93.1255 293.155 92.8651C292.592 92.5999 292.144 92.2188 291.813 91.7216C291.481 91.2197 291.316 90.6136 291.316 89.9034C291.316 89.2784 291.439 88.7718 291.685 88.3835C291.931 87.9905 292.26 87.6828 292.672 87.4602C293.084 87.2377 293.539 87.072 294.036 86.9631C294.538 86.8494 295.042 86.7595 295.549 86.6932C296.212 86.608 296.749 86.544 297.161 86.5014C297.578 86.4541 297.881 86.3759 298.07 86.267C298.264 86.1581 298.361 85.9687 298.361 85.6989V85.642C298.361 84.9413 298.169 84.3968 297.786 84.0085C297.407 83.6203 296.832 83.4261 296.06 83.4261C295.26 83.4261 294.632 83.6013 294.178 83.9517C293.723 84.3021 293.404 84.6761 293.219 85.0739L291.628 84.5057C291.912 83.8428 292.291 83.3267 292.765 82.9574C293.243 82.5833 293.764 82.3229 294.327 82.1761C294.895 82.0246 295.454 81.9489 296.003 81.9489C296.354 81.9489 296.756 81.9915 297.211 82.0767C297.67 82.1572 298.113 82.3253 298.539 82.581C298.97 82.8366 299.327 83.2225 299.611 83.7386C299.895 84.2547 300.037 84.946 300.037 85.8125V93H298.361V91.5227H298.276C298.162 91.7595 297.973 92.0128 297.708 92.2827C297.443 92.5526 297.09 92.7822 296.65 92.9716C296.209 93.161 295.672 93.2557 295.037 93.2557ZM295.293 91.75C295.956 91.75 296.515 91.6198 296.969 91.3594C297.428 91.099 297.774 90.7628 298.006 90.3509C298.243 89.9389 298.361 89.5057 298.361 89.0511V87.517C298.29 87.6023 298.134 87.6804 297.892 87.7514C297.656 87.8177 297.381 87.8769 297.069 87.929C296.761 87.9763 296.46 88.0189 296.167 88.0568C295.878 88.09 295.643 88.1184 295.463 88.142C295.028 88.1989 294.621 88.2912 294.242 88.419C293.868 88.5421 293.565 88.7292 293.333 88.9801C293.105 89.2263 292.992 89.5625 292.992 89.9886C292.992 90.571 293.207 91.0114 293.638 91.3097C294.074 91.6032 294.625 91.75 295.293 91.75ZM303.097 93V82.0909H304.716V83.7386H304.83C305.028 83.1989 305.388 82.7609 305.909 82.4247C306.43 82.0885 307.017 81.9205 307.67 81.9205C307.794 81.9205 307.947 81.9228 308.132 81.9276C308.317 81.9323 308.456 81.9394 308.551 81.9489V83.6534C308.494 83.6392 308.364 83.6179 308.161 83.5895C307.962 83.5563 307.751 83.5398 307.528 83.5398C306.998 83.5398 306.525 83.651 306.108 83.8736C305.696 84.0914 305.369 84.3944 305.128 84.7827C304.891 85.1662 304.773 85.6042 304.773 86.0966V93H303.097ZM315.966 82.0909V83.5114H310.312V82.0909H315.966ZM311.96 79.4773H313.636V89.875C313.636 90.3485 313.705 90.7036 313.842 90.9403C313.984 91.1723 314.164 91.3286 314.382 91.4091C314.605 91.4848 314.839 91.5227 315.085 91.5227C315.27 91.5227 315.421 91.5133 315.54 91.4943C315.658 91.4706 315.753 91.4517 315.824 91.4375L316.165 92.9432C316.051 92.9858 315.893 93.0284 315.689 93.071C315.485 93.1184 315.227 93.142 314.915 93.142C314.441 93.142 313.977 93.0402 313.523 92.8366C313.073 92.633 312.699 92.3229 312.401 91.9062C312.107 91.4896 311.96 90.964 311.96 90.3295V79.4773ZM326.019 84.5341L324.513 84.9602C324.419 84.7093 324.279 84.4654 324.094 84.2287C323.915 83.9872 323.668 83.7884 323.356 83.6321C323.043 83.4759 322.643 83.3977 322.156 83.3977C321.488 83.3977 320.932 83.5516 320.487 83.8594C320.046 84.1624 319.826 84.5483 319.826 85.017C319.826 85.4337 319.978 85.7628 320.281 86.0043C320.584 86.2457 321.057 86.447 321.701 86.608L323.32 87.0057C324.296 87.2424 325.022 87.6046 325.501 88.0923C325.979 88.5753 326.218 89.1979 326.218 89.9602C326.218 90.5852 326.038 91.1439 325.678 91.6364C325.323 92.1288 324.826 92.517 324.187 92.8011C323.548 93.0852 322.804 93.2273 321.957 93.2273C320.844 93.2273 319.923 92.9858 319.194 92.5028C318.465 92.0199 318.003 91.3144 317.809 90.3864L319.4 89.9886C319.551 90.5758 319.838 91.0161 320.259 91.3097C320.685 91.6032 321.242 91.75 321.928 91.75C322.71 91.75 323.33 91.5843 323.789 91.2528C324.253 90.9167 324.485 90.5142 324.485 90.0455C324.485 89.6667 324.353 89.3494 324.087 89.0938C323.822 88.8333 323.415 88.6392 322.866 88.5114L321.048 88.0852C320.049 87.8485 319.315 87.4815 318.846 86.9844C318.382 86.4825 318.15 85.8551 318.15 85.1023C318.15 84.4867 318.323 83.9422 318.668 83.4688C319.019 82.9953 319.495 82.6236 320.096 82.3537C320.702 82.0838 321.388 81.9489 322.156 81.9489C323.235 81.9489 324.083 82.1856 324.698 82.6591C325.318 83.1326 325.759 83.7576 326.019 84.5341ZM329.963 93.1136C329.612 93.1136 329.312 92.9882 329.061 92.7372C328.81 92.4863 328.684 92.1856 328.684 91.8352C328.684 91.4848 328.81 91.1842 329.061 90.9332C329.312 90.6823 329.612 90.5568 329.963 90.5568C330.313 90.5568 330.614 90.6823 330.865 90.9332C331.116 91.1842 331.241 91.4848 331.241 91.8352C331.241 92.0672 331.182 92.2803 331.064 92.4744C330.95 92.6686 330.796 92.8248 330.602 92.9432C330.413 93.0568 330.199 93.1136 329.963 93.1136Z" fill="black"/>
<path d="M43.6464 12.3536C43.8417 12.5488 44.1583 12.5488 44.3536 12.3536L47.5355 9.17157C47.7308 8.97631 47.7308 8.65973 47.5355 8.46447C47.3403 8.2692 47.0237 8.2692 46.8284 8.46447L44 11.2929L41.1716 8.46447C40.9763 8.2692 40.6597 8.2692 40.4645 8.46447C40.2692 8.65973 40.2692 8.97631 40.4645 9.17157L43.6464 12.3536ZM43.5 0V12H44.5V0L43.5 0Z" fill="#FF0000"/>
<path d="M39.6464 48.3536C39.8417 48.5488 40.1583 48.5488 40.3536 48.3536L43.5355 45.1716C43.7308 44.9763 43.7308 44.6597 43.5355 44.4645C43.3403 44.2692 43.0237 44.2692 42.8284 44.4645L40 47.2929L37.1716 44.4645C36.9763 44.2692 36.6597 44.2692 36.4645 44.4645C36.2692 44.6597 36.2692 44.9763 36.4645 45.1716L39.6464 48.3536ZM39.5 36V48H40.5V36H39.5Z" fill="#FF0000"/>
<path d="M62.6464 80.3536C62.8417 80.5488 63.1583 80.5488 63.3536 80.3536L66.5355 77.1716C66.7308 76.9763 66.7308 76.6597 66.5355 76.4645C66.3403 76.2692 66.0237 76.2692 65.8284 76.4645L63 79.2929L60.1716 76.4645C59.9763 76.2692 59.6597 76.2692 59.4645 76.4645C59.2692 76.6597 59.2692 76.9763 59.4645 77.1716L62.6464 80.3536ZM62.5 68V80H63.5V68H62.5Z" fill="#FF0000"/>
</svg>
