<svg width="398" height="442" viewBox="0 0 398 442" fill="none" xmlns="http://www.w3.org/2000/svg">
<rect x="183.845" y="3.24963" width="244" height="362" rx="18" transform="rotate(30 183.845 3.24963)" stroke="#FCFBFC" stroke-width="4"/>
<rect x="183.113" y="0.517578" width="248" height="366" rx="20" transform="rotate(30 183.113 0.517578)" fill="#5D60EF"/>
<rect x="193.96" y="43.7301" width="186" height="114" rx="8" transform="rotate(30 193.96 43.7301)" stroke="#DED7FB" stroke-width="4"/>
<rect x="128.228" y="153.582" width="54" height="51" rx="10" transform="rotate(30 128.228 153.582)" fill="#FCFBFC"/>
<rect x="187.117" y="187.582" width="54" height="51" rx="10" transform="rotate(30 187.117 187.582)" fill="#DED7FB"/>
<rect x="246.739" y="224.314" width="50" height="47" rx="8" transform="rotate(30 246.739 224.314)" stroke="#DED7FB" stroke-width="4"/>
<rect x="155.617" y="242.142" width="54" height="51" rx="10" transform="rotate(30 155.617 242.142)" fill="#7C7EE9"/>
<rect x="215.239" y="278.874" width="50" height="47" rx="8" transform="rotate(30 215.239 278.874)" stroke="#DED7FB" stroke-width="4"/>
<rect x="183.739" y="333.433" width="50" height="47" rx="8" transform="rotate(30 183.739 333.433)" stroke="#DED7FB" stroke-width="4"/>
<rect x="96.7275" y="208.142" width="54" height="51" rx="10" transform="rotate(30 96.7275 208.142)" fill="#9A9BE2"/>
<rect x="65.2275" y="262.701" width="122" height="51" rx="10" transform="rotate(30 65.2275 262.701)" fill="#282DFF" fill-opacity="0.8"/>
<path d="M237.941 94.3647C237.138 93.9011 236.334 93.6476 235.53 93.6039C234.739 93.5565 233.963 93.7035 233.2 94.0451C232.447 94.3919 231.722 94.9178 231.026 95.6227C230.331 96.3277 229.683 97.1988 229.084 98.2363C228.277 99.6345 227.758 100.929 227.528 102.119C227.312 103.305 227.419 104.371 227.847 105.316C228.281 106.252 229.075 107.054 230.23 107.72C231.033 108.184 231.888 108.557 232.795 108.84C233.711 109.129 234.739 109.379 235.879 109.593L233.848 113.111C232.764 112.966 231.754 112.726 230.818 112.39C229.876 112.063 228.878 111.594 227.822 110.985C225.783 109.808 224.348 108.42 223.515 106.82C222.696 105.217 222.409 103.475 222.652 101.595C222.901 99.7062 223.612 97.7468 224.783 95.717C225.648 94.2195 226.643 92.9655 227.767 91.955C228.892 90.9444 230.11 90.2101 231.421 89.7521C232.732 89.2941 234.108 89.1504 235.549 89.3209C236.99 89.4914 238.459 90.0089 239.957 90.8735C240.94 91.4412 241.85 92.1352 242.688 92.9555C243.54 93.772 244.291 94.6572 244.944 95.611L241.622 98.2398C241.085 97.4609 240.518 96.7244 239.92 96.0305C239.322 95.3366 238.663 94.7814 237.941 94.3647ZM255.446 116.451C254.717 117.714 253.9 118.734 252.994 119.51C252.098 120.292 251.13 120.833 250.09 121.135C249.064 121.433 247.996 121.49 246.887 121.307C245.787 121.129 244.669 120.712 243.532 120.055C242.468 119.441 241.588 118.704 240.893 117.846C240.207 116.993 239.727 116.042 239.454 114.994C239.195 113.943 239.166 112.826 239.368 111.643C239.579 110.466 240.049 109.245 240.778 107.983C241.747 106.305 242.865 105.056 244.132 104.236C245.399 103.416 246.758 103.021 248.207 103.052C249.657 103.083 251.144 103.539 252.668 104.419C254.085 105.237 255.164 106.263 255.907 107.498C256.658 108.737 257.009 110.119 256.96 111.642C256.919 113.17 256.415 114.773 255.446 116.451ZM244.986 110.412C244.413 111.405 244.04 112.301 243.866 113.103C243.692 113.905 243.736 114.61 243.998 115.218C244.26 115.826 244.761 116.344 245.501 116.771C246.231 117.193 246.921 117.363 247.57 117.281C248.228 117.203 248.856 116.886 249.454 116.33C250.061 115.778 250.651 115.006 251.224 114.014C251.802 113.012 252.173 112.12 252.337 111.336C252.515 110.549 252.47 109.856 252.203 109.256C251.936 108.657 251.432 108.144 250.692 107.717C249.601 107.086 248.591 107.002 247.662 107.465C246.743 107.932 245.851 108.915 244.986 110.412ZM258.6 128.394L254.473 126.011L266.63 104.956L270.757 107.339L258.6 128.394ZM281.075 131.248C280.346 132.511 279.529 133.531 278.623 134.307C277.727 135.089 276.759 135.63 275.719 135.932C274.693 136.23 273.625 136.287 272.516 136.104C271.416 135.926 270.298 135.508 269.161 134.852C268.097 134.238 267.217 133.501 266.522 132.643C265.836 131.789 265.356 130.839 265.083 129.791C264.824 128.74 264.795 127.623 264.997 126.44C265.208 125.263 265.678 124.042 266.407 122.779C267.376 121.101 268.494 119.853 269.761 119.033C271.028 118.213 272.386 117.818 273.836 117.849C275.286 117.88 276.773 118.336 278.297 119.216C279.713 120.034 280.793 121.06 281.536 122.294C282.287 123.534 282.638 124.916 282.589 126.439C282.548 127.967 282.044 129.57 281.075 131.248ZM270.615 125.209C270.042 126.201 269.669 127.098 269.495 127.9C269.32 128.702 269.364 129.407 269.627 130.015C269.889 130.623 270.39 131.141 271.129 131.568C271.86 131.99 272.55 132.16 273.199 132.077C273.857 132 274.485 131.683 275.083 131.126C275.69 130.575 276.28 129.803 276.853 128.811C277.431 127.809 277.802 126.917 277.966 126.133C278.144 125.346 278.099 124.653 277.832 124.053C277.564 123.454 277.061 122.941 276.321 122.513C275.23 121.883 274.22 121.799 273.291 122.262C272.372 122.729 271.48 123.712 270.615 125.209ZM297.444 130.271C297.652 130.39 297.883 130.542 298.138 130.725C298.407 130.905 298.617 131.062 298.768 131.197L296.222 134.887C296.113 134.764 295.937 134.621 295.695 134.457C295.467 134.289 295.263 134.153 295.083 134.049C294.55 133.742 293.993 133.51 293.409 133.354C292.835 133.202 292.261 133.166 291.687 133.243C291.118 133.312 290.573 133.526 290.052 133.887C289.545 134.244 289.086 134.779 288.675 135.491L284.229 143.191L280.102 140.808L288.837 125.68L291.962 127.484L291.103 130.38L291.306 130.497C291.9 130.155 292.541 129.899 293.228 129.73C293.929 129.558 294.636 129.509 295.351 129.585C296.079 129.657 296.777 129.885 297.444 130.271ZM181.273 112.454C180.47 111.991 179.666 111.737 178.862 111.693C178.071 111.646 177.295 111.793 176.532 112.135C175.778 112.481 175.054 113.007 174.358 113.712C173.663 114.417 173.015 115.288 172.416 116.326C171.609 117.724 171.09 119.018 170.86 120.209C170.644 121.395 170.751 122.461 171.179 123.406C171.613 124.342 172.407 125.143 173.562 125.81C174.365 126.273 175.22 126.647 176.127 126.93C177.043 127.218 178.071 127.469 179.211 127.682L177.18 131.2C176.096 131.056 175.086 130.816 174.15 130.479C173.208 130.152 172.21 129.684 171.154 129.075C169.115 127.897 167.68 126.509 166.847 124.91C166.028 123.307 165.741 121.565 165.984 119.685C166.233 117.796 166.943 115.836 168.115 113.807C168.98 112.309 169.975 111.055 171.099 110.044C172.224 109.034 173.442 108.3 174.753 107.842C176.063 107.384 177.439 107.24 178.881 107.41C180.322 107.581 181.791 108.098 183.289 108.963C184.272 109.531 185.182 110.225 186.02 111.045C186.871 111.862 187.623 112.747 188.276 113.701L184.954 116.329C184.417 115.55 183.85 114.814 183.252 114.12C182.654 113.426 181.995 112.871 181.273 112.454ZM195.759 122.333C197.788 123.505 199.089 124.845 199.661 126.354C200.234 127.864 199.999 129.52 198.957 131.324L193.137 141.405L190.255 139.741L190.644 137.224L190.535 137.161C189.79 137.452 189.093 137.639 188.444 137.722C187.795 137.804 187.13 137.757 186.45 137.581C185.77 137.405 185.01 137.075 184.171 136.59C183.278 136.075 182.574 135.44 182.06 134.685C181.554 133.936 181.301 133.093 181.302 132.155C181.307 131.208 181.625 130.188 182.255 129.097C183.182 127.491 184.428 126.635 185.993 126.528C187.564 126.412 189.5 126.965 191.802 128.186L194.474 129.62L194.857 128.957C195.315 128.163 195.444 127.462 195.242 126.852C195.041 126.243 194.57 125.725 193.831 125.297C193.1 124.876 192.323 124.565 191.499 124.366C190.676 124.168 189.821 124.023 188.935 123.933L189.178 120.356C190.226 120.396 191.316 120.58 192.449 120.909C193.591 121.244 194.694 121.718 195.759 122.333ZM193.084 132.029L191.456 131.161C190.1 130.426 189.032 130.129 188.254 130.269C187.485 130.414 186.892 130.848 186.475 131.569C186.11 132.201 186.035 132.758 186.248 133.243C186.467 133.718 186.874 134.127 187.47 134.471C188.354 134.981 189.249 135.15 190.156 134.975C191.071 134.806 191.808 134.239 192.365 133.274L193.084 132.029ZM201.526 146.249L197.399 143.866L209.556 122.811L213.683 125.194L201.526 146.249ZM211.857 152.575C210.36 151.71 209.239 150.702 208.497 149.552C207.759 148.392 207.445 147.08 207.557 145.617C207.668 144.154 208.239 142.529 209.27 140.743C210.338 138.893 211.519 137.567 212.813 136.762C214.122 135.954 215.49 135.595 216.917 135.686C218.353 135.781 219.807 136.253 221.277 137.102C222.324 137.706 223.166 138.331 223.804 138.976C224.456 139.617 224.986 140.242 225.393 140.849L222.331 143.34C221.832 142.703 221.35 142.142 220.885 141.657C220.425 141.163 219.915 140.754 219.355 140.431C218.634 140.014 217.935 139.839 217.259 139.906C216.588 139.964 215.94 140.263 215.315 140.805C214.69 141.346 214.083 142.126 213.494 143.145C212.916 144.147 212.563 145.05 212.436 145.854C212.308 146.658 212.39 147.361 212.68 147.962C212.976 148.554 213.467 149.047 214.152 149.443C215.009 149.938 215.837 150.265 216.634 150.425C217.437 150.576 218.274 150.626 219.145 150.576L217.106 154.108C216.246 154.14 215.419 154.041 214.625 153.812C213.835 153.596 212.913 153.184 211.857 152.575ZM242.75 149.879L234.016 165.007L230.85 163.179L231.412 160.924L231.195 160.799C230.574 161.125 229.926 161.31 229.251 161.354C228.576 161.397 227.902 161.327 227.227 161.141C226.552 160.956 225.899 160.681 225.267 160.317C224.185 159.692 223.351 158.958 222.767 158.116C222.188 157.264 221.908 156.302 221.925 155.23C221.952 154.163 222.34 152.98 223.09 151.681L228.786 141.816L232.913 144.199L227.811 153.035C227.186 154.118 226.909 155.046 226.979 155.82C227.049 156.595 227.508 157.226 228.356 157.716C229.195 158.2 229.963 158.391 230.66 158.288C231.362 158.176 232.021 157.805 232.638 157.175C233.269 156.541 233.894 155.687 234.514 154.613L238.623 147.496L242.75 149.879ZM242.473 169.89L238.346 167.507L250.502 146.452L254.629 148.835L242.473 169.89ZM261.928 160.536C263.958 161.708 265.259 163.048 265.831 164.558C266.403 166.067 266.169 167.723 265.127 169.527L259.307 179.609L256.424 177.945L256.813 175.427L256.705 175.364C255.96 175.656 255.262 175.842 254.614 175.925C253.965 176.007 253.3 175.96 252.62 175.784C251.94 175.608 251.18 175.278 250.341 174.793C249.448 174.278 248.744 173.643 248.229 172.888C247.724 172.139 247.471 171.296 247.471 170.358C247.477 169.411 247.795 168.391 248.425 167.3C249.352 165.694 250.598 164.838 252.163 164.731C253.734 164.615 255.67 165.168 257.972 166.389L260.644 167.823L261.027 167.16C261.485 166.366 261.614 165.665 261.412 165.055C261.211 164.446 260.74 163.928 260 163.501C259.27 163.079 258.493 162.768 257.669 162.57C256.846 162.371 255.991 162.226 255.105 162.136L255.348 158.559C256.395 158.599 257.486 158.783 258.619 159.112C259.761 159.447 260.864 159.922 261.928 160.536ZM259.253 170.232L257.625 169.364C256.269 168.629 255.202 168.332 254.424 168.472C253.654 168.617 253.061 169.051 252.645 169.772C252.28 170.404 252.205 170.962 252.418 171.446C252.637 171.921 253.044 172.33 253.64 172.674C254.524 173.185 255.419 173.353 256.325 173.178C257.241 173.009 257.977 172.442 258.535 171.477L259.253 170.232ZM271.685 182.732C272.136 182.992 272.599 183.2 273.075 183.354C273.56 183.514 274.054 183.649 274.556 183.758L272.783 186.83C272.226 186.773 271.582 186.618 270.851 186.364C270.123 186.124 269.371 185.78 268.595 185.332C267.693 184.811 266.965 184.198 266.41 183.493C265.869 182.784 265.599 181.949 265.601 180.987C265.617 180.022 266 178.89 266.75 177.591L270.961 170.298L268.985 169.157L269.993 167.411L273.063 167.344L276.098 164.838L278.737 166.361L276.877 169.582L281.113 172.027L279.323 175.126L275.088 172.681L270.877 179.974C270.544 180.551 270.456 181.078 270.614 181.554C270.787 182.027 271.143 182.419 271.685 182.732ZM293.743 189.369C293.014 190.632 292.197 191.651 291.291 192.428C290.395 193.209 289.427 193.751 288.387 194.053C287.361 194.35 286.293 194.408 285.184 194.224C284.084 194.046 282.966 193.629 281.829 192.973C280.765 192.358 279.885 191.622 279.19 190.763C278.504 189.91 278.024 188.96 277.751 187.912C277.492 186.86 277.463 185.743 277.665 184.561C277.876 183.383 278.346 182.163 279.075 180.9C280.044 179.222 281.162 177.973 282.429 177.153C283.696 176.333 285.055 175.939 286.504 175.97C287.954 176.001 289.441 176.456 290.965 177.337C292.382 178.154 293.461 179.181 294.204 180.415C294.955 181.655 295.306 183.036 295.257 184.56C295.217 186.088 294.712 187.691 293.743 189.369ZM283.283 183.33C282.71 184.322 282.337 185.219 282.163 186.021C281.989 186.822 282.033 187.527 282.295 188.136C282.557 188.744 283.058 189.262 283.798 189.689C284.528 190.111 285.218 190.281 285.867 190.198C286.525 190.121 287.153 189.804 287.751 189.247C288.358 188.696 288.948 187.924 289.521 186.931C290.099 185.93 290.47 185.038 290.634 184.254C290.812 183.467 290.767 182.773 290.5 182.174C290.233 181.575 289.729 181.061 288.989 180.634C287.898 180.004 286.888 179.92 285.959 180.382C285.04 180.85 284.148 181.832 283.283 183.33ZM310.113 188.391C310.32 188.511 310.551 188.663 310.806 188.846C311.076 189.025 311.285 189.183 311.436 189.318L308.89 193.008C308.781 192.885 308.605 192.741 308.363 192.578C308.135 192.41 307.931 192.274 307.751 192.17C307.218 191.862 306.661 191.631 306.077 191.474C305.503 191.323 304.929 191.286 304.355 191.364C303.786 191.432 303.241 191.647 302.72 192.008C302.213 192.365 301.754 192.9 301.343 193.612L296.898 201.312L292.77 198.929L301.505 183.801L304.631 185.605L303.771 188.501L303.974 188.618C304.568 188.276 305.209 188.02 305.896 187.851C306.597 187.679 307.304 187.63 308.019 187.706C308.747 187.777 309.445 188.006 310.113 188.391Z" fill="#DED7FB"/>
<path d="M258.978 256.802L264.215 259.825L262.504 262.788L257.267 259.765L254.26 264.975L251.296 263.264L254.304 258.054L249.067 255.031L250.778 252.067L256.015 255.091L259.062 249.813L262.025 251.524L258.978 256.802Z" fill="#DED7FB"/>
<path d="M220.198 312.191L222.151 308.808L229.417 313.003L227.464 316.386L220.198 312.191Z" fill="#DED7FB"/>
<path d="M187.591 361.511L189.286 358.575L202.723 366.333L201.028 369.269L187.591 361.511ZM184.552 366.775L186.263 363.812L199.699 371.569L197.989 374.533L184.552 366.775Z" fill="#DED7FB"/>
</svg>
