<svg width="536" height="657" viewBox="0 0 536 657" fill="none" xmlns="http://www.w3.org/2000/svg">
<path fill-rule="evenodd" clip-rule="evenodd" d="M439.795 359.283H459.265V657H393.983V359.283H404.291V352.194H399.709V346.287H393.983V339.199H389.402V332.11H411.162V313.207H419.179V306.119L355.043 273.039L38.9402 29.6671C38.1665 29.2148 37.3968 28.7379 36.6365 28.239L33.2137 273.039H37.7949V290.76L57.2649 314.389H62.9914V334.473H0V314.389H8.01709L26.3419 290.76V273.039H29.7777V245.866L33.2137 25.7898C24.4084 18.9255 18.3155 9.41887 25.1966 2.49446C31.3443 -3.69206 42.4011 2.82676 48.1025 9.05L458.12 226.964H493.624V234.052H487.897V332.11H536V339.199H529.128V346.287H451.248V353.376H439.795V359.283ZM471.863 313.207V332.11H479.88V254.136H477.59L463.846 280.025V313.207H471.863ZM463.846 254.136H470.718L463.846 268.313V254.136ZM458.12 254.136H451.248V250.592L431.891 289.695L445.521 303.756H446.667L458.12 280.128V254.136ZM442.085 303.756V308.482H444.376V313.207H434.068L432.923 312.026L423.761 306.119L430.585 292.333L442.085 303.756ZM420.215 304.135L427.813 289.579L425.434 287.216L415.744 301.393L413.202 300.212L420.215 304.135ZM413.202 300.212L422.615 284.416L403.486 265.414L388.256 286.255L413.202 300.212ZM450.103 234.052V226.964L51.5385 14.3086L381.385 237.597L429.201 286.921L451.248 244.685V238.778H454.684V234.052H450.103ZM380.239 242.322L400.458 262.406L384.969 284.416L359.142 269.966L379.094 241.544L380.239 242.322ZM356.188 268.313L376.081 239.497L354.611 224.913L336.066 252.955L356.188 268.313ZM351.607 222.872L332.97 250.592L313.461 235.702L331.543 209.243L351.607 222.872ZM310.703 233.597L329.076 207.567L311.973 195.948L293.883 220.759L310.703 233.597ZM308.554 193.626L291.178 218.694L273.455 205.167L289.433 180.637L308.554 193.626ZM270.291 202.751L286.847 178.881L267.194 165.53C266.923 165.53 256.165 180.437 250.82 187.891L270.291 202.751ZM264.564 163.744L247.719 185.524L231.065 172.812L246.596 151.538L264.564 163.744ZM227.716 170.256L243.586 149.493L226.298 137.749L211.88 158.169L227.716 170.256ZM223.333 135.735L208.767 155.792L192.41 143.308L206.154 124.065L223.333 135.735ZM189.693 141.234L203.179 122.045L184.793 109.555L170.65 126.699L189.693 141.234ZM181.194 107.11L166.988 123.904L150.034 110.964L163.484 95.0797L181.194 107.11ZM146.893 108.567L160.342 92.945L141.056 79.8437L129.778 95.5035L146.893 108.567ZM138.177 77.8886L126.385 92.9137L111.787 81.7716L121.872 66.8119L138.177 77.8886ZM108.216 79.0459L118.716 64.6684L102.775 53.8395L92.4824 67.0372L108.216 79.0459ZM100.235 52.1139L89.9569 65.1095L74.3232 53.1769L83.403 40.6801L100.235 52.1139ZM70.8706 50.5417L80.1709 38.4845L66.7147 29.3436L57.196 40.1044L70.8706 50.5417ZM43.5213 29.6671L51.5385 19.0343L63.8262 27.3814L54.1129 37.7512L43.5213 29.6671ZM52.6837 314.389L35.5042 290.76H28.6324L12.5983 314.389H52.6837Z" fill="#DED7FB"/>
</svg>
